<svg width="640" height="639" viewBox="0 0 640 639" fill="none" xmlns="http://www.w3.org/2000/svg">
<g clip-path="url(#clip0_791_1880)">
<path d="M605.936 347.43L607.114 332.187C607.129 331.992 607.058 331.642 606.866 331.578L596.529 327.339C593.959 326.256 593.41 326.999 593.29 328.563L593.176 330.028C593.154 330.322 592.951 330.404 592.755 330.389L591.695 330.111C591.41 329.99 591.23 329.78 591.252 329.487C591.29 328.998 591.588 327.055 591.92 322.756C592.222 318.848 592.211 317.078 592.242 316.687C592.264 316.394 592.475 316.213 592.76 316.334L593.82 316.612C594.106 316.732 594.196 316.838 594.173 317.131L594.083 318.303C593.962 319.867 594.969 320.829 597.396 321.852L620.106 331.324C621.534 331.926 622.384 331.107 622.467 330.032L622.603 328.273C622.618 328.078 622.829 327.897 623.114 328.018L624.174 328.296C624.459 328.417 624.55 328.522 624.527 328.815C624.497 329.206 624.146 331.833 623.852 335.643C623.61 338.77 623.568 341.224 623.53 341.713C623.5 342.103 623.297 342.186 623.101 342.171L621.959 341.689C621.666 341.667 621.576 341.561 621.598 341.268L621.689 340.096C621.825 338.337 621.292 337.608 619.481 336.878L609.241 332.646C609.053 332.534 608.941 332.721 608.925 332.917L607.747 348.159C607.732 348.355 607.815 348.558 608.003 348.671L618.727 352.989C620.061 353.534 620.715 352.7 620.798 351.625L620.873 350.648C620.889 350.453 621.091 350.37 621.385 350.393L622.534 350.777C622.73 350.792 622.812 350.995 622.79 351.288C622.76 351.679 622.417 354.208 622.167 357.432C621.941 360.364 621.929 362.427 621.891 362.915C621.861 363.306 621.65 363.486 621.462 363.374L620.313 362.99C620.117 362.975 619.937 362.764 619.952 362.569L620.043 361.396C620.141 360.126 619.615 359.299 617.804 358.569L595.041 349.143C593.229 348.413 591.741 348.593 591.643 349.863L591.507 351.622C591.484 351.915 591.274 352.095 590.988 351.975L589.936 351.599C589.643 351.576 589.553 351.471 589.591 350.982C589.628 350.494 589.896 348.942 590.221 344.74C590.538 340.637 590.542 338.671 590.588 338.085C590.61 337.792 590.813 337.709 591.204 337.739L592.068 338.003C592.361 338.025 592.549 338.138 592.527 338.431L592.421 339.799C592.293 341.46 593.096 342.505 596.287 343.833L605.523 347.692C605.808 347.813 605.921 347.625 605.936 347.43Z" fill="#FF4D00"/>
<path d="M602.779 374.557L603.302 372.163C603.7 370.344 603.101 369.411 602.069 369.085C601.282 369.013 600.732 369.696 600.34 370.112C600.086 370.357 599.344 370.997 598.291 370.767C597.238 370.537 596.597 369.795 596.911 368.359C597.141 367.306 598.392 366.175 600.689 366.677C602.7 367.116 604.438 368.801 605.058 369.638C605.902 370.826 606.916 372.151 606.163 375.598C604.991 380.959 605.057 381.575 604.931 382.15C604.806 382.724 604.414 383.14 603.848 382.515C601.374 380.068 598.247 376.475 593.125 375.356C589.87 374.644 588.253 375.846 587.97 377.138C587.552 379.053 588.12 380.582 589.135 381.907C591.28 384.482 593.922 386.163 596.699 386.77C597.943 387.042 598.836 387.087 599.611 386.755C600.153 386.572 601.002 386.357 601.577 386.482C602.534 386.692 603.686 387.846 603.268 389.761C602.933 391.293 601.053 391.634 599.712 391.341C596.936 390.734 593.827 389.353 590.159 385.943C586.831 382.808 584.413 378.267 585.355 373.958C585.669 372.522 586.473 371.595 587.582 370.884C588.351 370.35 589.806 370.116 591.338 370.451C593.061 370.828 594.967 371.746 596.475 372.878C599.198 374.878 601.578 377.755 602.882 379.595L603.232 379.371C602.483 378.204 602.486 375.897 602.779 374.557Z" fill="#FF4D00"/>
<path d="M594.946 417.476L594.11 419.986C594.017 420.265 593.8 420.296 593.552 420.11C591.878 418.624 586.67 414.411 585.585 413.637C584.81 413.172 580.005 409.61 579.447 409.424C578.983 409.27 578.828 409.425 578.704 409.797C578.487 410.447 580.1 413.05 580.441 413.577C580.565 413.825 580.627 413.948 580.425 414.088L579.821 414.507C579.697 414.569 579.511 414.507 579.263 414.321C578.488 413.546 575.666 408.992 576.874 405.366C577.214 404.343 577.834 404.033 578.578 404.28C579.229 404.497 580.159 405.116 584.436 408.4L584.622 408.152C582.39 405.24 578.731 399.787 580 395.974C580.402 394.766 582.354 393.556 584.307 394.206C590.537 396.28 598.598 406.194 596.524 412.424C595.843 414.469 594.697 415.121 593.767 415.431L594.821 416.608C595.038 416.887 595.039 417.197 594.946 417.476ZM582.233 399.816C581.645 401.583 586.761 408.864 588.249 410.289C589.334 411.373 590.574 412.302 592.062 412.797C592.806 413.045 594.386 412.641 594.819 411.34C595.222 410.131 594.57 408.365 593.252 406.583C590.446 402.757 586.695 400.062 584.092 399.196C583.069 398.855 582.48 399.072 582.233 399.816Z" fill="#FF4D00"/>
<path d="M595.637 448.694L592.703 455.219C592.422 455.845 591.895 455.823 591.642 455.548C590.334 454.154 572.723 437.64 570.274 435.68C569.054 434.809 568.468 434.438 568.187 435.064C567.866 435.779 568.988 438.54 569.136 438.929C569.234 439.188 569.154 439.366 568.959 439.44L568.207 439.8C568.077 439.849 567.898 439.769 567.76 439.599C567.474 439.041 565.345 434.216 566.952 430.64C567.394 429.657 567.993 429.282 568.798 429.643C569.87 430.126 572.15 432.225 574.251 434.244L574.63 433.877C572.109 430.165 569.565 424.831 571.011 421.613C571.895 419.646 574.286 419.109 576.163 419.953C579.291 421.36 583.462 425.706 585.503 431.083C586.143 432.768 587.357 436.161 585.951 439.289C585.388 440.541 584.329 441.462 583.094 441.819L591.445 449.174C592.129 449.804 593.144 449.937 593.666 448.776L594.269 447.435C594.43 447.077 594.649 447.068 594.698 447.198L595.69 447.859C595.829 448.029 595.878 448.158 595.637 448.694ZM580.946 439.188C582.331 439.811 583.92 439.505 584.623 437.94C586.029 434.812 578.404 426.441 574.739 424.793C573.756 424.351 572.978 424.646 572.697 425.272C572.094 426.613 574.147 430.651 575.796 433.435C576.932 435.45 579.158 438.385 580.946 439.188Z" fill="#FF4D00"/>
<path d="M560.456 472.424L555.599 466.146C554.385 464.576 553.825 463.994 553.409 463.734C553.077 463.526 552.724 463.536 552.516 463.869C552.079 464.751 552.97 468.315 553.146 468.772C553.26 468.959 553.156 469.125 552.953 469.172L552.211 469.343C551.94 469.405 551.805 469.436 551.743 469.166C551.567 468.709 549.4 463.305 552.234 458.778C552.78 457.906 553.486 457.886 554.151 458.302C554.981 458.822 556.517 460.708 560.088 465.256L562.599 468.447C563.461 469.564 564.094 470.307 564.592 470.619C564.924 470.827 565.194 470.765 565.402 470.433C565.818 469.768 564.855 466.506 564.554 465.508C564.492 465.238 564.596 465.072 564.866 465.01L565.5 464.829C565.729 464.74 565.864 464.709 565.978 464.896C566.071 465.302 568.549 472.056 566.261 475.71C565.637 476.707 564.826 476.894 563.996 476.374C563.165 475.854 561.966 474.352 560.456 472.424ZM570.636 479.895C571.676 478.233 573.349 478.24 574.387 478.89C575.509 479.592 575.98 481.332 575.174 482.62C574.134 484.281 572.55 484.503 571.511 483.853C570.556 483.255 569.7 481.39 570.636 479.895Z" fill="#FF4D00"/>
<path d="M545.356 479.034L542.691 475.075C542.593 474.879 542.573 474.741 542.867 474.349L544.748 471.841C545.013 471.488 545.317 471.654 545.493 471.909L550.746 480.014C552.608 482.758 554.333 485.521 554.882 485.933C555.274 486.227 555.685 486.168 555.95 485.815C556.479 485.11 556.215 482.522 556.058 481.425C555.96 481.229 556.077 481.072 556.283 481.043L557.038 480.935C557.234 480.837 557.449 480.876 557.489 481.15C557.783 482.228 558.821 487.05 556.146 490.617C555.293 491.754 554.245 491.519 553.696 491.107C552.834 490.461 551.021 487.325 549.825 485.325L549.492 485.443C550.413 487.971 552.647 495.282 549.854 499.006C548.767 500.457 547.081 500.417 545.983 499.594C544.964 498.83 543.504 496.938 540.672 492.303C538.849 489.343 537.771 487.677 537.222 487.266C536.83 486.972 536.477 486.952 536.242 487.266C535.831 487.815 536.046 490.304 536.301 491.107C536.262 491.323 536.144 491.48 535.87 491.519L535.262 491.676C535.066 491.774 534.909 491.656 534.792 491.323C534.517 490.382 533.831 485.58 536.301 482.287C536.948 481.425 537.771 481.307 538.477 481.837C539.182 482.366 541.025 485.463 543.533 489.304C544.739 491.127 546.895 494.459 547.365 494.812C547.992 495.282 548.571 495.165 548.982 494.616C549.864 493.44 549.198 487.795 547.767 484.149C547.101 482.425 546.454 480.837 545.356 479.034Z" fill="#FF4D00"/>
<path d="M539.389 530.364L534.517 535.603C534.05 536.105 533.558 535.915 533.407 535.574C532.615 533.835 521.232 512.544 519.541 509.901C518.665 508.685 518.229 508.146 517.762 508.649C517.228 509.223 517.406 512.198 517.421 512.614C517.431 512.891 517.297 513.034 517.09 513.042L516.261 513.141C516.123 513.146 515.979 513.013 515.902 512.807C515.81 512.187 515.342 506.934 518.011 504.063C518.745 503.274 519.433 503.11 520.079 503.71C520.94 504.511 522.426 507.231 523.768 509.817L524.245 509.592C523.048 505.267 522.349 499.398 524.751 496.814C526.22 495.235 528.656 495.494 530.163 496.895C532.675 499.231 535.231 504.685 535.44 510.433C535.505 512.233 535.567 515.837 533.231 518.349C532.297 519.354 530.999 519.886 529.714 519.829L535.265 529.474C535.711 530.29 536.629 530.742 537.496 529.809L538.497 528.732C538.764 528.445 538.974 528.507 538.98 528.645L539.707 529.59C539.784 529.795 539.789 529.933 539.389 530.364ZM528.523 516.648C529.636 517.682 531.239 517.901 532.407 516.645C534.742 514.133 530.204 503.758 527.262 501.022C526.473 500.288 525.642 500.318 525.174 500.821C524.173 501.897 524.822 506.381 525.492 509.546C525.921 511.819 527.088 515.313 528.523 516.648Z" fill="#FF4D00"/>
<path d="M502.421 527.409L501.514 527.502C501.234 527.557 501.168 527.484 501.11 527.273C500.728 525.241 501.099 520.681 504.299 517.791C506.699 515.623 509.336 515.619 511.635 518.164C514.196 521.001 516.15 526.235 515.598 531.619C515.326 534.242 514.143 537.026 512.18 538.8C510.507 540.31 508.649 540.008 507.697 538.953C506.022 537.098 505.747 534.309 506.806 531.24C507.85 528.449 509.419 526.239 510.736 524.918C510.553 524.423 509.851 523.208 508.669 521.899C507.355 520.444 505.622 520.425 504.603 521.345C502.931 522.856 502.461 525.26 502.646 527.074C502.639 527.212 502.56 527.416 502.421 527.409ZM512.349 535.478C514.167 533.836 512.833 528.702 511.496 526.345C510.841 526.936 509.49 528.949 509.107 531.011C508.898 532.388 509.156 534.136 510.076 535.154C510.667 535.808 511.549 536.2 512.349 535.478Z" fill="#FF4D00"/>
<path d="M494.13 544.796L493.719 544.737C493.954 548.97 493.542 553.812 490.563 556.046C488.133 557.869 486.016 556.516 484.693 554.752C482.547 551.891 481.253 547.716 480.783 544.149C480.156 539.719 480.763 535.956 483.351 534.016C484.605 533.075 486.271 533.173 487.212 534.427C487.917 535.368 488.055 536.858 487.035 537.622C486.094 538.328 485.173 537.916 484.625 537.348C484.135 536.858 483.596 536.466 483.047 536.877C482.184 537.524 483.174 540.64 484.076 543.149C484.997 546.011 486.467 549.441 487.849 551.283C488.525 552.185 489.466 552.949 490.406 552.244C492.131 550.95 492.562 545.482 492.602 543.247C492.602 541.287 492.327 539.288 491.798 537.602L490.25 531.291C490.152 530.997 490.211 530.831 490.485 530.625L492.994 528.743C493.347 528.479 493.601 528.655 493.719 529.057L501.735 557.222C502.039 558.281 502.343 559.094 502.607 559.447C502.96 559.917 503.705 559.849 504.411 559.319L505.587 558.437C505.743 558.32 506.018 558.359 506.116 558.653L506.488 559.476C506.586 559.77 506.567 559.907 506.175 560.201L499.981 564.847C499.667 565.082 499.393 565.043 499.217 564.807C499.04 564.572 498.903 564.062 498.697 563.298L494.13 544.796Z" fill="#FF4D00"/>
<path d="M464.947 548.185C467.409 546.669 471.11 546.979 473.474 550.818C475.632 554.323 476.52 558.38 475.75 562.364C475.212 565.227 473.723 567.295 471.47 568.683C469.05 570.173 465.372 570.367 463.059 566.612C461.415 563.941 459.827 558.934 460.635 554.639C461.09 551.826 462.444 549.727 464.947 548.185ZM466.919 550.078C465.292 551.08 464.509 553.174 464.552 556.888C464.627 560.467 465.466 564.726 466.391 566.228C466.956 567.146 468.131 567.746 469.341 567.001C471.052 565.948 471.738 563.511 471.676 558.831C471.614 555.646 470.907 552.629 469.879 550.96C469.185 549.834 467.837 549.513 466.919 550.078Z" fill="#FF4D00"/>
<path d="M451.79 563.664L454.761 587.07C454.985 588.886 455.614 589.995 456.919 589.318L458.312 588.597C458.486 588.506 458.597 588.614 458.666 588.854L458.924 589.99C458.948 590.143 458.906 590.276 458.688 590.388L451.989 593.861C451.597 594.064 451.375 593.848 451.303 593.389L447.778 565.081C447.627 563.725 447.295 562.02 446.425 562.471C445.555 562.922 444.672 565.477 444.465 566.357C444.336 566.534 444.249 566.579 443.985 566.495L443.238 566.331C443.061 566.202 442.928 566.16 442.967 565.809C443.006 565.457 444.808 559.777 448.636 557.793C449.419 557.387 450.476 557.722 450.927 558.592C451.288 559.288 451.593 562.22 451.79 563.664Z" fill="#FF4D00"/>
<path d="M433.451 601.97L426.862 604.756C426.23 605.024 425.859 604.649 425.86 604.276C425.85 602.365 424.176 578.28 423.714 575.177C423.413 573.708 423.236 573.038 422.604 573.306C421.882 573.611 420.826 576.398 420.67 576.784C420.566 577.041 420.385 577.117 420.193 577.039L419.396 576.791C419.267 576.738 419.191 576.558 419.205 576.339C419.375 575.735 421.097 570.751 424.708 569.224C425.701 568.804 426.395 568.936 426.738 569.748C427.197 570.831 427.439 573.921 427.606 576.83L428.133 576.819C428.811 572.383 430.575 566.742 433.824 565.368C435.81 564.528 437.927 565.76 438.729 567.656C440.065 570.815 440.165 576.838 438.003 582.168C437.326 583.837 435.908 587.151 432.749 588.487C431.485 589.021 430.083 588.976 428.934 588.398L430.052 599.47C430.125 600.397 430.778 601.185 431.951 600.688L433.305 600.116C433.666 599.963 433.833 600.105 433.781 600.234L434.058 601.393C434.044 601.612 433.992 601.74 433.451 601.97ZM429.15 585.008C429.741 586.407 431.114 587.263 432.694 586.595C435.853 585.259 435.958 573.935 434.393 570.235C433.973 569.242 433.202 568.929 432.57 569.197C431.216 569.769 429.973 574.126 429.289 577.288C428.751 579.537 428.386 583.203 429.15 585.008Z" fill="#FF4D00"/>
<path d="M400.788 584.158L399.923 583.869C399.645 583.804 399.615 583.71 399.649 583.494C400.137 581.485 402.353 577.482 406.46 576.166C409.54 575.18 411.944 576.261 412.991 579.528C414.157 583.168 413.782 588.742 411.062 593.421C409.733 595.699 407.509 597.749 404.989 598.557C402.842 599.244 401.274 598.203 400.84 596.85C400.078 594.47 400.977 591.815 403.205 589.455C405.306 587.341 407.647 585.974 409.39 585.312C409.427 584.786 409.289 583.39 408.75 581.71C408.152 579.843 406.58 579.112 405.274 579.531C403.127 580.218 401.709 582.216 401.131 583.945C401.068 584.068 400.911 584.221 400.788 584.158ZM406.511 595.599C408.844 594.852 409.742 589.624 409.495 586.925C408.655 587.194 406.595 588.472 405.397 590.193C404.639 591.362 404.155 593.061 404.573 594.368C404.842 595.208 405.485 595.928 406.511 595.599Z" fill="#FF4D00"/>
<path d="M386.644 582.536L389.793 581.798C390.079 581.731 390.314 581.877 390.264 582.09L389.692 590.378C389.536 592.931 389.103 598.166 389.304 599.025C389.394 599.406 389.865 599.698 390.342 599.586C391.201 599.385 392.684 597.125 393.128 596.014C393.178 595.801 393.369 595.756 393.582 595.806L394.244 596.054C394.362 596.127 394.407 596.318 394.356 596.531C393.833 598.163 391.872 602.247 387.961 603.165C386.529 603.501 385.829 602.659 385.627 601.8C385.426 600.941 385.702 598.259 386.013 594.864L385.635 594.752C385.021 597.714 382.999 604.329 379.851 605.068C378.515 605.381 377.146 604.696 376.811 603.264C376.475 601.833 377.329 600.324 378.187 600.123C378.76 599.989 379.259 599.972 379.708 600.169C380.157 600.365 380.51 600.585 381.178 600.428C382.514 600.114 384.268 595.576 385.05 592.473C385.28 591.312 385.514 589.948 385.658 588.203L386.139 582.957C386.189 582.744 386.358 582.604 386.644 582.536Z" fill="#FF4D00"/>
<path d="M349.59 594.113L350.788 589.493C350.87 589.29 350.96 589.184 351.448 589.144L354.574 588.891C355.013 588.855 355.09 589.193 355.016 589.494L352.428 598.799C351.608 602.012 350.681 605.135 350.737 605.819C350.776 606.307 351.093 606.576 351.533 606.541C352.412 606.469 354.174 604.556 354.892 603.712C354.974 603.508 355.169 603.492 355.327 603.627L355.908 604.121C356.112 604.202 356.225 604.39 356.046 604.601C355.433 605.536 352.511 609.509 348.067 609.87C346.65 609.985 346.132 609.044 346.076 608.36C345.989 607.286 347.136 603.85 347.84 601.629L347.531 601.458C346.249 603.823 342.255 610.342 337.615 610.718C335.808 610.865 334.72 609.577 334.609 608.209C334.506 606.94 334.955 604.593 336.549 599.4C337.557 596.073 338.09 594.162 338.035 593.478C337.995 592.99 337.776 592.712 337.385 592.744C336.701 592.8 334.98 594.611 334.547 595.334C334.36 595.448 334.165 595.464 333.953 595.284L333.433 594.933C333.23 594.851 333.214 594.656 333.386 594.347C333.908 593.518 337.049 589.822 341.152 589.489C342.226 589.401 342.86 589.94 342.931 590.819C343.003 591.698 341.905 595.13 340.691 599.555C340.125 601.666 339.059 605.488 339.106 606.075C339.17 606.856 339.641 607.211 340.325 607.155C341.79 607.037 345.575 602.796 347.357 599.309C348.207 597.667 348.967 596.13 349.59 594.113Z" fill="#FF4D00"/>
<path d="M306.179 611.071L303.533 611.009C303.239 611.003 303.146 610.804 303.251 610.513C304.18 608.476 306.677 602.26 307.098 600.995C307.315 600.118 309.308 594.479 309.321 593.891C309.333 593.401 309.139 593.299 308.747 593.289C308.061 593.274 306.047 595.58 305.644 596.06C305.444 596.252 305.343 596.347 305.151 596.196L304.573 595.741C304.477 595.641 304.482 595.445 304.587 595.154C305.099 594.185 308.624 590.15 312.445 590.238C313.522 590.263 314.001 590.764 313.983 591.548C313.967 592.234 313.648 593.305 311.766 598.359L312.058 598.464C314.186 595.474 318.323 590.374 322.34 590.467C323.614 590.497 325.343 592.007 325.296 594.065C325.143 600.629 318.036 611.247 311.471 611.095C309.316 611.045 308.357 610.141 307.787 609.344L306.971 610.697C306.769 610.986 306.473 611.078 306.179 611.071ZM319.324 593.73C317.462 593.687 312.006 600.717 311.081 602.558C310.363 603.914 309.84 605.372 309.803 606.94C309.785 607.723 310.635 609.115 312.007 609.147C313.28 609.177 314.777 608.035 316.093 606.252C318.926 602.446 320.4 598.069 320.463 595.325C320.488 594.248 320.107 593.749 319.324 593.73Z" fill="#FF4D00"/>
<path d="M286.489 606.106L291.897 595.832C292.399 594.801 293.009 593.682 293.07 593.097C293.121 592.61 292.869 592.189 292.284 592.128C291.163 592.011 287.887 594.132 287.564 594.394C287.349 594.569 287.251 594.558 287.077 594.343L286.602 593.702C286.417 593.584 286.427 593.487 286.545 593.302C287.211 592.584 292.025 588.948 296.411 589.406C297.873 589.559 298.377 590.4 298.306 591.082C298.214 591.959 297.917 592.914 297.533 593.76L290.972 606.574L294.579 606.951C294.871 606.981 294.958 607.089 294.82 607.469L294.298 608.695C294.17 608.977 294.062 609.065 293.77 609.034L290.017 608.642L287.479 613.599C287.233 614.066 287.028 614.143 286.141 614.149C285.156 614.145 283.115 614.818 282.695 615.07C282.392 615.137 282.079 615.301 281.884 615.281C281.592 615.25 281.448 614.743 281.694 614.276L285.533 608.174L280.514 607.649C280.319 607.629 280.242 607.424 280.37 607.142L280.907 605.769C280.976 605.579 281.128 605.546 281.42 605.576L286.489 606.106Z" fill="#FF4D00"/>
<path d="M261.632 600.178L259.362 604.234C259.21 604.505 258.922 604.45 258.633 604.395L255.36 603.77C254.879 603.679 254.819 603.468 254.989 603.101L260.231 593.925C262.313 590.331 263.258 588.516 263.313 588.227C263.405 587.746 263.23 587.613 262.942 587.558C262.268 587.429 260.09 588.91 259.251 589.647C259.118 589.822 258.925 589.785 258.76 589.604L258.265 589.06C258.187 588.946 258.224 588.753 258.357 588.579C258.985 587.901 263.222 584.519 267.265 585.29C268.228 585.473 268.695 586.161 268.53 587.028C268.401 587.701 265.237 592.785 264.441 594.079L264.742 594.336C267.19 591.96 273.041 586.391 277.758 587.291C278.913 587.511 279.733 588.965 279.55 589.928C279.201 591.757 277.568 594.039 274.76 598.043C272.843 600.77 271.689 602.894 271.561 603.568C271.469 604.05 271.799 604.412 272.28 604.504C273.05 604.651 275.191 603.363 276.241 602.565C276.374 602.391 276.663 602.446 276.771 602.666L277.208 603.249C277.286 603.363 277.268 603.46 277.135 603.634C276.2 604.353 272.355 607.511 268.264 606.731C266.916 606.474 266.444 605.286 266.628 604.323C266.848 603.168 268.249 600.792 270.904 596.809C272.649 594.198 274.204 591.801 274.388 590.839C274.48 590.357 274.15 589.995 273.764 589.922C272.128 589.609 266.328 594.389 264.691 596.172C263.567 597.355 262.607 598.468 261.632 600.178Z" fill="#FF4D00"/>
<path d="M248.328 581.432L251.433 582.336C251.715 582.419 251.848 582.662 251.699 582.822L247.126 589.758C245.735 591.904 242.784 596.25 242.537 597.097C242.428 597.473 242.694 597.959 243.165 598.097C244.011 598.343 246.414 597.104 247.347 596.355C247.496 596.194 247.684 596.249 247.845 596.398L248.3 596.939C248.366 597.061 248.311 597.249 248.163 597.41C246.904 598.574 243.189 601.166 239.331 600.042C237.92 599.63 237.724 598.552 237.971 597.706C238.217 596.859 239.777 594.659 241.717 591.856L241.442 591.572C239.452 593.85 234.439 598.616 231.334 597.711C230.017 597.327 229.162 596.057 229.573 594.646C229.985 593.235 231.47 592.341 232.317 592.587C232.881 592.752 233.324 592.983 233.618 593.375C233.913 593.767 234.113 594.131 234.771 594.323C236.088 594.707 239.847 591.618 242.053 589.3C242.826 588.402 243.699 587.33 244.683 585.882L247.681 581.549C247.83 581.389 248.045 581.349 248.328 581.432Z" fill="#FF4D00"/>
<path d="M218.751 589.42L221.029 590.323C222.76 591.01 223.777 590.57 224.266 589.605C224.464 588.84 223.88 588.186 223.533 587.732C223.332 587.442 222.82 586.606 223.218 585.604C223.615 584.602 224.451 584.09 225.817 584.632C226.819 585.03 227.733 586.447 226.866 588.633C226.107 590.546 224.164 591.989 223.237 592.465C221.928 593.105 220.456 593.892 217.177 592.591C212.076 590.567 211.457 590.532 210.911 590.315C210.364 590.098 210.017 589.644 210.725 589.187C213.54 587.141 217.592 584.637 219.525 579.763C220.754 576.666 219.83 574.876 218.6 574.388C216.778 573.666 215.178 573.979 213.706 574.766C210.817 576.467 208.731 578.802 207.683 581.444C207.213 582.628 207.024 583.502 207.227 584.32C207.319 584.884 207.395 585.757 207.178 586.304C206.816 587.215 205.491 588.165 203.669 587.442C202.211 586.864 202.179 584.953 202.685 583.678C203.733 581.036 205.599 578.192 209.558 575.124C213.19 572.347 218.062 570.696 222.161 572.322C223.528 572.864 224.313 573.808 224.835 575.017C225.238 575.862 225.233 577.336 224.654 578.794C224.004 580.433 222.789 582.166 221.428 583.471C219.014 585.834 215.789 587.717 213.763 588.706L213.928 589.088C215.2 588.538 217.476 588.914 218.751 589.42Z" fill="#FF4D00"/>
<path d="M188.542 572.763L194.345 567.349C195.796 565.995 196.324 565.383 196.545 564.946C196.722 564.596 196.679 564.245 196.329 564.068C195.41 563.715 191.943 564.93 191.504 565.147C191.329 565.278 191.154 565.19 191.088 564.993L190.85 564.269C190.763 564.005 190.72 563.874 190.983 563.787C191.422 563.569 196.603 560.914 201.372 563.319C202.291 563.782 202.376 564.484 202.023 565.184C201.581 566.059 199.844 567.762 195.645 571.736L192.699 574.531C191.666 575.491 190.984 576.19 190.719 576.715C190.543 577.065 190.629 577.328 190.979 577.505C191.679 577.858 194.839 576.598 195.805 576.207C196.068 576.12 196.243 576.208 196.33 576.472L196.569 577.086C196.678 577.306 196.721 577.437 196.545 577.568C196.15 577.698 189.653 580.787 185.803 578.846C184.753 578.316 184.493 577.526 184.934 576.651C185.376 575.776 186.761 574.444 188.542 572.763ZM182.04 583.588C183.79 584.471 183.937 586.136 183.386 587.23C182.79 588.411 181.1 589.041 179.744 588.357C177.994 587.475 177.627 585.917 178.179 584.824C178.686 583.817 180.465 582.794 182.04 583.588Z" fill="#FF4D00"/>
<path d="M180.519 558.254L184.218 555.238C184.404 555.122 184.539 555.09 184.956 555.347L187.626 556.992C188.002 557.223 187.863 557.541 187.626 557.74L180.035 563.711C177.473 565.816 174.879 567.786 174.519 568.371C174.262 568.788 174.358 569.192 174.734 569.424C175.485 569.886 178.037 569.386 179.115 569.13C179.302 569.014 179.469 569.117 179.517 569.319L179.693 570.061C179.808 570.247 179.789 570.465 179.519 570.529C178.473 570.921 173.766 572.396 169.97 570.058C168.76 569.313 168.898 568.247 169.258 567.663C169.823 566.745 172.78 564.653 174.662 563.279L174.514 562.958C172.081 564.107 165.005 567 161.041 564.559C159.497 563.608 159.382 561.926 160.102 560.758C160.77 559.673 162.52 558.046 166.877 554.802C169.657 552.717 171.218 551.491 171.578 550.907C171.834 550.49 171.822 550.136 171.488 549.931C170.904 549.571 168.445 550.013 167.668 550.341C167.45 550.321 167.283 550.218 167.219 549.949L167.007 549.358C166.891 549.172 166.994 549.005 167.315 548.857C168.227 548.498 172.946 547.376 176.451 549.534C177.369 550.1 177.561 550.909 177.099 551.66C176.636 552.411 173.721 554.528 170.125 557.378C168.42 558.745 165.299 561.196 164.99 561.697C164.579 562.365 164.749 562.93 165.333 563.289C166.585 564.06 172.145 562.881 175.645 561.123C177.301 560.301 178.823 559.512 180.519 558.254Z" fill="#FF4D00"/>
<path d="M151.045 539.975C153.327 536.909 157.403 536.522 160.94 539.155C163.535 541.086 164.169 543.024 163.174 544.36C162.472 545.303 161.316 545.543 160.452 544.899C159.508 544.197 159.348 543.1 159.735 541.923C159.968 541.118 159.946 540.491 159.238 539.964C158.137 539.145 156.629 539.366 155.4 541.017C154.327 542.295 154.501 544.196 154.273 546.225C154.064 548.147 154.08 549.685 152.772 551.278C150.9 553.793 146.905 554.729 143.21 551.979C141.873 550.984 140.554 549.147 141.782 547.496C142.543 546.474 143.64 546.313 144.505 546.957C145.212 547.483 145.607 548.266 145.082 549.463C144.888 550.052 144.578 550.798 145.206 551.266C145.993 551.851 147.267 551.945 148.554 550.215C149.549 548.879 149.373 546.243 149.379 545.332C149.383 543.685 149.699 541.783 151.045 539.975Z" fill="#FF4D00"/>
<path d="M131.937 536.43L131.782 536.162C129.244 536.666 124.625 536.64 122.128 534.434C120.843 533.298 120.334 531.802 121.729 530.223C124.227 527.396 131.719 528.98 133.992 529.812L134.187 529.591L135.161 523.456C135.353 522.056 135.293 521.087 134.815 520.666C134.191 520.114 133.084 520.183 132.393 520.225C132.19 520.307 132.108 520.104 132.099 519.966L132.048 519.136C132.039 518.997 132.169 518.851 132.445 518.833C133.552 518.765 135.839 518.693 137.748 520.38C139.658 522.067 139.873 523.303 139.254 525.633L137.707 530.936C137.473 531.645 137.996 532.237 138.722 532.748L146.051 528.892C146.319 528.737 146.531 528.793 146.825 529.053L149.322 531.259C149.542 531.453 149.494 531.803 149.088 531.967L121.801 545.979C120.692 546.568 120.439 547.521 121.614 548.56L122.568 549.403C122.789 549.598 122.732 549.809 122.464 549.965L121.587 550.366C121.318 550.522 121.254 550.595 120.96 550.336L115.084 545.145C114.717 544.82 115.005 544.421 115.444 544.22L131.937 536.43ZM134.886 534.721L137.511 533.378C134.807 530.074 127.532 530.315 125.845 532.225C125.358 532.776 125.369 533.504 126.03 534.088C127.352 535.256 131.657 535.267 132.617 535.069C133.308 535.026 134.203 534.902 134.886 534.721Z" fill="#FF4D00"/>
<path d="M101.854 514.09L100.045 512.159C99.8438 511.944 99.9198 511.739 100.201 511.609C102.306 510.846 108.492 508.275 109.69 507.69C110.467 507.23 115.889 504.704 116.318 504.302C116.675 503.967 116.613 503.757 116.345 503.471C115.876 502.97 112.82 503.147 112.194 503.196C111.917 503.187 111.778 503.183 111.752 502.939L111.672 502.208C111.676 502.07 111.819 501.936 112.101 501.807C113.151 501.494 118.5 501.184 121.113 503.973C121.85 504.76 121.827 505.453 121.255 505.989C120.754 506.458 119.766 506.98 114.841 509.176L114.971 509.458C118.595 508.883 125.132 508.265 127.879 511.197C128.75 512.127 128.883 514.42 127.381 515.826C122.589 520.315 110.031 522.678 105.543 517.885C104.069 516.312 104.043 514.994 104.213 514.029L102.676 514.394C102.327 514.452 102.055 514.305 101.854 514.09ZM123.437 511.329C122.164 509.97 113.325 510.999 111.364 511.628C109.893 512.065 108.485 512.712 107.341 513.784C106.769 514.32 106.37 515.902 107.308 516.903C108.179 517.833 110.042 518.102 112.237 517.792C116.938 517.149 121.094 515.135 123.097 513.26C123.884 512.523 123.973 511.902 123.437 511.329Z" fill="#FF4D00"/>
<path d="M100.084 489.432C103.074 487.05 107.113 487.717 109.861 491.166C111.876 493.696 111.994 495.731 110.691 496.769C109.771 497.502 108.593 497.438 107.921 496.595C107.188 495.675 107.313 494.574 107.989 493.534C108.419 492.816 108.558 492.204 108.008 491.514C107.153 490.441 105.638 490.27 104.029 491.552C102.665 492.513 102.347 494.395 101.608 496.299C100.916 498.104 100.538 499.595 98.867 500.801C96.4141 502.755 92.3126 502.639 89.4428 499.036C88.4047 497.733 87.5979 495.619 89.2076 494.337C90.2041 493.543 91.3058 493.668 91.9775 494.511C92.527 495.201 92.7089 496.059 91.8956 497.082C91.5578 497.602 91.0667 498.244 91.5552 498.857C92.1658 499.624 93.3741 500.039 95.0604 498.696C96.3635 497.658 96.8663 495.065 97.1054 494.185C97.5296 492.594 98.3214 490.836 100.084 489.432Z" fill="#FF4D00"/>
<path d="M89.2513 474.504C92.3906 472.324 96.3773 473.254 98.8927 476.876C100.737 479.533 100.722 481.572 99.3531 482.522C98.3872 483.193 97.2155 483.052 96.6007 482.166C95.9299 481.201 96.1267 480.109 96.8691 479.117C97.3453 478.428 97.5242 477.827 97.0212 477.102C96.2386 475.975 94.7383 475.705 93.0479 476.878C91.6236 477.748 91.183 479.605 90.321 481.456C89.5116 483.212 89.0364 484.675 87.2901 485.768C84.7142 487.557 80.6291 487.172 78.002 483.389C77.0518 482.021 76.3855 479.858 78.0759 478.685C79.1223 477.958 80.2135 478.155 80.8284 479.04C81.3314 479.765 81.4566 480.632 80.5779 481.6C80.2067 482.097 79.6745 482.705 80.1217 483.349C80.6806 484.154 81.859 484.648 83.6299 483.418C84.9983 482.468 85.6703 479.913 85.9666 479.052C86.4943 477.492 87.3999 475.789 89.2513 474.504Z" fill="#FF4D00"/>
<path d="M78.7975 456.435L78.8877 455.528C78.8897 455.243 78.9741 455.193 79.1927 455.178C81.2598 455.208 85.6545 456.482 87.8477 460.195C89.4926 462.979 88.9707 465.564 86.0175 467.309C82.7268 469.253 77.2081 470.122 72.0425 468.507C69.5268 467.717 67.0343 466.002 65.6885 463.724C64.542 461.784 65.2095 460.023 66.433 459.301C68.5846 458.03 71.3726 458.317 74.1682 459.967C76.6953 461.547 78.5474 463.526 79.5788 465.08C80.1004 464.999 81.4312 464.555 82.95 463.657C84.6375 462.66 85.002 460.965 84.3042 459.784C83.1578 457.843 80.8952 456.904 79.0813 456.723C78.947 456.689 78.763 456.57 78.7975 456.435ZM68.9098 464.553C70.1559 466.662 75.4521 466.379 78.0294 465.54C77.5808 464.78 75.8782 463.054 73.934 462.268C72.6263 461.788 70.8622 461.692 69.6809 462.39C68.9215 462.839 68.3615 463.625 68.9098 464.553Z" fill="#FF4D00"/>
<path d="M72.0123 442.668L76.7601 442.179C76.9791 442.185 77.1094 442.232 77.317 442.676L78.6454 445.516C78.8322 445.916 78.5422 446.106 78.2344 446.141L68.6114 446.963C65.3141 447.315 62.0639 447.536 61.4425 447.827C60.9986 448.035 60.8569 448.425 61.0437 448.825C61.4173 449.624 63.8247 450.608 64.867 450.986C65.086 450.992 65.1691 451.169 65.0982 451.365L64.8382 452.081C64.8325 452.3 64.6964 452.472 64.4359 452.377C63.3463 452.13 58.603 450.778 56.7142 446.738C56.1123 445.451 56.8132 444.637 57.4346 444.346C58.4112 443.889 62.0314 443.765 64.358 443.651L64.411 443.301C61.7465 442.925 54.2442 441.456 52.2724 437.24C51.5044 435.597 52.3321 434.128 53.575 433.547C54.729 433.008 57.085 432.609 62.5079 432.291C65.9771 432.075 67.9543 431.908 68.5758 431.617C69.0196 431.41 69.2029 431.108 69.0369 430.753C68.7463 430.131 66.4484 429.15 65.6194 428.997C65.4476 428.861 65.3646 428.683 65.4591 428.423L65.6067 427.813C65.6124 427.594 65.79 427.511 66.1393 427.564C67.0986 427.764 71.6586 429.418 73.4021 433.147C73.8587 434.123 73.5751 434.905 72.7762 435.279C71.9772 435.652 68.3778 435.821 63.8075 436.227C61.6319 436.433 57.6774 436.768 57.1447 437.017C56.4345 437.349 56.2663 437.914 56.5568 438.536C57.1795 439.867 62.474 441.935 66.364 442.388C68.1995 442.612 69.9047 442.788 72.0123 442.668Z" fill="#FF4D00"/>
<path d="M51.3969 410.115L51.6953 409.49C51.755 409.364 51.9398 409.299 52.0321 409.266C53.0925 409.619 55.8443 410.932 56.6945 413.334C57.5773 415.828 56.8839 418.569 53.6043 419.729C49.4932 421.184 45.2658 417.171 43.2801 415.379C40.2879 412.799 38.1444 410.855 34.68 412.081C33.3866 412.539 31.3443 414.406 32.4561 417.547C33.4697 420.411 35.9828 422.224 38.3848 421.374C39.8629 420.851 40.0306 419.856 39.8671 419.394C39.7363 419.024 39.5458 418.78 39.236 418.785C38.8991 419.009 38.7144 419.074 38.3448 419.205C37.3286 419.565 35.7736 419.283 35.1851 417.62C34.7273 416.327 35.5146 415.321 36.5308 414.961C38.748 414.176 40.7935 415.843 41.4802 417.783C42.1668 419.723 41.9027 422.208 39.1312 423.189C36.5444 424.104 32.2703 422.602 30.57 417.798C28.3792 411.609 32.4212 408.93 34.038 408.358C40.0429 406.233 44.6284 409.496 47.8936 413.434C50.3314 416.21 52.0997 417.975 53.624 417.435C54.7788 417.027 55.1582 415.749 54.4715 413.809C53.7849 411.869 52.0607 410.816 51.4353 410.517C51.2775 410.365 51.2448 410.273 51.3969 410.115ZM64.995 412.995C65.4201 414.196 65.0195 416.001 63.3565 416.59C62.0632 417.047 60.258 416.647 59.6695 414.984C59.0809 413.321 59.9222 411.88 61.4927 411.324C62.5089 410.964 64.4065 411.332 64.995 412.995Z" fill="#FF4D00"/>
<path d="M40.7947 360.75C41.2091 363.561 39.6845 366.659 36.2912 367.159C32.704 367.688 29.7973 365.442 29.3114 362.145C28.7827 358.558 30.4757 355.931 34.0629 355.402C37.6501 354.873 40.2945 357.356 40.7947 360.75Z" fill="#FF4D00"/>
<path d="M33.369 289.694L32.132 304.932C32.1162 305.127 32.1861 305.477 32.3775 305.542L42.6981 309.821C45.2641 310.914 45.8159 310.172 45.9428 308.61L46.0617 307.144C46.0855 306.851 46.2888 306.77 46.4841 306.785L47.5428 307.068C47.8279 307.189 48.0074 307.401 47.9836 307.694C47.9439 308.182 47.6388 310.124 47.2899 314.422C46.9728 318.329 46.9766 320.099 46.9449 320.49C46.9211 320.783 46.7098 320.962 46.4247 320.841L45.3661 320.558C45.081 320.437 44.9913 320.331 45.0151 320.038L45.1102 318.866C45.2371 317.303 44.234 316.337 41.8106 315.304L19.1366 305.745C17.7111 305.138 16.8583 305.954 16.7711 307.028L16.6284 308.786C16.6125 308.982 16.4013 309.161 16.1162 309.04L15.0576 308.757C14.7725 308.636 14.6827 308.53 14.7065 308.237C14.7382 307.846 15.0988 305.221 15.4081 301.411C15.6618 298.286 15.7135 295.832 15.7532 295.343C15.7849 294.953 15.9882 294.871 16.1835 294.887L17.3239 295.373C17.617 295.396 17.7067 295.502 17.6829 295.795L17.5878 296.967C17.4451 298.725 17.9756 299.457 19.784 300.193L30.0069 304.465C30.1943 304.578 30.3079 304.391 30.3237 304.195L31.5607 288.957C31.5765 288.762 31.4947 288.559 31.3073 288.445L20.5999 284.086C19.2681 283.535 18.6106 284.367 18.5234 285.441L18.4441 286.418C18.4283 286.613 18.225 286.695 17.932 286.671L16.7836 286.283C16.5882 286.267 16.5064 286.064 16.5302 285.771C16.5619 285.38 16.9146 282.852 17.1763 279.629C17.4141 276.699 17.4341 274.636 17.4738 274.147C17.5055 273.756 17.7167 273.577 17.9041 273.69L19.0525 274.079C19.2479 274.095 19.4274 274.306 19.4115 274.501L19.3163 275.673C19.2133 276.943 19.7359 277.772 21.5442 278.509L44.271 288.023C46.0793 288.76 47.5682 288.585 47.6713 287.316L47.8141 285.557C47.8378 285.264 48.0491 285.085 48.3342 285.206L49.3848 285.587C49.6779 285.61 49.7676 285.716 49.728 286.204C49.6883 286.693 49.415 288.244 49.074 292.444C48.741 296.546 48.7289 298.512 48.6813 299.098C48.6575 299.391 48.4543 299.473 48.0635 299.441L47.2003 299.174C46.9073 299.151 46.7198 299.037 46.7436 298.744L46.8546 297.377C46.9894 295.716 46.1896 294.668 43.0046 293.328L33.7835 289.433C33.4984 289.311 33.3848 289.499 33.369 289.694Z" fill="#FF4D00"/>
<path d="M36.5435 262.878L36.0112 265.269C35.6067 267.087 36.2016 268.022 37.2326 268.352C38.0191 268.427 38.5721 267.747 38.9655 267.332C39.2207 267.088 39.965 266.45 41.0173 266.684C42.0695 266.919 42.707 267.663 42.3877 269.098C42.1535 270.15 40.8988 271.276 38.603 270.765C36.5941 270.318 34.8621 268.628 34.2458 267.788C33.4065 266.597 32.3971 265.268 33.1637 261.824C34.356 256.467 34.2924 255.851 34.4202 255.277C34.5479 254.703 34.9414 254.288 35.5045 254.916C37.9697 257.372 41.083 260.976 46.2007 262.116C49.4532 262.839 51.0746 261.644 51.362 260.353C51.7878 258.44 51.225 256.909 50.2156 255.58C48.08 252.996 45.4444 251.305 42.6703 250.688C41.4267 250.411 40.5339 250.363 39.7578 250.692C39.2156 250.872 38.3652 251.085 37.7912 250.957C36.8346 250.744 35.687 249.585 36.1129 247.672C36.4535 246.141 38.3351 245.807 39.6743 246.105C42.4484 246.723 45.5518 248.116 49.2072 251.54C52.5226 254.688 54.9233 259.238 53.9652 263.543C53.6458 264.977 52.8376 265.902 51.7266 266.608C50.9558 267.14 49.4995 267.368 47.9689 267.027C46.247 266.644 44.3447 265.718 42.841 264.58C40.1258 262.571 37.7564 259.684 36.4602 257.839L36.1093 258.062C36.853 259.232 36.8416 261.538 36.5435 262.878Z" fill="#FF4D00"/>
<path d="M44.468 220.059L45.3132 217.552C45.4071 217.273 45.6242 217.243 45.8715 217.43C47.5399 218.923 52.732 223.155 53.8141 223.933C54.5872 224.401 59.3787 227.981 59.9359 228.169C60.4002 228.325 60.5557 228.171 60.6809 227.799C60.9 227.149 59.2973 224.541 58.9582 224.013C58.8351 223.764 58.7735 223.64 58.9754 223.501L59.5812 223.085C59.7053 223.024 59.8911 223.086 60.1383 223.273C60.9105 224.05 63.7152 228.615 62.4944 232.237C62.15 233.259 61.5292 233.566 60.7862 233.316C60.1362 233.097 59.2086 232.474 54.943 229.175L54.7562 229.422C56.9777 232.342 60.6161 237.809 59.3327 241.617C58.9257 242.824 56.9692 244.026 55.0191 243.368C48.7971 241.271 40.7731 231.327 42.8705 225.105C43.5591 223.062 44.708 222.415 45.6387 222.108L44.589 220.927C44.373 220.647 44.3741 220.338 44.468 220.059ZM57.1143 237.766C57.7091 236.002 52.6203 228.702 51.1376 227.271C50.0566 226.183 48.8201 225.249 47.3343 224.748C46.5914 224.498 45.0095 224.895 44.5713 226.195C44.1643 227.403 44.8091 229.171 46.1202 230.958C48.9119 234.794 52.6526 237.503 55.2528 238.38C56.2744 238.724 56.8639 238.509 57.1143 237.766Z" fill="#FF4D00"/>
<path d="M43.9857 188.514L46.9436 182C47.2272 181.375 47.7544 181.399 48.0059 181.675C49.3082 183.073 66.8576 199.653 69.2996 201.623C70.5165 202.498 71.1006 202.871 71.3843 202.246C71.7084 201.533 70.5962 198.767 70.4501 198.378C70.3526 198.119 70.4337 197.94 70.6283 197.867L71.3825 197.51C71.5122 197.461 71.6907 197.542 71.8286 197.713C72.1127 198.272 74.2233 203.105 72.6025 206.674C72.1568 207.656 71.5568 208.029 70.7537 207.665C69.6829 207.178 67.4112 205.07 65.3179 203.044L64.9368 203.409C67.4444 207.131 69.9688 212.474 68.5101 215.687C67.6187 217.65 65.2263 218.178 63.3525 217.327C60.2294 215.909 56.0751 211.547 54.0535 206.162C53.4203 204.476 52.2186 201.078 53.6368 197.955C54.204 196.705 55.2662 195.789 56.5029 195.435L48.1787 188.05C47.4971 187.417 46.4833 187.28 45.9565 188.44L45.3487 189.778C45.1867 190.135 44.9677 190.143 44.919 190.014L43.9292 189.349C43.7913 189.179 43.7426 189.049 43.9857 188.514ZM58.641 198.074C57.2579 197.446 55.6684 197.747 54.9593 199.309C53.5411 202.432 61.1358 210.831 64.7943 212.493C65.7758 212.938 66.5543 212.646 66.838 212.021C67.4457 210.683 65.4085 206.637 63.7691 203.847C62.6409 201.828 60.4256 198.885 58.641 198.074Z" fill="#FF4D00"/>
<path d="M79.2779 164.836L84.1118 171.132C85.3203 172.706 85.8787 173.29 86.2931 173.552C86.6246 173.761 86.9778 173.752 87.187 173.421C87.6272 172.54 86.7495 168.973 86.5749 168.515C86.4615 168.327 86.5661 168.162 86.7688 168.116L87.5123 167.948C87.7827 167.886 87.9179 167.856 87.979 168.126C88.1536 168.584 90.3009 173.995 87.4504 178.512C86.9012 179.382 86.1947 179.4 85.5317 178.981C84.7029 178.458 83.1738 176.566 79.6203 172.006L77.1205 168.806C76.2632 167.685 75.6328 166.94 75.1355 166.626C74.804 166.417 74.5337 166.478 74.3245 166.809C73.906 167.472 74.8578 170.738 75.1546 171.737C75.2158 172.007 75.1112 172.173 74.8408 172.234L74.2064 172.413C73.9774 172.5 73.8423 172.531 73.7288 172.343C73.6371 171.938 71.1841 165.175 73.4854 161.528C74.1131 160.534 74.9242 160.351 75.7529 160.874C76.5817 161.397 77.7749 162.903 79.2779 164.836ZM69.1253 157.328C68.0792 158.986 66.4068 158.973 65.3709 158.319C64.2521 157.613 63.787 155.871 64.5978 154.587C65.6438 152.929 67.229 152.713 68.2649 153.366C69.218 153.968 70.0668 155.836 69.1253 157.328Z" fill="#FF4D00"/>
<path d="M94.0983 158.673L96.7495 162.642C96.8468 162.838 96.8659 162.976 96.5704 163.367L94.6797 165.868C94.4138 166.22 94.1106 166.053 93.9352 165.797L88.7119 157.673C86.8599 154.923 85.1452 152.153 84.5979 151.739C84.207 151.444 83.7952 151.501 83.5293 151.853C82.9975 152.557 83.2527 155.145 83.4055 156.243C83.5028 156.439 83.3846 156.596 83.1787 156.624L82.4237 156.729C82.2274 156.827 82.0119 156.787 81.9737 156.512C81.6837 155.433 80.6624 150.608 83.3508 147.05C84.2075 145.917 85.2553 146.156 85.8026 146.569C86.6626 147.219 88.4642 150.362 89.6525 152.365L89.9861 152.249C89.0741 149.717 86.8664 142.398 89.6729 138.684C90.766 137.238 92.4514 137.283 93.546 138.111C94.5624 138.879 96.0157 140.775 98.831 145.421C100.643 148.387 101.715 150.057 102.262 150.471C102.653 150.766 103.006 150.787 103.242 150.474C103.656 149.927 103.449 147.437 103.197 146.633C103.237 146.417 103.356 146.261 103.63 146.223L104.238 146.068C104.435 145.971 104.591 146.089 104.707 146.422C104.978 147.364 105.647 152.169 103.165 155.452C102.515 156.313 101.692 156.427 100.988 155.895C100.284 155.364 98.4533 152.26 95.9585 148.409C94.7598 146.582 92.6159 143.242 92.1468 142.888C91.5213 142.415 90.9427 142.531 90.5291 143.078C89.6428 144.251 90.2887 149.898 91.7062 153.549C92.3663 155.276 93.0073 156.866 94.0983 158.673Z" fill="#FF4D00"/>
<path d="M100.554 106.958L105.444 101.736C105.913 101.236 106.405 101.428 106.555 101.769C107.34 103.512 118.645 124.843 120.327 127.492C121.199 128.712 121.632 129.252 122.101 128.752C122.637 128.179 122.471 125.203 122.457 124.788C122.448 124.511 122.582 124.368 122.79 124.361L123.619 124.265C123.757 124.26 123.9 124.394 123.976 124.6C124.066 125.221 124.515 130.475 121.835 133.336C121.098 134.123 120.41 134.284 119.767 133.681C118.908 132.877 117.432 130.152 116.1 127.561L115.622 127.785C116.803 132.114 117.481 137.985 115.069 140.56C113.595 142.134 111.16 141.867 109.658 140.46C107.154 138.115 104.618 132.651 104.43 126.903C104.371 125.102 104.323 121.498 106.667 118.995C107.605 117.994 108.905 117.466 110.19 117.528L104.674 107.863C104.231 107.045 103.315 106.59 102.444 107.52L101.439 108.593C101.171 108.879 100.961 108.816 100.957 108.678L100.232 107.731C100.156 107.525 100.152 107.387 100.554 106.958ZM111.369 120.713C110.26 119.675 108.658 119.45 107.486 120.702C105.141 123.205 109.641 133.596 112.574 136.343C113.36 137.08 114.192 137.053 114.66 136.552C115.665 135.479 115.033 130.993 114.375 127.826C113.954 125.551 112.799 122.053 111.369 120.713Z" fill="#FF4D00"/>
<path d="M136.808 110.667L137.716 110.578C137.996 110.524 138.062 110.597 138.119 110.808C138.494 112.841 138.107 117.4 134.896 120.279C132.488 122.438 129.851 122.432 127.562 119.879C125.01 117.033 123.075 111.792 123.647 106.41C123.929 103.788 125.121 101.008 127.091 99.2412C128.77 97.7366 130.627 98.0461 131.575 99.1042C133.243 100.965 133.507 103.755 132.438 106.82C131.384 109.608 129.806 111.812 128.485 113.128C128.666 113.623 129.363 114.841 130.541 116.155C131.849 117.614 133.583 117.639 134.604 116.723C136.283 115.219 136.761 112.816 136.582 111.002C136.59 110.863 136.67 110.66 136.808 110.667ZM126.91 102.563C125.086 104.198 126.402 109.336 127.73 111.699C128.387 111.11 129.746 109.102 130.136 107.041C130.35 105.665 130.098 103.916 129.182 102.895C128.593 102.238 127.713 101.843 126.91 102.563Z" fill="#FF4D00"/>
<path d="M145.604 92.8711L146.015 92.9314C145.796 88.6969 146.225 83.8573 149.212 81.6338C151.649 79.8199 153.761 81.18 155.078 82.9488C157.213 85.8183 158.492 89.9978 158.949 93.5666C159.56 97.9985 158.939 101.759 156.344 103.69C155.087 104.627 153.421 104.523 152.485 103.265C151.783 102.321 151.651 100.831 152.673 100.071C153.616 99.3684 154.536 99.7834 155.083 100.354C155.571 100.846 156.108 101.24 156.659 100.83C157.523 100.186 156.545 97.0663 155.653 94.5542C154.742 91.6893 153.284 88.2539 151.909 86.4065C151.236 85.5024 150.298 84.7346 149.355 85.4367C147.626 86.724 147.174 92.1908 147.127 94.425C147.12 96.385 147.387 98.3852 147.91 100.073L149.435 106.39C149.532 106.684 149.473 106.85 149.198 107.055L146.682 108.928C146.328 109.191 146.074 109.013 145.958 108.611L138.045 80.4169C137.745 79.3574 137.444 78.5429 137.181 78.1892C136.829 77.7175 136.084 77.7834 135.377 78.31L134.198 79.1877C134.04 79.3047 133.766 79.2645 133.669 78.9701L133.3 78.1456C133.203 77.8512 133.223 77.7141 133.616 77.4215L139.827 72.799C140.141 72.565 140.415 72.6052 140.591 72.841C140.766 73.0768 140.902 73.5869 141.105 74.3521L145.604 92.8711Z" fill="#FF4D00"/>
<path d="M173.762 90.1795C171.294 91.6864 167.594 91.3626 165.244 87.5154C163.099 84.0028 162.227 79.9423 163.011 75.9612C163.559 73.0996 165.056 71.0373 167.314 69.6581C169.739 68.1767 173.419 67.9965 175.717 71.76C177.352 74.4364 178.921 79.4494 178.098 83.7418C177.632 86.5523 176.271 88.6471 173.762 90.1795ZM171.797 88.279C173.428 87.2829 174.218 85.1926 174.189 81.4784C174.127 77.8989 173.304 73.6363 172.384 72.1309C171.822 71.2109 170.649 70.6066 169.437 71.3473C167.722 72.3945 167.027 74.8286 167.072 79.5091C167.123 82.6937 167.819 85.7136 168.84 87.3863C169.53 88.5153 170.877 88.8409 171.797 88.279Z" fill="#FF4D00"/>
<path d="M187.996 74.0973L185.112 50.6799C184.895 48.8633 184.269 47.7524 182.962 48.4241L181.567 49.1405C181.392 49.2301 181.282 49.1217 181.213 48.8814L180.96 47.7446C180.936 47.5914 180.979 47.4595 181.197 47.3475L187.909 43.8997C188.301 43.6982 188.523 43.915 188.594 44.3744L192.013 72.6949C192.159 74.0521 192.485 75.7579 193.357 75.3101C194.228 74.8623 195.121 72.3105 195.331 71.4316C195.46 71.2549 195.547 71.2101 195.811 71.2949L196.558 71.4621C196.735 71.5917 196.867 71.6341 196.827 71.9852C196.787 72.3362 194.964 78.0101 191.128 79.9803C190.344 80.3832 189.288 80.0441 188.84 79.1724C188.482 78.475 188.187 75.5416 187.996 74.0973Z" fill="#FF4D00"/>
<path d="M206.609 35.7746L213.208 33.0124C213.841 32.7475 214.211 33.1238 214.207 33.497C214.211 35.408 215.795 59.4984 216.245 62.6035C216.541 64.073 216.716 64.7437 217.348 64.4788C218.072 64.1761 219.138 61.3927 219.295 61.0079C219.4 60.7515 219.581 60.6758 219.774 60.7546L220.569 61.0059C220.697 61.0584 220.773 61.2392 220.758 61.4579C220.586 62.0612 218.845 67.0395 215.229 68.553C214.235 68.9692 213.541 68.8347 213.2 68.0211C212.746 66.9363 212.515 63.8459 212.36 60.9363L211.832 60.9446C211.138 65.3784 209.353 71.0125 206.099 72.3747C204.11 73.2072 201.997 71.9667 201.203 70.0683C199.878 66.9043 199.801 60.8812 201.982 55.5593C202.665 53.8922 204.096 50.5842 207.26 49.2599C208.526 48.7301 209.928 48.7806 211.075 49.363L209.997 38.287C209.928 37.3599 209.279 36.5694 208.103 37.0613L206.747 37.6288C206.386 37.7802 206.22 37.6372 206.272 37.509L205.999 36.3485C206.014 36.1299 206.066 36.0016 206.609 35.7746ZM210.846 52.7519C210.26 51.3507 208.89 50.4898 207.308 51.152C204.144 52.4763 203.997 63.7993 205.548 67.5057C205.964 68.5002 206.734 68.8155 207.367 68.5507C208.723 67.9831 209.982 63.6313 210.678 60.4716C211.225 58.2242 211.603 54.5599 210.846 52.7519Z" fill="#FF4D00"/>
<path d="M238.945 53.7697L239.809 54.062C240.086 54.1283 240.116 54.2217 240.082 54.4381C239.586 56.4451 237.354 60.4397 233.243 61.7398C230.159 62.7149 227.759 61.6239 226.725 58.3535C225.572 54.7094 225.968 49.1366 228.706 44.4679C230.043 42.195 232.275 40.153 234.798 39.3552C236.947 38.6756 238.512 39.7226 238.94 41.0775C239.694 43.4602 238.785 46.1116 236.548 48.4635C234.439 50.5695 232.093 51.9279 230.347 52.5827C230.308 53.109 230.441 54.5058 230.973 56.1877C231.564 58.0565 233.134 58.7937 234.442 58.38C236.591 57.7004 238.016 55.7079 238.601 53.9813C238.665 53.8583 238.822 53.7058 238.945 53.7697ZM233.265 42.3069C230.929 43.0456 230.011 48.2694 230.248 50.9695C231.089 50.7036 233.155 49.4338 234.359 47.7168C235.121 46.5508 235.612 44.8537 235.198 43.5456C234.932 42.7046 234.293 41.9819 233.265 42.3069Z" fill="#FF4D00"/>
<path d="M252.815 55.4655L249.664 56.1922C249.377 56.2583 249.142 56.1113 249.194 55.8983L249.798 47.6128C249.963 45.0603 250.416 39.8268 250.218 38.9673C250.13 38.5853 249.66 38.2914 249.182 38.4015C248.323 38.5997 246.831 40.8545 246.383 41.9636C246.331 42.1766 246.14 42.2206 245.927 42.1692L245.266 41.9193C245.149 41.8458 245.105 41.6549 245.156 41.4418C245.685 39.8113 247.662 35.7349 251.577 34.8321C253.01 34.5018 253.707 35.3466 253.906 36.2061C254.104 37.0655 253.817 39.7465 253.493 43.1401L253.871 43.254C254.496 40.2939 256.543 33.687 259.694 32.9604C261.031 32.6521 262.397 33.3428 262.728 34.7752C263.058 36.2076 262.198 37.7133 261.339 37.9115C260.766 38.0436 260.266 38.0582 259.818 37.8598C259.37 37.6614 259.018 37.441 258.349 37.5951C257.012 37.9034 255.241 42.4352 254.448 45.5348C254.212 46.6954 253.973 48.0579 253.822 49.8024L253.322 55.0469C253.271 55.26 253.102 55.3995 252.815 55.4655Z" fill="#FF4D00"/>
<path d="M290.315 43.8845L289.099 48.4999C289.017 48.7029 288.926 48.8082 288.438 48.8459L285.311 49.0876C284.871 49.1216 284.796 48.7834 284.871 48.4827L287.495 39.1879C288.328 35.9781 289.266 32.8586 289.213 32.1746C289.175 31.686 288.86 31.4156 288.42 31.4496C287.541 31.5175 285.771 33.4236 285.05 34.2657C284.967 34.4686 284.772 34.4837 284.614 34.3485L284.035 33.8527C283.832 33.7701 283.719 33.5822 283.9 33.3717C284.516 32.4394 287.453 28.4773 291.899 28.1336C293.316 28.0241 293.831 28.9672 293.884 29.6511C293.967 30.7259 292.807 34.1575 292.094 36.3751L292.402 36.5479C293.694 34.1873 297.712 27.6842 302.354 27.3254C304.161 27.1857 305.244 28.4781 305.35 29.846C305.448 31.1162 304.99 33.4615 303.376 38.6483C302.355 41.9709 301.815 43.8802 301.868 44.5642C301.906 45.0527 302.124 45.3307 302.514 45.3005C303.198 45.2476 304.926 43.4431 305.362 42.7214C305.55 42.6086 305.745 42.5935 305.956 42.7738L306.475 43.1268C306.678 43.2094 306.693 43.4049 306.52 43.7131C305.994 44.5401 302.839 48.2242 298.735 48.5414C297.66 48.6245 297.029 48.0836 296.961 47.2042C296.893 46.3248 298.004 42.897 299.235 38.477C299.809 36.3685 300.89 32.5498 300.845 31.9635C300.784 31.1819 300.314 30.825 299.63 30.8779C298.165 30.9912 294.363 35.2167 292.568 38.6974C291.712 40.3363 290.946 41.8699 290.315 43.8845Z" fill="#FF4D00"/>
<path d="M333.393 27.0431L336.038 27.1146C336.332 27.1225 336.425 27.3211 336.319 27.6124C335.382 29.6458 332.861 35.8519 332.435 37.1149C332.215 37.9913 330.2 43.6229 330.184 44.2107C330.171 44.7005 330.364 44.8038 330.756 44.8144C331.442 44.8329 333.465 42.5347 333.87 42.0555C334.071 41.8648 334.172 41.7695 334.364 41.9218L334.939 42.3785C335.035 42.4791 335.03 42.675 334.924 42.9663C334.407 43.9327 330.867 47.9545 327.047 47.8513C325.969 47.8221 325.493 47.3191 325.514 46.5354C325.532 45.8496 325.855 44.7799 327.756 39.7335L327.465 39.6276C325.326 42.6088 321.169 47.6924 317.152 47.5839C315.879 47.5494 314.155 46.0323 314.211 43.9751C314.388 37.4115 321.537 26.8207 328.1 26.9981C330.256 27.0564 331.212 27.9645 331.778 28.7641L332.599 27.4138C332.803 27.1252 333.099 27.0352 333.393 27.0431ZM320.181 44.3325C322.043 44.3828 327.526 37.3744 328.458 35.5369C329.181 34.1839 329.71 32.7277 329.753 31.1603C329.774 30.3765 328.929 28.9812 327.558 28.9442C326.284 28.9097 324.783 30.0456 323.46 31.8235C320.613 35.619 319.122 39.9903 319.048 42.7333C319.019 43.8109 319.398 44.3113 320.181 44.3325Z" fill="#FF4D00"/>
<path d="M353.102 32.0257L347.654 42.2784C347.148 43.3079 346.534 44.4243 346.471 45.0089C346.418 45.496 346.668 45.9174 347.253 45.9808C348.373 46.1022 351.657 43.9937 351.981 43.7331C352.197 43.5594 352.295 43.5699 352.469 43.7859L352.941 44.4285C353.125 44.5471 353.115 44.6445 352.996 44.8288C352.327 45.5449 347.499 49.1619 343.115 48.6868C341.654 48.5284 341.154 47.6856 341.227 47.0036C341.322 46.1267 341.623 45.1736 342.01 44.3284L348.62 31.5401L345.016 31.1494C344.723 31.1178 344.636 31.0098 344.776 30.6306L345.303 29.4063C345.432 29.1245 345.54 29.0376 345.832 29.0693L349.583 29.4758L352.14 24.5284C352.388 24.0624 352.593 23.9861 353.481 23.9837C354.466 23.9918 356.509 23.3261 356.931 23.0761C357.233 23.0103 357.547 22.8471 357.742 22.8682C358.034 22.8999 358.176 23.4082 357.928 23.8742L354.065 29.9614L359.083 30.5052C359.278 30.5263 359.354 30.7317 359.225 31.0134L358.682 32.3839C358.612 32.5735 358.461 32.6064 358.169 32.5747L353.102 32.0257Z" fill="#FF4D00"/>
<path d="M377.109 37.8241L379.395 33.7763C379.547 33.5064 379.836 33.5626 380.124 33.6188L383.395 34.2556C383.876 34.3492 383.935 34.5603 383.764 34.9264L378.486 44.0826C376.391 47.6682 375.439 49.4797 375.383 49.7682C375.289 50.2492 375.463 50.3829 375.751 50.4391C376.425 50.5702 378.608 49.0983 379.45 48.3637C379.584 48.19 379.776 48.2275 379.94 48.4092L380.433 48.9545C380.511 49.0694 380.473 49.2618 380.34 49.4355C379.709 50.1114 375.459 53.4772 371.419 52.6906C370.457 52.5033 369.992 51.8138 370.161 50.9481C370.292 50.2747 373.476 45.2037 374.276 43.9119L373.977 43.654C371.52 46.0209 365.647 51.5669 360.934 50.6492C359.78 50.4244 358.965 48.9679 359.152 48.006C359.508 46.1783 361.149 43.902 363.974 39.9091C365.901 37.1893 367.062 35.0692 367.194 34.3959C367.287 33.9149 366.959 33.5514 366.478 33.4578C365.708 33.3079 363.562 34.5874 362.509 35.3808C362.375 35.5544 362.087 35.4982 361.98 35.2777L361.544 34.6938C361.467 34.5788 361.486 34.4826 361.619 34.309C362.558 33.5931 366.414 30.4502 370.502 31.2462C371.849 31.5084 372.317 32.6976 372.129 33.6596C371.904 34.8139 370.494 37.1851 367.824 41.158C366.069 43.7616 364.505 46.1528 364.318 47.1147C364.224 47.5957 364.553 47.9592 364.938 48.0341C366.573 48.3525 372.391 43.5948 374.035 41.8182C375.163 40.64 376.128 39.53 377.109 37.8241Z" fill="#FF4D00"/>
<path d="M391.651 56.8566L388.55 55.94C388.268 55.8567 388.136 55.6132 388.285 55.453L392.885 48.5349C394.284 46.3937 397.251 42.059 397.501 41.2131C397.612 40.8372 397.347 40.3502 396.877 40.2113C396.032 39.9613 393.624 41.1914 392.689 41.9368C392.539 42.097 392.351 42.0415 392.191 41.8919L391.738 41.3493C391.672 41.2276 391.728 41.0396 391.877 40.8794C393.14 39.7197 396.865 37.1419 400.718 38.2807C402.128 38.6973 402.32 39.776 402.07 40.6219C401.82 41.4677 400.252 43.6612 398.302 46.4571L398.575 46.7423C400.574 44.4719 405.605 39.7251 408.707 40.6417C410.022 41.0305 410.872 42.3037 410.456 43.7134C410.039 45.1231 408.55 46.0116 407.704 45.7616C407.14 45.5949 406.698 45.362 406.406 44.969C406.113 44.576 405.915 44.2107 405.257 44.0162C403.941 43.6274 400.171 46.7029 397.955 49.0117C397.18 49.9066 396.302 50.9756 395.313 52.4205L392.299 56.7414C392.149 56.9015 391.933 56.94 391.651 56.8566Z" fill="#FF4D00"/>
<path d="M419.869 48.3984L417.595 47.4863C415.867 46.7931 414.848 47.2289 414.356 48.193C414.155 48.9571 414.736 49.6128 415.082 50.0681C415.282 50.3594 415.79 51.197 415.389 52.1975C414.988 53.1981 414.15 53.7068 412.786 53.1596C411.785 52.7583 410.877 51.338 411.752 49.155C412.518 47.2449 414.467 45.8091 415.396 45.3368C416.706 44.7011 418.181 43.92 421.456 45.2334C426.549 47.2764 427.168 47.3134 427.714 47.5323C428.259 47.7512 428.605 48.2064 427.895 48.6607C425.072 50.6962 421.011 53.1856 419.06 58.0517C417.819 61.1442 418.736 62.9376 419.964 63.4301C421.783 64.1598 423.385 63.8519 424.86 63.0708C427.755 61.3811 429.85 59.0537 430.908 56.416C431.382 55.2336 431.574 54.3602 431.375 53.5411C431.284 52.9769 431.212 52.1033 431.431 51.5576C431.796 50.648 433.126 49.703 434.945 50.4326C436.4 51.0163 436.425 52.9272 435.915 54.2005C434.857 56.8383 432.98 59.6754 429.01 62.7289C425.367 65.4916 420.489 67.1248 416.396 65.4831C415.031 64.9359 414.25 63.9889 413.732 62.7782C413.333 61.9316 413.343 60.4576 413.927 59.0023C414.583 57.365 415.804 55.6374 417.17 54.3375C419.593 51.9831 422.825 50.1118 424.855 49.131L424.692 48.7487C423.417 49.2934 421.143 48.9091 419.869 48.3984Z" fill="#FF4D00"/>
<path d="M450.604 65.2961L444.78 70.6891C443.324 72.0373 442.794 72.6471 442.571 73.0838C442.394 73.4331 442.435 73.7841 442.784 73.9619C443.702 74.3191 447.173 73.1168 447.613 72.9008C447.789 72.7706 447.964 72.8595 448.028 73.0572L448.264 73.782C448.35 74.0456 448.393 74.1774 448.129 74.2631C447.689 74.4791 442.499 77.1155 437.739 74.6927C436.822 74.226 436.739 73.5241 437.095 72.8254C437.539 71.952 439.283 70.2552 443.497 66.2971L446.453 63.5133C447.49 62.5565 448.174 61.8601 448.441 61.3361C448.619 60.9868 448.533 60.7232 448.184 60.5454C447.485 60.1897 444.32 61.4381 443.353 61.8256C443.09 61.9114 442.915 61.8224 442.829 61.5589L442.593 60.9436C442.485 60.7237 442.442 60.5919 442.618 60.4616C443.013 60.333 449.522 57.2678 453.365 59.2238C454.413 59.7573 454.67 60.548 454.226 61.4214C453.781 62.2948 452.391 63.6215 450.604 65.2961ZM457.146 54.4956C455.399 53.6065 455.258 51.94 455.813 50.8483C456.413 49.6692 458.105 49.0458 459.459 49.7349C461.206 50.6239 461.567 52.1824 461.011 53.2742C460.5 54.2785 458.718 55.2957 457.146 54.4956Z" fill="#FF4D00"/>
<path d="M458.225 79.5058L454.515 82.5085C454.328 82.6234 454.193 82.6549 453.777 82.3964L451.113 80.7422C450.738 80.5096 450.877 80.1924 451.116 79.9943L458.728 74.0506C461.298 71.955 463.9 69.9944 464.262 69.4116C464.52 68.9953 464.425 68.5905 464.051 68.3579C463.302 67.8926 460.748 68.3832 459.668 68.6357C459.481 68.7505 459.315 68.6471 459.267 68.4447L459.094 67.7025C458.979 67.5158 458.999 67.2976 459.269 67.2345C460.317 66.847 465.029 65.3892 468.817 67.7413C470.024 68.4908 469.882 69.556 469.52 70.1388C468.952 71.0547 465.987 73.1358 464.1 74.5022L464.247 74.8238C466.684 73.6843 473.771 70.8171 477.726 73.2726C479.266 74.2289 479.375 75.9114 478.651 77.077C477.979 78.1594 476.223 79.7799 471.854 83.0079C469.066 85.0833 467.501 86.3034 467.139 86.8862C466.88 87.3025 466.892 87.6556 467.225 87.8624C467.808 88.2242 470.268 87.7911 471.046 87.4667C471.265 87.4869 471.431 87.5903 471.494 87.8602L471.704 88.4517C471.819 88.6383 471.715 88.8048 471.394 88.9512C470.481 89.3071 465.757 90.4118 462.26 88.2406C461.345 87.672 461.155 86.8623 461.621 86.113C462.086 85.3637 465.009 83.2566 468.616 80.4205C470.326 79.0598 473.456 76.6197 473.766 76.1202C474.179 75.4541 474.011 74.8885 473.429 74.5266C472.18 73.7512 466.615 74.9103 463.109 76.6555C461.45 77.4706 459.925 78.2542 458.225 79.5058Z" fill="#FF4D00"/>
<path d="M487.845 97.8809C485.552 100.939 481.475 101.311 477.947 98.665C475.36 96.7246 474.733 94.7842 475.732 93.4514C476.438 92.5106 477.594 92.2754 478.457 92.9222C479.397 93.6278 479.554 94.7254 479.162 95.9014C478.927 96.705 478.947 97.3322 479.652 97.8614C480.75 98.6846 482.259 98.469 483.494 96.8226C484.572 95.5486 484.405 93.6474 484.64 91.6188C484.856 89.698 484.846 88.1594 486.159 86.5717C488.041 84.0629 492.039 83.1417 495.724 85.9053C497.057 86.9049 498.37 88.7473 497.135 90.3937C496.371 91.4129 495.273 91.5697 494.411 90.9229C493.705 90.3937 493.313 89.6097 493.843 88.4141C494.039 87.8261 494.352 87.0813 493.725 86.6109C492.941 86.0229 491.667 85.9249 490.373 87.6497C489.374 88.9825 489.54 91.6187 489.531 92.5301C489.521 94.1765 489.197 96.0777 487.845 97.8809Z" fill="#FF4D00"/>
<path d="M507.901 102.196L508.056 102.464C510.595 101.97 515.214 102.013 517.703 104.228C518.984 105.368 519.488 106.866 518.087 108.44C515.578 111.259 508.092 109.647 505.822 108.807L505.626 109.027L504.63 115.158C504.434 116.558 504.49 117.527 504.966 117.95C505.588 118.504 506.695 118.439 507.387 118.399C507.59 118.318 507.672 118.521 507.68 118.66L507.728 119.49C507.736 119.628 507.606 119.775 507.329 119.791C506.222 119.855 503.935 119.919 502.032 118.225C500.128 116.531 499.918 115.294 500.546 112.967L502.111 107.669C502.348 106.962 501.827 106.367 501.103 105.854L493.76 109.683C493.491 109.837 493.28 109.78 492.987 109.519L490.498 107.304C490.278 107.109 490.327 106.759 490.735 106.596L518.072 92.6841C519.183 92.0988 519.44 91.1467 518.269 90.1043L517.317 89.2573C517.098 89.0619 517.155 88.8503 517.423 88.6958L518.302 88.2976C518.571 88.1431 518.636 88.0699 518.929 88.3305L524.786 93.5427C525.152 93.8685 524.863 94.2671 524.423 94.4662L507.901 102.196ZM504.946 103.895L502.316 105.228C505.008 108.542 512.284 108.327 513.978 106.423C514.467 105.874 514.459 105.146 513.8 104.56C512.482 103.387 508.177 103.36 507.217 103.554C506.525 103.595 505.63 103.716 504.946 103.895Z" fill="#FF4D00"/>
<path d="M537.623 124.312L539.425 126.25C539.625 126.466 539.548 126.671 539.266 126.799C537.158 127.555 530.964 130.103 529.764 130.684C528.984 131.141 523.554 133.648 523.123 134.048C522.764 134.382 522.826 134.592 523.093 134.879C523.56 135.381 526.617 135.215 527.243 135.169C527.52 135.179 527.659 135.184 527.684 135.427L527.762 136.158C527.757 136.297 527.613 136.43 527.331 136.559C526.28 136.867 520.93 137.158 518.327 134.359C517.593 133.57 517.618 132.877 518.193 132.343C518.695 131.876 519.685 131.357 524.618 129.179L524.489 128.897C520.863 129.459 514.323 130.053 511.587 127.111C510.72 126.178 510.595 123.885 512.102 122.483C516.911 118.012 529.477 115.695 533.948 120.504C535.416 122.083 535.437 123.401 535.263 124.365L536.802 124.005C537.151 123.949 537.423 124.097 537.623 124.312ZM516.029 126.995C517.297 128.358 526.14 127.362 528.104 126.74C529.576 126.308 530.986 125.666 532.135 124.598C532.709 124.064 533.113 122.484 532.179 121.48C531.311 120.547 529.449 120.271 527.254 120.572C522.55 121.199 518.386 123.197 516.377 125.066C515.587 125.8 515.496 126.42 516.029 126.995Z" fill="#FF4D00"/>
<path d="M539.136 148.682C536.138 151.052 532.101 150.371 529.366 146.912C527.36 144.375 527.25 142.339 528.556 141.306C529.479 140.576 530.657 140.644 531.326 141.49C532.055 142.412 531.926 143.513 531.247 144.55C530.814 145.267 530.673 145.879 531.22 146.57C532.071 147.647 533.585 147.824 535.199 146.547C536.567 145.591 536.892 143.71 537.637 141.809C538.336 140.007 538.72 138.517 540.395 137.317C542.855 135.372 546.956 135.503 549.813 139.116C550.846 140.423 551.645 142.54 550.031 143.816C549.031 144.606 547.93 144.477 547.261 143.632C546.714 142.94 546.536 142.082 547.353 141.061C547.692 140.543 548.186 139.903 547.7 139.288C547.092 138.519 545.885 138.099 544.194 139.436C542.887 140.469 542.375 143.061 542.132 143.939C541.702 145.528 540.904 147.284 539.136 148.682Z" fill="#FF4D00"/>
<path d="M550.735 164.748C547.579 166.905 543.6 165.946 541.111 162.305C539.286 159.635 539.316 157.596 540.692 156.656C541.663 155.993 542.833 156.142 543.442 157.032C544.105 158.003 543.9 159.092 543.151 160.08C542.669 160.765 542.486 161.365 542.984 162.093C543.758 163.226 545.257 163.507 546.955 162.346C548.386 161.487 548.84 159.633 549.716 157.788C550.538 156.039 551.024 154.579 552.778 153.498C555.367 151.728 559.449 152.143 562.049 155.945C562.989 157.321 563.639 159.488 561.94 160.649C560.889 161.368 559.799 161.163 559.191 160.274C558.693 159.545 558.574 158.677 559.46 157.715C559.835 157.222 560.371 156.617 559.929 155.97C559.376 155.161 558.201 154.658 556.421 155.875C555.046 156.815 554.355 159.365 554.053 160.225C553.513 161.78 552.595 163.476 550.735 164.748Z" fill="#FF4D00"/>
<path d="M561.167 182.992L561.07 183.898C561.066 184.184 560.981 184.233 560.762 184.247C558.696 184.201 554.31 182.895 552.145 179.166C550.52 176.37 551.061 173.789 554.027 172.066C557.332 170.146 562.857 169.317 568.011 170.97C570.52 171.779 573 173.512 574.329 175.8C575.461 177.749 574.781 179.504 573.552 180.218C571.391 181.473 568.605 181.165 565.822 179.495C563.307 177.896 561.469 175.903 560.449 174.342C559.927 174.419 558.593 174.854 557.068 175.74C555.373 176.724 554.996 178.417 555.685 179.603C556.817 181.552 559.073 182.508 560.885 182.702C561.019 182.738 561.202 182.858 561.167 182.992ZM571.114 174.948C569.884 172.829 564.585 173.073 562.002 173.894C562.445 174.656 564.135 176.395 566.073 177.196C567.377 177.685 569.141 177.794 570.327 177.105C571.09 176.662 571.656 175.88 571.114 174.948Z" fill="#FF4D00"/>
<path d="M567.472 195.944L562.723 196.415C562.504 196.409 562.374 196.361 562.168 195.916L560.85 193.071C560.665 192.67 560.955 192.482 561.263 192.447L570.889 191.661C574.188 191.322 577.439 191.112 578.061 190.824C578.506 190.618 578.649 190.228 578.464 189.828C578.093 189.027 575.689 188.034 574.649 187.653C574.43 187.646 574.347 187.468 574.419 187.273L574.681 186.557C574.688 186.338 574.825 186.167 575.085 186.262C576.173 186.514 580.912 187.884 582.785 191.93C583.383 193.22 582.679 194.032 582.056 194.32C581.078 194.773 577.457 194.884 575.13 194.989L575.076 195.338C577.739 195.725 585.236 197.221 587.192 201.445C587.954 203.091 587.121 204.556 585.876 205.133C584.72 205.668 582.362 206.058 576.938 206.356C573.468 206.559 571.49 206.719 570.868 207.007C570.423 207.213 570.239 207.514 570.403 207.87C570.692 208.493 572.986 209.482 573.814 209.639C573.986 209.775 574.068 209.953 573.972 210.213L573.823 210.823C573.816 211.042 573.638 211.124 573.289 211.07C572.331 210.866 567.777 209.195 566.047 205.46C565.594 204.481 565.881 203.701 566.681 203.33C567.481 202.959 571.081 202.804 575.653 202.415C577.829 202.217 581.785 201.897 582.319 201.65C583.03 201.321 583.201 200.756 582.912 200.133C582.295 198.799 577.008 196.712 573.12 196.244C571.285 196.014 569.58 195.831 567.472 195.944Z" fill="#FF4D00"/>
<path d="M587.932 228.348L587.631 228.972C587.571 229.097 587.386 229.162 587.293 229.194C586.234 228.838 583.488 227.515 582.646 225.109C581.773 222.612 582.477 219.874 585.761 218.726C589.877 217.286 594.089 221.315 596.068 223.115C599.051 225.706 601.187 227.658 604.656 226.445C605.951 225.992 608 224.133 606.9 220.988C605.898 218.12 603.391 216.297 600.986 217.138C599.506 217.656 599.335 218.65 599.496 219.113C599.626 219.483 599.815 219.728 600.125 219.724C600.463 219.502 600.648 219.437 601.018 219.307C602.036 218.952 603.589 219.239 604.172 220.904C604.625 222.199 603.834 223.202 602.816 223.558C600.596 224.335 598.557 222.66 597.877 220.717C597.198 218.775 597.471 216.291 600.247 215.321C602.837 214.415 607.105 215.933 608.787 220.743C610.955 226.941 606.903 229.604 605.284 230.17C599.271 232.273 594.698 228.993 591.448 225.042C589.02 222.257 587.259 220.486 585.732 221.019C584.576 221.424 584.192 222.7 584.871 224.643C585.55 226.585 587.271 227.645 587.895 227.946C588.052 228.098 588.085 228.191 587.932 228.348ZM574.345 225.417C573.924 224.215 574.332 222.411 575.997 221.829C577.292 221.376 579.095 221.783 579.678 223.448C580.26 225.113 579.413 226.552 577.841 227.102C576.823 227.457 574.927 227.082 574.345 225.417Z" fill="#FF4D00"/>
<path d="M598.555 278.305C598.152 275.491 599.688 272.4 603.083 271.913C606.672 271.398 609.57 273.655 610.044 276.953C610.559 280.542 608.856 283.163 605.266 283.678C601.677 284.193 599.042 281.7 598.555 278.305Z" fill="#FF4D00"/>
</g>
<defs>
<clipPath id="clip0_791_1880">
<rect width="639.203" height="638.04" fill="white"/>
</clipPath>
</defs>
</svg>
