<svg width="592" height="169" viewBox="0 0 592 169" fill="none" xmlns="http://www.w3.org/2000/svg">
<g clip-path="url(#clip0_63_161)">
<path d="M52.566 81.1587C49.9674 90.1508 31.3782 155.21 26.9793 160.602C22.9796 165.4 17.7824 168.991 10.3943 168.991C2.40326 168.991 0 164.398 0 161.596C0 158.394 1.80032 155.397 5.39247 155.397C8.39018 155.397 9.98669 157.995 9.98669 159.991C9.98669 160.993 9.78288 161.986 9.58756 162.784C9.38375 163.184 9.38375 163.583 9.38375 163.982C9.58756 164.78 10.3858 165.179 12.3815 165.179C17.3748 165.179 20.5763 157.987 23.7778 146.991L61.6525 13.7727C62.748 9.9771 62.748 6.87782 58.3576 6.87782H55.1561C54.5531 6.87782 54.0606 6.67403 54.154 6.07965L54.7569 3.68513C54.7569 3.08226 55.1561 2.88696 55.759 2.88696C56.5573 2.88696 61.1515 3.18415 70.1531 3.18415C77.9488 3.18415 81.9486 2.88696 82.9422 2.88696C83.5451 2.88696 83.8423 3.28605 83.7404 3.88892L83.3413 6.08814C83.3413 6.69101 83.1375 6.88631 82.3392 6.88631H79.7406C77.1421 6.88631 74.7473 8.08357 72.7432 14.7831L52.5575 81.1757L52.566 81.1587Z" fill="#FF4D00"/>
<path d="M63.8605 80.0633C63.8605 71.674 66.6544 63.6753 72.2507 57.5787C76.2505 53.1802 81.0485 51.1848 86.441 51.1848C92.2411 51.1848 98.8309 54.7851 98.8309 63.7772C98.8309 70.1711 96.2324 80.5643 90.2369 87.162C86.441 91.5604 81.8468 93.7596 75.8429 93.7596C69.839 93.7596 63.8521 89.2593 63.8521 80.0718L63.8605 80.0633ZM85.8465 79.0614C89.5406 72.7694 92.6402 64.4735 92.6402 60.8733C92.6402 58.674 91.239 56.3729 88.3432 56.3729C84.25 56.3729 80.4456 59.8713 75.5541 68.0653C72.2592 73.661 70.2551 79.6557 70.2551 83.6551C70.2551 86.3553 72.2507 88.3507 74.4502 88.3507C78.348 88.3507 81.9487 85.5571 85.8465 79.0614Z" fill="#FF4D00"/>
<path d="M118.422 79.9614C117.021 83.757 116.622 85.3533 116.622 86.3553C116.622 87.1535 117.021 87.7563 117.819 87.7563C119.815 87.5525 125.012 82.1607 125.615 81.3625C125.819 80.9634 126.218 80.9634 126.515 81.2606L127.611 82.3559C128.01 82.755 128.213 82.9588 127.814 83.3579C127.211 84.1561 120.222 93.7511 109.327 93.7511C107.23 93.7511 106.431 92.5539 106.431 90.9575C106.431 88.9621 108.028 84.2665 112.028 73.1685L114.821 65.3736C115.824 62.6734 116.418 60.7799 116.418 59.5741C116.418 58.7759 116.019 58.3768 115.221 58.3768C113.624 58.3768 109.021 63.5735 107.629 65.1698C107.23 65.5689 106.83 65.5689 106.431 65.1698L105.429 64.2697C105.03 63.9725 104.826 63.7687 105.03 63.3697C105.633 62.7668 114.626 51.1763 123.415 51.1763C125.81 51.1763 127.016 52.3736 127.016 54.3775C127.016 56.3814 125.717 60.0751 124.018 64.7707L118.422 79.9614ZM120.12 33.7015C120.12 31.0013 122.617 28.3096 125.717 28.3096C129.717 28.3096 131.814 30.806 131.814 33.3024C131.814 35.6035 129.513 39.1019 125.921 39.1019C121.921 39.1019 120.12 36.2064 120.12 33.71V33.7015Z" fill="#FF4D00"/>
<path d="M143.007 92.1549C142.803 92.554 142.608 92.7578 141.606 92.7578H135.211C134.311 92.7578 134.209 92.0615 134.413 91.4586L141.206 72.9733C143.406 66.5794 145.801 60.3809 145.801 58.9883C145.801 57.9864 145.198 57.392 144.298 57.392C142.497 57.392 138.599 60.9922 137.003 62.5886C136.799 62.9877 136.4 62.9877 136.103 62.6905L135.007 61.5951C134.608 61.3913 134.404 60.9922 134.803 60.5932C136.205 58.793 142.794 51.2019 151.889 51.2019C154.785 51.2019 155.685 53.1973 155.685 54.5984C155.685 56.7976 152.79 63.5905 150.989 67.989L151.592 68.3881C154.59 63.7943 163.787 51.2019 173.281 51.2019C176.975 51.2019 178.979 53.9955 178.979 56.7976C178.979 59.3959 177.68 64.0915 173.587 74.3828C170.988 80.9805 169.587 84.776 169.587 86.1771C169.587 87.179 169.986 87.7734 170.784 87.7734C172.186 87.7734 175.982 84.377 176.984 82.9759C177.383 82.7721 177.782 82.7721 178.181 83.1797L179.183 83.9779C179.582 84.1817 179.582 84.5807 179.183 85.1751C177.986 86.7715 170.988 93.7682 162.598 93.7682C160.399 93.7682 159.201 92.5709 159.201 90.7708C159.201 88.9707 161.995 82.1777 165.197 73.3809C166.7 69.1862 169.494 61.5866 169.494 60.3894C169.494 58.793 168.593 57.9949 167.192 57.9949C164.194 57.9949 155.796 65.9851 151.601 72.7865C149.605 75.9877 147.805 78.9851 146.208 82.9759L143.007 92.1719V92.1549Z" fill="#FF4D00"/>
<path d="M339.87 82.8569C340.371 83.1541 340.371 83.3579 340.167 83.757C337.968 87.3573 331.174 93.7511 322.376 93.7511C315.778 93.7511 311.787 90.1508 311.787 83.1626C311.787 75.3677 315.982 64.7792 324.177 57.3834C328.177 53.7831 333.773 51.1848 339.165 51.1848C343.76 51.1848 346.163 54.1822 346.163 57.0777C346.163 62.1724 342.766 66.7661 336.966 69.9673C331.573 72.7609 326.172 73.9667 322.376 74.162C321.977 75.1639 321.374 77.9575 321.374 81.5578C321.374 85.5571 323.973 87.9516 326.767 87.9516C331.361 87.9516 335.361 84.9542 337.56 81.9569C337.764 81.7531 338.163 81.5578 338.359 81.7531L339.862 82.8484L339.87 82.8569ZM323.183 70.9693C324.984 70.9693 329.782 69.772 333.178 67.1737C335.378 65.3736 337.374 62.3762 337.374 59.5826C337.374 57.7825 336.575 55.9823 334.376 55.9823C329.382 55.9823 324.381 65.5774 323.183 70.9693Z" fill="#FF4D00"/>
<path d="M453.494 34.9921C454.794 31.4937 454.692 28.8954 451.694 28.8954H448.492C448.093 28.8954 447.991 28.5982 448.093 28.0973L448.696 25.7961C448.798 25.499 448.993 25.2952 449.494 25.2952H464.882C465.782 25.2952 465.978 25.898 465.68 26.7981L445.495 81.354C444.493 83.9523 443.499 87.3487 445.495 87.3487C447.49 87.3487 451.49 83.5532 452.688 82.1521C453.087 81.9483 453.29 81.9483 453.69 82.3559L454.887 83.3579C455.091 83.757 455.286 83.9608 454.887 84.5551C454.488 85.1495 445.894 93.7511 437.096 93.7511C435.296 93.7511 433.699 92.1547 433.699 90.1508C433.699 88.5545 435.899 82.9588 436.901 80.1567L453.486 34.9921H453.494Z" fill="#FF4D00"/>
<path d="M497.262 52.7812C497.466 52.1783 498.061 52.1783 498.664 52.1783H505.457C506.459 52.1783 506.655 52.5774 506.459 53.3755L499.462 73.7629C496.668 81.7531 495.462 85.7524 495.462 86.3553C495.462 87.3572 495.861 87.5525 496.464 87.5525C497.865 87.5525 501.661 83.757 503.063 81.9569C503.266 81.5578 503.665 81.5578 504.065 81.855L505.262 82.755C505.466 82.9588 505.466 83.3579 505.262 83.757C504.26 85.3533 497.067 93.7511 488.677 93.7511C486.681 93.7511 485.475 92.5539 485.475 90.7537C485.475 89.3527 489.874 77.966 490.97 75.062L490.273 74.6629C486.274 80.3605 476.686 93.7511 466.886 93.7511C464.491 93.7511 462.292 91.1528 462.292 89.1574C462.292 85.3618 464.687 80.1652 468.789 71.0712C471.582 64.8726 473.086 60.177 473.086 58.7844C473.086 57.7825 472.287 57.1881 471.285 57.1881C469.689 57.1881 465.893 60.5846 464.092 62.58C463.889 62.9791 463.294 62.9791 462.997 62.58L461.901 61.578C461.698 61.3742 461.698 61.1789 461.901 60.7799C463.498 58.9797 469.994 51.1848 478.486 51.1848C481.28 51.1848 482.682 53.384 482.682 55.3795C482.682 57.774 480.779 63.0725 476.983 72.0646C474.487 77.9575 472.287 83.3579 472.287 85.3533C472.287 86.3553 473.086 86.9497 473.884 86.9497C477.281 86.9497 487.072 75.1554 489.671 70.9608C491.471 68.1672 492.965 65.5689 494.265 61.7648L497.262 52.7727V52.7812Z" fill="#FF4D00"/>
<path d="M542.033 25.3037C543.035 25.3037 543.23 26.1019 542.831 27.0019L526.645 63.1744L527.443 63.3782C532.037 56.9843 538.432 51.1848 545.633 51.1848C550.431 51.1848 553.03 55.1842 553.03 59.2769C553.03 64.3716 550.431 74.162 541.039 83.757C535.646 89.3527 529.243 93.7511 518.051 93.7511C513.457 93.7511 510.06 91.1528 510.06 86.7544C510.06 84.9543 510.858 82.356 511.461 80.7596C518.059 64.1763 524.649 48.1874 530.848 32.8948C531.248 31.7995 531.451 31.0947 531.451 30.5003C531.451 29.4984 530.449 28.904 529.057 28.904H526.059C525.456 28.904 525.057 28.7002 525.261 28.1058L525.864 26.1104C526.067 25.5075 526.263 25.3122 526.866 25.3122H542.058L542.033 25.3037ZM526.246 69.5682C522.645 74.9601 519.452 83.3579 519.452 86.3553C519.452 88.7498 520.649 89.7518 523.053 89.7518C525.847 89.7518 529.846 87.1535 533.345 83.4598C539.638 76.565 543.238 68.5748 543.238 61.6799C543.238 58.7844 541.837 57.1796 540.241 57.1796C537.243 57.1796 531.248 62.1724 526.254 69.5682H526.246Z" fill="#FF4D00"/>
<path d="M285.512 0C287.185 2.2162 287.966 4.75506 287.525 7.44677C287.1 10.0451 288.323 10.5376 290.438 10.4696C291.822 10.4272 293.206 10.4526 294.59 10.4696C299.201 10.5206 299.838 11.3103 298.335 15.5813C295.915 22.4592 293.384 29.3031 290.888 36.1555C288.272 43.3305 285.631 50.4886 283.236 57.7995C285.86 54.8021 287.983 51.4566 290.574 48.4592C292.866 45.8099 295.541 43.8485 298.734 42.5578C304.084 40.401 308.483 42.7701 309.918 48.4252C311.048 52.8576 310.207 57.2051 309.256 61.4931C306.87 72.26 303.337 82.5513 296.229 91.2717C294.335 93.5983 291.958 95.1861 289.138 96.0353C286.209 96.9184 283.822 95.789 282.43 93.2247C280.935 90.4566 281.699 87.7564 283.95 85.693C286.047 83.774 287.669 85.1241 288.892 86.9582C291.355 90.6434 292.603 90.7283 294.573 86.5506C297.681 79.9445 300.161 73.0751 301.316 65.8067C301.97 61.7224 302.955 57.6381 302.437 53.469C301.817 48.5271 299.363 47.4997 295.329 50.5395C291.482 53.4435 288.671 57.3494 285.606 61.0176C278.82 69.1522 275.865 79.1039 272.333 88.7668C271.415 91.2632 270.116 92.452 267.382 92.2907C264.885 92.1463 264.358 91.1953 265.165 88.9197C268.596 79.1973 271.959 69.4494 275.33 59.71C279.729 46.9902 284.128 34.2789 288.467 21.5421C289.138 19.5807 290.293 17.2456 287.865 15.7596C285.674 14.418 283.618 15.2926 281.691 16.9144C278.336 19.742 274.235 20.4128 269.997 20.26C267.619 20.1666 265.242 19.8269 262.872 19.5382C256.902 18.7995 256.775 18.7485 255.17 24.6329C250.143 43.0673 245.175 61.5271 240.275 80.0039C238.746 85.7609 240.012 87.3063 245.88 87.6205C247.536 87.7054 249.786 87.2384 249.693 89.9896C249.616 92.486 247.824 92.8935 245.71 92.885C237.532 92.8426 229.354 92.885 221.176 92.8511C219.58 92.8511 217.677 93.0973 217.567 90.6434C217.465 88.2573 219.053 87.5186 221.006 87.6715C227.129 88.1385 229.583 84.1221 230.968 79.2907C235.137 64.7877 239.078 50.2253 243.111 35.6799C244.487 30.7126 245.905 25.7538 247.272 20.7864C247.731 19.1221 248.028 17.0928 245.684 16.9824C237.753 16.6003 229.677 14.452 222.051 18.8674C216.446 22.111 213.185 29.0229 214.637 35.2554C215.028 36.9451 215.801 37.7518 217.55 36.9282C220.166 35.6969 222.314 36.3253 223.622 38.8217C225.006 41.4624 225.066 44.1966 222.798 46.4892C220.726 48.5865 218.382 48.5441 215.903 47.143C212.192 45.0542 209.44 37.7773 210.23 31.9948C211.962 19.2835 220.361 11.3103 233.099 9.71391C246.72 8.00718 259.875 11.1319 273.165 12.9915C274.039 13.1104 274.897 13.3312 275.772 13.3821C280.74 13.6878 282.183 11.7178 280.672 6.72502C279.271 2.1143 280.689 0.169824 285.555 0.0254735L285.512 0Z" fill="#FF4D00"/>
<path d="M376.479 88.8262C377.405 60.9412 384.564 35.077 401.709 12.5584C406.227 6.62309 411.722 1.57932 419.373 0.246208C430.217 -1.64733 440.756 7.67599 441.885 19.9033C442.132 22.5525 442.013 25.2782 441.656 27.919C441.325 30.3729 439.677 32.0202 437.079 32.1646C434.361 32.3174 433.037 30.5767 432.323 28.1907C431.712 26.1188 431.703 24.0385 431.984 21.8987C432.247 19.9458 432.502 17.9588 432.391 16.0058C432.111 11.1234 429.207 7.84582 425.012 5.96077C421.088 4.2031 417.581 5.90134 414.515 8.54209C408.894 13.3906 405.65 19.9373 402.703 26.4415C393.328 47.109 388.708 69.0248 387.018 91.5604C386.509 98.3363 387.392 105.138 390.296 111.43C394.398 120.32 404.07 122.4 411.789 116.431C418.447 111.285 422.719 104.747 424.562 96.5787C424.714 95.8909 424.867 95.1946 425.08 94.5238C425.572 92.9275 426.404 91.5434 428.307 91.7981C430.489 92.0868 430.701 93.9124 430.735 95.6616C430.752 96.3494 430.591 97.0712 430.396 97.742C427.738 106.768 423.075 114.614 415.815 120.617C401.438 132.505 384.487 127.045 379.154 108.916C377.235 102.387 376.191 95.6871 376.479 88.8092V88.8262Z" fill="#FF4D00"/>
<path d="M592 7.14119C591.499 11.6076 589.775 15.8192 588.357 20.0902C583.397 35.1027 578.268 50.0641 573.198 65.0341C572.884 65.9596 572.502 66.8851 572.026 67.7428C571.687 68.3541 571.135 68.8891 570.311 68.6343C569.479 68.3711 569.402 67.6154 569.419 66.9106C569.436 66.3502 569.581 65.7983 569.683 65.2464C573.241 46.3789 576.791 27.5115 580.374 8.65262C580.637 7.27705 581.028 5.87601 581.657 4.64478C582.888 2.24178 584.782 0.399194 587.703 0.976594C590.862 1.60494 591.669 4.2457 591.991 7.14968L592 7.14119Z" fill="#FF4D00"/>
<path d="M559.119 87.9007C559.204 83.7825 561.904 80.5134 565.216 80.5474C568.409 80.5813 571.271 84.2495 571.101 88.1045C570.923 92.1803 568.095 95.5598 564.936 95.4749C561.581 95.3815 559.034 92.0614 559.119 87.9092V87.9007Z" fill="#FF4D00"/>
</g>
<defs>
<clipPath id="clip0_63_161">
<rect width="592" height="169" fill="white"/>
</clipPath>
</defs>
</svg>
