<svg width="349" height="166" viewBox="0 0 349 166" fill="none" xmlns="http://www.w3.org/2000/svg">
<path d="M167.551 63.6777L148.695 87.7685C144.149 93.9531 140.248 99.4902 140.248 102.253C140.248 104.854 142.199 106.484 146.422 106.484H151.292C152.1 106.484 152.434 106.969 152.273 107.79L151.627 111.536C151.465 112.518 150.98 113.004 149.999 113.004C148.372 113.004 141.552 112.518 127.901 112.518C116.2 112.518 110.672 113.004 108.722 113.004C107.741 113.004 107.257 112.518 107.418 111.374L108.065 107.79C108.226 106.808 108.711 106.484 109.368 106.484H111.642C117.492 106.484 125.293 101.929 130.982 95.0859L206.878 5.06916C207.859 3.7629 208.505 3.43922 211.102 3.43922C213.375 3.43922 217.275 3.11554 221.499 2.29479C224.418 1.80928 226.703 0.988525 227.996 0.988525C229.288 0.988525 229.946 1.79772 229.623 2.94214L205.574 92.9589C204.928 95.5599 203.947 99.7908 203.947 101.918C203.947 104.519 206.544 106.472 209.798 106.472H213.86C214.841 106.472 215.164 106.958 215.002 107.779L214.356 111.686C214.194 112.495 213.71 112.992 212.244 112.992C210.455 112.992 203.959 112.507 191.277 112.507C178.595 112.507 173.725 112.992 170.471 112.992C169.49 112.992 169.328 112.345 169.49 111.2L170.136 107.779C170.298 106.796 170.782 106.472 171.602 106.472H174.36C180.21 106.472 183.787 105.49 187.03 93.6063L195.477 63.6546H167.528L167.551 63.6777ZM209.475 16.1435C210.121 13.8662 207.524 13.5426 206.22 14.8373L172.098 57.8169H197.45L209.475 16.1435Z" fill="#FF4D00"/>
<path d="M69.7183 52.5108L89.2433 52.1871C100.31 51.8635 104.21 45.991 107.476 35.2288C107.799 34.2462 108.457 34.2462 109.426 34.5814L112.357 34.9051C113.003 35.2288 113.338 35.5525 113.003 36.5351L103.241 77.2952C103.079 78.2778 102.595 78.4396 101.614 78.2778L98.6827 77.9541C97.7019 77.7923 97.5403 77.3068 97.7019 76.3242C99.329 64.5909 97.3788 59.3658 87.9394 59.0421L67.7566 58.2214L37.6382 146.423C34.5456 156.527 36.8189 158.492 42.3579 158.492H47.2392C48.22 158.492 48.7047 159.139 48.5431 159.798L47.5623 163.705C47.2392 164.688 46.5814 165.012 45.6121 165.012C43.6619 165.012 38.7806 164.526 23.4791 164.526C8.17758 164.526 3.95409 165.012 1.99235 165.012C1.34614 165.012 0.849933 164.688 1.01149 163.382L1.65771 159.798C1.81926 159.151 1.98081 158.492 3.28479 158.492H7.51983C12.4011 158.492 15.9784 155.232 17.9401 148.874L62.5638 15.5076C63.8677 11.2652 62.5638 9.31155 58.6518 9.31155H53.7706C52.7897 9.31155 52.6282 8.6642 52.7897 7.68161L53.4359 4.42172C53.5975 3.2773 54.4168 2.79178 55.7092 2.79178C56.8517 2.79178 59.125 2.95362 62.3791 3.11546C65.6333 3.2773 69.8683 3.2773 74.9111 3.2773C99.6521 3.2773 111.365 2.95362 116.904 2.62994C126.02 2.62994 130.578 1 132.528 1C133.832 1 134.156 2.30627 134.156 3.61253C134.479 7.85501 137.087 27.4143 137.41 29.0443C137.733 30.0269 137.41 30.3505 136.763 30.6742L134.156 31.9805C133.175 32.3041 132.852 31.9805 132.205 30.6742C131.224 28.3969 122.443 14.6985 120.158 12.4096C117.227 9.79707 118.208 10.1323 113.003 9.79707C110.072 9.47339 87.2932 9.31155 83.0581 9.31155L69.7183 52.5108Z" fill="#FF4D00"/>
<path d="M260.791 128.644C264.369 127.997 269.584 127.338 279.347 127.338C295.618 127.338 303.753 133.21 308.634 139.73C313.839 146.897 316.77 149.833 320.024 149.833C323.601 149.833 325.563 146.897 325.563 144.62C325.563 143.637 325.24 142.343 324.582 140.701C323.601 139.395 323.278 138.089 323.278 135.488C323.278 131.58 325.886 128.644 330.433 128.644C335.972 128.644 337.599 133.21 337.599 136.794C337.599 148.862 326.209 155.706 312.212 155.706C304.076 155.706 298.872 152.77 293.656 147.232C286.49 140.065 278.689 134.193 261.437 134.193C256.556 134.193 254.271 134.84 253.302 135.823C251.352 138.759 248.744 140.713 246.471 140.713C242.57 140.713 241.266 136.805 241.266 133.869C241.266 127.349 267.3 117.894 276.739 114.31V113.327C257.214 109.744 242.893 94.7391 242.893 66.533C242.893 44.0374 257.214 23.4955 265.026 16.6521C274.789 8.50236 283.582 1 305.715 1C330.121 1 349 15.9932 349 46.4881C349 62.1402 342.492 81.6995 330.444 96.0453C321.328 106.484 307.33 112.345 297.245 114.634C285.198 117.246 268.28 123.107 260.468 127.349L260.791 128.656V128.644ZM331.425 35.2288C331.425 19.2531 323.936 8.4908 308.311 8.4908C280.651 8.4908 259.164 53.4819 259.164 78.4281C259.164 106.472 278.689 107.779 284.551 107.779C307.988 107.779 331.425 69.3073 331.425 35.2288Z" fill="#FF4D00"/>
<path d="M87.8702 112.992C91.4774 112.992 94.4016 110.063 94.4016 106.449C94.4016 102.836 91.4774 99.9062 87.8702 99.9062C84.263 99.9062 81.3387 102.836 81.3387 106.449C81.3387 110.063 84.263 112.992 87.8702 112.992Z" fill="#FF4D00"/>
<path d="M232.104 112.992C235.711 112.992 238.635 110.063 238.635 106.449C238.635 102.836 235.711 99.9062 232.104 99.9062C228.496 99.9062 225.572 102.836 225.572 106.449C225.572 110.063 228.496 112.992 232.104 112.992Z" fill="#FF4D00"/>
</svg>
