<svg width="11" height="22" viewBox="0 0 11 22" fill="none" xmlns="http://www.w3.org/2000/svg">
<path fill-rule="evenodd" clip-rule="evenodd" d="M0 8.44477V12.2095L3.26581 12.2149L3.27109 21.3107C3.45854 21.4328 4.94096 21.5026 5.25645 21.4999C5.70791 21.4959 6.91708 21.4637 7.27613 21.3268C7.33553 20.6195 7.28669 19.7766 7.28537 19.0545V12.2243L10.2727 12.2135L10.8456 8.45149L7.27877 8.44612C7.27877 7.76028 7.27877 7.07712 7.27877 6.39396C7.27877 5.66517 7.29593 5.22629 7.64839 4.69748C8.30577 3.71234 9.68787 4.04117 11 3.95393V0.751546C10.7756 0.65491 9.19681 0.534116 8.85359 0.516668C7.75135 0.458956 6.72963 0.536793 5.74487 0.978362C5.4571 1.10721 5.22345 1.26962 5.003 1.43739C4.58455 1.75548 4.15949 2.27489 3.89944 2.7433C3.06121 4.2492 3.29353 6.32954 3.27373 8.13474C3.26977 8.51725 3.4295 8.4327 2.38798 8.43539C1.86392 8.43539 0.409216 8.41257 0 8.44344V8.44477Z" fill="#FF4D00"/>
</svg>
