<svg width="21" height="22" viewBox="0 0 21 22" fill="none" xmlns="http://www.w3.org/2000/svg">
<path fill-rule="evenodd" clip-rule="evenodd" d="M13.0704 20.0071C10.9527 20.0071 8.86297 20.0473 6.73506 19.967C5.58574 19.9241 4.38799 19.7756 3.59799 19.1839C2.15305 18.1011 1.99633 16.622 1.93517 14.8391C1.87018 12.9411 1.90841 10.6697 1.90204 8.74621C1.89694 7.31266 1.86891 5.24732 2.5455 4.02258C2.82328 3.51796 3.11635 3.22081 3.52791 2.87547C3.7458 2.69343 4.08091 2.5288 4.35104 2.41904C4.77535 2.24905 5.24043 2.15134 5.72717 2.09913C7.13771 1.94654 9.93966 1.99607 11.6012 1.99741C12.985 1.99741 15.4187 1.91175 16.6738 2.43778C16.8968 2.53148 17.0956 2.62919 17.2905 2.75902C17.3822 2.82059 17.488 2.89287 17.5619 2.95846C17.6575 3.04279 17.7084 3.12176 17.7913 3.20073C18.1175 3.51127 18.3417 3.76291 18.5711 4.29698C19.1878 5.73053 19.0795 8.02207 19.0846 9.60419C19.0897 11.4165 19.1241 14.4135 18.9992 15.8671C18.8883 17.1601 18.5392 18.1265 17.7518 18.8694C17.2727 19.3218 16.7885 19.5708 16.1195 19.7528C15.2926 19.9777 13.9687 20.0071 13.0691 20.0071H13.0704ZM7.74677 0.0257759C5.57809 0.0726239 3.86175 0.0993972 2.23078 1.42587C2.03838 1.58247 1.86254 1.73506 1.69944 1.92379C1.64465 1.98804 1.6077 2.03757 1.55418 2.10181C1.28405 2.43377 1.37707 2.32669 1.12095 2.68005C0.941293 2.92902 0.783292 3.25026 0.650776 3.57284C0.0442584 5.04253 0.0417096 6.68221 0.025145 8.41425C0.0073063 10.256 -0.0627745 14.724 0.152565 16.4855C0.411226 18.603 1.48282 20.4622 3.40559 21.3242C4.82377 21.96 6.35026 21.9667 8.01818 21.9881C8.88973 21.9988 9.76765 22.0002 10.6405 21.9948C11.512 21.9895 12.3938 22.0109 13.2628 21.9921C15.4646 21.944 17.3326 21.8797 18.947 20.4248C19.0667 20.3177 19.1967 20.1999 19.2948 20.0861C20.9181 18.2242 20.9474 16.1897 20.9768 13.6064C20.9971 11.7994 21.0583 7.24572 20.8353 5.50967C20.7079 4.51917 20.3358 3.27167 19.7675 2.51675C19.133 1.67349 18.5277 1.13808 17.5746 0.680312C16.2737 0.0552252 14.5064 0.041841 12.948 0.0204248C11.233 -0.00366853 9.46439 -0.0117026 7.7506 0.0257759H7.74677ZM10.3219 7.3488C11.3158 7.27384 12.1568 7.67806 12.8665 8.32055C13.4985 8.89344 13.9228 9.86654 13.9827 10.8008C14.0298 11.5424 13.817 12.3923 13.4373 12.9799C12.8028 13.9624 11.8968 14.5902 10.7004 14.6624C9.28218 14.7481 8.00671 13.9503 7.37089 12.6547C6.30311 10.4796 7.59515 7.55358 10.3219 7.35013V7.3488ZM10.2022 5.37181C8.94834 5.45078 7.75315 5.96477 6.88032 6.82811C6.59235 7.11188 6.47385 7.22967 6.23176 7.55626C5.45322 8.60165 5.0442 9.96291 5.1232 11.3416C5.19328 12.573 5.57809 13.5113 6.21137 14.4202C7.24347 15.9006 9.05538 16.7519 10.824 16.6367C11.8803 16.5685 12.9837 16.1375 13.7623 15.495L14.1203 15.1671C15.2913 14.0601 15.9666 12.4231 15.8685 10.6697C15.8124 9.65506 15.5117 8.79573 15.0556 8.006C14.8364 7.6272 14.7294 7.51076 14.4618 7.22164C14.3484 7.09849 14.2579 6.97267 14.1458 6.84819L13.775 6.5323C12.7187 5.73186 11.6063 5.28213 10.2034 5.37181H10.2022ZM15.9437 3.82983C15.5742 3.8807 15.2658 4.08549 15.1231 4.29831C14.9358 4.57806 14.7842 4.84041 14.8415 5.30086C14.9243 5.97681 15.4952 6.54569 16.2482 6.4453C16.8968 6.3583 17.4358 5.76934 17.3364 4.97426C17.2535 4.30902 16.684 3.72811 15.9437 3.82849V3.82983Z" fill="#FF4D00"/>
</svg>
