<svg width="184" height="83" viewBox="0 0 184 83" fill="none" xmlns="http://www.w3.org/2000/svg">
<g clip-path="url(#clip0_271_3390)">
<path d="M15.7778 32.9862C18.2262 29.8535 23.6644 25.2375 28.873 25.2375C31.5568 25.2375 33.6991 26.4287 33.6991 29.6359C33.6991 35.3744 23.2818 41.1129 19.7564 42.453V42.8997L24.9651 50.8775C26.1893 52.6643 27.2604 53.7124 28.2609 53.7124C29.5616 53.7124 30.7858 52.5212 31.5568 51.7766C31.7099 51.4788 32.0159 51.6277 32.1689 51.7766L33.0871 52.6701C33.2401 52.819 33.2401 53.1168 32.934 53.4146C31.7098 54.6058 29.1026 56.994 25.124 56.994C21.1454 56.994 19.6093 55.8027 17.926 52.5211L14.2476 44.9214C13.7885 43.879 12.5644 43.7301 11.1813 43.879L6.5847 55.6538C6.43168 56.1006 6.12567 56.2495 5.51358 56.2495H0.304901C-0.154166 56.2495 -0.460193 55.8027 -0.154148 55.2071L17.3081 11.7561C17.9967 9.96923 17.3081 8.62337 14.8597 8.62337H12.8704C12.4114 8.62337 12.2583 8.32556 12.4113 7.87886L13.0234 6.53873C13.1764 6.09202 13.1765 5.94312 13.7886 5.94312H26.0421C26.8072 5.94312 26.8838 6.68763 26.5777 7.35769L15.3188 32.8488L15.7778 32.9977V32.9862ZM11.9464 41.9318C18.5323 42.9742 26.8072 35.3744 26.8072 31.4972C26.8072 30.3804 26.0421 29.5614 24.6649 29.5614C21.9046 29.5614 16.8549 33.8854 15.9309 35.0766C15.1657 35.8211 14.2476 36.8634 13.6355 37.7626L11.9523 41.9376L11.9464 41.9318Z" fill="#FF4D00"/>
<path d="M69.0881 25.0885C69.5472 25.0885 69.7002 25.3863 69.5472 25.833C68.17 28.9657 64.4916 38.5012 63.8795 40.4427C63.5734 41.7828 60.6601 50.4307 60.6601 51.3241C60.6601 52.0686 60.9661 52.2175 61.5782 52.2175C62.6494 52.2175 65.7157 48.6381 66.3278 47.8936C66.6339 47.5958 66.7869 47.4469 67.0929 47.6702L68.011 48.3403C68.1641 48.4892 68.1641 48.787 68.011 49.2337C67.2459 50.7227 61.8843 56.9824 55.9105 56.9824C54.2272 56.9824 53.4563 56.2379 53.4563 55.0467C53.4563 54.0043 53.9153 52.3607 56.6756 44.612L56.2166 44.4631C52.9972 49.0848 46.7174 56.9824 40.4376 56.9824C38.4483 56.9824 35.688 54.7488 35.688 51.6162C35.688 41.6282 46.4114 25.2317 56.6756 25.2317C60.048 25.2317 61.5782 26.5718 62.4964 27.763L63.7205 25.6784C64.0266 25.2317 64.4857 25.0828 64.9447 25.0828H69.0822L69.0881 25.0885ZM57.5997 38.2034C58.6708 36.1188 59.4359 33.8795 59.4359 31.4971C59.4359 30.3058 58.0587 28.2155 55.9105 28.2155C53.9212 28.2155 51.62 30.0023 49.6307 32.7627C45.3402 38.6501 43.1979 45.3565 43.1979 49.5315C43.1979 51.1694 43.81 51.914 45.0341 51.914C47.9475 51.914 56.2166 41.0326 57.5938 38.1977L57.5997 38.2034Z" fill="#FF4D00"/>
<path d="M77.4392 56.9883C72.3836 56.9883 69.7822 55.2014 69.7822 52.6644C69.7822 50.8775 71.0064 49.5317 72.6955 49.5317C74.5318 49.5317 75.7619 50.7229 76.374 52.5155C76.833 53.7067 77.4452 54.4512 78.8224 54.4512C80.9647 54.4512 82.6538 52.8133 82.6538 49.6806C82.8068 47.1492 80.8175 44.9844 79.2049 42.3041C77.6747 39.7728 76.2151 37.9058 76.3681 34.7788C76.3681 30.0082 80.5056 25.2375 87.7035 25.2375C90.3049 25.2375 93.6773 26.2799 93.6773 29.4126C93.6773 31.3483 92.4531 32.5453 90.764 32.5453C89.3868 32.5453 88.1626 31.9496 87.6976 30.0139C87.3916 29.1205 87.0856 27.9293 85.8614 27.9293C84.3311 27.9293 82.642 28.9716 82.642 32.2532C82.642 34.7845 85.3199 37.8428 86.1674 38.9595C87.6977 40.9697 89.0808 43.5813 89.0808 47.0118C89.0808 52.8247 84.3311 56.9997 77.4392 56.9997V56.9883Z" fill="#FF4D00"/>
<path d="M101.34 56.9883C96.284 56.9883 93.6826 55.2014 93.6826 52.6644C93.6826 50.8775 94.9068 49.5317 96.5959 49.5317C98.4322 49.5317 99.6622 50.7229 100.274 52.5155C100.733 53.7067 101.346 54.4512 102.723 54.4512C104.865 54.4512 106.554 52.8133 106.554 49.6806C106.707 47.1492 104.718 44.9844 103.105 42.3041C101.575 39.7728 100.115 37.9058 100.268 34.7788C100.268 30.0082 104.406 25.2375 111.604 25.2375C114.205 25.2375 117.578 26.2799 117.578 29.4126C117.578 31.3483 116.353 32.5453 114.664 32.5453C113.287 32.5453 112.063 31.9496 111.598 30.0139C111.292 29.1205 110.986 27.9293 109.762 27.9293C108.231 27.9293 106.542 28.9716 106.542 32.2532C106.542 34.7845 109.22 37.8428 110.068 38.9595C111.598 40.9697 112.981 43.5813 112.981 47.0118C112.981 52.8247 108.231 56.9997 101.34 56.9997V56.9883Z" fill="#FF4D00"/>
<path d="M141.703 48.8612C142.085 49.0846 142.085 49.2335 141.932 49.5313C140.249 52.2173 135.041 56.9822 128.296 56.9822C123.24 56.9822 120.18 54.2962 120.18 49.0846C120.18 43.2716 123.399 35.3683 129.679 29.8532C132.745 27.1672 137.03 25.2314 141.167 25.2314C144.693 25.2314 146.529 27.465 146.529 29.6298C146.529 33.4326 143.928 36.8573 139.484 39.2455C135.347 41.3302 131.209 42.2293 128.302 42.3782C127.996 43.1227 127.537 45.2131 127.537 47.8933C127.537 50.8771 129.526 52.664 131.674 52.664C135.199 52.664 138.26 50.4304 139.949 48.1912C140.102 48.0423 140.408 47.8933 140.561 48.0423L141.709 48.8612H141.703ZM128.914 39.99C130.291 39.99 133.969 39.0966 136.571 37.1551C138.254 35.815 139.79 33.5757 139.79 31.4911C139.79 30.151 139.178 28.8051 137.495 28.8051C133.663 28.8051 129.838 35.9582 128.914 39.9843V39.99Z" fill="#FF4D00"/>
<path d="M155.876 55.7972C155.723 56.095 155.57 56.2439 154.805 56.2439H149.902C149.213 56.2439 149.137 55.7227 149.29 55.276L154.498 41.4853C156.182 36.7147 158.024 32.093 158.024 31.0506C158.024 30.3061 157.565 29.8594 156.876 29.8594C155.499 29.8594 152.509 32.5454 151.285 33.7366C151.132 34.0344 150.826 34.0344 150.596 33.8111L149.755 32.9921C149.449 32.8432 149.296 32.5454 149.602 32.2476C150.673 30.9075 155.729 25.2434 162.697 25.2434C164.916 25.2434 165.61 26.7324 165.61 27.7748C165.61 29.4127 163.391 34.4811 162.008 37.7627L162.467 38.0605C164.763 34.63 171.814 25.2434 179.088 25.2434C181.925 25.2434 183.455 27.3281 183.455 29.4184C183.455 31.3542 182.46 34.8591 179.318 42.5334C177.328 47.4529 176.251 50.2878 176.251 51.3301C176.251 52.0746 176.557 52.5213 177.169 52.5213C178.241 52.5213 181.154 49.99 181.919 48.9419C182.225 48.793 182.531 48.793 182.837 49.0908L183.602 49.6864C183.908 49.8353 183.908 50.1331 183.602 50.5798C182.684 51.7711 177.322 56.9884 170.89 56.9884C169.206 56.9884 168.288 56.095 168.288 54.7549C168.288 53.4147 170.43 48.3463 172.885 41.7888C174.032 38.6561 176.181 32.9921 176.181 32.0987C176.181 30.9075 175.492 30.3118 174.421 30.3118C172.126 30.3118 165.687 36.2737 162.473 41.3421C160.943 43.7246 159.56 45.9638 158.336 48.9419L155.887 55.7972H155.876Z" fill="#FF4D00"/>
</g>
<defs>
<clipPath id="clip0_271_3390">
<rect width="184" height="83" fill="white"/>
</clipPath>
</defs>
</svg>
