<svg width="359" height="83" viewBox="0 0 359 83" fill="none" xmlns="http://www.w3.org/2000/svg">
<path d="M190.778 32.9862C193.226 29.8535 198.664 25.2375 203.873 25.2375C206.557 25.2375 208.699 26.4287 208.699 29.6359C208.699 35.3744 198.282 41.1129 194.756 42.453V42.8997L199.965 50.8775C201.189 52.6643 202.26 53.7124 203.261 53.7124C204.562 53.7124 205.786 52.5212 206.557 51.7766C206.71 51.4788 207.016 51.6277 207.169 51.7766L208.087 52.6701C208.24 52.819 208.24 53.1168 207.934 53.4146C206.71 54.6058 204.103 56.994 200.124 56.994C196.145 56.994 194.609 55.8027 192.926 52.5211L189.248 44.9214C188.789 43.879 187.564 43.7301 186.181 43.879L181.585 55.6538C181.432 56.1006 181.126 56.2495 180.514 56.2495H175.305C174.846 56.2495 174.54 55.8027 174.846 55.2071L192.308 11.7561C192.997 9.96923 192.308 8.62337 189.86 8.62337H187.87C187.411 8.62337 187.258 8.32556 187.411 7.87886L188.023 6.53873C188.176 6.09202 188.176 5.94312 188.789 5.94312H201.042C201.807 5.94312 201.884 6.68763 201.578 7.35769L190.319 32.8488L190.778 32.9977V32.9862ZM186.946 41.9318C193.532 42.9742 201.807 35.3744 201.807 31.4972C201.807 30.3804 201.042 29.5614 199.665 29.5614C196.905 29.5614 191.855 33.8854 190.931 35.0766C190.166 35.8211 189.248 36.8634 188.636 37.7626L186.952 41.9376L186.946 41.9318Z" fill="#FF4D00"/>
<path d="M244.088 25.0885C244.547 25.0885 244.7 25.3863 244.547 25.833C243.17 28.9657 239.492 38.5012 238.879 40.4427C238.573 41.7828 235.66 50.4307 235.66 51.3241C235.66 52.0686 235.966 52.2175 236.578 52.2175C237.649 52.2175 240.716 48.6381 241.328 47.8936C241.634 47.5958 241.787 47.4469 242.093 47.6702L243.011 48.3403C243.164 48.4892 243.164 48.787 243.011 49.2337C242.246 50.7227 236.884 56.9824 230.91 56.9824C229.227 56.9824 228.456 56.2379 228.456 55.0467C228.456 54.0043 228.915 52.3607 231.676 44.612L231.217 44.4631C227.997 49.0848 221.717 56.9824 215.438 56.9824C213.448 56.9824 210.688 54.7488 210.688 51.6162C210.688 41.6282 221.411 25.2317 231.676 25.2317C235.048 25.2317 236.578 26.5718 237.496 27.763L238.721 25.6784C239.027 25.2317 239.486 25.0828 239.945 25.0828H244.082L244.088 25.0885ZM232.6 38.2034C233.671 36.1188 234.436 33.8795 234.436 31.4971C234.436 30.3058 233.059 28.2155 230.91 28.2155C228.921 28.2155 226.62 30.0023 224.631 32.7627C220.34 38.6501 218.198 45.3565 218.198 49.5315C218.198 51.1694 218.81 51.914 220.034 51.914C222.947 51.914 231.217 41.0326 232.594 38.1977L232.6 38.2034Z" fill="#FF4D00"/>
<path d="M252.439 56.9883C247.384 56.9883 244.782 55.2014 244.782 52.6644C244.782 50.8775 246.006 49.5317 247.696 49.5317C249.532 49.5317 250.762 50.7229 251.374 52.5155C251.833 53.7067 252.445 54.4512 253.822 54.4512C255.965 54.4512 257.654 52.8133 257.654 49.6806C257.807 47.1492 255.818 44.9844 254.205 42.3041C252.675 39.7728 251.215 37.9058 251.368 34.7788C251.368 30.0082 255.506 25.2375 262.704 25.2375C265.305 25.2375 268.677 26.2799 268.677 29.4126C268.677 31.3483 267.453 32.5453 265.764 32.5453C264.387 32.5453 263.163 31.9496 262.698 30.0139C262.392 29.1205 262.086 27.9293 260.861 27.9293C259.331 27.9293 257.642 28.9716 257.642 32.2532C257.642 34.7845 260.32 37.8428 261.167 38.9595C262.698 40.9697 264.081 43.5813 264.081 47.0118C264.081 52.8247 259.331 56.9997 252.439 56.9997V56.9883Z" fill="#FF4D00"/>
<path d="M276.34 56.9883C271.284 56.9883 268.683 55.2014 268.683 52.6644C268.683 50.8775 269.907 49.5317 271.596 49.5317C273.432 49.5317 274.662 50.7229 275.274 52.5155C275.733 53.7067 276.346 54.4512 277.723 54.4512C279.865 54.4512 281.554 52.8133 281.554 49.6806C281.707 47.1492 279.718 44.9844 278.105 42.3041C276.575 39.7728 275.115 37.9058 275.268 34.7788C275.268 30.0082 279.406 25.2375 286.604 25.2375C289.205 25.2375 292.578 26.2799 292.578 29.4126C292.578 31.3483 291.353 32.5453 289.664 32.5453C288.287 32.5453 287.063 31.9496 286.598 30.0139C286.292 29.1205 285.986 27.9293 284.762 27.9293C283.231 27.9293 281.542 28.9716 281.542 32.2532C281.542 34.7845 284.22 37.8428 285.068 38.9595C286.598 40.9697 287.981 43.5813 287.981 47.0118C287.981 52.8247 283.231 56.9997 276.34 56.9997V56.9883Z" fill="#FF4D00"/>
<path d="M316.703 48.8612C317.085 49.0846 317.085 49.2335 316.932 49.5313C315.249 52.2173 310.041 56.9822 303.296 56.9822C298.24 56.9822 295.18 54.2962 295.18 49.0846C295.18 43.2716 298.399 35.3683 304.679 29.8532C307.745 27.1672 312.03 25.2314 316.167 25.2314C319.693 25.2314 321.529 27.465 321.529 29.6298C321.529 33.4326 318.928 36.8573 314.484 39.2455C310.347 41.3302 306.209 42.2293 303.302 42.3782C302.996 43.1227 302.537 45.2131 302.537 47.8933C302.537 50.8771 304.526 52.664 306.674 52.664C310.199 52.664 313.26 50.4304 314.949 48.1912C315.102 48.0423 315.408 47.8933 315.561 48.0423L316.709 48.8612H316.703ZM303.914 39.99C305.291 39.99 308.969 39.0966 311.571 37.1551C313.254 35.815 314.79 33.5757 314.79 31.4911C314.79 30.151 314.178 28.8051 312.495 28.8051C308.663 28.8051 304.838 35.9582 303.914 39.9843V39.99Z" fill="#FF4D00"/>
<path d="M330.876 55.7972C330.723 56.095 330.57 56.2439 329.805 56.2439H324.902C324.213 56.2439 324.137 55.7227 324.29 55.276L329.498 41.4853C331.182 36.7147 333.024 32.093 333.024 31.0506C333.024 30.3061 332.565 29.8594 331.876 29.8594C330.499 29.8594 327.509 32.5454 326.285 33.7366C326.132 34.0344 325.826 34.0344 325.596 33.8111L324.755 32.9921C324.449 32.8432 324.296 32.5454 324.602 32.2476C325.673 30.9075 330.729 25.2434 337.697 25.2434C339.916 25.2434 340.61 26.7324 340.61 27.7748C340.61 29.4127 338.391 34.4811 337.008 37.7627L337.467 38.0605C339.763 34.63 346.814 25.2434 354.088 25.2434C356.925 25.2434 358.455 27.3281 358.455 29.4184C358.455 31.3542 357.46 34.8591 354.318 42.5334C352.328 47.4529 351.251 50.2878 351.251 51.3301C351.251 52.0746 351.557 52.5213 352.169 52.5213C353.241 52.5213 356.154 49.99 356.919 48.9419C357.225 48.793 357.531 48.793 357.837 49.0908L358.602 49.6864C358.908 49.8353 358.908 50.1331 358.602 50.5798C357.684 51.7711 352.322 56.9884 345.89 56.9884C344.206 56.9884 343.288 56.095 343.288 54.7549C343.288 53.4147 345.43 48.3463 347.885 41.7888C349.032 38.6561 351.181 32.9921 351.181 32.0987C351.181 30.9075 350.492 30.3118 349.421 30.3118C347.126 30.3118 340.687 36.2737 337.473 41.3421C335.943 43.7246 334.56 45.9638 333.336 48.9419L330.887 55.7972H330.876Z" fill="#FF4D00"/>
</svg>
