<svg width="105" height="63" viewBox="0 0 105 63" fill="none" xmlns="http://www.w3.org/2000/svg">
<path d="M70.3596 10.4288C70.3596 7.89953 72.5471 5.08042 72.5471 2.55116C70.7712 3.03921 68.7777 4.4824 68.7777 5.1857C68.7777 9.53533 68.1139 16.8401 68.1139 21.2069C68.1139 22.228 69.2268 25.4889 69.9151 26.3081C70.5315 27.0418 72.6269 27.4362 73.6076 27.4854C74.9249 27.5514 76.4675 28.0228 76.4675 28.0228H79.5686C80.6023 28.3509 81.7273 28.142 82.6697 28.2801C83.3672 28.3822 83.8806 28.2801 84.6004 28.2801C85.2357 28.2801 86.7871 28.5737 87.2523 28.928C87.3353 28.9913 88.0858 29.1377 88.2029 29.1377C88.5709 29.1377 88.7285 29.3658 89.2166 29.4567C89.9287 29.5893 90.5815 29.8478 90.9394 30.1129C91.859 30.2918 94.7975 31.017 94.7975 31.017C94.7975 31.017 97.4501 31.2504 99.3199 33.0309C100.572 34.2234 100.712 35.7837 101.251 37.4386C101.792 39.0967 102.062 40.8738 102.062 42.6033C102.062 43.9738 102.279 45.5158 101.972 46.8628C101.804 47.5975 101.558 48.4676 101.522 49.2164C101.505 49.5621 101.3 50.8319 101.043 51.0767C100.213 51.8672 97.808 51.065 96.6582 51.065C95.7542 51.065 94.1639 51.4058 93.7362 50.5505C92.9445 48.9674 92.773 48.0778 91.2544 46.0528C89.6719 44.5146 87.9702 44.024 85.9406 43.6039C83.7605 43.1526 81.8168 43.9093 79.6793 44.5145C77.6704 45.0832 77.6516 45.7949 76.5782 47.4674C76.2054 48.0483 75.8421 48.7713 75.6834 49.436C75.4846 50.2691 75.5214 50.6489 75.005 51.3128C74.5374 51.9138 74.1079 52.1323 73.3538 52.1323C70.1203 52.1323 65.7083 52.4372 62.474 52.4372C59.8137 52.4372 57.1555 52.39 54.5084 52.1323C53.7463 52.058 53.0451 51.9195 52.3069 51.732C51.7114 51.5808 51.1071 51.1074 50.5056 51.065C49.8591 51.0194 49.22 50.7678 48.6243 50.5409C47.4808 50.1054 47.1548 49.8545 46.5828 48.8257C46.121 47.995 45.5987 47.4978 44.9081 46.8403L44.8777 46.8113C44.1025 46.0731 43.3511 45.7778 42.4657 45.1708C41.5514 44.5439 41.1182 44.5609 40.0537 44.4079C38.9713 44.2523 37.6534 44.242 36.5557 44.4079C32.5194 45.018 31.2064 48.4928 29.7166 52.1037C29.2029 53.3489 24.4017 52.8196 23.1698 52.9899C21.5544 53.2132 19.5681 52.4286 18.0326 52.1037C17.4394 51.9781 15.5976 50.7899 15.5108 50.0924C15.2174 47.7325 14.5577 47.9368 15.5892 45.8269C16.5183 43.9265 17.0592 42.6513 17.4222 40.5772C17.5593 39.7938 18.2845 36.1187 18.2928 35.3275C18.3082 33.8572 19.0349 31.5513 19.0349 30.0778C19.0349 24.4628 19.3795 19.6001 19.3795 13.9975C19.3795 10.7908 20.6329 9.49801 20.6329 6.2955C20.6329 5.15993 25.1249 5.7037 26.0176 5.62742C29.1819 5.35701 32.3887 4.89059 35.5743 5.04615C36.8908 5.11044 37.5632 5.08355 38.8774 5.1857C41.6349 5.40005 44.4775 5.75744 47.2433 5.75744C50.4408 5.75744 52.0309 4.19684 55.2148 4.44949C55.9591 4.50855 58.2931 4.13439 58.9816 3.91587C59.6919 3.6904 60.6852 3.63276 61.4171 3.50127C62.1217 3.37469 62.7558 3.17316 63.3347 3.03921C64.1737 2.84505 67.2748 2.87927 68.3085 2.55116C69.3422 2.22305 72.4434 1.98567 73.4771 1.65756C74.5108 1.00135 72.6791 0.409424 71.2532 0.409424C68.3574 0.409424 67.6259 1.00122 64.7457 1.26243C61.2194 1.58222 57.7797 2.12956 54.2082 2.12956C45.2485 2.12956 36.2803 2.30108 27.3092 2.30108C24.4909 2.30108 22.8001 2.86769 19.984 2.86769C19.7849 2.86769 19.0349 2.86769 18.2928 3.03921C17.7624 4.02353 17.7624 4.44949 17.7624 5.04615V7.09853C17.7624 8.68038 18.2452 10.2301 18.2928 11.8154C18.3428 13.4806 18.3017 15.1419 18.1227 16.799V22.2032C18.1227 23.2998 17.7624 24.7243 17.7624 25.8134C17.7624 26.6045 17.5184 27.4441 17.3622 28.2146C16.7863 31.0544 16.5015 33.8673 16.5015 36.7621C16.5015 37.5172 16.4904 38.1866 16.3114 38.9252C15.5995 41.8628 14.9454 44.7937 14.1599 47.7108C13.8018 49.0405 12.4744 51.8613 13.6595 52.9899C14.3068 53.6062 14.6885 54.1307 15.5108 54.4192C17.4357 55.0945 19.7501 54.5573 21.7653 54.4954C23.7991 54.433 25.8213 54.3239 27.8696 54.3239C28.9592 54.3239 30.3191 54.5602 30.7503 53.7016C31.8589 51.4945 32.8178 48.8257 35.5743 47.2782C36.9526 46.4832 38.148 46.305 39.3646 46.4832C40.4416 46.641 41.8286 47.0002 42.8103 47.4676C43.9397 48.0053 44.7467 49.6123 45.5052 50.5409C45.9555 51.0922 46.0308 52.0204 46.256 52.7173C46.6817 54.0348 46.9451 56.6545 46.256 57.8917C45.7713 58.4456 45.4981 59.085 44.8777 59.5849C44.5899 59.8167 43.5685 60.4002 43.1755 60.4314C41.214 60.5871 39.863 61.0058 37.9863 60.4314C36.449 59.9609 35.5021 59.7676 34.5406 58.6232C34.4165 58.4754 33.8615 56.8213 33.8515 56.6545C33.8039 55.8626 33.8515 55.1525 33.8515 54.3578C33.8515 53.751 34.5762 52.1061 33.9475 51.7071C33.0346 51.1275 32.2928 54.0896 32.2106 54.333C31.8553 55.3856 32.1656 56.8916 32.3999 57.9701C32.6312 59.0347 33.3936 60.3203 34.3509 60.8547C34.9892 61.211 35.9305 61.1973 36.5557 61.5761C37.0603 61.8819 38.8318 61.9392 39.3646 62.2324C40.7429 62.5605 42.5366 62.4816 43.844 61.5761C44.9099 60.838 45.6856 60.4712 46.6165 59.5849C47.1433 59.0833 47.7098 58.6026 47.9171 57.8917C48.2557 56.731 48.0982 55.4471 48.0982 54.2546C48.0982 53.8336 48.0826 53.4946 48.6251 53.7294C49.3091 54.0255 50.3925 54.0833 51.1276 54.2232C53.0389 54.5872 55.0009 54.6321 56.9311 54.866C60.0729 55.2468 63.2971 55.1182 66.439 54.819C68.7491 54.599 71.0448 54.8572 73.3538 54.5054C74.5731 54.3197 76.8723 53.47 77.4698 52.389C77.9865 51.4541 77.442 50.0009 77.8629 49.099C78.2256 48.3219 80.0081 46.3679 80.9641 46.0528C81.9358 45.7325 83.3823 45.3747 84.4098 45.4898C85.707 45.6351 88.9283 46.1454 90.0164 46.8628C91.6088 48.9488 92.0839 52.3892 91.2544 55.014C90.908 55.6738 90.2149 57.1218 89.6719 57.6389C88.6267 58.6341 86.7671 59.3027 85.0679 59.3027C82.2866 59.3027 80.5811 57.9925 78.9845 56.0575C78.6075 55.6006 76.9923 54.5429 76.9923 55.9164C76.9923 56.7045 78.0317 57.6518 78.4741 58.2836C80.8382 61.6604 85.4367 61.3856 89.0768 60.0708C91.5109 59.1917 93.2577 56.5429 93.5797 54.09C93.6456 53.5877 94.4835 54.028 94.9215 54.0743C95.8683 54.1745 96.8219 54.2165 97.7697 54.333C99.3975 54.533 99.8231 54.6859 101.387 54.333C102.951 53.9801 103.393 53.2606 103.799 52.3892C104.719 50.4194 104.236 50.1848 104.413 48.0778C104.723 44.3856 105.779 39.9099 103.96 36.4453C103.038 34.6897 101.772 32.874 100.544 31.2953C99.406 29.8325 95.9747 29.8398 95.9747 29.8398C95.9747 29.8398 94.256 29.8183 93.463 29.2005C92.4657 28.4235 90.4851 27.4928 90.195 26.2219C89.6553 23.8581 89.3438 21.4186 89.0507 19.0182C88.6549 15.7771 88.2965 16.6991 86.647 13.7671C85.1618 11.1271 82.5684 10.6656 79.8639 9.74589C78.3485 9.23054 77.4434 8.77377 75.7397 9.158C74.9995 9.32492 73.8216 9.43089 73.8216 10.2632C73.8216 10.4506 73.688 10.2874 73.8216 10.4288C74.0235 10.6424 74.3805 11.0137 74.7107 11.0245C76.5886 11.0862 78.3996 11.7892 80.2785 11.7892C80.5429 11.7892 81.2068 12.0779 82.2405 12.1816C83.9092 12.3489 84.9873 14.1595 84.9873 14.1595L86.1495 16.1539L87.2523 18.0676L87.7191 20.0297C87.9934 20.5811 88.1266 22.3841 88.1266 22.3841C88.2763 22.7914 88.1706 24.3228 88.2029 24.7385C88.2639 25.5226 88.5274 26.3081 88.5274 26.3081C88.9837 27.4378 86.6342 26.351 85.8238 26.3081C84.7224 26.2498 82.5022 26.6956 81.4557 26.3081C81.4557 26.3081 78.9631 25.5233 77.1392 25.5233C76.1624 25.5233 74.3924 25.1309 74.3924 25.1309C73.9891 25.2305 72.4304 24.7561 71.6456 24.0505C70.8608 23.5613 70.3596 22.0586 70.3596 21.7087C70.3596 20.7663 70.3988 19.9242 70.1374 19.0279C69.841 18.012 70.0962 16.7587 70.055 15.72C70.0216 14.8766 70.3596 11.2759 70.3596 10.4288Z" fill="#FF4D00"/>
<path d="M36.892 54.5822C36.8376 52.6814 37.5684 50.3625 39.769 50.3625C43.7573 50.3625 44.7351 57.2429 40.76 57.6404C39.1768 57.7987 36.9413 56.3091 36.892 54.5822Z" fill="#FF4D00"/>
<path d="M82.243 52.5025C82.1887 50.6017 82.9194 48.2828 85.1201 48.2828C89.1084 48.2828 90.0862 55.1632 86.1111 55.5607C84.5279 55.719 82.2924 54.2294 82.243 52.5025Z" fill="#FF4D00"/>
<path d="M13.0174 16.3926C23.1564 16.3926 32.969 16.8232 43.0699 16.8835C44.4698 16.8918 46.9416 16.9383 47.0238 18.3358C47.0481 18.7481 47.2387 21.1199 46.8439 21.2327C45.7426 21.5473 44.7557 22.4652 43.4613 22.7981C42.0495 23.1611 40.8936 23.1939 39.4129 23.1939C35.3412 23.1939 30.8809 23.4779 26.9438 22.3842C23.0951 21.3151 18.6044 21.2507 14.6187 21.2507C11.8116 21.2507 8.94273 20.9268 6.2161 20.9268C5.18462 20.9268 -0.394384 19.9596 1.10613 18.0839C1.73277 17.3006 3.35975 16.8082 4.27287 16.5545C6.90223 15.8242 10.3005 16.3926 13.0174 16.3926Z" fill="#FF4D00"/>
<path d="M14.745 25.6642C21.2765 25.6642 27.5981 25.9513 34.1047 25.9921C35.0195 25.9978 36.626 26.0496 36.6779 26.963C36.6935 27.2385 36.8164 28.8238 36.5618 28.8992C35.8515 29.1095 35.215 29.723 34.3801 29.9454C33.4696 30.1881 32.7241 30.21 31.7691 30.21C29.143 30.21 26.2663 30.3998 23.727 29.6688C21.2447 28.9543 18.3484 28.9112 15.7778 28.9112C13.9673 28.9112 12.1169 28.6947 10.3584 28.6947C9.6931 28.6947 6.09485 28.0482 7.06263 26.7946C7.46678 26.2711 8.51612 25.9419 9.10506 25.7724C10.8009 25.2842 12.9927 25.6642 14.745 25.6642Z" fill="#FF4D00"/>
<path d="M13.0517 32.7275C20.8258 32.7275 28.3488 33.0176 36.0954 33.0561C37.1183 33.0611 38.9563 33.0057 39.0249 34.0263C39.0434 34.3019 39.189 35.8871 38.8875 35.9625C38.0463 36.1728 37.2925 36.7863 36.3039 37.0088C35.2256 37.2514 34.3428 37.2734 33.2118 37.2734C30.102 37.2734 26.6954 37.4631 23.6883 36.7322C20.7488 36.0176 17.3189 35.9745 14.2748 35.9745C12.1308 35.9745 9.93958 35.7581 7.85705 35.7581C7.06923 35.7581 2.80815 35.1116 3.9542 33.858C4.43281 33.3344 5.67545 33.0053 6.37287 32.8357C8.3811 32.3476 10.9766 32.7275 13.0517 32.7275Z" fill="#FF4D00"/>
</svg>
