<svg width="54" height="27" viewBox="0 0 54 27" fill="none" xmlns="http://www.w3.org/2000/svg">
<g clip-path="url(#clip0_537_2936)">
<path d="M32.7225 3.16675C30.1873 3.16675 27.876 4.15925 26.1251 5.78919C24.3742 4.15925 22.0629 3.16675 19.5277 3.16675C14.0627 3.16675 9.63184 7.7742 9.63184 13.4584C9.63184 19.1426 14.0627 23.7501 19.5277 23.7501C22.0629 23.7501 24.3735 22.7576 26.1251 21.1276C27.876 22.7576 30.1873 23.7501 32.7225 23.7501C38.1881 23.7501 42.6184 19.1426 42.6184 13.4584C42.6184 7.7742 38.1881 3.16675 32.7225 3.16675ZM13.7145 15.9207L14.286 12.1842L12.9797 15.9207H12.245V12.1842L11.5918 15.9207H10.6121L11.4285 10.9955H12.8981V14.0528L13.9594 10.9955H15.5106L14.6942 15.9207H13.7139H13.7145ZM18.287 14.9018C18.2326 15.2414 18.1769 15.4962 18.1237 15.666V15.9207H17.3073V15.4962C17.089 15.8358 16.7358 16.0056 16.246 16.0056C15.9726 16.0056 15.7561 15.9207 15.5928 15.7509C15.4296 15.5251 15.3479 15.2414 15.3479 14.9018C15.3479 14.3924 15.4827 14.0245 15.7561 13.798C16.1359 13.515 16.5997 13.3735 17.144 13.3735H17.5522V13.1188C17.5522 12.893 17.3339 12.7792 16.8991 12.7792C16.6257 12.7792 16.2732 12.8358 15.8378 12.949C15.891 12.7232 15.946 12.4395 16.001 12.0999C16.4358 11.9301 16.8174 11.8452 17.144 11.8452C18.0693 11.8452 18.5319 12.2414 18.5319 13.0339C18.5319 13.2609 18.5034 13.5157 18.4503 13.798C18.3952 14.1943 18.3396 14.5622 18.287 14.9018ZM21.226 12.8641C21.0628 12.8088 20.8178 12.7792 20.4913 12.7792C20.1647 12.7792 20.0014 12.893 20.0014 13.1188C20.0014 13.2326 20.0286 13.3182 20.0831 13.3735L20.4096 13.5433C20.8995 13.8276 21.1444 14.1943 21.1444 14.6471C21.1444 15.5534 20.6261 16.0056 19.5932 16.0056C19.1034 16.0056 18.7484 15.9773 18.5319 15.9207C18.5851 15.6949 18.6401 15.383 18.6952 14.9867C19.13 15.1006 19.4299 15.1565 19.5932 15.1565C19.973 15.1565 20.1647 15.044 20.1647 14.8169C20.1647 14.7043 20.1363 14.6188 20.0831 14.5622C19.973 14.4496 19.8382 14.3641 19.6749 14.3075C19.185 14.0817 18.9401 13.7131 18.9401 13.2037C18.9401 12.2987 19.4299 11.8452 20.4096 11.8452C20.8995 11.8452 21.226 11.8741 21.3893 11.9301L21.2254 12.8634L21.226 12.8641ZM23.3493 12.949H22.7778C22.7778 13.2333 22.7494 13.488 22.6962 13.7131C22.6962 13.7697 22.6826 13.8829 22.6554 14.0528C22.6269 14.2226 22.5861 14.3371 22.5329 14.3924V14.732C22.5329 14.9591 22.6411 15.0716 22.8595 15.0716C22.9677 15.0716 23.0759 15.0433 23.186 14.9867L23.0228 15.9207C22.8595 15.9773 22.6145 16.0056 22.288 16.0056C21.7431 16.0056 21.4716 15.7226 21.4716 15.1565C21.4716 14.8169 21.5248 14.4496 21.6349 14.0528L22.0431 11.3351H23.0228L22.9411 11.9295H23.431L23.3493 12.949ZM26.5333 14.3075H24.4923C24.4923 14.5918 24.5455 14.7893 24.6556 14.9018C24.8188 15.0716 25.0638 15.1565 25.3903 15.1565C25.7169 15.1565 26.0707 15.044 26.4517 14.8169L26.2884 15.8358C26.015 15.9496 25.6625 16.0056 25.2271 16.0056C24.0841 16.0056 23.5126 15.4113 23.5126 14.2219C23.5126 13.4874 23.6759 12.92 24.0024 12.5238C24.329 12.0716 24.7372 11.8446 25.2271 11.8446C25.6618 11.8446 26.015 11.9861 26.2884 12.2691C26.5049 12.4961 26.6149 12.8358 26.6149 13.288C26.6156 13.6848 26.5865 14.0245 26.5333 14.3075ZM28.1661 13.5433C28.0028 14.1673 27.8668 14.9591 27.7579 15.9213H26.6966L26.7782 15.6666C26.9947 14.0823 27.158 12.8364 27.2681 11.9301H28.2478L28.1661 12.5244C28.3294 12.2414 28.4927 12.0723 28.656 12.015C28.8192 11.8452 28.9825 11.8169 29.1458 11.9301C29.0914 11.9867 28.9541 12.3842 28.7376 13.1188C28.5193 13.0635 28.3294 13.2037 28.1661 13.5433ZM31.8406 15.8364C31.6222 15.9503 31.3223 16.0062 30.9425 16.0062C30.3976 16.0062 29.9628 15.8081 29.6363 15.4119C29.3097 15.0723 29.1464 14.5628 29.1464 13.8836C29.1464 13.0345 29.3629 12.327 29.7995 11.7609C30.1793 11.1955 30.7248 10.9119 31.4324 10.9119C31.7045 10.9119 32.0855 10.9968 32.5753 11.1666L32.412 12.1855C32.0855 12.0157 31.7861 11.9307 31.514 11.9307C31.0767 11.9307 30.7502 12.1006 30.5343 12.4402C30.316 12.7245 30.2077 13.176 30.2077 13.7987C30.2077 14.1949 30.2894 14.4779 30.4527 14.6477C30.616 14.8748 30.8324 14.9874 31.1058 14.9874C31.3779 14.9874 31.6773 14.9025 32.0038 14.7327L31.8406 15.8364ZM35.4736 13.3735C35.4451 13.5433 35.4327 13.6848 35.4327 13.798C35.3783 14.0823 35.3227 14.4638 35.2695 14.9443C35.215 15.4261 35.1594 15.7509 35.1062 15.9207H34.2898V15.4962C34.0715 15.8358 33.7183 16.0056 33.2285 16.0056C32.9551 16.0056 32.7386 15.9207 32.5753 15.7509C32.412 15.5251 32.3304 15.2414 32.3304 14.9018C32.3304 14.3924 32.4652 14.0245 32.7386 13.798C33.1184 13.515 33.555 13.3735 34.0449 13.3735H34.4531C34.5062 13.3182 34.5347 13.2333 34.5347 13.1188C34.5347 12.893 34.3164 12.7792 33.8816 12.7792C33.6082 12.7792 33.2557 12.8358 32.8202 12.949C32.8202 12.7232 32.8734 12.4395 32.9835 12.0999C33.4183 11.9301 33.7999 11.8452 34.1265 11.8452C35.0518 11.8452 35.515 12.2414 35.515 13.0339C35.5156 13.0911 35.502 13.2037 35.4748 13.3742L35.4736 13.3735ZM37.0662 13.5433C36.9561 13.8829 36.8213 14.6767 36.658 15.9213H35.5966L35.6783 15.6666C35.8948 14.422 36.058 13.176 36.1681 11.9301H37.1478C37.1478 12.1572 37.1194 12.3546 37.0662 12.5244C37.2295 12.2414 37.3927 12.0723 37.556 12.015C37.7725 11.9024 37.9358 11.8748 38.0459 11.9301C37.8275 12.2144 37.6909 12.6094 37.6377 13.1188C37.4193 13.0635 37.2301 13.2037 37.0662 13.5433ZM39.842 15.9207L39.9236 15.5811C39.7053 15.8654 39.4053 16.0056 39.0256 16.0056C38.5883 16.0056 38.2908 15.8654 38.1275 15.5811C37.8541 15.1861 37.7193 14.7886 37.7193 14.3924C37.7193 13.6578 37.9098 13.0628 38.2908 12.6087C38.5629 12.1565 38.9439 11.9295 39.4338 11.9295C39.7603 11.9295 40.0869 12.0993 40.4134 12.4389L40.5767 10.9955H41.6381L40.8216 15.9207H39.8413H39.842ZM16.3276 14.732C16.3276 15.0163 16.4358 15.1565 16.6542 15.1565C16.8706 15.1565 17.0339 15.0716 17.144 14.9018C17.3073 14.732 17.3889 14.4773 17.3889 14.1377H17.1434C16.5985 14.1377 16.3276 14.3371 16.3276 14.732ZM25.5536 12.8641C25.4992 12.8641 25.4435 12.8364 25.3903 12.7792H25.2271C24.9005 12.7792 24.6822 13.0062 24.5739 13.4584H25.7169V13.2037L25.6353 13.0339C25.6346 12.9786 25.6068 12.9213 25.5536 12.8641ZM33.3101 14.732C33.3101 15.0163 33.4183 15.1565 33.6367 15.1565C33.8531 15.1565 34.0164 15.0716 34.1265 14.9018C34.2898 14.732 34.3714 14.4773 34.3714 14.1377H34.1265C33.5816 14.1377 33.3101 14.3371 33.3101 14.732ZM39.597 12.8641C39.3787 12.8641 39.1888 13.0056 39.0256 13.2886C38.9155 13.4584 38.8623 13.7704 38.8623 14.2226C38.8623 14.732 39.0256 14.9867 39.3521 14.9867C39.5686 14.9867 39.7603 14.8742 39.9236 14.6471C40.0869 14.4213 40.1685 14.0817 40.1685 13.6282C40.1679 13.1188 39.9762 12.8641 39.5964 12.8641H39.597Z" fill="#FF4D00"/>
</g>
<rect x="0.5" y="0.5" width="52.0417" height="25.125" rx="2.5" stroke="#FF4D00"/>
<defs>
<clipPath id="clip0_537_2936">
<rect width="39.5833" height="20.5833" fill="white" transform="translate(6.33337 3.16675)"/>
</clipPath>
</defs>
</svg>
