<svg width="216" height="121" viewBox="0 0 216 121" fill="none" xmlns="http://www.w3.org/2000/svg">
<path d="M77.0623 33.4544C78.3616 30.1232 78.2597 27.649 75.262 27.649H72.0604C71.6613 27.649 71.5594 27.366 71.6613 26.8889L72.2642 24.6978C72.3661 24.4148 72.5615 24.2207 73.0625 24.2207H88.4501C89.3503 24.2207 89.5456 24.7948 89.2484 25.6518L69.0627 77.6017C68.0606 80.0759 67.0671 83.3101 69.0627 83.3101C71.0583 83.3101 75.0581 79.6958 76.2555 78.3617C76.6546 78.1677 76.8585 78.1677 77.2576 78.5558L78.4549 79.5099C78.6588 79.8899 78.8541 80.084 78.4549 80.6499C78.0558 81.2159 69.4619 89.4066 60.6641 89.4066C58.8637 89.4066 57.2672 87.8865 57.2672 85.9783C57.2672 84.4582 59.4667 79.1299 60.4687 76.4616L77.0538 33.4544H77.0623Z" fill="#FF4D00"/>
<path d="M120.83 50.3936C121.034 49.8195 121.629 49.8195 122.232 49.8195H129.025C130.027 49.8195 130.223 50.1996 130.027 50.9596L123.03 70.3731C120.236 77.9816 119.03 81.7899 119.03 82.364C119.03 83.3181 119.429 83.5041 120.032 83.5041C121.433 83.5041 125.229 79.8898 126.631 78.1757C126.834 77.7956 127.233 77.7956 127.633 78.0786L128.83 78.9357C129.034 79.1298 129.034 79.5098 128.83 79.8898C127.828 81.4099 120.635 89.4065 112.245 89.4065C110.249 89.4065 109.043 88.2665 109.043 86.5523C109.043 85.2182 113.442 74.3754 114.538 71.6102L113.841 71.2302C109.842 76.6556 100.254 89.4065 90.4542 89.4065C88.0595 89.4065 85.86 86.9323 85.86 85.0322C85.86 81.418 88.2548 76.4696 92.3565 67.81C95.1504 61.9075 96.6535 57.4362 96.6535 56.1101C96.6535 55.156 95.8552 54.59 94.8531 54.59C93.2566 54.59 89.4607 57.8243 87.6604 59.7244C87.4565 60.1044 86.8621 60.1044 86.5649 59.7244L85.4694 58.7703C85.2656 58.5762 85.2656 58.3903 85.4694 58.0102C87.0659 56.2961 93.5624 48.8735 102.054 48.8735C104.848 48.8735 106.25 50.9677 106.25 52.8678C106.25 55.1479 104.347 60.1933 100.551 68.756C98.0547 74.3674 95.8552 79.5098 95.8552 81.4099C95.8552 82.364 96.6535 82.93 97.4518 82.93C100.849 82.93 110.64 71.6991 113.239 67.7048C115.039 65.0447 116.533 62.5705 117.833 58.9482L120.83 50.3855V50.3936Z" fill="#FF4D00"/>
<path d="M165.601 24.2288C166.603 24.2288 166.798 24.9888 166.399 25.8459L150.213 60.2904L151.011 60.4845C155.606 54.396 162 48.8736 169.201 48.8736C173.999 48.8736 176.598 52.6819 176.598 56.5792C176.598 61.4305 173.999 70.7532 164.607 79.8899C159.215 85.2183 152.812 89.4066 141.619 89.4066C137.025 89.4066 133.628 86.9324 133.628 82.7441C133.628 81.0299 134.426 78.5557 135.029 77.0357C141.628 61.2445 148.217 46.0194 154.417 31.4573C154.816 30.4142 155.02 29.7431 155.02 29.1771C155.02 28.223 154.018 27.657 152.625 27.657H149.627C149.024 27.657 148.625 27.463 148.829 26.897L149.432 24.9969C149.636 24.4228 149.831 24.2368 150.434 24.2368H165.626L165.601 24.2288ZM149.814 66.3789C146.213 71.5132 143.02 79.5098 143.02 82.3641C143.02 84.6442 144.218 85.5983 146.621 85.5983C149.415 85.5983 153.415 83.1241 156.913 79.6069C163.206 73.0414 166.807 65.4329 166.807 58.8674C166.807 56.1102 165.405 54.582 163.809 54.582C160.811 54.582 154.816 59.3363 149.822 66.3789H149.814Z" fill="#FF4D00"/>
<path d="M0.0474941 84.7168C0.973131 58.1637 8.13197 33.5351 25.2775 12.0921C29.7953 6.44032 35.2896 1.63749 42.941 0.36805C53.7854 -1.43503 64.3241 7.44293 65.4535 19.0862C65.6998 21.6089 65.5809 24.2043 65.2243 26.7189C64.8931 29.0557 63.2456 30.6243 60.647 30.7617C57.9295 30.9073 56.6048 29.2497 55.8914 26.9777C55.28 25.0048 55.2715 23.0238 55.5518 20.9863C55.815 19.1266 56.0698 17.2346 55.9594 15.3749C55.6791 10.7257 52.7748 7.60464 48.5798 5.80964C44.6564 4.13593 41.1492 5.75304 38.0835 8.26766C32.4618 12.8845 29.2178 19.1185 26.271 25.3121C16.8958 44.9923 12.2761 65.8612 10.5862 87.3203C10.0766 93.7726 10.9598 100.249 13.8641 106.241C17.9658 114.706 27.6383 116.687 35.3576 111.003C42.0154 106.103 46.2869 99.8772 48.1297 92.0989C48.2825 91.444 48.4354 90.781 48.6477 90.1422C49.1402 88.6221 49.9724 87.3042 51.8747 87.5467C54.0571 87.8216 54.2694 89.56 54.3034 91.2257C54.3204 91.8806 54.1591 92.5679 53.9637 93.2066C51.3057 101.802 46.6436 109.273 39.3828 114.989C25.0057 126.309 8.05555 121.11 2.72252 103.847C0.80331 97.6294 -0.241237 91.2499 0.0474941 84.7006V84.7168Z" fill="#FF4D00"/>
<path d="M215.568 6.93367C215.067 11.1867 213.343 15.1971 211.925 19.2642C206.966 33.5595 201.836 47.8063 196.767 62.0611C196.452 62.9425 196.07 63.8238 195.595 64.6404C195.255 65.2226 194.703 65.732 193.879 65.4894C193.047 65.2388 192.971 64.5191 192.988 63.848C193.005 63.3144 193.149 62.7888 193.251 62.2633C196.809 44.2971 200.359 26.331 203.942 8.3729C204.206 7.06303 204.596 5.72891 205.225 4.55651C206.456 2.26829 208.35 0.513718 211.271 1.06354C214.43 1.66187 215.237 4.17648 215.56 6.94175L215.568 6.93367Z" fill="#FF4D00"/>
<path d="M182.687 83.8356C182.772 79.9141 185.472 76.8012 188.784 76.8335C191.977 76.8658 194.839 80.3588 194.669 84.0297C194.491 87.9107 191.663 91.1288 188.504 91.0479C185.15 90.959 182.602 87.7975 182.687 83.8437V83.8356Z" fill="#FF4D00"/>
</svg>
