<svg width="338" height="163" viewBox="0 0 338 163" fill="none" xmlns="http://www.w3.org/2000/svg">
<path d="M52.566 79.2941C49.9674 87.8567 31.3782 149.808 26.9793 154.943C22.9796 159.511 17.7824 162.931 10.3943 162.931C2.40326 162.931 0 158.557 0 155.889C0 152.84 1.80032 149.986 5.39247 149.986C8.39018 149.986 9.98669 152.46 9.98669 154.361C9.98669 155.315 9.78288 156.261 9.58756 157.021C9.38375 157.401 9.38375 157.781 9.38375 158.161C9.58756 158.921 10.3858 159.301 12.3815 159.301C17.3748 159.301 20.5763 152.452 23.7778 141.982L61.6525 15.1269C62.748 11.5127 62.748 8.56145 58.3576 8.56145H55.1561C54.5531 8.56145 54.0606 8.3674 54.154 7.80141L54.7569 5.52127C54.7569 4.9472 55.1561 4.76123 55.759 4.76123C56.5573 4.76123 61.1515 5.04423 70.1531 5.04423C77.9488 5.04423 81.9486 4.76123 82.9422 4.76123C83.5451 4.76123 83.8423 5.14125 83.7404 5.71533L83.3413 7.80949C83.3413 8.38357 83.1375 8.56954 82.3392 8.56954H79.7406C77.1421 8.56954 74.7473 9.7096 72.7432 16.0891L52.5575 79.3102L52.566 79.2941Z" fill="#FF4D00"/>
<path d="M63.8604 78.2508C63.8604 70.2622 66.6543 62.6456 72.2506 56.8401C76.2504 52.6518 81.0484 50.7517 86.4409 50.7517C92.241 50.7517 98.8308 54.18 98.8308 62.7426C98.8308 68.8311 96.2322 78.7278 90.2368 85.0103C86.4409 89.1986 81.8466 91.2928 75.8427 91.2928C69.8388 91.2928 63.8519 87.0074 63.8519 78.2588L63.8604 78.2508ZM85.8464 77.2967C89.5405 71.3052 92.6401 63.4056 92.6401 59.9774C92.6401 57.8832 91.2389 55.692 88.3431 55.692C84.2499 55.692 80.4455 59.0233 75.554 66.8258C72.2591 72.1542 70.255 77.8626 70.255 81.6709C70.255 84.2422 72.2506 86.1423 74.45 86.1423C78.3479 86.1423 81.9486 83.4821 85.8464 77.2967Z" fill="#FF4D00"/>
<path d="M118.422 78.154C117.021 81.7683 116.622 83.2884 116.622 84.2425C116.622 85.0025 117.021 85.5766 117.819 85.5766C119.815 85.3825 125.012 80.2482 125.615 79.4882C125.819 79.1081 126.218 79.1081 126.515 79.3911L127.611 80.4342C128.01 80.8142 128.213 81.0083 127.814 81.3883C127.211 82.1483 120.222 91.285 109.327 91.285C107.23 91.285 106.431 90.145 106.431 88.6249C106.431 86.7248 108.028 82.2534 112.028 71.6856L114.821 64.263C115.824 61.6918 116.418 59.8887 116.418 58.7406C116.418 57.9805 116.019 57.6005 115.221 57.6005C113.624 57.6005 109.021 62.5489 107.629 64.069C107.23 64.449 106.83 64.449 106.431 64.069L105.429 63.2119C105.03 62.9289 104.826 62.7348 105.03 62.3548C105.633 61.7808 114.626 50.7439 123.415 50.7439C125.81 50.7439 127.016 51.884 127.016 53.7922C127.016 55.7004 125.717 59.2176 124.018 63.6889L118.422 78.154ZM120.12 34.1038C120.12 31.5326 122.617 28.9695 125.717 28.9695C129.717 28.9695 131.814 31.3466 131.814 33.7238C131.814 35.915 129.513 39.2462 125.921 39.2462C121.921 39.2462 120.12 36.4891 120.12 34.1119V34.1038Z" fill="#FF4D00"/>
<path d="M143.007 89.7648C142.803 90.1448 142.608 90.3389 141.605 90.3389H135.211C134.311 90.3389 134.209 89.6759 134.413 89.1018L141.206 71.4995C143.406 65.411 145.801 59.5086 145.801 58.1825C145.801 57.2284 145.198 56.6624 144.297 56.6624C142.497 56.6624 138.599 60.0907 137.003 61.6108C136.799 61.9908 136.4 61.9908 136.103 61.7079L135.007 60.6648C134.608 60.4708 134.404 60.0907 134.803 59.7107C136.204 57.9966 142.794 50.7681 151.889 50.7681C154.785 50.7681 155.685 52.6682 155.685 54.0023C155.685 56.0965 152.79 62.5649 150.989 66.7533L151.592 67.1333C154.59 62.759 163.787 50.7681 173.281 50.7681C176.975 50.7681 178.979 53.4282 178.979 56.0965C178.979 58.5706 177.68 63.042 173.587 72.8417C170.988 79.1242 169.587 82.7384 169.587 84.0726C169.587 85.0267 169.986 85.5926 170.784 85.5926C172.185 85.5926 175.981 82.3584 176.983 81.0243C177.383 80.8302 177.782 80.8302 178.181 81.2183L179.183 81.9784C179.582 82.1724 179.582 82.5525 179.183 83.1185C177.986 84.6385 170.988 91.3011 162.598 91.3011C160.398 91.3011 159.201 90.161 159.201 88.4469C159.201 86.7327 161.995 80.2642 165.196 71.8876C166.7 67.8933 169.493 60.6567 169.493 59.5167C169.493 57.9966 168.593 57.2365 167.192 57.2365C164.194 57.2365 155.796 64.8451 151.601 71.3216C149.605 74.3699 147.805 77.2241 146.208 81.0243L143.007 89.781V89.7648Z" fill="#FF4D00"/>
<path d="M330.776 78.8989C331.277 79.1819 331.277 79.376 331.073 79.756C328.874 83.1843 322.08 89.2727 313.282 89.2727C306.684 89.2727 302.693 85.8445 302.693 79.19C302.693 71.7675 306.888 61.6848 315.083 54.6422C319.082 51.2139 324.679 48.7397 330.071 48.7397C334.665 48.7397 337.069 51.594 337.069 54.3511C337.069 59.2025 333.672 63.5768 327.872 66.625C322.479 69.2852 317.078 70.4333 313.282 70.6193C312.883 71.5734 312.28 74.2336 312.28 77.6619C312.28 81.4702 314.879 83.7503 317.673 83.7503C322.267 83.7503 326.267 80.8961 328.466 78.0419C328.67 77.8478 329.069 77.6619 329.264 77.8478L330.768 78.8909L330.776 78.8989ZM314.089 67.5791C315.889 67.5791 320.687 66.4391 324.084 63.9649C326.284 62.2507 328.279 59.3965 328.279 56.7364C328.279 55.0222 327.481 53.3081 325.282 53.3081C320.288 53.3081 315.287 62.4448 314.089 67.5791Z" fill="#FF4D00"/>
<path d="M276.418 0C278.091 2.11034 278.872 4.52792 278.431 7.09105C278.006 9.56524 279.229 10.0342 281.344 9.96952C282.728 9.92909 284.112 9.95334 285.496 9.96952C290.107 10.018 290.744 10.77 289.241 14.837C286.821 21.3864 284.29 27.9033 281.794 34.4284C279.178 41.2607 276.537 48.0768 274.142 55.0385C276.766 52.1843 278.889 48.9986 281.48 46.1444C283.772 43.6217 286.447 41.7539 289.64 40.5249C294.99 38.4712 299.389 40.727 300.824 46.112C301.954 50.3327 301.113 54.4725 300.162 58.5557C297.776 68.8083 294.243 78.608 287.135 86.9119C285.241 89.1273 282.864 90.6393 280.044 91.4479C277.115 92.2888 274.728 91.2134 273.336 88.7715C271.841 86.1356 272.605 83.5644 274.856 81.5996C276.953 79.7723 278.575 81.0579 279.798 82.8044C282.261 86.3135 283.509 86.3944 285.479 82.4163C288.587 76.1257 291.067 69.5845 292.222 62.6632C292.876 58.7741 293.861 54.8849 293.343 50.9149C292.723 46.2091 290.269 45.2307 286.235 48.1254C282.388 50.8906 279.577 54.61 276.512 58.103C269.726 65.8489 266.771 75.3252 263.239 84.5266C262.321 86.9038 261.022 88.0358 258.288 87.8821C255.791 87.7447 255.264 86.8391 256.071 84.6722C259.502 75.4142 262.865 66.1319 266.236 56.8578C270.635 44.7456 275.034 32.6415 279.373 20.5131C280.044 18.6453 281.199 16.4218 278.771 15.0068C276.58 13.7293 274.524 14.5621 272.597 16.1065C269.242 18.799 265.141 19.4377 260.903 19.2922C258.525 19.2032 256.148 18.8798 253.778 18.6049C247.808 17.9015 247.681 17.853 246.076 23.4563C241.049 41.01 236.081 58.5881 231.181 76.1823C229.652 81.6643 230.918 83.1359 236.786 83.4351C238.442 83.5159 240.692 83.0712 240.599 85.6909C240.522 88.0681 238.73 88.4562 236.616 88.4481C228.438 88.4077 220.26 88.4481 212.082 88.4158C210.486 88.4158 208.583 88.6503 208.473 86.3135C208.371 84.0415 209.959 83.338 211.912 83.4836C218.035 83.9283 220.489 80.1038 221.874 75.5031C226.043 61.6929 229.984 47.8262 234.017 33.9756C235.393 29.2455 236.811 24.5236 238.178 19.7935C238.637 18.2087 238.934 16.2763 236.59 16.1712C228.659 15.8073 220.583 13.7617 212.957 17.9662C207.352 21.0548 204.091 27.6365 205.543 33.5713C205.934 35.1803 206.707 35.9485 208.456 35.1642C211.072 33.9918 213.22 34.5901 214.528 36.9673C215.912 39.4819 215.972 42.0854 213.704 44.2685C211.632 46.2657 209.288 46.2252 206.809 44.8911C203.098 42.9021 200.346 35.9727 201.136 30.4665C202.868 18.3623 211.267 10.77 224.005 9.2499C237.626 7.6247 250.781 10.6002 264.071 12.3709C264.945 12.4841 265.803 12.6944 266.678 12.7429C271.646 13.0339 273.089 11.1581 271.578 6.40378C270.177 2.01331 271.595 0.161712 276.461 0.0242567L276.418 0Z" fill="#FF4D00"/>
</svg>
