<svg width="61" height="52" viewBox="0 0 61 52" fill="none" xmlns="http://www.w3.org/2000/svg">
<path d="M33.0181 7.18771C31.9512 7.46207 29.8075 7.96758 28.7012 7.96758C29.2288 7.96758 29.957 7.2398 30.3187 6.84449C30.7279 6.39733 31.3292 6.09187 31.8524 5.87391C32.4064 5.64312 33.0753 5.09745 33.6617 5.09745C34.2559 5.09745 34.9073 5.01851 35.495 5.12518C36.5349 5.31396 37.6826 5.43906 38.7301 5.47182C39.8327 5.5063 41.4191 5.81621 42.3727 6.47012C42.6297 6.64638 43.8524 7.22232 43.475 7.4407C42.9812 7.7264 42.3577 8.34194 41.8035 8.34194C39.6511 8.34194 37.506 7.62371 35.3332 7.46149C34.8619 7.42631 34.0392 6.91051 34.0392 7.60015C34.0392 7.89132 33.8836 8.47041 33.8836 8.76158C33.8836 9.50436 33.76 9.76313 33.76 10.4785C33.3329 11.1924 33.4467 11.4529 32.7391 11.219C32.3355 11.0856 32.8236 10.0477 32.7708 9.62006C32.7263 9.2596 33.5156 7.05978 33.0181 7.18771Z" fill="#535252"/>
<path d="M23.5246 46.8389C23.5246 42.4674 23.4348 38.0754 23.4191 33.6915C23.5777 33.4482 23.3592 31.6586 23.3029 31.3652C23.1878 30.7658 22.9362 30.1672 22.8775 29.5558C22.8018 28.7671 22.3114 28.0127 22.1047 27.2472C21.8581 26.3341 21.5211 25.4182 21.1521 24.5642C20.9255 24.0398 20.5462 23.3972 20.4212 22.8449C20.3293 22.4387 20.0482 21.0662 20.4572 20.7651C21.3056 20.1403 21.6204 21.6446 21.7752 22.1655C22.0294 23.0213 22.107 23.9077 22.3923 24.7514C22.5927 25.3442 22.853 25.8861 23.1159 26.4334L23.1471 26.4984C23.327 26.8732 23.8037 27.1229 23.8481 27.5592C23.8683 27.758 24.3642 27.7235 24.4951 27.6562C25.0967 27.3468 25.7476 26.8833 26.3883 26.6856C28.5915 26.0057 30.5998 24.7169 32.6429 23.5659C33.8738 22.8725 35.0623 22.1252 36.3393 21.5485C37.6865 20.9402 39.0411 20.4783 40.4072 19.9401C43.7079 18.6399 47.1768 17.9078 50.4961 16.6748C51.9786 16.1242 53.505 15.9098 55.0133 15.5171C55.663 15.3479 56.5208 15.3452 57.1102 14.9555C57.3528 14.7951 57.0738 13.9412 57.0622 13.7077C56.9813 12.0684 55.7965 10.1767 55.193 8.84092C54.4592 7.21664 53.7019 5.95015 52.0418 6.40754C50.1873 6.91849 48.4994 7.41983 46.7337 8.34176C45.3066 9.08692 43.9818 10.1438 42.528 10.8167C41.493 11.2958 40.4894 11.8273 39.4666 12.3419C36.8116 13.6777 34.2372 15.0445 31.5046 16.1757C30.1701 16.7281 28.7932 17.1366 27.4666 17.7078L27.3996 17.7367C26.4743 18.1353 25.5565 18.5306 24.573 18.6992C23.9866 18.7997 23.3915 19.1736 22.7937 19.1983C22.3197 19.2179 21.8421 19.1983 21.3678 19.1983C20.8092 19.1983 21.259 18.9022 21.4217 18.5675C21.5756 18.2509 21.8049 17.8793 22.0747 17.7009C22.581 17.3661 23.286 17.1841 23.8481 16.9799C24.7993 16.6343 25.6941 16.1125 26.6279 15.7043C27.087 15.5036 27.529 15.1328 27.9879 14.9694C28.1816 14.9004 28.4427 14.706 28.6469 14.706C28.9345 14.706 29.2672 14.4684 29.5395 14.3593C29.8791 14.2233 30.2167 14.1953 30.558 14.0543C31.7432 13.5645 32.9343 13.247 34.0867 12.647C36.4848 11.3982 38.9833 10.4303 41.4017 9.24301C42.3468 8.77906 43.3309 8.34195 44.2894 7.905C45.151 7.51225 46.071 7.28453 46.9135 6.85124C47.6176 6.4891 48.2386 6.09557 49.0223 6.09557C49.6109 6.09557 50.0244 5.98677 50.568 5.72121C51.3383 5.34482 52.0964 5.06908 52.8086 4.59812C53.3148 4.26343 53.9726 4.54219 54.3663 4.97248C54.8392 5.4893 55.1754 6.32091 55.5944 6.91363C56.2142 7.79021 56.526 9.15298 57.0502 10.1304C57.438 10.8533 57.9467 11.4369 58.3563 12.1478C58.8082 12.9322 58.9651 13.7371 59.3208 14.5604C59.5067 14.9906 59.6275 15.3539 59.6503 15.8291C59.6652 16.1378 59.6851 16.7962 59.7821 17.0769C59.9933 17.6878 60.0108 18.5424 60.0817 19.1983C60.1797 20.1057 60.4699 20.9675 60.567 21.8882C60.6854 23.0123 60.5992 24.1551 60.6209 25.2852C60.6286 25.6869 60.81 26.0378 60.8306 26.443C60.8582 26.9863 60.8427 27.5418 60.8366 28.086C60.8196 29.6014 60.5944 31.2274 60.2435 32.6893C60.0378 33.5461 59.8376 33.8995 59.1112 34.2977C56.7256 35.6053 54.0203 36.1866 51.5625 37.2926C50.3513 37.8377 49.1744 38.4828 48.0038 39.1367C47.097 39.6433 46.1064 39.9443 45.2 40.4401C43.0472 41.6177 41.0137 43.1791 38.8376 44.2808C37.1046 45.1581 35.3894 46.0307 33.7332 47.0954C32.8371 47.6715 31.9283 48.2277 31.0193 48.7731C30.2529 49.233 29.5788 49.8874 28.8086 50.333C28.2706 50.6443 26.8211 51.5089 27.215 50.2429C27.3325 49.8654 27.4658 49.4072 27.6823 49.0851C27.8813 48.7891 28.192 48.6044 28.3773 48.3364C28.6276 47.9743 29.0717 47.6383 29.3718 47.3034C29.8089 46.8157 30.2544 46.3606 30.7737 46.0001C32.1363 45.054 33.5624 44.3241 34.9614 43.4697C36.8153 42.3374 38.7527 41.3973 40.6229 40.343C41.2976 39.9626 42.0726 39.7939 42.7737 39.4764C43.0917 39.3324 43.3785 39.1258 43.6663 38.9149C44.2707 38.4719 45.1659 38.545 45.8471 38.4781C48.7803 38.1899 51.0304 36.4809 53.6354 35.0742C55.0914 34.2879 56.6097 33.6401 58.0927 32.925C58.5693 32.6952 58.7876 32.2535 58.7876 31.6633V27.6215V27.544C58.7877 25.6741 58.7877 23.8224 58.6558 21.9575C58.5753 20.818 58.218 19.7775 58.0567 18.6576C58.0038 18.2902 57.737 16.6293 57.3318 16.8898C57.1235 17.0237 56.9907 17.0641 56.7387 17.0769C56.1456 17.1072 55.6894 17.4113 55.229 17.8257C54.216 18.7374 53.1443 19.7868 51.8261 19.8223C51.3235 19.8358 50.8688 20.0719 50.3643 20.0719C50.0315 20.0719 49.5003 19.9478 49.19 20.1273C48.7329 20.3918 48.5966 20.509 48.0637 20.6265C47.6924 20.7083 47.2573 20.7645 46.9135 20.9454C46.2461 21.2964 45.6785 21.7199 45.0682 22.2071C44.8502 22.3812 44.7113 22.6924 44.4452 22.6924C43.41 22.6924 42.4128 23.5172 41.4257 23.7878C40.0679 24.1599 38.8218 24.4253 37.4357 24.5712C36.5024 24.6693 35.6403 25.1188 34.7637 25.4655C33.7842 25.8528 32.8139 26.3501 31.912 26.9352C30.5352 27.8283 28.9988 28.0716 27.5565 28.7516C27.0013 29.0133 26.5203 29.4545 26.0048 29.8053C25.8152 29.9344 25.4781 30.2767 25.25 30.3045C24.8734 30.3504 25.0343 31.0621 25.0343 31.4276C25.0343 32.419 24.9793 33.4342 25.0403 34.4225C25.2449 37.7375 25.3578 41.0958 25.3578 44.4264L25.3578 44.5482C25.3576 45.6365 25.3574 46.8149 25.4896 47.8858C25.5549 48.4146 25.5533 48.9216 25.5795 49.4525C25.6004 49.877 25.7808 50.2477 25.7892 50.6727C25.796 51.0223 26.0846 51.7173 25.6574 51.5462C25.4594 51.4669 25.1139 51.2677 24.9504 51.1164C23.722 49.9792 21.9405 49.3858 20.5051 48.579C18.6607 47.5424 16.7373 46.7836 14.8975 45.7782C14.1252 45.3562 13.2018 45.1032 12.3753 44.8423C11.6976 44.6284 11.0186 44.2766 10.3683 43.9688C9.47069 43.5439 8.59808 43.1687 7.75621 42.6031C6.92228 42.0427 6.16346 41.3419 5.32386 40.7867C4.30691 40.1142 3.2135 39.5423 2.23849 38.7901C1.97264 38.585 1.27586 38.2417 1.09421 37.979C0.857785 37.637 0.770696 37.6722 0.770696 37.0985C0.770696 36.109 0.753112 35.1285 0.854571 34.1452C1.13167 31.4597 1.18482 28.7429 1.41773 26.0478C1.55467 24.4631 1.60841 22.9104 1.6334 21.3197C1.64968 20.2839 2.01552 19.2986 2.28043 18.3248C2.48036 17.5899 2.68246 17.6592 3.25097 17.2572C3.75135 16.9033 4.1278 16.2286 4.49111 15.7112C4.78292 15.2956 5.2268 15.0446 5.62341 14.803C5.90966 14.6287 6.09514 14.286 6.35432 14.082C7.71036 13.015 9.16974 12.0841 10.536 11.0178C12.5724 9.42857 14.542 7.79169 16.5151 6.09557C17.9341 4.87571 19.3238 3.36064 20.8286 2.29647C21.1379 2.07771 21.4915 2.09744 21.8231 1.94983C22.2841 1.74465 22.6957 1.43562 23.1771 1.25656C24.4662 0.777074 26.0232 0.979257 27.3528 0.979257C29.0132 0.979257 30.8141 0.795004 32.4512 1.13178C33.5905 1.36616 35.731 1.62589 36.8508 1.94983C37.3302 2.08854 36.1568 3.13934 35.9853 3.23238C35.71 3.3817 33.8934 3.9103 33.636 4.09896C33.0355 4.53904 32.8732 4.32299 32.2834 4.7853C31.6557 5.27739 31.0991 5.77187 30.3843 6.09557C29.5587 6.46939 28.9145 6.61258 28.2155 7.21174C27.4536 7.86483 26.5429 8.33257 25.7412 8.92411C24.7858 9.62915 24.0511 10.6586 23.0692 11.3367C22.2358 11.9122 21.2675 12.4637 20.5051 13.153C19.7266 13.8568 19.0264 14.7054 18.1926 15.323C17.6491 15.7255 17.1145 16.0867 16.4911 16.3005C16.3274 16.3566 15.7992 16.5326 16.0837 16.2034C16.3954 15.8427 16.7541 15.7113 17.0543 15.2675C17.3267 14.8648 17.7371 14.4735 18.0847 14.1444C18.8849 13.3868 19.7831 12.8207 20.6129 12.1131C22.0098 10.9221 23.4993 9.83526 24.9684 8.77852C26.1548 7.92509 27.2359 6.9432 28.4851 6.19263C29.4491 5.6134 30.2165 4.72296 31.0792 3.97417C31.3335 3.75346 33.0401 2.6015 32.0977 2.6015C31.0962 2.6015 30.0942 2.70036 29.1082 2.72629C28.0212 2.75488 26.8135 3.04042 25.7352 3.23238C24.4811 3.45565 23.3323 3.63928 22.0568 3.73153C21.2797 3.78773 20.2451 4.59359 19.6424 5.09727C18.5983 5.96982 17.7743 7.11218 16.7068 7.9674C15.0161 9.32188 13.3612 11.0002 11.5006 12.0299C10.5607 12.5501 9.79606 13.4167 8.81063 13.8602C7.96494 14.2407 7.13126 14.675 6.29441 15.0803C6.22257 15.1151 5.22936 15.6068 5.58148 15.6973C5.98623 15.8014 6.50981 15.7043 6.92346 15.7043C8.69373 15.7043 10.4307 15.8291 12.2015 15.8291C12.8169 15.8291 13.8511 15.8106 14.2984 16.3282C14.5477 16.6167 14.149 16.8102 13.873 16.9522C13.3057 17.2439 12.786 17.587 12.1596 17.7633C11.3294 17.997 10.6927 18.2 9.8291 18.2H7.67234H4.82661C4.41718 18.2 4.95266 18.4621 5.0303 18.512C6.90998 19.7204 9.15276 20.1832 11.0213 21.4445C11.8377 21.9956 12.8061 22.2278 13.6274 22.7895C14.1921 23.1756 14.85 23.4664 15.4367 23.8155C16.6674 24.5479 17.9094 25.2952 19.1571 25.9369C19.6663 26.1988 20.0705 26.8199 20.3972 27.3373C20.6794 27.7841 21.3558 28.3539 21.3558 28.9803C21.3558 29.1026 20.8724 28.9328 20.8286 28.8694C20.587 28.52 19.326 28.327 18.9354 28.2108C18.0463 27.9462 17.1727 27.4392 16.2934 27.1848C14.6025 26.6956 12.9166 25.8294 11.3388 24.9663C9.36905 23.8888 7.40889 22.832 5.40774 21.8189C4.799 21.5107 4.18183 21.269 3.57449 20.9731C3.21411 20.7975 3.24893 21.3539 3.11917 21.5416C2.96804 21.7602 3.0353 22.1597 3.0353 22.4428C3.0353 22.9349 2.9515 23.5058 2.92147 24.0096C2.70443 27.6514 2.81962 31.2663 2.81962 34.9078C2.81962 35.5937 2.91021 36.7727 3.38278 37.2649C3.82647 37.727 4.50741 38.142 5.0303 38.4781C5.48286 38.7691 5.96057 38.8438 6.46216 38.9426C7.50888 39.1488 8.47281 39.8394 9.45766 40.2875C11.8909 41.3949 14.2717 42.6144 16.6289 43.9064C17.8182 44.5583 18.9975 45.2375 20.1816 45.903C20.73 46.2113 21.3601 46.4307 21.883 46.7765C22.388 47.1105 23.0017 47.3336 23.5605 47.5183C23.749 47.5807 23.5246 47.0658 23.5246 46.8389Z" fill="#535252"/>
</svg>
