<svg width="344" height="83" viewBox="0 0 344 83" fill="none" xmlns="http://www.w3.org/2000/svg">
<g clip-path="url(#clip0_271_3373)">
<path d="M112.101 25.2726C112.56 25.2726 112.713 25.5704 112.56 26.0171C111.183 29.1498 107.504 38.6853 106.892 40.6268C106.586 41.9669 103.673 50.6147 103.673 51.5082C103.673 52.2527 103.979 52.4016 104.591 52.4016C105.662 52.4016 108.728 48.8222 109.341 48.0777C109.647 47.7799 109.8 47.6309 110.106 47.8543L111.024 48.5244C111.177 48.6733 111.177 48.9711 111.024 49.4178C110.259 50.9068 104.897 57.1665 98.9232 57.1665C97.24 57.1665 96.469 56.422 96.469 55.2307C96.469 54.1884 96.928 52.5448 99.6883 44.7961L99.2293 44.6472C96.0099 49.2689 89.7301 57.1665 83.4503 57.1665C81.461 57.1665 78.7007 54.9329 78.7007 51.8002C78.7007 41.8123 89.424 25.4158 99.6883 25.4158C103.061 25.4158 104.591 26.7559 105.509 27.9471L106.733 25.8625C107.039 25.4157 107.498 25.2668 107.957 25.2668H112.095L112.101 25.2726ZM100.612 38.3875C101.683 36.3029 102.449 34.0636 102.449 31.6811C102.449 30.4899 101.071 28.3995 98.9232 28.3995C96.9339 28.3995 94.6327 30.1864 92.6434 32.9468C88.3529 38.8342 86.2106 45.5406 86.2106 49.7156C86.2106 51.3535 86.8227 52.098 88.0468 52.098C90.9601 52.098 99.2292 41.2167 100.606 38.3818L100.612 38.3875Z" fill="#FF4D00"/>
<path d="M124.66 46.7377C124.048 48.3756 123.283 50.1682 123.283 51.0616C123.283 51.8061 123.742 52.4017 124.66 52.4017C126.42 52.4017 131.169 48.6734 131.628 48.2267C131.934 47.9289 132.087 47.9289 132.393 48.2267L133.235 49.1201C133.541 49.269 133.541 49.4179 133.388 49.7157C132.47 50.9069 125.578 57.1666 118.68 57.1666C116.385 57.1666 115.461 55.9754 115.461 54.933C115.461 53.5929 115.767 52.0982 116.226 50.758L124.342 30.3354H118.674C118.215 30.3354 118.062 30.1865 118.215 29.5909L118.827 27.6551C118.98 27.2084 119.133 27.0595 119.593 27.0595H125.49L128.633 19.1562C128.939 18.4117 129.245 18.2628 130.622 18.1139C132.152 17.965 135.219 16.6249 135.831 16.1782C136.29 16.0293 136.749 15.7314 137.055 15.7314C137.514 15.7314 137.82 16.476 137.514 17.2205L132.535 27.0595H140.421C140.727 27.0595 140.88 27.3573 140.727 27.804L140.115 29.9631C140.039 30.261 139.809 30.3354 139.35 30.3354H131.387L124.648 46.7319L124.66 46.7377Z" fill="#FF4D00"/>
<path d="M168.396 26.6133C168.549 26.1666 169.008 26.1666 169.467 26.1666H174.675C175.441 26.1666 175.594 26.4644 175.441 27.0601L170.079 42.2654C167.937 48.2272 167.013 51.211 167.013 51.6577C167.013 52.4022 167.319 52.5511 167.778 52.5511C168.849 52.5511 171.762 49.7162 172.833 48.3761C172.986 48.0783 173.292 48.0783 173.598 48.3017L174.517 48.9717C174.67 49.1206 174.67 49.4184 174.517 49.7162C173.751 50.9075 168.237 57.1671 161.804 57.1671C160.274 57.1671 159.356 56.2737 159.356 54.9336C159.356 53.8912 162.728 45.3923 163.57 43.2332L163.034 42.9354C159.968 47.1849 152.617 57.1728 145.113 57.1728C143.276 57.1728 141.587 55.2371 141.587 53.7423C141.587 50.9075 143.424 47.036 146.566 40.2494C148.709 35.6277 149.862 32.1228 149.862 31.0804C149.862 30.3359 149.25 29.8892 148.485 29.8892C147.261 29.8892 144.348 32.4206 142.97 33.9153C142.817 34.2131 142.358 34.2131 142.129 33.9153L141.287 33.1708C141.134 33.0219 141.134 32.873 141.287 32.5752C142.511 31.2351 147.49 25.4221 154 25.4221C156.142 25.4221 157.219 27.0601 157.219 28.5548C157.219 30.3416 155.765 34.2933 152.852 40.9997C150.939 45.398 149.25 49.4242 149.25 50.9132C149.25 51.6577 149.862 52.1044 150.474 52.1044C153.076 52.1044 160.586 43.3077 162.575 40.1807C163.952 38.0961 165.1 36.1546 166.1 33.3254L168.396 26.6191V26.6133Z" fill="#FF4D00"/>
<path d="M180.807 56.4279C180.348 56.4279 180.042 56.13 180.195 55.8322L184.027 43.7596C185.174 40.0313 187.705 32.4316 187.705 31.0914C187.705 30.4958 187.093 29.9002 186.328 29.9002C184.951 29.9002 181.884 32.7351 180.813 34.2241C180.66 34.5219 180.354 34.5219 180.048 34.373L179.13 33.7774C178.977 33.6285 178.977 33.3307 179.13 33.0329C180.507 30.7993 184.951 25.4331 191.23 25.4331C193.526 25.4331 194.297 26.9221 194.297 28.268C194.297 29.6138 192.92 33.4853 191.23 38.4049L191.766 38.7027C193.755 34.5276 199.194 25.4331 204.249 25.4331C206.391 25.4331 208.234 26.9221 208.234 29.1614C208.234 31.4007 206.397 33.3364 205.014 33.3364C204.096 33.3364 203.331 33.1875 202.719 32.7408C202.107 32.2941 201.648 31.8474 200.577 31.8474C198.434 31.8474 194.144 37.9581 191.843 42.2821C191.077 43.92 190.236 45.8615 189.388 48.3928L186.787 55.9926C186.634 56.2904 186.328 56.4393 185.869 56.4393H180.813L180.807 56.4279Z" fill="#FF4D00"/>
<path d="M218.646 31.0855C215.732 31.0855 214.508 32.2768 214.355 33.9204C214.508 35.1117 215.732 35.7073 216.497 36.154C216.957 36.4518 218.181 37.3452 218.181 38.9889C218.181 40.6325 217.263 41.8237 214.961 41.8237C213.278 41.8237 211.13 40.3347 211.13 36.7553C211.13 33.6226 213.119 30.4957 214.196 29.3044C215.726 27.6665 217.416 25.725 222.93 25.725C231.511 25.725 232.429 25.4272 233.348 25.4272C234.266 25.4272 235.031 25.8739 234.266 26.9163C231.352 31.3891 226.915 37.202 226.915 45.1741C226.915 50.2425 229.287 52.2527 231.358 52.2527C234.425 52.2527 236.567 50.9126 238.25 48.9711C241.47 44.945 243.153 40.4722 243.153 36.154C243.153 34.2182 242.923 32.8724 242.158 31.8301C241.699 31.0855 241.087 29.8943 241.087 28.9952C241.087 27.5061 242.464 25.4158 245.531 25.4158C247.985 25.4158 249.132 28.1018 249.132 30.1864C249.132 34.5103 248.061 39.5787 244.077 46.1362C240.398 52.0981 234.272 57.1665 227.38 57.1665C225.084 57.1665 223.395 56.2731 221.942 54.8585C220.87 53.8906 220.029 51.8003 220.029 49.4178C220.029 46.7318 220.794 43.6049 222.018 40.9933C224.16 36.2972 227.762 31.8243 230.134 29.293L229.675 28.8463C228.145 30.3353 224.619 31.0798 222.477 31.0798H218.646V31.0855Z" fill="#FF4D00"/>
<path d="M262.61 46.8866C261.539 49.7215 261.233 50.9127 261.233 51.6573C261.233 52.2529 261.539 52.6996 262.151 52.6996C263.682 52.5507 267.666 48.5246 268.125 47.929C268.278 47.6312 268.584 47.6312 268.814 47.8545L269.655 48.6735C269.961 48.9713 270.114 49.1202 269.808 49.418C269.349 50.0136 263.988 57.1667 255.636 57.1667C254.029 57.1667 253.417 56.2733 253.417 55.082C253.417 53.593 254.641 50.0881 257.708 41.8125L259.85 35.9995C260.615 33.9893 261.074 32.569 261.074 31.6756C261.074 31.08 260.768 30.7822 260.156 30.7822C258.932 30.7822 255.407 34.6594 254.335 35.8506C254.029 36.1484 253.723 36.1484 253.417 35.8506L252.652 35.1806C252.346 34.9572 252.193 34.8083 252.346 34.5105C252.805 34.0638 259.697 25.416 266.442 25.416C268.278 25.416 269.196 26.3094 269.196 27.7984C269.196 29.2874 268.202 32.0479 266.901 35.5471L262.61 46.8752V46.8866ZM263.911 12.3755C263.911 10.3653 265.824 8.34937 268.202 8.34937C271.268 8.34937 272.875 10.2107 272.875 12.0777C272.875 13.7901 271.115 16.4016 268.355 16.4016C265.288 16.4016 263.911 14.2425 263.911 12.3755Z" fill="#FF4D00"/>
<path d="M281.455 55.9815C281.302 56.2793 281.149 56.4282 280.384 56.4282H275.482C274.793 56.4282 274.716 55.9071 274.869 55.4604L280.078 41.6696C281.761 36.899 283.604 32.2773 283.604 31.235C283.604 30.4904 283.144 30.0437 282.456 30.0437C281.079 30.0437 278.089 32.7297 276.865 33.9209C276.712 34.2187 276.406 34.2187 276.176 33.9954L275.334 33.1764C275.028 33.0275 274.875 32.7297 275.181 32.4319C276.253 31.0918 281.308 25.4277 288.277 25.4277C290.495 25.4277 291.19 26.9168 291.19 27.9591C291.19 29.597 288.971 34.6655 287.588 37.9471L288.047 38.2449C290.342 34.8144 297.393 25.4277 304.668 25.4277C307.504 25.4277 309.035 27.5124 309.035 29.6027C309.035 31.5385 308.04 35.0434 304.897 42.7177C302.908 47.6372 301.831 50.4721 301.831 51.5144C301.831 52.2589 302.137 52.7056 302.749 52.7056C303.82 52.7056 306.733 50.1743 307.499 49.1262C307.805 48.9773 308.111 48.9773 308.417 49.2751L309.182 49.8708C309.488 50.0197 309.488 50.3175 309.182 50.7642C308.264 51.9554 302.902 57.1727 296.469 57.1727C294.786 57.1727 293.868 56.2793 293.868 54.9392C293.868 53.5991 296.01 48.5306 298.464 41.9732C299.612 38.8405 301.76 33.1764 301.76 32.283C301.76 31.0918 301.072 30.4962 300 30.4962C297.705 30.4962 291.266 36.458 288.053 41.5265C286.523 43.9089 285.14 46.1482 283.915 49.1262L281.467 55.9815H281.455Z" fill="#FF4D00"/>
<path d="M319.752 57.1728C314.697 57.1728 312.095 55.386 312.095 52.8489C312.095 51.0621 313.319 49.7162 315.009 49.7162C316.845 49.7162 318.075 50.9075 318.687 52.7C319.146 53.8912 319.758 54.6358 321.135 54.6358C323.278 54.6358 324.967 52.9978 324.967 49.8651C325.12 47.3338 323.13 45.169 321.518 42.4887C319.988 39.9574 318.528 38.0903 318.681 34.9634C318.681 30.1927 322.819 25.4221 330.017 25.4221C332.618 25.4221 335.99 26.4644 335.99 29.5971C335.99 31.5329 334.766 32.7298 333.077 32.7298C331.7 32.7298 330.476 32.1342 330.011 30.1985C329.705 29.3051 329.399 28.1138 328.174 28.1138C326.644 28.1138 324.955 29.1562 324.955 32.4377C324.955 34.9691 327.633 38.0273 328.48 39.1441C330.011 41.1543 331.394 43.7658 331.394 47.1963C331.394 53.0093 326.644 57.1843 319.752 57.1843V57.1728Z" fill="#FF4D00"/>
<path d="M69.4074 63.4484C59.2067 51.447 50.2911 33.5928 44.9703 17.3547C44.7641 16.637 44.2771 16.5391 44.0332 17.9152C42.5013 28.5855 38.9053 40.6283 34.4496 48.4527C31.9266 52.849 26.1658 63.8892 12.6351 64.6001C7.59106 64.8425 1.36519 61.9127 1.03028 55.6981C0.806279 51.7522 3.5001 49.5762 5.60937 49.4445C7.33063 49.3315 9.37564 50.4308 9.42667 52.7478C9.57674 55.1813 7.37436 56.2725 7.48746 57.9498C7.60057 59.6271 8.97673 61.365 13.414 61.1214C21.9502 60.7112 27.8958 53.452 30.4868 49.4921C36.0695 40.8556 41.7023 21.4685 41.2092 12.3357C41.1168 10.4451 40.0643 9.91965 38.1842 9.96453C32.0256 10.3211 27.2107 10.4767 22.8576 12.1261C19.4809 13.3799 16.2091 15.8262 16.2912 17.8234C16.357 18.8511 17.0665 20.6361 18.8454 21.0661C20.5253 21.3795 21.8726 22.8459 21.9466 24.3583C22.0309 25.7641 20.3628 27.6028 18.3629 27.7444C15.7563 27.8848 13.1503 25.1752 12.9943 21.6656C12.7784 18.2044 14.3274 13.6124 18.2082 10.5758C24.1139 6.00182 32.6973 6.2412 46.3374 5.54022C47.8894 5.46563 48.3351 5.98996 48.7578 7.31887C52.3913 19.9088 61.4547 40.7878 66.4908 48.0195C67.1138 48.9901 67.8403 48.8946 68.0945 47.4119C71.2855 29.3094 75.2229 13.7482 84.0353 5.94187C88.0276 2.3239 92.0998 1.29442 95.5423 1.06835C100.258 0.796232 102.476 3.52452 102.566 6.00639C102.698 8.06179 101.08 9.95874 98.9104 10.1388C97.1891 10.2518 95.5632 8.81397 95.2579 7.97969C94.765 6.80576 93.3866 5.65923 92.2226 5.71517C90.6107 5.83811 88.5798 6.29956 85.9746 8.69872C80.5146 13.7971 75.4167 23.1227 71.2296 46.9428C70.1219 53.2419 71.498 54.9798 72.4182 56.2999C77.1571 63.1821 90.2217 78.0778 106.588 77.1397C111.413 76.8775 114.475 74.8961 114.962 72.1439C115.611 68.8685 116.662 67.1353 118.214 67.0607C119.488 67.0147 120.15 68.1501 120.195 69.391C120.31 70.477 119.346 73.0247 117.917 74.67C116.598 76.3252 112.312 81.2609 102.721 81.737C86.5841 82.5883 74.6954 69.7888 69.2876 63.5451L69.4074 63.4484Z" fill="#FF4D00"/>
</g>
<defs>
<clipPath id="clip0_271_3373">
<rect width="344" height="83" fill="white"/>
</clipPath>
</defs>
</svg>
