<svg width="852" height="141" viewBox="0 0 852 141" fill="none" xmlns="http://www.w3.org/2000/svg">
<path d="M182.585 41.1331C183.337 41.1331 183.587 41.6327 183.337 42.382C181.08 47.6366 175.055 63.6311 174.052 66.8876C173.551 69.1355 168.778 83.641 168.778 85.1395C168.778 86.3884 169.28 86.6381 170.282 86.6381C172.037 86.6381 177.06 80.6342 178.063 79.3854C178.564 78.8858 178.815 78.6361 179.316 79.0107L180.82 80.1347C181.071 80.3844 181.071 80.884 180.82 81.6332C179.567 84.1309 170.784 94.6306 160.998 94.6306C158.24 94.6306 156.977 93.3817 156.977 91.3836C156.977 89.6353 157.729 86.8783 162.251 73.881L161.499 73.6312C156.225 81.3835 145.938 94.6306 135.651 94.6306C132.392 94.6306 127.87 90.8841 127.87 85.6295C127.87 68.8761 145.437 41.3733 162.251 41.3733C167.775 41.3733 170.282 43.6212 171.786 45.6193L173.792 42.1226C174.293 41.3733 175.045 41.1235 175.797 41.1235H182.575L182.585 41.1331ZM163.765 63.1315C165.519 59.6348 166.773 55.8788 166.773 51.8826C166.773 49.8845 164.517 46.3782 160.998 46.3782C157.739 46.3782 153.969 49.3753 150.71 54.0056C143.682 63.8808 140.172 75.1298 140.172 82.1328C140.172 84.8802 141.175 86.129 143.181 86.129C147.953 86.129 161.499 67.877 163.755 63.1219L163.765 63.1315Z" fill="#FF4D00"/>
<path d="M203.159 77.1373C202.157 79.8847 200.903 82.8915 200.903 84.3901C200.903 85.6389 201.655 86.638 203.159 86.638C206.042 86.638 213.822 80.3843 214.575 79.635C215.076 79.1355 215.327 79.1355 215.828 79.635L217.207 81.1336C217.708 81.3833 217.708 81.6331 217.457 82.1326C215.953 84.1307 204.663 94.6304 193.364 94.6304C189.604 94.6304 188.09 92.6323 188.09 90.8839C188.09 88.6361 188.591 86.1288 189.343 83.881L202.639 49.6249H193.354C192.602 49.6249 192.351 49.3752 192.602 48.3761L193.605 45.1292C193.855 44.3799 194.106 44.1301 194.858 44.1301H204.519L209.667 30.8735C210.168 29.6246 210.67 29.3749 212.926 29.1251C215.433 28.8754 220.456 26.6275 221.458 25.8782C222.21 25.6284 222.962 25.1289 223.464 25.1289C224.216 25.1289 224.717 26.3777 224.216 27.6265L216.059 44.1301H228.979C229.48 44.1301 229.731 44.6297 229.48 45.379L228.477 49.0005C228.352 49.5001 227.976 49.6249 227.224 49.6249H214.179L203.14 77.1277L203.159 77.1373Z" fill="#FF4D00"/>
<path d="M274.804 43.3809C275.055 42.6316 275.807 42.6316 276.559 42.6316H285.091C286.345 42.6316 286.595 43.1312 286.345 44.1302L277.561 69.6349C274.052 79.6351 272.538 84.6399 272.538 85.3892C272.538 86.638 273.04 86.8878 273.792 86.8878C275.546 86.8878 280.319 82.1327 282.073 79.8848C282.324 79.3853 282.825 79.3853 283.327 79.7599L284.831 80.8839C285.082 81.1336 285.082 81.6332 284.831 82.1327C283.577 84.1308 274.544 94.6305 264.006 94.6305C261.499 94.6305 259.995 93.1319 259.995 90.884C259.995 89.1357 265.519 74.8799 266.898 71.2584L266.021 70.7588C260.998 77.8867 248.956 94.6401 236.663 94.6401C233.655 94.6401 230.888 91.3932 230.888 88.8859C230.888 84.1308 233.896 77.6369 239.044 66.2535C242.554 58.5012 244.443 52.6222 244.443 50.8738C244.443 49.625 243.441 48.8757 242.187 48.8757C240.182 48.8757 235.41 53.1217 233.153 55.6289C232.903 56.1285 232.151 56.1285 231.775 55.6289L230.396 54.3801C230.145 54.1304 230.145 53.8806 230.396 53.3811C232.401 51.1332 240.558 41.3828 251.221 41.3828C254.731 41.3828 256.495 44.1302 256.495 46.6375C256.495 49.6346 254.114 56.263 249.341 67.5119C246.208 74.8895 243.441 81.6428 243.441 84.1404C243.441 85.3892 244.443 86.1385 245.446 86.1385C249.708 86.1385 262.01 71.3833 265.269 66.1382C267.525 62.6415 269.405 59.385 271.044 54.6395L274.804 43.3905V43.3809Z" fill="#FF4D00"/>
<path d="M295.137 93.3913C294.385 93.3913 293.884 92.8918 294.135 92.3923L300.411 72.1422C302.291 65.8885 306.437 53.141 306.437 50.8931C306.437 49.8941 305.434 48.895 304.181 48.895C301.925 48.895 296.902 53.6501 295.147 56.1478C294.896 56.6473 294.395 56.6473 293.893 56.3975L292.389 55.3985C292.139 55.1487 292.139 54.6492 292.389 54.1496C294.645 50.4032 301.925 41.4021 312.212 41.4021C315.972 41.4021 317.235 43.8997 317.235 46.1572C317.235 48.4147 314.979 54.9085 312.212 63.1603L313.089 63.6599C316.348 56.6569 325.257 41.4021 333.539 41.4021C337.048 41.4021 340.066 43.8997 340.066 47.6558C340.066 51.4119 337.058 54.6588 334.792 54.6588C333.288 54.6588 332.035 54.409 331.032 53.6597C330.029 52.9104 329.277 52.1611 327.522 52.1611C324.013 52.1611 316.984 62.4111 313.215 69.6638C311.961 72.4112 310.583 75.6677 309.194 79.9137L304.933 92.6613C304.682 93.1608 304.181 93.4105 303.429 93.4105H295.147L295.137 93.3913Z" fill="#FF4D00"/>
<path d="M357.121 50.8835C352.349 50.8835 350.343 52.8816 350.093 55.6386C350.343 57.6367 352.349 58.6358 353.602 59.3851C354.354 59.8846 356.36 61.3832 356.36 64.1402C356.36 66.8972 354.856 68.8953 351.086 68.8953C348.328 68.8953 344.809 66.3977 344.809 60.3937C344.809 55.1391 348.068 49.8941 349.832 47.896C352.339 45.1486 355.106 41.892 364.14 41.892C378.197 41.892 379.701 41.3925 381.205 41.3925C382.709 41.3925 383.963 42.1418 382.709 43.8901C377.937 51.3926 370.667 61.143 370.667 74.515C370.667 83.0165 374.553 86.3884 377.946 86.3884C382.97 86.3884 386.479 84.1405 389.236 80.884C394.51 74.1307 397.268 66.6282 397.268 59.3851C397.268 56.1382 396.892 53.8807 395.638 52.1323C394.886 50.8835 393.884 48.8854 393.884 47.3772C393.884 44.8796 396.14 41.3733 401.163 41.3733C405.183 41.3733 407.063 45.8786 407.063 49.3753C407.063 56.6281 405.309 65.1296 398.781 76.1288C392.756 86.129 382.719 94.6305 371.429 94.6305C367.669 94.6305 364.902 93.132 362.52 90.7592C360.766 89.1358 359.387 85.6295 359.387 81.6332C359.387 77.1279 360.64 71.8829 362.646 67.5024C366.155 59.6252 372.056 52.1227 375.941 47.8767L375.189 47.1275C372.682 49.6251 366.907 50.8739 363.398 50.8739H357.121V50.8835Z" fill="#FF4D00"/>
<path d="M429.142 77.3871C427.387 82.1422 426.886 84.1403 426.886 85.3891C426.886 86.3881 427.387 87.1374 428.39 87.1374C430.897 86.8877 437.424 80.1345 438.176 79.1354C438.426 78.6359 438.928 78.6359 439.304 79.0105L440.682 80.3842C441.184 80.8837 441.434 81.1335 440.933 81.633C440.181 82.6321 431.398 94.6303 417.717 94.6303C415.085 94.6303 414.082 93.1318 414.082 91.1336C414.082 88.636 416.087 82.757 421.111 68.8759L424.62 59.1255C425.873 55.7537 426.625 53.3713 426.625 51.8727C426.625 50.8737 426.124 50.3742 425.121 50.3742C423.116 50.3742 417.341 56.8776 415.586 58.8757C415.085 59.3753 414.583 59.3753 414.082 58.8757L412.829 57.7518C412.327 57.3772 412.077 57.1274 412.327 56.6279C413.079 55.8786 424.369 41.3731 435.418 41.3731C438.426 41.3731 439.93 42.8717 439.93 45.3693C439.93 47.8669 438.301 52.4972 436.17 58.3666L429.142 77.3678V77.3871ZM431.273 19.4996C431.273 16.1278 434.406 12.7463 438.301 12.7463C443.324 12.7463 445.956 15.8684 445.956 19C445.956 21.8723 443.073 26.2528 438.552 26.2528C433.529 26.2528 431.273 22.6312 431.273 19.4996Z" fill="#FF4D00"/>
<path d="M460.013 92.6419C459.763 93.1414 459.512 93.3912 458.259 93.3912H450.227C449.099 93.3912 448.974 92.517 449.225 91.7677L457.757 68.6358C460.515 60.6337 463.532 52.8815 463.532 51.1331C463.532 49.8843 462.78 49.135 461.652 49.135C459.396 49.135 454.499 53.6403 452.493 55.6385C452.242 56.138 451.741 56.138 451.365 55.7633L449.986 54.3896C449.485 54.1399 449.234 53.6404 449.736 53.1408C451.49 50.893 459.772 41.3923 471.188 41.3923C474.822 41.3923 475.96 43.89 475.96 45.6383C475.96 48.3857 472.325 56.8873 470.06 62.3917L470.812 62.8912C474.572 57.137 486.122 41.3923 498.039 41.3923C502.686 41.3923 505.192 44.889 505.192 48.3953C505.192 51.6422 503.563 57.5213 498.415 70.3937C495.156 78.6455 493.392 83.4006 493.392 85.149C493.392 86.3978 493.893 87.1471 494.896 87.1471C496.65 87.1471 501.423 82.9011 502.676 81.1432C503.177 80.8934 503.679 80.8934 504.18 81.3929L505.434 82.392C505.935 82.6417 505.935 83.1413 505.434 83.8905C503.929 85.8887 495.146 94.64 484.608 94.64C481.851 94.64 480.347 93.1414 480.347 90.8935C480.347 88.6457 483.856 80.1441 487.877 69.1449C489.757 63.8903 493.276 54.3896 493.276 52.8911C493.276 50.893 492.148 49.8939 490.393 49.8939C486.633 49.8939 476.085 59.894 470.821 68.3956C468.315 72.3918 466.049 76.1479 464.043 81.1432L460.033 92.6419H460.013Z" fill="#FF4D00"/>
<path d="M522.749 94.6401C514.468 94.6401 510.206 91.6429 510.206 87.3873C510.206 84.3902 512.211 82.1327 514.979 82.1327C517.987 82.1327 520.002 84.1308 521.004 87.1376C521.756 89.1357 522.759 90.3845 525.015 90.3845C528.525 90.3845 531.292 87.6371 531.292 82.3824C531.542 78.1365 528.284 74.5053 525.642 70.0095C523.135 65.7636 520.744 62.6319 520.995 57.3869C520.995 49.3848 527.773 41.3828 539.564 41.3828C543.825 41.3828 549.35 43.1312 549.35 48.3858C549.35 51.6327 547.344 53.6404 544.577 53.6404C542.321 53.6404 540.316 52.6414 539.554 49.3945C539.053 47.8959 538.552 45.8978 536.546 45.8978C534.039 45.8978 531.272 47.6461 531.272 53.1505C531.272 57.3965 535.659 62.5263 537.047 64.3995C539.554 67.7713 541.82 72.1518 541.82 77.9059C541.82 87.6563 534.039 94.6593 522.749 94.6593V94.6401Z" fill="#FF4D00"/>
<path d="M576.702 54.3802C580.713 49.1255 589.621 41.3829 598.154 41.3829C602.55 41.3829 606.06 43.381 606.06 48.7605C606.06 58.386 588.995 68.0115 583.219 70.2594V71.0087L591.752 84.3902C593.757 87.3874 595.512 89.1453 597.151 89.1453C599.282 89.1453 601.287 87.1472 602.55 85.8984C602.801 85.3989 603.302 85.6487 603.553 85.8984L605.057 87.397C605.308 87.6468 605.308 88.1463 604.806 88.6458C602.801 90.6439 598.53 94.6497 592.012 94.6497C585.495 94.6497 582.978 92.6516 580.221 87.1472L574.195 74.3997C573.443 72.6513 571.438 72.4016 569.172 72.6513L561.642 92.4019C561.392 93.1512 560.89 93.4009 559.888 93.4009H551.355C550.603 93.4009 550.102 92.6516 550.603 91.6526L579.209 18.7697C580.337 15.7725 579.209 13.515 575.198 13.515H571.939C571.187 13.515 570.936 13.0155 571.187 12.2662L572.19 10.0183C572.44 9.26905 572.441 9.01929 573.443 9.01929H593.516C594.77 9.01929 594.895 10.2681 594.394 11.392L575.95 54.1496L576.702 54.3994V54.3802ZM570.425 69.3852C581.214 71.1335 594.77 58.386 594.77 51.8825C594.77 50.0093 593.516 48.6356 591.26 48.6356C586.739 48.6356 578.466 55.8884 576.953 57.8865C575.699 59.1353 574.195 60.8836 573.193 62.3918L570.435 69.3948L570.425 69.3852Z" fill="#FF4D00"/>
<path d="M664.033 41.1331C664.785 41.1331 665.036 41.6327 664.785 42.382C662.529 47.6366 656.503 63.6311 655.5 66.8876C654.999 69.1355 650.227 83.641 650.227 85.1395C650.227 86.3884 650.728 86.6381 651.731 86.6381C653.485 86.6381 658.509 80.6342 659.511 79.3854C660.013 78.8858 660.263 78.6361 660.765 79.0107L662.269 80.1347C662.519 80.3844 662.519 80.884 662.269 81.6332C661.015 84.1309 652.232 94.6306 642.446 94.6306C639.689 94.6306 638.426 93.3817 638.426 91.3836C638.426 89.6353 639.178 86.8783 643.7 73.881L642.947 73.6312C637.674 81.3835 627.386 94.6306 617.099 94.6306C613.84 94.6306 609.319 90.8841 609.319 85.6295C609.319 68.8761 626.885 41.3733 643.7 41.3733C649.224 41.3733 651.731 43.6212 653.235 45.6193L655.24 42.1226C655.742 41.3733 656.494 41.1235 657.246 41.1235H664.023L664.033 41.1331ZM645.213 63.1315C646.968 59.6348 648.221 55.8788 648.221 51.8826C648.221 49.8845 645.965 46.3782 642.446 46.3782C639.187 46.3782 635.418 49.3753 632.159 54.0056C625.13 63.8808 621.621 75.1298 621.621 82.1328C621.621 84.8802 622.624 86.129 624.629 86.129C629.401 86.129 642.948 67.877 645.204 63.1219L645.213 63.1315Z" fill="#FF4D00"/>
<path d="M677.714 94.6401C669.432 94.6401 665.171 91.6429 665.171 87.3873C665.171 84.3902 667.176 82.1327 669.943 82.1327C672.951 82.1327 674.966 84.1308 675.969 87.1376C676.721 89.1357 677.724 90.3845 679.98 90.3845C683.489 90.3845 686.256 87.6371 686.256 82.3824C686.507 78.1365 683.248 74.5053 680.606 70.0095C678.1 65.7636 675.709 62.6319 675.959 57.3869C675.959 49.3848 682.737 41.3828 694.528 41.3828C698.79 41.3828 704.314 43.1312 704.314 48.3858C704.314 51.6327 702.309 53.6404 699.542 53.6404C697.286 53.6404 695.28 52.6414 694.519 49.3945C694.017 47.8959 693.516 45.8978 691.511 45.8978C689.004 45.8978 686.237 47.6461 686.237 53.1505C686.237 57.3965 690.624 62.5263 692.012 64.3995C694.519 67.7713 696.785 72.1518 696.785 77.9059C696.785 87.6563 689.004 94.6593 677.714 94.6593V94.6401Z" fill="#FF4D00"/>
<path d="M716.868 94.6401C708.586 94.6401 704.324 91.6429 704.324 87.3873C704.324 84.3902 706.33 82.1327 709.097 82.1327C712.105 82.1327 714.12 84.1308 715.122 87.1376C715.874 89.1357 716.877 90.3845 719.133 90.3845C722.643 90.3845 725.41 87.6371 725.41 82.3824C725.66 78.1365 722.402 74.5053 719.76 70.0095C717.253 65.7636 714.862 62.6319 715.113 57.3869C715.113 49.3848 721.891 41.3828 733.682 41.3828C737.943 41.3828 743.468 43.1312 743.468 48.3858C743.468 51.6327 741.463 53.6404 738.695 53.6404C736.439 53.6404 734.434 52.6414 733.672 49.3945C733.171 47.8959 732.67 45.8978 730.664 45.8978C728.157 45.8978 725.39 47.6461 725.39 53.1505C725.39 57.3965 729.777 62.5263 731.166 64.3995C733.672 67.7713 735.938 72.1518 735.938 77.9059C735.938 87.6563 728.157 94.6593 716.868 94.6593V94.6401Z" fill="#FF4D00"/>
<path d="M782.988 81.0088C783.614 81.3835 783.614 81.6332 783.364 82.1328C780.606 86.6381 772.074 94.6305 761.025 94.6305C752.743 94.6305 747.729 90.1252 747.729 81.3835C747.729 71.6331 753.003 58.3764 763.29 49.1256C768.313 44.6202 775.332 41.3733 782.11 41.3733C787.885 41.3733 790.893 45.1197 790.893 48.7509C790.893 55.1295 786.632 60.8741 779.353 64.8799C772.575 68.3766 765.797 69.8848 761.034 70.1345C760.533 71.3833 759.781 74.8896 759.781 79.3854C759.781 84.3902 763.04 87.3874 766.559 87.3874C772.334 87.3874 777.347 83.641 780.114 79.8849C780.365 79.6351 780.866 79.3854 781.117 79.6351L782.997 81.0088H782.988ZM762.037 66.1287C764.293 66.1287 770.319 64.6301 774.58 61.3736C777.338 59.1257 779.854 55.3697 779.854 51.873C779.854 49.6251 778.851 47.3676 776.094 47.3676C769.818 47.3676 763.551 59.3659 762.037 66.1191V66.1287Z" fill="#FF4D00"/>
<path d="M806.204 92.6419C805.953 93.1414 805.702 93.3912 804.449 93.3912H796.418C795.29 93.3912 795.164 92.517 795.415 91.7677L803.948 68.6358C806.705 60.6337 809.723 52.8815 809.723 51.1331C809.723 49.8843 808.971 49.135 807.843 49.135C805.587 49.135 800.689 53.6403 798.684 55.6385C798.433 56.138 797.931 56.138 797.555 55.7633L796.177 54.3896C795.675 54.1399 795.425 53.6404 795.926 53.1408C797.681 50.893 805.963 41.3923 817.378 41.3923C821.013 41.3923 822.15 43.89 822.15 45.6383C822.15 48.3857 818.516 56.8873 816.25 62.3917L817.002 62.8912C820.762 57.137 832.312 41.3923 844.229 41.3923C848.876 41.3923 851.383 44.889 851.383 48.3953C851.383 51.6422 849.754 57.5213 844.605 70.3937C841.346 78.6455 839.582 83.4006 839.582 85.149C839.582 86.3978 840.083 87.1471 841.086 87.1471C842.841 87.1471 847.613 82.9011 848.867 81.1432C849.368 80.8934 849.869 80.8934 850.371 81.3929L851.624 82.392C852.125 82.6417 852.125 83.1413 851.624 83.8905C850.12 85.8887 841.337 94.64 830.799 94.64C828.041 94.64 826.537 93.1414 826.537 90.8935C826.537 88.6457 830.047 80.1441 834.067 69.1449C835.947 63.8903 839.466 54.3896 839.466 52.8911C839.466 50.893 838.338 49.8939 836.584 49.8939C832.823 49.8939 822.276 59.894 817.012 68.3956C814.505 72.3918 812.239 76.1479 810.234 81.1432L806.223 92.6419H806.204Z" fill="#FF4D00"/>
<path d="M112.647 105.167C95.9363 85.0361 81.3312 55.0882 72.615 27.8512C72.2772 26.6472 71.4794 26.4831 71.0799 28.7913C68.5704 46.6891 62.6795 66.8893 55.3805 80.0135C51.2473 87.3876 41.8103 105.906 19.6451 107.099C11.3821 107.505 1.18318 102.591 0.634558 92.1667C0.26761 85.548 4.6805 81.898 8.13581 81.6772C10.9555 81.4876 14.3055 83.3315 14.3891 87.2179C14.635 91.2998 11.0271 93.1302 11.2124 95.9436C11.3977 98.757 13.652 101.672 20.921 101.264C34.9045 100.575 44.6443 88.3991 48.8888 81.7569C58.0341 67.2705 67.2614 34.7514 66.4537 19.4324C66.3023 16.2614 64.5782 15.3799 61.4982 15.4552C51.4096 16.0533 43.522 16.3143 36.391 19.0809C30.8594 21.184 25.4998 25.2874 25.6342 28.6373C25.742 30.3611 26.9043 33.3553 29.8185 34.0765C32.5704 34.6022 34.7775 37.0618 34.8986 39.5987C35.0367 41.9567 32.3042 45.0409 29.0281 45.2784C24.758 45.5139 20.489 40.9689 20.2335 35.0821C19.8798 29.2764 22.4173 21.5739 28.7745 16.4806C38.449 8.80833 52.51 9.20986 74.8545 8.03406C77.3969 7.90895 78.127 8.78844 78.8195 11.0175C84.7716 32.1352 99.6189 67.1568 107.869 79.2869C108.889 80.915 110.079 80.7547 110.496 78.2677C115.723 47.9034 122.173 21.8017 136.609 8.70776C143.149 2.63914 149.82 0.912347 155.46 0.533136C163.185 0.0767017 166.818 4.65302 166.966 8.81598C167.182 12.2636 164.53 15.4455 160.977 15.7475C158.157 15.9371 155.494 13.5253 154.994 12.1259C154.186 10.1568 151.928 8.23368 150.021 8.32751C147.381 8.53373 144.054 9.30774 139.786 13.332C130.842 21.8837 122.491 37.5262 115.632 77.481C113.817 88.0467 116.071 90.9618 117.579 93.1761C125.342 104.72 146.744 129.705 173.554 128.132C181.459 127.692 186.473 124.368 187.272 119.752C188.335 114.258 190.057 111.351 192.599 111.226C194.685 111.149 195.77 113.053 195.844 115.135C196.033 116.956 194.453 121.23 192.113 123.989C189.952 126.766 182.931 135.045 167.22 135.843C140.785 137.271 121.309 115.802 112.45 105.329L112.647 105.167Z" fill="#FF4D00"/>
</svg>
