<svg width="95" height="79" viewBox="0 0 95 79" fill="none" xmlns="http://www.w3.org/2000/svg">
<g clip-path="url(#clip0_746_4356)">
<path d="M43.5703 12.5176C42.073 13.3217 39.0476 14.8726 37.3902 15.3025C38.1807 15.0975 39.0036 13.7811 39.3999 13.0792C39.8481 12.2852 40.6365 11.6178 41.3401 11.105C42.0851 10.562 42.8861 9.52724 43.7647 9.29934C44.6548 9.06844 46.1631 9.45383 47.0828 9.37693C48.7104 9.24084 50.4766 9.00367 52.0579 8.64313C53.7224 8.26363 55.6518 7.33658 57.3212 7.89454C57.7712 8.04493 59.8146 8.35637 59.3295 8.81314C58.695 9.41073 57.9553 9.02789 57.125 9.24326C53.9004 10.0797 50.4221 9.89344 47.1072 10.5075C46.3882 10.6407 44.9979 11.7271 45.2519 12.7064C45.3592 13.1199 45.3394 14.0026 45.4467 14.416C45.7203 15.4708 45.6304 15.8863 45.8939 16.9021C45.5169 18.0817 45.7834 18.4075 44.6372 18.3503C43.9834 18.3176 44.3323 16.6541 44.0957 16.0675C43.8963 15.573 44.2685 12.1426 43.5703 12.5176Z" fill="#FF4D00"/>
<path d="M43.9527 72.5106C42.3426 66.3032 40.5905 60.1015 38.9522 53.8827C39.1002 53.4755 38.1137 51.0193 37.9213 50.6245C37.528 49.8182 36.9307 49.0659 36.6175 48.2205C36.2136 47.13 35.2011 46.2494 34.6094 45.2427C33.9037 44.042 33.0614 42.8724 32.1941 41.8032C31.6614 41.1466 30.8565 40.3815 30.4658 39.6459C30.1784 39.1048 29.2519 37.2652 29.7536 36.6787C30.7946 35.4618 31.8204 37.4755 32.244 38.155C32.9401 39.2714 33.3828 40.5 34.121 41.5871C34.6602 42.3812 35.276 43.0721 35.8953 43.7745C36.3029 44.2366 37.109 44.406 37.3362 45.0082C37.4397 45.2828 38.17 45.0411 38.3413 44.8946C39.1286 44.2215 39.933 43.3104 40.82 42.7807C43.8704 40.9591 47.6481 39.9907 50.285 37.5624C51.8737 36.0994 53.3791 34.5763 55.0798 33.2613C56.8739 31.8739 57.67 30.5577 59.5185 29.2626C63.9845 26.1337 68.9117 23.746 73.4304 20.7054C75.4486 19.3474 77.476 16.9416 79.591 15.7979C80.5021 15.3052 81.7862 14.968 82.5256 14.1856C82.83 13.8635 82.0974 12.7594 81.9942 12.4323C81.2691 10.136 78.7974 7.9103 77.4013 6.24811C75.7036 4.22687 74.1026 2.72279 71.7839 4.01742C69.1938 5.46362 66.8498 6.83141 64.5441 8.82669C62.6805 10.4394 61.0851 12.4549 59.1549 13.9754C57.7807 15.058 56.473 16.2027 55.1302 17.3308C51.6446 20.2594 48.2912 23.2006 44.6139 25.8688C42.8181 27.1718 40.9058 28.2869 39.1288 29.6135L39.0389 29.6806C37.7995 30.6061 36.5702 31.5241 35.1588 32.1457C34.3174 32.5163 33.5635 33.2785 32.677 33.5459C31.9742 33.7579 31.2514 33.9157 30.5408 34.1C29.704 34.3171 30.2688 33.7217 30.3892 33.1833C30.5032 32.674 30.7098 32.0572 31.0484 31.699C31.6835 31.0269 32.6726 30.4945 33.4395 29.9861C34.7373 29.1257 35.8857 28.037 37.1343 27.0945C37.7481 26.6311 38.2737 25.9328 38.9011 25.5225C39.1659 25.3493 39.4854 24.9717 39.7913 24.8923C40.2223 24.7805 40.6332 24.3139 41.001 24.0532C41.4596 23.7282 41.9552 23.5572 42.4145 23.2243C44.0097 22.0682 45.6772 21.1546 47.1826 19.8546C50.3154 17.1495 53.7021 14.8041 56.8879 12.1785C58.1328 11.1524 59.4462 10.1493 60.7212 9.15639C61.8673 8.26388 63.1618 7.583 64.2643 6.64035C65.1859 5.85249 65.9713 5.05237 67.1454 4.74782C68.0271 4.5191 68.6067 4.20388 69.3231 3.61558C70.3386 2.78175 71.3727 2.09563 72.2663 1.15009C72.9013 0.478165 73.9895 0.618359 74.7378 1.07636C75.6366 1.62645 76.4466 2.67667 77.2928 3.35545C78.5442 4.35931 79.5132 6.17323 80.6586 7.35739C81.5058 8.23324 82.4829 8.8642 83.3583 9.7145C84.3243 10.6527 84.8558 11.7346 85.692 12.7654C86.1289 13.304 86.4437 13.773 86.6529 14.4389C86.7889 14.8715 87.0612 15.7986 87.31 16.1596C87.8514 16.9449 88.1924 18.1517 88.5402 19.0555C89.0212 20.3058 89.7734 21.4167 90.2579 22.6865C90.8494 24.2366 91.1411 25.8928 91.5899 27.4891C91.7494 28.0564 92.1504 28.4843 92.3305 29.0516C92.572 29.8124 92.7533 30.6072 92.9446 31.3824C93.4773 33.5408 93.7389 35.9371 93.7516 38.1494C93.759 39.4459 93.5894 40.0255 92.6476 40.8732C89.5554 43.657 85.7164 45.5337 82.4417 48.0594C80.8279 49.304 79.3023 50.6774 77.7895 52.0608C76.6175 53.1326 75.2443 53.9449 74.069 55.0011C71.2775 57.51 68.8062 60.5172 65.9517 62.9273C63.6786 64.8466 61.4304 66.7521 59.3414 68.9076C58.211 70.0739 57.0544 71.2168 55.8935 72.3445C54.9147 73.2953 54.1458 74.4865 53.1561 75.4186C52.4647 76.0697 50.6116 77.8607 50.7354 75.9099C50.7723 75.3282 50.8034 74.6258 51.009 74.0843C51.1981 73.5866 51.5955 73.2037 51.7744 72.7511C52.0161 72.1397 52.5576 71.4899 52.8839 70.8978C53.3591 70.0354 53.8589 69.216 54.5041 68.5023C56.197 66.6294 58.0647 65.0387 59.8459 63.2818C62.2063 60.9536 64.7626 58.8659 67.176 56.642C68.0468 55.8397 69.1456 55.2989 70.0791 54.5757C70.5024 54.2476 70.856 53.8428 71.2096 53.4314C71.9519 52.5676 73.3199 52.3235 74.3158 51.9638C78.604 50.4147 81.3455 47.1136 84.7301 44.1037C86.6218 42.4214 88.6578 40.9115 90.6162 39.3199C91.2456 38.8084 91.41 38.0962 91.1926 37.2582L89.704 31.519L89.6754 31.4089C88.9867 28.7538 88.3047 26.1243 87.4203 23.5276C86.8798 21.9407 85.9614 20.6021 85.3073 19.0746C85.0927 18.5735 84.0811 16.3187 83.5701 16.846C83.3073 17.1172 83.1233 17.2261 82.7505 17.3423C81.8731 17.6158 81.3016 18.2248 80.7645 18.9922C79.5827 20.6804 78.3636 22.587 76.4018 23.1497C75.6539 23.3642 75.0596 23.8761 74.3037 24.0721C73.8052 24.2015 72.9636 24.2317 72.565 24.6072C71.9776 25.1604 71.8165 25.3798 71.0614 25.7537C70.5353 26.0142 69.6029 25.1014 69.1543 25.4919C68.2837 26.2497 67.5894 27.0716 66.8546 28.0006C66.5921 28.3325 66.1452 28.4263 65.7465 28.5297C64.1956 28.932 62.6021 28.9353 61.2229 29.7031C59.3258 30.7591 58.2114 33.1841 56.1885 33.9298C54.8264 34.4319 54.1039 36.9604 52.9183 37.7934C51.5936 38.7241 50.323 39.8072 49.1873 40.9886C47.4537 42.7918 45.2415 43.7343 43.3312 45.2603C42.5958 45.8477 42.0376 46.6611 41.3946 47.3596C41.158 47.6167 40.7792 48.2336 40.4476 48.3617C39.9003 48.5732 40.4035 49.5213 40.5381 50.0403C40.9033 51.448 41.1948 52.9111 41.6502 54.2907C43.1778 58.9183 44.5839 63.6431 45.8106 68.3724L45.8555 68.5454C46.256 70.0908 46.6898 71.7641 47.2823 73.2334C47.5749 73.959 47.7592 74.6796 47.994 75.4232C48.1817 76.0178 48.5885 76.4741 48.7575 77.0743C48.8966 77.5681 49.5849 78.4429 48.8818 78.3659C48.556 78.3302 47.9651 78.1817 47.6644 78.0303C45.4053 76.8929 42.5176 76.7426 40.07 76.1548C36.9251 75.3996 33.764 75.0695 30.6374 74.3569C29.3249 74.0578 27.8484 74.0573 26.514 74.0081C25.4199 73.9678 24.2731 73.7321 23.1855 73.5477C21.6843 73.2931 20.2388 73.0995 18.7692 72.6235C17.3134 72.1519 15.9185 71.4516 14.4561 70.9895C12.6849 70.4299 10.8361 70.0426 9.09837 69.3534C8.62455 69.1655 7.45423 68.9488 7.0853 68.6463C6.60514 68.2526 6.48763 68.3364 6.27634 67.5219C5.91187 66.1168 5.52437 64.7313 5.31421 63.2956C4.7402 59.3746 3.81917 55.4963 3.17542 51.5788C2.79689 49.2753 2.30548 47.0496 1.75706 44.7813C1.39992 43.3042 1.58508 41.7628 1.6233 40.2772C1.65214 39.156 1.98044 39.1758 2.68408 38.384C3.30339 37.6871 3.61886 36.5828 3.97257 35.7068C4.25666 35.0033 4.8292 34.4744 5.33442 33.9772C5.69905 33.6184 5.85069 33.0597 6.16386 32.6694C7.8024 30.6273 9.6459 28.7383 11.3001 26.6932C13.7655 23.6453 16.1133 20.5556 18.4446 17.3804C20.1213 15.0968 21.6451 12.4054 23.5076 10.3095C23.8905 9.8787 24.4274 9.76932 24.8699 9.43085C25.485 8.96034 26.0118 9.48468 26.6671 9.04335C28.4218 7.86153 30.8288 7.54358 32.8208 7.02686C35.3083 6.38164 37.9144 4.29705 40.491 4.13909C42.2842 4.02915 45.5867 3.56614 47.3836 3.59098C48.153 3.60161 46.782 5.54973 46.5593 5.74849C46.2019 6.06749 43.6751 7.52402 43.359 7.89194C42.6215 8.75019 42.2986 8.50649 41.5854 9.39215C40.8261 10.3349 40.1745 11.2533 39.2228 11.9907C38.1236 12.8423 37.2113 13.296 36.3848 14.4184C35.4838 15.6419 34.2917 16.66 33.3086 17.8115C32.1369 19.1839 31.4155 20.9311 30.1942 22.2756C29.1576 23.4167 27.9101 24.5761 27.0217 25.8512C26.1147 27.153 25.3782 28.6301 24.3564 29.8311C23.6905 30.6138 23.0227 31.3345 22.1674 31.8803C21.9428 32.0236 21.2164 32.4788 21.5214 31.9008C21.8555 31.2674 22.3445 30.9415 22.6307 30.1947C22.8904 29.5169 23.3612 28.8019 23.7608 28.1995C24.6806 26.8127 25.8176 25.6599 26.8002 24.3327C28.4542 22.0986 30.2855 19.9765 32.0972 17.9051C33.5603 16.2322 34.8183 14.4178 36.4133 12.8666C37.6442 11.6694 38.4658 10.1069 39.4825 8.70834C39.7823 8.2961 41.9146 5.9972 40.5028 6.36341C39.0025 6.75258 37.5377 7.28235 36.07 7.70236C34.4521 8.16535 32.1064 8.44281 30.5617 9.13441C28.765 9.93882 27.7531 11.2433 25.8761 11.87C24.7327 12.2518 23.4795 13.7981 22.7621 14.7475C21.5193 16.3923 20.7056 18.3346 19.4213 19.9638C17.3872 22.5442 15.5262 25.5704 13.1179 27.7557C11.9015 28.8595 11.0751 30.3872 9.76208 31.3999C8.63528 32.2689 7.54624 33.2094 6.44181 34.1103C6.34701 34.1876 5.04011 35.2717 5.60099 35.2634C6.24571 35.2539 6.99432 34.9125 7.61405 34.7518C10.2662 34.0638 12.9144 33.566 15.5674 32.8779C16.4893 32.6387 18.0319 32.2107 18.8926 32.7718C19.3723 33.0845 18.8464 33.5143 18.4852 33.8231C17.7427 34.4578 17.0904 35.1469 16.217 35.6407C15.0592 36.2951 14.1802 36.8309 12.8864 37.1665L9.65524 38.0046L5.3919 39.1105C4.77852 39.2696 6.18106 40.9212 6.31576 40.9619C9.57689 41.9473 13.1074 41.7329 16.3713 42.7978C17.7974 43.2631 18.417 43.4396 19.8544 43.9179C20.8426 44.2467 22.425 45.5642 23.4325 45.8319C25.546 46.3937 28.0949 45.2616 30.2005 45.6879C31.0597 45.8618 31.4045 45.4265 32.0846 46.0342C32.6719 46.559 33.8951 47.1053 34.1258 47.9948C34.1709 48.1684 33.3842 48.1152 33.2951 48.0422C32.8045 47.6399 30.8442 47.8559 30.2163 47.8427C28.7868 47.8125 27.2913 47.432 25.8802 47.4125C23.1669 47.375 20.8237 45.9013 18.1421 45.2889C14.7942 44.5243 11.4683 43.7855 8.09712 43.1245C7.07162 42.9235 5.5563 43.7189 4.53743 43.5348C3.93284 43.4255 4.18995 44.202 4.06468 44.5189C3.91878 44.8881 4.16669 45.4292 4.27098 45.8313C4.4522 46.5299 4.53694 47.3732 4.67753 48.1003C5.69373 53.3558 7.19778 58.4441 8.53904 63.6149C8.79167 64.5888 9.18705 68.2011 10.0763 68.7163C10.9112 69.2 13.0219 70.4902 13.6373 70.1349C14.4224 70.3722 15.5844 70.2535 16.3723 70.1989C18.0164 70.0849 18.8695 70.4912 20.51 70.7449C24.5633 71.3716 28.5792 72.1781 32.5865 73.0967C34.6085 73.5602 35.9377 73.2943 37.9567 73.7791C38.8919 74.0037 40.0423 74.7713 41.9837 74.9306C41.9837 74.9306 45.0656 75.7533 45.9708 75.7985C46.2762 75.8137 44.0363 72.8327 43.9527 72.5106Z" fill="#FF4D00"/>
</g>
<defs>
<clipPath id="clip0_746_4356">
<rect width="95" height="79" fill="white"/>
</clipPath>
</defs>
</svg>
