<svg width="428" height="168" viewBox="0 0 428 168" fill="none" xmlns="http://www.w3.org/2000/svg">
<path d="M71.3685 0C103.369 0 127.522 18.3999 116.522 81.3999C97.0759 123.5 82.2222 159.4 37.0222 159.4C29.0222 159.4 23.7685 160.2 11.3685 148.2C-1.03147 136.2 0.0222347 105.4 0.0222347 87.3999C11.3685 46.8999 28.9685 0 71.3685 0ZM76.1685 9.60001C64.1685 9.60001 54.5685 16 47.3685 24.4C30.9685 42.8 14.1685 93.7994 14.1685 115.799C14.1685 140.599 27.3685 152.2 43.7685 152.2C72.9685 152.2 103.769 86 104.169 42.8C104.169 22.8 94.1685 9.60001 76.1685 9.60001Z" fill="#FF4D00"/>
<path d="M125.879 119.464L134.711 95.656C137.655 87.72 141.239 79.656 141.239 77.736C141.239 76.712 140.727 75.944 139.575 75.944C138.039 75.944 131.383 82.088 130.359 83.624C129.847 84.136 129.335 84.136 128.823 83.624L127.287 82.344C127.031 81.832 126.775 81.576 127.031 81.064C129.591 77.992 138.807 67.752 148.151 67.752C151.991 67.752 153.655 69.544 153.655 72.36C153.655 75.944 146.487 90.28 145.463 93.352L146.487 93.864C151.863 84.904 163.127 67.752 174.647 67.752C178.999 67.752 181.687 70.696 181.687 73.768C181.687 78.504 176.951 89.512 174.903 94.12L175.927 94.632C182.839 83.88 192.823 67.752 204.599 67.752C209.207 67.752 211.639 71.72 211.639 74.664C211.639 78.376 208.439 85.672 204.599 96.68C202.039 104.104 199.479 109.48 199.479 111.528C199.735 112.552 200.247 113.32 201.015 113.32C203.831 113.32 209.975 105.128 210.743 104.104C210.999 103.592 211.511 103.592 211.767 103.72L213.559 104.872C214.071 105.384 214.071 105.64 213.815 106.664C213.303 107.432 202.551 122.28 190.775 122.28C187.959 122.28 186.423 120.232 186.423 118.44C186.423 115.624 189.239 107.688 194.103 95.4C198.071 85.416 199.607 81.064 199.607 79.016C199.607 77.48 198.711 76.456 196.919 76.456C193.847 76.456 183.607 87.976 175.671 100.008C174.903 101.288 172.599 104.616 170.807 108.968L166.839 119.976C166.583 120.744 165.943 121 164.919 121H156.855C155.831 121 155.319 120.488 155.575 119.72L163.639 98.472C166.967 89.512 170.167 81.064 170.167 79.272C170.295 77.736 169.143 76.712 167.479 76.712C164.407 76.712 154.423 87.464 146.999 98.216C145.207 100.776 143.159 104.36 141.111 108.968L136.887 119.976C136.631 120.744 135.991 121 134.967 121H126.903C126.135 121 125.495 120.488 125.879 119.464ZM377.006 105.128C377.006 115.112 369.07 122.28 357.55 122.28C349.102 122.28 344.75 119.208 344.75 114.856C344.75 111.784 346.798 109.48 349.614 109.48C352.686 109.48 354.734 111.528 355.758 114.6C356.526 116.648 357.55 117.928 359.854 117.928C363.438 117.928 366.254 115.112 366.254 109.736C366.51 105.384 363.182 101.672 360.494 97.064C357.934 92.712 355.502 89.512 355.758 84.136C355.758 75.944 362.67 67.752 374.702 67.752C379.054 67.752 384.686 69.544 384.686 74.92C384.686 78.248 382.638 80.296 379.822 80.296C377.518 80.296 375.47 79.272 374.702 75.944C374.19 74.408 373.678 72.36 371.63 72.36C369.07 72.36 366.254 74.152 366.254 79.784C366.254 84.136 370.734 89.384 372.142 91.304C374.702 94.76 377.006 99.24 377.006 105.128Z" fill="#FF4D00"/>
<path d="M313.476 21C337.901 21 356.338 34.6201 347.941 81.2543C333.098 112.418 321.76 138.992 287.259 138.992C281.153 138.992 277.143 139.584 267.678 130.701C258.213 121.818 259.017 99.0197 259.017 85.6956C267.678 55.7165 281.112 21 313.476 21ZM317.139 28.1062C307.98 28.1062 300.652 32.8436 295.156 39.0615C282.638 52.6816 269.815 90.4327 269.815 106.718C269.815 125.075 279.89 133.662 292.409 133.662C314.697 133.662 338.207 84.6594 338.512 52.6816C338.512 37.8771 330.879 28.1062 317.139 28.1062Z" fill="#FF4D00"/>
</svg>
