<svg width="120" height="118" viewBox="0 0 120 118" fill="none" xmlns="http://www.w3.org/2000/svg">
<path d="M54.4756 0C78.9012 0 97.3377 13.6201 88.9414 60.2543C74.098 91.4182 62.7602 117.992 28.2591 117.992C22.1527 117.992 18.1425 118.584 8.6776 109.701C-0.787317 100.818 0.0169718 78.0197 0.0169718 64.6956C8.6776 34.7165 22.1117 0 54.4756 0ZM58.1394 7.10617C48.9798 7.10617 41.6522 11.8436 36.1564 18.0615C23.6383 31.6816 10.8148 69.4327 10.8148 85.7177C10.8148 104.075 20.8904 112.662 33.4085 112.662C55.6969 112.662 79.2065 63.6594 79.5118 31.6816C79.5118 16.8771 71.8788 7.10617 58.1394 7.10617Z" fill="#FF4D00"/>
<path d="M112.256 100.376C112.256 110.36 104.32 117.528 92.8 117.528C84.352 117.528 80 114.456 80 110.104C80 107.032 82.048 104.728 84.864 104.728C87.936 104.728 89.984 106.776 91.008 109.848C91.776 111.896 92.8 113.176 95.104 113.176C98.688 113.176 101.504 110.36 101.504 104.984C101.76 100.632 98.432 96.92 95.744 92.312C93.184 87.96 90.752 84.76 91.008 79.384C91.008 71.192 97.92 63 109.952 63C114.304 63 119.936 64.792 119.936 70.168C119.936 73.496 117.888 75.544 115.072 75.544C112.768 75.544 110.72 74.52 109.952 71.192C109.44 69.656 108.928 67.608 106.88 67.608C104.32 67.608 101.504 69.4 101.504 75.032C101.504 79.384 105.984 84.632 107.392 86.552C109.952 90.008 112.256 94.488 112.256 100.376Z" fill="#FF4D00"/>
</svg>
