<svg width="92" height="90" viewBox="0 0 92 90" fill="none" xmlns="http://www.w3.org/2000/svg">
<path d="M28.3335 60.0234C28.2038 59.9908 28.0377 59.9908 27.8717 59.9853C27.6278 59.9744 27.3788 59.9962 27.1401 59.9091C26.9533 59.8438 26.7769 59.9254 26.5952 59.9363C26.4448 59.9472 26.2995 59.9472 26.1646 59.8928C25.8792 59.7784 25.5938 59.7948 25.3032 59.8329C25.0905 59.8601 24.8881 59.7676 24.7065 59.6641C24.5871 59.5933 24.4626 59.528 24.3225 59.5117C24.1512 59.4845 24.0786 59.5389 24.0682 59.7186C24.0527 59.8982 23.98 60.0507 23.9229 60.214C23.814 60.5189 23.7154 60.8183 23.7102 61.1558C23.705 61.4879 23.596 61.82 23.4819 62.1303C23.3729 62.408 23.2847 62.6856 23.2484 62.9796C23.2484 63.0014 23.2484 63.0232 23.2432 63.0341C23.0149 63.3934 23.1082 63.8616 22.8696 64.2155C22.8384 64.2645 22.8281 64.3189 22.8281 64.3788C22.8384 64.7218 22.7191 65.0375 22.6205 65.3587C22.5375 65.631 22.5219 65.9249 22.3974 66.1863C22.3818 66.2189 22.387 66.2625 22.3974 66.3006C22.4597 66.5238 22.3766 66.7144 22.2884 66.9049C22.2676 66.9485 22.2209 66.992 22.2261 67.0301C22.2469 67.4003 22.0186 67.7215 22.0186 68.0863C22.0186 68.2823 21.9926 68.4674 21.8992 68.6416C21.8733 68.6906 21.837 68.7505 21.8422 68.7995C21.8473 69.0935 21.7384 69.3548 21.6658 69.6325C21.5308 70.1605 21.3855 70.6832 21.2039 71.1949C21.0327 71.6795 20.8459 72.1586 20.7369 72.6649C20.6954 72.8609 20.5917 73.0405 20.5138 73.2202C20.41 73.4706 20.2803 73.7102 20.1713 73.9606C20.0572 74.2274 19.9482 74.5322 19.6991 74.7228C19.6472 74.7609 19.6109 74.8208 19.5902 74.8861C19.4241 75.3652 19.1543 75.7953 18.9779 76.2635C18.8222 76.6827 18.5109 77.0257 18.4693 77.4939C18.4693 77.5483 18.433 77.6028 18.4071 77.6518C18.1891 78.0492 18.1269 78.4793 18.158 78.9311C18.1684 79.138 18.1217 79.334 18.0802 79.53C17.992 79.9819 17.9609 80.4446 17.9194 80.8965C17.883 81.2885 17.9297 81.6805 18.267 81.9636C18.3656 82.0507 18.4227 82.1977 18.4849 82.3229C18.5628 82.4862 18.6977 82.6114 18.8481 82.6604C19.1439 82.753 19.3826 82.949 19.6524 83.0905C19.943 83.243 20.2492 83.3246 20.5657 83.3899C20.7629 83.4335 20.96 83.4879 21.1365 83.5859C21.261 83.6513 21.3855 83.7057 21.5308 83.6894C21.6657 83.673 21.7799 83.7166 21.8837 83.8091C22.0238 83.9398 22.2002 83.9943 22.387 83.9997C22.5531 84.0051 22.7139 84.0324 22.8799 84.0433C22.9785 84.0487 23.046 84.1086 23.1135 84.1794C23.2328 84.31 23.3781 84.3753 23.5545 84.3536C23.8866 84.31 24.1772 84.4842 24.4833 84.5768C24.7479 84.6584 25.0022 84.7728 25.2824 84.7837C25.3187 84.7837 25.3655 84.7837 25.3862 84.8109C25.5938 85.0123 25.8584 85.0014 26.1074 85.0395C26.3046 85.0722 26.507 85.0885 26.7094 85.1103C26.7665 85.1103 26.8132 85.1266 26.8651 85.1539C27.2439 85.3444 27.6382 85.4805 28.0482 85.584C28.318 85.6493 28.5774 85.7854 28.842 85.8888C29.1586 86.0141 29.4751 86.1393 29.7968 86.2373C30.2327 86.3679 30.5648 86.6674 30.8346 87.043C30.8502 87.0648 30.8605 87.092 30.8709 87.1192C30.9436 87.3424 30.6997 87.9685 30.4973 88.0883C30.1549 88.2897 29.7864 88.4422 29.4492 88.649C29.3194 88.7253 29.169 88.7634 29.06 88.8886C29.034 88.9213 28.977 88.9485 28.9355 88.943C28.4633 88.9321 28.0533 89.2425 27.5812 89.237C27.5345 89.237 27.4878 89.2534 27.4514 89.2751C27.275 89.3731 27.0882 89.4167 26.8962 89.4221C26.5745 89.4276 26.2683 89.5147 25.957 89.5854C25.4796 89.6943 24.9919 89.6834 24.5145 89.7324C24.4678 89.7324 24.4211 89.7324 24.3796 89.7215C24.2498 89.6834 24.1097 89.6889 24.0008 89.7488C23.6739 89.923 23.321 89.8522 22.9786 89.8849C22.797 89.9067 22.6153 89.9339 22.4389 89.9611C22.3663 89.972 22.2884 90.0101 22.2261 89.9665C22.0445 89.8413 21.8473 89.8849 21.645 89.874C21.3492 89.8577 21.0483 89.8468 20.7525 89.7597C20.5138 89.6889 20.2647 89.6726 20.0156 89.7052C19.7095 89.7433 19.4137 89.7324 19.118 89.6344C18.9 89.5637 18.6821 89.6072 18.4642 89.6344C18.3915 89.6399 18.3085 89.678 18.2463 89.6344C17.9349 89.4385 17.6028 89.5637 17.2811 89.5473C17.2552 89.5473 17.224 89.5582 17.1981 89.5473C16.8712 89.4439 16.5235 89.4929 16.1966 89.4276C15.7503 89.3405 15.3145 89.3459 14.8631 89.3405C14.4946 89.3405 14.1158 89.3895 13.7526 89.2588C13.6437 89.2207 13.5191 89.2152 13.3997 89.2152C12.9898 89.2152 12.5903 89.0628 12.1752 89.1064C12.1285 89.1064 12.0818 89.1064 12.0402 89.09C11.6096 88.9376 11.1478 88.9104 10.7119 88.7634C10.5614 88.7144 10.411 88.7198 10.2553 88.7525C10.0062 88.8069 9.76233 88.7144 9.53921 88.6C9.26939 88.4694 8.99957 88.3768 8.7038 88.3877C8.45473 88.3932 8.21084 88.3605 7.98253 88.2571C7.85799 88.1972 7.72826 88.1482 7.58297 88.1754C7.48438 88.1917 7.40655 88.1427 7.32352 88.0937C7.02775 87.9195 6.72162 87.7616 6.36878 87.7671C6.31689 87.7671 6.24422 87.7671 6.21308 87.729C6.03147 87.533 5.7824 87.5439 5.56447 87.4622C5.33097 87.3751 5.14414 87.1954 4.89507 87.1356C4.46439 87.0321 4.12195 86.7545 3.75353 86.5312C3.71202 86.5095 3.67571 86.4714 3.6342 86.4605C3.43702 86.4169 3.30728 86.2863 3.16718 86.1393C2.82471 85.7636 2.45114 85.4206 2.09829 85.0504C2.00489 84.9524 1.8803 84.9143 1.78171 84.8218C1.62086 84.6748 1.52231 84.4461 1.30437 84.3645C1.29918 84.3645 1.28878 84.3536 1.28359 84.3427C1.20576 84.0432 0.956715 83.9561 0.723213 83.8473C0.526033 83.7547 0.375559 83.6023 0.209513 83.4607C-0.0706895 83.2212 -0.0655107 82.9054 0.199125 82.6495C0.37036 82.4862 0.551945 82.3447 0.754313 82.2303C0.920359 82.1323 1.10201 82.0561 1.2473 81.92C1.27843 81.8873 1.32512 81.8601 1.36664 81.8601C1.71948 81.8492 2.03598 81.6805 2.37326 81.6042C2.44071 81.5879 2.49779 81.6042 2.56525 81.6042C2.75205 81.626 2.92849 81.6042 3.10492 81.528C3.17237 81.5008 3.23984 81.4681 3.31249 81.4573C3.69128 81.4083 4.06491 81.3212 4.43851 81.2286C4.55267 81.2014 4.67198 81.1905 4.79132 81.1959C4.91067 81.1959 5.03004 81.1959 5.1442 81.1524C5.50742 81.0054 5.88617 80.9509 6.27015 80.9237C6.45177 80.9128 6.62821 80.8312 6.80982 80.8312C7.12116 80.8312 7.41694 80.7386 7.72828 80.7332C7.7646 80.7332 7.81127 80.7332 7.83203 80.7114C8.01883 80.5481 8.27826 80.6025 8.46506 80.4555C8.47025 80.4555 8.48066 80.4446 8.49103 80.4446C8.97879 80.461 9.37317 80.0744 9.86612 80.1016C9.94395 80.1016 10.0269 80.0635 10.0944 80.0145C10.3383 79.824 10.66 79.7804 10.8779 79.5463C11.1529 79.5137 11.3501 79.3013 11.5888 79.1925C11.7133 79.1326 11.8379 79.0672 11.8586 78.893C11.8638 78.8386 11.9002 78.7841 11.9417 78.746C12.279 78.4575 12.4969 78.0437 12.8809 77.8096C13.0002 77.7389 13.0365 77.5973 13.0988 77.483C13.187 77.3197 13.3063 77.2162 13.4672 77.1618C13.5658 77.1291 13.6488 77.0747 13.7215 76.9985C13.8979 76.8188 14.1002 76.6664 14.2352 76.4486C14.2974 76.3506 14.422 76.3125 14.4791 76.2199C14.6399 75.9368 14.9149 75.7517 15.081 75.485C15.2107 75.2781 15.3404 75.0712 15.5117 74.9024C15.5272 74.8915 15.5376 74.8752 15.548 74.8589C15.714 74.4669 16.0254 74.1892 16.233 73.8299C16.399 73.5359 16.5858 73.2528 16.7778 72.9697C16.9646 72.6921 17.1047 72.3763 17.1929 72.0388C17.25 71.821 17.3434 71.6087 17.4523 71.4127C17.5198 71.2875 17.5717 71.1568 17.6287 71.0262C17.7325 70.7812 17.7948 70.5199 17.883 70.2749C18.0439 69.8448 18.1425 69.3983 18.3033 68.9683C18.3708 68.7886 18.4382 68.6089 18.4538 68.4184C18.4538 68.3912 18.459 68.3585 18.4693 68.3367C18.8014 67.6126 18.7963 66.8069 18.9882 66.0502C19.0609 65.7671 19.1439 65.484 19.2373 65.2063C19.2632 65.1301 19.284 65.0593 19.284 64.9831C19.284 64.6564 19.4189 64.3734 19.5279 64.0794C19.6576 63.7418 19.7822 63.3934 19.8444 63.0395C19.9067 62.6748 20.0572 62.3481 20.1713 62.0051C20.2855 61.6512 20.4049 61.3028 20.5242 60.9489C20.545 60.8836 20.5657 60.8183 20.6072 60.7693C20.7888 60.5352 20.8511 60.2575 20.9134 59.9744C20.9964 59.5879 21.1417 59.2286 21.2818 58.8638C21.3025 58.8094 21.3233 58.7549 21.3337 58.7005C21.3544 58.597 21.3233 58.5372 21.2195 58.4773C20.8978 58.2922 20.5397 58.2051 20.2232 58.0091C19.969 57.8512 19.7147 57.7096 19.4293 57.6171C19.3618 57.5953 19.3048 57.5354 19.2477 57.4919C19.092 57.3775 18.9467 57.2414 18.7444 57.2033C18.6821 57.1924 18.6251 57.1543 18.5784 57.1053C18.3397 56.8331 18.0231 56.6698 17.7274 56.4847C17.6651 56.4466 17.5924 56.403 17.5561 56.3432C17.4264 56.1308 17.2292 56.0437 17.0165 55.9838C16.8608 55.9403 16.7466 55.8695 16.7051 55.7007C16.674 55.581 16.5754 55.5156 16.5028 55.4285C16.1863 55.0529 15.9838 54.5956 15.74 54.1709C15.6725 54.0566 15.5999 53.9477 15.5169 53.8443C15.3093 53.5993 15.2211 53.3053 15.1588 52.9895C15.1069 52.7228 15.0654 52.4451 14.8786 52.2273C14.806 52.1402 14.806 52.0313 14.8112 51.9279C14.8112 51.77 14.7904 51.623 14.6918 51.4978C14.6555 51.4488 14.6192 51.378 14.6192 51.3127C14.6296 51.0841 14.5309 50.8881 14.4479 50.6921C14.3493 50.458 14.3027 50.2184 14.339 49.9625C14.3494 49.9081 14.3493 49.8373 14.3234 49.7938C14.1418 49.478 14.2612 49.1133 14.1626 48.7866C14.1418 48.7213 14.1625 48.6559 14.1729 48.5852C14.1988 48.3674 14.1989 48.1442 14.1885 47.9264C14.1729 47.4745 14.0899 47.0336 14.0899 46.5817C14.0899 46.4946 14.0795 46.4075 14.0536 46.3258C13.9809 46.0863 14.0173 45.8522 14.0691 45.6181C14.0795 45.5636 14.1003 45.4983 14.0847 45.4493C13.955 45.0138 14.0432 44.5673 14.0639 44.1373C14.0795 43.7834 14.1833 43.4241 14.2559 43.0647C14.2663 43.0157 14.2923 42.9667 14.2819 42.9232C14.2144 42.6292 14.3286 42.3516 14.3442 42.0685C14.3442 41.9813 14.3701 41.8997 14.4064 41.818C14.5258 41.5567 14.5362 41.2627 14.6088 40.9851C14.6763 40.7074 14.6295 40.408 14.6918 40.1467C14.7904 39.7111 14.8215 39.2538 15.0291 38.8455C15.0446 38.8128 15.0706 38.7693 15.0654 38.7366C15.0032 38.5025 15.1744 38.3446 15.2211 38.1486C15.3041 37.8056 15.5169 37.4899 15.439 37.1142C15.4286 37.0707 15.4287 37.0108 15.4442 36.9727C15.6206 36.548 15.6362 36.0689 15.8542 35.6606C15.8853 35.6007 15.9112 35.5354 15.9216 35.4701C15.9475 35.187 16.0254 34.9257 16.207 34.7079C16.2641 34.6371 16.2485 34.5446 16.2537 34.4575C16.264 34.3105 16.3004 34.1689 16.4353 34.0927C16.5962 33.9947 16.6792 33.8368 16.7259 33.6572C16.7881 33.4231 16.9023 33.238 17.1202 33.1345C17.1514 33.1182 17.1877 33.091 17.2033 33.0637C17.3745 32.6663 17.8259 32.4867 17.9401 32.0457C18.1788 31.8334 18.2514 31.4795 18.5264 31.2998C18.5472 31.2835 18.5679 31.2617 18.5835 31.2399C18.7547 30.9623 18.9883 30.75 19.2166 30.5322C19.3204 30.4342 19.3982 30.3199 19.4293 30.1729C19.4708 29.9987 19.559 29.868 19.7199 29.7754C19.9067 29.6666 20.0364 29.4815 20.1402 29.2909C20.2751 29.0568 20.4412 28.8772 20.6487 28.7084C20.8771 28.5233 21.1261 28.36 21.3181 28.1204C21.453 27.9516 21.6346 27.8101 21.8059 27.7067C22.0653 27.5488 22.2573 27.3147 22.4908 27.135C22.7295 26.9553 22.9371 26.7485 23.1809 26.5688C23.4093 26.4 23.6116 26.1823 23.8088 25.9754C23.8866 25.8937 23.98 25.8393 24.0682 25.774C24.2343 25.6596 24.3692 25.5017 24.5145 25.3656C24.9296 24.9791 25.3136 24.5545 25.7494 24.1897C25.9466 24.0209 26.1282 23.8304 26.3202 23.6562C26.4707 23.5201 26.6315 23.4384 26.8183 23.3731C27.14 23.2642 27.4669 23.2805 27.7939 23.2533C27.8976 23.2424 27.9911 23.2315 28.0897 23.188C28.1415 23.1662 28.2038 23.139 28.2505 23.1607C28.5566 23.286 28.8421 23.1172 29.1378 23.1117C29.4284 23.1117 29.7345 23.1662 30.0095 23.0573C30.3209 22.9375 30.6478 23.0573 30.954 22.9484C30.9695 22.943 30.9903 22.943 31.0058 22.9484C31.4521 23.0845 31.9139 23.0083 32.3653 23.0464C32.7545 23.0845 33.1489 23.09 33.5432 23.1063C33.6833 23.1063 33.8182 23.1172 33.9531 23.139C34.2229 23.188 34.498 23.2315 34.773 23.1989C34.9754 23.1771 35.1778 23.1988 35.3749 23.2424C35.6084 23.2914 35.8471 23.2751 36.0858 23.2914C36.4387 23.3132 36.7967 23.2914 37.1443 23.3458C37.3571 23.3785 37.5595 23.384 37.7722 23.3513C37.8449 23.3404 37.9279 23.3132 37.9901 23.3404C38.2392 23.4384 38.5039 23.3513 38.7478 23.3894C39.1681 23.4547 39.6091 23.4057 40.019 23.5745C40.0865 23.6017 40.1643 23.6235 40.237 23.6017C40.6365 23.4874 41.0412 23.5636 41.4304 23.6181C41.8403 23.6725 42.2658 23.6997 42.655 23.8576C42.8262 23.9284 42.9974 23.9719 43.1791 23.9883C43.3243 23.9991 43.4489 24.0645 43.5734 24.1679C43.755 24.3258 43.9989 24.3857 44.2168 24.4891C44.2999 24.5327 44.3777 24.5762 44.4452 24.6416C44.6112 24.8103 44.8292 24.8866 45.0315 24.9954C45.2702 25.1207 45.5348 25.1805 45.7683 25.3548C45.9603 25.4963 46.1783 25.6487 46.4273 25.6814C46.6038 25.7032 46.7335 25.8012 46.8113 25.9699C46.8943 26.1496 47.0345 26.2367 47.2109 26.3238C47.5326 26.4763 47.7661 26.7539 47.9425 27.0697C48.1501 27.4399 48.3265 27.821 48.4406 28.2402C48.5029 28.4579 48.5963 28.6866 48.7416 28.8772C48.7727 28.9207 48.8194 28.9751 48.8246 29.0241C48.8506 29.378 49.0374 29.6666 49.1308 29.9932C49.2138 30.2872 49.328 30.5703 49.4369 30.8534C49.4681 30.9405 49.5252 31.0331 49.5148 31.1256C49.4837 31.3216 49.5667 31.4795 49.6393 31.6428C49.8261 32.0566 49.9195 32.5084 50.044 32.944C50.1115 33.189 50.1167 33.4557 50.262 33.6789C50.2931 33.7225 50.3138 33.7878 50.3087 33.8423C50.2827 34.0219 50.3086 34.1852 50.4332 34.3268C50.4539 34.354 50.4695 34.3976 50.4695 34.4302C50.4436 34.9039 50.6408 35.3775 50.4799 35.8566C50.4592 35.9274 50.4696 36.0091 50.4799 36.0853C50.5007 36.254 50.4643 36.4119 50.3657 36.548C50.3086 36.6297 50.2724 36.7168 50.2724 36.8148C50.2827 37.3864 50.1893 37.9363 49.9506 38.4535C49.8832 38.6059 49.9143 38.7747 49.8676 38.9326C49.7534 39.3355 49.5563 39.7057 49.4266 40.1031C49.3124 40.4624 49.1723 40.8 48.9647 41.1103C48.861 41.2627 48.7728 41.4424 48.7987 41.6493C48.8091 41.7255 48.7832 41.8071 48.7365 41.867C48.5393 42.1229 48.4199 42.4278 48.2642 42.7109C48.1241 42.9667 47.9996 43.2335 47.8076 43.4567C47.8024 43.4622 47.7972 43.4731 47.792 43.4839C47.7038 43.9413 47.3406 44.2352 47.1849 44.649C47.0759 44.9375 46.8684 45.1662 46.7854 45.4656C46.7698 45.5201 46.7491 45.5854 46.7128 45.6181C46.4896 45.8086 46.3858 46.1026 46.1679 46.2986C45.9811 46.4674 45.8981 46.7069 45.7995 46.9301C45.7165 47.1316 45.6335 47.3112 45.4259 47.4038C45.3325 47.4473 45.2547 47.529 45.2235 47.6324C45.1146 47.9809 44.8706 48.2313 44.6631 48.5144C44.5853 48.6233 44.5074 48.7267 44.4607 48.8519C44.4244 48.939 44.3673 49.0153 44.3051 49.086C44.0456 49.38 43.781 49.6686 43.6565 50.0714C43.6046 50.2402 43.4697 50.3545 43.3348 50.458C43.1791 50.5777 43.0701 50.7193 43.013 50.9098C42.9663 51.0732 42.8729 51.1929 42.7328 51.2855C42.6187 51.3617 42.5045 51.4651 42.463 51.6013C42.3903 51.8408 42.214 51.9769 42.0583 52.1348C41.9908 52.2001 41.9285 52.2654 41.887 52.3526C41.7832 52.603 41.5809 52.7826 41.446 53.0059C41.254 53.338 40.9167 53.5285 40.7247 53.8606C40.6728 53.9531 40.5691 54.0239 40.486 54.1001C40.2058 54.3615 39.9982 54.6936 39.7388 54.9712C39.5883 55.1291 39.4119 55.2325 39.2563 55.3795C39.1058 55.5211 38.9605 55.6626 38.8411 55.8368C38.7218 56.0219 38.592 56.1907 38.3689 56.256C38.3274 56.2669 38.2755 56.2996 38.2548 56.3377C38.125 56.5664 37.8656 56.6535 37.7255 56.8712C37.6736 56.9475 37.5854 56.9965 37.5076 57.04C37.1496 57.2306 36.807 57.4538 36.4905 57.7096C36.4698 57.726 36.4438 57.7532 36.4231 57.7532C36.174 57.7695 36.0183 57.9546 35.8367 58.1016C35.6914 58.2214 35.5513 58.3412 35.349 58.3357C35.2971 58.3357 35.2452 58.3738 35.1985 58.4011C35.1725 58.4119 35.157 58.4392 35.131 58.4501C34.7522 58.5698 34.4046 58.7767 34.031 58.9237C33.7819 59.0217 33.5277 59.0925 33.2734 59.1632C33.2163 59.1796 33.154 59.2231 33.1125 59.2667C33.0295 59.3538 32.9413 59.4082 32.822 59.3865C32.7389 59.3756 32.6611 59.4137 32.5885 59.4518C32.5055 59.4953 32.4172 59.5062 32.3238 59.5171C31.8776 59.5716 31.4469 59.6804 31.011 59.7893C30.9488 59.8057 30.8865 59.8383 30.8242 59.8166C30.7205 59.7839 30.627 59.8002 30.5388 59.8656C30.4714 59.9145 30.3832 59.9363 30.3001 59.9254C30.0511 59.8764 29.8072 59.9527 29.5581 59.9309C29.4647 59.92 29.3765 59.9418 29.2883 59.9744C28.9873 60.0888 28.676 60.0833 28.3335 60.018V60.0234ZM26.3254 24.2877C26.0348 24.5762 25.8584 24.9464 25.5782 25.2295C25.3447 25.4582 25.1475 25.725 24.9088 25.9482C24.4522 26.3837 23.9592 26.7811 23.5908 27.3147C23.5701 27.3473 23.5441 27.3746 23.513 27.3963C23.2795 27.5814 23.0927 27.8155 22.854 27.9897C22.7139 28.0932 22.5842 28.2021 22.4649 28.3436C22.3351 28.5015 22.169 28.6158 22.086 28.8173C22.0705 28.8608 22.003 28.8935 21.9563 28.9153C21.8266 28.9643 21.7332 29.0405 21.6761 29.1711C21.6554 29.2201 21.6138 29.2746 21.5723 29.3018C21.4322 29.3944 21.37 29.5468 21.2766 29.672C21.0638 29.9605 20.9133 30.2926 20.6591 30.5485C20.6072 30.603 20.5812 30.6737 20.5397 30.7391C20.3633 31.0113 20.2492 31.3379 19.9586 31.5285C19.8496 31.5993 19.7874 31.7245 19.7459 31.8551C19.6421 32.1872 19.3204 32.3669 19.227 32.7044C19.2166 32.7316 19.1699 32.7534 19.1439 32.7752C18.9364 32.9603 18.7755 33.189 18.5576 33.3632C18.5057 33.4067 18.4746 33.4884 18.4486 33.5592C18.3708 33.7987 18.3085 34.0383 18.075 34.1744C18.0335 34.1961 18.0179 34.2669 17.9868 34.3159C17.9245 34.4085 17.8675 34.5119 17.7948 34.5936C17.5458 34.8603 17.3278 35.1325 17.1669 35.481C16.9801 35.8838 16.8089 36.2976 16.6065 36.695C16.565 36.7712 16.5598 36.8638 16.5702 36.9509C16.5961 37.1741 16.5235 37.381 16.4197 37.5552C16.316 37.724 16.2537 37.8982 16.233 38.0887C16.2018 38.3501 16.0928 38.5842 16.0098 38.8183C15.9164 39.0741 15.8541 39.3409 15.7659 39.6022C15.7192 39.7492 15.6154 39.8799 15.6206 40.0323C15.6206 40.3318 15.5117 40.5931 15.4338 40.8707C15.3508 41.1538 15.2055 41.4152 15.2781 41.7309C15.2885 41.7745 15.2678 41.8235 15.2574 41.8725C15.1485 42.5149 15.0654 43.1573 14.9564 43.7997C14.8942 44.1917 14.9357 44.6 14.8267 44.992C14.8111 45.041 14.8371 45.1063 14.8423 45.1608C14.8527 45.3241 14.889 45.4929 14.8631 45.6507C14.8112 45.9665 14.8682 46.2659 14.9253 46.5654C14.9513 46.7069 14.9564 46.8485 14.9616 46.99C14.9772 47.333 14.972 47.6814 15.0499 48.019C15.1329 48.3619 15.19 48.7104 15.2367 49.0588C15.2834 49.3964 15.356 49.7339 15.4234 50.066C15.465 50.2729 15.5428 50.4689 15.6621 50.6431C15.7296 50.7411 15.7763 50.8336 15.7763 50.9588C15.7763 51.0133 15.7971 51.0732 15.8178 51.1222C15.9631 51.4706 16.2537 51.7319 16.3471 52.113C16.3627 52.1729 16.4197 52.2219 16.4612 52.2709C16.5494 52.3852 16.6169 52.505 16.6792 52.6411C16.7415 52.7772 16.7933 52.9242 16.8608 53.0603C17.0735 53.4795 17.2448 53.9314 17.6339 54.2199C17.6547 54.2362 17.6599 54.2689 17.6806 54.2907C17.8986 54.5357 18.1165 54.7861 18.3915 54.9494C18.6561 55.1073 18.8793 55.3088 19.1076 55.5102C19.2632 55.6517 19.419 55.7661 19.6161 55.8368C19.9431 55.9621 20.2543 56.1145 20.5293 56.3432C20.6591 56.452 20.8147 56.5228 20.986 56.5283C21.0742 56.5283 21.1417 56.5609 21.1987 56.6371C21.3388 56.8222 21.5309 56.8876 21.7436 56.9366C21.9252 56.9801 22.1431 56.9638 22.2832 57.1217C22.4596 57.3285 22.7191 57.4048 22.937 57.4592C23.212 57.5245 23.4819 57.6171 23.7569 57.6661C23.814 57.677 23.8658 57.677 23.9073 57.7205C24.0682 57.8839 24.2758 57.922 24.4833 57.9546C24.6909 57.9873 24.8932 58.0363 25.0697 58.1778C25.1942 58.2758 25.3447 58.3248 25.4952 58.3738C25.599 58.4119 25.7131 58.4119 25.8117 58.4664C26.0608 58.5916 26.3047 58.744 26.5952 58.7386C26.6575 58.7386 26.7198 58.7658 26.7768 58.793C26.8702 58.8366 26.9689 58.8584 27.0726 58.8529C27.2491 58.842 27.4151 58.8856 27.5863 58.9346C27.768 58.9945 27.9599 59.0435 28.1519 59.0598C28.3439 59.0761 28.5359 59.1632 28.7227 59.1088C28.8887 59.0653 29.0288 59.0816 29.1689 59.1578C29.2104 59.1796 29.252 59.1959 29.2987 59.1905C29.6723 59.1524 30.0459 59.1415 30.4143 59.0816C30.8605 59.0054 31.3275 59.0163 31.753 58.8094C31.779 58.7985 31.8101 58.8094 31.8361 58.8039C32.0073 58.7767 32.1786 58.744 32.3187 58.6134C32.3809 58.5535 32.4639 58.5317 32.5469 58.5372C32.63 58.5426 32.7078 58.5099 32.7908 58.4991C33.0399 58.4609 33.2475 58.2922 33.4966 58.2704C33.6678 58.2595 33.8182 58.2051 33.9531 58.0907C34.2022 57.8839 34.5084 57.8076 34.7938 57.6933C34.991 57.6171 35.1985 57.5627 35.3646 57.4266C35.5565 57.2796 35.7537 57.1489 35.982 57.0727C36.0495 57.0509 36.1169 57.0019 36.1688 56.9529C36.3919 56.7297 36.6514 56.5446 36.8953 56.3486C37.2014 56.1036 37.466 55.8096 37.7877 55.5919C37.9123 55.5102 38.0264 55.4068 38.1198 55.2924C38.2911 55.0855 38.4883 54.9222 38.6958 54.7589C38.8463 54.6391 39.002 54.5085 39.1161 54.3506C39.2199 54.2036 39.3341 54.0675 39.4482 53.9314C39.6454 53.6973 39.8997 53.5122 40.0398 53.2236C40.0554 53.191 40.0813 53.1529 40.1124 53.142C40.2889 53.0712 40.3407 52.9079 40.3926 52.7445C40.4082 52.701 40.4185 52.6411 40.4497 52.6139C40.7039 52.4342 40.8233 52.1293 41.0412 51.9225C41.145 51.8245 41.228 51.7156 41.3007 51.5958C41.4408 51.3726 41.5809 51.1494 41.7417 50.9425C41.887 50.7574 42.0583 50.605 42.1154 50.36C42.1361 50.2674 42.1828 50.1803 42.2658 50.1204C42.4059 50.017 42.4734 49.8591 42.5668 49.723C42.7069 49.5216 42.8573 49.3365 42.9196 49.0915C42.9196 49.0751 42.9404 49.0588 42.9508 49.0479C43.1272 48.8628 43.1843 48.5743 43.4178 48.4273C43.4593 48.4001 43.4696 48.3293 43.4956 48.2803C43.6097 48.0625 43.7187 47.8339 43.8588 47.6433C44.0145 47.4419 44.1494 47.2241 44.2843 47.0118C44.4452 46.7559 44.6735 46.5599 44.798 46.255C44.8914 46.0318 45.0678 45.8304 45.2028 45.6126C45.348 45.3622 45.5089 45.1227 45.6957 44.894C45.8825 44.6653 46.0589 44.3822 46.1471 44.0774C46.2561 43.7072 46.417 43.3696 46.6505 43.0702C46.6816 43.0266 46.6972 42.9667 46.7179 42.9123C46.801 42.7054 46.8892 42.5094 47.0812 42.3842C47.1382 42.3461 47.1849 42.3026 47.1849 42.2263C47.1849 42.0793 47.2628 41.9759 47.3458 41.867C47.4236 41.769 47.4911 41.6601 47.5015 41.5349C47.5274 41.23 47.709 40.9905 47.7713 40.702C47.8387 40.3971 48.067 40.1793 48.2383 39.9289C48.3057 39.8309 48.3472 39.7383 48.3524 39.6131C48.3576 39.3627 48.4199 39.1231 48.5756 38.9163C48.6223 38.8564 48.6586 38.791 48.6793 38.7148C48.7935 38.2031 48.9181 37.6968 48.9855 37.1687C49.0374 36.793 49.0011 36.3956 49.219 36.0526C49.2657 35.9764 49.2812 35.8621 49.2709 35.775C49.2449 35.5027 49.2864 35.236 49.2813 34.9692C49.2813 34.795 49.2709 34.6317 49.2864 34.4575C49.3072 34.2016 49.1879 33.9511 49.2346 33.6898C49.2346 33.6735 49.2242 33.6517 49.2138 33.6354C49.0477 33.3632 49.0582 33.0529 49.0478 32.748C49.0478 32.6282 49.0166 32.5302 48.9647 32.4213C48.8817 32.2634 48.7416 32.1219 48.7572 31.9314C48.7779 31.7136 48.6898 31.5176 48.669 31.3107C48.6482 31.0548 48.3473 30.8915 48.4718 30.5975C48.4718 30.5866 48.4562 30.5649 48.4458 30.5485C48.2383 30.2273 48.1086 29.8734 48.0671 29.4869C48.0567 29.3998 48.0463 29.3181 47.9684 29.2582C47.9062 29.2092 47.8958 29.133 47.8647 29.0623C47.7557 28.8064 47.6883 28.5451 47.6312 28.2728C47.5534 27.8863 47.3666 27.5433 47.2316 27.1731C47.1279 26.89 46.9774 26.8356 46.7076 26.9445C46.4637 27.0479 46.2613 27.2439 45.9967 27.2983C45.8203 27.3364 45.7061 27.4943 45.5504 27.5651C45.1613 27.7448 44.7617 27.8972 44.3414 27.9734C44.1598 28.0061 43.9989 28.1313 43.8173 28.1422C43.48 28.1585 43.1479 28.2511 42.8107 28.262C42.5927 28.2674 42.3748 28.311 42.1672 28.3817C42.0323 28.4253 41.9026 28.4416 41.7677 28.36C41.6898 28.311 41.5913 28.2837 41.503 28.3273C41.1346 28.4906 40.7507 28.3872 40.3719 28.4198C40.2214 28.4307 40.0657 28.409 39.9153 28.4579C39.7388 28.5178 39.5676 28.5124 39.3808 28.4852C38.9916 28.4307 38.5921 28.3872 38.2029 28.4307C37.6632 28.4906 37.1288 28.4852 36.5943 28.4253C36.449 28.409 36.2985 28.3708 36.1584 28.3926C35.6499 28.4634 35.1414 28.3491 34.6329 28.409C34.5862 28.409 34.5395 28.409 34.498 28.3926C33.948 28.2075 33.346 28.3327 32.8012 28.1095C32.7752 28.0986 32.7442 28.1041 32.7182 28.0986C32.3757 28.0714 32.0332 28.0769 31.6907 27.9897C31.2756 27.8863 30.8502 27.8101 30.4351 27.7067C29.9836 27.5923 29.527 27.4889 29.1378 27.184C29.0859 27.1459 29.034 27.1023 28.9718 27.0806C28.6967 26.9771 28.4269 26.8628 28.2298 26.6287C28.1934 26.5906 28.1364 26.5688 28.0845 26.5525C27.7576 26.4436 27.4722 26.2857 27.2387 26.0081C27.0104 25.7358 26.8287 25.4691 26.7561 25.0989C26.699 24.8321 26.5382 24.5871 26.4188 24.3312C26.4085 24.3095 26.3773 24.2986 26.3358 24.2714L26.3254 24.2877ZM23.0927 59.2231C22.7917 58.9945 22.4544 58.9509 22.1535 58.8203C21.9615 58.7332 21.837 58.8203 21.8318 59.0544C21.8214 59.3483 21.728 59.6151 21.6606 59.8928C21.6087 60.0888 21.6295 60.2956 21.562 60.4807C21.4427 60.8128 21.3026 61.134 21.1728 61.4607C21.0327 61.8037 20.8874 62.1412 20.82 62.506C20.7836 62.7074 20.7058 62.8925 20.6176 63.0667C20.5553 63.1974 20.5138 63.3335 20.4775 63.4696C20.41 63.7473 20.3841 64.0413 20.1921 64.2699C20.1714 64.2971 20.1454 64.3461 20.1558 64.3733C20.2284 64.5693 20.1143 64.7218 20.0624 64.8905C19.9223 65.3261 19.8911 65.7943 19.668 66.2026C19.6525 66.2353 19.6472 66.2734 19.6317 66.3115C19.5123 66.6654 19.4656 67.0356 19.367 67.3949C19.1439 68.2115 18.952 69.039 18.6406 69.8284C18.6251 69.872 18.6095 69.921 18.6095 69.97C18.5783 70.3347 18.3344 70.6396 18.3292 71.0098C18.0438 71.6631 17.8415 72.3546 17.5302 73.0024C17.4057 73.2692 17.25 73.5142 17.1202 73.7809C17.058 73.9007 16.9283 74.0096 16.8868 74.1511C16.7934 74.4723 16.5339 74.6738 16.3886 74.9623C16.2018 75.3216 15.9268 75.6211 15.7192 75.9695C15.5636 76.2254 15.3871 76.4649 15.2159 76.7099C14.9668 77.0638 14.7645 77.4503 14.5414 77.8205C14.3857 78.0764 14.2767 78.3649 14.1054 78.6154C14.0328 78.7243 14.0069 78.8713 13.8823 78.9366C13.7734 78.9965 13.737 79.0999 13.68 79.2034C13.5762 79.3939 13.5295 79.6226 13.3686 79.775C13.1922 79.9492 13.078 80.1996 12.8186 80.2759C12.7667 80.2922 12.7408 80.3793 12.6889 80.4174C12.4657 80.6134 12.2634 80.8747 11.9676 80.9128C11.6926 80.9509 11.4954 81.1088 11.2827 81.2395C11.1166 81.3429 10.9558 81.3919 10.769 81.4137C10.5251 81.4409 10.2656 81.3756 10.0425 81.5661C9.94393 81.6478 9.78306 81.6587 9.64296 81.6587C9.52362 81.6587 9.4095 81.7131 9.29535 81.7186C8.86985 81.7512 8.44431 81.7567 8.01363 81.773C7.99806 81.773 7.97732 81.773 7.96175 81.7621C7.82165 81.6968 7.67639 81.7022 7.53629 81.7621C7.31835 81.8438 7.09521 81.8438 6.8669 81.8656C6.42065 81.9037 5.97442 81.9037 5.52817 81.9363C5.00928 81.9744 4.49039 82.0071 3.97149 82.0452C3.84177 82.0561 3.72762 82.116 3.59271 82.1106C3.12571 82.0997 2.66906 82.1704 2.21243 82.3011C1.98412 82.3664 1.76616 82.4753 1.53785 82.5352C1.24208 82.6114 1.03973 82.8292 0.780283 82.9816C1.25767 83.2756 1.75582 83.4716 2.15536 83.8473C2.35773 84.0378 2.58083 84.2066 2.77801 84.408C2.95962 84.5931 3.2139 84.702 3.37995 84.9198C3.37995 84.9252 3.39547 84.9307 3.40585 84.9307C3.55114 84.9742 3.66534 85.0722 3.76912 85.1865C3.80544 85.2301 3.84695 85.2845 3.90403 85.2791C4.16867 85.2627 4.34507 85.4479 4.52668 85.6003C4.90028 85.9052 5.32062 86.1012 5.79281 86.1883C5.98999 86.2264 6.19234 86.2481 6.3532 86.3951C6.42065 86.455 6.51405 86.4823 6.60745 86.4986C7.14191 86.5911 7.6556 86.7708 8.15374 86.9831C8.33016 87.0539 8.50142 87.1029 8.68822 87.0702C8.75048 87.0593 8.81793 87.043 8.87501 87.0866C9.00992 87.1846 9.18633 87.2172 9.31606 87.3152C9.50805 87.4568 9.68452 87.4459 9.88689 87.3697C10.0737 87.2989 10.2709 87.3424 10.4006 87.4677C10.5926 87.6473 10.7742 87.6419 10.9817 87.5493C11.0803 87.5058 11.1685 87.4785 11.2723 87.533C11.5058 87.6473 11.7549 87.7072 12.0091 87.729C12.0922 87.7344 12.1752 87.7562 12.2374 87.8161C12.336 87.9032 12.4502 87.9086 12.5747 87.8978C12.9483 87.876 13.3219 87.8977 13.6956 87.9522C13.9394 87.9903 14.1937 88.0175 14.4272 87.9522C14.6659 87.8814 14.8682 87.9032 15.081 88.023C15.1795 88.0774 15.2885 88.0937 15.4027 88.072C15.7451 88.0012 16.0721 88.0339 16.3886 88.1863C16.4664 88.2244 16.5443 88.2462 16.6273 88.219C16.892 88.1318 17.1513 88.1427 17.416 88.2081C17.4938 88.2298 17.5821 88.2189 17.6599 88.2081C17.8675 88.1808 18.0646 88.2135 18.2359 88.3333C18.3137 88.3877 18.3863 88.4041 18.4642 88.3496C18.6458 88.2081 18.8326 88.2462 19.009 88.3278C19.31 88.4639 19.6057 88.4857 19.9119 88.3714C19.9638 88.3496 20.0208 88.3496 20.0727 88.3605C20.7628 88.4803 21.4737 88.4476 22.1639 88.5619C22.2365 88.5728 22.3092 88.5619 22.3818 88.5565C22.7347 88.5075 23.0875 88.4367 23.4455 88.5402C23.7776 88.6327 24.089 88.4585 24.4159 88.4803C24.4678 88.4803 24.5197 88.4422 24.5715 88.4204C24.6131 88.4041 24.6598 88.3932 24.7013 88.3877C25.106 88.3224 25.5159 88.3768 25.9207 88.3224C26.1126 88.2952 26.2995 88.3115 26.4811 88.2081C26.533 88.1808 26.6108 88.1754 26.6679 88.1917C26.9481 88.2571 27.2231 88.2571 27.4929 88.1318C27.55 88.1046 27.6382 88.1427 27.7109 88.1427C27.9184 88.1427 28.1208 88.1318 28.3283 88.0447C28.6189 87.9195 28.951 87.9032 29.2364 87.7562C29.252 87.7507 29.2727 87.7562 29.2935 87.7562C29.4751 87.7562 29.6308 87.6745 29.7916 87.6146C29.8643 87.5874 29.9161 87.5439 29.9525 87.4677C29.9888 87.386 29.9888 87.3152 29.9006 87.2771C29.6411 87.1791 29.3973 87.0321 29.1222 87.0158C28.9562 87.0103 28.7953 86.9831 28.6345 86.9559C28.1882 86.8851 27.7575 86.6728 27.2853 86.749C27.2386 86.7545 27.1764 86.7327 27.1297 86.7055C26.6938 86.4278 26.1905 86.455 25.7183 86.3897C25.2046 86.3189 24.6857 86.259 24.172 86.1665C23.788 86.0957 23.404 86.0032 23.0149 85.9378C22.8592 85.9106 22.7139 85.8671 22.5738 85.7963C22.2469 85.6275 21.8941 85.5023 21.536 85.437C21.3804 85.4043 21.2403 85.3607 21.095 85.3009C20.7577 85.1593 20.4204 85.0232 20.052 84.9797C19.6317 84.9361 19.2373 84.8 18.8793 84.5496C18.6406 84.3862 18.4019 84.2284 18.1113 84.1848C17.9764 84.163 17.8467 84.1031 17.7222 84.0487C17.5924 83.9943 17.4679 83.9126 17.4368 83.7602C17.3952 83.5642 17.2759 83.4444 17.1202 83.3464C17.0216 83.2865 16.9334 83.2157 16.9075 83.096C16.8452 82.7965 16.7622 82.4971 16.7778 82.1868C16.7933 81.8873 16.7778 81.5934 16.757 81.2939C16.7467 81.1578 16.7466 81.0272 16.8037 80.8965C16.8816 80.7168 16.8764 80.5209 16.8764 80.3303C16.8764 80.069 16.923 79.8131 17.032 79.579C17.0839 79.4756 17.0995 79.3885 17.058 79.2796C16.9801 79.089 17.0009 78.9039 17.115 78.7352C17.1825 78.6317 17.1981 78.5174 17.1669 78.4031C17.115 78.218 17.1514 78.0492 17.2085 77.8695C17.2656 77.6953 17.2863 77.5157 17.416 77.3741C17.4471 77.336 17.4627 77.2924 17.4627 77.2434C17.4472 77.0366 17.5509 76.8569 17.6599 76.7208C17.8571 76.4649 17.9505 76.1546 18.0387 75.8661C18.1477 75.5122 18.3396 75.2128 18.4538 74.8698C18.542 74.6139 18.6925 74.3961 18.7755 74.1457C18.8377 73.9606 18.9156 73.7918 19.0713 73.672C19.1699 73.6013 19.2166 73.5033 19.2062 73.3726C19.1751 73.1113 19.2788 72.9044 19.4501 72.7302C19.5383 72.6431 19.6109 72.5397 19.6317 72.4144C19.6628 72.2348 19.7406 72.066 19.7614 71.8863C19.7873 71.7012 19.9223 71.5597 19.9223 71.3692C19.9223 71.2058 19.9742 71.0697 20.0572 70.9391C20.0935 70.8846 20.1246 70.8356 20.1143 70.754C20.0624 70.4001 20.1973 70.0789 20.3114 69.7577C20.3374 69.676 20.3633 69.5998 20.3841 69.5127C20.436 69.2949 20.4671 69.0826 20.4412 68.8594C20.4308 68.7614 20.4619 68.6634 20.519 68.5872C20.5969 68.4837 20.6176 68.3694 20.6124 68.2387C20.6072 68.0863 20.6332 67.9339 20.6902 67.7869C20.7214 67.7052 20.7577 67.6235 20.7421 67.5364C20.7058 67.2806 20.8355 67.0465 20.8459 66.8015C20.8459 66.7252 20.8822 66.649 20.9393 66.6C21.0846 66.4748 21.0742 66.3169 21.0431 66.1536C21.0172 66.0175 20.9912 65.8705 21.069 65.7616C21.2299 65.5493 21.235 65.2989 21.2506 65.0539C21.261 64.8633 21.3129 64.7 21.4374 64.5584C21.5049 64.4822 21.5828 64.3951 21.562 64.2808C21.5361 64.1284 21.5931 63.9977 21.6243 63.8616C21.6865 63.6003 21.7851 63.3553 21.7747 63.0722C21.7695 62.9415 21.811 62.8109 21.9252 62.7183C22.003 62.6584 22.029 62.5659 21.9979 62.457C21.8837 62.065 22.0238 61.7111 22.2002 61.3845C22.3611 61.085 22.4545 60.7747 22.4908 60.4372C22.5167 60.2085 22.522 59.9744 22.7295 59.822C22.771 59.7893 22.7814 59.724 22.8125 59.675C22.8955 59.528 22.9526 59.3647 23.0875 59.2395L23.0927 59.2231ZM45.566 26.6723C45.3376 26.4926 45.1249 26.3783 44.8655 26.3129C44.4971 26.2204 44.1598 25.9917 43.8536 25.7522C43.5579 25.5235 43.2517 25.3548 42.8833 25.3166C42.7432 25.3003 42.6187 25.2513 42.4993 25.1697C42.3333 25.0444 42.162 24.9356 41.9441 24.9791C41.887 24.99 41.8352 24.9682 41.7885 24.9355C41.4616 24.7232 41.1035 24.7777 40.7507 24.7994C40.6469 24.7994 40.5535 24.7994 40.4549 24.7831C40.1332 24.7178 39.827 24.5653 39.4949 24.549C39.2614 24.5381 39.0435 24.4674 38.8255 24.402C38.701 24.3639 38.5765 24.3204 38.4519 24.3204C38.1769 24.3149 37.9123 24.255 37.6425 24.1951C37.1444 24.0863 36.6306 24.0209 36.1169 24.1135C36.0391 24.1298 35.9509 24.1298 35.8731 24.1135C35.131 23.9284 34.3631 24.0481 33.6159 23.8903C33.5277 23.8739 33.4343 23.8957 33.3461 23.9066C33.1904 23.9229 33.0399 23.9393 32.8842 23.8848C32.7701 23.8467 32.6507 23.8522 32.5314 23.8522C32.2823 23.8522 32.0332 23.8848 31.7894 23.8522C31.3172 23.8032 30.8501 23.7596 30.3883 23.9066C30.3572 23.9175 30.3157 23.9175 30.2794 23.9066C29.9525 23.8358 29.6256 23.9338 29.2987 23.912C29.1897 23.9066 29.0755 23.9012 28.9718 23.9338C28.7019 24.01 28.4373 24.0209 28.1623 24.0155C27.9288 24.01 27.6849 23.9828 27.4514 24.0536C27.2594 24.1135 27.2335 24.1353 27.3321 24.3204C27.4411 24.5218 27.5656 24.7069 27.6123 24.9355C27.6226 24.9954 27.6797 25.0499 27.7368 25.0825C27.8873 25.1697 28.0326 25.2676 28.209 25.3003C28.3958 25.3384 28.5878 25.3874 28.7123 25.5671C28.7538 25.627 28.8109 25.6487 28.8836 25.6379C28.9666 25.6215 29.0444 25.6651 29.1274 25.676C29.5581 25.7413 29.9317 25.9863 30.352 26.0788C30.5129 26.1115 30.6686 26.1659 30.8346 26.1605C30.9903 26.1605 31.1719 26.1278 31.2913 26.1986C31.5974 26.3783 31.9502 26.3129 32.2616 26.449C32.4536 26.5307 32.6767 26.498 32.8738 26.5688C32.988 26.6124 33.1074 26.6069 33.2215 26.5525C33.3201 26.5035 33.4135 26.5361 33.5121 26.5634C33.8078 26.645 34.1088 26.7212 34.4201 26.7321C34.6225 26.7376 34.8197 26.645 35.0169 26.6995C35.3282 26.7866 35.6448 26.841 35.9613 26.841C36.3141 26.841 36.6669 26.8628 37.0198 26.841C37.3311 26.8301 37.6477 26.8737 37.959 26.8084C37.9694 26.8084 37.9746 26.8084 37.9849 26.8084C38.3585 26.9009 38.7425 26.9445 39.1213 26.9227C39.2822 26.9118 39.4275 27.0043 39.5832 26.9662C39.9101 26.8791 40.2473 27.0915 40.5742 26.9227C40.6157 26.9009 40.678 26.9499 40.7351 26.9499C40.9011 26.9499 41.0413 27.1023 41.2021 27.0751C41.3837 27.0425 41.5653 27.0533 41.7521 27.0588C42.2606 27.0806 42.7692 27.0152 43.2829 27.0697C43.5216 27.0915 43.781 27.0152 44.0352 27.037C44.1027 27.037 44.1754 26.9935 44.2428 26.9662C44.3103 26.939 44.3777 26.9064 44.4504 26.9009C44.8292 26.89 45.182 26.7702 45.5712 26.6614L45.566 26.6723Z" fill="#FF4D00"/>
<path d="M29.9215 56.0873C29.7295 56.0056 29.5271 56.0111 29.3299 56.0546C29.2625 56.071 29.1794 56.071 29.112 56.0492C28.8525 55.9675 28.5879 55.9784 28.3232 55.9458C28.3025 55.9458 28.2869 55.9458 28.2714 55.9403C27.8511 55.777 27.3996 55.9022 26.9741 55.7879C26.9119 55.7715 26.8444 55.777 26.7822 55.7879C26.4656 55.8369 26.1647 55.7715 25.8585 55.7062C25.625 55.6572 25.4019 55.5647 25.158 55.6028C25.0802 55.6137 25.0127 55.5755 24.9452 55.5483C24.8311 55.5048 24.717 55.4667 24.5976 55.4667C24.3745 55.4612 24.1617 55.4177 23.9801 55.2707C23.9127 55.2162 23.8245 55.2162 23.7414 55.1999C23.482 55.1563 23.2536 55.0475 23.0565 54.8624C22.9838 54.797 22.9008 54.7535 22.8126 54.7371C22.6517 54.7099 22.5169 54.6337 22.3819 54.552C22.1277 54.3996 21.8682 54.2581 21.5724 54.2036C21.4946 54.1927 21.4479 54.1383 21.396 54.0784C21.2248 53.8606 21.0173 53.6919 20.7838 53.5557C20.7578 53.5394 20.7371 53.5231 20.7111 53.5176C20.2337 53.4033 19.8964 53.044 19.4969 52.7827C19.2893 52.6466 19.1959 52.4234 19.0091 52.2981C18.7964 52.162 18.7134 51.9388 18.5733 51.7537C18.4487 51.5904 18.2827 51.4652 18.1581 51.3018C18.0803 51.2039 18.0025 51.1167 17.961 50.997C17.9402 50.9316 17.9142 50.8663 17.8727 50.8173C17.7015 50.6104 17.5666 50.3872 17.5251 50.1096C17.5251 50.0932 17.5147 50.066 17.5043 50.0551C17.1982 49.8156 17.2397 49.4236 17.1204 49.097C17.1152 49.0806 17.1203 49.0534 17.11 49.0425C16.8609 48.7485 16.918 48.3565 16.8142 48.0136C16.8038 47.9863 16.7934 47.9591 16.7934 47.9319C16.8038 47.333 16.6015 46.7614 16.6015 46.1625C16.6015 45.9502 16.6067 45.7433 16.4717 45.5582C16.4147 45.482 16.4302 45.3677 16.451 45.2751C16.534 44.8777 16.4769 44.4694 16.5288 44.072C16.5755 43.729 16.5963 43.386 16.6326 43.043C16.643 42.9287 16.6586 42.8089 16.6274 42.7C16.5288 42.3516 16.56 41.9923 16.5496 41.6384C16.5444 41.5186 16.56 41.3988 16.6067 41.3009C16.7779 40.9198 16.7467 40.5006 16.8297 40.1031C16.8505 40.0106 16.8402 39.9017 16.8921 39.8255C17.0529 39.575 17.1359 39.2865 17.2293 39.0088C17.3227 38.7257 17.5147 38.5733 17.743 38.4426C17.8156 38.3991 17.8987 38.3773 17.9506 38.312C18.1426 38.0833 18.4279 38.0017 18.6511 37.8111C18.7912 37.6913 18.9884 37.7512 19.1596 37.724C19.5073 37.6696 19.8601 37.6206 20.2077 37.5661C20.27 37.5552 20.3427 37.5226 20.3946 37.5389C20.5918 37.6042 20.7941 37.5716 20.9913 37.5988C21.1106 37.6151 21.2248 37.626 21.3442 37.5933C21.3805 37.5825 21.422 37.5716 21.4531 37.5825C21.7022 37.6859 21.9772 37.6097 22.2314 37.6913C22.3715 37.7349 22.522 37.724 22.6673 37.7403C23.1447 37.7893 23.6117 37.8765 24.058 38.0507C24.3797 38.1813 24.7014 38.2902 25.0127 38.4699C25.3863 38.6876 25.7599 38.9108 26.1335 39.1286C26.4137 39.2865 26.6628 39.5043 26.9223 39.7003C27.3218 40.0051 27.6799 40.359 28.0379 40.7183C28.1521 40.8327 28.3129 40.9089 28.4582 40.9796C28.6035 41.0504 28.7332 41.1375 28.8318 41.2627C28.9407 41.4097 29.1276 41.4424 29.2469 41.584C29.5375 41.9324 29.9318 42.1501 30.2847 42.4169C30.3625 42.4768 30.4611 42.5149 30.5545 42.553C30.6427 42.5857 30.7309 42.6129 30.8036 42.6728C30.9748 42.8361 31.1772 42.8906 31.4055 42.9069C31.5923 42.9232 31.7687 43.0158 31.9555 43.0539C32.2772 43.1192 32.6041 43.1845 32.931 43.1954C33.2891 43.2118 33.6367 43.3152 33.9844 43.3043C34.3061 43.2934 34.6434 43.3043 34.9599 43.2118C35.1208 43.1682 35.2817 43.1301 35.4425 43.141C35.6605 43.1519 35.8576 43.1192 36.0496 43.0049C36.117 42.9613 36.2053 42.9232 36.2831 42.9287C36.719 42.9613 37.0511 42.651 37.4402 42.5367C37.5388 42.5095 37.6219 42.4115 37.7049 42.3352C37.7931 42.259 37.8294 42.1556 37.819 42.0304C37.7879 41.6928 37.8294 41.3553 37.8657 41.0286C37.9072 40.702 38.037 40.4026 38.229 40.1195C38.4313 39.8255 38.7167 39.6077 38.8464 39.2484C38.9035 39.0851 39.0851 38.9871 39.2408 38.9108C39.3498 38.8564 39.4432 38.7911 39.5106 38.6767C39.5936 38.5461 39.713 38.4426 39.8479 38.3882C40.1333 38.2739 40.3408 38.0616 40.5691 37.871C40.6937 37.7676 40.813 37.6641 40.9895 37.6968C41.0413 37.7022 41.1088 37.6913 41.1452 37.6587C41.3683 37.479 41.6381 37.4736 41.8923 37.4137C42.0947 37.3647 42.2712 37.3865 42.4424 37.5062C42.6032 37.6206 42.7744 37.6968 42.982 37.6369C43.2363 37.5661 43.4231 37.7403 43.6099 37.8656C43.859 38.0343 44.108 38.214 44.3052 38.459C44.3778 38.5461 44.4505 38.6277 44.4712 38.7475C44.4816 38.8129 44.5075 38.8836 44.5439 38.9326C44.6788 39.1014 44.7411 39.2865 44.7774 39.5043C44.8085 39.6894 44.8396 39.8636 44.7981 40.0432C44.6892 40.5659 44.6166 41.1049 44.2637 41.5295C44.2481 41.5513 44.2222 41.5785 44.2222 41.6003C44.1806 42.0195 43.859 42.2754 43.667 42.6075C43.5321 42.8361 43.3141 42.994 43.0806 43.1192C42.8523 43.239 42.6291 43.3697 42.4527 43.5765C42.3386 43.7072 42.1518 43.6854 42.0117 43.7889C41.7159 44.0121 41.3994 44.2026 41.0932 44.4095C40.9168 44.5293 40.7352 44.6327 40.564 44.7688C40.455 44.8559 40.346 44.943 40.2786 45.0682C40.2526 45.1172 40.2267 45.1771 40.1852 45.2098C39.9101 45.4112 39.8479 45.7433 39.7234 46.0373C39.7078 46.0809 39.6974 46.1299 39.7026 46.1789C39.7389 46.4402 39.6715 46.6906 39.6196 46.941C39.6092 46.9792 39.5988 47.0173 39.604 47.0554C39.6818 47.5018 39.5158 47.921 39.5054 48.362C39.4951 48.656 39.438 48.95 39.4587 49.2494C39.4691 49.4127 39.3965 49.5706 39.3342 49.7176C39.2201 49.9898 39.0955 50.2566 38.9762 50.5288C38.9243 50.6431 38.8672 50.7574 38.779 50.8391C38.5766 51.0351 38.4624 51.2855 38.369 51.5468C38.3275 51.6612 38.2757 51.7592 38.1563 51.7864C37.9591 51.8299 37.8657 51.9824 37.7983 52.1511C37.7152 52.358 37.57 52.5159 37.4351 52.6847C37.2846 52.8752 37.1081 53.0494 37.0251 53.289C36.994 53.3761 36.9525 53.4686 36.8591 53.5122C36.5945 53.632 36.4543 53.8878 36.2727 54.1056C36.0911 54.3234 35.9198 54.552 35.65 54.6773C35.484 54.7589 35.3595 54.944 35.1779 55.0039C34.8977 55.1019 34.6382 55.2652 34.3321 55.2979C34.0778 55.3251 33.8287 55.3904 33.59 55.4776C33.4396 55.5266 33.2995 55.581 33.1438 55.5973C33.0815 55.6028 33.0089 55.6082 32.957 55.6463C32.7235 55.8205 32.4537 55.8097 32.1942 55.826C32.1683 55.826 32.1371 55.8205 32.1112 55.826C31.5975 56.0655 31.0267 55.9185 30.5078 56.0927C30.3107 56.1581 30.1083 56.1417 29.9111 56.0927L29.9215 56.0873Z" fill="#FF4D00"/>
<path d="M78.1112 75.5448C78.0956 75.3107 77.9815 75.1311 77.831 74.9678C77.7635 74.8915 77.7064 74.7935 77.6805 74.6955C77.5923 74.358 77.3951 74.1021 77.172 73.8571C76.9904 73.6611 76.9644 73.3889 76.9021 73.1439C76.8347 72.8717 76.7257 72.6213 76.5908 72.3818C76.5286 72.2729 76.4663 72.1694 76.4507 72.0388C76.4144 71.7284 76.295 71.4508 76.1809 71.1677C75.9422 70.5743 75.6309 70.019 75.47 69.3874C75.3766 69.0227 75.2054 68.6906 75.0497 68.3585C74.9719 68.1952 74.8992 68.0373 74.92 67.8413C74.9356 67.6997 74.8681 67.5582 74.7955 67.433C74.6346 67.1499 74.5412 66.845 74.4686 66.5238C74.3959 66.1971 74.2766 65.8814 74.1313 65.5819C74.0016 65.3206 73.9341 65.0484 73.8303 64.7816C73.7681 64.6238 73.6902 64.4713 73.6539 64.3026C73.6072 64.1011 73.5086 63.9106 73.5138 63.6928C73.5138 63.5839 73.4775 63.4533 73.4048 63.3716C73.244 63.2028 73.2025 62.9851 73.1558 62.7727C73.0831 62.4515 72.9742 62.1521 72.7874 61.8853C72.7355 61.8146 72.6835 61.7329 72.6887 61.6512C72.6991 61.4552 72.5954 61.3028 72.5435 61.134C72.4241 60.7312 72.3048 60.3283 72.201 59.9254C72.1751 59.822 72.1439 59.724 72.1024 59.626C71.9467 59.3048 71.843 58.9727 71.7963 58.6188C71.7807 58.5208 71.7651 58.4228 71.7132 58.3466C71.4797 58.0254 71.4746 57.6062 71.3033 57.2578C71.2826 57.2196 71.2826 57.1598 71.2929 57.1162C71.3241 56.9039 71.2618 56.7079 71.1839 56.5282C71.049 56.2179 70.9505 55.9022 70.8519 55.5809C70.7948 55.3904 70.7221 55.1999 70.6339 55.0202C70.5353 54.8351 70.4471 54.65 70.4316 54.4268C70.4264 54.3342 70.3693 54.2471 70.3226 54.1655C70.2344 54.0076 70.1721 53.8442 70.1358 53.6591C70.0839 53.3652 69.8815 53.2291 69.5858 53.2345C69.1551 53.2345 68.7244 53.2726 68.2989 53.2345C67.6607 53.1692 67.0172 53.2291 66.3894 53.1311C65.9535 53.0657 65.5176 53.0875 65.0869 53.0222C64.8119 52.9786 64.5421 53.0222 64.2723 53.0004C64.0077 52.9841 63.7482 52.9568 63.4836 53.0222C63.4265 53.0385 63.359 53.0058 63.2968 52.9895C63.2449 52.9786 63.193 52.9405 63.1411 52.946C62.809 52.9732 62.4977 52.8588 62.1708 52.8316C61.958 52.8153 61.7557 52.7772 61.5793 52.6411C61.4911 52.5757 61.382 52.5431 61.2783 52.4995C61.0863 52.4179 60.8684 52.3852 60.7283 52.2001C60.7075 52.1729 60.666 52.1402 60.6348 52.1457C60.3079 52.1783 60.0796 51.8952 59.7735 51.8408C59.514 51.7972 59.2701 51.6938 59.0055 51.6502C58.7876 51.6121 58.5592 51.5849 58.3413 51.5359C58.1805 51.4978 58.056 51.3726 57.9262 51.2691C57.8588 51.2147 57.7965 51.1548 57.7135 51.1494C57.4696 51.133 57.2672 50.9806 57.0441 50.8989C56.9195 50.8554 56.8573 50.7465 56.8158 50.6322C56.7743 50.5124 56.712 50.4307 56.5771 50.4416C56.5616 50.4416 56.5304 50.4416 56.5252 50.4307C56.3228 50.1476 55.9285 50.1204 55.7468 49.8046C55.6846 49.7012 55.6016 49.6413 55.503 49.5869C55.1865 49.4236 54.9011 49.2221 54.7246 48.89C54.6987 48.841 54.6572 48.7866 54.6157 48.7648C54.4029 48.6831 54.2525 48.5089 54.0864 48.3619C53.8477 48.1496 53.5157 48.0026 53.469 47.6052C53.469 47.5725 53.4378 47.529 53.4118 47.5126C53.1524 47.3384 52.9708 47.0717 52.7892 46.8321C52.6076 46.598 52.4519 46.3367 52.2755 46.0971C52.2392 46.0482 52.2184 45.9774 52.1976 45.912C52.1406 45.7215 52.0731 45.5418 51.933 45.384C51.7669 45.2097 51.7358 44.9539 51.6735 44.7252C51.5853 44.4258 51.466 44.1481 51.3052 43.8922C51.2221 43.7616 51.1702 43.62 51.1547 43.4622C51.1287 43.2117 51.0457 42.9776 50.9419 42.749C50.8278 42.4876 50.7032 42.2263 50.7551 41.9214C50.7655 41.867 50.7447 41.8071 50.724 41.7527C50.4957 41.083 50.4023 40.3753 50.2726 39.6784C50.257 39.5913 50.2362 39.5097 50.2051 39.428C50.1325 39.2483 50.1065 39.0578 50.1169 38.8618C50.1221 38.7747 50.1272 38.6821 50.1065 38.6059C49.9871 38.1758 50.0858 37.7457 50.0858 37.3157C50.0858 37.2667 50.1117 37.2122 50.0962 37.1741C49.9353 36.7331 50.0857 36.2813 50.0546 35.8348C50.0442 35.6606 50.065 35.4918 50.0235 35.3176C50.0027 35.2469 50.0027 35.1597 50.0235 35.089C50.1428 34.7133 50.0702 34.3268 50.0754 33.9457C50.0806 33.4829 50.1169 33.0256 50.1376 32.5683C50.1688 31.6863 50.2414 30.8044 50.2311 29.9224C50.2311 29.5958 50.1273 29.476 49.8107 29.4542C49.6291 29.4433 49.4942 29.3835 49.4216 29.1983C49.3385 28.9969 49.323 28.8064 49.4682 28.6322C49.5046 28.5886 49.5358 28.5342 49.5825 28.5069C49.8367 28.3545 50.0858 28.1966 50.2933 27.968C50.3245 27.9353 50.3712 27.919 50.4179 27.9081C50.9783 27.7393 51.5179 27.4943 52.0939 27.38C52.2703 27.3473 52.4104 27.233 52.5712 27.1622C52.9085 27.0207 53.2822 26.9717 53.5987 26.7757C53.9204 26.5742 54.2784 26.449 54.5949 26.2421C54.6572 26.204 54.7246 26.1659 54.7921 26.1387C55.503 25.8665 56.1723 25.4963 56.8521 25.1588C57.4488 24.8648 58.0611 24.6252 58.689 24.4129C59.156 24.255 59.6386 24.2332 60.1056 24.1135C60.5051 24.01 60.9202 24.0536 61.325 23.9556C61.5377 23.9011 61.7608 23.9828 61.984 23.9338C62.3005 23.863 62.6171 23.8903 62.9388 23.9447C63.3746 24.0155 63.8157 23.9828 64.2567 23.9991C64.594 24.01 64.9417 23.9991 65.2686 24.0699C65.6266 24.1461 65.9898 24.1842 66.3427 24.2768C66.4516 24.304 66.5295 24.402 66.6385 24.4292C66.8305 24.4782 67.0121 24.5708 67.2196 24.5653C67.3701 24.5653 67.5154 24.6579 67.6555 24.7069C68.1017 24.8484 68.5065 25.0989 68.9371 25.2785C69.399 25.4691 69.8867 25.5616 70.3485 25.7358C70.4264 25.7685 70.499 25.8066 70.5613 25.8611C70.6495 25.9427 70.7533 26.0189 70.8674 26.0516C71.0438 26.0952 71.1839 26.2095 71.3137 26.3238C71.708 26.6777 72.118 27.0043 72.5902 27.2493C72.9378 27.429 73.2751 27.6522 73.5709 27.9135C73.8563 28.1639 74.1572 28.3926 74.4322 28.6648C74.6709 28.8989 74.8474 29.1983 75.112 29.3943C75.3455 29.5686 75.4804 29.8081 75.6672 30.0041C75.9526 30.309 76.1757 30.6519 76.4196 30.984C76.4404 31.0167 76.4507 31.0603 76.4767 31.082C76.8555 31.4141 77.0059 31.9259 77.3121 32.3124C77.3484 32.356 77.3692 32.4104 77.3899 32.4649C77.5664 33.0147 77.8725 33.4884 78.1579 33.9729C78.4277 34.4248 78.6716 34.8875 78.8169 35.4156C78.9207 35.7913 78.9051 36.2105 79.1178 36.5371C79.4499 37.0434 79.4707 37.6314 79.5486 38.2031C79.5849 38.4644 79.6575 38.7094 79.7405 38.9489C79.808 39.134 79.8391 39.3191 79.8339 39.5097C79.8339 39.722 79.8443 39.9289 79.9014 40.1357C79.9221 40.2065 79.9429 40.2882 79.9377 40.3644C79.917 40.6148 79.9844 40.8598 79.9896 41.0994C80 41.475 80.0934 41.8398 80.0882 42.2154C80.0882 42.3025 80.0985 42.3896 80.1348 42.4713C80.1867 42.602 80.1972 42.7381 80.1816 42.8687C80.1608 43.043 80.166 43.2117 80.1816 43.3859C80.1816 43.424 80.1972 43.4676 80.1816 43.5003C80.0674 43.7888 80.1453 44.11 80.0467 44.404C80.0104 44.5129 79.9896 44.6327 80.0207 44.747C80.0726 44.9593 80.0467 45.1662 80.0311 45.3785C80.0103 45.6181 79.9948 45.8358 79.891 46.0699C79.8028 46.2659 79.782 46.5055 79.6679 46.7069C79.6212 46.7831 79.6627 46.8757 79.6834 46.9573C79.7197 47.0826 79.7198 47.2078 79.6575 47.3221C79.5849 47.4473 79.5848 47.5725 79.6211 47.7086C79.673 47.921 79.6834 48.1224 79.5122 48.2966C79.4655 48.3456 79.4395 48.4327 79.424 48.5035C79.3358 48.8192 79.1905 49.1078 79.066 49.4072C79.0452 49.4617 79.0089 49.5161 78.9622 49.5379C78.7806 49.6195 78.6871 49.772 78.5937 49.9408C78.5211 50.0714 78.3966 50.164 78.2565 50.2239C78.1475 50.2674 78.0697 50.3382 78.0438 50.4688C78.0178 50.6049 77.9244 50.6866 77.8102 50.7356C77.6545 50.8064 77.5248 50.9098 77.4158 51.0405C77.3069 51.1711 77.1772 51.2474 77.0215 51.28C76.8399 51.3181 76.6739 51.3944 76.5389 51.5359C76.4871 51.5903 76.4196 51.623 76.3522 51.6557C75.9682 51.8353 75.6049 52.0585 75.2106 52.2219C75.1483 52.2491 75.0912 52.2654 75.0289 52.2763C74.8629 52.2981 74.7072 52.3525 74.5671 52.4505C74.3699 52.5866 74.1676 52.6846 73.9237 52.6411C73.8822 52.6356 73.8303 52.652 73.794 52.6737C73.576 52.8207 73.3218 52.8153 73.0779 52.848C72.8963 52.8697 72.7147 52.8915 72.5383 52.9568C72.4138 53.0058 72.3774 53.1038 72.4708 53.2018C72.6006 53.3325 72.6732 53.5013 72.7822 53.6374C72.8496 53.719 72.8963 53.8116 72.9275 53.915C72.9897 54.1165 73.0779 54.2907 73.2336 54.4431C73.3737 54.5792 73.4464 54.797 73.436 55.0202C73.436 55.14 73.4515 55.2434 73.5086 55.3523C73.5553 55.4339 73.5864 55.5265 73.602 55.6191C73.6643 56.0274 73.7681 56.4248 73.9497 56.795C73.9808 56.8603 74.0068 56.942 74.0119 57.0128C74.0379 57.4538 74.2454 57.8185 74.4426 58.1833C74.4634 58.2159 74.4893 58.2432 74.4997 58.2813C74.645 58.8584 74.9823 59.3483 75.1898 59.8982C75.2002 59.9254 75.2106 59.9526 75.2106 59.9799C75.2261 60.5297 75.4908 60.987 75.7294 61.4498C75.7398 61.4661 75.7502 61.4825 75.7502 61.5042C75.7762 61.8418 75.9993 62.0977 76.0823 62.408C76.1083 62.5005 76.155 62.5822 76.212 62.6584C76.2484 62.7129 76.3003 62.7673 76.3055 62.8326C76.3418 63.0449 76.3988 63.2355 76.57 63.3825C76.6531 63.4478 76.6168 63.5894 76.6739 63.6765C76.8607 63.9432 76.8918 64.2862 77.0993 64.5421C77.146 64.602 77.1824 64.6782 77.172 64.7544C77.146 64.9667 77.255 65.1137 77.3484 65.2825C77.4989 65.5547 77.6131 65.8433 77.7324 66.1373C77.8725 66.4748 78.0282 66.8178 78.2357 67.1227C78.3084 67.2261 78.3551 67.335 78.3707 67.4656C78.3914 67.6725 78.464 67.8522 78.6041 68.0046C78.739 68.1516 78.8325 68.3258 78.8844 68.5273C78.9311 68.696 79.0037 68.8539 79.0971 68.99C79.3825 69.4038 79.5226 69.9046 79.8235 70.3075C79.891 70.6723 80.1401 70.9281 80.3113 71.2276C80.3373 71.2766 80.358 71.331 80.3736 71.3855C80.4825 71.7774 80.6589 72.1259 80.934 72.4199C81.0481 72.5396 81.1052 72.6921 81.1208 72.8608C81.1363 73.0296 81.1934 73.1766 81.2713 73.3181C81.5307 73.7972 81.6968 74.309 81.8732 74.8262C81.9873 75.1528 82.1326 75.4577 82.2312 75.7898C82.2779 75.9477 82.3765 76.0784 82.5062 76.1764C82.6359 76.2689 82.7034 76.3996 82.7501 76.5466C82.7812 76.6554 82.8227 76.7643 82.8642 76.8678C83.0303 77.2761 83.4039 77.3577 83.7516 77.4557C83.8554 77.483 83.9643 77.4993 84.0629 77.5537C84.12 77.5864 84.177 77.6136 84.2445 77.6082C84.5247 77.581 84.7842 77.6844 85.0436 77.7824C85.1215 77.8151 85.2045 77.826 85.2823 77.8368C85.4535 77.8586 85.6248 77.8913 85.796 77.9348C86.0918 78.0165 86.3979 77.9566 86.6989 77.9512C86.8701 77.9512 87.0413 77.9076 87.2178 77.9076C87.2645 77.9076 87.3112 77.9076 87.3527 77.8967C87.9702 77.728 88.6188 77.728 89.2363 77.581C89.5995 77.4939 89.9575 77.5374 90.3207 77.4884C90.5283 77.4612 90.7514 77.4666 90.9693 77.4666C91.2132 77.4666 91.4416 77.5919 91.6647 77.7116C91.976 77.8804 92.0383 78.0274 91.9812 78.4139C91.9449 78.6589 91.9241 78.9148 91.6958 79.0672C91.6595 79.089 91.6335 79.138 91.618 79.1816C91.4831 79.5518 91.234 79.824 90.9331 80.0581C90.9279 80.0635 90.9175 80.069 90.9123 80.0799C90.6373 80.5698 90.1391 80.842 89.833 81.2994C89.7604 81.4137 89.6618 81.5062 89.558 81.577C89.2622 81.7893 89.0235 82.067 88.7692 82.3283C88.5773 82.5297 88.323 82.6658 88.1414 82.8891C87.8404 83.2647 87.389 83.4172 87.0154 83.6785C86.8649 83.7874 86.7093 83.8581 86.6055 84.0378C86.5069 84.2066 86.3409 84.3263 86.2267 84.4897C86.1541 84.5931 86.0192 84.6094 85.8998 84.6312C85.7338 84.6639 85.604 84.7238 85.5417 84.9034C85.5365 84.9198 85.5262 84.9415 85.5158 84.9524C85.2823 85.094 85.0591 85.2627 84.8049 85.3553C84.6596 85.4097 84.504 85.4478 84.3794 85.5349C84.1148 85.7309 83.8086 85.8398 83.518 85.9759C83.0199 86.2046 82.4958 86.3788 81.9562 86.4822C81.6345 86.5421 81.3075 86.5857 80.9806 86.6292C80.7264 86.6619 80.4774 86.7163 80.2387 86.8307C79.9948 86.945 79.7198 86.9559 79.4603 86.9668C79.2528 86.9777 79.0296 86.994 78.848 87.0593C78.5834 87.1519 78.3084 87.1519 78.0489 87.2172C77.6598 87.3152 77.255 87.3152 76.8555 87.3479C76.6116 87.3696 76.3677 87.435 76.129 87.484C76.046 87.5003 75.9682 87.533 75.8851 87.5003C75.6309 87.386 75.3611 87.4459 75.1328 87.5112C74.8318 87.6037 74.536 87.5765 74.2402 87.6037C74.1468 87.6146 74.0587 87.6037 73.9704 87.6418C73.7214 87.7562 73.4567 87.7888 73.1921 87.7888C73.0157 87.7888 72.8548 87.8542 72.6783 87.8596C72.4604 87.8596 72.2477 87.9249 72.0297 87.827C71.9623 87.7943 71.8637 87.8215 71.7859 87.8324C71.2566 87.9358 70.7325 87.9249 70.2033 87.8215C70.0165 87.7834 69.8192 87.7997 69.6272 87.7888C69.4456 87.778 69.2589 87.7888 69.0876 87.6908C69.0617 87.68 69.0306 87.6636 69.0098 87.6691C68.5687 87.778 68.2211 87.484 67.8371 87.3642C67.3753 87.2172 66.9861 86.9287 66.6385 86.5802C66.5658 86.504 66.4931 86.4387 66.3997 86.3951C66.3063 86.3516 66.2285 86.2808 66.1663 86.1991C66.1403 86.1719 66.1196 86.1175 66.0936 86.1175C65.7771 86.0685 65.7356 85.7473 65.5799 85.5458C65.3672 85.2682 65.4139 84.9742 65.5643 84.6475C65.72 84.2991 65.9743 84.1793 66.2908 84.1358C66.4309 84.114 66.5295 84.0596 66.6021 83.9343C66.6229 83.8962 66.6592 83.8472 66.6956 83.8309C66.9758 83.6948 67.1418 83.4117 67.396 83.232C67.4427 83.1994 67.4791 83.1558 67.5102 83.1068C67.5984 82.9489 67.7126 82.8401 67.8994 82.8346C67.9357 82.8346 67.972 82.8128 67.998 82.7856C68.2263 82.5461 68.5532 82.508 68.8178 82.3392C69.0773 82.1813 69.3263 81.9853 69.6221 81.9091C69.9283 81.8329 70.2084 81.6315 70.5457 81.6968C70.5976 81.7077 70.6651 81.6968 70.7066 81.6696C70.9141 81.5062 71.1943 81.5062 71.3915 81.3211C71.5108 81.2122 71.6769 81.2449 71.817 81.2558C72.0609 81.2776 72.2892 81.2177 72.5175 81.1469C72.6265 81.1143 72.7303 81.0979 72.8392 81.1415C72.8807 81.1578 72.9275 81.1687 72.9742 81.1632C73.4619 81.1088 73.9548 81.0925 74.4374 80.9618C74.4945 80.9455 74.536 80.9183 74.5827 80.8856C74.6398 80.8366 74.7124 80.7767 74.7799 80.793C75.0912 80.8584 75.3144 80.6243 75.5842 80.5535C75.854 80.4882 76.0927 80.3466 76.321 80.1778C76.4715 80.0635 76.6583 80.0363 76.8192 79.9438C77.1772 79.7314 77.4678 79.4429 77.7065 79.0999C78.0593 78.5936 78.0437 78.5827 78.0697 77.9348C78.0852 77.6027 78.0904 77.2652 78.1267 76.9331C78.1631 76.601 78.1423 76.2689 78.2202 75.9423C78.2565 75.7953 78.1268 75.6755 78.1216 75.5285L78.1112 75.5448ZM50.3971 29.8299C50.3919 29.9007 50.3815 29.9388 50.3815 29.9714C50.423 30.8044 50.4074 31.6374 50.506 32.4703C50.5787 33.0855 50.5787 33.7116 50.6617 34.3322C50.724 34.8222 50.7759 35.3122 50.8277 35.8022C50.8796 36.2431 50.9315 36.6896 50.9782 37.1305C51.0094 37.4463 50.9938 37.7675 51.1391 38.0615C51.2429 38.2684 51.2844 38.497 51.2689 38.7311C51.2689 38.8128 51.2792 38.8781 51.3259 38.9435C51.4764 39.1558 51.5179 39.4171 51.5386 39.6675C51.5542 39.8635 51.5749 40.0486 51.6684 40.2174C51.7877 40.4406 51.8396 40.6856 51.85 40.936C51.8656 41.1974 51.9434 41.4206 52.0627 41.6438C52.1457 41.7962 52.1821 41.9541 52.1976 42.1338C52.2184 42.4223 52.3326 42.6891 52.3637 42.9776C52.3741 43.0702 52.4415 43.1518 52.5141 43.2172C52.5972 43.2934 52.6387 43.3968 52.6335 43.5003C52.6231 43.7289 52.7218 43.9086 52.8203 44.0937C52.8722 44.1971 52.9241 44.3006 52.9553 44.4094C52.9916 44.551 53.0642 44.649 53.1887 44.7143C53.3133 44.7742 53.3755 44.8831 53.4378 45.0083C53.635 45.4221 53.8841 45.7977 54.1228 46.1843C54.1435 46.2169 54.1642 46.2496 54.1954 46.2714C54.3874 46.3966 54.4756 46.5926 54.5482 46.8049C54.5897 46.9247 54.6572 47.0227 54.7454 47.1098C55.0101 47.3602 55.3006 47.5834 55.503 47.8937C55.5289 47.9318 55.5705 47.9591 55.612 47.9808C55.9648 48.2041 56.2346 48.5416 56.5978 48.7539C56.6134 48.7648 56.629 48.7757 56.6394 48.792C56.821 49.0479 57.0752 49.1949 57.3243 49.3582C57.4177 49.4181 57.5007 49.4834 57.563 49.5869C57.6356 49.7067 57.7291 49.8155 57.8692 49.8645C58.1649 49.968 58.4451 50.1095 58.6682 50.3491C58.7305 50.4198 58.8136 50.4688 58.9121 50.4743C59.1093 50.4852 59.2858 50.5614 59.4414 50.6866C59.4829 50.7193 59.54 50.7411 59.5919 50.7519C59.7631 50.7846 59.9343 50.8064 60.1056 50.8445C60.2509 50.8772 60.4066 50.8608 60.5311 50.9479C60.749 51.1004 60.998 51.2147 61.1952 51.3998C61.3872 51.5795 61.6155 51.721 61.8594 51.7918C62.1085 51.8626 62.342 51.9606 62.5859 52.0585C62.7675 52.1293 62.9595 52.162 63.1515 52.113C63.4317 52.0422 63.7119 52.1729 63.9921 52.113C64.0284 52.1021 64.0803 52.1402 64.1218 52.1565C64.1737 52.1783 64.2256 52.2001 64.2827 52.1892C64.8223 52.113 65.3516 52.2545 65.8912 52.2491C65.9431 52.2491 66.0002 52.2709 66.0521 52.2926C66.2701 52.3852 66.488 52.4124 66.7267 52.3906C66.8408 52.3798 66.9654 52.3906 67.0795 52.4233C67.2352 52.4614 67.3909 52.4669 67.5465 52.4451C67.8734 52.4015 68.2003 52.456 68.5324 52.4288C68.8333 52.407 69.1499 52.3961 69.456 52.4669C69.5546 52.4886 69.6636 52.5268 69.7518 52.4995C70.0217 52.4179 70.2915 52.4886 70.5665 52.4396C71.0698 52.3525 71.5939 52.4396 72.0869 52.26C72.1439 52.2382 72.2166 52.2437 72.2789 52.2491C72.3723 52.2545 72.4604 52.2382 72.5486 52.2055C72.8651 52.0967 73.218 52.162 73.5293 51.9878C73.5864 51.9551 73.6747 51.9878 73.7473 51.9823C73.8459 51.9714 73.9444 51.9823 74.043 51.9388C74.5516 51.721 75.0705 51.5413 75.5375 51.2256C75.7761 51.0623 76.0771 51.0024 76.2743 50.7901C76.5078 50.5342 76.8087 50.3654 77.0215 50.0823C77.2031 49.8428 77.4937 49.6903 77.5663 49.3528C77.5767 49.2929 77.6338 49.2385 77.6753 49.1895C77.8829 48.9608 77.9763 48.6668 78.0489 48.3728C78.1683 47.8992 78.1579 47.4038 78.1631 46.9192C78.1631 46.402 78.324 45.9229 78.3759 45.4275C78.3759 45.4003 78.3862 45.3676 78.4018 45.3458C78.5107 45.1934 78.5211 45.0083 78.5575 44.8286C78.6145 44.551 78.6871 44.2733 78.7079 43.9902C78.7235 43.767 78.6353 43.5384 78.7339 43.3097C78.7546 43.2662 78.7338 43.2172 78.7079 43.1736C78.6508 43.0593 78.6716 42.9286 78.6508 42.8088C78.5834 42.4659 78.682 42.1283 78.6664 41.7853C78.6405 41.279 78.5678 40.7945 78.4173 40.3154C78.3758 40.1847 78.3655 40.0595 78.3655 39.9234C78.3655 39.6403 78.3395 39.3518 78.2668 39.0741C78.1942 38.7856 78.0489 38.5134 78.0749 38.2085C78.106 37.8764 78.0282 37.5661 77.9659 37.2449C77.8673 36.7168 77.7065 36.2105 77.5767 35.6933C77.4937 35.3721 77.4158 35.0182 77.1564 34.7678C77.1097 34.7242 77.089 34.6534 77.0786 34.5827C77.0267 34.1145 76.7984 33.7061 76.5908 33.3087C76.4196 32.9821 76.264 32.65 76.1083 32.3124C76.0356 32.1491 75.9889 31.9694 75.8281 31.8606C75.6516 31.7353 75.5167 31.5666 75.4389 31.3597C75.4078 31.278 75.3611 31.2073 75.2988 31.1528C75.1691 31.0439 75.0757 30.9024 74.9719 30.7663C74.837 30.5921 74.645 30.4614 74.6087 30.211C74.6087 30.1946 74.5879 30.1783 74.5723 30.1729C74.3907 30.064 74.3025 29.8299 74.069 29.7863C74.0379 29.7863 74.0015 29.7482 73.986 29.7155C73.7784 29.3562 73.4567 29.1221 73.1609 28.8608C73.0001 28.7193 72.8755 28.5342 72.6783 28.4416C72.4812 28.3545 72.3255 28.2075 72.1906 28.0333C72.0298 27.8319 71.8481 27.6631 71.5939 27.5978C71.5368 27.5814 71.4746 27.5433 71.4279 27.4998C71.0231 27.1404 70.6236 26.7811 70.115 26.5851C70.0735 26.5688 70.032 26.5416 70.0009 26.5089C69.9231 26.4164 69.8141 26.4 69.7103 26.3674C69.4353 26.2966 69.1551 26.2367 68.9112 26.0897C68.657 25.9427 68.3768 25.8774 68.1329 25.6923C67.8216 25.4527 67.4272 25.3874 67.0691 25.2513C66.872 25.1751 66.6955 25.2077 66.5502 25.3874C66.3583 25.627 66.213 25.9101 65.9276 26.0516C65.8861 26.0734 65.8601 26.1442 65.829 26.1877C65.7252 26.3401 65.6058 26.4545 65.4138 26.4871C65.2582 26.5144 65.1285 26.6124 65.0091 26.7212C64.6771 27.0316 64.3087 27.2765 63.852 27.3364C63.7794 27.3473 63.7067 27.3691 63.6445 27.4018C63.3643 27.5596 63.0425 27.5869 62.7727 27.7284C62.3835 27.9353 61.9892 28.0115 61.5741 28.0877C61.0759 28.1803 60.5881 28.3599 60.0952 28.5015C59.6801 28.6213 59.2754 28.7683 58.8499 28.8445C58.4244 28.9207 58.0041 28.9915 57.5837 29.084C57.1116 29.1875 56.6549 29.378 56.162 29.3726C56.0375 29.3726 55.9026 29.4161 55.7936 29.476C55.6016 29.5849 55.3992 29.623 55.1917 29.6502C54.9478 29.6829 54.7039 29.7264 54.46 29.7591C54.3147 29.7809 54.1694 29.819 54.0241 29.8244C53.5468 29.8408 53.0798 29.9006 52.618 30.0313C52.4312 30.0858 52.2288 30.1021 52.0212 30.0749C51.7151 30.0368 51.3985 30.0041 51.0976 30.0313C50.8693 30.0531 50.6825 30.0422 50.5268 29.8625C50.5112 29.8462 50.4801 29.8408 50.4231 29.8135L50.3971 29.8299ZM66.4776 85.2464C66.4983 85.3498 66.5347 85.4152 66.5917 85.4696C66.7837 85.6493 66.9239 85.8725 67.1418 86.0249C67.4012 86.2046 67.6243 86.4332 67.8838 86.6129C68.1432 86.7926 68.4442 86.8797 68.7503 86.9559C69.207 87.0702 69.674 87.0593 70.1358 87.1464C70.333 87.1845 70.5353 87.2281 70.7325 87.2281C71.241 87.2281 71.7548 87.2063 72.2633 87.19C72.3567 87.19 72.4449 87.1845 72.5331 87.1519C72.7822 87.0593 73.052 87.043 73.3114 86.9885C73.7162 86.9014 74.1416 86.8797 74.5567 86.8688C74.9615 86.8524 75.3507 86.7653 75.7502 86.6946C76.1446 86.6292 76.5545 86.6673 76.9385 86.5312C76.9489 86.5312 76.9592 86.5312 76.9644 86.5312C77.1305 86.5802 77.2913 86.5149 77.4522 86.4986C77.7584 86.4605 78.0593 86.3951 78.3551 86.2862C78.407 86.2699 78.464 86.259 78.5159 86.2645C78.7546 86.2862 78.9673 86.21 79.1697 86.0902C79.3409 85.9923 79.5226 85.9269 79.725 85.9596C80.0415 86.0031 80.3165 85.916 80.5708 85.7146C80.6953 85.6112 80.8406 85.5567 81.0066 85.5731C81.1363 85.5839 81.2609 85.5731 81.3802 85.5023C81.6241 85.3662 81.8731 85.2518 82.1533 85.2518C82.2104 85.2518 82.2623 85.2301 82.3038 85.1865C82.4958 84.947 82.7864 84.9306 83.0407 84.8381C83.4402 84.6856 83.8813 84.6475 84.177 84.2664C84.203 84.2338 84.2549 84.2229 84.2964 84.2011C84.6389 84.016 84.9866 83.8636 85.3135 83.6458C85.4536 83.5532 85.5781 83.4063 85.7545 83.3681C86.0555 83.3083 86.3149 83.1395 86.5743 82.9762C86.6418 82.9326 86.7145 82.8836 86.7923 82.8618C87.223 82.7312 87.5758 82.4426 87.939 82.1977C88.4735 81.8438 88.899 81.3483 89.366 80.9074C89.6929 80.6025 89.9991 80.2704 90.3052 79.9438C90.383 79.8566 90.492 79.7804 90.5127 79.6443C90.5335 79.53 90.601 79.4647 90.6736 79.3884C90.876 79.1816 91.068 78.9638 91.2185 78.7079C91.3482 78.4738 91.3067 78.3268 91.0628 78.256C90.9901 78.2343 90.9227 78.2179 90.85 78.2179C90.658 78.2125 90.4712 78.1962 90.2792 78.1853C89.8745 78.158 89.4802 78.2615 89.0806 78.2778C88.7693 78.2887 88.4735 78.4085 88.1622 78.4194C87.9806 78.4248 87.773 78.4303 87.6017 78.5283C87.472 78.599 87.3423 78.6154 87.2074 78.6154C86.922 78.6154 86.6522 78.6753 86.3772 78.7351C86.0502 78.8059 85.7078 78.8168 85.3809 78.8985C85.355 78.9039 85.3238 78.8985 85.2979 78.893C84.8776 78.7732 84.4209 78.9638 84.0058 78.7297C83.9176 78.6807 83.7879 78.7025 83.6789 78.7188C83.4039 78.7569 83.1549 78.6752 82.9058 78.5773C82.719 78.501 82.5373 78.4248 82.3505 78.3486C82.1534 78.2724 82.034 78.1472 81.9977 77.9512C81.9355 77.6463 81.7694 77.3904 81.65 77.1128C81.4788 76.7153 81.1415 76.4159 81.017 75.9858C81.0118 75.9695 81.0014 75.9532 80.9858 75.9368C80.8405 75.7463 80.7679 75.5176 80.6797 75.2998C80.5396 74.9514 80.5396 74.5703 80.4306 74.2164C80.3788 74.0531 80.2906 73.9061 80.2594 73.7374C80.1972 73.3889 80.0311 73.0895 79.8754 72.7901C79.7094 72.458 79.5226 72.1368 79.3669 71.7992C79.1853 71.4072 79.1023 70.9608 78.8221 70.6178C78.791 70.5852 78.765 70.5362 78.7598 70.4926C78.7339 70.2857 78.6093 70.1279 78.5211 69.9482C78.2772 69.4582 77.9815 68.99 77.8154 68.4619C77.8102 68.4456 77.7999 68.4238 77.7895 68.4129C77.5768 68.1679 77.4937 67.8413 77.3588 67.5527C77.2083 67.237 77.0475 66.9267 76.8866 66.6163C76.8296 66.5075 76.8191 66.3768 76.7309 66.2842C76.6064 66.1536 76.5389 65.9794 76.4663 65.816C76.2899 65.4132 76.046 65.0593 75.8333 64.6782C75.662 64.3679 75.5271 64.0303 75.2469 63.7908C75.2417 63.7854 75.2365 63.7745 75.2313 63.769C75.029 63.3934 74.8058 63.0286 74.6294 62.6421C74.4945 62.3372 74.3025 62.0704 74.1987 61.7438C74.1365 61.5423 74.0171 61.3572 73.8926 61.1721C73.711 60.9108 73.5138 60.6441 73.4256 60.3283C73.3218 59.9472 73.0986 59.6205 73.0001 59.234C73.0001 59.2231 72.969 59.2177 72.9327 59.2013C72.9638 59.4028 72.9326 59.6097 73.1039 59.7621C73.1506 59.8056 73.1661 59.8764 73.1713 59.9472C73.2388 60.6332 73.6124 61.2211 73.7317 61.8962C73.7421 61.9398 73.7784 61.9779 73.8044 62.016C73.8614 62.1031 73.8874 62.212 73.9341 62.2991C74.0586 62.5223 74.1001 62.7782 74.1987 63.0123C74.2818 63.2028 74.3803 63.3934 74.427 63.6111C74.4841 63.8507 74.6398 64.0685 74.702 64.3134C74.7072 64.3407 74.7332 64.3624 74.7539 64.3788C74.8525 64.4713 74.9044 64.5911 74.9615 64.7163C75.0393 64.8905 75.1327 65.0539 75.2261 65.2172C75.304 65.3533 75.4493 65.4241 75.496 65.5711C75.6049 65.9358 75.8644 66.208 76.0356 66.5347C76.2743 66.9865 76.513 67.433 76.6687 67.9284C76.7206 68.0917 76.7413 68.2659 76.8399 68.4129C77.0111 68.6688 77.0993 68.9628 77.1668 69.2677C77.2394 69.6052 77.3847 69.921 77.4833 70.2476C77.5041 70.3238 77.5456 70.3946 77.6078 70.4327C77.8154 70.5688 77.8725 70.792 77.9036 71.0261C77.9296 71.233 78.0022 71.4127 78.0956 71.5923C78.2876 71.9571 78.4329 72.3382 78.4433 72.7628C78.4485 72.9534 78.49 73.1439 78.5886 73.3127C78.6197 73.3671 78.6456 73.4379 78.6508 73.5033C78.6871 73.8299 78.765 74.1457 78.7961 74.4723C78.8221 74.7064 78.7961 74.9623 78.9051 75.1746C78.9725 75.3107 79.0037 75.4468 78.9881 75.5884C78.9725 75.7517 78.9829 75.915 78.9881 76.0784C79.0037 76.3288 78.957 76.5738 78.8896 76.8133C78.7858 77.1781 78.6716 77.5374 78.6716 77.9294C78.6716 78.2669 78.5782 78.6045 78.4536 78.9311C78.3343 79.236 78.1579 79.481 77.9399 79.6988C77.6234 80.0145 77.3432 80.3738 76.9437 80.5862C76.7984 80.6624 76.6323 80.695 76.5026 80.8094C76.1964 81.0707 75.8436 81.2721 75.4856 81.43C74.9304 81.675 74.3648 81.8982 73.8355 82.2031C73.7629 82.2466 73.6798 82.2684 73.602 82.2793C73.3114 82.3283 73.0312 82.41 72.7614 82.5461C72.7043 82.5733 72.6472 82.606 72.5798 82.6005C72.0609 82.5515 71.5887 82.704 71.1528 82.9979C70.9453 83.1341 70.7273 83.2484 70.4782 83.2865C70.3174 83.3083 70.1306 83.33 70.0216 83.4607C69.8867 83.6186 69.7259 83.673 69.5495 83.722C69.4716 83.7438 69.3886 83.7656 69.3159 83.8037C68.9164 84.016 68.5376 84.2664 68.1848 84.555C67.9616 84.7401 67.7125 84.9034 67.4375 84.9633C67.121 85.0286 66.8253 85.1593 66.5036 85.2682L66.4776 85.2464ZM52.5038 28.5287C52.7684 28.4471 52.9811 28.3763 53.2198 28.4035C53.3547 28.4144 53.5105 28.4144 53.6454 28.3218C53.8529 28.1803 54.0812 28.1476 54.3251 28.2129C54.4859 28.2565 54.6417 28.2347 54.761 28.115C54.844 28.0387 54.9271 28.0115 55.0308 28.0061C55.1606 28.0006 55.2851 27.9897 55.4148 27.9788C55.7158 27.9625 56.0167 27.9734 56.2865 27.7883C56.3799 27.723 56.4837 27.6467 56.6082 27.6359C56.9351 27.6032 57.2361 27.4344 57.5682 27.4453C57.6097 27.4453 57.6564 27.4181 57.6979 27.4072C57.8899 27.3528 58.0871 27.2657 58.279 27.2602C58.5437 27.2493 58.7772 27.1622 59.0211 27.0806C59.1871 27.0261 59.3532 26.9771 59.5244 26.9444C59.732 26.9063 59.9499 26.9009 60.1471 26.8465C60.4533 26.7593 60.7697 26.6995 61.0707 26.5797C61.3301 26.4817 61.5948 26.4164 61.875 26.4055C62.1293 26.3946 62.3732 26.3238 62.5963 26.1714C62.8661 25.9863 63.167 25.8719 63.4888 25.8229C63.7119 25.7903 63.9298 25.7467 64.1478 25.6542C64.62 25.4582 64.9987 25.088 65.4761 24.9192C65.5228 24.9029 65.554 24.8648 65.5384 24.8049C65.5281 24.7613 65.4865 24.7559 65.4502 24.7559C65.1389 24.7504 64.8431 24.6416 64.5265 24.6579C64.2775 24.6742 64.0336 24.5599 63.7949 24.5817C63.4836 24.6089 63.1723 24.5762 62.8661 24.5544C62.6897 24.5436 62.5237 24.5109 62.3524 24.5871C62.285 24.6198 62.2071 24.6198 62.1345 24.5871C62.0047 24.5218 61.8542 24.5218 61.7297 24.549C61.3717 24.6307 60.9981 24.5926 60.64 24.6688C60.4948 24.7014 60.3495 24.745 60.2042 24.7287C59.9499 24.7014 59.7475 24.8593 59.5192 24.8974C59.2857 24.9355 59.0418 24.8702 58.8187 24.9736C58.8083 24.9736 58.8032 24.9791 58.7928 24.9845C58.4867 25.0825 58.2065 25.2622 57.8847 25.2949C57.8225 25.3003 57.7602 25.3275 57.7135 25.382C57.646 25.4691 57.5474 25.4963 57.4488 25.529C57.2932 25.5834 57.1427 25.6542 56.9922 25.7304C56.7535 25.8611 56.5356 26.0516 56.245 26.0679C56.1931 26.0679 56.136 26.106 56.0997 26.1442C56.0063 26.253 55.887 26.2857 55.7676 26.3347C55.4148 26.498 55.0723 26.6777 54.7194 26.8301C54.4496 26.9444 54.1902 27.0914 53.9307 27.2221C53.6194 27.3745 53.2822 27.4998 52.9553 27.5978C52.2859 27.7992 51.658 28.1258 50.9731 28.2728C50.8693 28.2946 50.6825 28.2946 50.698 28.4416C50.7136 28.5668 50.8952 28.5886 51.0197 28.6158C51.0768 28.6322 51.1443 28.6049 51.2117 28.5995C51.2844 28.594 51.357 28.5777 51.4297 28.5886C51.8033 28.643 52.1717 28.6539 52.483 28.5233L52.5038 28.5287ZM71.5835 54.6718C71.5835 54.6718 71.6198 54.6609 71.6406 54.6554C71.6457 54.601 71.6561 54.5411 71.6561 54.4867C71.6613 54.0892 71.6146 53.6864 71.7288 53.2944C71.7599 53.1855 71.7028 53.1311 71.5939 53.1474C71.5316 53.1583 71.4642 53.1692 71.4019 53.1419C71.1943 53.0548 71.0075 53.1365 70.8155 53.1964C70.7066 53.2345 70.6806 53.2944 70.7689 53.376C70.8778 53.4795 70.9764 53.5938 71.0179 53.7463C71.0283 53.7898 71.0646 53.8334 71.101 53.8551C71.2774 53.9695 71.3448 54.16 71.4331 54.3397C71.4901 54.4486 71.5316 54.5629 71.5835 54.6718Z" fill="#FF4D00"/>
<path d="M54.0915 43.5275C54.0811 43.1464 53.7698 42.8796 53.7335 42.5094C53.7231 42.4169 53.6296 42.357 53.5622 42.2917C53.1419 41.8833 52.7631 41.4478 52.6282 40.8381C52.6023 40.7237 52.5556 40.6257 52.4829 40.5332C52.3636 40.3753 52.3117 40.1956 52.3013 39.9996C52.2961 39.8744 52.2909 39.7492 52.2494 39.6294C52.2286 39.5696 52.2235 39.4933 52.2391 39.4334C52.3013 39.2211 52.2805 38.9925 52.3428 38.7801C52.4621 38.3773 52.5971 37.9798 52.7424 37.5879C52.815 37.3919 52.9292 37.2122 53.0122 37.0217C53.1056 36.8039 53.2612 36.6406 53.4169 36.4827C53.6815 36.205 54.024 36.2105 54.3665 36.2105C54.3924 36.2105 54.4236 36.2214 54.4443 36.2377C54.7609 36.4609 55.1656 36.5099 55.4354 36.8257C55.5495 36.9618 55.7208 37.0217 55.8505 37.1523C56.2812 37.5824 56.4576 38.1323 56.5302 38.7203C56.6081 39.3409 56.8623 39.8527 57.3138 40.2501C57.5473 40.457 57.7341 40.7346 58.0351 40.8544C58.1285 40.8925 58.2167 40.9469 58.3153 40.9633C58.3516 40.9633 58.3931 40.9633 58.4242 40.985C58.7615 41.2083 59.1559 41.2736 59.5295 41.377C60.0432 41.5186 60.5725 41.6111 61.1017 41.5948C61.3923 41.5839 61.6984 41.6057 61.989 41.475C62.1603 41.3988 62.3523 41.4532 62.5287 41.5186C62.6636 41.5676 62.7985 41.5621 62.9334 41.5512C63.2655 41.5186 63.582 41.3716 63.9297 41.4424C64.0646 41.4696 64.2203 41.3607 64.3708 41.3063C64.7496 41.1701 65.1076 40.9796 65.5071 40.9088C65.559 40.8979 65.6265 40.8762 65.6524 40.8326C65.7666 40.6257 65.9689 40.6257 66.1506 40.5713C66.1869 40.5604 66.2284 40.5713 66.2595 40.555C66.602 40.3644 66.9652 40.212 67.2558 39.9289C67.3284 39.8581 67.3752 39.7492 67.4841 39.7274C67.6917 39.6893 67.7955 39.5478 67.8681 39.3572C67.9044 39.2592 67.9667 39.1939 68.0653 39.1776C68.3455 39.1395 68.5582 38.9652 68.7346 38.7584C68.9681 38.4753 69.2847 38.3228 69.5545 38.0887C69.814 37.8655 70.1045 37.6859 70.3484 37.43C70.5456 37.2285 70.8102 37.0924 71.0593 36.9563C71.1682 36.8964 71.2668 36.842 71.3395 36.7386C71.3966 36.6569 71.4692 36.6025 71.5626 36.5807C71.9311 36.5099 72.2631 36.2921 72.6419 36.2595C72.6523 36.2595 72.6627 36.2595 72.6679 36.254C73.1349 35.9764 73.6278 36.1397 74.1104 36.1506C74.4425 36.1615 74.7227 36.3085 75.0288 36.3901C75.3453 36.4772 75.5945 36.6351 75.8487 36.8202C75.9317 36.8856 75.994 36.9509 76.0562 37.038C76.3364 37.4191 76.5648 37.8383 76.7464 38.2738C76.8969 38.6386 77.0681 39.0034 77.0473 39.4226C77.0421 39.5696 77.0888 39.7111 77.1563 39.8363C77.26 40.0214 77.2445 40.2011 77.177 40.3916C77.1303 40.5168 77.0784 40.6366 77.0317 40.7618C76.9332 41.0232 76.8242 41.2736 76.8346 41.5621C76.8346 41.6492 76.8242 41.7418 76.7723 41.8126C76.6478 41.9759 76.653 42.1447 76.7152 42.3298C76.7879 42.5421 76.7723 42.7707 76.7308 42.9831C76.7101 43.0811 76.7153 43.1627 76.7516 43.2607C76.8294 43.4894 76.8657 43.7235 76.8035 43.9685C76.7619 44.1209 76.7879 44.2625 76.8709 44.4094C77.0058 44.6381 77.0525 44.8885 76.9488 45.1553C76.9021 45.2751 76.9176 45.4003 76.9176 45.5255C76.9176 45.6779 76.928 45.8304 76.8605 45.9774C76.819 46.0699 76.8242 46.1625 76.8501 46.2605C76.9591 46.7015 76.8139 47.0717 76.5596 47.4092C76.4818 47.5181 76.3935 47.6161 76.352 47.7467C76.3157 47.8502 76.2483 47.9264 76.1756 48.0026C76.077 48.1061 75.9784 48.1986 75.9473 48.3511C75.9265 48.4599 75.8331 48.5253 75.7345 48.5525C75.4647 48.6287 75.2364 48.7757 75.034 48.9826C74.8472 49.1677 74.6034 49.282 74.3595 49.3473C74.2038 49.3909 74.0585 49.429 73.934 49.527C73.6745 49.7284 73.3632 49.8319 73.083 49.9898C72.8806 50.0986 72.6834 50.2239 72.4344 50.1694C72.341 50.1476 72.2631 50.213 72.1853 50.2729C71.9985 50.409 71.8013 50.4961 71.5678 50.4797C71.4744 50.4743 71.3914 50.5124 71.3084 50.556C71.0438 50.6975 70.7584 50.7846 70.4626 50.7465C70.2914 50.7247 70.1253 50.7519 69.98 50.8173C69.7413 50.9262 69.5026 50.937 69.2535 50.9262C69.1705 50.9262 69.0875 50.9262 69.0097 50.9479C68.7762 51.0024 68.5479 51.084 68.3196 50.9316C67.8993 50.9752 67.4789 50.8554 67.0638 50.9588C66.9548 50.986 66.8459 50.986 66.7473 50.9262C66.5813 50.8227 66.4048 50.8391 66.218 50.8499C65.8704 50.8717 65.5227 50.8663 65.1802 50.9153C65.1439 50.9153 65.1024 50.9153 65.0713 50.8989C64.6406 50.6975 64.1839 50.7247 63.7273 50.7356C63.7014 50.7356 63.6703 50.7411 63.6443 50.7356C63.1773 50.6267 62.6844 50.7084 62.2278 50.5886C61.823 50.4852 61.413 50.4797 61.0135 50.3981C60.7437 50.3436 60.4583 50.4198 60.2507 50.1585C59.9135 50.1422 59.6436 49.9135 59.3271 49.821C59.0365 49.7339 58.7719 49.4998 58.5384 49.2711C58.3516 49.0915 58.1544 48.9227 57.9572 48.7539C57.9001 48.7049 57.8379 48.6614 57.7652 48.6559C57.6355 48.645 57.5473 48.5634 57.4799 48.4545C57.4072 48.3402 57.3086 48.2585 57.1893 48.1986C57.1322 48.1714 57.0648 48.1387 57.0336 48.0843C56.8313 47.774 56.5043 47.6324 56.2397 47.4092C56.1048 47.2949 56.0166 47.1261 55.9336 46.9682C55.6793 46.4891 55.4198 46.0209 55.1189 45.5691C54.8854 45.2206 54.7297 44.8123 54.5377 44.4312C54.3872 44.1372 54.1901 43.8596 54.1122 43.5275H54.0915Z" fill="#FF4D00"/>
<path d="M27.3789 63.8671C31.3225 63.7527 34.9651 62.3645 38.1408 59.9309C35.9822 63.5676 31.2239 65.3425 27.3789 63.8671Z" fill="#FF4D00"/>
<path d="M30.3105 66.747C33.2786 66.6599 36.0184 65.6201 38.4053 63.7854C36.7915 66.5184 33.1852 67.8577 30.3105 66.747Z" fill="#FF4D00"/>
<path d="M84.0315 37.724C83.4037 33.6408 81.6135 30.0368 78.8945 27.0533C82.615 28.8173 84.9188 33.5319 84.0315 37.724Z" fill="#FF4D00"/>
<path d="M86.3721 34.2941C85.8999 31.2181 84.556 28.5069 82.5063 26.2639C85.3032 27.5814 87.0415 31.1583 86.3721 34.2941Z" fill="#FF4D00"/>
<path d="M29.3452 19.4152C26.3771 19.486 23.6373 20.5149 21.2349 22.3387C22.8642 19.6112 26.4757 18.2937 29.3452 19.4152Z" fill="#FF4D00"/>
<path d="M45.0365 20.1609C42.3227 17.2047 40.1278 13.7368 38.6074 9.9585C41.3264 12.9093 43.511 16.3827 45.0365 20.1609Z" fill="#FF4D00"/>
<path d="M48.7729 20.1011C48.062 13.5626 48.0568 6.94791 48.7729 0.409424C49.489 6.94791 49.4838 13.5626 48.7729 20.1011Z" fill="#FF4D00"/>
<path d="M51.9902 20.1609C53.6196 16.2302 55.9027 12.6098 58.7203 9.51208C57.0962 13.4428 54.8026 17.0577 51.9902 20.1609Z" fill="#FF4D00"/>
</svg>
