<svg width="45" height="42" viewBox="0 0 45 42" fill="none" xmlns="http://www.w3.org/2000/svg">
<path d="M0.389913 15.9806H1.30052C6.24185 15.9806 11.1832 15.9632 16.1228 15.9998C16.8662 16.0051 17.1727 15.7555 17.3903 15.0729C18.8894 10.3913 20.4234 5.72021 21.9486 1.04734C22.0356 0.778521 22.1349 0.514941 22.3142 0C22.5893 0.797722 22.7965 1.37376 22.9863 1.95678C24.421 6.3556 25.8661 10.7527 27.266 15.162C27.4697 15.8026 27.7553 15.9998 28.4169 15.9963C33.3861 15.9684 38.357 15.9806 43.3262 15.9806C43.6291 15.9806 43.9338 15.9806 44.2368 15.9806C44.2594 16.0557 44.2821 16.129 44.3047 16.2041C37.1643 21.3866 30.0239 26.571 22.8836 31.7535C22.9045 31.8146 22.9254 31.874 22.9463 31.9351C25.9236 31.1845 28.9027 30.4322 31.9705 29.6589C33.299 33.7679 34.6118 37.8246 35.9229 41.8813C35.8707 41.9214 35.8167 41.9599 35.7645 42C34.4011 41.0085 33.0344 40.0205 31.6745 39.0238C28.7355 36.8715 25.7913 34.728 22.8731 32.5478C22.3978 32.1934 22.1088 32.2755 21.677 32.5914C17.5888 35.5711 13.485 38.5298 9.38633 41.492C9.20525 41.623 9.01373 41.7399 8.62546 41.993C9.23137 40.1148 9.76764 38.4495 10.3091 36.7843C11.3886 33.4555 12.442 30.118 13.572 26.8066C13.814 26.0962 13.6051 25.7872 13.0706 25.4049C9.03114 22.5073 5.00913 19.5852 0.981897 16.6684C0.760773 16.5078 0.550096 16.3332 0.335938 16.1657C0.353349 16.1028 0.369019 16.04 0.38643 15.9771L0.389913 15.9806Z" fill="#576832"/>
</svg>
