<svg width="62" height="59" viewBox="0 0 62 59" fill="none" xmlns="http://www.w3.org/2000/svg">
<path d="M28.8587 4.20968C29.3426 2.96538 29.9256 1.6188 30.0967 0.27119C30.0725 0.112305 30.0801 0.0179233 30.1254 8.01223e-06C30.3827 0.0636151 30.539 0.384806 30.6252 0.853271C31.8552 3.02196 34.9344 8.5824 35.0276 8.69499C36.0465 10.6627 36.4696 11.5211 36.8643 13.3056C37.2774 15.1736 38.0296 16.9407 38.663 18.7306C38.9969 19.6743 39.3381 21.4242 40.6644 21.4242H43.3624H56.1688C57.4859 21.4242 58.7686 21.1987 60.0829 21.1987C60.1893 21.1987 61.0593 21.1673 61.59 21.1148C61.8069 21.0311 61.9612 20.9893 61.9956 21.0233C62.0307 21.0581 61.8516 21.089 61.59 21.1148C60.9209 21.3734 59.6567 22.0323 59.4875 22.1008C56.7334 23.2152 54.3673 25.2037 52.014 26.9494C49.2734 28.9825 46.2367 30.9723 43.8185 33.3642C42.825 34.3468 40.7786 35.1135 41.6397 36.6467C41.9748 37.2433 42.0483 38.2484 42.2098 38.927C42.6608 40.8228 43.5595 42.8641 44.2618 44.7027C45.3146 47.4592 46.9826 50.1033 47.7326 52.9467C47.9973 53.9505 48.7471 55.0066 49.2653 55.9035C49.3965 56.1307 50.1733 57.2177 49.9619 57.1063C48.3116 56.2357 46.8114 54.9479 45.2245 53.949C39.7567 50.5075 34.6584 43.5997 29.1977 40.1627C28.5723 39.769 25.901 41.7928 25.2326 41.9398C23.6145 42.2954 22.5495 44.5413 21.2332 45.494C18.1825 47.7018 15.3369 52.079 12.797 54.8511C11.49 56.2775 9.89481 57.4336 8.6422 58.8102C7.80174 59.7338 8.81777 56.9983 8.87021 56.7805C9.01907 56.1621 9.19815 55.7636 9.50356 55.2144C10.8231 52.8413 11.6839 50.142 12.6956 47.6345C14.0499 44.2781 15.2605 40.8633 16.6224 37.5112C16.8356 36.9866 17.31 34.035 17.7244 33.8528C18.4128 33.5502 17.3352 32.8886 16.7871 32.5874C15.4886 31.8739 14.3738 30.5293 13.2657 29.5429C10.8513 27.3937 8.30946 25.453 5.84279 23.3537C4.31377 22.0524 2.55537 20.6692 0.737992 19.7704C0.672022 19.7378 -0.507574 19.2135 0.256646 19.1691C1.17887 19.1154 2.11959 19.1691 3.04339 19.1691C3.86129 19.1691 4.68325 19.1466 5.50078 19.1691C7.83816 19.2333 10.1894 19.8102 12.5183 19.8456L12.6584 19.8477C15.547 19.8916 18.3521 19.9342 21.2332 20.2465C21.9003 20.3189 22.946 20.4731 23.6146 20.2841C23.7583 20.2435 23.8442 19.5601 23.9186 19.3946C24.3459 18.4436 24.4551 17.2851 24.7673 16.2874C25.3153 14.5363 25.9713 12.8155 26.5533 11.0755C27.3209 8.78074 27.9801 6.46926 28.8587 4.20968Z" fill="#FF4D00"/>
</svg>
