<svg width="26" height="22" viewBox="0 0 26 22" fill="none" xmlns="http://www.w3.org/2000/svg">
<path fill-rule="evenodd" clip-rule="evenodd" d="M18.1433 19.6762C17.9503 19.4153 6.08988 3.78614 5.02666 2.35245H8.27424C9.15851 3.54382 18.5995 16.0095 21.3207 19.6762H18.1451H18.1433ZM0 21.9983H3.38093C5.08104 20.2903 8.96201 16.3982 10.9762 14.3772C11.9008 15.6511 14.7817 19.242 16.7678 21.995H26C24.6332 20.1541 17.8907 11.6748 16.0888 9.24828C18.8241 6.50375 22.3085 3.0104 25.3105 0C25.042 0 21.9366 0 21.9313 0C21.4892 0.444241 16.166 5.78355 14.7975 7.15665C14.1396 6.26312 9.56556 0.143032 9.46555 0H0.44038C1.2457 1.08536 8.59707 10.9882 9.61293 12.358C8.86025 13.1287 1.17727 20.7918 0 22V21.9983Z" fill="#FF4D00"/>
</svg>
