<svg width="26" height="101" viewBox="0 0 26 101" fill="none" xmlns="http://www.w3.org/2000/svg">
<path d="M15.0657 1.67394C15.0496 1.88023 15.035 2.08652 15.0161 2.2928C15.0102 2.35748 14.9752 2.42915 14.9913 2.4816C15.0686 2.75256 14.9825 2.98856 14.895 3.22457C14.7797 3.53399 14.6863 3.84692 14.698 4.19481C14.6995 4.24375 14.6892 4.30843 14.663 4.34165C14.3785 4.70701 14.3785 5.22622 14.164 5.63529C13.9874 5.97094 14.0472 6.32756 14.2077 6.69817C14.3931 7.12122 14.5929 7.56875 14.4558 8.09495C14.3858 8.36417 14.4003 8.65612 14.358 8.93758C14.2763 9.48126 13.9816 9.79942 13.6226 10.0494C13.4417 10.1753 13.2856 10.3361 13.1455 10.5022C13.0055 10.67 13.0244 10.9462 13.0901 11.1577C13.1441 11.3326 13.1776 11.5021 13.1893 11.6804C13.217 12.1227 13.3819 12.5248 13.4373 12.9636C13.468 13.2066 13.5176 13.4356 13.4986 13.6873C13.4797 13.9303 13.4884 14.1821 13.5555 14.4181C13.7014 14.939 13.6489 15.4984 13.7846 16.0229C13.8225 16.168 13.7802 16.3306 13.7627 16.4844C13.7175 16.883 13.7131 17.2746 13.8342 17.6679C13.9261 17.9686 13.8663 18.3112 13.9364 18.6259C14.0443 19.1101 14.0691 19.6206 14.2632 20.0769C14.304 20.173 14.3143 20.2779 14.3099 20.3811C14.2763 21.0716 14.4543 21.7272 14.5185 22.402C14.5492 22.7219 14.6571 22.9876 14.7359 23.2778C14.8745 23.7882 14.8789 24.3214 14.8716 24.8511C14.8687 25.0539 14.8673 25.2392 14.9942 25.3931C15.0175 25.421 15.0496 25.4542 15.0511 25.4857C15.054 25.8808 15.2364 26.2444 15.2028 26.643C15.1912 26.7776 15.1853 26.9 15.2422 27.0171C15.34 27.2146 15.3575 27.4279 15.356 27.6534C15.3531 28.0765 15.3677 28.4995 15.3765 28.9226C15.3794 29.0415 15.4042 29.1586 15.4596 29.2547C15.5822 29.4698 15.6522 29.7163 15.7442 29.947C15.8784 30.2862 15.9703 30.6428 16.1016 30.9837C16.179 31.1847 16.2505 31.3858 16.3584 31.5658C16.4285 31.6829 16.4941 31.7983 16.5029 31.9504C16.5058 32.0116 16.5248 32.0815 16.5569 32.1287C16.8764 32.5973 17.1449 33.113 17.552 33.4976C17.835 33.765 18.0773 34.0972 18.3136 34.4346C18.569 34.7982 18.8068 35.1758 19.0592 35.5411C19.3627 35.9799 19.6677 36.41 19.8924 36.9152C19.9449 37.0341 19.9682 37.1547 19.9857 37.2823C20.0251 37.5533 20.1127 37.7945 20.2601 38.0131C20.5212 38.3994 20.6467 38.8732 20.7985 39.3277C20.8028 39.3399 20.8028 39.3539 20.8087 39.3644C21.0655 39.8067 21.1705 40.3591 21.4842 40.7559C21.6272 40.9377 21.6374 41.1528 21.6579 41.366C21.6929 41.7314 21.8519 42.0443 21.9453 42.3835C21.9905 42.5478 22.0766 42.7051 22.1029 42.8852C22.1233 43.0285 22.1642 43.1597 22.2284 43.282C22.4356 43.6789 22.5173 44.1421 22.6967 44.5564C22.7595 44.7015 22.7901 44.8711 22.7887 45.0459C22.7872 45.2015 22.8339 45.3484 22.8835 45.4952C23.0148 45.8781 23.1097 46.2749 23.1607 46.6857C23.1695 46.7626 23.1695 46.8413 23.2089 46.9077C23.4715 47.3657 23.4759 47.9094 23.5518 48.4286C23.5707 48.558 23.5824 48.6891 23.6335 48.8027C23.8071 49.1908 23.8713 49.6331 24.0581 50.0177C24.1617 50.231 24.2098 50.474 24.2069 50.7275C24.2069 50.7921 24.1967 50.8761 24.2259 50.918C24.5323 51.3516 24.417 51.9232 24.5644 52.4075C24.6081 52.5508 24.63 52.7046 24.6913 52.8445C24.7716 53.0298 24.8372 53.2378 24.8139 53.4406C24.7789 53.7343 24.8139 54.007 24.8927 54.278C24.9073 54.3252 24.9131 54.3829 24.9058 54.4318C24.8445 54.8426 24.8985 55.2604 24.862 55.666C24.8226 56.0908 24.9146 56.4842 24.954 56.888C24.9773 57.1205 25.0138 57.346 24.9613 57.5785C24.9335 57.7044 24.9379 57.8337 24.9364 57.9631C24.935 58.3285 25.1057 58.6956 24.935 59.061C25.1101 59.4123 24.8752 59.783 24.9817 60.1571C25.0532 60.4106 24.9277 60.713 24.8898 60.9892C24.8314 61.4175 24.8649 61.8423 24.8664 62.2653C24.8664 62.9296 24.8153 63.58 24.6957 64.2251C24.6388 64.5275 24.5585 64.8282 24.6417 65.1428C24.6475 65.1656 24.6505 65.197 24.6432 65.2197C24.5119 65.7285 24.5148 66.2634 24.4316 66.7826C24.3689 67.1777 24.3674 67.5833 24.398 67.9819C24.417 68.2406 24.4287 68.4941 24.417 68.7545C24.4024 69.0867 24.4243 69.4206 24.4447 69.7545C24.4754 70.251 24.5469 70.7492 24.5221 71.2579C24.506 71.6058 24.4856 71.9799 24.5804 72.3295C24.6213 72.4799 24.6257 72.6302 24.6257 72.7876C24.6315 73.5078 24.6957 74.2245 24.757 74.9395C24.7862 75.2717 24.7438 75.6161 24.8766 75.9308C24.8912 75.964 24.897 76.0112 24.8883 76.0444C24.7993 76.4063 24.8883 76.7664 24.9073 77.1247C24.9335 77.6195 24.8606 78.102 24.8139 78.588C24.8095 78.6387 24.7905 78.6929 24.7978 78.7418C24.9408 79.6334 24.8431 80.5389 24.9116 81.4305C24.9846 82.371 24.9904 83.3115 24.9817 84.2538C24.9817 84.3185 24.9642 84.3936 24.9846 84.4461C25.1859 84.96 25.0605 85.5212 25.1553 86.0509C25.2049 86.3254 25.2399 86.6121 25.2618 86.8865C25.3289 87.7554 25.4661 88.6312 25.2618 89.5035C25.2356 89.6137 25.2268 89.7343 25.2253 89.8496C25.2195 90.3147 25.2487 90.7832 25.1174 91.236C25.094 91.3181 25.0955 91.4195 25.1086 91.5052C25.1728 91.9055 25.1188 92.2831 25.0386 92.6764C24.9831 92.9474 24.9598 93.2236 24.8868 93.4981C24.6723 94.3215 24.363 95.1029 24.166 95.9333C24.1091 96.1763 23.9851 96.3563 23.7983 96.4997C23.5955 96.657 23.4292 96.8808 23.2147 97.0276C22.9258 97.2269 22.6413 97.4332 22.383 97.6867C22.3305 97.7391 22.2415 97.7443 22.1685 97.7636C21.9278 97.83 21.6739 97.8458 21.4755 98.0555C21.4594 98.0713 21.4361 98.0835 21.4157 98.0853C20.9079 98.1237 20.4979 98.4908 20.0368 98.6849C19.7158 98.8195 19.3919 98.9786 19.1161 99.2391C19.0184 99.3317 18.8973 99.3492 18.7835 99.3824C18.5296 99.4523 18.2815 99.5328 18.067 99.7286C17.9707 99.816 17.8496 99.8352 17.7329 99.8684C17.336 99.9785 16.9333 100.068 16.5846 100.351C16.5277 100.398 16.4402 100.403 16.3672 100.41C15.9674 100.447 15.5749 100.529 15.1912 100.669C15.1401 100.688 15.0876 100.713 15.035 100.715C14.2048 100.739 13.3746 100.821 12.5444 100.722C12.4452 100.709 12.3576 100.687 12.2759 100.608C11.9111 100.253 11.5055 100.005 11.0357 99.9278C11.0036 99.9226 10.9642 99.9226 10.9423 99.8999C10.6709 99.6359 10.3193 99.5572 10.0347 99.3317C9.88738 99.2146 9.7225 99.1516 9.56346 99.0782C9.41317 99.0083 9.25267 98.9716 9.12865 98.8317C9.09217 98.7915 9.02797 98.7583 8.98128 98.7653C8.68071 98.8125 8.41807 98.6185 8.12772 98.5817C7.87821 98.5503 7.61703 98.5013 7.38649 98.3248C7.25372 98.2234 7.07571 98.2234 6.91375 98.2129C6.81599 98.2076 6.70072 98.2129 6.6409 98.115C6.51396 97.9069 6.34178 97.8842 6.1521 97.8825C6.08936 97.8825 6.00474 97.8825 5.96534 97.837C5.70125 97.5433 5.32334 97.5398 5.04027 97.3003C5.01401 97.2776 4.98045 97.2706 4.95273 97.2496C4.5792 96.9734 4.21589 96.6692 3.7519 96.6448C3.72126 96.643 3.68478 96.6255 3.66289 96.5993C3.38858 96.2829 3.0384 96.2951 2.69697 96.2742C2.53356 96.2637 2.4212 96.192 2.32199 96.0224C2.20234 95.8179 2.09583 95.5714 1.84924 95.5329C1.82881 95.5294 1.79963 95.5155 1.7938 95.4962C1.67999 95.1851 1.41297 95.0574 1.23788 94.8249C1.14304 94.7008 1.08468 94.5435 1.05842 94.3722C1.02194 94.1292 0.972333 93.8914 0.89646 93.6607C0.88041 93.6135 0.859978 93.5593 0.864355 93.5121C0.909587 93.061 0.784105 92.6135 0.845386 92.1625C0.8877 91.8478 0.797238 91.5471 0.773892 91.2412C0.738874 90.8041 0.851228 90.4213 0.941691 90.0262C1.01027 89.7273 1.09927 89.4336 1.14159 89.1259C1.14596 89.0874 1.15034 89.0472 1.16493 89.0123C1.31959 88.6574 1.3765 88.2886 1.30354 87.8935C1.28457 87.7903 1.30792 87.6645 1.38088 87.6085C1.54722 87.4826 1.53408 87.2833 1.55596 87.0963C1.60119 86.6995 1.69166 86.3061 1.5939 85.9041C1.75878 85.5142 1.66977 85.0946 1.68582 84.6908C1.7223 83.8692 1.89885 83.0493 1.73398 82.2207C1.72668 82.1839 1.71355 82.1367 1.72522 82.107C1.88426 81.7137 1.77775 81.3116 1.7617 80.913C1.7617 80.9008 1.75732 80.8851 1.7617 80.8746C1.9616 80.1998 1.76754 79.4883 1.90032 78.796C1.95868 78.4866 2.03163 78.1562 2.02433 77.817C2.01996 77.5828 2.13668 77.3608 2.17754 77.1178C2.2432 76.7262 2.23882 76.3154 2.3716 75.9413C2.39932 75.8643 2.3716 75.7892 2.37014 75.7122C2.36722 75.6231 2.34971 75.5164 2.38181 75.4448C2.53356 75.1109 2.59338 74.7333 2.67363 74.3819C2.76701 73.9763 3.00484 73.6232 2.98733 73.1774C2.98441 73.1075 3.02965 73.0323 3.05445 72.9624C3.36816 72.0761 3.58119 71.1635 3.59578 70.1915C3.60016 69.8804 3.58119 69.5692 3.59578 69.265C3.6308 68.522 3.50093 67.7633 3.73877 67.0378C3.80005 66.8543 3.79421 66.6515 3.76357 66.4609C3.69791 66.0624 3.6877 65.6515 3.73293 65.26C3.8234 64.4645 3.65852 63.6604 3.81318 62.872C3.81756 62.8475 3.82194 62.8178 3.81464 62.795C3.61767 62.0398 3.82194 61.2759 3.79421 60.5154C3.77962 60.0994 3.85111 59.6658 3.81755 59.2445C3.78254 58.818 3.86279 58.3932 3.79567 57.9701C3.77816 57.8547 3.78254 57.7359 3.81172 57.624C3.91823 57.2062 3.89051 56.7814 3.86425 56.3548C3.85841 56.2639 3.84236 56.166 3.86425 56.0838C4.03934 55.4423 3.91678 54.7657 4.03497 54.1207C4.12689 53.6137 4.11959 53.0962 4.20422 52.5858C4.27134 52.1802 4.28447 51.7466 4.27863 51.3166C4.26842 50.6226 4.12397 49.9286 4.24799 49.2345C4.32094 48.8255 4.21881 48.4216 4.2582 48.0126C4.30198 47.5528 4.2728 47.086 4.34283 46.6263C4.37785 46.399 4.41432 46.1683 4.3939 45.9323C4.38368 45.8186 4.3939 45.6963 4.42016 45.5861C4.51792 45.1701 4.53981 44.7522 4.51646 44.3204C4.46686 43.4289 4.62151 42.5775 4.90312 41.7541C4.95565 41.5985 4.97899 41.4307 5.02277 41.2699C5.08551 41.0409 5.13512 40.8084 5.22558 40.5846C5.3248 40.3399 5.4707 40.1108 5.47654 39.8014C5.47946 39.6249 5.60056 39.4483 5.6779 39.277C5.94345 38.6861 6.19442 38.0917 6.32136 37.4274C6.38848 37.0778 6.56357 36.7526 6.60296 36.403C6.69197 35.6146 7.08447 34.9957 7.34564 34.3052C7.41714 34.1164 7.50177 33.9381 7.56451 33.7423C7.63017 33.5378 7.71771 33.3455 7.85194 33.1864C8.00807 33.0011 8.10874 32.7703 8.10583 32.5028C8.10437 32.3228 8.17002 32.2109 8.28675 32.12C8.41953 32.0169 8.51875 31.8927 8.49832 31.6777C8.48665 31.5553 8.54939 31.4609 8.60483 31.3613C8.72594 31.141 8.79452 30.8945 8.78868 30.6288C8.77555 30.0187 8.73324 29.4138 8.61067 28.8195C8.50562 28.3107 8.47352 27.7968 8.56982 27.2811C8.60192 27.1132 8.58732 26.9472 8.56106 26.7793C8.51875 26.5084 8.52313 26.2427 8.61651 25.9822C8.67633 25.8144 8.66903 25.6273 8.68071 25.4472C8.68508 25.3703 8.6705 25.2899 8.68363 25.2147C8.81057 24.4543 8.70843 23.6973 8.67487 22.9386C8.63548 22.0541 8.39181 21.2132 8.34074 20.3321C8.32031 19.9947 8.32323 19.6591 8.33636 19.3252C8.35533 18.8864 8.35825 18.4494 8.3174 18.0123C8.29697 17.7955 8.25903 17.5753 8.21672 17.3672C8.1175 16.883 8.11166 16.39 8.08978 15.9023C8.07665 15.5998 8.06497 15.2922 8.06059 14.9862C8.05768 14.7257 8.07665 14.4688 7.97305 14.224C7.94679 14.1611 7.95116 14.0702 7.95992 13.9968C7.98472 13.7905 7.94095 13.5877 7.84173 13.4444C7.68123 13.2101 7.61266 12.9164 7.45508 12.6874C7.40547 12.6157 7.35148 12.5388 7.35294 12.4496C7.36169 12.065 7.26247 11.6787 7.36023 11.2976C7.38941 11.184 7.43902 11.0633 7.37336 10.9619C7.22745 10.7399 7.22162 10.4847 7.21432 10.226C7.2114 10.1368 7.19535 10.0407 7.15888 9.96375C6.90791 9.43755 6.68759 8.88864 6.36076 8.42013C6.27175 8.29251 6.1594 8.18061 6.02808 8.11593C5.6458 7.92713 5.34523 7.5845 4.98775 7.34325C4.6186 7.09327 4.54126 6.72614 4.69301 6.24365C4.71927 6.15799 4.7645 6.07758 4.77472 5.99017C4.80828 5.69299 4.89437 5.45699 5.14387 5.31714C5.29124 5.23322 5.31751 5.06889 5.26498 4.85387C5.17014 4.46228 5.17597 4.06368 5.33501 3.68083C5.4211 3.4728 5.48238 3.2508 5.56263 3.03927C5.59619 2.95011 5.60494 2.87668 5.56117 2.78577C5.49551 2.65291 5.45028 2.50432 5.389 2.36971C5.13803 1.82079 5.1716 1.48165 5.52907 1.02013C5.95659 0.465963 6.47456 0.182759 7.11511 0.275412C7.16763 0.282404 7.23037 0.292906 7.27414 0.266684C7.53386 0.123334 7.75564 0.229967 7.97596 0.392547C8.0781 0.467718 8.18608 0.534139 8.30864 0.535887C8.67633 0.539383 9.0484 0.576106 9.41025 0.525409C10.0318 0.439749 10.6592 0.425766 11.275 0.287661C11.4486 0.249201 11.6208 0.350594 11.7915 0.308638C12.1957 0.207244 12.6086 0.271923 13.0142 0.21773C13.3133 0.177522 13.5949 0.275421 13.8576 0.438001C14.0254 0.541142 14.1829 0.595322 14.3799 0.555114C14.7389 0.479943 14.9781 0.724689 15.0292 1.17047C15.0482 1.33655 15.0482 1.50612 15.0569 1.67569C15.0613 1.67569 15.0657 1.67569 15.0686 1.67569L15.0657 1.67394ZM2.51168 92.2219C2.77139 91.9877 3.03111 91.8531 3.26019 91.673C3.63809 91.3758 4.02621 91.159 4.48436 91.1451C4.76596 91.1363 5.02568 91.0034 5.29707 90.937C5.56992 90.8706 5.84132 90.7709 6.11854 90.7447C6.51542 90.708 6.90061 90.6626 7.27414 90.4668C7.71333 90.236 8.19483 90.2133 8.66612 90.1626C8.75221 90.1538 8.83683 90.1643 8.92 90.1224C9.31979 89.9231 9.73125 89.8899 10.1558 89.9982C10.366 90.0507 10.5761 90.0699 10.7964 90.0419C11.1612 89.9965 11.5332 89.9843 11.898 90.0419C12.0994 90.0717 12.2774 90.0577 12.4671 89.9755C12.6742 89.8864 12.9135 89.8706 13.0915 90.0175C13.3323 90.2168 13.5847 90.2692 13.8576 90.264C13.9816 90.264 14.1027 90.271 14.1902 90.3793C14.3522 90.5786 14.555 90.5839 14.7622 90.5786C15.0292 90.5716 15.2641 90.6661 15.4917 90.8426C15.9835 91.2237 16.5146 91.4999 17.107 91.5681C17.2587 91.5856 17.4017 91.6275 17.5491 91.68C17.9853 91.8373 18.4304 91.937 18.8914 91.895C19.0315 91.8828 19.1701 91.8985 19.3102 91.9317C19.8063 92.0523 20.2995 92.1957 20.8014 92.2656C21.2639 92.3286 21.7206 92.4177 22.1758 92.5261C22.7142 92.6537 23.1812 92.9684 23.6379 93.3075C23.845 93.4614 23.9122 93.4369 23.9428 93.1397C23.9618 92.9474 23.9005 92.7446 23.9647 92.5611C24.061 92.2866 24.08 91.9982 24.042 91.7202C23.9632 91.1643 24.2127 90.6241 24.0741 90.0699C24.0639 90.028 24.0916 89.9703 24.1033 89.9213C24.2098 89.4755 24.0843 89.0035 24.2011 88.5595C24.204 88.549 24.1952 88.535 24.1923 88.5228C24.1339 88.2064 24.1266 87.8865 24.166 87.5666C24.1908 87.3708 24.1821 87.1785 24.1164 86.9949C24.0595 86.8358 24.0376 86.6785 24.0756 86.5037C24.0989 86.3935 24.1164 86.2607 24.0873 86.1575C23.9282 85.5841 24.0172 84.9758 23.883 84.3901C23.7852 83.9671 23.8275 83.4881 23.8523 83.0388C23.8684 82.7416 23.9151 82.4462 23.8523 82.1542C23.775 81.8011 23.8859 81.4287 23.7735 81.0808C23.6612 80.7295 23.67 80.3693 23.7225 80.0092C23.7765 79.6386 23.8246 79.2645 23.7969 78.8887C23.7166 77.8048 23.8874 76.7227 23.7969 75.6371C23.7575 75.1668 23.8348 74.6878 23.7765 74.2106C23.7064 73.6319 23.7663 73.0411 23.7079 72.4659C23.616 71.5429 23.5882 70.6129 23.4876 69.6916C23.4817 69.6409 23.4774 69.5867 23.4832 69.5377C23.5722 68.8175 23.5445 68.0885 23.4759 67.377C23.4102 66.6952 23.4963 66.0414 23.5532 65.3806C23.5766 65.1009 23.5634 64.8194 23.6203 64.5362C23.6962 64.1534 23.6247 63.7356 23.775 63.3614C23.6539 63.0433 23.7385 62.6972 23.6845 62.3703C23.6583 62.2147 23.6656 62.0661 23.6773 61.9087C23.7225 61.3598 23.8582 60.8126 23.686 60.2585C23.6612 60.178 23.6656 60.0749 23.6802 59.9893C23.7896 59.3634 23.6466 58.7288 23.7181 58.1012C23.7312 57.9858 23.7035 57.8705 23.667 57.7603C23.5547 57.416 23.5328 57.0576 23.5416 56.6905C23.5561 56.1328 23.5707 55.5751 23.3314 55.0612C23.2614 54.9126 23.2585 54.736 23.2585 54.5664C23.2585 54.0542 23.0717 53.5875 22.9783 53.0997C22.9098 52.7379 22.7945 52.3865 22.7566 52.0124C22.7361 51.8061 22.7186 51.5893 22.634 51.411C22.3597 50.8341 22.3626 50.1663 22.2021 49.5509C22.1204 49.2398 22.0387 48.9111 22.0007 48.5772C21.9876 48.4636 21.9439 48.35 21.8636 48.2748C21.7177 48.1419 21.671 47.9409 21.6798 47.7556C21.6943 47.4094 21.598 47.0948 21.5411 46.7679C21.4536 46.2644 21.3996 45.7487 21.1545 45.3029C21.0757 45.1596 21.0669 44.9847 21.064 44.8152C21.0596 44.5879 21.0217 44.3851 20.867 44.2225C20.7649 44.1159 20.7474 43.9516 20.7357 43.7942C20.7153 43.5163 20.6219 43.2418 20.495 43.0425C20.3038 42.7418 20.2236 42.4114 20.1273 42.0706C20.0529 41.8083 19.9449 41.5479 19.8048 41.3293C19.6939 41.1598 19.6122 40.9867 19.5655 40.7874C19.4955 40.4885 19.3773 40.2052 19.3598 39.8888C19.354 39.7822 19.3073 39.6913 19.2299 39.6319C19.1657 39.5812 19.1074 39.5235 19.0738 39.4396C18.9046 39.006 18.7149 38.5812 18.5763 38.1337C18.4887 37.8522 18.4274 37.5708 18.2261 37.3662C18.1371 37.2753 18.14 37.1337 18.1137 37.0096C18.086 36.8855 18.086 36.7247 17.9941 36.6582C17.7723 36.4991 17.7154 36.2491 17.6658 35.9764C17.6381 35.8261 17.5841 35.6792 17.4936 35.5621C17.4105 35.4555 17.3594 35.3296 17.3127 35.195C17.2135 34.9101 17.0311 34.6758 16.964 34.3699C16.9523 34.3122 16.9085 34.2458 16.8662 34.2213C16.7013 34.1304 16.6386 33.9503 16.5715 33.7755C16.516 33.6304 16.446 33.5045 16.338 33.4101C16.0943 33.1951 15.9703 32.8734 15.8288 32.5728C15.5486 31.9731 15.3794 31.3106 15.0905 30.7145C15.0584 30.648 15.0365 30.5711 15.0278 30.4959C14.9738 30.0362 14.7637 29.7215 14.4251 29.5047C14.2194 29.3736 14.0516 29.1691 14.0137 28.8859C13.9728 28.5695 13.9568 28.2426 13.9655 27.9226C13.9699 27.7338 13.9685 27.5643 13.8911 27.3982C13.6445 26.8633 13.6314 26.2567 13.5439 25.6798C13.4578 25.1099 13.4082 24.5295 13.3338 23.9543C13.2812 23.5487 13.1572 23.1641 13.1411 22.7393C13.1295 22.4352 13.1193 22.089 12.9909 21.8006C12.9208 21.6397 12.9062 21.4876 12.9252 21.3146C12.9486 21.0943 12.95 20.8723 12.8858 20.6625C12.7399 20.1835 12.5619 19.715 12.5064 19.2045C12.4743 18.9091 12.3503 18.6381 12.362 18.3322C12.3722 18.0735 12.3605 17.8182 12.2424 17.5805C12.1825 17.4599 12.1694 17.3078 12.1971 17.1644C12.2613 16.8323 12.2132 16.5316 12.0746 16.2309C11.9316 15.9215 11.8557 15.5841 11.9126 15.2205C11.9199 15.1715 11.9184 15.1156 11.9053 15.0684C11.793 14.6453 11.863 14.1891 11.7288 13.7695C11.6981 13.6716 11.7156 13.5632 11.7346 13.4618C11.7565 13.3465 11.7492 13.2328 11.736 13.1157C11.6923 12.7189 11.7083 12.315 11.6252 11.9217C11.6018 11.8133 11.6062 11.6839 11.631 11.5738C11.7156 11.1962 11.7492 10.8116 11.7681 10.4235C11.7813 10.1823 11.8703 10.0075 12.0541 9.89907C12.219 9.80292 12.3795 9.69454 12.5444 9.59839C13.1718 9.23652 13.4986 8.37991 13.3089 7.581C13.2973 7.5338 13.2725 7.4866 13.2462 7.44814C12.9602 7.02159 12.3022 6.69643 11.9214 6.68944C11.6558 6.6842 11.4034 6.7681 11.1626 6.87648C10.9102 6.99012 10.6651 7.02159 10.401 6.97439C10.2536 6.94817 10.0946 6.92368 9.94866 6.98487C9.40734 7.21038 8.8806 7.02682 8.35095 6.91319C8.28821 6.8992 8.2138 6.89398 8.17586 6.82405C8.06351 6.61777 7.87383 6.58455 7.70311 6.51287C7.28727 6.33981 6.83058 6.32056 6.44101 6.04086C6.37681 5.99366 6.28926 5.99715 6.22068 6.04261C6.01641 6.17722 5.80484 6.16498 5.58889 6.11429C5.51302 6.09681 5.44152 6.09332 5.37732 6.16674C5.16284 6.41148 5.19057 6.75761 5.43861 6.94292C5.91282 7.29779 6.43371 7.49883 6.97941 7.61946C7.06404 7.63869 7.15158 7.64219 7.22891 7.69639C7.70311 8.0198 8.1175 8.43585 8.4458 8.95506C8.69822 9.35364 8.80911 9.82564 8.80035 10.3326C8.79744 10.5144 8.82808 10.698 8.82078 10.8728C8.80036 11.399 8.76825 11.9234 8.74345 12.4479C8.73323 12.6542 8.68946 12.836 8.77263 13.0423C8.87769 13.3027 8.89227 13.5929 8.86893 13.8814C8.82515 14.4181 8.76972 14.9548 8.78577 15.4967C8.7916 15.6768 8.79598 15.8603 8.77409 16.0369C8.72886 16.404 8.75659 16.7571 8.84121 17.112C8.93022 17.4844 9.00462 17.8602 8.94334 18.2588C8.90978 18.4756 8.93168 18.6976 8.97691 18.9143C9.00025 19.0262 9.02213 19.1451 9.01484 19.2605C8.95647 20.2936 9.18994 21.2849 9.32417 22.2901C9.34898 22.4771 9.38399 22.6712 9.46716 22.8442C9.58972 23.0977 9.61452 23.3827 9.63641 23.6659C9.65976 23.9613 9.68019 24.2602 9.76044 24.5417C9.80129 24.6833 9.81589 24.8092 9.78962 24.956C9.73126 25.2654 9.74439 25.5679 9.85966 25.8651C9.93699 26.0643 9.95012 26.2776 9.93115 26.5084C9.9078 26.7986 9.88737 27.1203 9.96471 27.3877C10.1471 28.0171 10.1223 28.7093 10.3908 29.3072C10.4054 29.3404 10.4156 29.3841 10.4126 29.4191C10.3776 29.8334 10.4477 30.246 10.4199 30.6585C10.4068 30.8543 10.3339 31.0274 10.2682 31.2075C10.1894 31.4225 10.0026 31.5553 9.96909 31.7983C9.94574 31.9732 9.85236 32.0885 9.75168 32.2144C9.38545 32.6759 8.9521 33.085 8.84121 33.765C8.82954 33.8367 8.78577 33.9136 8.73907 33.9608C8.37722 34.307 8.25757 34.8401 8.04163 35.2929C7.8286 35.7352 7.69437 36.2317 7.41714 36.6355C7.3471 36.7369 7.33397 36.8732 7.32668 37.0044C7.32084 37.0935 7.33397 37.1984 7.29895 37.2701C7.13262 37.6075 7.06549 37.9956 6.92834 38.3417C6.63214 39.0987 6.31698 39.8381 6.09228 40.6388C5.97701 41.0514 5.86759 41.4692 5.74064 41.88C5.66623 42.123 5.56117 42.3485 5.51594 42.6072C5.43423 43.0618 5.36565 43.5145 5.33209 43.9813C5.26643 44.8711 5.24309 45.7574 5.24163 46.649C5.24163 46.9584 5.31167 47.2661 5.26352 47.5755C5.23726 47.7468 5.25331 47.9042 5.30292 48.0685C5.37441 48.301 5.6458 48.8412 5.799 48.9828C6.10687 49.266 6.41474 49.5492 6.7124 49.8464C6.84225 49.974 6.994 50.0946 7.17931 50.0929C7.33251 50.0894 7.44923 50.1663 7.54699 50.3009C7.64475 50.4355 7.76877 50.4967 7.92052 50.4932C8.15105 50.4897 8.3422 50.5981 8.47498 50.8306C8.53918 50.9425 8.62234 51.0054 8.73615 51.0351C9.03965 51.1138 9.33146 51.2502 9.62912 51.3533C10.007 51.4827 10.401 51.5858 10.7249 51.8882C10.7657 51.9267 10.8241 51.9424 10.8752 51.9547C11.0488 51.9949 11.2035 52.0823 11.345 52.2064C11.4078 52.2606 11.4705 52.313 11.5478 52.3235C12.022 52.3812 12.4116 52.7186 12.8318 52.9336C13.1849 53.1137 13.5278 53.2675 13.9057 53.3077C14.1217 53.3305 14.3361 53.3497 14.5171 53.5245C14.5856 53.5927 14.6805 53.5822 14.7637 53.6049C15.1839 53.7238 15.626 53.6382 16.0404 53.8112C16.0783 53.827 16.1265 53.8147 16.1702 53.8147C16.9158 53.8025 17.6585 53.8969 18.4041 53.9144C18.9031 53.9266 19.3744 54.0158 19.8267 54.3322C20.3199 54.6766 20.5344 55.1416 20.5796 55.8041C20.6204 56.3915 20.6599 56.9859 20.8495 57.5453C20.9794 57.9299 21.0655 58.332 21.1472 58.7341C21.2625 59.3005 21.3923 59.8599 21.6228 60.3791C21.6477 60.435 21.671 60.498 21.6754 60.5609C21.7148 61.0084 21.938 61.4105 21.8986 61.8773C21.8942 61.9349 21.9365 61.9961 21.9555 62.0573C22.0489 62.3685 22.0883 62.7024 22.0285 63.0153C21.8899 63.7408 22.0343 64.482 21.9205 65.2058C21.9044 65.3019 21.938 65.4103 21.9511 65.5135C21.9847 65.7862 21.992 66.0659 21.9045 66.3211C21.7527 66.7669 21.6695 67.2109 21.6739 67.7004C21.6783 68.2388 21.617 68.7808 21.5659 69.3192C21.5163 69.8437 21.4872 70.3803 21.404 70.8926C21.2697 71.7072 21.2026 72.5323 21.0801 73.347C21.0217 73.7298 20.975 74.1144 20.9342 74.499C20.9064 74.7665 20.9342 75.0462 20.7328 75.2507C20.6744 75.3102 20.6963 75.422 20.6817 75.5094C20.6277 75.8521 20.5854 76.2035 20.3301 76.4395C20.2776 76.4867 20.2644 76.5688 20.2338 76.6388C20.0529 77.0583 19.7129 77.2978 19.44 77.6125C19.4123 77.644 19.3583 77.651 19.3175 77.6544C18.9483 77.6684 18.5865 77.7366 18.2421 77.9062C18.194 77.9289 18.1342 77.9394 18.0816 77.9289C17.7066 77.8642 17.3725 78.1614 16.999 78.095C16.57 78.3764 16.0812 78.4359 15.6289 78.6282C15.3152 78.7628 14.9986 78.8991 14.6819 79.0145C14.1304 79.2173 13.5512 79.1491 12.9821 79.1019C12.6596 79.0757 12.343 78.9813 12.0293 79.1579C11.9272 79.2156 11.8119 79.1859 11.7098 79.1509C11.2531 78.9936 10.7964 79.0233 10.328 79.0722C9.80274 79.1264 9.27456 79.0093 8.74929 78.9621C8.46623 78.9359 8.19045 78.8537 7.93219 78.7226C7.72208 78.6159 7.5149 78.5163 7.29603 78.4376C7.17201 78.3922 7.02172 78.3747 6.94147 78.1999C6.97941 78.1649 7.00129 78.1317 7.02902 78.1247C7.57763 77.9691 8.13355 77.873 8.69822 77.9132C8.91416 77.9289 9.12719 77.9376 9.34459 77.9324C9.58972 77.9272 9.82172 77.8048 10.0814 77.8835C10.4083 77.9831 10.7439 77.9534 11.0605 77.7891C11.2151 77.7069 11.3742 77.6877 11.5347 77.7471C11.7798 77.838 12.0293 77.8275 12.2744 77.7786C12.5167 77.7314 12.7487 77.7366 12.9734 77.859C13.1397 77.9499 13.3046 77.9446 13.4767 77.8712C13.665 77.7908 13.8503 77.7873 14.0429 77.8992C14.2515 78.0198 14.4894 77.9831 14.6674 77.8415C15.0161 77.5671 15.429 77.595 15.8011 77.4289C16.2942 77.2087 16.8341 77.1737 17.3258 76.9307C17.374 76.9062 17.4323 76.8888 17.4834 76.8975C17.9474 76.9709 18.3764 76.7419 18.8258 76.6877C18.9119 76.6772 18.9863 76.6178 19.0475 76.5391C19.3292 76.179 19.443 75.7839 19.3379 75.2752C19.2256 74.7385 19.2095 74.1739 19.1862 73.6267C19.1628 73.0935 19.2343 72.5358 19.3773 72.0184C19.4794 71.6495 19.4838 71.2859 19.4853 70.91C19.4853 70.3961 19.4211 69.8716 19.656 69.3944C19.672 69.3629 19.6779 69.3174 19.672 69.2807C19.6283 68.9643 19.726 68.6654 19.7523 68.3577C19.78 68.0378 19.8092 67.7214 19.7873 67.3927C19.7654 67.0746 19.8107 66.7162 19.9507 66.4557C20.0791 66.2162 20.1287 66.0134 20.0996 65.7442C20.0864 65.6218 20.1287 65.4907 20.1535 65.3649C20.1886 65.1883 20.2382 65.0135 20.2323 64.8299C20.2265 64.6551 20.2805 64.5083 20.3374 64.3527C20.4629 64.01 20.5387 63.6429 20.5752 63.2723C20.5913 63.1045 20.6059 62.9419 20.654 62.7811C20.7678 62.4017 20.851 62.0049 20.851 61.6063C20.8481 60.7217 20.6817 59.8669 20.4745 59.0225C20.2863 58.2551 20.0718 57.4981 19.958 56.7044C19.9011 56.3024 19.8209 55.8985 19.6866 55.5192C19.6458 55.4038 19.6108 55.2552 19.4999 55.2133C19.1234 55.0717 18.7835 54.8234 18.3632 54.7954C17.9678 54.7692 17.5753 54.8304 17.1755 54.7815C16.6897 54.722 16.1936 54.8059 15.7091 54.6399C15.3881 54.5297 15.0511 54.5437 14.7199 54.5035C14.2194 54.4441 13.7146 54.4143 13.2214 54.2255C12.9062 54.1049 12.5502 54.1364 12.2132 54.0262C11.8178 53.8986 11.4253 53.75 11.0225 53.6574C10.9598 53.6434 10.8927 53.6224 10.8416 53.5805C10.4987 53.2973 10.0698 53.2693 9.71229 53.0298C9.66122 52.9948 9.58243 53.028 9.52115 53.0088C9.22057 52.9179 8.89082 52.8987 8.65298 52.6295C8.49686 52.4529 8.28383 52.57 8.1423 52.4302C7.99202 52.2816 7.86508 52.1015 7.66226 52.0526C7.63017 52.0438 7.59952 52.0316 7.56888 52.0176C7.30916 51.8952 7.0261 51.8148 6.81015 51.5946C6.50958 51.2886 6.1521 51.1051 5.81505 50.8778C5.74939 50.8341 5.67936 50.7642 5.6064 50.8236C5.52177 50.8918 5.54513 51.0107 5.55826 51.1103C5.58014 51.2764 5.64726 51.4337 5.63121 51.605C5.54804 52.5088 5.71438 53.4144 5.621 54.3182C5.6137 54.3934 5.62537 54.4755 5.64434 54.549C5.70124 54.7692 5.68519 54.9842 5.61808 55.1975C5.58306 55.3094 5.56117 55.4178 5.62537 55.5297C5.77128 55.7814 5.72751 56.0611 5.65309 56.3129C5.59035 56.5226 5.59327 56.7114 5.63412 56.9177C5.7027 57.2743 5.72897 57.6292 5.6458 57.9946C5.59765 58.2061 5.58598 58.4299 5.69395 58.6344C5.76837 58.776 5.75523 58.9334 5.73626 59.0889C5.72167 59.2043 5.6852 59.3179 5.71146 59.4333C5.79171 59.7987 5.74356 60.1536 5.66769 60.5085C5.61662 60.7497 5.59911 60.9962 5.64434 61.2409C5.75815 61.8668 5.79462 62.4944 5.6954 63.1289C5.67644 63.2531 5.69103 63.3859 5.6954 63.5153C5.71291 64.0188 5.74501 64.524 5.65017 65.024C5.62245 65.1656 5.61808 65.3072 5.6458 65.447C5.6852 65.6463 5.66768 65.8438 5.58597 66.0134C5.49113 66.2127 5.49989 66.405 5.54658 66.613C5.58598 66.7878 5.61078 66.9662 5.59619 67.1515C5.55241 67.6794 5.48967 68.2056 5.51302 68.7406C5.51885 68.8717 5.49843 69.0045 5.43423 69.1129C5.32772 69.2912 5.29708 69.4888 5.29124 69.7003C5.28686 69.8559 5.27957 70.0202 5.15263 70.1164C5.02131 70.216 4.97462 70.3664 4.94544 70.5359C4.92793 70.6356 4.90166 70.7405 4.85643 70.8261C4.52959 71.4345 4.23924 72.0586 4.02475 72.7439C3.88906 73.1757 3.77378 73.6197 3.61912 74.0445C3.55638 74.2158 3.62788 74.4168 3.53012 74.5707C3.35503 74.8469 3.37983 75.1965 3.2879 75.506C3.19452 75.8224 3.18723 76.186 3.13616 76.5251C3.02089 77.2891 2.90271 78.0478 2.90125 78.8292C2.90125 79.0722 2.89833 79.3187 2.83851 79.5582C2.80787 79.6806 2.77868 79.8187 2.79619 79.9393C2.86185 80.3956 2.88374 80.8501 2.88082 81.3134C2.87644 82.1595 2.94356 83.0021 2.91876 83.8517C2.90709 84.2415 2.95962 84.6489 2.98588 85.0474C3.02236 85.6121 3.1172 86.1907 3.0136 86.7449C2.91438 87.2729 2.90708 87.7851 2.95085 88.3113C2.96982 88.5455 2.93772 88.7763 2.8779 89.0018C2.84872 89.1119 2.83122 89.229 2.82246 89.3427C2.79328 89.7203 2.72762 90.0822 2.55252 90.4073C2.48103 90.5402 2.45039 90.6888 2.47374 90.8531C2.48541 90.9405 2.49854 91.0419 2.47374 91.1223C2.36576 91.4737 2.44747 91.8093 2.51021 92.2254L2.51168 92.2219ZM23.3446 94.6536C23.4219 94.3984 23.3198 94.2708 23.1461 94.1921C23.025 94.1379 22.9112 94.0645 22.7974 93.9876C22.4502 93.7551 22.0766 93.5628 21.6943 93.4771C21.4186 93.4159 21.137 93.2918 20.8408 93.3495C20.7372 93.3687 20.6175 93.3512 20.5198 93.3075C20.0178 93.0768 19.4707 93.1484 18.9629 92.9596C18.9235 92.9457 18.8739 92.9404 18.8345 92.9526C18.48 93.0593 18.1239 92.9509 17.7723 92.9334C17.1843 92.9037 16.605 92.7149 16.0126 92.6694C15.9703 92.6659 15.9266 92.6502 15.8886 92.6292C15.6566 92.5051 15.41 92.4649 15.162 92.4649C14.9708 92.4649 14.8016 92.416 14.6426 92.2866C14.4689 92.145 14.2792 92.0838 14.0618 92.0995C13.8503 92.117 13.6445 92.0698 13.4359 91.9632C13.1951 91.8391 12.9281 91.7342 12.6509 91.7971C12.5313 91.8251 12.4174 91.8408 12.2993 91.7901C12.2102 91.7516 12.1329 91.7954 12.0512 91.8373C11.8221 91.9562 11.5741 91.9544 11.3538 91.8618C11.0634 91.7394 10.7876 91.7639 10.4944 91.8076C10.1763 91.8531 9.8509 91.916 9.53719 91.7429C9.38837 91.6607 9.23808 91.7097 9.10093 91.7971C8.99441 91.8653 8.88352 91.8967 8.76242 91.9177C8.33928 91.9876 7.90156 91.9457 7.49009 92.124C7.43173 92.1502 7.36315 92.1397 7.29749 92.1467C6.56211 92.2342 5.81068 92.1537 5.09281 92.4317C5.03153 92.4544 4.96295 92.4457 4.90021 92.4614C4.48874 92.5716 4.02621 92.4299 3.66873 92.818C3.63371 92.8565 3.5666 92.853 3.51261 92.8635C3.44549 92.8775 3.39296 92.9177 3.34919 92.9806C3.19599 93.2044 2.99026 93.3495 2.79328 93.5086C2.62402 93.6467 2.60213 93.7166 2.73199 93.9071C2.98733 94.2777 3.31126 94.5103 3.72418 94.5557C3.98536 94.5854 4.27279 94.5452 4.44788 94.8774C4.49166 94.963 4.58066 94.9351 4.65653 94.9421C4.87248 94.9595 5.09281 94.998 5.26644 95.1641C5.7173 95.5906 6.1988 95.949 6.73136 96.206C6.82037 96.2497 6.9152 96.2777 7.00859 96.3091C7.43756 96.4577 7.91323 96.3423 8.31594 96.643C8.35387 96.671 8.42099 96.6378 8.47352 96.643C8.72011 96.6622 8.96961 96.6483 9.20014 96.7864C9.41171 96.9122 9.6189 97.0626 9.8757 96.9647C9.90926 96.9525 9.96617 96.9752 9.99681 97.0032C10.2259 97.2094 10.5148 97.2724 10.7497 97.4454C10.9277 97.5766 11.1451 97.5154 11.2925 97.6517C11.5099 97.8545 11.7652 97.9559 11.9972 98.1167C12.0906 98.1814 12.1986 98.2408 12.2599 98.3387C12.4335 98.6149 12.7107 98.6272 12.9442 98.6936C13.0945 98.7356 13.2506 98.7705 13.4038 98.8212C13.5657 98.8754 13.7219 99.003 13.9043 98.9209C14.1202 98.823 14.3332 98.8667 14.5317 98.9751C14.8439 99.1447 15.162 99.2373 15.5049 99.1919C15.6771 99.1709 15.8521 99.1132 16.0185 99.1394C16.4008 99.2023 16.7407 99.066 17.0763 98.8894C17.1668 98.8422 17.2543 98.7968 17.355 98.8003C17.4805 98.8038 17.5768 98.7286 17.6818 98.6552C18.0262 98.4157 18.3778 98.1762 18.763 98.0503C18.9556 97.9891 19.1351 97.9192 19.2868 97.7688C19.4255 97.6325 19.5743 97.5451 19.761 97.5661C19.8705 97.58 19.9712 97.5451 20.0689 97.4751C20.4789 97.1815 20.9502 97.0766 21.3894 96.8668C21.779 96.6797 22.205 96.5941 22.475 96.1518C22.5056 96.1011 22.5523 96.0486 22.599 96.0312C22.9214 95.921 23.0922 95.6466 23.1826 95.2812C23.1943 95.2323 23.2133 95.1833 23.2381 95.1413C23.3271 94.9875 23.3927 94.8284 23.349 94.6484L23.3446 94.6536ZM6.4877 2.87668C6.68905 3.16338 6.72553 3.49029 6.72115 3.83467C6.71823 4.08117 6.72407 4.32767 6.73136 4.57417C6.74012 4.90457 6.75325 4.91505 7.02026 4.96225C7.22307 4.99722 7.43464 5.01121 7.62287 5.09687C7.80817 5.18078 7.97013 5.21224 8.15106 5.11609C8.32469 5.02519 8.49978 5.06539 8.64569 5.193C8.98274 5.48844 9.39712 5.34684 9.75898 5.49543C10.0639 5.36432 10.3557 5.46571 10.649 5.56361C11.0401 5.69472 11.4413 5.68249 11.8396 5.65802C12.203 5.63529 12.2584 5.58109 12.3386 5.14755C12.3941 4.84511 12.5196 4.61262 12.7239 4.45703C12.8931 4.32592 13.093 4.25073 13.2812 4.15983C13.484 4.06368 13.6927 3.98678 13.6971 3.65288C13.6971 3.59694 13.7423 3.53574 13.7773 3.48854C14.0531 3.12143 14.1348 2.6844 14.1129 2.18967C13.7744 2.26134 13.4724 2.41342 13.1995 2.61271C12.9427 2.79976 12.6801 2.9134 12.3883 2.96934C11.7536 3.09171 11.1218 3.10045 10.49 2.93961C9.74001 2.74732 8.99442 2.73159 8.26487 3.07423C8.18754 3.11094 8.09562 3.10919 8.01099 3.11968C7.49593 3.18436 6.99691 3.0987 6.48915 2.88018L6.4877 2.87668ZM6.47748 1.48865C6.8335 1.69144 7.22016 1.74736 7.58493 1.88896C7.86653 1.99735 8.18024 2.07427 8.49686 2.08651C8.89373 2.10049 9.29061 2.22288 9.68456 2.20889C10.0566 2.19491 10.4141 2.25434 10.7716 2.33651C11.0386 2.39769 11.3042 2.42915 11.5755 2.41341C11.987 2.39244 12.3912 2.30153 12.791 2.19664C13.1076 2.11273 13.3848 1.89421 13.6708 1.7194C13.8357 1.61975 13.8196 1.53934 13.6489 1.4362C13.3586 1.26313 13.023 1.27536 12.7268 1.12677C12.699 1.11278 12.6626 1.12327 12.6305 1.12327C12.3284 1.13201 12.0264 1.15474 11.7288 1.06034C11.6689 1.04111 11.5989 1.04812 11.5347 1.05511C10.9773 1.11804 10.4199 1.17922 9.85966 1.19845C9.76336 1.20194 9.66559 1.22293 9.57221 1.24915C9.45548 1.28237 9.33584 1.30857 9.21911 1.27536C9.00317 1.21417 8.78722 1.24739 8.5742 1.27711C8.27362 1.32081 7.97888 1.39249 7.68561 1.21593C7.61557 1.17397 7.51489 1.20195 7.4288 1.20545C7.2683 1.21244 7.10489 1.24041 6.94585 1.22817C6.74449 1.21419 6.59859 1.30334 6.47748 1.48865Z" fill="#FF4D00"/>
<path d="M16.4724 63.0101C16.6912 63.1761 16.9101 63.3422 17.1304 63.5065C17.2953 63.6307 17.4514 63.7688 17.628 63.8719C18.2554 64.239 18.4903 64.9523 18.4086 65.7407C18.3677 66.1305 18.2787 66.4994 18.1693 66.863C18.1168 67.0413 18.1167 67.2074 18.1343 67.3927C18.162 67.6864 18.143 67.9871 18.1489 68.2843C18.1532 68.529 18.1357 68.7825 18.3064 68.9748C18.3283 69.001 18.3517 69.0395 18.3546 69.0744C18.3808 69.4783 18.572 69.8227 18.6376 70.2108C18.6464 70.2615 18.6625 70.3121 18.6625 70.3628C18.6625 70.7702 18.6449 71.1722 18.7339 71.5813C18.8025 71.896 18.6785 72.1932 18.3925 72.3348C18.3633 72.3488 18.3298 72.368 18.3093 72.3942C17.9329 72.9099 17.4047 73.2088 17.0151 73.7158C16.7875 74.013 16.4592 74.1983 16.2053 74.4815C16.1572 74.5357 16.0857 74.5445 16.02 74.5357C15.8873 74.52 15.7618 74.5567 15.6378 74.6074C15.1577 74.8067 14.6543 74.8906 14.1597 75.0077C13.8256 75.0864 13.4783 75.1318 13.1369 75.1878C13.0625 75.2 12.9822 75.207 12.9166 75.2437C12.6014 75.4203 12.2629 75.3766 11.9317 75.401C11.7376 75.415 11.5421 75.3923 11.3509 75.4587C11.3101 75.4727 11.2605 75.4885 11.224 75.4745C10.814 75.3136 10.3602 75.3626 9.96919 75.1196C9.85684 75.0497 9.75762 75.0846 9.65548 75.1091C9.44537 75.1563 9.25569 75.1266 9.06163 75.0025C8.85882 74.8749 8.63558 74.8434 8.40359 74.9081C8.18035 74.971 8.17742 74.9535 8.17888 74.6703C8.17888 74.4098 8.27372 74.1948 8.37294 73.9798C8.39775 73.9256 8.43568 73.8592 8.47945 73.8382C8.82672 73.6809 9.13459 73.3557 9.54168 73.4501C9.79118 73.5078 10.029 73.3592 10.28 73.4186C10.6243 73.4956 10.9628 73.6232 11.3188 73.5952C11.3714 73.5917 11.4458 73.6406 11.475 73.6144C11.7726 73.333 12.0965 73.5288 12.4073 73.5323C12.5372 73.534 12.6641 73.5585 12.7823 73.4641C12.8494 73.4116 12.9297 73.4414 13.0056 73.4449C13.6986 73.4833 14.3873 73.4221 15.0687 73.277C15.2788 73.2316 15.4816 73.1319 15.6976 73.1005C15.8056 73.0847 15.8946 72.9973 15.9704 72.9012C16.0769 72.7666 16.1922 72.6547 16.3615 72.6634C16.4155 72.6669 16.4767 72.6564 16.5103 72.6022C16.7321 72.2386 17.0866 72.0656 17.3493 71.7579C17.4981 71.5831 17.5798 71.3995 17.5141 71.174C17.3901 70.7492 17.3784 70.2824 17.1786 69.8838C17.1406 69.8087 17.1144 69.7125 17.1129 69.6269C17.1085 69.3419 17.0108 69.0954 16.8969 68.8612C16.7598 68.5815 16.7394 68.2983 16.8152 68.0011C16.8853 67.7249 16.9218 67.4469 16.9013 67.1585C16.8926 67.0413 16.9072 66.9259 16.9436 66.8158C17.1202 66.2931 17.0866 65.7215 17.1961 65.183C17.2077 65.1236 17.2048 65.0467 17.1815 64.9942C17.0122 64.6131 16.9422 64.1971 16.8809 63.7792C16.8328 63.4593 16.6241 63.281 16.4446 63.0765C16.4519 63.0538 16.4607 63.031 16.4709 63.0083L16.4724 63.0101Z" fill="#FF4D00"/>
<path d="M8.77405 62.2967C8.69672 62.4908 8.58875 62.6324 8.45743 62.7495C8.19918 62.9785 7.94383 62.933 7.74831 62.6358C7.45649 62.1901 7.17489 61.7373 6.94436 61.2408C6.92831 61.2058 6.90204 61.1744 6.89912 61.1394C6.86702 60.7006 6.6219 60.3615 6.51392 59.9594C6.43951 59.685 6.40157 59.4053 6.43075 59.1168C6.43513 59.0783 6.43951 59.0381 6.43659 59.0014C6.36801 58.1238 6.71382 57.4071 7.06108 56.6886C7.17052 56.4631 7.33101 56.3512 7.52507 56.2411C8.26775 55.8268 9.05128 55.9404 9.8246 55.9544C10.15 55.9614 10.4622 56.1257 10.7467 56.29C10.9423 56.4019 11.0955 56.6659 11.1159 56.9736C11.1203 57.0505 11.1159 57.1291 11.1232 57.2043C11.1407 57.3791 11.2093 57.4753 11.3727 57.4928C12.0774 57.5679 12.7384 57.8109 13.3468 58.2567C13.5394 58.3983 13.7496 58.5032 13.9538 58.6186C14.2165 58.7654 14.4207 58.9874 14.5564 59.2951C14.733 59.6954 14.5345 60.4367 14.1844 60.5992C13.7641 60.7933 13.36 61.031 12.9164 61.1692C12.4962 61.3003 12.057 61.3912 11.6616 61.6569C11.4354 61.809 11.1509 61.7495 10.8985 61.6796C10.6125 61.6009 10.5585 61.5957 10.5089 61.9646C10.4506 62.4033 10.1573 62.5922 9.85962 62.7565C9.76332 62.8089 9.64805 62.8142 9.54737 62.8579C9.43064 62.9103 9.34164 62.8876 9.25409 62.781C9.11256 62.6079 8.87619 62.5677 8.77113 62.2967H8.77405ZM8.74487 61.2985C8.7974 61.1394 8.77114 60.9978 8.78427 60.8615C8.79594 60.7461 8.7901 60.629 8.83533 60.5206C9.09505 59.9017 9.81876 59.4472 10.4024 59.5434C10.7015 59.5923 11.0035 59.6325 11.2618 59.8545C11.3479 59.9297 11.4602 59.9542 11.5682 59.9716C11.7608 60.0031 11.9607 60.0084 12.1431 60.0766C12.5823 60.2374 12.9719 60.0556 13.3585 59.8563C13.5642 59.7496 13.5613 59.615 13.4125 59.4175C13.2637 59.2182 13.039 59.2269 12.8726 59.0766C12.5794 58.8144 12.2613 58.6028 11.8936 58.5259C11.6499 58.4735 11.4004 58.4543 11.1597 58.3931C10.4885 58.2217 10.1996 57.8494 10.1514 57.0592C10.1296 56.6851 10.0522 56.582 9.74873 56.526C9.55759 56.4911 9.36207 56.4788 9.16801 56.4683C8.81053 56.4491 8.45597 56.4718 8.11308 56.6047C7.68703 56.769 7.62575 56.9526 7.8344 57.4386C7.84899 57.4735 7.86649 57.5067 7.884 57.5382C7.97301 57.692 8.01679 57.8669 8.01971 58.0504C8.02846 58.5749 8.1306 59.0661 8.33779 59.5311C8.4195 59.7129 8.4939 59.914 8.46764 60.1237C8.41657 60.5555 8.55373 60.9157 8.74341 61.2968L8.74487 61.2985Z" fill="#FF4D00"/>
<path d="M16.4444 63.0783C16.313 63.3021 16.3349 63.5748 16.2766 63.8213C16.2372 63.9839 16.2138 64.15 16.1117 64.2793C16.0489 64.358 16.0416 64.4629 16.0168 64.5625C15.8797 65.1184 15.8184 65.6953 15.5835 66.2233C15.4463 66.5327 15.388 66.9086 15.3281 67.253C15.1939 68.0204 14.9473 68.7337 14.7007 69.4504C14.5928 69.7651 14.3666 69.9871 14.193 70.2476C14.085 70.4084 13.8953 70.4469 13.7129 70.4224C13.4547 70.3874 13.2022 70.3367 12.9557 70.2301C12.6624 70.1025 12.3676 70.0745 12.0846 70.2913C11.9372 70.4032 11.7694 70.3664 11.6104 70.335C11.4601 70.3053 11.3113 70.2721 11.1595 70.279C10.9086 70.2895 10.6605 70.2633 10.4241 70.1637C9.94993 69.9626 9.44947 69.9731 8.95921 69.9014C8.84103 69.884 8.72284 69.8822 8.61195 69.814C8.42956 69.7021 8.22967 69.7319 8.03853 69.7511C7.84739 69.7703 7.61976 70.1217 7.65041 70.3892C7.68542 70.6829 7.68397 70.98 7.74233 71.272C7.80069 71.5692 7.92179 71.793 8.1319 71.9573C8.19464 72.0062 8.25884 72.0587 8.31283 72.1216C8.4281 72.2562 8.40767 72.3279 8.28949 72.4695C7.93493 72.896 7.50304 72.8174 7.07698 72.7457C6.91211 72.7177 6.79684 72.5621 6.69178 72.4083C6.45687 72.0674 6.33139 71.6758 6.31679 71.2353C6.31388 71.1182 6.31826 70.9993 6.2774 70.8909C6.1315 70.4993 6.20153 70.1025 6.24968 69.7056C6.27303 69.5098 6.36641 69.3612 6.50648 69.2808C6.69033 69.1759 6.86833 69.0501 7.0726 68.9959C7.21997 68.9574 7.36443 68.9015 7.50596 68.842C7.64165 68.7843 7.78756 68.7442 7.92033 68.7896C8.20194 68.8823 8.49376 68.9067 8.77391 68.9871C9.04676 69.0658 9.32252 69.1113 9.59829 69.1707C9.98057 69.2529 10.3672 69.2896 10.751 69.3508C11.0982 69.405 11.4353 69.3945 11.7796 69.3211C12.1181 69.2494 12.464 69.2214 12.8068 69.1934C13.1716 69.1637 13.319 69.0046 13.354 68.5554C13.3657 68.3998 13.37 68.2442 13.462 68.1166C13.4824 68.0886 13.5072 68.0501 13.5072 68.0152C13.5145 67.3928 13.8618 66.8806 13.9026 66.2687C13.9172 66.0625 13.9697 65.8754 14.0675 65.6901C14.1565 65.5223 14.2076 65.3072 14.2265 65.1062C14.2484 64.8859 14.3243 64.7041 14.4352 64.5503C14.5359 64.4122 14.6263 64.2671 14.7007 64.1115C14.9167 63.6622 15.296 63.4087 15.5762 63.0364C15.6491 62.9385 15.7805 62.893 15.8913 62.8441C16.1117 62.7462 16.3174 62.7619 16.4721 63.0102C16.4619 63.0311 16.4531 63.0539 16.4458 63.0766L16.4444 63.0783Z" fill="#FF4D00"/>
</svg>
