<svg width="34" height="102" viewBox="0 0 34 102" fill="none" xmlns="http://www.w3.org/2000/svg">
<path d="M28.3297 4.30267C28.3778 4.87432 28.2567 5.36732 28.2275 5.8673C28.2013 6.34105 28.1473 6.8113 28.121 7.2833C28.0904 7.81999 28.2188 8.30423 28.3019 8.8077C28.3457 9.07866 28.3661 9.34614 28.3078 9.6171C28.2757 9.76919 28.2582 9.93352 28.3078 10.0769C28.4231 10.4073 28.4041 10.7621 28.4449 11.103C28.4975 11.5383 28.5091 11.9789 28.6521 12.3914C28.6638 12.4264 28.6755 12.4684 28.6711 12.5051C28.5879 13.2201 28.7718 13.9123 28.7966 14.6168C28.8155 15.1326 28.8681 15.6448 28.7192 16.1535C28.6448 16.407 28.6346 16.6779 28.7543 16.9454C28.8331 17.1202 28.7893 17.3265 28.7455 17.5171C28.62 18.0712 28.6025 18.6411 28.5952 19.2075C28.5908 19.4698 28.5646 19.7197 28.515 19.9732C28.3982 20.5624 28.2509 21.1445 28.1984 21.7511C28.1881 21.8665 28.1765 21.9976 28.1254 22.0868C27.8277 22.6025 27.9386 23.237 27.7708 23.7912C27.7344 23.9101 27.7621 24.0465 27.7883 24.1741C27.8321 24.3874 27.8817 24.6006 27.8409 24.8261C27.8234 24.9188 27.8409 25.0079 27.8861 25.0849C27.9882 25.2614 28.0218 25.4695 28.0554 25.6688C28.0889 25.8698 28.1677 26.0271 28.2669 26.1845C28.5996 26.7107 28.9629 27.2002 29.4138 27.5917C29.5232 27.6861 29.6429 27.7316 29.7625 27.7875C30.0572 27.9239 30.3447 28.0707 30.5125 28.4239C30.5329 28.4676 30.565 28.5165 30.6015 28.534C30.9312 28.6913 31.1501 29.0322 31.4375 29.2595C31.5805 29.3714 31.706 29.5112 31.7979 29.6965C31.9074 29.9185 32.0255 30.1353 32.2327 30.2577C32.3407 30.3224 32.3918 30.4657 32.4633 30.5794C32.6573 30.8905 32.8601 31.1964 33.1097 31.4447C33.2249 31.5583 33.2891 31.6894 33.33 31.859C33.4204 32.2401 33.4525 32.6439 33.6612 32.9778C33.7035 33.0443 33.7254 33.1544 33.7152 33.2383C33.6758 33.5425 33.7604 33.8222 33.8071 34.1089C33.8611 34.441 33.9063 34.7732 33.74 35.0896C33.6933 35.177 33.7064 35.2889 33.7166 35.3938C33.7268 35.4952 33.7414 35.6088 33.7166 35.7015C33.5897 36.1665 33.6262 36.6385 33.6247 37.1157C33.6247 37.6052 33.5561 38.0965 33.4307 38.5685C33.3971 38.6943 33.3825 38.8062 33.3971 38.9426C33.4277 39.224 33.3723 39.5107 33.3022 39.7729C33.1826 40.2205 33.1257 40.6733 33.1213 41.1383C33.1213 41.2711 33.0965 41.3935 33.0703 41.5194C33.0119 41.8078 32.9667 42.0945 32.9594 42.3969C32.9506 42.7536 32.8777 43.1102 32.8062 43.4581C32.7726 43.6224 32.7215 43.7745 32.7449 43.9493C32.7609 44.0664 32.7376 44.1801 32.7142 44.2937C32.6603 44.5454 32.6209 44.7989 32.6179 45.0611C32.6179 45.1381 32.615 45.2202 32.5946 45.2919C32.3743 46.0699 32.3655 46.8967 32.2225 47.6939C32.1729 47.9684 32.1569 48.255 32.1 48.5313C32.0795 48.6309 32.0606 48.741 32.0752 48.8372C32.1102 49.054 32.0839 49.255 31.992 49.4368C31.8213 49.769 31.8665 50.1378 31.8578 50.4927C31.8446 51.0032 31.7118 51.4857 31.6549 51.9839C31.6243 52.2548 31.5718 52.5171 31.6272 52.7915C31.6637 52.9733 31.6389 53.1569 31.5878 53.3282C31.4419 53.8142 31.4901 54.3247 31.4521 54.8246C31.4317 55.1009 31.4215 55.3683 31.2376 55.5729C31.1647 55.6533 31.1691 55.7529 31.1982 55.8596C31.3412 56.391 31.172 56.849 30.9575 57.2931C30.9196 57.3717 30.8451 57.4434 30.8408 57.5221C30.8043 58.2441 30.4439 58.8856 30.4789 59.6251C30.4818 59.6881 30.476 59.7597 30.4526 59.8157C30.2221 60.3821 30.2061 61.0184 30.0499 61.6093C29.958 61.9537 29.8034 62.2718 29.7479 62.6337C29.726 62.7736 29.691 62.9099 29.7085 63.055C29.7158 63.118 29.7275 63.1914 29.7085 63.2473C29.5028 63.8487 29.5436 64.5252 29.3087 65.1178C29.2941 65.1528 29.2722 65.193 29.2752 65.2262C29.3102 65.5601 29.1686 65.8451 29.1161 66.1528C29.0592 66.4937 28.96 66.8206 28.9148 67.1667C28.7703 68.2628 28.5587 69.3467 28.3895 70.4393C28.2509 71.3273 28.194 72.2259 28.0845 73.1157C28.0831 73.1279 28.0802 73.1419 28.0816 73.1542C28.1648 73.6262 28.0349 74.1034 28.1181 74.5772C28.1429 74.7135 28.1546 74.8709 28.1254 75.002C28.0014 75.5527 28.086 76.1068 28.0802 76.661C28.0743 77.3498 27.978 78.0246 27.8657 78.6958C27.8219 78.9581 27.8774 79.2098 27.8525 79.4685C27.8073 79.9336 27.6366 80.3601 27.603 80.8304C27.5622 81.4072 27.4513 81.9754 27.4031 82.5558C27.371 82.9509 27.2704 83.3372 27.2047 83.7288C27.1478 84.0697 27.1332 84.4193 27.0588 84.7585C27.0077 84.9962 26.9727 85.234 26.8808 85.4595C26.8108 85.6326 26.7757 85.8266 26.7334 86.0137C26.6196 86.5206 26.5014 87.0276 26.3351 87.5136C26.2782 87.6779 26.1921 87.8353 26.2475 88.0276C26.0506 88.3632 26.1381 88.7967 26.0156 89.1289C25.8565 89.5624 25.8988 90.0152 25.7865 90.4435C25.7223 90.6865 25.7383 90.9557 25.5953 91.176C25.5253 91.2809 25.5355 91.433 25.5647 91.5536C25.6873 92.0606 25.5136 92.5186 25.4363 92.9993C25.3269 93.6759 25.0847 94.3384 25.2101 95.0569C25.2247 95.1426 25.2189 95.2387 25.2072 95.3279C25.1022 96.223 24.8454 97.0586 24.4704 97.8383C24.3551 98.0778 24.1465 98.2403 23.9626 98.4169C23.9203 98.4571 23.8473 98.4746 23.8313 98.5235C23.7058 98.9221 23.3673 99.0899 23.1689 99.4081C23.1368 99.4588 23.1017 99.5217 23.0551 99.5427C22.6013 99.7507 22.2073 100.102 21.7681 100.34C21.5347 100.468 21.2706 100.515 21.0094 100.53C20.8664 100.539 20.7278 100.557 20.595 100.614C20.2769 100.754 19.9516 100.836 19.6131 100.845C19.5372 100.847 19.4657 100.871 19.3957 100.913C19.2366 101.008 19.0674 101.027 18.8894 101.004C18.6136 100.969 18.3466 101.029 18.1014 101.176C17.9497 101.266 17.7965 101.284 17.6331 101.3C17.1924 101.34 16.7532 101.399 16.3141 101.452C16.2499 101.459 16.1842 101.473 16.12 101.471C15.5743 101.45 15.0242 101.431 14.4917 101.293C13.9839 101.162 13.482 101.249 12.9771 101.252C12.8925 101.252 12.8049 101.303 12.7203 101.265C12.2826 101.072 11.8405 101.221 11.4028 101.251C10.7987 101.293 10.1975 101.366 9.59932 101.188C9.4432 101.141 9.27686 101.191 9.11636 101.137C9.00109 101.099 8.88144 101.078 8.78806 100.981C8.62027 100.808 8.41016 100.763 8.21318 100.789C7.66602 100.863 7.14221 100.648 6.6038 100.634C6.55274 100.634 6.49437 100.606 6.45352 100.569C6.34117 100.469 6.21423 100.436 6.08437 100.454C5.57077 100.525 5.08051 100.329 4.57713 100.289C4.47499 100.28 4.38453 100.251 4.32179 100.148C4.21235 99.9605 4.0679 99.8329 3.88552 99.7647C3.78922 99.7298 3.72064 99.6441 3.66228 99.548C3.61121 99.4641 3.55868 99.3801 3.47405 99.3382C3.18953 99.1983 3.01152 98.9291 2.86707 98.6214C2.82914 98.5393 2.78244 98.4746 2.72554 98.4134C2.50959 98.1792 2.28927 97.9501 2.13023 97.6512C2.0777 97.5533 2.01496 97.4554 1.91574 97.4222C1.6356 97.326 1.5072 97.0568 1.39485 96.7736C1.26061 96.4362 1.08552 96.1198 0.946908 95.7929C0.800999 95.4485 0.609858 95.0604 0.707617 94.6199C0.754308 94.4066 0.700322 94.1968 0.634663 94.015C0.465408 93.5413 0.522313 93.0465 0.501885 92.5605C0.488754 92.2773 0.517935 91.9906 0.528149 91.7074C0.531067 91.6305 0.552954 91.5414 0.51064 91.4802C0.357435 91.2599 0.405585 91.0292 0.450817 90.7809C0.517936 90.412 0.475622 90.0309 0.472704 89.6603C0.469785 89.302 0.569004 88.9751 0.593808 88.6307C0.618613 88.2845 0.666763 87.9419 0.60694 87.5923C0.561708 87.323 0.554413 87.0381 0.636122 86.7846C0.787867 86.3091 0.773276 85.8179 0.780572 85.3284C0.78349 85.185 0.782031 85.0434 0.821426 84.9053C0.868117 84.741 0.868117 84.5732 0.844772 84.4054C0.803917 84.1082 0.817049 83.811 0.84769 83.5138C0.878331 83.2183 0.904595 82.9247 0.887085 82.624C0.875413 82.4334 0.908972 82.2411 1.00965 82.0715C1.11179 81.8985 1.14243 81.6904 1.16139 81.4842C1.18912 81.173 1.23727 80.8723 1.35399 80.5874C1.44008 80.3758 1.48094 80.1293 1.44738 79.9073C1.38755 79.5122 1.48239 79.1504 1.58453 78.8042C1.68521 78.4686 1.72314 78.1434 1.71001 77.7955C1.70564 77.6941 1.74795 77.5875 1.73774 77.4879C1.71293 77.2379 1.93179 77.0421 1.87927 76.8306C1.81944 76.5928 1.8209 76.3918 1.86905 76.1575C1.99745 75.5317 2.11856 74.9041 2.1419 74.2573C2.14336 74.2066 2.14336 74.1489 2.16233 74.1052C2.43518 73.4793 2.41913 72.7503 2.66572 72.114C2.74305 71.913 2.72408 71.6822 2.72408 71.4619C2.72408 71.3588 2.69344 71.2364 2.72846 71.1543C2.88896 70.7784 2.8481 70.3588 2.93419 69.969C2.9517 69.8921 2.95608 69.8187 2.95316 69.74C2.9444 69.4778 2.98672 69.226 3.05384 68.9778C3.11804 68.7436 3.18369 68.5093 3.12679 68.2558C3.11366 68.1981 3.11512 68.1037 3.1443 68.0687C3.35295 67.8258 3.2727 67.5111 3.29896 67.2261C3.31355 67.0566 3.33982 66.8992 3.3938 66.7384C3.47697 66.4902 3.58203 66.2402 3.51345 65.9535C3.50324 65.908 3.51199 65.8468 3.52658 65.8014C3.66228 65.3906 3.72648 64.9588 3.73815 64.5217C3.74836 64.1179 3.87384 63.7421 3.90594 63.34C3.92637 63.083 3.94972 62.8295 3.94972 62.569C3.94972 62.2474 3.94242 61.9292 4.05915 61.6163C4.12189 61.4485 4.08687 61.2317 4.11897 61.0429C4.17442 60.716 4.28093 60.4118 4.27655 60.0604C4.27364 59.8332 4.42392 59.6146 4.49396 59.3839C4.62674 58.9416 4.67926 58.4836 4.7493 58.0273C4.77119 57.8874 4.77702 57.7354 4.82809 57.613C4.99734 57.2074 5.02069 56.7669 5.05717 56.3298C5.08635 55.9907 5.15347 55.6708 5.26436 55.3578C5.3592 55.0869 5.42048 54.8072 5.43361 54.4995C5.44966 54.1306 5.54159 53.7618 5.63059 53.4034C5.72689 53.0205 5.72981 52.6045 5.92095 52.2584C5.86842 51.837 6.10188 51.5381 6.23611 51.1972C6.2653 51.1255 6.28864 51.0469 6.26384 50.9717C6.17483 50.713 6.2828 50.5207 6.40683 50.3336C6.49145 50.206 6.5396 50.0749 6.5075 49.9036C6.4579 49.6431 6.53815 49.3896 6.65925 49.2078C6.87374 48.8879 6.90292 48.498 7.02694 48.1467C7.11886 47.8827 7.14659 47.5907 7.24435 47.3355C7.3494 47.0663 7.46175 46.8023 7.55805 46.5261C7.60474 46.3915 7.62225 46.2587 7.6456 46.1188C7.69375 45.8303 7.7667 45.5454 7.84841 45.2674C8.0308 44.6468 8.19859 44.0227 8.27884 43.3707C8.31824 43.0508 8.3197 42.7274 8.3693 42.4074C8.48749 41.647 8.63924 40.89 8.6655 40.1173C8.69322 39.3114 8.85226 38.537 9.04778 37.7783C9.1543 37.3675 9.26519 36.9374 9.4753 36.5703C9.52782 36.4794 9.54533 36.3798 9.53658 36.2749C9.52199 36.0756 9.59202 35.8955 9.61391 35.7067C9.6606 35.3081 9.89405 35.0162 9.98598 34.6438C10.0502 34.3834 10.1188 34.1229 10.1654 33.8607C10.2048 33.6386 10.2457 33.4236 10.3785 33.2663C10.5317 33.0845 10.5069 32.8345 10.5857 32.6229C10.8468 31.9324 11.2306 31.3573 11.6143 30.7612C11.9587 30.2245 12.3672 29.8102 12.8122 29.4221C12.8735 29.3679 12.9304 29.2945 12.999 29.27C13.3433 29.1441 13.5885 28.8399 13.8453 28.576C14.0992 28.3155 14.407 28.1546 14.6463 27.8627C14.7733 27.7089 15.0052 27.6739 15.1833 27.5463C15.4459 27.3575 15.6429 27.0987 15.7902 26.8068C15.961 26.4729 16.209 26.2229 16.3943 25.9065C16.6526 25.4642 16.9327 25.0394 17.1311 24.5517C17.226 24.3157 17.4011 24.1478 17.4872 23.9083C17.5251 23.8017 17.5951 23.7038 17.6097 23.5937C17.6535 23.2545 17.7731 22.9486 17.8972 22.6479C18.0066 22.384 18.0927 22.1095 18.2182 21.8508C18.3393 21.6025 18.3728 21.2983 18.4881 21.0291C18.704 20.5257 18.8952 20.0064 19.0469 19.4663C19.0878 19.3194 19.1257 19.1743 19.1505 19.0205C19.1943 18.7285 19.2395 18.4331 19.3548 18.1639C19.4351 17.9768 19.4774 17.781 19.4803 17.5678C19.4817 17.4279 19.5036 17.281 19.5445 17.1499C19.6277 16.879 19.6495 16.6063 19.6641 16.3196C19.6787 16.0731 19.7517 15.8231 19.7911 15.5714C19.8699 15.0749 19.9355 14.5766 20.0085 14.0802C20.0698 13.6571 20.1062 13.2218 20.0916 12.7795C20.0727 12.2393 20.0304 11.6992 20.0391 11.1555C20.0464 10.6957 19.9516 10.2325 19.8917 9.77444C19.8713 9.6171 19.8757 9.47551 19.9078 9.31817C19.9837 8.95106 19.9253 8.57345 19.9268 8.19934C19.9282 7.62944 19.9924 7.06654 20.042 6.50538C20.0639 6.26064 20.1573 6.01763 20.2069 5.76764C20.3105 5.24668 20.2755 4.70825 20.3893 4.19604C20.4491 3.92507 20.4112 3.74152 20.2069 3.5667C19.9136 3.31322 19.7954 2.94959 19.8801 2.50731C19.918 2.30976 19.9691 2.14196 20.1383 2.04581C20.223 1.99861 20.2886 1.90071 20.3601 1.82204C20.4316 1.74162 20.5031 1.65072 20.5979 1.6245C20.9919 1.51261 21.3348 1.27661 21.6821 1.03711C21.844 0.925232 22.0527 0.878023 22.2423 0.984661C22.3824 1.06333 22.5035 1.0476 22.6465 0.98991C22.8785 0.895509 23.1163 0.916481 23.3206 1.09305C23.414 1.17171 23.5103 1.21194 23.6168 1.23816C23.9743 1.32731 24.3303 1.42869 24.6922 1.50211C25.0496 1.57553 25.4027 1.48463 25.7471 1.3745C25.8769 1.33254 25.9966 1.30282 26.125 1.35352C26.1658 1.371 26.2125 1.39899 26.2505 1.39025C26.5087 1.32207 26.7334 1.48813 26.9727 1.52659C27.3054 1.58078 27.5622 1.78182 27.7898 2.03356C27.9795 2.24509 28.1342 2.52306 28.1663 2.83073C28.2188 3.34295 28.3968 3.83766 28.3195 4.30442L28.3297 4.30267ZM20.4229 15.7899C20.4331 16.1745 20.3587 16.4717 20.3543 16.7846C20.347 17.3003 20.3864 17.8282 20.239 18.3247C20.15 18.6237 20.1383 18.9331 20.0887 19.2373C19.9662 19.9977 20.0128 20.8141 19.5751 21.4697C19.5693 21.4802 19.562 21.4924 19.5605 21.5046C19.5124 21.9084 19.3723 22.2738 19.2293 22.6357C18.9944 23.2336 18.8733 23.9101 18.437 24.3786C18.3845 24.4346 18.367 24.5377 18.3291 24.6146C18.1729 24.9363 18.011 25.2614 17.7848 25.5167C17.652 25.667 17.5134 25.8016 17.404 25.9852C17.1691 26.382 16.9283 26.7753 16.6015 27.0795C16.457 27.2141 16.3243 27.368 16.193 27.5218C15.9216 27.8382 15.6604 28.1669 15.2679 28.2718C15.1949 28.291 15.1234 28.3399 15.087 28.4256C15.0228 28.5759 14.906 28.6424 14.7893 28.7123C14.7105 28.7578 14.6463 28.8242 14.5821 28.8959C14.1692 29.3504 13.7606 29.8119 13.2791 30.1668C13.0938 30.3031 12.9246 30.4832 12.8093 30.6965C12.7013 30.8993 12.5058 31.0496 12.4942 31.3153C12.4796 31.6282 12.3701 31.8905 12.2271 32.137C11.9791 32.5635 11.7909 33.025 11.6391 33.5128C11.5107 33.9218 11.3896 34.3379 11.1751 34.7015C11.1401 34.761 11.1255 34.8449 11.1182 34.9218C11.0628 35.5389 10.7899 36.0966 10.7622 36.7224C10.7593 36.7714 10.7389 36.822 10.7184 36.8675C10.5361 37.2748 10.466 37.7521 10.1786 38.0965C10.094 38.1979 10.0662 38.3447 10.0502 38.4898C10.04 38.5929 10.0312 38.6961 9.98452 38.787C9.71021 39.3167 9.65039 39.9513 9.40818 40.4967C9.37462 40.5719 9.37899 40.6733 9.3644 40.7607C9.33084 40.9635 9.3148 41.1732 9.25935 41.369C9.09593 41.9477 9.02006 42.5403 8.9865 43.1469C8.96315 43.5577 8.91354 43.9685 8.8581 44.3759C8.73262 45.3059 8.594 46.2342 8.46415 47.1624C8.44955 47.2673 8.41162 47.3582 8.3766 47.4526C8.18984 47.9491 8.03955 48.4648 7.952 48.998C7.90677 49.2742 7.93304 49.5574 7.75065 49.7934C7.65435 49.9176 7.69666 50.0277 7.84549 50.0714C8.01766 50.1203 8.17233 50.2113 8.3197 50.3179C8.77639 50.6448 9.27248 50.8651 9.76128 51.1028C9.85174 51.1465 9.94658 51.178 10.0195 51.2619C10.1684 51.4332 10.3566 51.4909 10.5536 51.5136C10.7301 51.5329 10.8921 51.5871 11.038 51.7129C11.0978 51.7654 11.1693 51.8056 11.2408 51.8318C11.7121 52.0014 12.2023 52.0695 12.6853 52.1709C13.1435 52.2688 13.5724 52.4716 14.0116 52.6325C14.4275 52.7846 14.8068 53.0625 15.2548 53.1447C15.494 53.1884 15.7494 53.2356 15.977 53.3492C16.4191 53.573 16.8919 53.6464 17.3486 53.7915C18.1379 54.0415 18.9521 54.066 19.7633 54.0327C20.2901 54.01 20.8226 54.0625 21.345 53.9244C21.6514 53.8439 21.9637 53.7967 22.2788 53.8055C23.1922 53.8282 24.0735 53.5607 24.965 53.3929C25.0175 53.3824 25.0642 53.3422 25.1168 53.3247C25.3546 53.2461 25.591 53.1132 25.8288 53.1062C26.1031 53.0975 26.3687 53.0625 26.624 52.9594C26.8618 52.865 27.0953 52.7741 27.3506 52.7985C27.4396 52.8073 27.5213 52.7653 27.5943 52.7059C27.9547 52.4034 28.4303 52.4489 28.7878 52.1377C28.8039 52.1237 28.8301 52.1237 28.8506 52.1237C29.068 52.1185 29.281 52.0765 29.4853 51.9821C29.6326 51.914 29.8136 52.0608 29.9259 51.9629C30.047 51.8598 30.0835 51.6203 30.1988 51.4996C30.3695 51.3231 30.406 51.1185 30.3928 50.8773C30.3622 50.3598 30.4833 49.8651 30.6496 49.4106C30.7722 49.0767 30.8072 48.7463 30.8218 48.4036C30.8306 48.2043 30.8437 48.0191 30.9283 47.846C30.9852 47.7341 31.0144 47.6082 31.0348 47.4806C31.1209 46.9631 31.1632 46.4352 31.3325 45.937C31.4915 45.4667 31.5513 44.9632 31.6214 44.4668C31.6476 44.285 31.7629 44.1451 31.7512 43.9511C31.7191 43.3654 31.8577 42.799 31.9249 42.2274C32.0153 41.439 32.1437 40.6523 32.2853 39.8726C32.3495 39.5177 32.3334 39.1419 32.4005 38.8062C32.4895 38.3657 32.4618 37.9077 32.5873 37.4759C32.653 37.2503 32.6734 36.9934 32.58 36.7521C32.5479 36.6682 32.545 36.5686 32.5829 36.4864C32.6413 36.3605 32.6325 36.2417 32.5931 36.114C32.5698 36.0389 32.5712 35.9585 32.5975 35.885C32.6573 35.7207 32.6427 35.5599 32.6077 35.3921C32.4968 34.8694 32.5858 34.2925 32.3057 33.8135C32.2823 33.775 32.2838 33.7138 32.2765 33.6631C32.2459 33.4271 32.1321 33.2628 31.9657 33.1474C31.8899 33.095 31.8067 33.0547 31.7717 32.9534C31.6228 32.5355 31.3281 32.2611 31.0844 31.9342C30.8276 31.5898 30.511 31.3031 30.352 30.8608C30.314 30.7542 30.225 30.7279 30.136 30.7122C29.9463 30.679 29.834 30.5461 29.7508 30.3434C29.6764 30.1581 29.6005 29.9535 29.459 29.8364C29.2372 29.6528 29.157 29.2962 28.8812 29.1826C28.8506 29.1703 28.8404 29.0934 28.8126 29.055C28.6259 28.8032 28.515 28.4833 28.334 28.2351C28.2056 28.0602 28.0758 27.8889 27.9664 27.6966C27.8555 27.5043 27.7387 27.319 27.5855 27.1704C27.1712 26.7666 27.0267 26.16 26.8472 25.6076C26.7247 25.23 26.6736 24.7912 26.6736 24.3576C26.6736 23.7668 26.5729 23.1759 26.7597 22.5955C26.8677 22.2598 26.8297 21.8717 27.0107 21.5588C27.0515 21.4889 27.0296 21.4085 27.0077 21.3351C26.8691 20.8665 26.9173 20.3928 26.9858 19.9208C27.0019 19.8037 27.0238 19.6883 26.999 19.5746C26.9216 19.2215 26.9683 18.8771 27.0471 18.538C27.1128 18.2548 27.0749 17.9716 27.0705 17.6884C27.0676 17.5048 26.9727 17.4419 26.8253 17.4891C26.7203 17.5223 26.6079 17.5328 26.5116 17.5887C26.3015 17.7128 26.0768 17.7251 25.8551 17.7723C25.591 17.8282 25.3356 17.7041 25.0803 17.7688C24.8789 17.8212 24.6951 17.781 24.5112 17.6936C24.4208 17.6499 24.3259 17.5957 24.2325 17.5975C23.913 17.601 23.6153 17.4856 23.3119 17.3964C22.5531 17.1744 21.8367 16.8458 21.1801 16.3213C20.9613 16.1465 20.722 15.9892 20.4199 15.7916L20.4229 15.7899ZM11.6931 81.0471C11.9806 80.9702 12.2534 81.138 12.5408 81.1887C13.0749 81.2814 13.6235 81.2132 14.1473 81.3706C14.5004 81.4772 14.8404 81.5558 15.2124 81.5384C15.6516 81.5191 16.0762 81.7359 16.5183 81.7674C16.5709 81.7709 16.6248 81.7936 16.6744 81.8198C16.8977 81.9352 17.1341 81.9474 17.3704 81.9824C17.7367 82.0366 18.1058 82.0156 18.4677 82.075C18.8193 82.1345 19.1637 82.0803 19.4905 81.9911C19.8188 81.9037 20.1485 81.8513 20.4798 81.8216C21.0182 81.7744 21.5405 81.61 22.076 81.5331C22.6961 81.444 23.3104 81.3006 23.9378 81.2761C24.0677 81.2709 24.2004 81.2796 24.3172 81.201C24.7301 80.9213 25.1532 80.6695 25.5895 80.4475C25.6391 80.4213 25.6902 80.3951 25.731 80.3549C25.9834 80.1014 26.2738 79.9982 26.6006 80.0017C26.7086 80.0017 26.8239 79.9685 26.8589 79.8164C26.8998 79.6434 26.9465 79.4668 26.9552 79.2885C26.9815 78.7728 27.1186 78.2798 27.1274 77.7571C27.1332 77.376 27.1945 76.9879 27.2003 76.605C27.212 75.9075 27.1799 75.2117 27.1916 74.5142C27.2033 73.7678 27.2485 73.0213 27.2747 72.2748C27.282 72.0651 27.2981 71.864 27.3798 71.6735C27.4134 71.5965 27.4338 71.4969 27.428 71.4112C27.3856 70.7434 27.5622 70.1089 27.6351 69.4585C27.6585 69.254 27.6775 69.0477 27.7139 68.8467C27.7898 68.4341 27.9357 68.0355 27.8803 67.5985C27.8744 67.5496 27.8759 67.4866 27.8963 67.4464C28.0787 67.095 27.9722 66.6632 28.1239 66.2979C28.2494 65.9937 28.2202 65.6458 28.2494 65.3206C28.283 64.95 28.2874 64.5777 28.3764 64.2158C28.391 64.1564 28.3822 64.0864 28.3734 64.0235C28.3399 63.8032 28.3282 63.5882 28.4026 63.3732C28.4216 63.3172 28.4333 63.2386 28.4143 63.1861C28.3428 62.9764 28.3866 62.7823 28.4333 62.5795C28.4639 62.4449 28.5048 62.2998 28.477 62.1582C28.4231 61.8907 28.4756 61.6408 28.5529 61.3978C28.6215 61.1845 28.6434 60.9747 28.5952 60.7527C28.5763 60.667 28.5763 60.5726 28.5748 60.4835C28.5587 59.7352 28.7222 59.0185 28.8652 58.3018C28.9177 58.0413 28.9294 57.7633 29.0286 57.5168C29.1891 57.113 29.2591 56.6829 29.2956 56.2424C29.3058 56.127 29.3 55.9977 29.3671 55.9085C29.4969 55.7355 29.4926 55.5327 29.494 55.3229C29.494 55.1935 29.4955 55.0589 29.529 54.9383C29.6954 54.3264 29.6662 53.6604 29.8982 53.066C29.9215 53.0048 29.9274 52.9017 29.8573 52.858C29.8034 52.8247 29.7552 52.8755 29.7129 52.9192C29.6239 53.0118 29.5509 53.1219 29.4342 53.1779C28.9498 53.4086 28.5091 53.788 27.9576 53.788C27.606 54.0712 27.1989 54.0048 26.8093 54.0729C26.106 54.1936 25.4261 54.4593 24.7082 54.517C24.1902 54.5589 23.6693 54.5589 23.1543 54.5659C22.5721 54.5729 21.987 54.5712 21.4048 54.5589C21.2983 54.5572 21.1903 54.5799 21.0838 54.5991C20.4083 54.7128 19.7298 54.7687 19.0484 54.69C18.8879 54.6708 18.7245 54.6271 18.5654 54.6359C17.9833 54.6673 17.4419 54.3981 16.8729 54.3247C16.565 54.2862 16.2615 54.1674 15.9478 54.1429C15.7757 54.1289 15.5933 54.1289 15.4401 54.0327C15.1439 53.8474 14.8258 53.7932 14.5019 53.7548C14.3195 53.7338 14.1386 53.6936 13.9635 53.6202C13.5359 53.4401 13.0938 53.33 12.6415 53.3038C12.3906 53.2898 12.1469 53.2653 11.9309 53.0887C11.8682 53.038 11.7953 53.0013 11.7165 53.0118C11.1109 53.0975 10.6324 52.6324 10.0852 52.4611C9.92324 52.4104 9.7642 52.3265 9.59494 52.2828C9.40818 52.2339 9.1791 52.1972 9.05654 52.0503C8.80703 51.7496 8.46269 51.6325 8.21464 51.3441C8.10521 51.2182 7.96951 51.1308 7.83382 51.0504C7.54054 50.8773 7.47342 50.9193 7.45591 51.3004C7.4457 51.5224 7.39901 51.7304 7.34356 51.9437C7.19328 52.5188 6.95253 53.0625 6.95399 53.6901C6.95399 53.8789 6.9 54.0729 6.8037 54.2373C6.72637 54.3701 6.71032 54.524 6.71469 54.6831C6.73075 55.2267 6.75117 55.7721 6.55128 56.2861C6.52939 56.3421 6.51334 56.4207 6.52793 56.4749C6.62715 56.8368 6.54252 57.1619 6.41704 57.4871C6.3864 57.5658 6.39515 57.6637 6.38494 57.7546C6.36743 57.8962 6.37181 58.0465 6.32804 58.1741C6.1369 58.7283 6.14857 59.3157 6.1296 59.8926C6.11939 60.2072 6.08437 60.5062 6.00558 60.8069C5.82757 61.5009 5.67728 62.2019 5.6729 62.9344C5.6729 63.1459 5.65394 63.3679 5.51532 63.5095C5.31397 63.7123 5.25852 63.9885 5.2235 64.2647C5.19578 64.4885 5.13304 64.6861 5.05717 64.8888C4.9346 65.2175 4.76097 65.5304 4.7741 65.9115C4.78432 66.2052 4.73179 66.4849 4.63695 66.7454C4.51585 67.0741 4.56545 67.4586 4.39036 67.7663C4.36848 67.8048 4.37431 67.8677 4.37139 67.9184C4.36118 68.1404 4.32179 68.352 4.26634 68.5652C4.18609 68.8729 4.09854 69.1823 4.05623 69.5005C3.96723 70.1753 3.91178 70.8588 3.83007 71.5354C3.73377 72.3255 3.46384 73.0668 3.38213 73.8657C3.32377 74.4268 3.18807 74.974 3.04362 75.5142C3.02465 75.5876 3.02174 75.6663 3.01444 75.7449C2.98672 76.0666 3.03195 76.3935 2.95754 76.7117C2.94003 76.7904 2.96337 76.8673 3.01882 76.9197C3.37338 77.2693 3.63893 77.7309 4.01538 78.0525C4.0752 78.1032 4.12043 78.1819 4.1642 78.2571C4.23862 78.3864 4.32908 78.4913 4.43705 78.584C4.71866 78.8252 5.02215 79.014 5.33002 79.2028C5.81444 79.5018 6.25362 79.9038 6.7643 80.1538C7.07363 80.3042 7.35815 80.5227 7.70979 80.5262C7.82506 80.5262 7.94325 80.5856 8.05268 80.6346C8.34012 80.7639 8.63632 80.8111 8.94273 80.8094C9.24476 80.8059 9.55263 80.7499 9.84882 80.8373C10.4514 81.0157 11.0657 81.0122 11.6902 81.0559L11.6931 81.0471ZM26.6488 81.0366C26.1746 81.2604 25.7164 81.4055 25.3123 81.7254C24.9373 82.0226 24.5039 82.2079 24.0633 82.2202C23.5074 82.2359 22.9733 82.402 22.4233 82.4474C22.1504 82.4701 21.8892 82.5348 21.6412 82.6782C21.5434 82.7341 21.4384 82.7673 21.326 82.7411C21.167 82.7026 21.0313 82.7673 20.9029 82.8792C20.7497 83.0121 20.5761 83.0645 20.3849 83.0663C20.0814 83.0698 19.7809 83.1082 19.5036 83.2778C19.3957 83.3442 19.2833 83.3582 19.1607 83.3599C18.8383 83.3669 18.5114 83.3792 18.1919 83.4316C17.6666 83.5173 17.1457 83.5977 16.6336 83.3547C16.5884 83.3337 16.5271 83.3477 16.4746 83.3547C16.0602 83.4159 15.6575 83.4141 15.2883 83.1274C15.2051 83.0628 15.1045 83.047 15.0067 83.0505C14.8389 83.0575 14.7091 82.9893 14.6419 82.7953C14.5865 82.638 14.4785 82.5453 14.3574 82.4946C13.9343 82.3215 13.5257 82.0768 13.0617 82.0943C12.9436 82.0995 12.8239 82.0751 12.7116 82.0226C12.5365 81.9422 12.3555 81.9125 12.1702 81.93C11.769 81.9667 11.3707 81.8915 10.9738 81.853C10.6747 81.8233 10.3668 81.8216 10.0794 81.6887C9.92324 81.617 9.76565 81.5978 9.60224 81.6118C8.93105 81.6747 8.26425 81.6031 7.61058 81.4335C7.32022 81.3583 7.02402 81.2849 6.74096 81.1398C6.47249 81.0034 6.23903 80.7744 5.94721 80.7062C5.8086 80.673 5.6875 80.5874 5.5591 80.5332C5.27895 80.4143 4.98713 80.3374 4.76535 80.0769C4.75951 80.0699 4.74492 80.0699 4.73471 80.0682C4.42246 80.0017 4.14815 79.8112 3.85779 79.6766C3.78484 79.6416 3.73085 79.5874 3.68708 79.507C3.59954 79.3444 3.51345 79.1783 3.40839 79.0298C3.23914 78.792 3.05529 78.5665 2.86561 78.32C2.80725 78.4843 2.816 78.6032 2.85102 78.7116C2.96775 79.0542 2.77953 79.4213 2.9123 79.7622C2.9196 79.7797 2.90793 79.8147 2.89771 79.8357C2.83059 79.972 2.85978 80.1031 2.89479 80.2447C2.92544 80.3671 2.95462 80.5122 2.92689 80.6258C2.85686 80.9195 2.87729 81.2097 2.86999 81.5051C2.8554 82.1205 2.82184 82.7376 2.7591 83.3477C2.72408 83.6799 2.66718 84.005 2.67301 84.3424C2.67447 84.4281 2.65404 84.5347 2.61173 84.5994C2.47312 84.8074 2.46144 85.0522 2.45853 85.2952C2.45561 85.7077 2.33596 86.0749 2.21194 86.4507C2.10689 86.7689 1.9566 87.087 2.00037 87.4489C2.02372 87.636 2.00767 87.8055 1.95076 87.9786C1.82674 88.3597 1.81653 88.7618 1.81799 89.1621C1.81799 89.51 1.83404 89.8579 1.72752 90.1918C1.69688 90.2879 1.65457 90.4033 1.67499 90.4925C1.75524 90.8438 1.63998 91.1568 1.5641 91.4767C1.53784 91.5921 1.51595 91.7057 1.5641 91.8176C1.66186 92.0483 1.65603 92.2948 1.64581 92.5413C1.62247 93.0885 1.68521 93.6304 1.764 94.1636C1.80777 94.4608 1.83987 94.7702 1.92742 95.0587C1.97849 95.23 2.04123 95.3943 2.0529 95.5796C2.06165 95.6985 2.10397 95.8017 2.16233 95.8978C2.40892 96.3051 2.69636 96.6687 2.9838 97.0359C3.19683 97.3068 3.45217 97.5306 3.62872 97.8435C3.7148 97.9956 3.84466 98.0987 3.97452 98.1914C4.20652 98.3575 4.43122 98.5515 4.68072 98.6616C5.0061 98.8032 5.31835 98.9693 5.70792 98.8942C6.12522 98.8137 6.56733 98.8102 6.9963 98.9449C7.21516 99.013 7.43549 99.1476 7.65143 99.1441C7.9914 99.1406 8.31678 99.1826 8.63924 99.2927C9.01276 99.4186 9.39796 99.4693 9.77149 99.6091C10.1698 99.7577 10.5959 99.7577 11.0161 99.707C11.162 99.6896 11.3123 99.6057 11.4582 99.7228C11.7369 99.9483 12.0637 99.9063 12.3672 99.9046C12.5978 99.9046 12.8152 99.8521 13.018 100.023C13.0822 100.078 13.1624 100.044 13.2368 100.046C13.5578 100.055 13.8818 100.062 14.1969 100.1C14.5996 100.151 14.995 100.31 15.4065 100.352C15.9858 100.412 16.5606 100.443 17.1428 100.361C17.4653 100.315 17.7761 100.212 18.0971 100.17C18.3641 100.135 18.6253 100.072 18.8879 100.002C19.1739 99.9255 19.4774 99.9343 19.7604 99.8049C19.8057 99.784 19.8669 99.8189 19.9209 99.8172C19.9968 99.8154 20.0727 99.8137 20.1456 99.7909C20.5221 99.6808 20.8985 99.5637 21.275 99.4483C21.6689 99.3259 22.0366 99.1354 22.2934 98.742C22.5473 98.3522 22.8493 98.0218 23.1324 97.6687C23.2637 97.5044 23.3279 97.3033 23.4125 97.1075C23.6489 96.5621 23.6095 95.9293 23.8094 95.3751C23.8182 95.3524 23.8138 95.3226 23.8109 95.2982C23.7656 94.9643 23.8371 94.6269 23.7817 94.293C23.6737 93.6339 23.9874 93.0343 23.9728 92.3892C23.9728 92.356 24.0005 92.3193 24.0181 92.2878C24.1275 92.0868 24.1844 91.87 24.1654 91.6253C24.1538 91.4819 24.1902 91.3456 24.2296 91.2075C24.2749 91.0484 24.3347 90.8823 24.3303 90.7215C24.3215 90.3963 24.3507 90.1061 24.5652 89.8771C24.5944 89.8474 24.6031 89.7827 24.609 89.7338C24.6703 89.2023 24.9592 88.7618 25.0234 88.2303C25.0277 88.1936 25.0453 88.1552 25.0657 88.1254C25.2028 87.9104 25.2335 87.6552 25.2685 87.3982C25.3152 87.0416 25.3633 86.6867 25.5589 86.3808C25.661 86.2199 25.7573 86.0189 25.7777 85.8231C25.8361 85.2672 26.0885 84.776 26.1206 84.2148C26.1264 84.1152 26.1556 84.0068 26.2023 83.9229C26.2782 83.7883 26.3088 83.6379 26.3322 83.4876C26.3949 83.096 26.411 82.6974 26.4635 82.3041C26.5175 81.902 26.5744 81.4982 26.6488 81.0314V81.0366ZM20.9992 5.60157C20.9656 6.17497 20.9379 6.71689 20.8956 7.25358C20.8489 7.8532 20.881 8.46331 20.9292 9.06992C20.9467 9.2867 20.9467 9.51571 20.9131 9.72724C20.8241 10.2762 20.8372 10.8338 20.8168 11.3862C20.7745 12.5575 20.7745 13.7323 20.5688 14.8861C20.544 15.0294 20.5921 15.0766 20.6811 15.1151C20.8124 15.1728 20.9583 15.199 21.0751 15.2812C21.6047 15.6605 22.1898 15.9035 22.7297 16.2566C22.8041 16.3056 22.8887 16.3405 22.9704 16.365C23.3731 16.4769 23.8036 16.4577 24.1669 16.7531C24.2077 16.7863 24.2719 16.7793 24.3245 16.7898C24.5258 16.83 24.7286 16.872 24.9314 16.907C25.1036 16.9367 25.2773 16.9419 25.445 16.8685C25.6581 16.7741 25.8682 16.6762 26.0798 16.5766C26.3687 16.4402 26.6152 16.1849 26.9392 16.143C27.0515 16.129 27.1055 16.0294 27.123 15.9052C27.1595 15.6413 27.2193 15.386 27.1653 15.1046C27.0924 14.7113 27.1055 14.3109 27.2251 13.9193C27.2893 13.7113 27.2981 13.4823 27.2499 13.2673C27.1259 12.7096 27.2178 12.1362 27.158 11.5751C27.3098 11.1695 27.2033 10.7377 27.2164 10.3251C27.2426 9.54543 27.1595 8.76051 27.0486 7.98607C27.034 7.88293 27.0034 7.77979 27.0384 7.68014C27.193 7.25184 27.0267 6.85675 26.9873 6.38475C26.7436 6.60851 26.462 6.55081 26.2592 6.72738C26.001 6.95289 25.7048 6.98785 25.4261 6.92142C24.9956 6.82003 24.5652 6.85151 24.1377 6.84451C23.6139 6.83752 23.1163 6.67844 22.6042 6.60327C22.5123 6.58928 22.4174 6.53159 22.3372 6.46865C21.917 6.1435 21.4369 5.9547 20.9948 5.59982L20.9992 5.60157ZM26.8545 4.17156C26.8312 3.7555 26.8297 3.7695 26.4343 3.70307C26.1688 3.65761 25.9032 3.61041 25.6391 3.54748C25.2218 3.44783 24.7928 3.34293 24.358 3.47055C24.18 3.52299 23.9962 3.53872 23.8152 3.57893C23.3191 3.69256 22.8333 3.69082 22.3547 3.45657C22.1869 3.3744 22.0206 3.39014 21.9024 3.61041C21.8177 3.76774 21.685 3.85339 21.5201 3.86388C21.3596 3.87437 21.1801 3.81844 21.0444 3.93381C20.8766 4.07542 20.9831 4.32015 20.9467 4.5177C20.9014 4.76244 20.9408 4.84985 21.1247 4.93726C21.2443 4.99495 21.3742 5.01769 21.4982 5.06314C21.755 5.1558 22.0191 5.23444 22.2467 5.41451C22.4787 5.59981 22.7326 5.68547 23.0069 5.70296C23.2433 5.71694 23.4826 5.71695 23.716 5.75716C23.9291 5.79387 24.1333 5.88652 24.3464 5.75716C24.3901 5.73094 24.4631 5.72219 24.5054 5.74841C24.7593 5.89875 25.0073 5.76764 25.2583 5.74491C25.5516 5.71869 25.8011 5.5701 26.0374 5.39703C26.2184 5.26417 26.3862 5.14181 26.6065 5.19251C26.6619 5.20649 26.7349 5.20299 26.7349 5.12432C26.7378 4.8114 26.9027 4.53343 26.8545 4.17331V4.17156ZM20.8723 2.66115C21.0838 2.801 21.2618 2.82898 21.4457 2.84646C22.0366 2.89891 22.6319 2.93561 23.2053 3.14889C23.344 3.20133 23.4797 3.16988 23.6197 3.13666C23.9261 3.06324 24.2355 2.94611 24.5419 2.95485C24.895 2.96534 25.2524 2.97058 25.607 3.044C25.9265 3.10869 26.2548 3.10519 26.5758 3.0475C26.7611 3.01429 26.8822 2.83597 26.8706 2.64892C26.856 2.40942 26.694 2.42865 26.5569 2.40592C26.3759 2.3762 26.1717 2.39719 26.0156 2.30453C25.5209 2.01259 24.9971 2.15769 24.4893 2.11049C24.3726 2.1 24.2573 2.16468 24.1479 2.22063C23.8007 2.39544 23.449 2.5615 23.0813 2.66464C22.6173 2.79401 22.1475 2.81151 21.6777 2.70137C21.4267 2.64193 21.1757 2.54577 20.8723 2.66464V2.66115Z" fill="#FF4D00"/>
<path d="M10.7973 71.1595C10.9403 70.9672 11.0322 70.7505 11.1212 70.511C11.3445 69.9043 11.4422 69.2575 11.6144 68.6352C11.6888 68.3642 11.8595 68.1527 12.1047 68.1335C12.665 68.0933 13.1465 67.8328 13.6017 67.4674C13.9066 67.2227 14.2554 67.0706 14.5618 66.8241C14.6858 66.7227 14.8303 66.6458 14.9353 66.5199C15.2417 66.1545 15.6313 65.957 15.9975 65.7088C16.1901 65.5776 16.3783 65.5462 16.5797 65.6948C16.6702 65.7612 16.7811 65.7857 16.8803 65.8364C17.1619 65.9815 17.337 66.221 17.3413 66.6073C17.3413 66.6982 17.3384 66.7891 17.3516 66.8783C17.4274 67.3923 17.2932 67.8538 17.0787 68.2821C16.9868 68.4674 16.9065 68.6387 16.943 68.859C16.9489 68.8957 16.9547 68.9446 16.9401 68.9726C16.7723 69.2943 16.9678 69.4656 17.1458 69.6037C17.3574 69.768 17.4508 69.9865 17.48 70.2715C17.5091 70.5617 17.6054 70.8309 17.5777 71.1421C17.5544 71.4113 17.6302 71.6648 17.9279 71.7399C18.1103 71.7871 18.2723 71.9462 18.4415 72.0599C18.9332 72.392 19.4658 72.5791 20.0129 72.7346C20.4842 72.8693 20.9293 73.1122 21.3495 73.4007C21.58 73.558 21.7639 73.7853 21.6924 74.1611C21.6705 74.28 21.7201 74.3866 21.7624 74.4933C21.901 74.8377 21.9944 75.1611 21.8193 75.5579C21.7099 75.8044 21.6763 76.1296 21.7741 76.4285C21.7857 76.4635 21.7887 76.5037 21.7989 76.5404C21.9287 77.0019 21.7974 77.3463 21.4735 77.6068C21.348 77.7082 21.2211 77.8061 21.0912 77.8987C20.868 78.056 20.4054 78.0106 20.2114 77.7956C20.0086 77.5683 19.7678 77.5246 19.5052 77.4704C19.1404 77.3935 18.888 77.5211 18.7041 77.8777C18.6151 78.0508 18.4809 78.1207 18.3306 78.154C17.89 78.2484 17.4493 78.383 17.0174 78.0928C16.8963 78.0106 16.7606 77.9494 16.6249 77.9145C16.1799 77.8026 15.8983 77.4477 15.6649 77.0176C15.5715 76.8446 15.4314 76.7904 15.2767 76.7869C15.0914 76.7816 14.909 76.7589 14.731 76.703C14.588 76.6575 14.4757 76.6977 14.3823 76.8288C13.9854 77.3778 13.431 77.6697 12.9495 78.0823C12.5862 78.3934 12.182 78.39 11.7691 78.2431C11.6246 78.1924 11.4685 78.1679 11.3372 78.0858C11.1212 77.9512 10.8995 77.9582 10.6733 77.9774C10.2487 78.0158 9.8387 77.8742 9.4214 77.834C9.28863 77.8218 9.18211 77.7344 9.07268 77.6452C8.78232 77.4092 8.48904 77.175 8.16513 77.0019C8.12573 76.9809 8.0805 76.96 8.05569 76.9232C7.86601 76.6453 7.60775 76.5858 7.33053 76.5771C7.278 76.5754 7.20359 76.5771 7.17586 76.5387C6.98618 76.2817 6.72646 76.2589 6.47258 76.1977C6.29019 76.154 6.21578 75.9757 6.1793 75.7747C6.09322 75.3044 6.05382 74.8272 6.07279 74.3482C6.083 74.0877 6.02902 73.8063 6.19098 73.5668C6.22745 73.5143 6.19098 73.392 6.18806 73.301C6.16617 72.7714 6.25372 72.2679 6.47842 71.8116C6.54991 71.6648 6.55721 71.5197 6.55283 71.3641C6.53824 70.7767 6.66226 70.2627 7.08832 69.9061C7.12334 69.8781 7.15252 69.8362 7.17732 69.7942C7.35387 69.4865 7.60338 69.3257 7.90687 69.2768C7.93897 69.2715 7.97253 69.2645 8.00025 69.2453C8.4263 68.9568 8.84652 69.1247 9.24194 69.3187C9.4929 69.4428 9.74532 69.6194 9.87664 69.9463C9.96127 70.1596 10.0882 70.3274 10.2648 70.4515C10.4997 70.6176 10.6193 70.9218 10.8017 71.163L10.7973 71.1595ZM16.0209 66.457C15.9961 66.436 15.9713 66.4133 15.9465 66.3923C15.748 66.5391 15.5365 66.6703 15.3511 66.8381C14.9105 67.2384 14.4407 67.5741 13.9417 67.8555C13.7068 67.9884 13.4791 68.137 13.2661 68.317C13.1946 68.3782 13.11 68.4376 13.1231 68.5565C13.145 68.7523 13.0779 68.9411 13.1173 69.1369C13.1713 69.4009 13.1231 69.6526 13.037 69.8956C12.9364 70.1823 12.789 70.455 12.735 70.7522C12.6518 71.2137 12.4636 71.5774 12.2068 71.9182C11.9208 72.2993 11.3766 72.4759 10.9783 72.1333C10.8469 72.0196 10.7142 71.9689 10.558 71.9672C10.364 71.9637 10.1714 71.9252 9.97878 71.8903C9.78618 71.8571 9.62422 71.7871 9.51333 71.5843C9.47101 71.5074 9.41994 71.4322 9.33678 71.4305C9.08289 71.4253 8.95741 71.2452 8.86111 70.9865C8.78816 70.7942 8.61744 70.7347 8.44965 70.733C8.28039 70.7312 8.27602 70.9375 8.20452 71.0564C8.15637 71.1368 8.17096 71.226 8.18264 71.3186C8.22349 71.6455 8.19431 71.9602 8.09947 72.2749C8.02943 72.5056 7.97107 72.7609 8.01484 73.0004C8.10384 73.4881 7.99004 73.9741 8.06591 74.4653C8.15199 75.0282 8.24684 75.5492 8.72396 75.8236C8.91802 75.9355 9.00848 76.1733 9.15877 76.3324C9.46226 76.654 9.85913 76.7799 10.2341 76.8918C10.8659 77.0806 11.4773 77.3148 12.0492 77.6872C12.2841 77.841 12.5001 77.8078 12.7014 77.6033C13.145 77.154 13.4879 76.5841 13.9373 76.1401C14.0672 75.7013 14.4159 75.5474 14.6931 75.2974C14.8113 75.1891 14.9236 75.1349 15.0695 75.1121C15.3366 75.0702 15.5773 75.2467 15.8385 75.2188C16.0325 75.1978 16.1668 75.3114 16.2937 75.4635C16.4148 75.6104 16.5272 75.8184 16.6745 75.8726C17.0262 76.0002 17.2567 76.2677 17.4756 76.5963C17.6084 76.7956 17.7411 76.7397 17.7849 76.4792C17.836 76.175 17.9702 75.9967 18.2183 75.925C18.3014 75.9023 18.3773 75.8446 18.4561 75.8044C18.9566 75.5509 19.4556 75.3009 19.9984 75.6506C20.0246 75.6681 20.0626 75.6715 20.0932 75.668C20.2668 75.6453 20.404 75.7415 20.5441 75.8446C20.7702 76.0124 20.9147 76.0055 21.0343 75.745C21.1671 75.46 21.3597 75.2747 21.564 75.0824C21.7507 74.9059 21.7347 74.6594 21.5275 74.5143C21.0985 74.2153 20.6374 73.9916 20.1618 73.8342C19.8014 73.7153 19.4424 73.5563 19.0543 73.5965C19.0135 73.6 18.9697 73.5808 18.9288 73.5633C18.5086 73.3727 18.0899 73.1769 17.6696 72.9881C17.388 72.8623 17.086 72.7766 16.927 72.42C16.9138 72.3902 16.8788 72.364 16.8496 72.3535C16.6045 72.2661 16.5549 72.0459 16.5637 71.7767C16.5666 71.6613 16.5593 71.5406 16.5345 71.4305C16.4776 71.1823 16.5286 70.9882 16.6643 70.7872C16.9065 70.4253 16.835 70.1596 16.4717 69.9725C16.3229 69.8956 16.1639 69.8449 16.0223 69.7505C15.748 69.5705 15.5277 69.3467 15.5613 68.9062C15.5758 68.7174 15.5423 68.5146 15.4927 68.3328C15.4008 67.9901 15.462 67.7052 15.6342 67.422C15.8108 67.13 15.872 66.7717 16.0194 66.4622L16.0209 66.457Z" fill="#FF4D00"/>
<path d="M23.3642 62.6354C23.0855 62.6459 22.8301 62.5742 22.5748 62.5323C22.4026 62.5025 22.2538 62.4134 22.1181 62.263C21.873 61.9921 21.5826 61.7858 21.4104 61.4204C21.3389 61.2683 21.2003 61.2508 21.0413 61.2701C20.5642 61.3243 20.0827 61.4938 19.6055 61.2351C19.4757 61.1634 19.3619 61.069 19.2437 60.9816C19.1751 60.9309 19.1343 60.8575 19.1182 60.7631C19.0292 60.2439 18.8497 59.7527 18.768 59.23C18.7126 58.8716 18.5813 58.7982 18.2778 58.8873C18.0472 58.9555 17.8853 59.0989 17.8196 59.3768C17.7569 59.6425 17.5949 59.8436 17.4855 60.0761C17.3016 60.4659 17.1338 60.875 16.9179 61.2316C16.6874 61.6127 16.3299 61.8592 15.9111 61.9256C15.3829 62.0095 14.9087 61.8417 14.4549 61.5393C14.417 61.5148 14.3718 61.4868 14.3543 61.4449C14.2317 61.1442 14.0114 61.1739 13.7925 61.2002C13.2541 61.2648 12.7099 61.2911 12.1802 61.2002C11.8592 61.146 11.5207 60.8732 11.3631 60.5498C11.1895 60.1915 11.0509 59.7754 11.0319 59.3104C11.0071 58.7195 10.8846 58.1339 10.7912 57.5482C10.7547 57.3245 10.6044 57.2668 10.4527 57.4154C10.2484 57.6164 10.0543 57.8122 9.95511 58.1426C9.8165 58.6024 9.58304 59.0219 9.59909 59.5377C9.59909 59.5621 9.59326 59.5901 9.58158 59.6128C9.29706 60.2072 9.30582 60.9082 9.09571 61.5305C8.99065 61.8417 8.92208 62.1721 8.79368 62.4728C8.69154 62.7123 8.59232 62.7648 8.40264 62.7193C8.19545 62.6686 8.12395 62.5357 8.13854 62.2753C8.17502 61.6407 8.31655 61.0271 8.45225 60.4205C8.60983 59.7195 8.76595 59.0237 8.82286 58.2999C8.83745 58.1164 8.8856 57.9503 8.96147 57.7877C9.14969 57.3892 9.26788 56.9626 9.31165 56.5046C9.35834 56.0273 9.76689 55.5378 10.1725 55.4347C10.4191 55.3718 10.6132 55.169 10.8539 55.0816C11.1195 54.9837 11.3529 54.9907 11.582 55.1934C11.7921 55.3788 12.0358 55.5413 12.1408 55.828C12.2955 56.2493 12.4998 56.6672 12.475 57.1497C12.4458 57.7265 12.5829 58.279 12.6384 58.8436C12.6661 59.1251 12.8018 59.3926 12.8514 59.6862C12.8893 59.91 13.1651 60.0568 13.3898 60.0062C13.6379 59.9485 13.8859 59.9852 14.1339 59.9677C14.5483 59.9397 14.8343 60.2142 15.0619 60.5673C15.3815 61.0621 15.9476 61.0533 16.2132 60.5096C16.5225 59.8768 16.842 59.2509 17.1747 58.6338C17.2812 58.4363 17.4665 58.3734 17.6051 58.23C18.1231 57.6898 18.6746 57.7912 19.2306 58.1391C19.4932 58.3034 19.6639 58.5429 19.82 58.8681C20.0345 59.3139 20.1906 59.7649 20.2913 60.2544C20.322 60.403 20.411 60.4345 20.516 60.3873C20.9231 60.2055 21.3141 60.3453 21.6804 60.5271C21.9211 60.646 22.0947 60.9222 22.264 61.1704C22.512 61.5341 22.7995 61.8312 23.2153 61.8085C23.44 61.7963 23.6691 61.8015 23.8909 61.7578C24.1433 61.7071 24.387 61.7735 24.635 61.7788C24.7736 61.7823 24.8072 61.8802 24.7226 62.0061C24.5781 62.2193 24.4176 62.4204 24.1725 62.4536C23.8938 62.4903 23.6414 62.6948 23.3656 62.6354H23.3642Z" fill="#FF4D00"/>
<path d="M8.96432 96.7836C8.83446 96.7538 8.70606 96.7696 8.5762 96.7836C8.12972 96.8343 7.69345 96.7154 7.25573 96.6507C6.96828 96.607 6.67938 96.5563 6.39486 96.4759C6.18038 96.4164 5.95568 96.4427 5.73243 96.3518C5.2772 96.1682 4.85406 95.906 4.45573 95.6053C4.18288 95.399 3.91295 95.1141 3.79914 94.7277C3.69992 94.3886 3.65615 94.0215 3.68095 93.6578C3.69992 93.3711 3.69992 93.0879 3.68095 92.8047C3.64302 92.2593 3.73786 91.7261 3.76558 91.1859C3.79184 90.644 3.80498 90.1021 3.84291 89.5619C3.88814 88.9081 3.94943 88.2543 4.00779 87.6022C4.0895 86.6931 4.26021 85.7981 4.33608 84.8856C4.36527 84.5254 4.46157 84.1671 4.60018 83.8489C4.77527 83.4503 5.10065 83.2405 5.46396 83.1706C5.76745 83.1112 6.03155 83.015 6.28835 82.779C6.60643 82.4871 7.00914 82.543 7.38121 82.6566C7.51107 82.6969 7.62925 82.7038 7.76057 82.6934C8.09178 82.6671 8.43029 82.5867 8.72941 82.8612C8.78631 82.9136 8.87094 82.9329 8.94389 82.9416C9.34077 82.9836 9.72451 83.1374 10.1287 83.1286C10.511 83.1199 10.8655 83.2685 11.2157 83.4328C11.509 83.5709 11.8008 83.6776 12.1291 83.6129C12.4501 83.55 12.7755 83.5604 13.0731 83.765C13.1227 83.7999 13.1767 83.8157 13.2263 83.7842C13.4189 83.6636 13.6071 83.7545 13.7954 83.7912C13.9019 83.8122 14.0084 83.8367 14.1149 83.8506C14.3761 83.8873 14.6329 83.8699 14.8926 84.0272C15.1363 84.174 15.4441 84.1059 15.7214 84.0936C16.1226 84.0762 16.5151 84.1793 16.9149 84.1688C17.0944 84.1635 17.2753 84.2038 17.4606 84.1688C17.5978 84.1426 17.7422 84.1251 17.875 84.209C18.0005 84.2877 18.1318 84.2335 18.2587 84.223C18.6906 84.1863 19.1196 84.2142 19.55 84.2807C19.7849 84.3174 20.0228 84.3471 20.2591 84.2684C20.3978 84.223 20.5407 84.2247 20.6779 84.2615C21.0383 84.3559 21.4031 84.3698 21.7708 84.3943C22.156 84.4205 22.5412 84.4852 22.8855 84.7317C23.0533 84.8523 23.2649 84.8383 23.4268 84.9817C23.4779 85.0271 23.5625 85.0394 23.5932 85.0953C23.7916 85.445 24.0776 85.7177 24.2191 86.1163C24.3504 86.4886 24.403 86.868 24.3986 87.2823C24.3928 87.9431 24.2789 88.5777 24.2133 89.2245C24.1535 89.8136 23.9579 90.3433 23.8368 90.9027C23.7289 91.4079 23.4764 91.8677 23.3072 92.3572C23.1598 92.7855 22.9307 93.1701 22.849 93.6334C22.8155 93.8204 22.7323 93.997 22.6345 94.1526C22.4069 94.5145 22.2493 94.9358 21.9823 95.2609C21.7664 95.5231 21.6088 95.8553 21.3243 96.0406C21.2236 96.107 21.139 96.2172 21.0602 96.3238C20.9639 96.4532 20.8676 96.5598 20.7129 96.5825C20.6152 96.5965 20.548 96.6909 20.4736 96.7696C20.2373 97.0196 19.9805 97.2328 19.6565 97.2835C19.6347 97.287 19.6113 97.2888 19.5938 97.3028C19.1473 97.6192 18.6366 97.5947 18.1508 97.6978C18.0763 97.7136 17.999 97.7276 17.9246 97.7206C17.1192 97.6367 16.3021 97.6279 15.5361 97.2556C15.4339 97.2066 15.3289 97.1839 15.2209 97.1716C15.0473 97.1524 14.8868 97.0842 14.7306 96.9829C13.9719 96.4846 13.1577 96.3815 12.3129 96.5004C12.2385 96.5108 12.1554 96.5546 12.0897 96.5301C11.8023 96.4217 11.5323 96.5563 11.2566 96.5948C10.4949 96.7032 9.73326 96.794 8.96578 96.7818L8.96432 96.7836Z" fill="#FF4D00"/>
<path d="M14.6595 39.7026C14.7382 39.7166 14.8914 39.6589 15.0359 39.7516C15.0797 39.7795 15.1468 39.7865 15.1935 39.7691C15.4678 39.6624 15.7275 39.776 15.9901 39.8407C16.2309 39.8984 16.4585 40.0418 16.7153 39.9841C16.7255 39.9823 16.7372 39.9876 16.746 39.9928C17.1326 40.2061 17.5601 40.2778 17.9234 40.5925C18.1919 40.8267 18.4356 41.1221 18.7858 41.2445C19.009 41.3232 19.1958 41.5644 19.3898 41.748C19.7371 42.0749 20.0887 42.3913 20.4856 42.6308C20.5615 42.6762 20.6228 42.7549 20.6899 42.8196C20.8606 42.9857 21.0517 43.1133 21.2706 43.1413C21.6704 43.1937 22.0512 43.2899 22.3999 43.5573C22.5502 43.6727 22.7501 43.6762 22.9267 43.7304C23.4155 43.8807 23.9159 43.9874 24.4106 44.1098C24.6382 44.1657 24.8745 44.1098 25.0817 44.0451C25.3225 43.9682 25.5574 43.907 25.8054 43.8982C26.0973 43.8877 26.3789 43.7881 26.659 43.7077C26.9902 43.6133 27.3273 43.6535 27.6512 43.5923C28.0802 43.5119 28.4829 43.6272 28.8958 43.6762C28.9702 43.6849 29.0475 43.6937 29.122 43.6814C29.583 43.6063 29.9376 43.872 30.2659 44.2006C30.4235 44.3597 30.4439 44.6132 30.4745 44.8405C30.5139 45.1359 30.5008 45.4436 30.3972 45.7198C30.2819 46.0292 30.2075 46.3509 30.1346 46.6761C29.9974 47.2844 29.7377 47.8124 29.3846 48.2756C29.2956 48.3928 29.2168 48.5099 29.1657 48.655C29.0286 49.0466 28.7937 49.3403 28.5164 49.5938C28.4581 49.6479 28.4026 49.7161 28.3618 49.7913C28.051 50.3577 27.5855 50.7196 27.1405 51.0989C26.9158 51.2912 26.6357 51.3891 26.3803 51.5255C26.3409 51.5464 26.2957 51.5709 26.2563 51.5639C25.9324 51.508 25.6143 51.6146 25.2933 51.6006C24.9256 51.5832 24.5608 51.5727 24.1932 51.6338C23.8517 51.6898 23.5045 51.6863 23.1587 51.6303C22.8902 51.5866 22.6188 51.5954 22.3518 51.6269C22.06 51.6618 21.7725 51.6566 21.4792 51.6321C21.1364 51.6059 20.7891 51.6199 20.4462 51.6443C19.9487 51.6776 19.4555 51.6741 18.9638 51.5639C18.7624 51.5185 18.5552 51.5062 18.3539 51.4608C17.8023 51.3367 17.2596 51.1671 16.6993 51.1059C16.2484 51.0569 15.7946 51.0272 15.3452 50.9661C14.8958 50.9049 14.4493 50.8017 13.9999 50.7388C13.4294 50.6584 12.875 50.4836 12.322 50.3192C11.7807 50.1584 11.216 50.0623 10.7155 49.7458C10.3829 49.5361 10.0312 49.3368 9.75253 49.0448C9.47093 48.7494 9.29146 48.3473 9.32793 47.8403C9.37754 47.1533 9.52053 46.4995 9.71605 45.8579C9.83862 45.4576 9.94075 45.0468 10.1085 44.6674C10.1903 44.4839 10.2048 44.2706 10.1844 44.0591C10.1669 43.8807 10.2005 43.7269 10.323 43.608C10.3712 43.5608 10.4179 43.4979 10.4427 43.4297C10.5536 43.1203 10.6703 42.8126 10.7549 42.4945C10.8147 42.2689 10.911 42.0994 11.0774 41.9857C11.1562 41.9333 11.2043 41.8529 11.2539 41.7655C11.4305 41.4508 11.6421 41.1868 11.9193 40.9858C12.2695 40.7306 12.5992 40.4369 12.9348 40.1554C13.0238 40.0802 13.1114 39.9981 13.2208 39.9788C13.6789 39.9002 14.1181 39.6886 14.658 39.7096L14.6595 39.7026Z" fill="#FF4D00"/>
</svg>
