<svg width="30" height="95" viewBox="0 0 30 95" fill="none" xmlns="http://www.w3.org/2000/svg">
<path d="M16.93 94.9502C16.829 94.8516 16.7208 94.8217 16.5866 94.8076C16.3197 94.7794 16.0513 94.8393 15.7859 94.7724C15.7512 94.7636 15.7109 94.7583 15.6791 94.7706C15.1857 94.9572 14.7052 94.7636 14.2219 94.6861C14.0762 94.6632 13.942 94.6509 13.8006 94.7037C13.5813 94.7847 13.3692 94.7724 13.1456 94.6755C12.9292 94.5822 12.694 94.5329 12.4646 94.5135C12.0982 94.4836 11.7403 94.3956 11.3782 94.3375C11.1069 94.2935 10.8559 94.2178 10.6063 94.0999C10.4937 94.0471 10.3784 94.1122 10.2615 94.077C9.93109 93.9802 9.60787 93.8675 9.2919 93.7073C9.13031 93.6263 8.94273 93.6193 8.7667 93.5911C8.62531 93.5682 8.48107 93.5647 8.33824 93.5489C8.29351 93.5453 8.23004 93.5559 8.2084 93.5242C8.03094 93.2672 7.72789 93.3042 7.53456 93.0894C7.47973 93.0278 7.4105 93.0102 7.33836 92.9943C7.04692 92.9292 6.77421 92.7936 6.49431 92.6827C6.19998 92.5648 5.90132 92.4415 5.58968 92.394C5.42665 92.3694 5.2665 92.3394 5.19869 92.1123C5.17128 92.0208 5.09193 92.0014 5.02412 91.9733C4.89715 91.9187 4.77017 91.8641 4.64032 91.8183C4.56962 91.7919 4.5047 91.762 4.46286 91.6828C4.40803 91.5789 4.29989 91.5384 4.24073 91.4575C3.95362 91.0702 3.57705 90.7568 3.55252 90.1477C3.53665 89.7463 3.48901 89.352 3.56548 88.9471C3.60444 88.7429 3.59864 88.5105 3.50919 88.3045C3.47168 88.2165 3.44138 88.1091 3.47312 88.0193C3.56258 87.7676 3.53086 87.5088 3.53519 87.2483C3.53663 87.0863 3.56111 86.9208 3.59718 86.7641C3.6347 86.6004 3.65927 86.4473 3.60733 86.2836C3.59434 86.2431 3.58138 86.192 3.59148 86.155C3.6766 85.8611 3.64197 85.5459 3.6968 85.2537C3.77471 84.8365 3.84535 84.4351 3.78908 83.9985C3.75013 83.701 3.792 83.3876 3.78479 83.0813C3.76892 82.437 3.76888 81.7909 3.70828 81.1537C3.68087 80.8702 3.67947 80.5974 3.68235 80.3157C3.6838 80.034 3.64913 79.7559 3.60585 79.4742C3.55246 79.1239 3.50485 78.7683 3.45868 78.4144C3.43992 78.2648 3.46449 78.1064 3.38802 77.969C3.37359 77.9444 3.3664 77.9004 3.37506 77.8757C3.4876 77.5113 3.35628 77.1786 3.2827 76.8388C3.26539 76.7561 3.25242 76.6646 3.26107 76.5801C3.29714 76.2491 3.25092 75.9305 3.17301 75.6171C3.12396 75.4217 3.19181 75.2298 3.17738 75.0309C3.13265 74.3989 3.06049 73.7722 2.97392 73.149C2.93064 72.8427 2.98833 72.5434 2.95082 72.2388C2.92196 72.0135 2.93643 71.7811 2.84986 71.5681C2.83399 71.5294 2.82102 71.4836 2.82535 71.4413C2.85709 71.0769 2.78062 70.7249 2.7561 70.3675C2.72147 69.871 2.73301 69.3728 2.67818 68.8729C2.64788 68.593 2.66226 68.2919 2.66226 67.9997C2.66226 67.7374 2.6594 67.4751 2.61611 67.2163C2.5988 67.1107 2.59879 66.998 2.60167 66.8906C2.60889 66.6671 2.59016 66.4558 2.49205 66.2586C2.39539 66.0632 2.39967 65.8326 2.40399 65.6196C2.40832 65.3925 2.38963 65.1619 2.43436 64.9348C2.46898 64.757 2.44011 64.5915 2.34778 64.4384C2.20783 64.2077 2.17176 63.9454 2.20639 63.6602C2.24246 63.3645 2.20928 63.0599 2.14869 62.7836C2.06789 62.4033 2.06355 62.0283 2.06788 61.6463C2.07221 61.3153 2.07799 60.9879 1.92938 60.6922C1.92072 60.6728 1.90913 60.6517 1.91057 60.6323C1.92067 60.3225 1.7966 60.0249 1.81392 59.7327C1.83844 59.3243 1.76487 58.9264 1.78362 58.5233C1.78362 58.5127 1.78651 58.5004 1.78362 58.4916C1.64223 58.0814 1.64082 57.6466 1.63216 57.2118C1.63072 57.1255 1.61338 57.0393 1.60616 56.953C1.57875 56.6185 1.58889 56.2752 1.42729 55.9724C1.38257 55.8879 1.35943 55.7559 1.37241 55.6573C1.42868 55.2524 1.32194 54.8528 1.36234 54.4514C1.37821 54.2859 1.36086 54.1275 1.28583 53.9779C1.20792 53.8212 1.20072 53.6469 1.22236 53.4691C1.26276 53.1452 1.25699 52.8336 1.18629 52.5044C1.09395 52.0748 1.08673 51.6277 1.21369 51.1823C1.29016 50.9112 1.32341 50.6172 1.24406 50.3144C1.17047 50.0345 1.24114 49.7317 1.21517 49.4395C1.18776 49.1402 1.22815 48.8462 1.27576 48.5417C1.34501 48.098 1.30465 47.628 1.31331 47.1703C1.31475 47.0611 1.30607 46.9485 1.32627 46.8428C1.3912 46.489 1.39981 46.1334 1.39404 45.7707C1.39116 45.526 1.46624 45.2813 1.48788 45.0314C1.51962 44.6775 1.52969 44.3201 1.60039 43.9681C1.67397 43.6001 1.68265 43.2128 1.7317 42.8361C1.78076 42.4594 1.87166 42.0914 1.84858 41.7041C1.84858 41.683 1.84855 41.6566 1.85865 41.6408C2.03467 41.3661 1.94954 41.0334 1.99426 40.7289C2.0462 40.3662 2.0664 39.9948 2.17172 39.6462C2.23809 39.4279 2.24388 39.1955 2.29726 38.9755C2.40836 38.5178 2.53096 38.0618 2.6233 37.597C2.76325 36.8911 2.94077 36.1957 3.07495 35.488C3.11534 35.2733 3.20191 35.0814 3.25241 34.8719C3.37072 34.3825 3.43566 33.8737 3.62755 33.4055C3.71844 33.1854 3.74869 32.9108 3.79486 32.659C3.92616 31.9425 4.10075 31.2454 4.32006 30.5641C4.34603 30.4831 4.36336 30.3969 4.37346 30.3106C4.41818 29.8934 4.52345 29.5026 4.71246 29.1505C4.82066 28.948 4.90297 28.7245 4.96213 28.4991C5.07611 28.0608 5.26221 27.6594 5.38052 27.2299C5.48007 26.869 5.60992 26.5222 5.73833 26.1824C5.88694 25.7881 5.90999 25.3321 6.14228 24.98C6.17835 24.9255 6.18555 24.8374 6.19998 24.7635C6.25048 24.4871 6.30097 24.2125 6.4438 23.9766C6.56788 23.7724 6.50875 23.5206 6.50009 23.3059C6.48855 22.9925 6.53329 22.6774 6.48424 22.3623C6.38324 21.7215 6.29959 21.0789 6.15243 20.4469C6.0774 20.1265 6.02256 19.7938 5.99082 19.4558C5.9533 19.0667 5.86381 18.6865 5.80032 18.2992C5.71376 17.7675 5.5652 17.2535 5.49451 16.7148C5.45122 16.3786 5.33431 16.067 5.2261 15.7536C5.1453 15.5212 5.06601 15.2889 5.07033 15.0301C5.07466 14.7801 4.97076 14.5653 4.90584 14.3417C4.79618 13.9721 4.72694 13.5812 4.59276 13.2292C4.47013 12.907 4.43834 12.5567 4.33013 12.2433C4.15411 11.731 4.03728 11.1941 3.86559 10.6818C3.79778 10.4776 3.78192 10.2575 3.73287 10.048C3.62899 9.59033 3.55682 9.12206 3.45727 8.66787C3.36638 8.25241 3.26824 7.82992 3.14272 7.42326C3.11675 7.33876 3.11534 7.25424 3.10813 7.16622C3.10091 7.06763 3.09511 6.96729 3.07058 6.87574C2.86137 6.08883 2.65506 5.30017 2.50213 4.4939C2.47904 4.37243 2.43429 4.32313 2.33185 4.3601C2.02598 4.46925 1.71005 4.40058 1.39841 4.44107C1.14736 4.47452 0.907856 4.3337 0.671239 4.23159C0.590443 4.19638 0.55293 4.10308 0.52696 4.00625C0.456263 3.73691 0.38409 3.4658 0.311951 3.19646C0.291752 3.12076 0.287429 3.04154 0.317727 2.97288C0.394195 2.7986 0.399963 2.62254 0.350909 2.43418C0.332152 2.36376 0.327855 2.27575 0.346611 2.2071C0.408651 1.99056 0.462051 1.77755 0.400011 1.54517C0.384141 1.48708 0.41442 1.41666 0.451932 1.3656C0.739047 0.983591 1.08385 0.73361 1.5138 0.684318C1.65664 0.668474 1.80236 0.657905 1.94375 0.677269C2.24097 0.715999 2.52376 0.557572 2.82098 0.601583C3.44859 0.693125 4.06321 0.531148 4.68216 0.451929C4.87838 0.427283 5.07317 0.467787 5.27083 0.422015C5.67481 0.328713 6.08168 0.279418 6.49431 0.265334C6.94014 0.249491 7.3845 0.235411 7.81445 0.423778C7.86639 0.446663 7.91838 0.460746 7.97176 0.444902C8.10883 0.406172 8.23868 0.432568 8.36564 0.499464C8.44211 0.539954 8.52145 0.539965 8.60369 0.532924C8.71334 0.522361 8.82442 0.541721 8.91387 0.615659C9.04372 0.721285 9.17793 0.798751 9.33375 0.821637C9.39867 0.830439 9.45636 0.87093 9.49388 0.932545C9.62228 1.14028 9.81275 1.24941 9.98589 1.37968C10.1446 1.49939 10.2672 1.64726 10.3581 1.83915C10.3856 1.89548 10.4158 1.95006 10.4519 1.99936C10.677 2.30391 10.7145 2.57501 10.5803 2.93766C10.5616 2.98695 10.5514 3.04153 10.5428 3.09434C10.5125 3.26158 10.426 3.3584 10.2918 3.40241C10.1273 3.45699 9.98444 3.55734 9.83872 3.67177C9.67857 3.79676 9.48093 3.86894 9.28471 3.90063C9.00193 3.94464 8.76958 4.14355 8.50844 4.25798C8.40889 4.30199 8.37143 4.40586 8.38297 4.52205C8.4277 4.98328 8.357 5.46212 8.52436 5.90927C8.56909 6.02898 8.60805 6.1487 8.67731 6.2508C8.7985 6.43037 8.87926 6.62752 8.92831 6.85638C8.97737 7.08524 9.06686 7.30177 9.14332 7.52007C9.20248 7.69083 9.2616 7.86159 9.29479 8.04467C9.33807 8.28409 9.48236 8.46189 9.56172 8.68195C9.59346 8.76997 9.65406 8.84567 9.66993 8.94425C9.71465 9.24176 9.74638 9.54281 9.9022 9.79632C9.92672 9.83856 9.94693 9.90018 9.94404 9.94947C9.92817 10.2153 9.97722 10.4441 10.1489 10.6272C10.1778 10.6572 10.1908 10.7258 10.1936 10.7769C10.2138 11.1413 10.3004 11.4828 10.4317 11.812C10.5471 12.1025 10.576 12.4176 10.5774 12.7362C10.5774 12.8911 10.5962 13.0408 10.6265 13.1887C10.6986 13.5372 10.7953 13.877 10.8111 14.2449C10.8212 14.4949 10.9237 14.7273 11.0275 14.9456C11.1011 15.0987 11.1632 15.2536 11.1372 15.4402C11.1271 15.5177 11.1372 15.5969 11.1733 15.6621C11.3349 15.9631 11.3436 16.3011 11.332 16.6426C11.3263 16.8134 11.3435 16.9683 11.4503 17.0951C11.5253 17.1848 11.5426 17.3046 11.5498 17.426C11.5787 17.9172 11.6538 18.3995 11.7172 18.8837C11.7663 19.2622 11.8283 19.6318 11.9048 20.0015C11.9567 20.2533 11.8846 20.5191 11.9236 20.7814C11.9885 21.2127 11.9986 21.6475 11.9149 22.0806C11.9106 22.1017 11.9062 22.1264 11.9105 22.1458C12.013 22.607 11.8947 23.0823 11.9668 23.5453C11.9841 23.6597 11.9567 23.7636 11.9221 23.8639C11.8067 24.2037 11.8528 24.5311 11.9856 24.8445C12.1342 25.193 12.2568 25.5557 12.3592 25.9272C12.391 26.0433 12.4502 26.1402 12.5007 26.2423C12.8224 26.8989 13.0676 27.6136 13.4774 28.2069C13.5452 28.3055 13.5856 28.4323 13.6361 28.5484C13.7501 28.8072 13.854 29.0695 14.007 29.3054C14.1137 29.4727 14.157 29.6997 14.232 29.8969C14.3734 30.2648 14.6086 30.5606 14.7673 30.9162C14.8524 31.1081 14.9606 31.2841 14.9952 31.5042C15.0125 31.6151 15.076 31.6978 15.1366 31.7788C15.1784 31.8352 15.2405 31.8915 15.2362 31.9689C15.2189 32.2735 15.405 32.4355 15.5391 32.6309C15.5911 32.7083 15.6474 32.777 15.6618 32.8791C15.7296 33.3456 15.9518 33.7223 16.1394 34.1184C16.2995 34.4564 16.4914 34.7751 16.6011 35.1483C16.6213 35.217 16.666 35.2768 16.7093 35.3331C16.7656 35.4088 16.8117 35.4898 16.816 35.5919C16.8247 35.782 16.9127 35.9422 16.9502 36.1148C17.0455 36.5672 17.3124 36.9175 17.4134 37.3611C17.4898 37.6956 17.6327 38.0002 17.7048 38.34C17.7582 38.5899 17.8693 38.8205 17.9616 39.0564C18.1823 39.6233 18.4493 40.1743 18.5084 40.8222C18.5373 41.132 18.7234 41.3697 18.823 41.6496C18.9211 41.9277 19.0538 42.1883 19.0928 42.4928C19.1144 42.6565 19.1967 42.7727 19.2948 42.8678C19.3828 42.9558 19.4593 43.0544 19.4564 43.1917C19.4506 43.4364 19.5371 43.6688 19.6352 43.8307C19.83 44.1547 19.8473 44.5631 20.0464 44.8817C20.1489 45.0454 20.2023 45.2708 20.2831 45.4662C20.4966 45.9908 20.7174 46.5119 20.9295 47.0365C21.0377 47.3041 21.042 47.6086 21.1141 47.8903C21.1516 48.0382 21.192 48.1737 21.2858 48.2899C21.3796 48.4061 21.4518 48.5452 21.4821 48.7124C21.547 49.0768 21.6912 49.4113 21.7374 49.7828C21.7417 49.825 21.7518 49.8778 21.7749 49.9025C22.0361 50.1894 22.0822 50.6066 22.1977 50.9763C22.2871 51.2598 22.3737 51.5414 22.4747 51.8178C22.5079 51.9094 22.5381 52.0027 22.5381 52.1012C22.5381 52.2509 22.5742 52.3741 22.6651 52.4815C22.7675 52.6047 22.7964 52.7649 22.7719 52.9374C22.7373 53.1716 22.795 53.374 22.9234 53.5413C23.1138 53.7877 23.1701 54.094 23.2018 54.4092C23.2134 54.5342 23.2379 54.6327 23.2985 54.7366C23.4082 54.925 23.4644 55.1503 23.5005 55.3739C23.5683 55.7929 23.6534 56.2154 23.8035 56.5921C23.9333 56.916 24.0256 57.247 24.1266 57.5797C24.1887 57.7857 24.2493 57.9846 24.2651 58.2029C24.2695 58.2575 24.268 58.3209 24.2911 58.3613C24.5249 58.7557 24.5104 59.2556 24.6792 59.6781C24.698 59.7239 24.6994 59.7855 24.6951 59.8401C24.6792 60.0654 24.711 60.2714 24.8336 60.4545C24.8769 60.5179 24.8913 60.6129 24.9115 60.6957C24.9822 60.9774 25.0284 61.2678 25.1583 61.5248C25.2131 61.634 25.2405 61.7695 25.2318 61.9033C25.203 62.317 25.3198 62.6656 25.5233 62.9913C25.6488 63.192 25.7123 63.4402 25.7354 63.6902C25.7585 63.9331 25.8132 64.169 25.894 64.3803C26.0369 64.7605 26.0383 65.1654 26.0888 65.5615C26.1033 65.6812 26.1235 65.7974 26.1538 65.9118C26.2418 66.2287 26.3485 66.5385 26.3918 66.8713C26.3933 66.8818 26.3918 66.8959 26.3976 66.903C26.5722 67.1318 26.5592 67.4469 26.6472 67.7163C26.7352 67.9909 26.8319 68.262 26.7987 68.5719C26.7871 68.6828 26.8175 68.7972 26.8665 68.8852C27.0959 69.2919 27.1031 69.7707 27.1651 70.2302C27.1882 70.4027 27.1897 70.5682 27.2777 70.7249C27.3643 70.8798 27.3571 71.0805 27.3802 71.2635C27.4177 71.5646 27.422 71.8727 27.5735 72.1385C27.6254 72.23 27.611 72.3497 27.6023 72.4589C27.5865 72.6578 27.5965 72.8462 27.6701 73.0345C27.7466 73.2264 27.7163 73.4447 27.7134 73.6489C27.7106 74.0485 27.7523 74.4341 27.875 74.8038C27.8923 74.8548 27.9154 74.9094 27.9125 74.9604C27.8952 75.3706 28.064 75.7491 28.0381 76.1593C28.0337 76.2315 28.0525 76.3125 28.0756 76.3811C28.2328 76.823 28.2429 77.3177 28.4088 77.7542C28.4161 77.7736 28.4218 77.7983 28.4189 77.8176C28.3569 78.2877 28.5416 78.7154 28.5979 79.1644C28.6585 79.652 28.7133 80.1502 28.8316 80.6291C28.8763 80.8086 28.8864 80.9899 28.8503 81.1783C28.8056 81.4107 28.8893 81.6307 28.9297 81.8525C28.96 82.0251 28.999 82.1923 28.9975 82.3684C28.9975 82.4687 29.0134 82.562 29.0567 82.65C29.1043 82.7486 29.1201 82.8595 29.1042 82.9669C29.0451 83.3331 29.1288 83.6852 29.1663 84.0408C29.2067 84.4298 29.2384 84.8189 29.1403 85.2044C29.1273 85.2555 29.123 85.3136 29.1302 85.3664C29.1822 85.7783 29.097 86.1938 29.1576 86.6057C29.1721 86.699 29.1577 86.8029 29.1389 86.8979C29.1144 87.0282 29.1028 87.1567 29.136 87.2852C29.1605 87.3838 29.1447 87.4789 29.1288 87.5775C29.0726 87.9542 29.0422 88.3327 29.0653 88.7165C29.0711 88.8045 29.0552 88.889 29.0336 88.9735C28.9759 89.1971 28.9744 89.4242 28.9888 89.6548C28.9917 89.7094 29.0047 89.7657 29.0004 89.8185C28.9715 90.1072 28.8648 90.3994 29.0465 90.6741C29.0595 90.6934 29.0552 90.7392 29.0494 90.7709C28.9369 91.3659 28.7753 91.9222 28.302 92.2479C28.2414 92.2901 28.1708 92.3447 28.1405 92.4169C28.0251 92.688 27.8173 92.7443 27.6038 92.7901C27.4148 92.8324 27.2517 92.8957 27.1435 93.1299C27.0584 93.3147 26.8593 93.3358 26.7078 93.327C26.4755 93.3147 26.2807 93.4274 26.1047 93.5524C25.7887 93.7795 25.4728 93.9291 25.0991 93.9432C24.7081 93.9573 24.3214 94.0664 23.9333 94.1351C23.6159 94.1914 23.2999 94.2478 22.9868 94.327C22.8714 94.3551 22.7516 94.378 22.6391 94.341C22.4905 94.29 22.3549 94.3217 22.2178 94.3815C21.9365 94.5047 21.6595 94.591 21.3536 94.4783C21.2007 94.422 21.0434 94.5593 20.8832 94.5858C20.7577 94.6069 20.6423 94.6104 20.5154 94.5981C20.3437 94.5805 20.1662 94.6491 19.9902 94.672C19.742 94.7055 19.4895 94.7689 19.2471 94.7724C19.0019 94.7759 18.7695 94.8287 18.5329 94.8745C18.481 94.885 18.432 94.9167 18.3815 94.9378H16.9271L16.93 94.9502ZM28.1607 87.0282C28.0395 87.2289 27.9125 87.2624 27.7783 87.2712C27.6643 87.2782 27.5691 87.3275 27.5114 87.456C27.4623 87.5652 27.3772 87.588 27.2849 87.6004C26.8362 87.6655 26.4106 87.8169 26.0325 88.1285C25.933 88.2112 25.8262 88.2499 25.705 88.257C25.4525 88.2711 25.2117 88.3344 24.975 88.4524C24.7932 88.5439 24.5956 88.588 24.3979 88.5932C23.9521 88.602 23.5063 88.5246 23.0605 88.5897C22.9999 88.5985 22.9335 88.5862 22.8743 88.5651C22.3217 88.3767 21.7446 88.3978 21.1862 88.2588C20.6524 88.125 20.107 88.1021 19.566 88.0405C18.9615 87.9718 18.3569 87.9067 17.751 87.8433C17.1306 87.7799 16.5087 87.7201 15.8869 87.6602C15.8335 87.6549 15.7772 87.6426 15.7282 87.6567C15.4367 87.7359 15.1626 87.6268 14.8813 87.5634C14.535 87.4859 14.2147 87.2729 13.8496 87.2852C13.7198 87.2905 13.5856 87.1779 13.4587 87.1884C13.1037 87.2166 12.7935 87.0775 12.4934 86.8733C12.4242 86.8258 12.3535 86.8293 12.2843 86.8434C12.0376 86.8962 11.8153 86.7078 11.5715 86.7342C11.5484 86.7377 11.5152 86.7149 11.5022 86.692C11.3276 86.3645 10.9857 86.3328 10.7679 86.067C10.6077 85.8699 10.3798 85.7554 10.1807 85.6076C10.0797 85.5319 10.0032 85.4368 9.94545 85.303C9.73048 84.8048 9.37417 84.414 9.21257 83.8735C9.2068 83.8541 9.18946 83.8401 9.17791 83.8242C9.10722 83.7204 9.08124 83.5989 9.05815 83.4651C8.99034 83.076 8.98891 82.6623 8.78115 82.3173C8.71766 82.2134 8.71764 82.0673 8.72197 81.9353C8.72918 81.7064 8.73499 81.4758 8.75952 81.2487C8.77539 81.1132 8.77972 80.9829 8.72634 80.8649C8.59793 80.585 8.57196 80.2875 8.58495 79.9759C8.58928 79.8897 8.59359 79.7928 8.56762 79.7171C8.37284 79.1397 8.49548 78.5271 8.42334 77.9356C8.41324 77.8546 8.44502 77.7648 8.46089 77.6803C8.4883 77.5272 8.49838 77.3722 8.43778 77.2314C8.31803 76.9515 8.32522 76.6593 8.3786 76.3671C8.47671 75.8336 8.39308 75.2984 8.38875 74.765C8.38586 74.3865 8.44211 73.9887 8.2935 73.6225C8.28629 73.6049 8.29062 73.5785 8.2935 73.5574C8.31803 73.4042 8.2834 73.2493 8.2935 73.1014C8.31081 72.862 8.17086 72.6543 8.2127 72.4289C8.27618 72.0769 8.20984 71.76 8.10019 71.4431C8.02805 71.2336 8.02084 71.0118 8.06412 70.797C8.14347 70.4045 8.02222 70.0453 7.93132 69.6915C7.87217 69.4609 7.81163 69.2426 7.80874 68.9961C7.80442 68.6264 7.78564 68.255 7.75246 67.8853C7.73803 67.7268 7.72216 67.5578 7.64425 67.4152C7.57211 67.2814 7.56924 67.13 7.55914 66.9751C7.53606 66.6495 7.53166 66.3185 7.45375 66.0051C7.40758 65.8238 7.37879 65.6478 7.37302 65.4612C7.36869 65.3186 7.36725 65.1724 7.33695 65.0387C7.25471 64.669 7.26769 64.2764 7.15371 63.9137C7.12486 63.8222 7.13059 63.7201 7.14646 63.6215C7.16233 63.5335 7.16088 63.4472 7.13779 63.3627C7.07719 63.1321 7.10749 62.8768 7.05988 62.6585C6.96465 62.2237 6.9618 61.7854 6.91419 61.3506C6.88822 61.1182 6.89254 60.8964 6.9113 60.6693C6.94304 60.2785 6.92575 59.8876 6.86515 59.5039C6.8464 59.3842 6.82906 59.2715 6.83916 59.1483C6.91707 58.1818 6.90841 57.2083 6.94737 56.24C6.96468 55.8034 6.97763 55.3721 7.05699 54.9426C7.09594 54.7366 7.18539 54.587 7.30947 54.4567C7.55619 54.1997 7.81015 53.9638 8.16507 54.006C8.19826 54.0096 8.23436 53.9831 8.26899 53.9761C8.52436 53.9303 8.77538 53.8124 9.03652 53.8511C9.20533 53.8758 9.35971 53.8423 9.50543 53.7596C9.61652 53.698 9.7276 53.6733 9.84302 53.6768C10.1013 53.6856 10.3581 53.6452 10.6193 53.7015C10.7823 53.7367 10.9626 53.7543 11.1257 53.7279C11.4748 53.6715 11.824 53.6997 12.1717 53.6821C12.2612 53.6786 12.3549 53.6892 12.4314 53.6205C12.5569 53.5043 12.6997 53.5184 12.8426 53.5325C12.9941 53.5483 13.1499 53.5941 13.2956 53.5642C13.7285 53.4779 14.1671 53.4797 14.6028 53.4357C14.9404 53.4022 15.2838 53.4497 15.6185 53.3424C15.6806 53.323 15.7426 53.3247 15.8047 53.3388C15.8941 53.3582 15.9821 53.3406 16.0687 53.3071C16.3097 53.2138 16.5606 53.1786 16.8102 53.1716C17.2777 53.1593 17.7337 53.0448 18.1939 52.9797C18.582 52.9251 18.9816 52.948 19.3596 52.7949C19.3914 52.7825 19.4318 52.7843 19.4664 52.7931C19.7059 52.8512 19.9267 52.7667 20.1388 52.654C20.2802 52.5783 20.423 52.5237 20.5774 52.5167C20.7953 52.5061 21.0001 52.4287 21.2007 52.3319C21.3046 52.2808 21.3161 52.2192 21.2512 52.1118C21.1069 51.8742 20.9785 51.6259 20.9597 51.3161C20.9554 51.2545 20.9265 51.1893 20.8948 51.1401C20.8169 51.0151 20.7794 50.8689 20.7476 50.7211C20.7245 50.6137 20.7087 50.501 20.6496 50.4183C20.4793 50.1841 20.4115 49.8884 20.3927 49.6032C20.3581 49.061 20.0869 48.6614 19.9108 48.2019C19.7882 47.8815 19.5386 47.6315 19.5559 47.2336C19.5588 47.1667 19.5314 47.1051 19.4867 47.0629C19.3785 46.959 19.3539 46.8094 19.3337 46.6562C19.2976 46.3816 19.2241 46.1281 19.0567 45.9257C18.9903 45.8464 18.9673 45.739 18.9485 45.6299C18.8879 45.2743 18.7696 44.9451 18.6224 44.6282C18.494 44.3518 18.3829 44.0631 18.3728 43.7357C18.3685 43.5843 18.3064 43.4646 18.2372 43.3501C18.0294 43.0033 17.8837 42.6301 17.8188 42.2006C17.7885 41.9946 17.8188 41.7499 17.6658 41.5879C17.4566 41.3661 17.3788 41.0757 17.3311 40.7553C17.2994 40.5423 17.2878 40.3134 17.1796 40.1321C16.9834 39.8011 17.0354 39.3399 16.7843 39.0406C16.7786 39.0336 16.7771 39.0195 16.7771 39.0089C16.767 38.7959 16.6688 38.6181 16.6155 38.4227C16.5318 38.1164 16.5059 37.7854 16.3399 37.5161C16.3255 37.4932 16.3255 37.4527 16.3226 37.421C16.3038 37.1411 16.2216 36.8911 16.0874 36.664C16.0571 36.6112 16.0283 36.5478 16.0225 36.4862C15.9951 36.1764 15.9128 35.8965 15.7859 35.6254C15.7209 35.4863 15.6935 35.3278 15.5752 35.2205C15.4987 35.15 15.4699 35.0198 15.4454 34.9018C15.4295 34.8279 15.4324 34.7504 15.3963 34.6835C15.0486 34.0515 14.8726 33.2963 14.4599 32.7101C14.4426 32.6854 14.4326 32.6537 14.4225 32.6238C14.2912 32.2524 14.144 31.8932 13.9694 31.5482C13.9377 31.4848 13.9089 31.4074 13.9074 31.3352C13.906 31.1609 13.8395 31.0201 13.7717 30.8792C13.5091 30.337 13.2379 29.8019 12.9855 29.2508C12.8758 29.0114 12.7373 28.7984 12.6276 28.5608C12.4675 28.2139 12.391 27.8073 12.1327 27.5291C12.1154 27.5098 12.1126 27.4693 12.1039 27.4376C12.0347 27.1647 11.9221 26.9147 11.8125 26.663C11.5182 25.987 11.3017 25.2705 11.0867 24.554C11.0781 24.5241 11.0694 24.4906 11.0709 24.4589C11.0882 24.1755 10.8992 23.9273 10.98 23.6315C10.9858 23.6069 10.9698 23.5664 10.9554 23.54C10.8775 23.3956 10.8746 23.2355 10.8674 23.07C10.8573 22.864 10.8184 22.6616 10.8645 22.4538C10.8818 22.3781 10.8602 22.3024 10.8328 22.232C10.7044 21.9063 10.6784 21.563 10.7159 21.2092C10.726 21.1106 10.7318 21.0103 10.6885 20.9205C10.5327 20.6071 10.5457 20.2515 10.5053 19.9082C10.4505 19.4347 10.4548 18.9488 10.3134 18.4911C10.2788 18.3784 10.2629 18.2587 10.2629 18.1372C10.2643 17.7799 10.2038 17.7112 9.92241 17.7587C9.85172 17.7711 9.77815 17.7887 9.71755 17.8309C9.57471 17.9313 9.42895 17.9295 9.27457 17.8908C9.20532 17.8732 9.13321 17.8591 9.06252 17.8538C8.27764 17.7834 7.48695 17.8204 6.70495 17.6936C6.59675 17.676 6.55639 17.7095 6.57082 17.8503C6.61555 18.2499 6.6545 18.6513 6.75117 19.0351C6.86803 19.5033 6.92287 19.9945 7.08735 20.4469C7.11909 20.5332 7.12483 20.6388 7.12483 20.7356C7.12339 21.2514 7.35426 21.7179 7.33117 22.2355C7.33117 22.2461 7.33403 22.2566 7.33836 22.2672C7.461 22.5506 7.34848 22.8746 7.43649 23.165C7.44948 23.209 7.42929 23.2742 7.41198 23.3235C7.37302 23.4361 7.34558 23.5558 7.34991 23.6738C7.36867 24.1157 7.15805 24.4642 7.0181 24.8304C6.77715 25.4624 6.58093 26.119 6.32989 26.7457C6.13511 27.2334 5.96195 27.7404 5.83498 28.2633C5.7513 28.6101 5.5118 28.8653 5.4714 29.2403C5.45409 29.3987 5.38053 29.5396 5.31416 29.6839C5.21893 29.8916 5.09481 30.0871 5.0573 30.33C4.99815 30.7191 4.87839 31.0852 4.76297 31.4514C4.72978 31.5553 4.70242 31.6573 4.70386 31.7683C4.7053 31.9249 4.66634 32.064 4.62017 32.2101C4.47877 32.6696 4.35611 33.1361 4.2277 33.6009C4.19596 33.7135 4.14977 33.8262 4.13534 33.9424C4.08628 34.3772 3.92183 34.768 3.83671 35.1905C3.73283 35.7064 3.58713 36.2116 3.46016 36.7239C3.37648 37.0584 3.37646 37.4087 3.29855 37.7449C3.18024 38.2572 3.08499 38.7783 2.984 39.2976C2.92051 39.6286 3.00279 39.9983 2.80513 40.294C2.7907 40.3169 2.79216 40.3574 2.78928 40.3891C2.76331 40.7693 2.73156 41.1496 2.71425 41.5316C2.69838 41.9189 2.78351 42.3221 2.57286 42.6724C2.57286 42.9664 2.47329 43.2604 2.52235 43.5491C2.58727 43.9452 2.52808 44.3184 2.47902 44.7057C2.42131 45.1546 2.52235 45.6211 2.38385 46.0665C2.3622 46.1369 2.40256 46.2355 2.41266 46.3235C2.43719 46.5506 2.48912 46.7795 2.47613 47.003C2.44151 47.591 2.48049 48.1825 2.39681 48.7652C2.38815 48.8286 2.3896 48.899 2.40258 48.9606C2.47905 49.3057 2.44589 49.6613 2.42569 50.0028C2.39395 50.5274 2.44443 51.0503 2.40547 51.5714C2.39826 51.6699 2.39681 51.7738 2.43865 51.8601C2.5887 52.1646 2.55409 52.4921 2.52524 52.8177C2.50359 53.0677 2.47618 53.3159 2.56131 53.5606C2.59593 53.661 2.59014 53.7737 2.57716 53.8846C2.56417 54.0025 2.5454 54.1293 2.5656 54.2437C2.63919 54.6732 2.65071 55.1133 2.72862 55.5411C2.8224 56.0552 2.8931 56.5675 2.87868 57.0956C2.87291 57.2928 2.89458 57.4846 2.94941 57.6748C3.02299 57.9265 2.9653 58.1994 3.0057 58.4564C3.08216 58.9317 3.26107 59.3912 3.15286 59.8964C3.14853 59.9158 3.14995 59.9422 3.15716 59.9616C3.27258 60.2908 3.22211 60.6534 3.29425 60.9914C3.40391 61.509 3.32456 62.06 3.48038 62.567C3.43277 62.8945 3.50491 63.2166 3.51645 63.5405C3.52655 63.8803 3.54818 64.2165 3.61022 64.5475C3.62176 64.6109 3.62748 64.676 3.63325 64.7411C3.65778 65.014 3.67083 65.2851 3.62466 65.5562C3.57416 65.8608 3.66505 66.1759 3.61888 66.4681C3.54241 66.947 3.61888 67.4188 3.61888 67.8923C3.61744 68.4557 3.65784 69.019 3.59148 69.5823C3.57849 69.6915 3.5943 69.7953 3.63614 69.8992C3.72704 70.121 3.76171 70.3552 3.68235 70.5964C3.66216 70.658 3.64773 70.7266 3.68235 70.7865C3.85116 71.0822 3.72709 71.4167 3.76027 71.7318C3.78191 71.929 3.76316 72.142 3.79634 72.3462C3.81943 72.4853 3.84538 72.6261 3.85115 72.767C3.87423 73.3655 3.89296 73.9623 4.03868 74.5397C4.06321 74.6383 4.06898 74.7386 4.03868 74.8302C3.95067 75.1048 4.00694 75.3671 4.06898 75.6294C4.09928 75.7562 4.13246 75.8864 4.10794 76.0167C4.06177 76.2508 4.08628 76.4709 4.17141 76.6857C4.19449 76.7438 4.20748 76.8107 4.21326 76.874C4.24355 77.2261 4.19165 77.5888 4.32294 77.9268C4.34026 77.969 4.32582 78.0359 4.31428 78.087C4.29264 78.1873 4.29987 78.2824 4.32872 78.3774C4.37778 78.5341 4.37487 78.6961 4.38353 78.8616C4.40229 79.2101 4.41238 79.5657 4.48307 79.9002C4.52924 80.1185 4.55952 80.321 4.53211 80.541C4.52201 80.615 4.51915 80.6924 4.52203 80.7681C4.53213 81.1361 4.64038 81.4952 4.56536 81.8701C4.55382 81.9282 4.57977 81.9987 4.58699 82.0638C4.6144 82.2786 4.65913 82.4933 4.6649 82.7099C4.67789 83.1993 4.68799 83.6922 4.6649 84.1798C4.64182 84.6798 4.69664 85.185 4.58987 85.6815C4.54803 85.8786 4.52928 86.1022 4.55958 86.2994C4.60719 86.6057 4.55237 86.8856 4.49033 87.1708C4.46869 87.2659 4.42539 87.3627 4.473 87.456C4.55668 87.6162 4.51485 87.7694 4.47878 87.9296C4.46291 88.0017 4.44701 88.0827 4.45567 88.1549C4.49174 88.4665 4.41963 88.7869 4.51774 89.0932C4.53793 89.1566 4.52205 89.2481 4.5004 89.3168C4.42827 89.5456 4.48017 89.771 4.5047 89.9945C4.52057 90.1319 4.56099 90.2885 4.67209 90.3554C4.92458 90.5068 5.11505 90.7603 5.35023 90.9417C5.71237 91.2198 6.15961 91.204 6.52031 91.4733C6.54051 91.4892 6.57366 91.4856 6.59963 91.4804C6.73093 91.4504 6.85649 91.4962 6.9647 91.5613C7.32828 91.7814 7.71782 91.9029 8.10738 92.0278C8.16797 92.0472 8.22857 92.0718 8.28484 92.1053C8.58061 92.2743 8.91244 92.2708 9.21398 92.4116C9.25294 92.4292 9.30631 92.4275 9.34671 92.4116C9.51407 92.3447 9.64395 92.4345 9.77236 92.5436C9.85316 92.6123 9.93108 92.6845 10.0364 92.6933C10.348 92.7179 10.6568 92.7866 10.9713 92.7866C11.1473 92.7866 11.3464 92.7796 11.495 92.8711C11.7692 93.0383 12.0606 93.0507 12.3478 93.107C12.4964 93.1369 12.6377 93.1598 12.7964 93.0982C12.9321 93.0454 13.1095 93.0454 13.2336 93.1686C13.3577 93.2936 13.489 93.3006 13.6347 93.3042C13.8497 93.3094 14.0718 93.2373 14.2767 93.3218C14.4888 93.408 14.6879 93.4573 14.9014 93.357C14.939 93.3394 14.9909 93.3464 15.0328 93.357C15.3646 93.452 15.7037 93.4732 16.0427 93.4749C16.4236 93.4767 16.806 93.482 17.1869 93.4784C17.5129 93.4749 17.8418 93.3253 18.1693 93.4802C18.2112 93.4996 18.2718 93.4538 18.3252 93.4503C18.582 93.4291 18.8389 93.3323 19.0928 93.4221C19.3684 93.5207 19.6352 93.4591 19.8704 93.3147C20.045 93.2073 20.2253 93.1492 20.3812 93.2126C20.6913 93.3394 20.9857 93.2214 21.2844 93.2056C21.6638 93.1844 22.026 93.0154 22.4054 92.9785C22.6464 92.9556 22.8873 92.9045 23.1268 92.9063C23.4486 92.9063 23.7559 92.7795 24.0791 92.7725C24.2479 92.769 24.4224 92.6792 24.6028 92.6968C24.7052 92.7056 24.7947 92.6634 24.8798 92.5947C25.1366 92.387 25.4439 92.4204 25.7281 92.3394C25.7743 92.3271 25.8335 92.3676 25.8826 92.3271C26.1524 92.0965 26.5073 92.0543 26.7425 91.7462C26.7713 91.7075 26.816 91.681 26.8578 91.6652C27.1522 91.5525 27.3989 91.3289 27.6672 91.1564C27.8346 91.049 27.9515 90.8994 27.9356 90.6389C27.9299 90.5332 27.9399 90.4135 27.976 90.3167C28.1001 89.9752 28.0712 89.6072 28.0929 89.2534C28.1232 88.7922 28.0698 88.3239 28.2025 87.8732C28.2328 87.7729 28.2227 87.6514 28.1924 87.5493C28.1506 87.4049 28.1333 87.2571 28.1477 87.0282H28.1607ZM8.4089 54.5254C8.21845 54.4673 8.05543 54.5905 7.88807 54.6556C7.74956 54.7102 7.67309 54.8739 7.67165 55.0377C7.66588 55.4813 7.67168 55.9267 7.73949 56.3668C7.76258 56.5182 7.77122 56.6643 7.75823 56.821C7.72793 57.1783 7.69184 57.541 7.73513 57.8984C7.80294 58.4564 7.74959 59.0233 7.84481 59.5813C7.94437 60.164 7.86499 60.7749 7.99917 61.3558C8.00638 61.3858 8.00346 61.421 8.00058 61.4544C7.9847 61.6868 8.0064 61.9069 8.09441 62.1216C8.14058 62.2343 8.15932 62.3804 8.14922 62.5054C8.11171 62.9578 8.1968 63.3927 8.25884 63.831C8.31944 64.2482 8.4392 64.6496 8.45363 65.0791C8.45652 65.1724 8.48538 65.2816 8.53155 65.3555C8.67871 65.5862 8.70324 65.8749 8.7119 66.1319C8.72344 66.4981 8.8172 66.8361 8.86914 67.1864C8.95859 67.7779 9.0625 68.3641 9.08415 68.9679C9.08703 69.0665 9.08843 69.1633 9.14903 69.2443C9.25724 69.3904 9.28469 69.5788 9.2919 69.7637C9.30056 69.996 9.29191 70.2231 9.45062 70.4009C9.48236 70.4361 9.47223 70.5259 9.4881 70.5875C9.54148 70.797 9.42893 71.0153 9.47366 71.2019C9.58619 71.6667 9.59343 72.149 9.68 72.6085C9.81707 73.3356 9.72044 74.0644 9.79547 74.7862C9.81422 74.964 9.78536 75.1559 9.82865 75.3354C9.87915 75.5502 9.89355 75.7667 9.88057 75.985C9.8445 76.5853 9.89929 77.1856 9.91227 77.7824C9.92237 78.3088 9.86898 78.8581 10.0176 79.3774C10.032 79.4267 10.0277 79.4883 10.0176 79.5393C9.99018 79.6837 10.0104 79.821 10.0465 79.9583C10.1027 80.1713 10.11 80.3879 10.0725 80.6062C10.0523 80.7241 10.0378 80.8456 10.0854 80.96C10.159 81.1413 10.172 81.3385 10.1807 81.5339C10.1966 81.8966 10.2614 82.2486 10.3293 82.599C10.3581 82.7486 10.3971 82.8947 10.3827 83.0496C10.3697 83.1834 10.4057 83.2785 10.4995 83.3542C10.6424 83.4669 10.7116 83.6323 10.7491 83.8383C10.8458 84.3541 11.1805 84.6481 11.4922 84.9597C11.5239 84.9914 11.5744 84.9967 11.6177 85.009C11.8356 85.0759 12.0491 85.1446 12.1948 85.3805C12.2395 85.4526 12.3102 85.4808 12.3795 85.509C12.7704 85.6727 13.1802 85.7431 13.5784 85.8628C13.9333 85.9702 14.2868 86.067 14.6345 86.2096C14.9274 86.3293 15.2102 86.4948 15.5406 86.4543C15.8047 86.4226 16.0715 86.4719 16.3356 86.5494C16.5592 86.6163 16.7944 86.6427 17.0253 86.6462C17.36 86.6515 17.6846 86.618 18.028 86.7008C18.745 86.8733 19.478 86.949 20.2052 87.0599C20.3018 87.074 20.4014 87.1004 20.4995 87.0652C20.6524 87.0106 20.7996 87.0476 20.9482 87.0986C21.2771 87.2113 21.6133 87.294 21.9553 87.2606C22.2842 87.2289 22.5843 87.4226 22.9075 87.4102C22.9248 87.4102 22.9436 87.4208 22.958 87.4314C23.1124 87.544 23.2783 87.5423 23.45 87.5264C23.5827 87.5141 23.7198 87.5264 23.8511 87.5511C23.942 87.5687 24.0328 87.5792 24.118 87.5493C24.3921 87.4542 24.649 87.287 24.9447 87.2888C24.9765 87.2888 25.0111 87.2553 25.0385 87.2289C25.1741 87.1057 25.3328 87.0652 25.4959 87.0652C25.7844 87.0652 26.0138 86.9332 26.1899 86.6515C26.2605 86.5388 26.3514 86.4385 26.4784 86.4314C26.8204 86.4138 27.0613 86.1269 27.3339 85.9385C27.5114 85.817 27.6643 85.6463 27.8779 85.6076C27.9486 85.5952 28.0164 85.5618 28.0842 85.5354C28.2631 85.4632 28.3064 85.391 28.2588 85.1762C28.2141 84.9703 28.204 84.7608 28.2198 84.5566C28.2573 84.076 28.1693 83.6147 28.1145 83.1482C28.0871 82.9229 28.0107 82.7064 28.0741 82.4705C28.0972 82.3842 28.0467 82.3015 28.0323 82.217C27.9876 81.9723 27.8909 81.7452 27.9039 81.4829C27.9255 81.0058 27.8389 80.5516 27.6788 80.1185C27.6485 80.0375 27.6211 79.953 27.6341 79.865C27.6845 79.5517 27.5763 79.2894 27.4624 79.0271C27.3441 78.7524 27.2719 78.469 27.2575 78.1521C27.2445 77.874 27.2373 77.5853 27.106 77.33C27.0656 77.2508 27.0656 77.1416 27.0483 77.0466C26.9819 76.6874 27.0223 76.3037 26.8521 75.9692C26.8146 75.8935 26.8319 75.7773 26.8247 75.6787C26.8117 75.4939 26.8247 75.302 26.7828 75.1277C26.6862 74.7193 26.5217 74.3285 26.6472 73.8866C26.6501 73.8778 26.6486 73.8637 26.6443 73.8549C26.5231 73.5732 26.5808 73.2511 26.5029 72.9588C26.4481 72.7493 26.4163 72.5328 26.4077 72.3145C26.4005 72.1244 26.3673 71.9501 26.2678 71.7952C26.1942 71.679 26.1725 71.5364 26.1826 71.3903C26.1985 71.1421 26.1437 70.915 26.0672 70.6897C26.0239 70.5576 25.9705 70.4256 25.9532 70.2883C25.9186 70.0207 25.7685 69.776 25.8219 69.4943C25.8551 69.3183 25.8292 69.1704 25.757 69.026C25.62 68.7532 25.5824 68.431 25.467 68.1458C25.428 68.0472 25.4266 67.9258 25.4728 67.8272C25.5362 67.6916 25.506 67.5807 25.4482 67.4592C25.3169 67.1829 25.2347 66.8924 25.2333 66.5632C25.2333 66.3907 25.1799 66.2199 25.0947 66.072C24.9317 65.7868 24.8581 65.4576 24.8293 65.1196C24.8048 64.8327 24.6734 64.5845 24.659 64.2975C24.6576 64.2606 24.6273 64.2148 24.5999 64.1937C24.4672 64.0916 24.4282 63.9138 24.3762 63.7553C24.2853 63.4772 24.3056 63.148 24.1065 62.9209C24.0906 62.9015 24.0906 62.8592 24.0877 62.8258C24.0675 62.641 24.043 62.4579 24.03 62.273C24.0069 61.9755 23.9146 61.6956 23.8093 61.4403C23.7025 61.1798 23.6361 60.914 23.5928 60.6393C23.5654 60.4633 23.5293 60.2978 23.4442 60.1552C23.3591 60.0161 23.323 59.8647 23.3273 59.6957C23.3302 59.5866 23.3202 59.488 23.2711 59.3841C23.0734 58.9687 22.9031 58.5374 22.9031 58.0392C22.9031 57.9617 22.8931 57.8825 22.844 57.8262C22.7387 57.7082 22.7098 57.5463 22.668 57.3896C22.6233 57.2223 22.6088 57.0287 22.5266 56.8967C22.3563 56.6238 22.3405 56.3104 22.3073 55.9988C22.2828 55.7665 22.2063 55.5623 22.1111 55.3616C21.9567 55.0324 21.899 54.6504 21.7215 54.3335C21.6941 54.2842 21.6985 54.2067 21.6927 54.1416C21.6783 53.9779 21.6652 53.8142 21.6551 53.6504C21.645 53.485 21.6248 53.323 21.5715 53.1716C21.5065 52.9903 21.4315 52.9639 21.3002 53.0748C21.2281 53.1364 21.1704 53.2226 21.0766 53.2508C20.6423 53.3793 20.2283 53.5976 19.781 53.661C19.7377 53.6663 19.6915 53.6892 19.6569 53.7191C19.5227 53.8318 19.3726 53.8423 19.2183 53.8405C18.859 53.8353 18.5026 53.8934 18.1506 53.9638C17.6831 54.0571 17.2042 54.0782 16.754 54.2824C16.7223 54.2965 16.6833 54.2912 16.6472 54.2965C16.2433 54.3599 15.8234 54.2719 15.4324 54.4813C15.3718 54.513 15.2852 54.513 15.2203 54.4902C14.8784 54.3704 14.5437 54.5166 14.2118 54.5482C13.8497 54.5817 13.4817 54.6151 13.1225 54.6327C12.6406 54.6556 12.1587 54.6944 11.6754 54.6996C11.622 54.6996 11.5629 54.7014 11.5181 54.7313C11.3234 54.8581 11.1156 54.8229 10.9107 54.8105C10.6972 54.8 10.4865 54.7577 10.2759 54.7102C9.65979 54.5711 9.02645 54.6732 8.41038 54.5218L8.4089 54.5254ZM2.66374 3.3901C2.76185 3.3901 2.86137 3.38658 2.95948 3.3901C3.1153 3.39538 3.26102 3.44466 3.38943 3.55557C3.48898 3.64183 3.49908 3.73867 3.42261 3.85838C3.33027 4.0045 3.21489 4.08723 3.06917 4.13652C2.83832 4.21398 2.81377 4.28263 2.93785 4.52557C3.21343 5.06602 3.35337 5.67865 3.54815 6.25959C3.67079 6.62224 3.81506 6.99018 3.86989 7.39332C3.93049 7.83695 4.13973 8.23129 4.20177 8.6714C4.27391 9.18192 4.46721 9.64315 4.56388 10.1414C4.62159 10.4389 4.68943 10.7293 4.77311 11.018C4.82794 11.2064 4.94335 11.3525 4.98087 11.5497C5.06166 11.9722 5.15976 12.3859 5.29105 12.7943C5.44976 13.289 5.59405 13.789 5.77151 14.2748C5.81191 14.384 5.85085 14.509 5.82921 14.6252C5.79891 14.7801 5.84074 14.9033 5.89557 15.0283C5.99801 15.2625 6.05573 15.5142 6.0817 15.7783C6.09468 15.9068 6.13794 16.0318 6.16391 16.1568C6.24759 16.5458 6.45105 16.8908 6.4395 17.3134C6.43662 17.4366 6.50584 17.4559 6.58808 17.4154C6.68908 17.3662 6.79157 17.3345 6.89834 17.3134C7.26913 17.2429 7.64999 17.2623 8.01502 17.1391C8.07273 17.1197 8.13914 17.1355 8.20262 17.1338C8.4782 17.1215 8.75521 17.2007 9.02934 17.0986C9.24431 17.0194 9.46504 16.9947 9.69156 17.0088C10.0104 17.0282 10.1172 16.8292 9.98011 16.4895C9.88922 16.2624 9.79256 16.0318 9.80843 15.773C9.82574 15.4702 9.73342 15.2184 9.61223 14.9737C9.54586 14.8399 9.51699 14.6991 9.48958 14.546C9.42321 14.1622 9.35828 13.7784 9.23131 13.4122C9.09858 13.0285 9.00475 12.6271 9.00764 12.2046C9.01052 11.9229 8.96007 11.6624 8.83455 11.4247C8.74077 11.2452 8.70616 11.048 8.67153 10.8402C8.60083 10.4125 8.51857 9.98643 8.432 9.56569C8.36708 9.25233 8.2675 8.94426 8.22566 8.62034C8.21123 8.51119 8.18384 8.40557 8.13478 8.31402C8.041 8.13974 8.01649 7.94786 8.04679 7.74717C8.0843 7.50775 8.04248 7.27361 7.95302 7.07996C7.8174 6.78421 7.83322 6.45326 7.75675 6.14694C7.68029 5.84063 7.73221 5.51142 7.67306 5.21391C7.60092 4.85302 7.68178 4.52029 7.70342 4.17701C7.71497 4.00273 7.77551 3.86542 7.93999 3.83021C8.0684 3.80204 8.16938 3.7017 8.25595 3.59255C8.34829 3.47637 8.45509 3.41826 8.58206 3.38129C8.9745 3.2651 9.35391 3.10491 9.73192 2.92711C9.94113 2.82852 9.97291 2.55388 9.80843 2.38664C9.75937 2.33559 9.70312 2.30742 9.64541 2.27573C9.53287 2.21236 9.41743 2.14548 9.33375 2.02577C9.22409 1.86557 9.07406 1.80394 8.91535 1.75465C8.29351 1.56805 7.65723 1.56102 7.02528 1.50116C6.85215 1.48532 6.68478 1.58567 6.51742 1.5487C6.03553 1.44131 5.57383 1.57861 5.10781 1.68952C4.97796 1.71945 4.83801 1.78106 4.71105 1.70888C4.5408 1.61206 4.38206 1.65784 4.21326 1.69833C3.80783 1.79339 3.40389 1.87259 2.98548 1.79162C2.7402 1.74408 2.48048 1.70009 2.24098 1.81276C2.05486 1.89902 1.87886 1.90782 1.68986 1.84972C1.48931 1.78811 1.3436 1.89197 1.26857 2.12786C1.23106 2.24229 1.21371 2.362 1.23391 2.48171C1.26421 2.66656 1.257 2.84788 1.23391 3.03449C1.18486 3.42002 1.27146 3.5098 1.5932 3.53092C1.95678 3.55557 2.30012 3.38834 2.65937 3.39363L2.66374 3.3901Z" fill="#FF4D00"/>
</svg>
