<svg width="29" height="93" viewBox="0 0 29 93" fill="none" xmlns="http://www.w3.org/2000/svg">
<path d="M9.80927 80.5807C10.1157 80.523 10.4951 80.5493 10.8759 80.5982C11.3209 80.6559 11.7674 80.6646 12.138 81.0475C12.3072 81.2223 12.5276 81.3062 12.7596 81.3394C12.9026 81.3604 13.0558 81.4076 13.1739 81.5002C13.5314 81.7817 13.9254 81.8342 14.3369 81.8324C15.0796 81.8289 15.8237 81.8359 16.5663 81.8324C16.7239 81.8324 16.88 81.8079 17.0376 81.7887C17.1281 81.7782 17.2215 81.7467 17.3046 81.7887C17.5673 81.9251 17.8343 81.8779 18.1028 81.8342C18.2487 81.8097 18.396 81.8237 18.5419 81.8447C18.6207 81.8569 18.6995 81.8936 18.7754 81.8831C19.3284 81.8114 19.8712 81.9757 20.4198 81.981C20.7262 81.9845 21.0238 82.0544 21.3244 82.0999C21.5812 82.1383 21.8395 82.1663 22.0963 82.1751C22.3633 82.1838 22.607 82.2222 22.8258 82.4268C22.9119 82.5072 23.0257 82.5894 23.1293 82.5946C23.4912 82.6103 23.5991 82.932 23.6925 83.2467C23.8311 83.7187 23.8487 84.2274 23.6473 84.6592C23.4547 85.0753 23.3759 85.5438 23.1804 85.9441C22.9003 86.514 22.658 87.1206 22.2816 87.6136C22.0204 87.9562 21.7344 88.2744 21.4484 88.5891C21.3784 88.666 21.2675 88.6922 21.1712 88.7307C21.0282 88.7884 20.9188 88.8845 20.8225 89.0296C20.6313 89.3181 20.3921 89.4264 20.0769 89.2971C19.7793 89.1765 19.4699 89.1013 19.1533 89.0681C18.9184 89.0418 18.7054 88.895 18.4676 88.8653C18.4267 88.86 18.3683 88.8286 18.3537 88.7884C18.2355 88.4877 17.9977 88.3968 17.7701 88.2814C17.6855 88.2377 17.6256 88.1538 17.5702 88.0664C17.4812 87.923 17.3689 87.7884 17.2405 87.7272C16.9122 87.5716 16.6904 87.271 16.4467 86.9965C16.3139 86.8461 16.149 86.7465 15.9885 86.6591C15.6019 86.4458 15.2094 86.2448 14.7658 86.2675C14.6083 86.2762 14.4507 86.2483 14.3121 86.1399C14.2844 86.1189 14.2493 86.0997 14.2172 86.0979C13.5402 86.0647 12.8807 85.7833 12.1906 85.9091C11.8316 85.9756 11.4756 85.8374 11.1166 85.8252C10.8657 85.8165 10.6264 85.8095 10.3944 85.9598C10.1697 86.1049 9.9085 86.035 9.66629 86.0927C9.46931 86.1399 9.2621 86.1189 9.0622 86.1521C8.90754 86.1784 8.74418 86.2116 8.60702 86.2955C7.98691 86.6766 7.32881 86.6801 6.66347 86.5909C6.43293 86.5594 6.21267 86.5944 5.99526 86.6678C5.69907 86.7675 5.45536 86.6486 5.19419 86.4878C4.80169 86.243 4.51424 85.8287 4.12174 85.5892C4.02398 85.5298 3.97442 85.4266 3.95253 85.3008C3.92627 85.1539 3.91459 85.0018 3.94669 84.8585C4.05758 84.3795 4.1261 83.8848 4.326 83.439C4.37561 83.3288 4.44565 83.2502 4.51715 83.1645C4.69078 82.9565 4.92573 82.8324 5.0658 82.5736C5.12709 82.46 5.25108 82.4145 5.36489 82.4058C5.60564 82.3883 5.79242 82.2397 5.96313 82.0649C6.10758 81.9163 6.25642 81.8202 6.4461 81.8132C6.64599 81.8044 6.79772 81.7083 6.93633 81.516C7.24128 81.0982 7.68777 81.0125 8.10653 80.8552C8.5282 80.6961 8.97178 80.7206 9.39492 80.5825C9.50581 80.5458 9.61813 80.5493 9.80635 80.579L9.80927 80.5807Z" fill="#FF4D00"/>
<path d="M8.32616 35.4814C8.35389 35.2734 8.33933 35.0636 8.24594 34.8643C8.19633 34.7577 8.18026 34.6336 8.1861 34.5112C8.19631 34.2805 8.16133 34.0602 8.11172 33.8347C8.04168 33.5183 8.11314 33.1896 8.1467 32.8732C8.16859 32.6582 8.20652 32.4519 8.17733 32.2334C8.14232 31.9711 8.20358 31.7543 8.41223 31.618C8.47059 31.5813 8.54939 31.5358 8.56982 31.4729C8.69676 31.0603 9.03677 30.9012 9.26731 30.6145C9.37966 30.4747 9.52551 30.403 9.68309 30.3611C9.84797 30.3156 10.0114 30.2684 10.1734 30.2125C10.614 30.0586 11.0707 30.1076 11.4574 30.3243C11.8674 30.5551 12.2905 30.8016 12.6451 31.1652C12.7662 31.2893 12.8975 31.3872 13.0594 31.4257C13.1236 31.4397 13.2039 31.4676 13.2418 31.5236C13.4432 31.8173 13.7379 31.9746 13.9466 32.2648C14.2545 32.6931 14.5886 33.0952 14.9008 33.52C15.2102 33.9431 15.6041 34.2193 16.0754 34.3329C16.2607 34.3766 16.4373 34.4815 16.6182 34.5514C16.9406 34.6755 17.2777 34.721 17.6103 34.7857C17.7781 34.8189 17.9445 34.8346 18.0933 34.9483C18.1633 35.0024 18.2436 34.9867 18.3239 34.985C18.8856 34.9675 19.4473 34.957 20.0091 34.9378C20.0966 34.9343 20.1886 34.9063 20.2703 34.8696C20.3885 34.8171 20.5096 34.7804 20.6336 34.7874C21.1107 34.8189 21.5703 34.6528 22.0416 34.6248C22.4531 34.6004 22.866 34.457 23.2775 34.6371C23.3388 34.6633 23.4132 34.6615 23.4788 34.6511C23.7736 34.6039 24.0303 34.7157 24.2857 34.8801C24.7365 35.172 24.9044 35.7961 24.6344 36.3188C24.4754 36.6247 24.3149 36.9429 24.0391 37.1335C23.991 37.1667 23.9384 37.2069 23.9092 37.2611C23.7648 37.532 23.5518 37.6579 23.2994 37.7191C22.9375 37.8082 22.5873 37.9463 22.2211 38.0198C21.9687 38.0705 21.725 38.1928 21.4784 38.2855C21.404 38.3135 21.3252 38.3816 21.2566 38.3694C20.886 38.3012 20.5169 38.4673 20.1477 38.3659C20.104 38.3537 20.0485 38.3344 20.0149 38.3554C19.7275 38.532 19.4474 38.4131 19.1628 38.3397C18.9017 38.2733 18.658 38.4358 18.3968 38.4428C18.1546 38.4498 17.9256 38.4219 17.7023 38.3257C17.482 38.2296 17.266 38.2226 17.0399 38.289C16.7554 38.3747 16.4665 38.4201 16.1732 38.3327C16.1294 38.3205 16.0798 38.3065 16.0404 38.3205C15.6173 38.4655 15.1912 38.303 14.7651 38.3327C14.3712 38.3607 13.9787 38.2995 13.6226 38.06C13.5409 38.004 13.4491 38.004 13.3586 38.0075C13.0318 38.018 12.7078 37.9621 12.3824 37.9376C12.2905 37.9306 12.2044 37.9027 12.1227 37.8537C11.9695 37.7628 11.7974 37.7121 11.6354 37.7068C11.2808 37.6946 10.9467 37.5722 10.6082 37.4778C10.3018 37.3939 9.98222 37.3275 9.70354 37.1684C9.40588 36.9988 9.06449 36.9114 8.82958 36.5968C8.80769 36.567 8.77996 36.5356 8.75078 36.5234C8.32327 36.3485 8.31599 35.929 8.32766 35.4849L8.32616 35.4814Z" fill="#FF4D00"/>
<path d="M21.2665 92.2655C21.0083 92.2864 20.7471 92.2847 20.4932 92.3389C20.2145 92.3983 19.93 92.3529 19.6557 92.456C19.5477 92.498 19.431 92.4682 19.3215 92.435C19.1435 92.3826 18.9626 92.3773 18.7846 92.4193C18.6489 92.4508 18.5176 92.463 18.3834 92.4228C18.3411 92.4106 18.2871 92.3966 18.2506 92.4158C17.8946 92.5994 17.5429 92.449 17.1898 92.4053C16.9535 92.3756 16.7171 92.3773 16.4836 92.435C16.4078 92.4525 16.3231 92.4665 16.2502 92.4438C15.9715 92.3581 15.6884 92.3913 15.4083 92.3861C15.2055 92.3826 15.007 92.3913 14.8042 92.3336C14.5459 92.2602 14.2964 92.421 14.0353 92.4263C13.8762 92.4298 13.7201 92.442 13.5713 92.3686C13.4517 92.3092 13.3291 92.3127 13.205 92.3144C12.9687 92.3179 12.7323 92.3441 12.4959 92.3074C12.404 92.2934 12.3121 92.3022 12.2348 92.3616C12.0918 92.47 11.9312 92.4822 11.7766 92.4595C11.4089 92.4053 11.0325 92.4315 10.6779 92.2672C10.5116 92.1885 10.3438 92.213 10.1833 92.2969C10.0301 92.3773 9.88855 92.3459 9.72659 92.3109C9.3837 92.2375 9.05541 92.0871 8.67459 92.206C8.39736 92.2934 8.0355 92.3476 7.82393 91.9333C7.7787 91.8442 7.68532 91.8721 7.61091 91.8494C7.29136 91.7515 6.96163 91.8546 6.64355 91.755C6.54433 91.7253 6.43192 91.7165 6.36334 91.6274C6.20722 91.4211 6.01317 91.3529 5.79139 91.3354C5.7053 91.3284 5.61925 91.2795 5.53462 91.241C5.47188 91.2113 5.4164 91.1431 5.35366 91.1361C4.93052 91.0907 4.59494 90.7551 4.18931 90.6449C4.00692 90.5942 3.8362 90.4701 3.66694 90.3617C3.43932 90.2149 3.22487 90.0383 2.97537 89.9404C2.93306 89.9247 2.88348 89.9037 2.85867 89.8635C2.58436 89.4492 2.14512 89.2534 1.89416 88.8058C1.70886 88.4754 1.39951 88.2464 1.32948 87.8199C1.3251 87.7954 1.312 87.7622 1.29449 87.7517C0.999758 87.5629 0.96763 87.1573 0.79108 86.8689C0.634957 86.6154 0.567896 86.3007 0.557682 85.9913C0.547468 85.6434 0.477403 85.292 0.564949 84.9441C0.588294 84.8497 0.557645 84.7571 0.556186 84.6644C0.543054 84.0578 0.509469 83.4442 0.821715 82.9075C0.875701 82.8149 0.885955 82.7082 0.899086 82.5998C0.922432 82.3988 0.951582 82.2065 1.08582 82.0509C1.19525 81.9251 1.1471 81.7153 1.22881 81.5614C1.44475 81.1524 1.63589 80.7276 1.73365 80.2486C1.78471 79.9968 1.93647 79.7993 2.06778 79.5982C2.26476 79.2976 2.4224 78.9724 2.49098 78.5948C2.5187 78.4427 2.58435 78.3221 2.66168 78.205C2.96371 77.7539 3.18401 77.24 3.43789 76.7522C3.5123 76.6089 3.48895 76.4341 3.53564 76.2855C3.68155 75.8344 3.81581 75.3764 3.99673 74.9446C4.17912 74.5076 4.30895 74.0548 4.39941 73.5828C4.42567 73.4482 4.45779 73.3276 4.52929 73.2157C4.8678 72.6913 5.04725 72.0969 5.056 71.4308C5.06184 70.9973 5.24135 70.6354 5.39748 70.2683C5.44854 70.1494 5.52437 70.0428 5.53313 69.9047C5.54918 69.6197 5.5667 69.34 5.76952 69.132C5.82934 69.0708 5.81765 68.9572 5.82494 68.8628C5.84829 68.5534 5.87455 68.2439 5.8979 67.9362C5.92854 67.5167 6.04237 67.1268 6.17953 66.7458C6.19704 66.6968 6.22477 66.6461 6.22477 66.5954C6.22769 66.1042 6.44799 65.6636 6.46258 65.1759C6.46258 65.1619 6.46554 65.1479 6.46992 65.1357C6.77925 64.1515 6.73395 63.0938 6.91342 62.0799C7.00972 61.5327 7.01264 60.9558 7.09873 60.3982C7.12499 60.2251 7.11774 60.0433 7.06959 59.8772C6.98788 59.5835 6.99956 59.2846 7.03895 58.9944C7.07689 58.7112 7.08708 58.4367 7.05206 58.1535C7.02288 57.9123 7.0258 57.664 7.09438 57.4315C7.17901 57.1466 7.14546 56.8739 7.06959 56.6011C6.98204 56.2847 6.94265 55.9753 7.06959 55.6554C7.10607 55.5627 7.10753 55.4439 7.10899 55.3372C7.1119 54.839 7.12651 54.339 7.04772 53.8443C7.02437 53.7009 7.01123 53.5418 7.03603 53.402C7.13817 52.8251 6.99952 52.2709 6.92218 51.7185C6.86966 51.3357 6.87263 50.9738 6.90765 50.5944C6.94996 50.1294 7.02289 49.6609 6.95431 49.1907C6.93389 49.0456 6.90032 48.9022 6.87552 48.7571C6.85363 48.6243 6.81717 48.4897 6.82301 48.3603C6.83906 48.0648 6.86241 47.7799 6.75882 47.4897C6.68586 47.2869 6.74861 47.0614 6.83177 46.8638C6.88576 46.738 6.91929 46.6069 6.87844 46.474C6.69313 45.8814 6.75731 45.2433 6.63329 44.6419C6.75147 43.7119 6.37506 42.878 6.26709 41.9917C6.23645 41.7365 6.19852 41.4952 6.2423 41.2313C6.28461 40.9795 6.24224 40.7191 6.1474 40.4848C6.06715 40.2855 6.03653 40.0915 6.05841 39.8625C6.08905 39.5408 5.96502 39.2296 5.94314 38.9062C5.89937 38.2384 5.73741 37.5968 5.73012 36.9133C5.72282 36.2298 5.79141 35.548 5.74472 34.8592C5.72138 34.5288 5.79142 34.1669 5.82936 33.8208C5.85417 33.604 5.82934 33.3908 5.84539 33.1775C5.86728 32.903 5.97819 32.6618 6.05115 32.41C6.19268 31.917 6.26999 31.3961 6.47135 30.9276C6.72377 30.3402 6.99513 29.779 7.42702 29.3402C7.76261 29.0011 8.07198 28.6322 8.4528 28.3578C8.66583 28.2057 8.86715 28.0466 9.11082 27.9592C9.42307 27.8473 9.67115 27.5624 9.99069 27.4505C10.4226 27.2984 10.8267 27.0571 11.2251 26.8072C11.2747 26.7757 11.3272 26.7337 11.3797 26.7302C11.959 26.7023 12.4478 26.3264 12.9862 26.1429C13.2984 26.0362 13.6048 25.8964 13.9346 25.8754C14.0002 25.8719 14.0689 25.8457 14.1272 25.809C14.3067 25.6936 14.4876 25.5939 14.6889 25.5362C14.8844 25.4803 14.918 25.3684 14.8334 25.1446C14.7823 25.01 14.6904 24.8912 14.6612 24.7513C14.5562 24.2496 14.5226 23.7216 14.2731 23.2724C14.3417 22.5853 13.9959 22.0399 13.8339 21.4333C13.8062 21.3302 13.7682 21.2323 13.7434 21.1291C13.5465 20.304 13.3524 19.4788 13.1525 18.6555C13.1233 18.5383 13.0942 18.4265 13.1 18.3006C13.1132 18.0087 13.0592 17.7394 12.903 17.5052C12.8315 17.3968 12.7892 17.2744 12.7776 17.1363C12.7207 16.479 12.5777 15.8392 12.4741 15.1924C12.2771 13.9494 11.9517 12.7414 11.7781 11.4932C11.7445 11.252 11.676 11.1016 11.4673 11.0335C11.2266 10.9565 11.015 10.7957 10.818 10.6104C10.783 10.5772 10.7494 10.53 10.7086 10.516C10.2737 10.3709 10.014 9.95659 9.70764 9.6087C9.52817 9.40592 9.43038 9.11922 9.20714 8.96014C9.1196 8.89721 9.09772 8.74686 9.1094 8.62799C9.1342 8.37975 9.05835 8.14549 9.05689 7.90599C9.05543 7.15953 9.17064 6.46028 9.69153 5.95506C9.97314 5.68234 10.0169 5.54598 9.91189 5.15963C9.86229 4.97957 9.82577 4.79776 9.80097 4.61071C9.77033 4.3817 9.70618 4.16492 9.56465 3.99535C9.50045 3.91843 9.43916 3.83801 9.4129 3.73137C9.28158 3.18769 9.20862 2.63702 9.23051 2.06887C9.24364 1.72972 9.37059 1.44304 9.53401 1.18606C9.91192 0.589932 10.4051 0.322462 11.0427 0.399382C11.8364 0.493782 12.6316 0.570702 13.4239 0.70531C13.6895 0.749015 13.9638 0.764741 14.2308 0.742015C14.6583 0.7088 15.0844 0.804947 15.5134 0.740265C15.6782 0.715791 15.8533 0.729775 16.0196 0.761242C16.202 0.797954 16.3654 0.824175 16.5303 0.672084C16.6558 0.556705 16.8411 0.582937 16.952 0.659856C17.1825 0.820688 17.4437 0.846915 17.6801 0.971035C17.8989 1.08641 18.1076 1.21228 18.2695 1.4308C18.557 1.8189 18.6693 2.53739 18.4636 2.98317C18.3469 3.23666 18.1601 3.44293 17.9996 3.66494C17.9339 3.75585 17.8523 3.83103 17.7822 3.92019C17.6203 4.12472 17.6218 4.17016 17.8508 4.27505C18.2317 4.45161 18.433 4.85196 18.6898 5.18761C19.0283 5.62815 19.0414 6.10364 18.8649 6.64557C18.6956 7.16478 18.5205 7.6595 18.1747 8.05458C18.058 8.18744 17.9704 8.30808 17.7983 8.35178C17.5692 8.40947 17.3766 8.78007 17.4028 9.06328C17.4408 9.4671 17.3956 9.87269 17.451 10.2765C17.5225 10.8027 17.7297 11.2712 17.8712 11.766C18.023 12.2974 18.2141 12.8148 18.4184 13.3201C18.5891 13.7431 18.8269 14.1277 18.9977 14.5508C19.2749 15.2413 19.5405 15.9388 19.6689 16.701C19.7681 17.2936 19.9081 17.8775 20.0788 18.4509C20.1269 18.6153 20.1562 18.7883 20.1825 18.9614C20.3152 19.8145 20.5647 20.6344 20.6683 21.4945C20.696 21.7287 20.8478 21.8966 20.8769 22.1308C20.9266 22.5434 20.9791 22.9577 21.1177 23.3441C21.3176 23.8982 21.2373 24.5153 21.4037 25.0782C21.4576 25.26 21.5189 25.3422 21.6707 25.3772C22.0778 25.4698 22.4892 25.5135 22.8963 25.6271C23.2815 25.7338 23.5821 25.9401 23.8331 26.2862C23.8696 26.3369 23.909 26.4138 23.9527 26.4191C24.513 26.4872 24.799 27.0204 25.1623 27.4225C25.228 27.4959 25.2994 27.5606 25.3709 27.6271C25.6481 27.8823 25.8422 28.2022 25.905 28.62C25.9735 29.0763 26.0888 29.5011 26.3164 29.8909C26.4477 30.1147 26.5382 30.3926 26.5514 30.6828C26.5645 30.9958 26.6214 31.2982 26.6841 31.5989C26.6987 31.6636 26.7235 31.7282 26.725 31.7947C26.744 32.2981 26.868 32.7702 26.9979 33.2439C27.027 33.3505 27.0285 33.4624 27.0022 33.5638C26.9117 33.9169 27.008 34.2596 27.0299 34.6075C27.0314 34.6337 27.0329 34.6652 27.0445 34.6861C27.2079 34.9886 27.2386 35.2683 27.1044 35.6302C27.027 35.8382 27.135 36.1546 27.1846 36.4168C27.24 36.714 27.2488 37.0007 27.1846 37.2961C27.1408 37.4954 27.1394 37.6982 27.2357 37.8835C27.3174 38.0409 27.3261 38.2087 27.3071 38.3905C27.2473 38.9272 27.2386 39.4656 27.3378 39.9988C27.3407 40.0111 27.3465 40.0268 27.3436 40.039C27.1846 40.8519 27.5042 41.6334 27.4545 42.441C27.4429 42.6403 27.4896 42.8413 27.5115 43.0389C27.6224 44.0388 27.6894 45.0458 27.8383 46.0405C27.9287 46.6436 28.0469 47.2519 28.0177 47.8778C28.0104 48.0211 28.0484 48.1715 28.079 48.3148C28.1315 48.5648 28.1097 48.8253 28.1359 49.07C28.1914 49.5683 28.0761 50.056 28.1418 50.5542C28.1899 50.9196 28.1505 51.3147 28.1082 51.6766C28.063 52.0664 28.0892 52.4562 28.0907 52.8321C28.0936 53.3758 28.0294 53.9037 27.9769 54.4334C27.9404 54.79 27.9667 55.1572 27.8383 55.5033C27.7653 55.6991 27.8893 55.9176 27.8529 56.1414C27.7668 56.6781 27.7318 57.2252 27.6676 57.7672C27.6019 58.3108 27.599 58.8685 27.5464 59.4174C27.4647 60.2863 27.5115 61.1621 27.3962 62.0327C27.3335 62.5047 27.3188 62.9977 27.2882 63.4802C27.2546 64.0011 27.2517 64.5308 27.1409 65.043C27.1058 65.2021 27.1088 65.3525 27.1496 65.5185C27.2255 65.8227 27.1569 66.1339 27.1116 66.4363C27.0693 66.716 26.9935 66.987 27.065 67.2737C27.0679 67.2859 27.0723 67.3034 27.0679 67.3139C26.9205 67.688 27.0752 68.0778 27.0285 68.4554C26.9803 68.8418 26.9263 69.2281 26.8694 69.6127C26.8519 69.7316 26.8096 69.8522 26.8373 69.9711C26.9278 70.3644 26.8374 70.756 26.7819 71.1301C26.7031 71.6616 26.6126 72.1825 26.6856 72.7245C26.69 72.7647 26.7002 72.8101 26.6885 72.8451C26.5251 73.3433 26.6389 73.88 26.5353 74.3852C26.5046 74.5338 26.5003 74.6754 26.5134 74.824C26.5222 74.9289 26.5222 75.046 26.493 75.1439C26.3398 75.6509 26.369 76.1683 26.4055 76.691C26.4303 77.0424 26.3427 77.3868 26.2858 77.7295C26.2537 77.9288 26.2056 78.1228 26.2654 78.3256C26.2727 78.3501 26.2771 78.3815 26.2712 78.406C26.121 79.0703 26.3019 79.7818 26.0742 80.4374C26.0494 80.509 26.0363 80.5965 26.0392 80.6734C26.0684 81.2031 26.0086 81.7135 25.8466 82.2135C25.7737 82.4355 25.7941 82.6925 25.7766 82.9285C25.7518 83.2729 25.6657 83.612 25.6832 83.9617C25.6861 84.0281 25.6919 84.1085 25.6657 84.1592C25.5504 84.376 25.546 84.6172 25.5285 84.8602C25.4891 85.4004 25.2995 85.9004 25.2411 86.4371C25.2192 86.6346 25.1185 86.8129 25.0514 86.993C24.9201 87.3514 24.9449 87.7307 24.8807 88.0961C24.7888 88.6205 24.5407 89.0593 24.3758 89.5418C24.2518 89.9019 24.0884 90.2428 23.9469 90.5942C23.8958 90.7201 23.8258 90.818 23.7309 90.8984C23.6478 90.9683 23.5617 91.0347 23.4873 91.1152C23.2757 91.3477 23.0408 91.5033 22.7519 91.5697C22.3827 91.6536 22.0676 91.9123 21.7436 92.1274C21.5875 92.2305 21.4504 92.3232 21.2709 92.262L21.2665 92.2655ZM20.2992 25.1272C20.3137 24.559 20.3181 24.0346 20.1664 23.5818C20.0409 23.2077 19.9942 22.8213 19.9621 22.4542C19.8964 21.6868 19.7374 20.9438 19.6367 20.1869C19.5229 19.3198 19.3011 18.4824 19.1377 17.6275C18.9743 16.7727 18.7963 15.9213 18.4578 15.1364C18.1747 14.4791 17.8625 13.8375 17.5926 13.1732C17.47 12.8708 17.2599 12.6243 17.2044 12.2834C17.1767 12.1086 17.1227 11.9477 17.057 11.7904C16.72 10.9758 16.491 10.1209 16.4924 9.20664C16.4924 8.90246 16.4924 8.62799 16.3713 8.35003C16.2677 8.11053 16.3246 7.91474 16.5026 7.73993C16.6587 7.58609 16.8265 7.44799 16.9914 7.30638C17.0833 7.22772 17.1752 7.14904 17.2117 7.00918C17.2526 6.85185 17.3401 6.72948 17.4247 6.60187C17.5531 6.40607 17.6378 6.16832 17.5444 5.92533C17.4131 5.58269 17.1592 5.34494 16.8892 5.20509C16.7156 5.11593 16.5435 5.02501 16.383 4.90789C16.1641 4.74705 16.0941 4.41316 16.2531 4.17366C16.3932 3.96388 16.5084 3.73312 16.6587 3.53033C16.8746 3.23664 17.0863 2.93947 17.3285 2.6755C17.3854 2.61256 17.4612 2.53213 17.3839 2.43773C17.3066 2.34333 17.2 2.19824 17.1198 2.20873C16.8513 2.24894 16.6106 2.09859 16.3567 2.10034C15.7497 2.10559 15.1427 2.1388 14.5357 2.16502C14.4467 2.16852 14.3534 2.17902 14.2702 2.21573C14.1068 2.28915 13.9594 2.24718 13.815 2.15977C13.5319 1.98671 13.224 1.99021 12.9307 2.05489C12.6302 2.12132 12.3544 2.12131 12.0845 1.9395C11.9444 1.8451 11.7927 1.79966 11.6322 1.79266C11.2499 1.77343 10.8734 1.69301 10.5116 1.54442C10.3773 1.48848 10.3117 1.51121 10.2416 1.66155C10.0694 2.03391 10.049 2.43074 10.1935 2.79261C10.3335 3.14224 10.4707 3.49713 10.6137 3.84676C10.7173 4.10199 10.8778 4.31176 10.9799 4.56175C11.0646 4.76804 11.139 4.97082 11.2645 5.15263C11.4235 5.38164 11.4454 5.92533 11.301 6.14735C11.1798 6.33265 11.0995 6.54243 11.0324 6.75221C10.9288 7.07737 10.7421 7.32211 10.551 7.56511C10.335 7.83782 10.3248 8.16648 10.5217 8.46717C10.656 8.67345 10.8238 8.81504 11.0062 8.95314C11.1755 9.07901 11.2965 9.31501 11.4731 9.41116C11.7882 9.58073 12.0246 9.87792 12.3237 10.0667C12.4098 10.1209 12.4565 10.2153 12.4667 10.3272C12.4842 10.5282 12.5047 10.7345 12.4055 10.9163C12.3617 10.995 12.3019 11.0667 12.3296 11.1716C12.3952 11.4146 12.4478 11.6646 12.5338 11.8988C12.7688 12.5421 12.9176 13.2187 13.0956 13.883C13.2342 14.4004 13.3553 14.9266 13.5187 15.4354C13.5961 15.6749 13.6822 15.9091 13.7099 16.1643C13.7391 16.43 13.7741 16.6853 13.8573 16.9405C13.9244 17.1468 13.9127 17.3898 14.0411 17.5804C14.0849 17.6433 14.0849 17.7359 14.0688 17.8164C14.0338 17.9894 14.0907 18.1345 14.152 18.2796C14.2235 18.4492 14.2688 18.6257 14.3009 18.8145C14.4074 19.4509 14.5897 20.068 14.8305 20.6414C15.0537 21.1693 15.22 21.7252 15.4302 22.2584C15.6111 22.7217 15.792 23.2007 15.8912 23.7112C15.9423 23.9734 16.0386 24.2216 16.0619 24.4926C16.0722 24.6045 16.1174 24.6919 16.1757 24.7793C16.4121 25.1289 16.4442 25.7915 16.2443 26.1446C16.2137 26.1988 16.1699 26.2513 16.1218 26.2775C15.8358 26.4261 15.5732 26.6498 15.2434 26.6621C15.1661 26.6656 15.0858 26.6865 15.0129 26.7162C14.651 26.8596 14.3023 27.0641 13.9039 27.0152C13.8529 27.0082 13.796 27.0502 13.7449 27.0781C13.599 27.1585 13.44 27.197 13.2853 27.1987C12.9162 27.204 12.5834 27.3753 12.2362 27.4837C11.8802 27.5956 11.5548 27.8456 11.1667 27.8088C11.104 27.8036 11.0397 27.8543 10.9741 27.8718C10.6939 27.947 10.4722 28.162 10.2242 28.3158C9.81416 28.5693 9.38661 28.7826 8.98536 29.0535C8.73439 29.2214 8.41045 29.3018 8.3054 29.7056C8.28789 29.7721 8.21493 29.8245 8.15949 29.8699C7.68383 30.2703 7.37304 30.8122 7.20816 31.4765C7.13958 31.7492 6.99221 31.9905 6.95282 32.2632C6.87549 32.7859 6.8157 33.3138 6.73545 33.8365C6.70481 34.0323 6.70769 34.2439 6.73103 34.4414C6.79086 34.9361 6.7121 35.4309 6.76316 35.9308C6.83174 36.6144 6.70478 37.3259 6.95574 37.9884C6.96449 38.0112 6.96888 38.0409 6.96742 38.0671C6.95137 38.4902 7.1031 38.8817 7.13228 39.2978C7.14396 39.4709 7.25339 39.616 7.24172 39.803C7.1994 40.4236 7.44453 40.9795 7.53938 41.5687C7.56418 41.7225 7.60796 41.8728 7.61525 42.0354C7.63276 42.42 7.61527 42.8011 7.77577 43.1717C7.92167 43.5039 8.03112 43.9042 7.97568 44.2643C7.89689 44.7748 8.17997 45.2048 8.10264 45.6943C8.30691 46.0737 8.3419 46.4985 8.33461 46.9338C8.33461 46.9862 8.34777 47.0422 8.36382 47.0911C8.47471 47.4338 8.482 47.8061 8.57392 48.1522C8.6104 48.2851 8.59869 48.4197 8.57242 48.5526C8.50968 48.869 8.43527 49.1872 8.64246 49.4774C8.66143 49.5036 8.66725 49.556 8.66433 49.5928C8.63077 50.0001 8.77525 50.3847 8.76941 50.7902C8.7665 50.9616 8.78839 51.1346 8.80881 51.3077C8.8628 51.7867 8.96198 52.2692 8.91967 52.7534C8.86714 53.3478 9.00141 53.9387 8.91532 54.5313C8.90949 54.568 8.92264 54.6135 8.93577 54.6484C9.02332 54.8792 9.00873 55.1222 9.01165 55.3652C9.01748 55.9019 8.94886 56.4386 9.07434 56.9735C9.12833 57.2043 9.10355 57.4577 9.0306 57.692C8.99704 57.7986 8.99706 57.9 9.01749 58.0084C9.10649 58.5119 9.1663 59.0171 9.03936 59.5258C9.0131 59.6307 9.03495 59.7391 9.04079 59.8475C9.07726 60.4488 8.98972 61.0485 9.00723 61.6498C9.01015 61.7268 8.9664 61.8054 8.95764 61.8841C8.8949 62.4033 8.7636 62.905 8.72275 63.433C8.68335 63.9364 8.60014 64.4329 8.5695 64.9434C8.52573 65.6601 8.20035 66.3192 8.20473 67.0587C8.20473 67.1338 8.1668 67.2142 8.1347 67.2859C7.92167 67.7632 7.8356 68.2719 7.8604 68.8103C7.87937 69.2334 7.71744 69.6022 7.56424 69.9536C7.47961 70.1494 7.40516 70.326 7.38036 70.5445C7.35118 70.812 7.31177 71.0794 7.19213 71.3172C7.00391 71.693 6.92076 72.1144 6.85365 72.5374C6.8055 72.8311 6.78507 73.1248 6.60415 73.359C6.55016 73.429 6.51805 73.5216 6.51951 73.6195C6.52389 74.2576 6.2831 74.7873 6.01317 75.3065C5.8979 75.5285 5.92713 75.6282 6.09639 75.775C6.66689 76.2715 7.3278 76.5529 7.97126 76.8659C8.33166 77.0407 8.71395 77.184 9.11082 77.2347C9.20274 77.247 9.29324 77.2697 9.36181 77.3449C9.52232 77.5214 9.72222 77.5476 9.92358 77.5914C10.1118 77.6316 10.3015 77.6788 10.4795 77.7592C10.6517 77.8379 10.8326 77.899 11.0062 77.8798C11.2966 77.8501 11.5607 77.9637 11.8321 78.0319C11.9882 78.0721 12.1355 78.0948 12.296 78.0826C12.4507 78.0704 12.6112 78.1001 12.763 78.1438C13.2882 78.2941 13.8106 78.4602 14.3592 78.4235C14.7955 78.3938 15.2288 78.5861 15.6695 78.4497C15.7876 78.413 15.916 78.4392 16.0284 78.5214C16.1583 78.614 16.3056 78.6473 16.4515 78.628C16.8411 78.5808 17.238 78.7189 17.6217 78.5424C17.6786 78.5161 17.7574 78.5371 17.8201 78.5616C18.0988 78.6735 18.3804 78.6158 18.6548 78.5616C18.8707 78.5179 19.0764 78.5354 19.2909 78.5528C19.6455 78.5826 20.0117 78.5476 20.3487 78.4707C20.6391 78.4043 20.893 78.4165 21.1673 78.4847C21.4241 78.5493 21.694 78.5721 21.9377 78.4794C22.2412 78.3641 22.5505 78.3273 22.8569 78.2574C23.1954 78.1805 23.5544 78.1438 23.8564 77.9235C24.1234 77.7295 24.4254 77.5966 24.6385 77.3029C24.6881 77.2347 24.7654 77.1753 24.8369 77.1596C25.031 77.1159 25.0426 76.9603 25.0485 76.7697C25.0601 76.3921 25.066 76.0128 25.1156 75.6421C25.2308 74.7611 25.209 73.8678 25.2965 72.9832C25.3637 72.2997 25.4001 71.6126 25.5577 70.9466C25.6 70.7648 25.6263 70.5742 25.6059 70.3854C25.5607 69.9763 25.6029 69.5778 25.6949 69.1827C25.7562 68.9205 25.7882 68.6565 25.7868 68.382C25.7839 67.6321 25.6993 66.8751 25.9065 66.1391C25.9167 66.1024 25.9152 66.0587 25.9181 66.0185C25.9604 65.1322 26.0976 64.2581 26.1647 63.3735C26.1837 63.1078 26.1632 62.8351 26.2099 62.5781C26.2916 62.1358 26.3325 61.69 26.3894 61.246C26.4623 60.6779 26.4711 60.1027 26.5382 59.5346C26.5674 59.2881 26.636 59.0311 26.6039 58.7811C26.5557 58.4105 26.6287 58.0591 26.6783 57.706C26.7498 57.2025 26.8359 56.7025 26.8782 56.1921C26.9146 55.762 26.8986 55.325 26.9657 54.9054C27.0431 54.4299 26.9964 53.9369 27.1335 53.4737C27.1583 53.3898 27.1438 53.2849 27.1292 53.1922C27.1014 53.0122 27.1218 52.8443 27.1788 52.6765C27.2692 52.4055 27.2984 52.1311 27.1992 51.8496C27.1686 51.7622 27.1685 51.6661 27.1846 51.5699C27.2517 51.1486 27.1889 50.7186 27.2283 50.2972C27.2604 49.9494 27.1248 49.605 27.2444 49.2588C27.2663 49.1924 27.2371 49.0998 27.2283 49.0211C27.1802 48.598 27.0343 48.1872 27.1306 47.7449C27.1466 47.675 27.1248 47.5719 27.0883 47.5124C26.9482 47.2852 26.9745 47.0229 26.9643 46.773C26.9395 46.2258 26.7805 45.7048 26.7761 45.1524C26.7732 44.794 26.6302 44.4357 26.6419 44.0808C26.6594 43.5581 26.5528 43.0616 26.4813 42.5669C26.4055 42.0547 26.3894 41.525 26.2435 41.0267C26.2186 40.9428 26.2274 40.8397 26.2333 40.747C26.261 40.2698 26.1443 39.8118 26.1107 39.3433C26.0991 39.1912 26.0086 39.1405 25.8889 39.1877C25.8364 39.2087 25.7766 39.2349 25.7401 39.2803C25.4454 39.6562 25.0543 39.8118 24.6618 39.9638C24.6516 39.9673 24.6429 39.9796 24.6327 39.9848C24.3525 40.1107 24.1016 40.3519 23.7733 40.289C23.7076 40.2768 23.6331 40.2977 23.5835 40.3589C23.4508 40.5233 23.283 40.5075 23.1122 40.5198C22.6278 40.553 22.1376 40.6072 21.6824 40.7942C21.1921 40.997 20.7062 41.0652 20.197 41.032C19.9723 41.018 19.7462 41.0285 19.5229 41.0512C19.4004 41.0634 19.2793 41.1281 19.1553 41.1037C18.595 40.997 18.0347 40.9935 17.4715 41.0722C17.0965 41.1246 16.7346 40.9638 16.3698 40.9481C15.9073 40.9271 15.4608 40.7348 14.9953 40.7855C14.953 40.7907 14.9092 40.7593 14.8655 40.7435C14.3883 40.5652 13.8879 40.5023 13.4239 40.2488C13.2284 40.1422 12.9847 40.1561 12.7833 40.0233C12.7177 39.9796 12.6316 39.9708 12.5543 39.9638C12.3602 39.9464 12.1793 39.8799 11.9999 39.7925C11.3652 39.4866 10.745 39.1387 10.1001 38.8608C9.39246 38.5566 8.74897 38.0811 8.0559 37.7314C7.9523 37.679 7.84726 37.6318 7.74221 37.5846C7.69114 37.5619 7.63861 37.5059 7.66049 37.429C7.6853 37.3381 7.74949 37.3608 7.79764 37.3941C7.89977 37.4622 8.01066 37.4745 8.12301 37.4954C8.71249 37.6056 9.30343 37.7349 9.85205 38.0146C10.7158 38.4534 11.6073 38.7699 12.512 39.0391C12.5557 39.0513 12.6039 39.0565 12.6404 39.0845C12.9263 39.2978 13.2663 39.352 13.5757 39.3957C14.2658 39.4936 14.9516 39.6317 15.6476 39.6876C16.2998 39.7401 16.9505 39.824 17.6028 39.7034C17.6567 39.6929 17.7151 39.7034 17.7705 39.7156C18.2302 39.8153 18.6912 39.7628 19.1508 39.7261C19.8672 39.6684 20.5559 39.3415 21.2855 39.4062C21.3161 39.4097 21.3482 39.3817 21.3818 39.3695C21.875 39.2034 22.3944 39.1579 22.8642 38.887C22.8745 38.8817 22.8861 38.8835 22.8978 38.88C23.6346 38.6912 24.3613 38.4709 24.9887 37.936C25.0879 37.8503 25.2134 37.8119 25.2864 37.6773C25.3885 37.492 25.5198 37.3556 25.7124 37.3084C25.8554 37.2734 25.9196 37.1528 25.8919 36.978C25.8043 36.4116 25.8525 35.8329 25.7343 35.2613C25.6438 34.8242 25.6774 34.354 25.5854 33.9047C25.4935 33.4537 25.6234 32.966 25.4483 32.5202C25.4308 32.4747 25.4454 32.4118 25.4381 32.3593C25.3651 31.8733 25.3184 31.3769 24.9653 31.029C24.8705 30.9363 24.799 30.7947 24.7859 30.6461C24.7611 30.3734 24.6123 30.1986 24.4474 30.0692C24.2694 29.9276 24.1424 29.7441 24.0446 29.536C23.8812 29.1899 23.5982 28.9661 23.4304 28.6287C23.3764 28.5204 23.2713 28.4749 23.175 28.4417C22.9649 28.3665 22.7855 28.2529 22.6425 28.0396C22.5608 27.9172 22.4236 27.8333 22.2908 27.8123C21.8764 27.7494 21.4883 27.5519 21.0754 27.4872C20.7529 27.4365 20.5341 27.1743 20.2875 26.9645C20.2014 26.8911 20.1868 26.7582 20.1766 26.6358C20.1606 26.447 20.1664 26.2582 20.2087 26.0729C20.2845 25.746 20.3225 25.4121 20.2992 25.1394V25.1272ZM20.3794 90.103C20.5778 90.117 20.7121 90.1065 20.8346 90.0243C20.9572 89.9421 21.09 89.9299 21.2271 89.9247C21.4737 89.9159 21.7276 89.9264 21.8925 89.638C21.9144 89.5995 21.9698 89.5768 22.0121 89.5698C22.282 89.5173 22.5082 89.3163 22.7767 89.2534C22.9241 89.2184 22.9912 89.1065 23.0233 88.9195C23.086 88.5524 23.1458 88.1765 23.4085 87.909C23.461 87.8548 23.4785 87.743 23.5019 87.6538C23.712 86.8724 23.922 86.0892 24.1307 85.3078C24.1891 85.0892 24.2475 84.869 24.2081 84.633C24.1774 84.4529 24.2022 84.2798 24.2752 84.1225C24.4546 83.7362 24.4678 83.3271 24.4123 82.904C24.3875 82.7152 24.3919 82.5299 24.4794 82.3551C24.6312 82.0527 24.6385 81.7153 24.6429 81.3761C24.6472 80.9601 24.6487 80.544 24.7479 80.1367C24.7858 79.9811 24.799 79.8203 24.8719 79.6787C24.8967 79.6315 24.8953 79.572 24.8632 79.5283C24.8136 79.4619 24.761 79.5038 24.7114 79.5353C24.7012 79.5423 24.6895 79.5475 24.6837 79.558C24.4896 79.8395 24.1686 79.8832 23.9483 80.1192C23.852 80.2224 23.7222 80.2451 23.5967 80.2293C22.9562 80.1524 22.3317 80.3954 21.6882 80.3447C21.2651 80.3115 20.8346 80.3727 20.41 80.4076C19.9854 80.4444 19.5565 80.3849 19.1377 80.5388C18.9962 80.5912 18.8211 80.6664 18.6737 80.5825C18.2039 80.308 17.6991 80.502 17.2161 80.4111C17.0629 80.3832 16.9155 80.3832 16.7638 80.301C16.5216 80.1699 16.275 80.0737 15.9846 80.1664C15.8081 80.2241 15.5688 80.2678 15.4054 80.0755C15.277 79.9217 15.1281 79.9234 14.972 79.9042C14.5941 79.8622 14.2104 79.8587 13.8456 79.6979C13.7624 79.6612 13.6691 79.6507 13.5801 79.6507C13.1292 79.6507 12.7002 79.4339 12.2449 79.4776C12.1705 79.4846 12.0932 79.4322 12.0159 79.4147C11.6292 79.3238 11.2542 79.2014 10.8822 79.0388C10.2927 78.7819 9.66527 78.6717 9.07142 78.4217C8.60597 78.2259 8.12891 78.0616 7.71015 77.7382C7.58759 77.6438 7.48396 77.5109 7.35556 77.434C6.86677 77.1403 6.4013 76.7994 5.94898 76.4306C5.77243 76.2872 5.73599 76.3135 5.58278 76.5075C5.34203 76.8117 5.27928 77.1858 5.2428 77.5791C5.22821 77.7382 5.22824 77.9095 5.12026 78.0301C4.90724 78.2714 4.81671 78.6263 4.5818 78.85C4.503 78.927 4.47674 79.0546 4.43881 79.1682C4.2856 79.6315 4.12953 80.0877 3.86835 80.4916C3.73266 80.7014 3.59838 80.9181 3.46853 81.1384C3.37514 81.2957 3.35325 81.5037 3.2409 81.6296C3.05705 81.8359 2.93594 82.0999 2.79733 82.3359C2.66309 82.5631 2.453 82.7397 2.38005 83.0002C2.26624 83.4005 2.04735 83.7309 1.91603 84.1138C1.64318 84.9092 1.52067 85.7098 1.92921 86.5035C1.9584 86.5612 1.97879 86.6259 2.00067 86.6871C2.15388 87.1119 2.26625 87.5716 2.67771 87.7709C2.74191 87.8024 2.7769 87.9125 2.83089 87.9825C2.90676 88.0821 2.97101 88.2202 3.06585 88.2674C3.53276 88.4912 3.92817 88.8915 4.41259 89.0628C4.68982 89.1607 4.98018 89.1799 5.25741 89.3093C5.41937 89.3845 5.59152 89.4334 5.75056 89.5331C5.91106 89.6345 6.10221 89.7184 6.26709 89.6834C6.60997 89.61 6.8843 89.7743 7.16007 89.9492C7.28117 90.0261 7.38621 90.068 7.50147 89.9614C7.75827 89.7219 8.04572 89.8128 8.30982 89.8949C8.60747 89.9876 8.89931 90.0488 9.2028 89.9946C9.26991 89.9824 9.33993 89.9596 9.40121 90.0016C9.56901 90.1187 9.74408 90.1187 9.925 90.0628C10.0184 90.0348 10.1016 90.0593 10.1848 90.1082C10.4489 90.2655 10.7188 90.311 10.9945 90.1449C11.066 90.1012 11.1448 90.0645 11.2222 90.1065C11.4469 90.2289 11.6671 90.1572 11.8831 90.0872C12.0232 90.04 12.1443 90.0453 12.2669 90.1467C12.3836 90.2411 12.5309 90.2865 12.655 90.2218C12.9541 90.068 13.2532 90.1292 13.5523 90.1764C13.7989 90.2149 14.0382 90.2306 14.2862 90.1869C14.4803 90.1537 14.6918 90.0523 14.8801 90.2079C15.1106 90.4002 15.3499 90.3355 15.5921 90.2743C15.7249 90.2411 15.8548 90.1974 15.9846 90.1519C16.062 90.1257 16.1422 90.0925 16.2166 90.1362C16.704 90.4159 17.2146 90.0208 17.7034 90.2201C18.0945 90.0855 18.4782 90.1747 18.8605 90.2761C18.9656 90.304 19.059 90.29 19.1553 90.2393C19.2267 90.2026 19.307 90.1449 19.377 90.1537C19.736 90.2061 20.0832 89.9596 20.3823 90.1082L20.3794 90.103Z" fill="#FF4D00"/>
</svg>
