<svg width="28" height="95" viewBox="0 0 28 95" fill="none" xmlns="http://www.w3.org/2000/svg">
<path d="M21.4369 89.9772C20.9331 90.0132 20.5121 89.9663 20.091 89.9916C19.7451 90.0114 19.4203 89.8132 19.1075 89.6618C18.5947 89.4132 18.0909 89.1375 17.5645 88.9321C17.5119 88.9123 17.4623 88.8781 17.4172 88.8403C17.0352 88.5087 16.5991 88.4114 16.1389 88.3502C15.5434 88.2709 14.9524 88.1285 14.3599 88.0096C14.2832 87.9952 14.2095 87.9538 14.1313 87.9736C13.8321 88.0457 13.5343 88.0421 13.2366 87.9502C13.187 87.934 13.1193 87.9394 13.0742 87.9664C12.8366 88.1123 12.5704 88.1195 12.3223 88.1286C11.9914 88.1412 11.6666 88.2042 11.3764 88.343C11.0621 88.4943 10.7658 88.6655 10.426 88.7394C10.2515 88.7772 10.0891 88.9339 9.89964 88.9718C9.81693 88.9898 9.76429 89.0601 9.70865 89.1267C9.6515 89.1934 9.58984 89.2655 9.51164 89.2691C9.20035 89.2835 8.98225 89.5285 8.74615 89.7141C8.43937 89.9555 8.11912 90.1681 7.80031 90.3862C7.72061 90.442 7.63633 90.4636 7.54611 90.469C7.16714 90.4925 6.78973 90.4907 6.42882 90.3141C6.21227 90.2078 5.99416 90.1069 5.7731 90.0132C5.5776 89.9303 5.40169 89.8294 5.31447 89.5826C5.29792 89.5357 5.26788 89.4781 5.23179 89.4601C4.96411 89.3285 4.87839 89.033 4.77763 88.7538C4.69642 88.5303 4.56858 88.343 4.45579 88.1448C4.36556 87.9844 4.30844 87.815 4.2919 87.6259C4.24528 87.125 4.15501 86.6277 4.20614 86.116C4.2302 85.8764 4.23922 85.6385 4.31591 85.4115C4.40163 85.1611 4.44379 84.9016 4.41071 84.6296C4.39116 84.4692 4.42424 84.3107 4.44529 84.1521C4.49492 83.7701 4.56258 83.39 4.54905 82.999C4.54153 82.7954 4.58064 82.599 4.63929 82.4116C4.70245 82.208 4.74906 82.0008 4.74606 81.7864C4.74004 81.4098 4.91746 81.1864 5.17011 81.0423C5.33252 80.9486 5.48587 80.8441 5.62573 80.7125C5.90544 80.4531 6.21673 80.3918 6.56561 80.4026C6.98368 80.4153 7.40025 80.4837 7.82433 80.39C8.04238 80.3414 8.30409 80.3738 8.51162 80.5018C8.83343 80.6999 9.18231 80.6657 9.51766 80.7396C9.65902 80.7702 9.80339 80.772 9.94024 80.8405C10.0004 80.8711 10.086 80.9035 10.1342 80.8729C10.3627 80.7324 10.5357 80.8891 10.7267 80.99C10.9989 81.1324 11.2876 81.1468 11.5778 81.1053C11.644 81.0963 11.7207 81.0369 11.7704 81.0621C12.2982 81.3179 12.8215 81.0675 13.3448 81.0513C13.4892 81.0477 13.6321 81.0351 13.778 81.0585C13.9569 81.0891 14.1344 81.0783 14.3043 80.99C14.4622 80.9053 14.6366 80.8747 14.796 80.9216C15.1208 81.0188 15.4081 80.8639 15.7043 80.7684C15.8562 80.7198 16.0051 80.6747 16.163 80.6729C16.4337 80.6693 16.6924 80.6297 16.927 80.4369C17.1119 80.2855 17.342 80.2945 17.545 80.3324C17.9631 80.4099 18.3706 80.3288 18.7586 80.2009C19.1075 80.0855 19.4353 80.0747 19.7752 80.163C19.8895 80.1919 19.9782 80.1882 20.0864 80.1072C20.2759 79.9648 20.4895 79.963 20.688 80.1036C20.9361 80.2801 21.1902 80.3054 21.4564 80.1756C21.5391 80.1342 21.6279 80.0892 21.7151 80.1234C22.0369 80.2495 22.3767 80.1828 22.7031 80.2621C22.7362 80.2693 22.7783 80.2621 22.8009 80.2855C23.1618 80.6549 23.6535 80.7288 24.0235 81.0783C24.1708 81.217 24.2611 81.4062 24.3182 81.6026C24.3934 81.8657 24.4866 82.1197 24.5422 82.3954C24.6009 82.6855 24.7378 82.9521 24.8325 83.2332C25.031 83.8134 25.0761 84.3827 24.9588 84.9845C24.9498 85.035 24.9423 85.0944 24.9543 85.1413C25.1212 85.7953 24.9588 86.4637 25.0084 87.1232C25.0175 87.2475 24.9618 87.3826 24.9288 87.5088C24.8491 87.8115 24.7107 88.0817 24.6475 88.397C24.5934 88.6691 24.3167 88.7664 24.1693 88.9826C24.0189 89.2042 23.8144 89.3321 23.5738 89.3952C23.3798 89.4456 23.1903 89.5303 23.0249 89.6799C22.9452 89.7519 22.855 89.815 22.7512 89.8204C22.2836 89.8438 21.8324 90.0546 21.4414 89.9754L21.4369 89.9772Z" fill="#FF4D00"/>
<path d="M8.24086 41.8525C8.3762 41.8705 8.50702 41.8417 8.63936 41.8183C8.71605 41.8057 8.80328 41.7714 8.87095 41.8003C9.18675 41.939 9.51159 41.8129 9.8289 41.8579C10.247 41.9174 10.6485 41.8057 11.05 41.6849C11.5463 41.5354 11.8651 41.1264 12.1343 40.6435C12.2019 40.521 12.2004 40.3661 12.2064 40.2165C12.217 40.0057 12.238 39.8057 12.3673 39.6237C12.5102 39.4238 12.4907 39.1427 12.4967 38.894C12.5072 38.422 12.6049 37.9715 12.6741 37.5121C12.7403 37.0653 12.838 36.6112 12.7493 36.1446C12.6846 35.7968 12.7448 35.4437 12.811 35.114C12.8771 34.7752 12.8636 34.4527 12.8275 34.1248C12.7704 33.5969 12.9057 33.0924 12.9493 32.5771C12.9629 32.4167 13.0741 32.2924 13.1899 32.2077C13.4546 32.0095 13.7193 31.8132 13.9915 31.6294C14.2441 31.46 14.5163 31.4168 14.796 31.5321C14.9133 31.5807 15.0336 31.5807 15.1584 31.5753C15.587 31.5501 15.9795 31.6492 16.2698 32.0708C16.2908 32.1014 16.3148 32.1357 16.3434 32.1501C16.9946 32.4402 17.3074 33.1374 17.6984 33.7464C17.8833 34.0347 18.0337 34.323 18.0668 34.6995C18.0983 35.0581 18.2743 35.3716 18.339 35.7266C18.3751 35.9211 18.4338 36.1085 18.4277 36.3121C18.4277 36.3518 18.4202 36.4022 18.4368 36.431C18.6458 36.795 18.6578 37.231 18.7495 37.6364C18.8623 38.1355 19.0037 38.6238 19.0623 39.1391C19.0713 39.2183 19.0804 39.3066 19.115 39.3697C19.3856 39.8634 19.4217 40.4453 19.5541 40.9895C19.5691 41.0525 19.5707 41.1282 19.6022 41.1787C19.8504 41.5678 19.8353 42.0579 19.9526 42.4975C19.9781 42.5984 19.9721 42.7119 20.0338 42.7966C20.1435 42.948 20.1902 43.1155 20.1526 43.3155C20.1436 43.3642 20.1376 43.4344 20.1601 43.4705C20.4008 43.8669 20.3842 44.3966 20.6353 44.7876C20.6609 44.829 20.7 44.8975 20.6879 44.9281C20.5451 45.3047 20.7511 45.6056 20.8308 45.9317C20.9542 46.4416 20.9872 46.91 20.7917 47.4397C20.509 48.2037 19.9917 48.4541 19.3902 48.6073C19.2924 48.6307 19.1916 48.6433 19.0999 48.6919C19.0277 48.7298 18.9525 48.7766 18.8743 48.7532C18.5585 48.6595 18.2563 48.7856 17.9495 48.8235C17.8833 48.8307 17.8112 48.8595 17.751 48.8379C17.3555 48.6974 16.978 48.8361 16.5991 48.9388C16.375 49 16.1419 48.9676 15.9449 48.8919C15.5659 48.746 15.175 48.7748 14.793 48.6901C14.6727 48.6631 14.5449 48.6739 14.4306 48.6289C13.8862 48.4127 13.3073 48.4902 12.7569 48.3352C12.7132 48.3226 12.6651 48.3352 12.6245 48.3154C11.9778 48.0145 11.2936 48.0992 10.6244 48.0325C10.3567 48.0055 10.0951 48.0181 9.82743 48.0523C9.60938 48.0794 9.38074 48.0776 9.16569 47.9839C9.02283 47.9208 8.86649 47.9154 8.73716 47.9623C8.45294 48.0632 8.19122 48.0037 7.92203 47.9118C7.77316 47.8595 7.61532 47.8595 7.45892 47.8433C6.96868 47.7947 6.4844 47.7046 6.0919 47.2938C6.0528 47.2523 5.99566 47.2163 5.94453 47.2109C5.6573 47.1731 5.4889 46.9695 5.3701 46.6722C5.20318 46.2542 5.02569 45.8416 4.84824 45.4272C4.71591 45.1173 4.77005 44.7912 4.81366 44.4831C4.91141 43.8056 5.1836 43.2363 5.64076 42.8056C5.737 42.7138 5.83177 42.6182 5.96861 42.6345C6.02576 42.6399 6.08288 42.6273 6.12649 42.5822C6.45582 42.2255 6.89948 42.2687 7.28746 42.1228C7.46341 42.0561 7.65139 42.0381 7.81982 41.921C7.94915 41.8291 8.10101 41.8579 8.24688 41.8615L8.24086 41.8525Z" fill="#FF4D00"/>
<path d="M0.714323 88.015C0.745903 87.588 0.694788 87.1592 0.766971 86.7357C0.772987 86.6979 0.777498 86.6511 0.766971 86.6168C0.574483 86.0312 0.693255 85.4277 0.736866 84.8421C0.774461 84.334 0.748881 83.8331 0.759408 83.3286C0.762416 83.1953 0.759396 83.0584 0.784961 82.9305C0.968427 81.9629 0.981967 80.9773 1.01655 79.9918C1.0346 79.4999 1.03913 79.008 1.03763 78.5162C1.03763 78.2477 1.10531 77.9918 1.12486 77.7252C1.18652 76.8604 1.09931 75.9955 1.17149 75.1325C1.18352 74.9991 1.18503 74.8514 1.25571 74.7505C1.39707 74.5487 1.39405 74.3487 1.31585 74.1181C1.24667 73.9145 1.25269 73.6965 1.31585 73.4893C1.40758 73.1902 1.39857 72.8893 1.36248 72.5812C1.32789 72.2875 1.33987 71.9974 1.46469 71.7271C1.49025 71.6713 1.52034 71.5974 1.51132 71.5398C1.45718 71.156 1.56851 70.7686 1.48128 70.3849C1.4497 70.2461 1.45268 70.093 1.45118 69.947C1.44967 69.5993 1.43162 69.2498 1.44215 68.9074C1.45869 68.457 1.4963 68.0101 1.46021 67.5597C1.4557 67.5075 1.46019 67.4516 1.47372 67.4011C1.65267 66.6931 1.62865 65.9796 1.50684 65.2643C1.45571 64.9598 1.45415 64.6553 1.49024 64.3472C1.52934 64.0067 1.50683 63.6643 1.61661 63.3274C1.69331 63.0914 1.58053 62.8265 1.51286 62.5905C1.44067 62.3328 1.42559 62.0842 1.42709 61.8103C1.4316 61.241 1.48878 60.6644 1.379 60.0969C1.36396 60.0194 1.35191 59.9347 1.36093 59.859C1.46169 59.0843 1.25718 58.3221 1.29779 57.5582C1.33087 56.9654 1.19852 56.3997 1.21055 55.8105C1.22108 55.315 1.25116 54.7943 1.13536 54.2988C1.10228 54.1547 1.09932 54.0015 1.14594 53.8628C1.23165 53.6088 1.20005 53.3655 1.12185 53.1223C1.06471 52.9439 1.04818 52.7547 1.06773 52.5691C1.10533 52.2106 1.16393 51.8575 1.08874 51.4953C1.07821 51.4485 1.08274 51.3746 1.1068 51.3404C1.28425 51.0917 1.21354 50.8142 1.18647 50.5386C1.16241 50.3007 1.12788 50.0593 1.2527 49.8395C1.32639 49.7098 1.27675 49.5782 1.23765 49.4557C1.12336 49.0936 1.07821 48.735 1.24213 48.3711C1.28423 48.2774 1.28878 48.1657 1.27524 48.0576C1.24066 47.7657 1.20451 47.4738 1.29925 47.1873C1.30677 47.1639 1.30527 47.1333 1.30227 47.1081C1.20301 46.3495 1.39851 45.6126 1.41806 44.8631C1.43912 44.1171 1.66322 43.4108 1.67976 42.6577C1.68878 42.2613 1.85572 41.8668 1.95798 41.4758C1.98505 41.3749 2.04214 41.2884 2.05116 41.1785C2.12034 40.2902 2.30833 39.4272 2.44217 38.5533C2.4918 38.2254 2.55199 37.9011 2.60312 37.575C2.64974 37.2741 2.68879 36.966 2.8497 36.7101C2.90534 36.6218 2.92042 36.5156 2.93245 36.4093C2.97606 36.0417 3.10238 35.694 3.12043 35.3192C3.12193 35.2795 3.13094 35.2381 3.14598 35.2039C3.49938 34.4327 3.69487 33.5769 4.08286 32.8184C4.32497 32.3463 4.59869 31.8905 4.78667 31.377C4.82577 31.2689 4.88591 31.1571 4.9626 31.0887C5.32653 30.7608 5.5611 30.3103 5.80923 29.8689C5.94007 29.6365 6.07694 29.4112 6.28446 29.2599C6.43184 29.1536 6.52207 28.9788 6.58523 28.7896C6.72057 28.3752 6.9401 28.0203 7.15966 27.669C7.20778 27.5915 7.26946 27.5194 7.25893 27.4239C7.20479 26.9645 7.45439 26.6167 7.56116 26.2167C7.66944 25.8131 7.82437 25.4294 7.86046 24.997C7.8785 24.7843 8.00483 24.6096 8.09506 24.4258C8.35673 23.8925 8.50709 23.3087 8.60635 22.7069C8.6274 22.5772 8.61383 22.4295 8.68602 22.3232C8.94467 21.9448 9.0274 21.4926 9.07702 21.0259C9.09808 20.8259 9.13571 20.6403 9.22895 20.462C9.29662 20.3322 9.3342 20.1575 9.32969 20.0043C9.32067 19.6818 9.41538 19.3701 9.37477 19.0476C9.36124 18.9395 9.37782 18.8278 9.4485 18.7503C9.58234 18.6026 9.62891 18.4206 9.62891 18.2116C9.62891 18.1035 9.65297 17.9972 9.7041 17.9071C9.79583 17.7467 9.83196 17.5629 9.84699 17.3774C9.89211 16.808 10.038 16.2531 9.99436 15.6711C9.97632 15.4297 10.0666 15.1972 10.1252 14.9702C10.1854 14.736 10.2139 14.5036 10.2184 14.2621C10.2199 14.1558 10.2199 14.0423 10.2485 13.945C10.3553 13.5829 10.3718 13.2171 10.3177 12.8424C10.3026 12.736 10.3012 12.6243 10.3508 12.5307C10.5643 12.1325 10.4876 11.6766 10.5297 11.246C10.5448 11.1019 10.5388 10.9541 10.5733 10.8118C10.5854 10.7613 10.6184 10.7055 10.6094 10.6586C10.5237 10.2136 10.6666 9.78838 10.6906 9.35236C10.7297 8.63887 10.7087 7.92177 10.7959 7.20647C10.8591 6.68576 10.8094 6.14344 10.7523 5.61373C10.7418 5.52004 10.7222 5.42994 10.7162 5.33625C10.7071 5.21193 10.7162 5.09483 10.8275 5.02996C10.9267 4.97231 11.0245 4.98132 11.1132 5.05158C11.1583 5.08762 11.2049 5.13447 11.2335 5.18852C11.429 5.55788 11.5749 5.93263 11.614 6.39388C11.6546 6.86774 11.653 7.3434 11.6906 7.81546C11.7252 8.23527 11.7839 8.64968 11.7418 9.0821C11.7132 9.37759 11.7959 9.68928 11.7268 9.99377C11.9147 10.7199 11.7764 11.4676 11.817 12.2045C11.8516 12.8423 11.7809 13.5018 11.6862 14.1486C11.62 14.5991 11.5644 15.0693 11.6636 15.536C11.7147 15.7756 11.6876 16.0134 11.5869 16.2332C11.4936 16.4368 11.438 16.6621 11.453 16.8873C11.4846 17.3521 11.3839 17.79 11.2877 18.2278C11.2155 18.5539 11.1749 18.8728 11.229 19.2151C11.2801 19.5359 11.2455 19.8584 11.041 20.1142C10.9418 20.2385 10.9102 20.3899 10.9147 20.5556C10.9298 21.0565 10.7793 21.5286 10.7387 22.0205C10.7297 22.1232 10.7056 22.2475 10.65 22.3178C10.3853 22.6637 10.3492 23.1105 10.256 23.5303C10.2244 23.6727 10.2124 23.8294 10.0891 23.9051C9.94171 23.9952 9.89964 24.1537 9.86506 24.3267C9.8034 24.633 9.78532 24.9663 9.49358 25.1285C9.44396 25.1555 9.41089 25.2582 9.39585 25.3321C9.32818 25.6798 9.15976 25.9627 8.99434 26.2456C8.90411 26.4005 8.8229 26.5591 8.76576 26.7338C8.65899 27.0618 8.5041 27.3555 8.32064 27.6239C8.05897 28.0041 7.8755 28.4383 7.67248 28.8599C7.47548 29.2689 7.23638 29.6599 6.88599 29.9157C6.80779 29.9734 6.74613 30.0437 6.69801 30.1374C6.4183 30.6707 6.06792 31.1319 5.69498 31.5733C5.63031 31.6508 5.58215 31.7337 5.54004 31.8292C5.37011 32.231 5.22274 32.6508 5.01672 33.0256C4.80318 33.4165 4.65584 33.8472 4.44831 34.2381C4.30845 34.4994 4.26635 34.8111 4.18815 35.0994C4.06183 35.5642 3.83471 35.9984 3.84223 36.5119C3.84223 36.575 3.8212 36.6471 3.79112 36.7011C3.55503 37.1155 3.552 37.6056 3.47531 38.0705C3.45576 38.1876 3.44825 38.3119 3.40915 38.4218C3.25426 38.8614 3.21663 39.3389 3.11588 39.7947C3.06625 40.0199 3.09032 40.2686 2.97152 40.4776C2.95347 40.5082 2.94744 40.5569 2.95345 40.5929C3.04368 41.1046 2.83769 41.555 2.761 42.0343C2.6843 42.5136 2.64066 43.0018 2.58352 43.4847C2.5775 43.537 2.5881 43.5946 2.57456 43.6451C2.36102 44.4649 2.48877 45.3027 2.46471 46.1333C2.45118 46.6072 2.5249 47.0846 2.42565 47.5585C2.38655 47.7477 2.41364 47.9567 2.41214 48.1567C2.41214 48.5981 2.37749 48.6323 2.80608 48.735C3.11136 48.8089 3.41514 48.8918 3.72041 48.9674C3.96253 49.0287 4.19412 49.1116 4.40616 49.2702C4.49188 49.335 4.58213 49.3836 4.68739 49.3891C5.122 49.4107 5.51 49.5909 5.87392 49.8683C6.13709 50.0683 6.4514 50.0557 6.74765 50.1043C6.93713 50.135 7.11453 50.1962 7.298 50.2485C7.74463 50.38 8.18379 50.6197 8.66502 50.4611C8.71765 50.4431 8.78075 50.4359 8.83038 50.4557C9.42288 50.6683 10.0425 50.5368 10.6455 50.6575C10.9403 50.717 11.2425 50.6089 11.5388 50.5494C11.6816 50.5206 11.8215 50.4845 11.9689 50.4917C12.2365 50.5061 12.5027 50.5224 12.7658 50.4395C12.838 50.4161 12.9223 50.4251 12.999 50.4431C13.22 50.4917 13.4381 50.4845 13.6606 50.4323C14.1028 50.3296 14.5449 50.389 14.99 50.4521C15.2863 50.4935 15.5855 50.4737 15.8863 50.517C16.584 50.6197 17.2623 50.7926 17.9089 51.1277C18.1405 51.2485 18.3736 51.3746 18.6007 51.5079C18.8954 51.6791 19.0338 51.9674 19.1691 52.2611C19.4067 52.7728 19.4293 53.3511 19.4383 53.9259C19.4383 54.0196 19.4188 54.1204 19.4443 54.2033C19.6097 54.7475 19.6143 55.3276 19.6849 55.888C19.7872 56.7168 19.9616 57.5348 20.0082 58.3744C20.0113 58.414 20.0053 58.4645 20.0233 58.4915C20.2564 58.8771 20.1451 59.3455 20.2414 59.7635C20.27 59.8843 20.2594 60.0014 20.2444 60.1203C20.2279 60.241 20.2188 60.3743 20.282 60.4698C20.494 60.7941 20.479 61.1905 20.4609 61.5437C20.4233 62.2968 20.5887 63.0283 20.5631 63.776C20.5436 64.3652 20.5767 64.949 20.7361 65.5147C20.7571 65.5886 20.7662 65.6787 20.7527 65.7526C20.6715 66.1994 20.7887 66.657 20.694 67.1021C20.6744 67.194 20.6684 67.2985 20.7165 67.3741C20.885 67.6354 20.8203 67.9687 20.9196 68.2516C20.9391 68.3092 20.9361 68.3867 20.9271 68.4498C20.8744 68.7975 20.87 69.138 20.9782 69.475C21.0008 69.5434 20.9903 69.6353 20.9782 69.7128C20.9061 70.2443 20.9978 70.7812 20.9256 71.3128C20.9226 71.338 20.9211 71.3722 20.9316 71.392C21.1211 71.756 21.0008 72.1758 21.079 72.5596C21.0985 72.6605 21.1001 72.7812 21.0715 72.8767C20.9707 73.2064 20.9211 73.5631 20.9121 73.8947C20.894 74.482 20.7045 75.0045 20.5993 75.5559C20.5256 75.9396 20.3797 76.2514 20.1045 76.4712C20.0955 76.4784 20.0819 76.482 20.0774 76.4928C19.8503 76.9613 19.3977 77.163 19.1541 77.6117C19.0985 77.7144 19.0188 77.7882 18.936 77.8585C18.4699 78.2513 17.9661 78.5504 17.4217 78.754C17.3465 78.7828 17.2653 78.8098 17.1916 78.781C16.939 78.6801 16.6818 78.7774 16.4367 78.754C15.9374 78.7071 15.4667 78.8765 14.9825 78.9053C14.7299 78.9198 14.4742 78.9251 14.2186 78.9378C13.9629 78.9504 13.7103 78.981 13.4562 79.0333C13.1509 79.0963 12.8366 79.0423 12.5253 79.0657C12.0847 79.0999 11.641 79.0026 11.1974 79.1035C11.0275 79.1432 10.8365 79.1233 10.6665 79.0747C10.2695 78.963 9.8485 78.9756 9.47405 78.7468C9.44548 78.7288 9.40485 78.7162 9.37779 78.727C9.05296 78.8513 8.72662 78.7306 8.41984 78.6675C8.00478 78.5846 7.56119 78.6207 7.17772 78.4405C6.87395 78.2981 6.57014 78.3468 6.2769 78.2513C6.1987 78.2261 6.1205 78.2315 6.04832 78.2747C5.7265 78.4765 5.41976 78.3144 5.10997 78.2261C5.03478 78.2045 4.96561 78.1414 4.89042 78.1324C4.45883 78.0747 4.03627 77.9702 3.62422 77.8045C3.56257 77.7793 3.49335 77.7666 3.42868 77.7666C3.13393 77.7684 3.10537 77.8045 3.13695 78.1666C3.16703 78.518 3.16104 78.8603 3.01366 79.181C2.94599 79.3269 2.96248 79.4945 2.95646 79.6531C2.9324 80.2404 2.98656 80.8278 2.90235 81.4134C2.85874 81.7179 2.80161 82.017 2.73243 82.3106C2.68882 82.498 2.67377 82.6728 2.75196 82.8548C2.83167 83.0403 2.81214 83.2458 2.81063 83.4457C2.80763 83.8583 2.79409 84.2728 2.80461 84.6872C2.81364 85.0511 2.7745 85.3989 2.69329 85.7538C2.58803 86.206 2.55046 86.6745 2.68581 87.1339C2.74295 87.3267 2.70082 87.5087 2.66473 87.6853C2.56247 88.1934 2.63468 88.6618 2.8392 89.114C2.89634 89.242 2.89635 89.4113 2.96403 89.5248C3.27381 90.0365 3.537 90.6293 4.15357 90.696C4.3235 90.714 4.43473 90.8527 4.55654 90.9644C4.74903 91.141 4.94754 91.2095 5.19868 91.2275C5.47237 91.2473 5.7701 91.296 6.00169 91.5428C6.13854 91.6888 6.31754 91.7374 6.501 91.732C6.83635 91.7212 7.13712 91.8347 7.40931 92.0671C7.46195 92.1122 7.52961 92.168 7.58826 92.1662C8.01083 92.1608 8.41687 92.3158 8.83493 92.35C8.95223 92.359 9.04994 92.3788 9.14318 92.4671C9.28304 92.6005 9.43791 92.6041 9.61687 92.577C9.99733 92.5158 10.3733 92.4437 10.7688 92.4545C11.1598 92.4671 11.5358 92.4815 11.9117 92.6076C12.026 92.6455 12.1553 92.6347 12.2771 92.6293C12.4591 92.6203 12.6276 92.6293 12.7824 92.7752C12.9043 92.8887 13.0501 92.8815 13.196 92.8076C13.4892 92.6581 13.7765 92.6563 14.0547 92.8707C14.2682 93.0347 14.5253 93.0167 14.7614 93.0923C14.8501 93.1212 14.9359 93.0653 15.0141 93.0112C15.2412 92.8545 15.4742 92.8401 15.7164 92.9608C15.9043 93.0545 16.0923 93.0887 16.3014 93.0311C16.5645 92.9572 16.8337 93.0383 17.1029 93.0311C17.3089 93.0256 17.4924 92.9968 17.6608 92.8239C17.8518 92.6275 18.1029 92.6509 18.3315 92.6833C18.6217 92.7266 18.9089 92.6707 19.1977 92.6761C19.3721 92.6797 19.527 92.523 19.6819 92.4203C19.7842 92.3518 19.8804 92.3338 19.9992 92.3464C20.3075 92.3788 20.6083 92.3374 20.9196 92.2653C21.2865 92.1788 21.6203 91.9122 22.0038 91.959C22.4941 92.0185 22.9513 91.905 23.3964 91.6671C23.5137 91.6041 23.67 91.5626 23.7873 91.6023C24.1182 91.7104 24.3723 91.4888 24.6445 91.3644C24.8821 91.2563 25.1017 91.0924 25.3348 90.9626C25.6641 90.7789 25.8445 90.332 25.7859 89.896C25.7408 89.5645 25.6987 89.2384 25.7965 88.9069C25.825 88.8114 25.822 88.6943 25.8085 88.5898C25.7138 87.7808 25.7964 86.9682 25.7724 86.1574C25.7573 85.6331 25.7859 85.0925 25.9032 84.5736C25.9243 84.4781 25.9032 84.3899 25.9002 84.298C25.8852 83.889 25.8386 83.4746 25.9965 83.0836C26.0115 83.0494 26.022 83.0025 26.0145 82.9665C25.9062 82.4007 26.0506 81.8296 25.9754 81.2548C25.9047 80.7089 25.9468 80.1395 25.9348 79.5828C25.9258 79.1342 25.9528 78.6855 25.8882 78.2315C25.8145 77.7126 25.7513 77.1811 25.7573 76.6477C25.7573 76.5414 25.7499 76.4333 25.7333 76.3288C25.6311 75.6982 25.5905 75.0604 25.6115 74.4172C25.613 74.3523 25.6145 74.2803 25.5965 74.219C25.4205 73.6172 25.4746 72.9776 25.3739 72.3632C25.3348 72.129 25.4205 71.8965 25.3799 71.6497C25.3288 71.3236 25.3182 70.9902 25.2145 70.6749C25.1904 70.6047 25.1829 70.5146 25.1949 70.4389C25.2401 70.1272 25.222 69.8281 25.1047 69.5398C25.0806 69.4822 25.0746 69.4083 25.0776 69.3434C25.1363 68.439 24.8746 67.5759 24.8385 66.6913C24.8069 65.9075 24.6039 65.1364 24.7062 64.3436C24.5664 63.9634 24.5904 63.5544 24.5438 63.1562C24.5182 62.9364 24.4521 62.7256 24.4746 62.495C24.5107 62.1184 24.4475 61.7455 24.3888 61.3833C24.3257 61.0014 24.2776 60.6212 24.2791 60.232C24.2791 59.9581 24.2385 59.7005 24.1257 59.4608C24.058 59.3185 24.0039 59.1635 24.031 59.0014C24.0806 58.7131 24.019 58.4411 23.9573 58.1744C23.8866 57.8717 23.8686 57.5708 23.9137 57.2627C23.9513 57.0051 23.9437 56.7582 23.84 56.5222C23.7873 56.4033 23.7572 56.2736 23.7527 56.1384C23.7422 55.8718 23.7378 55.6033 23.622 55.3619C23.6054 55.3294 23.5979 55.2826 23.6009 55.2465C23.655 54.6321 23.4761 54.025 23.5633 53.4088C23.5723 53.3439 23.5859 53.2664 23.5663 53.2124C23.3723 52.6881 23.3964 52.1115 23.3122 51.5638C23.231 51.0485 23.1723 50.5115 23.1858 49.9782C23.1978 49.5188 23.0881 49.0828 22.9994 48.6449C22.8911 48.1116 22.7964 47.5855 22.8234 47.0288C22.8385 46.7135 22.8355 46.3873 22.7257 46.0828C22.6716 45.9333 22.646 45.7729 22.652 45.6126C22.6805 44.9892 22.6098 44.391 22.3647 43.8307C22.3166 43.7225 22.3151 43.6 22.3181 43.4775C22.3301 42.8001 22.2189 42.1532 21.9708 41.5424C21.861 41.2704 21.858 40.9713 21.8144 40.6866C21.7106 40.0128 21.4203 39.3857 21.4504 38.6777C21.4534 38.6146 21.4354 38.5443 21.4113 38.4849C21.1271 37.802 21.0113 37.0507 20.8068 36.3372C20.7963 36.2993 20.8007 36.2489 20.7827 36.2219C20.5105 35.8327 20.4955 35.3354 20.3948 34.876C20.3752 34.7841 20.3556 34.6868 20.294 34.6273C20.1376 34.476 20.0714 34.2598 19.9992 34.0526C19.8714 33.6832 19.7631 33.3102 19.5796 32.9679C19.4443 32.7156 19.4083 32.4039 19.3737 32.0922C19.3271 31.6742 19.2594 31.2274 18.9045 30.9734C18.7842 30.8887 18.7706 30.7283 18.7525 30.5878C18.7255 30.3734 18.691 30.1698 18.5902 29.9842C18.5556 29.9193 18.5255 29.8329 18.53 29.759C18.5571 29.2797 18.327 28.9212 18.1345 28.55C18.0488 28.3843 17.9841 28.2257 17.9841 28.0311C17.9841 27.8924 17.9585 27.7681 17.8788 27.6617C17.8503 27.6221 17.8277 27.5717 17.8187 27.5212C17.6623 26.6564 17.2818 25.8906 17.0547 25.0564C16.9675 24.7339 16.7645 24.4582 16.7435 24.0961C16.7344 23.9609 16.7119 23.8204 16.7676 23.7033C16.8638 23.5015 16.8156 23.3159 16.757 23.1267C16.7179 23.0006 16.6698 22.8799 16.6337 22.7538C16.5976 22.6277 16.5269 22.4853 16.5495 22.3718C16.6457 21.8871 16.5058 21.4025 16.569 20.9214C16.6171 20.561 16.6052 20.2079 16.557 19.8458C16.5029 19.4404 16.4848 19.0296 16.4743 18.6152C16.4623 18.1395 16.563 17.6548 16.4262 17.1846C16.3886 17.0566 16.4096 16.9215 16.4262 16.7882C16.4472 16.6152 16.4382 16.4476 16.3826 16.2783C16.2803 15.963 16.3284 15.6224 16.2833 15.2927C16.1946 14.6405 16.2442 13.9684 16.1194 13.318C16.1074 13.2532 16.0938 13.1757 16.1134 13.1198C16.2683 12.6478 16.1314 12.1757 16.1149 11.7037C16.1118 11.61 16.1119 11.5109 16.0848 11.428C16.0021 11.1667 15.9796 10.8983 16.0563 10.6424C16.1811 10.2226 16.0848 9.7992 16.1029 9.37939C16.1044 9.32534 16.0878 9.26768 16.0999 9.21903C16.2969 8.43707 16.0607 7.66772 16.0607 6.89297C16.0607 6.11821 16.2803 5.43175 16.8112 4.93627C17.0322 4.72907 17.2217 4.49304 17.336 4.17413C17.3991 3.99756 17.5164 3.84621 17.6743 3.81018C17.9751 3.74171 18.0954 3.43541 18.2638 3.20479C18.3976 3.02461 18.4067 2.78138 18.3074 2.52913C18.0653 1.91293 17.7435 1.69311 17.1886 1.81743C16.9149 1.87869 16.6413 1.93095 16.3721 2.03004C16.1164 2.12374 15.8472 2.05887 15.5826 2.11292C15.2006 2.19039 14.8066 2.19219 14.4186 2.22463C14.3855 2.22823 14.3494 2.23544 14.3193 2.22463C13.9103 2.06427 13.4772 2.13816 13.0621 2.03726C12.8892 1.99402 12.7163 1.985 12.5343 2.02824C12.3554 2.07148 12.1583 2.10933 11.9763 1.99402C11.9403 1.9724 11.8846 1.96698 11.847 1.98139C11.4696 2.12734 11.0952 1.9976 10.7207 1.97598C10.4049 1.95616 10.2244 2.12373 10.1583 2.49489C10.1462 2.55975 10.1312 2.62463 10.1222 2.68949C10.0741 3.03002 10.0981 3.1093 10.3643 3.25344C10.5884 3.37596 10.7989 3.50568 10.9884 3.70027C11.0996 3.81378 11.2756 3.8372 11.4214 3.90207C11.4726 3.92369 11.5343 3.9363 11.5418 4.01918C11.5493 4.10387 11.4906 4.1363 11.4395 4.15251C11.1778 4.239 10.9598 4.42457 10.7237 4.57231C10.4726 4.72906 10.1748 4.67322 9.91616 4.56151C9.59284 4.42278 9.28001 4.24259 8.97474 4.05341C8.71758 3.89305 8.64546 3.57594 8.65899 3.26604C8.67403 2.93272 8.67398 2.59941 8.68301 2.26608C8.70255 1.64808 8.99279 1.2589 9.40033 0.954405C9.69658 0.73279 10.0395 0.648108 10.3538 0.482347C10.6425 0.329198 10.9267 0.287751 11.2274 0.430089C11.2966 0.462521 11.3839 0.467925 11.4576 0.45171C11.7779 0.383243 12.0937 0.343606 12.4155 0.453513C12.5749 0.507566 12.7403 0.421078 12.9118 0.449906C13.5855 0.559813 14.2637 0.585052 14.9419 0.532802C15.0231 0.527396 15.0968 0.5328 15.169 0.576042C15.2412 0.617482 15.3164 0.633689 15.3961 0.612068C16.0833 0.431893 16.7886 0.451718 17.4803 0.325596C17.5871 0.305777 17.7119 0.321994 17.8082 0.372443C18.0277 0.487755 18.2518 0.543598 18.4879 0.563417C18.5917 0.572426 18.6894 0.610266 18.7601 0.702155C19.0684 1.10755 19.4729 1.42646 19.5902 2.00842C19.6053 2.08049 19.6534 2.14896 19.697 2.20842C19.8188 2.37958 19.8503 2.58319 19.8774 2.7994C19.9556 3.41559 19.709 3.84261 19.3315 4.19936C19.2969 4.23179 19.2549 4.26061 19.2308 4.30205C19.0518 4.61195 18.8293 4.8642 18.5691 5.0732C18.4293 5.18671 18.3195 5.33086 18.2518 5.52544C18.1857 5.71823 18.0262 5.81913 17.9029 5.95066C17.6894 6.17407 17.6428 6.44253 17.7255 6.73982C17.7842 6.95063 17.7811 7.15062 17.7751 7.36683C17.76 7.8569 17.6819 8.35059 17.7917 8.84067C17.8202 8.9704 17.8202 9.10912 17.7917 9.23885C17.6413 9.88928 17.7104 10.5523 17.7089 11.2118C17.7089 11.4172 17.8427 11.5793 17.8187 11.7901C17.7976 11.9757 17.8142 12.1649 17.769 12.3469C17.7375 12.4766 17.721 12.6117 17.7511 12.7432C17.933 13.518 17.9766 14.3216 17.9586 15.1107C17.945 15.7396 18.0247 16.3269 18.1435 16.9215C18.1541 16.972 18.1556 17.0296 18.1465 17.0801C18.0608 17.608 18.1135 18.1431 18.0804 18.6728C18.0593 19.0187 18.154 19.3629 18.0939 19.7106C18.0894 19.734 18.0939 19.7683 18.1074 19.7881C18.3119 20.1268 18.1962 20.5034 18.2157 20.8692C18.2413 21.3718 18.1496 21.8763 18.2744 22.379C18.336 22.6295 18.3149 22.9087 18.336 23.1754C18.3661 23.5483 18.4037 23.9159 18.6218 24.2204C18.7361 24.379 18.739 24.5916 18.736 24.7934C18.7345 24.9861 18.748 25.1645 18.8774 25.3069C18.9541 25.3916 18.9752 25.5123 19.0037 25.6294C19.0444 25.7969 19.0894 25.9627 19.1947 26.0924C19.3631 26.296 19.4218 26.5501 19.4127 26.8257C19.4067 27.0077 19.4654 27.1591 19.512 27.3248C19.6429 27.7933 19.8022 28.2383 20.0744 28.6203C20.1346 28.705 20.1601 28.8383 20.1782 28.9554C20.2654 29.541 20.494 30.0563 20.7256 30.5716C20.8805 30.9139 20.8925 31.3121 21.0083 31.6724C21.1587 32.1409 21.2489 32.6364 21.4594 33.076C21.497 33.1553 21.5617 33.2147 21.6098 33.2868C21.7196 33.458 21.8173 33.6328 21.8128 33.8652C21.8098 34.0291 21.8745 34.1679 21.9256 34.3174C22.1121 34.8723 22.3813 35.3841 22.5317 35.9588C22.5708 36.1102 22.6159 36.2669 22.6851 36.4002C22.8189 36.6579 22.861 36.9372 22.9031 37.2308C22.9557 37.6074 23.0535 37.9768 23.1512 38.3425C23.1888 38.4831 23.2234 38.62 23.2279 38.7677C23.237 39.074 23.2295 39.3839 23.3468 39.6704C23.3513 39.683 23.3558 39.6956 23.3558 39.7082C23.3302 40.0902 23.431 40.4308 23.5528 40.7785C23.6505 41.0578 23.7227 41.3569 23.6761 41.6758C23.6656 41.7478 23.6896 41.8379 23.7182 41.9082C23.9001 42.3496 23.8761 42.8469 23.9873 43.3081C24.0024 43.3694 24.0084 43.4451 23.9934 43.5063C23.9091 43.8505 23.9813 44.1856 24.0866 44.4847C24.2987 45.0793 24.3107 45.7081 24.3498 46.3261C24.3769 46.7297 24.4536 47.1116 24.5122 47.5026C24.5874 48.0107 24.6535 48.5242 24.6009 49.0449C24.5889 49.1693 24.5979 49.2755 24.6385 49.3927C24.7558 49.7278 24.8175 50.0791 24.7784 50.4467C24.7633 50.5818 24.7813 50.7116 24.8024 50.8449C24.8189 50.9476 24.837 51.0629 24.8174 51.162C24.7152 51.6899 24.7949 52.1926 24.9332 52.6917C24.9919 52.9043 24.9723 53.1133 24.9332 53.3241C24.8851 53.5763 24.8776 53.8232 24.9784 54.0664C25.0807 54.3115 25.0731 54.5943 25.0836 54.852C25.0972 55.2105 25.1889 55.5637 25.1468 55.9258C25.1393 55.9907 25.1438 56.0663 25.1664 56.124C25.3228 56.5258 25.2491 56.9348 25.204 57.3438C25.1754 57.5978 25.1694 57.8393 25.2957 58.0771C25.3573 58.1924 25.3573 58.3582 25.3739 58.5041C25.425 58.9798 25.5032 59.4482 25.5558 59.9239C25.5889 60.2338 25.7152 60.5347 25.6821 60.8572C25.637 61.295 25.7709 61.7148 25.7483 62.1581C25.7348 62.4301 25.7603 62.7346 25.8175 63.0229C25.9167 63.5274 25.8852 64.0589 25.9935 64.5652C26.0792 64.9652 26.1047 65.3778 26.1017 65.7778C26.0972 66.2318 26.2025 66.6733 26.1588 67.1291C26.1393 67.3363 26.1604 67.5579 26.201 67.7633C26.2822 68.1741 26.4176 68.5723 26.3318 69.0083C26.4792 69.6786 26.3168 70.3885 26.5363 71.0587C26.6115 71.2929 26.5724 71.5848 26.5709 71.8479C26.5679 72.2911 26.6205 72.7253 26.7123 73.1523C26.7258 73.2172 26.7423 73.2875 26.7318 73.3487C26.6641 73.792 26.8025 74.2172 26.81 74.6532C26.813 74.8136 26.8265 74.9703 26.804 75.1289C26.7859 75.2604 26.7739 75.3973 26.81 75.5271C26.9198 75.9144 26.9092 76.3162 26.9107 76.7162C26.9138 77.1036 26.9574 77.4892 26.971 77.8729C26.995 78.509 27.0792 79.1432 26.995 79.7864C26.9529 80.1017 27.007 80.426 27.0702 80.7395C27.1017 80.8981 27.0972 81.0512 27.0882 81.2152C27.0702 81.5467 27.0581 81.8818 27.0852 82.2115C27.1183 82.6169 27.0807 83.0097 27.007 83.4025C26.983 83.534 26.9649 83.6656 26.9769 83.7989C27.0175 84.2241 26.9273 84.6529 26.9529 85.0673C26.986 85.6042 26.8687 86.1159 26.8807 86.6511C26.8943 87.215 26.9378 87.7934 26.8536 88.3645C26.7935 88.7735 26.8416 89.1915 26.8732 89.6041C26.9438 90.4942 26.7408 91.2635 26.2055 91.896C26.1589 91.9518 26.1002 91.9933 26.0446 92.0365C26.016 92.0563 25.9799 92.0599 25.9513 92.0797C25.6325 92.2779 25.3574 92.5644 25.01 92.7104C24.8897 92.7608 24.7784 92.8599 24.6431 92.8725C24.3273 92.9049 24.0295 93.004 23.7573 93.204C23.6896 93.2545 23.6129 93.2671 23.5392 93.2977C23.3196 93.386 23.0896 93.4437 22.8896 93.5986C22.7979 93.6689 22.6881 93.7409 22.5738 93.7085C22.2986 93.6292 22.0414 93.7391 21.7813 93.8004C21.5406 93.8563 21.3045 93.9355 21.0609 93.9644C20.7301 94.004 20.4098 94.0851 20.0925 94.2328C19.8368 94.3517 19.5541 94.4058 19.2729 94.404C19.148 94.404 19.0203 94.422 18.9165 94.4959C18.6714 94.6688 18.4052 94.6706 18.1375 94.6544C17.9646 94.6436 17.8081 94.6797 17.6563 94.7842C17.4563 94.9211 17.2262 94.9373 17.0082 94.9265C16.7856 94.9157 16.5645 94.8815 16.342 94.9301C16.2893 94.9409 16.2262 94.9445 16.1781 94.9211C15.7224 94.7013 15.2547 94.8004 14.7915 94.8508C14.5915 94.8725 14.3915 94.9031 14.1915 94.8869C13.9675 94.8688 13.7464 94.8544 13.5283 94.9211C13.4381 94.9481 13.3509 94.9319 13.2652 94.8959C12.6636 94.649 12.0471 94.6617 11.426 94.7355C11.3719 94.7427 11.3071 94.7481 11.262 94.7211C10.856 94.4652 10.4244 94.4869 9.98981 94.5409C9.83041 94.5607 9.68307 94.5553 9.5372 94.458C9.42441 94.3824 9.29811 94.4094 9.1763 94.4382C8.95223 94.4941 8.73416 94.4833 8.5161 94.4004C8.36572 94.3427 8.20931 94.3283 8.05292 94.3301C7.70253 94.3337 7.37173 94.2328 7.04239 94.0995C6.80178 94.0022 6.54309 94.0022 6.29195 93.977C6.21526 93.9698 6.13258 93.986 6.0619 93.9445C5.5897 93.6635 5.06331 93.5878 4.57306 93.359C4.20162 93.186 3.8272 92.9248 3.3941 92.9968C3.07679 92.786 2.72641 92.6239 2.45722 92.3464C2.31135 92.1969 2.19559 92.0041 2.00461 91.9176C1.93092 91.8833 1.86619 91.8239 1.82559 91.7428C1.60603 91.3086 1.28127 90.9518 1.09931 90.5014C0.897797 90.0041 0.718832 89.4744 0.711312 88.8997C0.706801 88.606 0.711312 88.3123 0.711312 88.0186L0.714323 88.015ZM18.6578 53.8988C18.6368 53.4124 18.536 53.0718 18.4698 52.7277C18.4142 52.4412 18.2262 52.2106 17.9932 52.1025C17.557 51.8989 17.1044 51.7457 16.6307 51.7511C16.2968 51.7547 15.969 51.6304 15.6321 51.7043C15.1945 51.7998 14.7554 51.8719 14.3133 51.7133C14.2546 51.6917 14.1825 51.7223 14.1163 51.7349C13.8005 51.7998 13.4892 51.9295 13.1614 51.8394C13.1208 51.8286 13.0726 51.8412 13.029 51.8539C12.7869 51.9313 12.5433 51.8917 12.2982 51.8809C11.9884 51.8665 11.6757 51.8665 11.3689 51.9385C11.1298 51.9944 10.8966 52.1079 10.653 51.9584C10.6019 51.9277 10.5417 51.9403 10.4906 51.9692C10.3177 52.0665 10.1448 52.0412 9.96881 51.9818C9.83798 51.9367 9.70713 51.9367 9.57178 51.9638C9.21839 52.0358 8.87405 52.025 8.51463 51.9313C8.18229 51.8448 7.84693 51.7241 7.49354 51.744C7.31909 51.753 7.13707 51.6773 6.98218 51.5764C6.73255 51.4124 6.45889 51.3566 6.19121 51.2701C5.92804 51.1836 5.63927 51.1638 5.43776 50.8881C5.38964 50.8233 5.30548 50.7908 5.2348 50.753C4.83028 50.5386 4.42119 50.3314 4.01817 50.1098C3.80462 49.9908 3.59263 49.8755 3.34901 49.8899C3.19412 49.8972 3.0738 49.7927 2.95499 49.6936C2.89935 49.6485 2.85427 49.5836 2.79712 49.5476C2.6317 49.4449 2.50835 49.5152 2.49482 49.7386C2.47828 50.0035 2.50236 50.2737 2.48432 50.5386C2.44071 51.1476 2.69181 51.7079 2.67677 52.3115C2.67226 52.47 2.69333 52.6304 2.65724 52.7872C2.62265 52.9367 2.63316 53.0827 2.71136 53.2088C2.82715 53.3944 2.82569 53.6069 2.82569 53.8214C2.82569 54.1547 2.82418 54.4898 2.82569 54.8231C2.82569 54.9565 2.82868 55.097 2.88582 55.2141C3.03019 55.5042 3.02719 55.8195 3.04524 56.142C3.06028 56.4213 2.97457 56.7186 3.06029 56.9726C3.15353 57.2483 3.20013 57.4987 3.12043 57.7834C3.10389 57.8429 3.10385 57.9204 3.1219 57.9798C3.19709 58.2176 3.14594 58.4537 3.14444 58.6915C3.14294 59.1023 3.13843 59.5203 3.18806 59.9239C3.25723 60.4698 3.23017 61.0392 3.41664 61.5617C3.42115 61.5743 3.41968 61.5887 3.41818 61.6013C3.38359 62.0031 3.39708 62.3959 3.52039 62.7797C3.57002 62.9328 3.52194 63.0986 3.49036 63.2535C3.37908 63.8085 3.3776 64.3616 3.47685 64.9184C3.51745 65.1526 3.56252 65.385 3.54147 65.6318C3.49936 66.1345 3.48587 66.6408 3.43624 67.1417C3.40015 67.5039 3.48583 67.8606 3.46628 68.2102C3.42718 68.8912 3.41813 69.5669 3.4828 70.2461C3.50084 70.4335 3.47383 70.6173 3.45879 70.8047C3.4242 71.2569 3.36702 71.7127 3.38808 72.1614C3.41665 72.801 3.24674 73.4298 3.33396 74.0694C3.33847 74.1073 3.32496 74.1487 3.31744 74.1884C3.28435 74.3595 3.28736 74.5307 3.31744 74.7055C3.36857 74.9973 3.36703 75.2892 3.28733 75.5757C3.26628 75.6514 3.24826 75.7307 3.24225 75.8099C3.21367 76.2045 3.36857 76.3379 3.65881 76.1613C3.80167 76.0748 3.93998 75.9847 4.10239 76.0315C4.51894 76.1505 4.94304 76.1216 5.3611 76.0874C5.59269 76.0676 5.80324 76.2009 6.0213 76.1667C6.44537 76.0982 6.86492 76.1775 7.28449 76.2027C7.51307 76.2153 7.75519 76.2099 7.97023 76.3379C8.36423 76.5703 8.77774 76.6189 9.20332 76.536C9.29806 76.518 9.3808 76.5306 9.459 76.5901C9.72818 76.7937 10.0335 76.7883 10.3327 76.7955C10.4545 76.7991 10.5763 76.8045 10.6981 76.8135C11.2244 76.8568 11.7418 77.0856 12.2801 76.9162C12.3703 76.8874 12.4802 76.927 12.5764 76.9558C12.7223 76.9991 12.8682 77.0099 12.999 76.9216C13.1283 76.8351 13.2516 76.8549 13.3854 76.8856C13.9509 77.0171 14.5103 76.9973 15.0622 76.7811C15.1238 76.7577 15.1946 76.7522 15.2607 76.7558C15.5089 76.7685 15.751 76.7072 15.9841 76.6189C16.1089 76.5721 16.2141 76.5883 16.339 76.6153C16.5555 76.6603 16.7765 76.7847 16.9946 76.6874C17.2172 76.5901 17.4427 76.5469 17.6773 76.518C17.8849 76.491 18.0654 76.3937 18.1391 76.1252C18.1556 76.064 18.2007 76.0153 18.2278 75.9577C18.4037 75.5973 18.6879 75.3487 18.891 75.0154C19.0353 74.7811 19.2157 74.5703 19.1842 74.2406C19.1751 74.1595 19.2082 74.0857 19.2338 74.0118C19.3135 73.7866 19.3286 73.5451 19.3391 73.3055C19.3556 72.9073 19.342 72.5073 19.4293 72.1163C19.4488 72.0245 19.4549 71.9289 19.4278 71.8389C19.2549 71.2857 19.4233 70.7326 19.4338 70.1813C19.4383 69.9416 19.4488 69.7128 19.4232 69.4714C19.3586 68.8822 19.2519 68.2948 19.3526 67.6876C19.3902 67.4642 19.4293 67.2192 19.3631 66.9759C19.1887 66.3363 19.2759 65.6823 19.3074 65.0319C19.3135 64.9003 19.3286 64.7688 19.324 64.6337C19.3105 64.2499 19.2969 63.8643 19.3074 63.4806C19.3135 63.3094 19.2428 63.1328 19.315 62.967C19.4458 62.6625 19.4187 62.3364 19.3826 62.0229C19.3496 61.7292 19.318 61.4338 19.3421 61.1473C19.3752 60.7131 19.3045 60.3041 19.2458 59.8861C19.2113 59.641 19.1871 59.3816 19.1947 59.1401C19.2067 58.7257 19.0413 58.3312 19.1225 57.915C18.9601 57.3708 19.0173 56.7762 18.8639 56.2321C18.7511 55.8321 18.7105 55.4303 18.7406 55.0123C18.7436 54.9727 18.7406 54.9312 18.7285 54.8934C18.6218 54.5313 18.718 54.1475 18.6608 53.9079L18.6578 53.8988Z" fill="#FF4D00"/>
</svg>
