<svg width="38" height="116" viewBox="0 0 38 116" fill="none" xmlns="http://www.w3.org/2000/svg">
<path d="M28.9642 5.9277C28.9401 6.56387 28.8511 7.08255 28.8979 7.60485C28.9205 7.85245 28.8994 8.08018 28.836 8.31513C28.6837 8.87539 28.1062 9.34348 27.6372 9.19709C27.2436 9.076 26.948 9.34708 26.6087 9.43564C26.5424 9.45371 26.4986 9.52963 26.5107 9.62361C26.5499 9.93807 26.5288 10.2543 26.6389 10.567C26.8515 11.1724 26.9737 11.8122 27.0461 12.4647C27.0506 12.5044 27.0415 12.5514 27.0551 12.5839C27.2798 13.0575 27.2165 13.6015 27.3115 14.1057C27.3431 14.2756 27.3522 14.4491 27.4246 14.6081C27.4547 14.675 27.4819 14.7708 27.4668 14.8376C27.3944 15.1738 27.5286 15.5009 27.4864 15.8335C27.4773 15.9094 27.4788 16.0052 27.509 16.0702C27.7669 16.6233 27.7473 17.2178 27.7156 17.8197C27.7035 18.0438 27.7382 18.2697 27.8332 18.4775C27.9373 18.7016 27.9644 18.9384 27.8302 19.1607C27.7442 19.3035 27.7654 19.4372 27.8151 19.5764C27.883 19.7661 27.889 19.9649 27.8935 20.1673C27.9041 20.6318 27.9358 21.0981 27.9312 21.5626C27.9282 21.9078 27.88 22.2512 27.8528 22.5963C27.8453 22.6885 27.8091 22.7988 27.8377 22.8711C27.9539 23.1638 27.886 23.4458 27.8377 23.7349C27.8242 23.8126 27.8151 23.8958 27.8166 23.9735C27.8287 24.6061 27.7111 25.2223 27.6764 25.8495C27.6613 26.1151 27.5678 26.3609 27.5316 26.6266C27.4185 27.4796 27.3446 28.349 27.0129 29.1442C26.9043 29.4044 26.8455 29.6954 26.7505 29.9665C26.6449 30.2665 26.6856 30.4328 26.9254 30.5502C27.322 30.7418 27.5708 31.0725 27.7503 31.5334C27.8317 31.743 27.9674 31.9491 28.171 32.081C28.3897 32.2238 28.4952 32.5202 28.5993 32.7841C28.7169 33.0786 28.8994 33.3172 29.0713 33.5522C29.2145 33.7473 29.2975 33.9443 29.3337 34.1811C29.3623 34.3709 29.4091 34.5426 29.5176 34.6889C29.578 34.7703 29.6292 34.8661 29.6262 34.9763C29.6172 35.345 29.771 35.6667 29.8283 36.0155C29.8434 36.1077 29.8584 36.1962 29.9007 36.2794C30.0786 36.6191 30.0726 36.995 30.0093 37.3673C29.9685 37.6149 29.9233 37.8625 29.8464 38.1029C29.774 38.3252 29.7559 38.5746 29.771 38.8168C29.7846 39.0228 29.7695 39.2162 29.682 39.3987C29.6307 39.5054 29.6006 39.6337 29.6202 39.7476C29.7031 40.2247 29.489 40.6295 29.4196 41.0705C29.3171 41.7265 29.026 42.3247 29.0155 43.0079C29.014 43.1254 28.9808 43.2465 28.9431 43.3567C28.8044 43.7652 28.7199 44.2061 28.6762 44.6272C28.5902 45.4387 28.4032 46.2195 28.3037 47.0237C28.254 47.4195 28.2283 47.8207 28.2117 48.2219C28.2012 48.4786 28.1635 48.7262 28.1137 48.9738C27.972 49.6768 27.9101 50.3961 27.8061 51.1082C27.7925 51.2004 27.7865 51.2961 27.7608 51.3829C27.6025 51.9468 27.6402 52.545 27.5467 53.1197C27.4532 53.6998 27.5346 54.289 27.4638 54.871C27.4562 54.9342 27.4728 55.0029 27.4773 55.0698C27.4969 55.3625 27.4954 55.6517 27.4849 55.9481C27.4577 56.6638 27.4924 57.3831 27.4924 58.1006C27.4924 58.4729 27.5542 58.8416 27.5165 59.2175C27.4879 59.4958 27.5226 59.7778 27.5392 60.0579C27.5784 60.6941 27.5844 61.332 27.5497 61.97C27.5346 62.2519 27.5723 62.5339 27.6176 62.8086C27.6674 63.1104 27.6417 63.4032 27.5708 63.6797C27.506 63.9273 27.503 64.1803 27.5708 64.3882C27.7352 64.8996 27.6628 65.4219 27.6764 65.9388C27.6839 66.2334 27.6764 66.5262 27.7201 66.819C27.7714 67.1623 27.8091 67.5057 27.7729 67.8563C27.7669 67.9214 27.7608 68.0027 27.7865 68.0515C27.9448 68.3606 27.9207 68.6949 27.889 69.0275C27.8573 69.3763 27.9599 69.7197 27.9086 70.0667C28.1167 70.4408 28.0172 70.8583 28.0504 71.2613C28.0775 71.5975 28.1408 71.9137 28.0368 72.2426C28.0036 72.3475 28.0474 72.4523 28.0941 72.5481C28.1514 72.6656 28.1982 72.7866 28.2012 72.9258C28.2132 73.7011 28.3128 74.471 28.3098 75.25C28.3067 75.7289 28.3444 76.2133 28.4621 76.6777C28.4681 76.703 28.4726 76.7301 28.4817 76.7554C28.6053 77.0609 28.4063 77.4169 28.5556 77.6953C28.7109 77.9862 28.6626 78.2844 28.6807 78.588C28.7048 78.973 28.7214 79.3616 28.8391 79.7321C28.8994 79.9236 28.8888 80.1297 28.8828 80.3285C28.8707 80.7785 28.9567 81.2014 29.103 81.6153C29.2341 81.9894 29.2432 82.3978 29.3035 82.7918C29.3412 83.0376 29.3201 83.3033 29.4799 83.5111C29.5131 83.5545 29.5146 83.6358 29.5237 83.7009C29.6338 84.6298 29.8871 85.5208 30.0273 86.4426C30.0379 86.5076 30.0439 86.5889 30.0786 86.6305C30.4903 87.1221 30.531 87.8107 30.7105 88.4161C30.816 88.7667 30.8386 89.1752 30.9578 89.5294C31.1025 89.9631 31.1568 90.424 31.3061 90.8596C31.4584 91.306 31.5987 91.7451 31.8264 92.15C31.9349 92.3433 31.9334 92.6181 31.9138 92.8548C31.8927 93.1313 31.9681 93.3554 32.0993 93.5615C32.2109 93.735 32.2984 93.9157 32.3134 94.1398C32.318 94.203 32.333 94.288 32.3692 94.3223C32.6256 94.5627 32.5939 94.9169 32.6286 95.2422C32.6512 95.4555 32.6573 95.6633 32.8141 95.8224C32.9136 95.9236 32.9061 96.088 32.9076 96.2362C32.9091 96.426 32.983 96.5923 33.0252 96.7676C33.1459 97.2628 33.4535 97.6803 33.4459 98.2279C33.4459 98.2911 33.4641 98.3652 33.4957 98.4158C33.746 98.8369 33.7928 99.3556 33.9647 99.8129C33.9994 99.9051 33.9964 100.024 33.9949 100.129C33.9918 100.268 34.013 100.391 34.0823 100.507C34.2301 100.751 34.3146 101.024 34.3281 101.327C34.3342 101.465 34.3915 101.582 34.4382 101.703C34.5287 101.935 34.5558 102.189 34.6146 102.428C34.7594 103.01 34.7986 103.648 35.1515 104.138C35.1877 104.187 35.2239 104.25 35.2314 104.311C35.3023 104.812 35.536 105.222 35.7366 105.65C35.8075 105.8 35.7863 105.963 35.824 106.117C35.916 106.494 36.0729 106.831 36.2689 107.141C36.3729 107.308 36.4378 107.487 36.471 107.687C36.5117 107.924 36.5479 108.161 36.667 108.365C36.7198 108.455 36.7394 108.564 36.7273 108.672C36.6972 108.976 36.7801 109.252 36.8585 109.534C37.0259 110.129 37.1013 110.731 36.9022 111.34C36.8691 111.443 36.8721 111.549 36.8766 111.658C36.8811 111.764 36.8781 111.873 36.8887 111.98C36.943 112.563 36.7288 112.955 36.2915 113.19C36.2207 113.228 36.1317 113.254 36.0849 113.319C35.7396 113.798 35.2012 113.765 34.773 114.025C34.6011 114.128 34.3613 114.121 34.1487 114.071C33.9647 114.027 33.7958 114.054 33.648 114.215C33.5259 114.349 33.3736 114.378 33.2107 114.383C32.6301 114.398 32.0601 114.539 31.4856 114.615C30.9653 114.683 30.4496 114.817 29.9233 114.821C29.8675 114.821 29.8072 114.826 29.7589 114.801C29.4664 114.649 29.1693 114.737 28.8692 114.745C28.3143 114.759 27.7654 114.893 27.2029 114.81C26.8983 114.765 26.5786 114.826 26.2694 114.86C25.9588 114.895 25.6497 114.875 25.3405 114.906C25.1912 114.92 25.051 114.875 24.9123 114.826C24.6544 114.737 24.4056 114.748 24.1658 114.906C24.107 114.944 24.0346 115.001 23.9803 114.987C23.6817 114.909 23.3907 115.047 23.0846 114.99C22.697 114.92 22.2823 114.855 21.9159 115.148C21.8722 115.184 21.8073 115.216 21.759 115.207C21.3474 115.119 20.9387 115.348 20.5255 115.215C20.3566 115.159 20.1862 115.236 20.0369 115.309C19.8258 115.412 19.6328 115.431 19.4232 115.323C19.2648 115.242 19.0959 115.234 18.9316 115.312C18.7657 115.392 18.5998 115.372 18.4415 115.294C18.2741 115.213 18.0962 115.186 17.9242 115.13C17.8473 115.104 17.7629 115.077 17.6935 115.117C17.3422 115.312 16.9893 115.153 16.6394 115.128C16.5052 115.119 16.371 115.072 16.2398 115.101C15.994 115.153 15.7558 115.178 15.519 115.052C15.4466 115.014 15.3561 115.018 15.2913 115.072C15.047 115.283 14.7801 115.227 14.5192 115.166C14.3609 115.13 14.2221 115.146 14.0653 115.206C13.8301 115.296 13.5752 115.285 13.352 115.13C13.1786 115.009 13.0112 114.958 12.8107 115.023C12.6463 115.077 12.4789 115.023 12.316 114.972C12.1969 114.936 12.0763 114.877 11.9571 114.882C11.5741 114.897 11.2031 114.806 10.8292 114.737C10.4884 114.674 10.1521 114.573 9.80223 114.602C9.72231 114.609 9.64841 114.559 9.58809 114.497C9.40261 114.306 9.19752 114.273 8.96227 114.34C8.80846 114.383 8.6471 114.362 8.50535 114.262C8.07557 113.959 7.59001 113.944 7.1165 113.892C6.80133 113.857 6.50124 113.79 6.20869 113.64C6.03527 113.552 5.84979 113.49 5.66431 113.442C5.07468 113.286 4.51974 113.002 3.94822 112.778C3.9075 112.762 3.85472 112.744 3.83059 112.706C3.56518 112.287 3.14597 112.175 2.78406 111.954C2.49754 111.779 2.19142 111.611 1.93657 111.405C1.66211 111.183 1.42837 110.808 1.30924 110.407C1.24138 110.183 1.2067 109.95 1.08304 109.751C1.0378 109.681 1.01216 109.579 1.00311 109.489C0.938271 108.799 0.782952 108.125 0.724141 107.44C0.684933 106.991 0.585409 106.554 0.576361 106.102C0.570329 105.757 0.592945 105.412 0.591437 105.065C0.591437 104.893 0.537163 104.707 0.567323 104.566C0.642722 104.212 0.523587 103.876 0.562794 103.541C0.59597 103.254 0.595968 102.981 0.54168 102.71C0.451201 102.256 0.561274 101.806 0.531114 101.353C0.499446 100.903 0.392385 100.453 0.479848 99.9954C0.206902 99.5273 0.419531 99.0213 0.407467 98.5351C0.396911 98.0779 0.34112 97.6279 0.316992 97.176C0.279292 96.4314 0.151115 95.694 0.243102 94.9404C0.26723 94.7362 0.221992 94.5139 0.188817 94.3043C0.133021 93.9591 0.148088 93.6103 0.137532 93.2633C0.133008 93.1277 0.155633 93.0012 0.199364 92.8729C0.329051 92.5042 0.295885 92.1156 0.265725 91.7343C0.249138 91.5337 0.224999 91.3439 0.255159 91.1397C0.300399 90.8361 0.304926 90.5252 0.240083 90.2216C0.196351 90.0174 0.203894 89.8113 0.280802 89.6324C0.410488 89.3306 0.421038 89.0161 0.405958 88.6926C0.395402 88.436 0.395405 88.1848 0.484376 87.9426C0.516044 87.8558 0.522076 87.7637 0.522076 87.6679C0.525092 87.1347 0.528106 86.6016 0.538661 86.0684C0.546201 85.7196 0.594467 85.3744 0.680422 85.0401C0.724153 84.8702 0.761845 84.6967 0.728669 84.525C0.627634 83.9991 0.733199 83.4858 0.772407 82.9671C0.802567 82.5677 0.858362 82.1701 0.772407 81.7689C0.746771 81.6496 0.74978 81.505 0.802559 81.4165C0.93677 81.1924 0.903596 80.952 0.879468 80.7188C0.831212 80.2652 0.868916 79.8098 0.826692 79.3561C0.79804 79.0579 0.864393 78.7706 0.979 78.5031C1.05289 78.3296 1.05139 78.1579 1.03781 77.9627C0.997098 77.3916 0.968438 76.8169 1.08606 76.2494C1.0936 76.2097 1.11623 76.1681 1.11019 76.1338C0.974476 75.4199 1.3394 74.7837 1.32885 74.0879C1.32583 73.8873 1.3575 73.6885 1.29869 73.4933C1.17655 73.0921 1.2248 72.6981 1.35902 72.3186C1.41934 72.1469 1.44043 71.9553 1.53393 71.7981C1.58369 71.7149 1.58068 71.6191 1.55655 71.527C1.43893 71.0824 1.58067 70.6848 1.71941 70.2926C1.76917 70.1552 1.79934 70.0197 1.82347 69.8751C1.90188 69.3763 1.96219 68.8739 2.0014 68.3696C2.02101 68.1202 2.00292 67.8672 2.01348 67.6142C2.03006 67.1696 2.1326 66.7431 2.15975 66.3021C2.16427 66.2244 2.18388 66.1412 2.21705 66.0744C2.3015 65.9081 2.33467 65.7256 2.34221 65.5376C2.3588 65.1255 2.36634 64.7117 2.37991 64.2996C2.38292 64.2201 2.37237 64.1297 2.39951 64.0628C2.56237 63.658 2.55634 63.2008 2.6815 62.7833C2.74484 62.5736 2.76444 62.3387 2.6996 62.111C2.6815 62.0495 2.66793 61.9736 2.68301 61.914C2.78103 61.4893 2.76143 61.0465 2.79611 60.6163C2.84286 60.0507 2.99518 59.4886 2.90319 58.9084C2.8851 58.7946 2.90771 58.6699 2.91676 58.5506C2.93335 58.312 2.97557 58.0735 2.91978 57.8331C2.89565 57.7283 2.89565 57.618 2.93335 57.5168C3.09319 57.074 3.09922 56.6041 3.10224 56.1361C3.10525 55.6427 3.0751 55.1511 3.20328 54.6649C3.28019 54.374 3.25003 54.0559 3.24249 53.7486C3.23043 53.3203 3.26962 52.8865 3.32693 52.4727C3.41137 51.869 3.41891 51.2365 3.58932 50.6636C3.74464 50.1449 3.8125 49.581 4.08394 49.1147C4.10958 49.0714 4.14125 49.0244 4.14728 48.9738C4.19252 48.5816 4.39006 48.2617 4.49864 47.9093C4.71428 47.2062 5.05811 46.5827 5.26018 45.8707C5.46074 45.1694 5.77289 44.5116 5.99155 43.8103C6.13933 43.3332 6.49521 43.0314 6.72745 42.6229C6.75911 42.5687 6.82396 42.5344 6.84054 42.4766C7.03206 41.7952 7.58246 41.4789 7.92478 40.9512C7.99867 40.8355 8.08764 40.7307 8.14645 40.6024C8.23994 40.3982 8.36964 40.2482 8.53099 40.1126C8.7406 39.9391 8.84616 39.6391 9.03767 39.4331C9.13569 39.3265 9.2111 39.1909 9.3257 39.1005C9.37094 39.0644 9.43428 39.0174 9.44182 38.965C9.49762 38.6108 9.74643 38.468 9.96509 38.3288C10.1566 38.2059 10.2787 38.0306 10.3783 37.8282C10.4627 37.6601 10.5834 37.5553 10.6965 37.427C11.0825 36.995 11.5545 36.7095 11.9647 36.3227C12.0265 36.2649 12.0944 36.2125 12.129 36.1257C12.2557 35.7914 12.4653 35.5709 12.7473 35.4353C12.9238 35.3504 13.0776 35.2167 13.2148 35.0558C13.3128 34.9419 13.4244 34.8588 13.5707 34.857C13.625 34.857 13.6928 34.8462 13.729 34.8064C13.9914 34.5281 14.3202 34.3745 14.6006 34.1341C14.6278 34.1106 14.6579 34.0889 14.6775 34.0564C15.1782 33.2323 15.9156 32.7262 16.5505 32.0828C16.7706 31.8587 16.9833 31.6201 17.2004 31.3942C17.5307 31.0508 17.8805 30.7472 18.2485 30.4725C18.6345 30.1834 18.9482 29.7912 19.1849 29.3484C19.4141 28.9183 19.5453 28.4176 19.6207 27.8971C19.7188 27.2158 19.7881 26.5254 19.9434 25.8549C20.0837 25.2495 20.1621 24.635 20.0746 23.9988C20.04 23.7512 20.049 23.4909 20.0581 23.2379C20.0807 22.5981 20.0369 21.9602 20.0595 21.3186C20.0701 21.0168 20.0068 20.7095 19.9992 20.4005C19.9751 19.2402 19.9389 18.0799 19.9118 16.9196C19.9057 16.6269 19.9118 16.3305 19.9253 16.0413C19.9646 15.2678 19.8635 14.4906 19.9811 13.7207C20.0264 13.4316 19.9811 13.1352 19.9841 12.8424C19.9932 12.0273 20.052 11.2122 20.0128 10.3971C20.0098 10.3176 20.0068 10.2363 20.0068 10.1567C20.0068 9.97963 19.9404 9.88386 19.7881 9.87301C19.4609 9.84771 19.1638 9.67059 18.8517 9.59287C18.452 9.49347 18.1022 9.26215 17.7388 9.07961C17.3965 8.90611 17.0496 8.69647 16.7963 8.33862C16.6455 8.12536 16.558 7.89221 16.5776 7.60485C16.5972 7.31026 16.5987 7.01568 16.5475 6.7247C16.5339 6.6506 16.5399 6.56025 16.5595 6.48796C16.6696 6.08313 16.647 5.66924 16.6229 5.25537C16.6183 5.1885 16.6017 5.11802 16.6123 5.05658C16.7299 4.42583 16.7013 3.77521 16.7812 3.14085C16.8189 2.83542 16.8762 2.5318 17.0089 2.26432C17.312 1.65165 17.8051 1.51789 18.3405 1.59561C19.096 1.70585 19.853 1.70768 20.61 1.72575C20.7985 1.72936 20.99 1.70767 21.1709 1.62453C21.2328 1.59561 21.3021 1.57031 21.367 1.57754C21.9083 1.64622 22.3969 1.40946 22.8946 1.21065C22.9986 1.16909 23.1162 1.17995 23.2248 1.15826C23.6531 1.0697 24.0829 0.979332 24.5096 0.883546C25.1203 0.746191 25.7326 0.702816 26.3358 0.905232C26.8742 1.08596 27.3733 1.39862 27.6794 1.96611C27.9116 2.39805 28.1589 2.83724 28.3022 3.33243C28.3474 3.48605 28.4002 3.63244 28.4817 3.76076C28.5812 3.91619 28.6189 4.08786 28.631 4.28305C28.6506 4.6174 28.6958 4.94634 28.8481 5.24273C28.9763 5.49214 29.02 5.76504 28.9687 5.94034L28.9642 5.9277ZM20.9085 24.9332C20.898 25.4085 20.7608 25.7862 20.7231 26.2001C20.6808 26.6609 20.5707 27.1128 20.5496 27.5809C20.5466 27.6441 20.5044 27.7019 20.4863 27.7652C20.4637 27.8411 20.4245 27.9224 20.435 27.9947C20.4939 28.4303 20.2993 28.8026 20.2345 29.2056C20.1425 29.7659 19.859 30.234 19.7097 30.7671C19.6403 31.0129 19.5121 31.2461 19.2739 31.3436C19.206 31.3708 19.1593 31.4702 19.096 31.5226C18.8848 31.6979 18.7491 31.9816 18.5184 32.1172C18.3887 32.1931 18.2937 32.2889 18.2274 32.4298C18.1535 32.5871 18.0569 32.7045 17.9182 32.7804C17.8172 32.8365 17.7011 32.8979 17.6407 32.9991C17.3165 33.5305 16.7736 33.7907 16.4811 34.3618C16.454 34.4142 16.3891 34.4359 16.3529 34.4847C16.187 34.7052 15.9262 34.7901 15.7829 35.0287C15.6019 35.3305 15.4647 35.6703 15.145 35.8113C15.0907 35.8348 15.0576 35.9287 15.0153 35.992C14.7891 36.3336 14.4996 36.527 14.1362 36.5848C13.9341 36.6155 13.7607 36.7493 13.6144 36.9209C13.5586 36.986 13.5058 37.0511 13.438 37.1035C13.0278 37.418 12.5634 37.6312 12.2105 38.0541C11.9858 38.3234 11.6284 38.4228 11.5243 38.8457C11.5047 38.9252 11.4293 38.9614 11.363 38.9758C10.9694 39.0662 10.7342 39.4042 10.508 39.7566C10.4401 39.8614 10.3798 39.997 10.2878 40.0548C10.0028 40.2373 9.88818 40.6476 9.57302 40.7867C9.52024 40.8102 9.49007 40.9078 9.45388 40.9747C9.41769 41.0416 9.38753 41.1157 9.32721 41.1572C8.99093 41.3886 8.77077 41.7681 8.49782 42.0789C8.29424 42.3139 8.18869 42.6428 7.95344 42.8326C7.68351 43.0513 7.47842 43.3603 7.2673 43.6332C6.96721 44.0218 6.6264 44.432 6.56759 45.0194C6.56307 45.0682 6.5284 45.1152 6.50578 45.1604C6.34291 45.4785 6.19059 45.7965 6.13329 46.1761C6.09559 46.4219 6.00361 46.6623 5.83924 46.8412C5.76233 46.9261 5.7201 47.0327 5.68089 47.1448C5.38985 47.9978 5.09731 48.8473 4.80778 49.7021C4.76556 49.825 4.73388 49.9569 4.7188 50.0889C4.66149 50.5949 4.51824 51.0756 4.42475 51.5727C4.35689 51.9395 4.29053 52.2992 4.36442 52.6733C4.38554 52.7799 4.38252 52.8865 4.36442 52.9932C4.3041 53.3113 4.32672 53.6312 4.34482 53.9529C4.3599 54.2312 4.43379 54.5149 4.36593 54.7914C4.26037 55.2234 4.32673 55.6644 4.29506 56.1017C4.27998 56.3078 4.25735 56.5228 4.28601 56.7397C4.34482 57.1915 4.33578 57.6415 4.21815 58.0879C4.13371 58.406 4.10355 58.7151 4.26038 59.0512C4.3765 59.2988 4.36743 59.6314 4.26489 59.9115C4.18949 60.1175 4.17291 60.3236 4.17894 60.5386C4.18648 60.8079 4.16387 61.0718 4.14879 61.3411C4.1307 61.6483 4.05529 61.961 4.08545 62.2556C4.12466 62.626 4.07641 62.9839 4.03267 63.3309C3.95275 63.9616 3.80949 64.5815 3.84568 65.2304C3.85172 65.3352 3.82306 65.4418 3.80497 65.5466C3.69187 66.2551 3.58479 66.9636 3.5863 67.6919C3.5878 68.16 3.54559 68.6281 3.52146 69.0944C3.50488 69.4396 3.57122 69.7847 3.40082 70.1046C3.36764 70.1661 3.37971 70.26 3.37067 70.3396C3.3013 70.9432 3.40987 71.5776 3.16558 72.1541C3.14749 72.1975 3.15502 72.2607 3.15954 72.3131C3.18066 72.6005 3.10525 72.8644 3.0389 73.1373C2.9258 73.5981 2.83532 74.068 2.94691 74.5578C2.99517 74.7674 2.96651 74.9843 2.90619 75.1903C2.86548 75.3295 2.82025 75.4777 2.85795 75.6223C2.95747 76.0036 2.88508 76.3669 2.79611 76.7284C2.75691 76.8874 2.7524 77.032 2.7916 77.1982C2.86248 77.4946 2.90771 77.8091 2.81874 78.1091C2.66794 78.6188 2.69659 79.1411 2.73881 79.658C2.78706 80.2363 2.78556 80.811 2.69056 81.3767C2.6227 81.7815 2.58048 82.1791 2.55786 82.593C2.53071 83.09 2.54731 83.578 2.5639 84.0696C2.56691 84.1491 2.56691 84.2322 2.55786 84.3099C2.47341 85.0094 2.49603 85.725 2.32713 86.4118C2.30602 86.4986 2.30904 86.598 2.31507 86.6901C2.33769 87.0697 2.303 87.4365 2.2095 87.8016C2.14014 88.0745 2.13109 88.3583 2.22911 88.6294C2.27133 88.7468 2.26682 88.8607 2.26079 88.9818C2.1869 90.5306 1.97427 92.0686 1.97578 93.6247C1.97578 93.8524 1.95465 94.0729 2.05871 94.2862C2.12958 94.4271 2.11752 94.6097 2.06474 94.7561C1.99236 94.9531 2.00594 95.1447 2.01801 95.3453C2.02555 95.4772 2.01499 95.6127 1.9984 95.7447C1.94562 96.1423 1.88832 96.5345 1.95919 96.9411C1.98784 97.1092 1.95919 97.2863 1.93506 97.4598C1.87474 97.8953 1.82799 98.3327 1.92902 98.7719C1.9622 98.9147 1.94411 99.0628 1.93657 99.211C1.90641 99.8725 1.74506 100.534 1.91998 101.201C1.93657 101.262 1.93054 101.335 1.923 101.4C1.84308 102.09 1.99537 102.786 1.8883 103.476C1.87775 103.54 1.90038 103.608 1.90189 103.675C1.91094 104.062 2.02252 104.449 1.95466 104.834C1.88228 105.237 1.8868 105.641 1.93204 106.032C1.97426 106.384 1.94864 106.728 1.94412 107.071C1.93959 107.353 1.92751 107.628 1.9637 107.908C1.99989 108.182 1.98031 108.468 2.13261 108.712C2.17333 108.777 2.16729 108.893 2.16428 108.985C2.13261 110.013 2.78254 110.483 3.32693 111.042C3.33447 111.051 3.34803 111.056 3.35859 111.054C3.59685 111.005 3.78235 111.201 3.99497 111.251C4.36292 111.34 4.69317 111.528 5.01136 111.737C5.4351 112.016 5.86639 112.187 6.35196 112.126C6.42133 112.117 6.49219 112.119 6.54648 112.166C6.73648 112.327 6.92047 112.412 7.16326 112.298C7.25826 112.252 7.4181 112.308 7.51461 112.383C7.85391 112.645 8.2475 112.578 8.61243 112.665C8.90799 112.735 9.22919 112.614 9.52777 112.78C9.60317 112.822 9.7042 112.806 9.79318 112.802C9.99525 112.795 10.1928 112.811 10.3858 112.896C10.6075 112.993 10.8307 113.033 11.0735 112.983C11.2891 112.937 11.5093 112.945 11.7324 113.026C11.9209 113.093 12.1305 113.089 12.3311 113.086C12.8046 113.073 13.2781 113.006 13.7441 113.192C13.9477 113.274 14.1663 113.207 14.3759 113.172C14.7364 113.113 15.1043 113.266 15.4617 113.111C15.4783 113.104 15.5054 113.12 15.525 113.133C15.6381 113.21 15.7588 113.199 15.8839 113.196C16.2624 113.185 16.6394 113.196 17.0179 113.225C17.3286 113.248 17.6422 113.199 17.9514 113.274C17.9921 113.283 18.0419 113.27 18.0826 113.256C18.6451 113.044 19.2271 113.073 19.8047 113.042C20.0822 113.028 20.3762 113.122 20.6356 113.001C20.8814 112.887 21.1212 112.878 21.3579 112.921C21.5932 112.966 21.8028 112.93 22.0079 112.816C22.121 112.753 22.2205 112.748 22.3245 112.829C22.4663 112.939 22.6035 112.992 22.7498 112.831C22.8207 112.751 22.9127 112.768 23.0046 112.784C23.1931 112.818 23.3862 112.833 23.5716 112.777C23.73 112.73 23.8853 112.728 24.0376 112.766C24.4659 112.872 24.9062 112.65 25.33 112.834C25.339 112.838 25.3526 112.834 25.3631 112.831C25.6497 112.722 25.9377 112.795 26.2272 112.802C26.5379 112.809 26.85 112.789 27.1622 112.764C27.5603 112.73 27.9689 112.507 28.3746 112.775C28.4364 112.816 28.5525 112.768 28.634 112.731C29.1376 112.507 29.6519 112.833 30.157 112.681C30.1917 112.67 30.243 112.71 30.2792 112.737C30.433 112.851 30.5612 112.791 30.6667 112.646C30.899 112.33 31.2217 112.37 31.466 112.491C31.7299 112.621 31.944 112.663 32.1928 112.513C32.2396 112.484 32.3014 112.491 32.3572 112.478C32.8428 112.379 33.3359 112.413 33.8245 112.35C34.2437 112.296 34.6735 112.365 35.0806 112.169C35.1726 112.126 35.2782 112.122 35.3777 112.108C35.8256 112.043 36.002 111.817 35.9613 111.298C35.9356 110.969 35.9552 110.639 35.8572 110.311C35.7592 109.988 35.6974 109.639 35.6657 109.296C35.6054 108.643 35.2978 108.092 35.1862 107.465C34.9464 107.152 34.9464 106.69 34.7111 106.372C34.6825 106.334 34.6644 106.274 34.6614 106.223C34.6312 105.748 34.4669 105.32 34.3372 104.879C34.1034 104.089 33.9451 103.263 33.5515 102.547C33.3781 102.233 33.3962 102.217 33.084 102.347C32.8141 102.461 32.5457 102.479 32.2622 102.405C31.9214 102.314 31.5745 102.406 31.2398 102.47C31.0271 102.509 30.8266 102.535 30.614 102.513C30.347 102.486 30.0877 102.399 29.8177 102.41C29.2613 102.43 28.7033 102.444 28.1454 102.461C27.7005 102.473 27.2541 102.542 26.8093 102.455C26.5213 102.399 26.2317 102.401 25.9407 102.442C25.8095 102.461 25.6723 102.442 25.5396 102.423C25.4385 102.408 25.336 102.377 25.241 102.414C24.7826 102.583 24.3106 102.508 23.8431 102.529C23.5505 102.544 23.2429 102.401 22.9775 102.663C22.97 102.67 22.9564 102.672 22.9458 102.672C22.4844 102.652 22.0456 102.829 21.5902 102.873C21.2026 102.909 20.812 102.972 20.438 103.115C20.2119 103.202 19.9887 103.27 19.7504 103.263C19.5936 103.258 19.4398 103.297 19.2845 103.323C18.9421 103.38 18.6149 103.556 18.262 103.527C18.0796 103.512 17.9107 103.559 17.7342 103.605C17.4432 103.679 17.1687 103.867 16.8566 103.814C16.2896 103.718 15.7241 103.67 15.1571 103.809C15.1134 103.82 15.0681 103.821 15.0229 103.814C14.6022 103.755 14.1799 103.695 13.7607 103.628C13.5933 103.601 13.4274 103.576 13.26 103.587C12.7368 103.619 12.212 103.68 11.7174 103.386C11.6706 103.359 11.6073 103.366 11.5515 103.366C11.3268 103.361 11.1051 103.306 10.8925 103.232C10.6527 103.151 10.4114 103.127 10.1687 103.09C9.5896 102.999 9.04371 102.784 8.55663 102.377C8.41187 102.256 8.28821 102.061 8.10726 102.038C7.73629 101.994 7.43167 101.833 7.19643 101.479C6.96118 101.127 6.63546 100.863 6.44847 100.469C6.21624 99.9828 5.98551 99.4894 5.93122 98.9129C5.92067 98.7954 5.89352 98.6725 5.84677 98.5677C5.65525 98.1375 5.59193 97.6893 5.68542 97.2122C5.71558 97.0586 5.6794 96.9248 5.61757 96.7911C5.52407 96.5851 5.51201 96.3646 5.53764 96.1278C5.59645 95.5838 5.607 95.0235 5.54517 94.4904C5.47279 93.8831 5.64017 93.2886 5.52708 92.6922C5.71105 92.1988 5.64622 91.6765 5.65376 91.1614C5.65527 91.0421 5.68392 90.9228 5.70804 90.8054C5.74273 90.6355 5.73669 90.4583 5.75931 90.2903C5.83471 89.721 5.55273 89.1553 5.75178 88.5878C5.75932 88.5661 5.74574 88.5354 5.74122 88.5101C5.67336 88.0962 5.69598 87.6823 5.75931 87.2721C5.79249 87.0588 5.79852 86.8438 5.75629 86.6341C5.71105 86.41 5.70804 86.1823 5.70804 85.9546C5.70804 85.4377 5.80907 84.919 5.65827 84.4057C5.61605 84.2629 5.64772 84.0876 5.64923 83.9268C5.64923 83.6864 5.65979 83.4442 5.65527 83.2039C5.64924 82.8153 5.61756 82.4267 5.72312 82.0472C5.74876 81.955 5.73218 81.8593 5.71408 81.7689C5.65678 81.487 5.69296 81.214 5.7382 80.9339C5.82868 80.3682 5.87694 79.8025 5.80154 79.2188C5.73217 78.6784 5.80606 78.1218 5.72614 77.5778C5.71709 77.5145 5.74273 77.4458 5.74574 77.379C5.76384 76.8223 5.97194 76.2838 5.8709 75.7127C5.85582 75.6277 5.88145 75.5247 5.90558 75.4379C5.96892 75.2156 5.97798 74.9934 5.93575 74.7638C5.9071 74.603 5.88145 74.4186 5.96138 74.2939C6.13781 74.0138 6.14687 73.6686 6.25695 73.3686C6.37005 73.0613 6.40171 72.7541 6.38211 72.4306C6.36854 72.2011 6.39417 71.9806 6.45449 71.7583C6.58267 71.2794 6.7953 70.8185 6.68522 70.2835C6.67768 70.2474 6.68521 70.1986 6.70029 70.1661C6.91292 69.698 6.72593 69.1233 6.97927 68.6642C7.00641 68.6154 6.99436 68.5323 6.99134 68.4672C6.97475 67.7045 7.00641 66.9473 7.15118 66.2009C7.18134 66.0455 7.23111 65.8828 7.19945 65.7256C7.14063 65.44 7.18738 65.1689 7.23262 64.8942C7.25222 64.7767 7.29142 64.6574 7.28539 64.54C7.26579 64.0574 7.30802 63.5839 7.38643 63.114C7.43017 62.8538 7.45128 62.5935 7.44525 62.3224C7.43922 62.0206 7.52517 61.717 7.57191 61.4134C7.64128 60.967 7.72724 60.5296 7.85994 60.0995C8.03186 59.5482 8.16002 58.9789 8.41185 58.4675C8.439 58.4133 8.439 58.3391 8.45408 58.2759C8.70139 57.2277 9.0995 56.2861 9.82937 55.5993C10.1611 55.2866 10.5411 55.0932 10.9785 55.1583C11.1504 55.1836 11.3162 55.1475 11.4731 55.0896C11.639 55.0282 11.7973 55.0137 11.9662 55.0409C12.4442 55.1168 12.9238 54.9902 13.4018 55.0463C13.4802 55.0553 13.5526 54.992 13.6265 54.9794C13.8436 54.9414 14.0532 54.889 14.2825 54.9794C14.6082 55.1095 14.9535 55.1854 15.2853 54.9722C15.3954 54.9017 15.5024 54.936 15.611 54.9613C16.1373 55.0896 16.6741 55.0318 17.2049 55.0752C17.2698 55.0806 17.3391 55.0661 17.4025 55.0463C17.7131 54.9523 18.0298 54.8764 18.3465 54.9071C18.6164 54.9324 18.8803 54.9143 19.1457 54.8782C19.3025 54.8565 19.4548 54.8565 19.6117 54.8854C19.8786 54.936 20.144 54.9613 20.4049 54.8384C20.4908 54.7987 20.5828 54.8186 20.6703 54.8384C20.9146 54.8909 21.1543 54.9125 21.4017 54.842C21.5072 54.8131 21.6279 54.8204 21.7349 54.8475C21.8978 54.889 22.0471 54.8601 22.1933 54.786C22.4904 54.6342 22.798 54.6252 23.1147 54.645C23.4495 54.6667 23.7858 54.6776 24.113 54.5673C24.493 54.439 24.8761 54.374 25.2712 54.4426C25.4054 54.4661 25.535 54.4246 25.6647 54.374C25.8276 54.3107 25.9874 54.3234 26.1533 54.4101C26.461 54.5728 26.6102 54.4571 26.6495 54.0541C26.6585 53.9619 26.6525 53.8661 26.6525 53.7739C26.6525 53.3872 26.669 52.9932 26.7143 52.6191C26.7927 51.9901 26.8033 51.3449 26.9571 50.7287C26.9752 50.6564 26.9646 50.5696 26.9556 50.4901C26.945 50.3961 26.9254 50.3003 26.9631 50.2136C27.0943 49.9099 27.0913 49.5666 27.1622 49.2449C27.2376 48.8997 27.3039 48.5454 27.3205 48.1804C27.3431 47.7159 27.3793 47.2442 27.4728 46.7942C27.5738 46.3098 27.5799 45.8146 27.6538 45.3285C27.7111 44.9489 27.696 44.5568 27.8393 44.1953C27.8755 44.1031 27.8875 43.9857 27.883 43.8808C27.8543 43.3097 28.0534 42.7838 28.1137 42.2308C28.1469 41.929 28.2298 41.638 28.2057 41.3253C28.1966 41.206 28.2012 41.0813 28.2223 40.9657C28.3022 40.5373 28.3595 40.1054 28.4198 39.6716C28.5359 38.8204 28.4801 37.9927 28.355 37.1631C28.3203 36.9372 28.3052 36.6697 28.1454 36.5016C28.0293 36.3787 27.9599 36.2378 27.9192 36.0679C27.8951 35.9613 27.8573 35.8619 27.7774 35.8022C27.5693 35.6432 27.4954 35.3938 27.4562 35.1245C27.4381 34.9998 27.4019 34.8932 27.319 34.8136C27.1456 34.6456 27.0611 34.4142 27.0023 34.1648C26.9752 34.0474 26.9465 33.9299 26.844 33.872C26.6495 33.7618 26.5891 33.5449 26.5439 33.3208C26.4655 32.9341 26.2694 32.6557 25.9995 32.4407C25.897 32.3593 25.8004 32.2672 25.6964 32.1913C25.5622 32.0937 25.4898 31.9491 25.4461 31.7792C25.3028 31.2135 25.4219 30.7165 25.7567 30.3063C25.9181 30.1093 26.0387 29.8942 26.1247 29.6466C26.2272 29.3502 26.3283 29.052 26.4112 28.7466C26.4911 28.4556 26.6087 28.1502 26.5982 27.8574C26.5756 27.3134 26.7414 26.8055 26.7399 26.2688C26.7384 25.779 26.853 25.2964 26.7897 24.7994C26.7429 24.4325 26.6615 24.3548 26.3735 24.5157C26.2393 24.5898 26.102 24.6314 25.9603 24.6711C25.5788 24.7723 25.1912 24.8482 24.8218 24.9946C24.2397 25.2242 23.6742 25.5223 23.0378 25.4067C22.9835 25.3958 22.9262 25.4193 22.8704 25.4157C22.703 25.4049 22.5146 25.4446 22.3728 25.3633C21.9159 25.1049 21.3911 25.291 20.9085 24.9422V24.9332ZM30.1027 93.2904C30.053 93.3084 30.0213 93.3175 29.9912 93.3301C29.388 93.5886 28.7772 93.6771 28.1529 93.4494C27.7171 93.2904 27.3552 92.9723 26.9948 92.6596C26.6585 92.3668 26.5213 92.3687 26.1518 92.6343C25.5939 93.0337 25.0751 93.5054 24.6001 94.0259C24.2306 94.4308 23.7677 94.5681 23.353 94.8374C23.2293 94.9187 23.0695 94.9097 22.9262 94.8537C22.8101 94.8085 22.6835 94.7741 22.5824 94.6946C22.3306 94.4976 22.0637 94.3892 21.7636 94.3856C21.6731 94.3856 21.5917 94.3422 21.5223 94.2627C21.189 93.8849 20.8135 93.9247 20.4365 94.1362C20.3234 94.1994 20.2134 94.2446 20.0912 94.2717C19.9269 94.3079 19.7685 94.3783 19.6057 94.4217C19.1472 94.5446 18.7189 94.7995 18.25 94.8681C17.9408 94.9151 17.6483 94.8844 17.4507 94.5302C17.4085 94.4543 17.3437 94.3928 17.2788 94.3422C17.1265 94.2247 16.9908 94.0928 16.9003 93.8958C16.8098 93.697 16.6681 93.6608 16.4992 93.744C16.4178 93.7837 16.3333 93.8217 16.2534 93.8687C15.3667 94.3964 14.5509 95.0958 13.5948 95.4519C13.5842 95.4555 13.5767 95.4681 13.5662 95.4718C13.3354 95.5748 13.1017 95.7049 12.8574 95.6904C12.1999 95.6507 11.5786 95.4772 11.09 94.879C10.8774 94.6187 10.7417 94.3241 10.7115 93.9645C10.6829 93.6193 10.6316 93.2705 10.6467 92.9271C10.6648 92.5295 10.603 92.1337 10.7085 91.7325C10.8412 91.2228 10.983 90.724 11.1519 90.227C11.3841 89.5384 11.8018 89.0161 12.1185 88.4053C12.3085 88.0402 12.4683 87.6516 12.5814 87.263C12.6915 86.8871 12.6976 86.4353 12.6523 86.0323C12.5754 85.3546 12.5784 84.6822 12.6086 84.0045C12.6192 83.7641 12.6523 83.5219 12.6418 83.2834C12.6207 82.734 12.7639 82.2551 13.0429 81.8303C13.1409 81.6803 13.2148 81.5213 13.2691 81.3424C13.4048 80.8815 13.3747 80.3953 13.4199 79.9218C13.4289 79.8315 13.4199 79.7266 13.3852 79.6471C13.1982 79.2043 13.1681 78.6929 12.9449 78.2645C12.8137 78.0151 12.7654 77.7205 12.7021 77.435C12.6237 77.0826 12.5995 76.7338 12.5905 76.3705C12.5784 75.8771 12.5573 75.3837 12.5995 74.8976C12.6357 74.4783 12.7413 74.0662 12.8378 73.6596C12.9373 73.2439 13.1062 72.8933 13.4033 72.6005C13.7351 72.2734 14.0336 72.174 14.4408 72.3782C14.7183 72.5173 14.8676 72.718 14.958 73.0469C15.0636 73.4246 15.047 73.815 15.0862 74.1981C15.1541 74.8632 15.4391 75.4397 15.6502 76.038C15.9322 76.8332 15.9156 77.6591 15.9714 78.4778C16.0046 78.9712 16.0664 79.4754 15.9397 79.9688C15.9247 80.0266 15.9518 80.1007 15.9593 80.1658C15.9744 80.2742 15.9654 80.3791 15.9397 80.4839C15.8085 80.9917 15.8583 81.5231 15.8432 82.0382C15.8281 82.5966 15.7588 83.146 15.7392 83.7009C15.7316 83.9087 15.7301 84.0967 15.8568 84.2629C15.9925 84.4401 16.1116 84.6353 16.2428 84.8178C16.4223 85.0654 16.5595 85.3274 16.5414 85.6799C16.5007 86.4733 16.9757 86.9305 17.3723 87.4275C17.4749 87.5558 17.6468 87.5974 17.8066 87.6209C17.9061 87.6353 18.0193 87.6408 18.0977 87.7022C18.4038 87.9426 18.731 87.9335 19.0643 87.8504C19.1985 87.8161 19.3267 87.8107 19.4624 87.8305C19.8635 87.8884 20.1938 87.7402 20.3868 87.2938C20.4984 87.0371 20.6733 86.9721 20.8859 86.9865C20.9734 86.992 21.0654 87.0118 21.1483 87.048C21.7485 87.3028 22.2793 86.9992 22.8161 86.7534C22.9217 86.7046 23.0001 86.6052 23.0604 86.4877C23.2127 86.1913 23.3681 85.8949 23.4736 85.5696C23.6651 84.9877 24.1688 84.8015 24.5805 85.1774C24.8746 85.4449 25.1565 85.7305 25.4446 86.0052C25.526 86.0829 25.5939 86.1751 25.612 86.298C25.6512 86.5546 25.7944 86.7552 25.8728 86.992C25.9467 87.2179 26.084 87.3209 26.2951 87.2865C26.3946 87.2703 26.4956 87.254 26.5937 87.2504C26.9043 87.2396 27.227 87.198 27.5241 87.2757C27.7442 87.3335 27.9659 87.3245 28.1816 87.3805C28.3113 87.4131 28.3459 87.3155 28.3173 87.1926C28.2932 87.0913 28.2509 86.992 28.2012 86.907C28.1017 86.7389 28.0398 86.5546 28.0006 86.3576C27.9297 85.9907 27.8347 85.6347 27.7141 85.2859C27.6447 85.0853 27.6146 84.8811 27.6342 84.6588C27.6689 84.2666 27.6115 83.8816 27.506 83.5129C27.3733 83.0521 27.1124 82.6364 27.1773 82.1086C27.1788 82.096 27.1727 82.0815 27.1667 82.0707C26.9586 81.608 26.9526 81.0966 26.9058 80.5905C26.8515 80.0068 26.7807 79.423 26.6887 78.8465C26.6464 78.5808 26.6102 78.3242 26.6238 78.0531C26.6479 77.5832 26.6404 77.1024 26.4941 76.6687C26.3433 76.2241 26.2966 75.7958 26.3871 75.3367C26.4097 75.2211 26.4534 75.1 26.3856 74.9879C26.1744 74.6373 26.2152 74.2505 26.274 73.8656C26.2996 73.6993 26.2875 73.5493 26.2468 73.3921C26.1066 72.8625 26.1955 72.3041 26.1126 71.7673C26.099 71.6806 26.1413 71.5848 26.1533 71.4908C26.1654 71.4113 26.182 71.3318 26.179 71.2541C26.1533 70.4932 26.1367 69.7323 26.0674 68.9733C26.0538 68.8269 26.0538 68.6805 26.0779 68.5341C26.2212 67.6612 26.2363 66.7684 26.3614 65.8448C25.7386 66.1557 25.0977 65.9713 24.4825 66.1033C24.4086 66.1195 24.3241 66.1015 24.2502 66.0762C23.6923 65.89 23.1147 66.0888 22.5553 65.9424C22.5236 65.9334 22.4874 65.9424 22.4557 65.9533C22.0425 66.0906 21.6279 66.1485 21.2041 66.0201C21.0835 65.984 20.9613 66.0256 20.8392 66.0527C20.5647 66.1123 20.2873 66.1539 20.0143 66.0256C19.8982 65.9713 19.7745 65.9894 19.6509 65.993C19.1171 66.0129 18.5817 66.1105 18.0494 65.984C17.8609 65.9388 17.6754 65.9569 17.4839 65.984C17.0632 66.04 16.6379 66.0671 16.2157 66.0942C16.083 66.1033 15.9458 66.0888 15.8161 66.0563C15.6698 66.0201 15.5326 66.0183 15.3878 66.0671C15.1073 66.1611 14.8133 66.2171 14.5267 66.2045C13.9688 66.181 13.4108 66.1918 12.8529 66.181C12.5302 66.1756 12.1954 66.1051 12.0114 65.7165C11.841 65.3551 11.7852 64.943 11.6932 64.5472C11.6616 64.4099 11.7294 64.249 11.8199 64.1478C11.9496 64.0032 12.0717 63.8387 12.2437 63.761C12.7956 63.5116 13.3475 63.2586 13.9039 63.0218C14.0909 62.9423 14.3081 62.9947 14.4921 62.8899C14.7243 62.7562 14.9641 62.7562 15.2129 62.767C15.5582 62.7815 15.9035 62.7688 16.2504 62.7218C16.7164 62.6586 17.1853 62.6261 17.6528 62.5863C18.1731 62.5411 18.6963 62.5574 19.2181 62.5212C19.5845 62.4959 19.9525 62.514 20.3144 62.4164C20.3973 62.3947 20.4908 62.4254 20.5798 62.4363C20.8588 62.467 21.1438 62.5086 21.4107 62.3983C21.6399 62.3025 21.8691 62.2827 22.1029 62.2953C22.8177 62.3297 23.5294 62.2393 24.2442 62.2393C24.8987 62.2393 25.5547 62.1092 26.2121 62.2104C26.2227 62.2104 26.2348 62.2122 26.2453 62.214C26.3735 62.2393 26.4564 62.1471 26.4519 62.0206C26.4413 61.632 26.5484 61.2543 26.4911 60.8639C26.4097 60.3181 26.4821 59.7651 26.5243 59.2265C26.5605 58.7602 26.568 58.294 26.5891 57.8277C26.5982 57.6126 26.5424 57.4084 26.556 57.1879C26.5937 56.5825 26.6464 55.977 26.5861 55.368C26.5499 55.0011 26.4911 54.9559 26.2046 55.1204C26.0945 55.1836 25.9814 55.2469 25.8819 55.3318C25.7492 55.4439 25.6029 55.5035 25.4461 55.5252C25.244 55.5523 25.045 55.6029 24.861 55.6933C24.487 55.8758 24.0813 55.8794 23.7013 56.0475C23.4163 56.1722 23.1057 56.2716 22.792 56.2897C22.6337 56.2987 22.4874 56.3511 22.3351 56.3963C22.0561 56.4813 21.7907 56.6512 21.4921 56.624C21.1181 56.5897 20.7577 56.6313 20.426 56.868C20.337 56.9313 20.236 56.9331 20.1349 56.9475C19.6448 57.0198 19.1653 56.8536 18.6737 56.8698C18.3027 56.8825 17.9182 56.8246 17.5397 56.7903C17.3014 56.7686 17.0466 56.8084 16.8189 56.8969C16.6424 56.9656 16.4751 57.0108 16.2971 56.9909C15.6411 56.9186 14.9867 56.9258 14.3292 56.9421C13.5179 56.962 12.7066 56.8192 11.8938 56.9078C11.8305 56.915 11.7581 56.8915 11.6993 56.859C11.3268 56.6403 10.9136 56.6746 10.5215 56.5771C10.3994 56.5463 10.3134 56.5897 10.2229 56.6927C9.96961 56.9819 9.82937 57.365 9.62579 57.6976C9.49912 57.9036 9.40713 58.1331 9.39356 58.397C9.38903 58.5054 9.34832 58.603 9.29855 58.6934C9.19148 58.8868 9.14323 59.1091 9.09498 59.3296C9.0241 59.6531 8.93212 59.9621 8.79791 60.2585C8.69838 60.479 8.61997 60.7139 8.59735 60.976C8.53854 61.6122 8.31082 62.2176 8.37265 62.8755C8.21732 63.2948 8.30479 63.7466 8.24296 64.1803C8.20828 64.4297 8.16908 64.69 8.1932 64.9358C8.22487 65.2358 8.20074 65.5195 8.17209 65.8141C8.14796 66.0635 8.07709 66.3075 8.12082 66.5677C8.21583 67.137 8.07559 67.7064 8.10424 68.2793C8.11329 68.46 8.05446 68.6606 8.09065 68.8594C8.10422 68.9353 8.10876 69.0257 8.08765 69.0961C8.00924 69.3492 8.03788 69.6004 8.0801 69.8498C8.13138 70.1516 8.10575 70.4354 7.99416 70.7101C7.91273 70.9107 7.89462 71.1131 7.96097 71.3318C8.04089 71.592 8.0409 71.8487 7.93383 72.1107C7.85994 72.2896 7.8313 72.4921 7.86296 72.6981C7.89916 72.9204 7.86296 73.1228 7.74232 73.3035C7.63977 73.4571 7.61716 73.6325 7.61414 73.8295C7.60811 74.2036 7.57494 74.5759 7.65335 74.9464C7.67145 75.0331 7.66088 75.1379 7.63826 75.2247C7.48897 75.7994 7.51009 76.3868 7.56137 76.9723C7.58248 77.2145 7.57794 77.4495 7.56286 77.6916C7.54325 78.0079 7.46334 78.3423 7.55835 78.6459C7.71819 79.1555 7.71065 79.6652 7.64882 80.1857C7.63676 80.2815 7.63073 80.3718 7.65486 80.464C7.74685 80.802 7.68802 81.1273 7.60207 81.4508C7.46333 81.9731 7.46484 82.5062 7.52818 83.0358C7.59754 83.6051 7.73478 84.1672 7.66843 84.7437C7.60057 85.3329 7.60358 85.9184 7.63073 86.5058C7.65184 86.9612 7.50858 87.4004 7.55684 87.8631C7.58247 88.1143 7.66389 88.3583 7.63977 88.6167C7.59453 89.083 7.685 89.5493 7.65786 90.0138C7.6277 90.5324 7.72422 91.0548 7.61112 91.5716C7.57493 91.7361 7.56286 91.915 7.60056 92.0903C7.67445 92.4409 7.64731 92.7789 7.50857 93.1042C7.4573 93.2235 7.41508 93.3392 7.4558 93.4855C7.60509 94.0061 7.54176 94.5175 7.38794 95.0181C7.33064 95.2025 7.32008 95.3832 7.38794 95.5657C7.47088 95.7844 7.47691 96.0049 7.41961 96.2326C7.38643 96.3628 7.35928 96.4947 7.43015 96.6194C7.57794 96.8796 7.54025 97.1507 7.47691 97.4309C7.44524 97.5718 7.36079 97.7074 7.39396 97.8556C7.50103 98.3453 7.49049 98.8568 7.66843 99.3376C7.9278 100.048 8.22639 100.695 8.80395 101.101C9.03467 101.264 9.25031 101.461 9.48254 101.618C9.64691 101.729 9.82484 101.821 10.0133 101.859C10.3587 101.931 10.6754 102.153 11.0418 102.124C11.1217 102.117 11.2062 102.199 11.2906 102.235C11.3751 102.271 11.458 102.314 11.5455 102.33C12.0733 102.421 12.6041 102.491 13.1334 102.571C13.6943 102.656 14.2629 102.714 14.8344 102.681C15.4135 102.647 15.994 102.67 16.5746 102.667C16.6967 102.667 16.8204 102.674 16.938 102.614C17.211 102.477 17.5111 102.45 17.7915 102.468C18.167 102.491 18.5169 102.363 18.8728 102.294C19.1563 102.238 19.4428 102.173 19.7293 102.128C20.0505 102.077 20.3777 102.068 20.6959 102.011C21.2433 101.913 21.7696 101.658 22.3351 101.676C22.4196 101.678 22.5055 101.615 22.5899 101.58C22.8885 101.459 23.1841 101.385 23.5098 101.438C23.7797 101.481 24.0648 101.524 24.3241 101.322C24.4161 101.251 24.5428 101.284 24.6544 101.302C25.1204 101.38 25.5863 101.423 26.0538 101.315C26.1624 101.289 26.2785 101.28 26.3886 101.295C26.8003 101.351 27.2119 101.308 27.6236 101.298C27.9011 101.291 28.1831 101.215 28.456 101.248C28.9129 101.302 29.3669 101.215 29.8223 101.284C30.145 101.333 30.4647 101.248 30.7859 101.204C31.1357 101.158 31.4901 101.044 31.843 101.201C32.2773 101.069 32.7583 101.235 33.164 100.897C33.0524 100.695 32.9574 100.469 32.8503 100.252C32.6437 99.8346 32.6211 99.3068 32.3059 98.9544C32.2426 98.8839 32.2743 98.7393 32.1943 98.6689C31.9123 98.4212 31.8203 98.0508 31.7464 97.6712C31.6288 97.0622 31.4268 96.4893 31.1086 96.0049C30.9231 95.7212 30.8009 95.4573 30.8402 95.1013C30.8583 94.9332 30.7949 94.8121 30.6713 94.7434C30.519 94.6585 30.4541 94.494 30.4481 94.3223C30.433 93.941 30.2701 93.6392 30.1073 93.2976L30.1027 93.2904ZM29.8946 92.7193C29.8358 92.5313 29.7996 92.3958 29.7303 92.2693C29.5568 91.9548 29.4437 91.5897 29.3744 91.2391C29.2869 90.7945 29.1874 90.3626 29.0502 89.9378C28.9989 89.777 28.9582 89.6017 28.9522 89.4318C28.9416 89.1733 28.8345 88.98 28.7214 88.7776C28.6445 88.6384 28.5571 88.5896 28.4138 88.6113C27.9146 88.6818 27.4125 88.6601 26.9134 88.6022C26.3901 88.5408 25.9271 88.2896 25.5019 87.9281C25.4265 87.8649 25.3556 87.789 25.333 87.686C25.2697 87.3968 25.1234 87.1546 25.0254 86.8853C24.9168 86.5853 24.7961 86.2745 24.5368 86.0955C24.3528 85.969 24.291 85.9781 24.2533 86.2094C24.1945 86.5672 24.0421 86.8835 23.9683 87.2341C23.9049 87.5396 23.7405 87.7836 23.4947 87.9281C23.1479 88.1306 22.78 88.3167 22.403 88.1378C22.1029 87.995 21.7968 87.9733 21.4906 87.9137C21.3052 87.8775 21.18 87.9372 21.0985 88.1739C20.9493 88.6059 20.6567 88.8987 20.2827 88.9709C19.6177 89.1011 18.9482 89.3071 18.2696 89.0631C18.2394 89.0523 18.2017 89.0523 18.17 89.0577C17.7433 89.1462 17.3618 88.989 16.9787 88.7794C16.7782 88.6691 16.6575 88.4522 16.4856 88.3348C16.1116 88.0781 16.0302 87.61 15.982 87.2179C15.9307 86.7986 15.8839 86.3431 15.9624 85.904C16.0227 85.5642 15.9216 85.3039 15.6743 85.1214C15.617 85.0798 15.5597 85.0365 15.51 84.9822C15.2566 84.7093 15.0093 84.4166 15.0334 83.9702C15.0636 83.4027 14.9128 82.8605 14.9022 82.2984C14.8917 81.7364 14.8163 81.1797 14.8419 80.6158C14.8525 80.4026 14.9098 80.202 14.8887 79.9797C14.8449 79.5206 14.955 79.0525 14.8615 78.5917C14.857 78.5682 14.8691 78.5393 14.8736 78.514C14.955 78.0513 14.9595 77.5543 14.8645 77.1296C14.7379 76.5567 14.8359 75.9892 14.7469 75.4217C14.6881 75.0512 14.6836 74.6301 14.7499 74.2289C14.7816 74.0355 14.7575 73.8276 14.7454 73.627C14.7394 73.5078 14.7318 73.365 14.6383 73.3017C14.4559 73.1788 14.2628 73.0776 14.0713 72.9746C14.0517 72.9638 14.008 72.9963 13.9824 73.0198C13.8934 73.0993 13.8165 73.1861 13.7667 73.318C13.6536 73.6126 13.5752 73.9162 13.53 74.2325C13.4697 74.668 13.435 75.0964 13.4953 75.5446C13.5632 76.0542 13.5179 76.5802 13.6129 77.0916C13.6596 77.3392 13.6642 77.6067 13.7728 77.8254C13.9175 78.1145 14.0125 78.4254 14.1151 78.7363C14.3367 79.4086 14.4061 80.108 14.388 80.8237C14.3835 81.0189 14.3051 81.1779 14.2071 81.3315C14.0035 81.6496 13.7833 81.9424 13.533 82.2099C13.3068 82.4502 13.2419 82.7774 13.2812 83.1244C13.3053 83.325 13.3038 83.5238 13.3128 83.7244C13.3279 84.0316 13.2646 84.3533 13.3565 84.6425C13.435 84.8883 13.4606 85.1322 13.4681 85.3871C13.4712 85.481 13.4651 85.575 13.5013 85.6636C13.6958 86.1389 13.7019 86.6377 13.6204 87.1456C13.6054 87.2378 13.5963 87.3317 13.5933 87.4239C13.5737 87.995 13.4199 88.5101 13.0806 88.9077C12.8589 89.1679 12.7081 89.4679 12.5739 89.7933C12.4744 90.0354 12.3552 90.2577 12.1894 90.4457C12.0748 90.5758 11.9963 90.7367 11.9421 90.9174C11.8742 91.1433 11.7943 91.3638 11.7174 91.5861C11.4912 92.2349 11.3932 92.9144 11.4233 93.6121C11.4339 93.8416 11.4278 94.0874 11.5379 94.3115C11.8048 94.8609 12.4156 95.3037 13.0927 95.0037C13.1877 94.9621 13.2917 94.9513 13.3792 94.9061C13.7773 94.7001 14.2116 94.5988 14.5675 94.2753C14.8781 93.9952 15.2114 93.753 15.5341 93.4928C15.9186 93.1819 16.3258 92.9072 16.7133 92.5982C16.8656 92.4753 17.024 92.4428 17.1899 92.5205C17.4703 92.6524 17.7433 92.7771 17.9046 93.1349C18.0162 93.3825 18.2198 93.6048 18.4852 93.4621C18.9361 93.2181 19.4111 93.1169 19.8876 92.9867C20.1636 92.9108 20.4365 92.806 20.7231 92.75C21.3655 92.6253 21.931 92.7861 22.4603 93.2434C22.7106 93.4603 23.0046 93.6518 23.3274 93.6067C23.6455 93.5615 23.9652 93.4602 24.2125 93.1801C24.6303 92.7102 25.1596 92.4355 25.618 92.0343C26.1036 91.6114 26.6525 91.559 27.2059 91.8644C27.4788 92.0144 27.7458 92.1861 28.0051 92.3686C28.2811 92.562 28.5752 92.6849 28.8903 92.6849C29.213 92.6849 29.5342 92.7048 29.8946 92.7247V92.7193ZM26.4564 23.8578C26.4715 23.8596 26.5168 23.8633 26.5605 23.8777C26.7098 23.9265 26.7716 23.8831 26.7957 23.6753C26.8349 23.3428 26.85 23.0066 26.8244 22.6795C26.7912 22.2512 26.7897 21.8246 26.7882 21.3963C26.7867 20.9427 26.7746 20.4908 26.7233 20.0372C26.6826 19.6794 26.574 19.3414 26.565 18.9745C26.5499 18.4034 26.4881 17.8323 26.4368 17.263C26.3871 16.7226 26.1775 16.2076 26.2785 15.6437C26.2906 15.5732 26.2453 15.4901 26.2287 15.4124C26.1352 14.9714 26.0327 14.5304 26.0251 14.075C26.0221 13.8852 25.9995 13.7081 25.9678 13.5237C25.8397 12.7538 25.5607 12.0201 25.5818 11.2158C25.5818 11.1779 25.5667 11.1381 25.5531 11.102C25.3737 10.6411 25.333 10.1278 25.1746 9.65974C25.143 9.56396 25.1188 9.47541 25.0208 9.49168C24.8233 9.52602 24.6212 9.54769 24.4297 9.61637C24.1175 9.72661 23.8024 9.80434 23.4766 9.80614C23.353 9.80614 23.2308 9.80253 23.1162 9.8712C22.9247 9.98506 22.7272 9.96879 22.5266 9.90734C22.3638 9.85674 22.2009 9.82241 22.0305 9.82602C21.5856 9.83687 21.1423 9.85494 20.7095 9.67241C20.4169 9.54951 20.325 9.65794 20.3491 10.0248C20.4169 11.1056 20.5044 12.1845 20.5466 13.2671C20.5858 14.2702 20.6205 15.275 20.619 16.2763C20.6175 17.5739 20.717 18.8607 20.7608 20.1547C20.7789 20.6897 20.8904 21.2138 20.8739 21.7541C20.8588 22.2331 20.8859 22.7138 20.8965 23.1946C20.9025 23.4819 20.9342 23.5325 21.1724 23.6175C21.3112 23.6663 21.4635 23.6681 21.5962 23.7331C22.13 23.9934 22.6638 23.8795 23.2097 23.8054C23.6229 23.7494 24.0512 23.7476 24.4629 23.7693C25.051 23.8 25.6331 23.9681 26.2272 23.8633C26.2936 23.8524 26.3614 23.8633 26.4579 23.8633L26.4564 23.8578ZM17.5518 7.01027C17.5518 7.07895 17.5578 7.17291 17.5518 7.26689C17.5352 7.48919 17.591 7.6139 17.778 7.72776C18.2002 7.98439 18.6496 8.1344 19.0869 8.33501C19.3568 8.45971 19.6403 8.382 19.9087 8.47779C19.957 8.49586 19.9826 8.44164 20.0173 8.40911C20.1711 8.26272 20.1968 8.27718 20.2375 8.49767C20.3008 8.84647 20.2993 8.85008 20.5843 8.90069C21.281 9.02901 21.9807 8.96755 22.6804 8.96032C23.4751 8.95309 24.2457 8.74889 25.0254 8.61876C25.0691 8.61153 25.1173 8.59707 25.149 8.56634C25.4023 8.32055 25.713 8.24464 26.0161 8.17958C26.3282 8.11271 26.6193 7.98621 26.9164 7.86873C26.9903 7.83982 27.0566 7.79462 27.138 7.78377C27.4321 7.74401 27.4487 7.73319 27.4547 7.37354C27.4607 6.97232 27.4457 6.5711 27.509 6.17349C27.5256 6.07409 27.5135 5.953 27.4804 5.85722C27.3356 5.42889 27.4502 4.92104 27.1938 4.52705C27.1893 4.14391 26.9737 3.82761 26.9526 3.44808C26.948 3.37579 26.9088 3.29448 26.8651 3.23664C26.7414 3.06856 26.6902 2.86435 26.6525 2.6547C26.5469 2.07456 26.2302 1.77092 25.7416 1.73115C25.2847 1.6932 24.8293 1.74563 24.3724 1.72756C24.1447 1.71852 23.9291 1.77997 23.7149 1.8613C23.1947 2.06371 22.6352 2.06009 22.1179 2.2842C22.0787 2.30227 22.029 2.29143 21.9852 2.28962C21.658 2.26974 21.3398 2.34926 21.0201 2.41793C20.4562 2.54083 19.8922 2.52457 19.3267 2.44686C18.9723 2.39806 18.6179 2.33842 18.2635 2.30769C17.9001 2.27697 17.7599 2.39806 17.6347 2.80651C17.6151 2.86795 17.6045 2.93482 17.5955 3.00169C17.5231 3.53122 17.4372 4.068 17.5035 4.59754C17.5729 5.14153 17.4145 5.69455 17.5865 6.2277C17.6046 6.28372 17.5834 6.35965 17.5714 6.42471C17.5367 6.61086 17.5382 6.79701 17.5518 7.01027ZM26.4459 63.9743C26.4429 63.9165 26.4429 63.8767 26.4398 63.8351C26.4202 63.5441 26.4006 63.5134 26.1518 63.5496C25.9965 63.5713 25.8382 63.5695 25.6859 63.5713C25.2274 63.5767 24.775 63.7014 24.3166 63.658C24.021 63.6291 23.736 63.658 23.457 63.7628C23.2776 63.8297 23.1057 63.8369 22.9383 63.7285C22.7724 63.6201 22.6156 63.6399 22.4663 63.7646C22.2793 63.9219 22.0637 63.9399 21.8556 63.9038C21.5389 63.8478 21.2358 63.9092 20.9266 63.9761C20.72 64.0195 20.5059 64.0719 20.2963 64.0086C20.1621 63.9671 20.0324 64.0032 19.9027 63.9924C19.5152 63.9634 19.1382 63.9797 18.7551 64.0646C18.5863 64.1026 18.3993 64.0466 18.2243 64.0086C17.9046 63.9381 17.5623 64.0086 17.2637 63.9002C16.9094 63.7737 16.5595 63.8062 16.2097 63.7628C16.1207 63.752 16.0302 63.7646 15.9428 63.7466C15.3773 63.6327 14.8133 63.5911 14.2508 63.7664C14.1648 63.7936 14.0759 63.8153 13.9869 63.8225C13.4757 63.8586 13.0188 64.1135 12.5513 64.3249C12.4322 64.3791 12.4231 64.446 12.4819 64.5635C12.69 64.9737 13.1077 65.196 13.5073 65.1057C13.6416 65.0749 13.7743 65.0677 13.907 65.1093C13.9944 65.1364 14.0759 65.1472 14.1694 65.1364C14.5358 65.0912 14.9022 65.0424 15.2687 65.0315C15.9473 65.0099 16.6244 64.9412 17.2999 64.8725C17.4447 64.858 17.5865 64.8075 17.7312 64.8002C18.3299 64.7713 18.9316 64.8888 19.5287 64.755C19.571 64.746 19.6177 64.7641 19.6614 64.7695C20.0716 64.8219 20.4803 64.8671 20.8965 64.8617C21.3413 64.8544 21.7877 64.8219 22.2326 64.8291C22.8342 64.8364 23.4344 64.8598 24.0346 64.8038C24.3905 64.7713 24.7479 64.7822 25.1053 64.8255C25.4174 64.8617 25.722 64.9448 26.0297 65.0026C26.3252 65.0569 26.4097 64.9773 26.4142 64.6376C26.4172 64.4099 26.4368 64.1857 26.4504 63.9779L26.4459 63.9743Z" fill="#FF4D00"/>
</svg>
