<svg width="49" height="106" viewBox="0 0 49 106" fill="none" xmlns="http://www.w3.org/2000/svg">
<path d="M47.4738 54.6311C47.4813 54.7662 47.4708 54.9446 47.5008 55.1122C47.5836 55.5536 47.6693 55.9914 47.7114 56.4454C47.7385 56.7355 47.8257 57.0148 47.7655 57.3139C47.74 57.4364 47.7956 57.5499 47.8407 57.6562C47.8979 57.7878 47.9445 57.9211 47.943 58.0742C47.937 58.8976 48.1009 59.703 48.134 60.5228C48.1415 60.7228 48.1415 60.9246 48.1385 61.1246C48.134 61.5534 48.1881 61.9768 48.2302 62.4002C48.2618 62.7191 48.2813 63.0381 48.2813 63.3588C48.2813 63.5299 48.2874 63.7011 48.343 63.8705C48.4468 64.1768 48.4498 64.5011 48.3655 64.8128C48.2934 65.074 48.2663 65.3281 48.3234 65.5983C48.3595 65.7677 48.3686 65.9461 48.3159 66.1136C48.164 66.6091 48.2272 67.1154 48.2543 67.6199C48.2783 68.0703 48.3355 68.5226 48.2498 68.973C48.2392 69.0235 48.2317 69.0883 48.2483 69.1316C48.4423 69.6144 48.2483 70.1081 48.2783 70.5928C48.2858 70.7135 48.2543 70.8306 48.2197 70.9441C48.1971 71.018 48.161 71.1063 48.1761 71.1748C48.3265 71.8396 48.0768 72.4774 48.0919 73.1333C48.1054 73.7459 48.1024 74.3603 48.0708 74.9711C48.0362 75.6089 47.9926 76.2503 47.9821 76.8863C47.9716 77.5602 47.8723 78.2304 47.9715 78.9169C48.0362 79.3637 47.955 79.843 47.9339 80.3078C47.9294 80.4141 47.9039 80.5168 47.937 80.6231C48.0407 80.9493 48.0242 81.2808 47.949 81.6087C47.8994 81.8177 47.8843 82.0267 47.8919 82.2393C47.9295 83.2249 47.7189 84.1582 47.5054 85.0987C47.4121 85.5113 47.2618 85.9293 47.3445 86.3815C47.355 86.4428 47.3445 86.5167 47.3264 86.5797C47.2196 86.9779 47.1535 87.3797 47.2061 87.8013C47.2211 87.922 47.1745 88.0355 47.1415 88.1491C47.0618 88.4265 47.0001 88.7094 47.0467 89.0103C47.0798 89.2265 47.0542 89.4481 46.9595 89.6319C46.767 90.0085 46.7324 90.4373 46.6753 90.8499C46.579 91.558 46.4602 92.2679 46.4722 92.9922C46.4737 93.1003 46.4572 93.2138 46.4016 93.2967C46.2572 93.5165 46.2467 93.7615 46.2828 94.0192C46.3354 94.4101 46.1414 94.7399 46.0963 95.1056C46.0918 95.1416 46.0662 95.1849 46.0406 95.2011C45.7609 95.3741 45.7098 95.7182 45.6091 96.0245C45.5309 96.2587 45.4677 96.5002 45.2872 96.6677C45.188 96.7596 45.2045 96.9452 45.1248 97.0569C44.9384 97.3182 44.7338 97.565 44.6316 97.8983C44.2812 98.1362 44.1955 98.628 43.9398 98.9451C43.6015 99.3649 43.3097 99.8388 42.7909 100.046C42.3728 100.214 41.9067 100.309 41.5533 100.686C41.4796 100.763 41.3728 100.823 41.2721 100.788C41.0179 100.698 40.7893 100.81 40.5547 100.882C40.4149 100.925 40.2735 100.952 40.1277 100.965C39.4073 101.032 38.684 101.037 37.9772 101.264C37.6749 101.359 37.3516 101.287 37.0478 101.253C36.6132 101.201 36.2117 101.341 35.7952 101.397C35.3305 101.459 34.8808 101.626 34.4071 101.624C34.2432 101.624 34.0718 101.687 33.9319 101.795C33.7079 101.967 33.4567 102.041 33.2056 102.073C32.9559 102.104 32.7319 102.192 32.5018 102.302C32.1499 102.469 31.7815 102.585 31.407 102.644C31.0476 102.7 30.7514 102.95 30.4025 103.046C29.64 103.253 28.9212 103.623 28.1919 103.954C28.1302 103.983 28.0655 104.017 28.0159 104.066C27.7392 104.336 27.3933 104.403 27.067 104.522C26.9287 104.572 26.7858 104.604 26.6535 104.675C26.4685 104.774 26.276 104.812 26.073 104.835C25.7542 104.871 25.4444 104.988 25.1226 105.021C24.7165 105.06 24.3135 105.158 23.906 105.203C23.5736 105.24 23.2458 105.307 22.9165 105.374C22.4623 105.462 22.0082 105.635 21.536 105.413C21.3074 105.305 21.0412 105.363 20.8066 105.413C20.4367 105.493 20.0998 105.376 19.754 105.28C19.6442 105.249 19.5374 105.195 19.4276 105.226C19.0562 105.331 18.6757 105.304 18.2998 105.347C17.999 105.381 17.6997 105.406 17.4005 105.332C17.1764 105.278 16.9463 105.287 16.7418 105.397C16.3989 105.583 16.0486 105.5 15.7267 105.41C15.4891 105.343 15.2741 105.307 15.044 105.37C14.444 105.536 13.85 105.442 13.25 105.349C12.7672 105.275 12.289 105.181 11.7912 105.255C11.2724 105.332 10.7461 105.23 10.2333 105.102C9.85433 105.008 9.47537 105.057 9.10242 105.08C8.60466 105.111 8.1099 105.078 7.61364 105.08C7.19257 105.084 6.78053 105.075 6.36398 104.988C6.11735 104.938 5.85718 104.977 5.60454 105.075C5.29025 105.194 4.96843 105.145 4.64812 105.053C4.30374 104.954 3.94584 104.956 3.59545 104.867C3.19694 104.767 2.91873 104.41 2.54127 104.293C2.5127 104.284 2.48112 104.246 2.46909 104.213C2.29465 103.693 1.842 103.48 1.57132 103.06C1.46154 102.889 1.34574 102.736 1.30213 102.523C1.17581 101.929 0.930694 101.381 0.841969 100.772C0.79084 100.419 0.693082 100.071 0.775792 99.7055C0.811883 99.5469 0.796842 99.3848 0.772781 99.228C0.724659 98.9181 0.7758 98.6172 0.802869 98.3127C0.863021 97.6515 1.09009 97.0227 1.06303 96.3452C1.06303 96.3182 1.06151 96.2858 1.07204 96.2659C1.34273 95.7903 1.19536 95.1741 1.46004 94.6768C1.57433 94.4606 1.54425 94.1038 1.52019 93.8174C1.48711 93.4192 1.61041 93.057 1.63898 92.6732C1.66906 92.2679 1.82396 91.8823 1.7999 91.4643C1.79689 91.412 1.7999 91.3526 1.81945 91.3075C1.96231 90.9544 1.99689 90.5706 2.05855 90.1904C2.09464 89.9688 2.16381 89.7598 2.14727 89.5256C2.13975 89.4121 2.15931 89.2715 2.21044 89.1778C2.46308 88.7148 2.43902 88.1887 2.4721 87.677C2.48413 87.5004 2.50217 87.3256 2.56383 87.1707C2.72474 86.7635 2.78038 86.3329 2.80444 85.8915C2.80895 85.7978 2.8255 85.7077 2.8661 85.6248C3.04505 85.2626 3.13978 84.8735 3.13828 84.4501C3.13828 84.3582 3.13679 84.2501 3.17138 84.1744C3.36838 83.7636 3.418 83.2915 3.55936 82.8573C3.64056 82.6105 3.72177 82.3636 3.67515 82.0826C3.64658 81.9096 3.68568 81.733 3.7729 81.5871C3.86313 81.4357 3.90824 81.297 3.84057 81.1078C3.78192 80.9438 3.80899 80.7637 3.85711 80.5961C3.95937 80.243 4.04359 79.888 3.99246 79.5061C3.98043 79.4124 3.99246 79.3115 4.03758 79.2358C4.16239 79.0304 4.19398 78.7962 4.18946 78.5547C4.18044 78.007 4.43909 77.5331 4.4827 77.0034C4.52481 76.4845 4.80302 76.0323 4.76843 75.4954C5.01656 74.9224 4.96542 74.2431 5.22859 73.672C5.34739 73.4125 5.39401 73.1207 5.35791 72.818C5.31731 72.472 5.40153 72.1567 5.54589 71.863C5.6271 71.6991 5.66771 71.5279 5.7038 71.3423C5.76546 71.0198 5.85569 70.7045 5.95645 70.3964C6.01209 70.227 6.04215 70.0739 6.00005 69.8955C5.9414 69.6469 5.98952 69.4181 6.13539 69.2253C6.27375 69.0415 6.30682 68.8289 6.28126 68.591C6.24968 68.2956 6.24066 68.0037 6.41811 67.755C6.44518 67.7172 6.46774 67.6541 6.46173 67.6073C6.39556 66.9911 6.7294 66.4704 6.7324 65.856C6.73391 65.4452 6.95197 65.0524 7.0437 64.638C7.14897 64.1551 7.21514 63.6489 7.49786 63.2435C7.53546 63.1894 7.54146 63.0921 7.53995 63.0146C7.53243 62.6002 7.65125 62.2291 7.79712 61.8651C7.86479 61.6958 7.91291 61.521 7.94298 61.3354C8.02419 60.8543 8.14901 60.3859 8.3039 59.9318C8.32496 59.8706 8.36404 59.8093 8.36555 59.7463C8.37758 59.3246 8.61669 59.0111 8.73249 58.64C8.79715 58.4292 8.90091 58.2382 8.91444 58.004C8.92647 57.8112 9.06482 57.6868 9.11745 57.5049C9.44077 56.3734 9.79869 55.2581 10.107 54.1194C10.2273 53.6744 10.3641 53.2185 10.5416 52.7843C10.6995 52.3969 10.8453 51.9879 11.0047 51.6006C11.2935 50.8997 11.5251 50.17 11.8273 49.4763C12.0093 49.0601 12.1552 48.6078 12.2875 48.161C12.5792 47.1754 13.0078 46.2728 13.4139 45.3539C13.6199 44.8872 13.8124 44.4098 14.0033 43.9341C14.077 43.7521 14.1673 43.59 14.271 43.4314C14.4199 43.2026 14.5853 42.9774 14.6274 42.6711C14.6545 42.4747 14.7778 42.3395 14.8876 42.2152C15.2244 41.8368 15.4696 41.3774 15.7403 40.9396C15.7733 40.8855 15.8034 40.8279 15.8425 40.7828C16.4441 40.0892 16.7794 39.1721 17.2501 38.3685C17.3072 38.2712 17.3508 38.1649 17.4275 38.082C17.6817 37.8135 17.8441 37.4766 18.008 37.1199C18.2005 36.7001 18.3975 36.2406 18.8126 36.0352C18.8517 36.0154 18.8892 35.9758 18.9133 35.9343C19.1855 35.4785 19.5675 35.1325 19.8081 34.6479C19.9149 34.4335 20.0607 34.2803 20.2562 34.1902C20.4277 34.111 20.563 33.9902 20.6412 33.774C20.7269 33.5362 20.963 33.4948 21.0984 33.329C21.2247 33.174 21.2097 32.893 21.3691 32.7452C21.6578 32.475 21.8773 32.1254 22.1195 31.8029C22.2473 31.6335 22.3405 31.4335 22.3856 31.2083C22.3992 31.1435 22.4052 31.0714 22.4353 31.0174C22.9105 30.1687 22.8172 29.203 22.8067 28.2661C22.7977 27.549 22.7105 26.8337 22.6593 26.1184C22.6533 26.0337 22.6187 25.967 22.6007 25.8914C22.527 25.5815 22.4743 25.268 22.5029 24.9454C22.5525 24.3869 22.5029 23.8283 22.512 23.2716C22.521 22.7077 22.4247 22.1347 22.4142 21.5654C22.4037 20.978 22.2984 20.3978 22.348 19.8086C22.3556 19.7186 22.336 19.6231 22.3225 19.5294C22.2713 19.151 22.1916 18.7816 22.2157 18.3853C22.2337 18.0573 22.1886 17.7186 22.0743 17.4069C22.0608 17.3709 22.0473 17.3276 22.0503 17.2898C22.1149 16.6502 21.8864 16.043 21.9089 15.407C21.9119 15.3097 21.8864 15.2268 21.8653 15.1367C21.7826 14.7926 21.6563 14.461 21.6924 14.0845C21.7029 13.9854 21.6818 13.8593 21.6352 13.7782C21.366 13.3025 21.363 12.7458 21.2638 12.2143C21.1615 11.6665 21.1766 11.0972 21.0262 10.5603C21.0066 10.4864 20.9976 10.3999 21.0066 10.3224C21.0878 9.59452 20.9164 8.89725 20.8397 8.18916C20.8322 8.12429 20.7991 8.05944 20.8036 7.99458C20.8202 7.69188 20.778 7.38919 20.775 7.0919C20.7735 6.74056 20.8217 6.37479 20.8999 6.02525C20.9856 5.64148 21.0743 5.2577 21.0262 4.8487C21.0081 4.69556 21.0563 4.53162 21.0593 4.37306C21.0653 4.04154 21.0412 3.70461 21.0547 3.3821C21.0743 2.87941 21.1299 2.36951 21.536 2.00015C21.7961 1.76232 22.0398 1.57854 22.3631 1.55151C22.3962 1.54791 22.4368 1.5443 22.4593 1.52088C22.8097 1.14431 23.2819 1.24701 23.6804 1.06863C24.1481 0.859632 24.6383 0.86505 25.1211 0.789377C25.4038 0.744333 25.676 0.819998 25.9527 0.848826C26.2189 0.877654 26.482 0.938923 26.7452 0.992975C26.9873 1.04162 27.2249 1.05783 27.473 1.02539C28.0716 0.949721 28.6611 1.07766 29.2069 1.35152C29.4476 1.47224 29.6776 1.69926 29.8566 1.95871C29.9679 2.12087 30.022 2.33528 29.9784 2.52446C29.9002 2.8686 30.004 3.16227 30.1032 3.45235C30.207 3.75684 30.228 4.06856 30.2686 4.38566C30.3543 5.06853 30.422 5.75319 30.5423 6.43245C30.6822 7.22522 30.9078 8.00537 30.8596 8.83598C30.8491 9.01976 30.8837 9.20716 30.9002 9.39454C30.9063 9.4612 30.9363 9.53147 30.9243 9.59092C30.8356 10.0287 30.9739 10.4594 30.9453 10.9008C30.9077 11.4864 31.0371 12.0683 31.016 12.6575C30.9995 13.1638 31.1002 13.6629 31.1559 14.1584C31.198 14.5331 31.2792 14.9277 31.3799 15.3079C31.4807 15.688 31.6642 16.0286 31.7198 16.425C31.7303 16.5024 31.7514 16.5853 31.7905 16.6466C31.9514 16.9024 31.9634 17.1925 31.9319 17.4898C31.9078 17.7078 31.9319 17.9132 31.9664 18.124C32.0101 18.3853 32.0446 18.6501 32.0612 18.915C32.0882 19.3708 32.18 19.7996 32.3259 20.2249C32.4386 20.5528 32.5529 20.8951 32.5484 21.2645C32.5409 21.7257 32.6116 22.1653 32.7845 22.5779C32.8567 22.7491 32.8868 22.9311 32.8913 23.1203C32.8943 23.2572 32.9184 23.3851 32.98 23.5004C33.0477 23.6284 33.0883 23.7707 33.0883 23.9166C33.0883 24.5959 33.3003 25.2211 33.4537 25.8535C33.5424 26.2175 33.5846 26.5706 33.6267 26.9382C33.6612 27.2391 33.8011 27.5039 33.9394 27.7598C33.9695 27.8138 34.0357 27.8481 34.0522 27.9057C34.2387 28.5976 34.8222 28.8715 35.153 29.412C35.2944 29.6426 35.4297 29.8822 35.5921 30.1039C35.8688 30.4786 36.1531 30.857 36.3681 31.2966C36.4343 31.4335 36.532 31.5453 36.5636 31.7092C36.5937 31.8606 36.6929 31.956 36.7817 32.0569C36.9711 32.2695 37.132 32.5056 37.2148 32.8047C37.2448 32.9092 37.308 32.9848 37.3636 33.0677C37.5125 33.2857 37.6524 33.5074 37.7005 33.7956C37.7276 33.956 37.7982 34.0929 37.8824 34.219C37.9576 34.3326 38.0524 34.4334 38.0494 34.5992C38.0494 34.6244 38.0554 34.6623 38.0689 34.6731C38.3877 34.9127 38.481 35.4028 38.8103 35.6298C38.8584 35.6641 38.9111 35.6965 38.9472 35.7451C39.2915 36.21 39.7351 36.5199 40.1532 36.8694C40.7171 37.3415 41.2826 37.8135 41.8375 38.3C42.0555 38.491 42.3037 38.6135 42.5292 38.7829C42.8541 39.0279 43.1443 39.2946 43.2646 39.772C43.3203 39.9937 43.43 40.2315 43.5744 40.3792C43.8466 40.6603 43.8466 41.1017 44.0646 41.4116C44.1353 41.5125 44.1143 41.7197 44.1128 41.8801C44.1098 42.1702 44.1654 42.4368 44.3007 42.6765C44.4256 42.8963 44.4692 43.1359 44.4511 43.399C44.4346 43.6584 44.4692 43.8998 44.6301 44.1034C44.7414 44.2458 44.7699 44.435 44.7459 44.6296C44.7083 44.9413 44.794 45.2169 44.9519 45.4476C45.0602 45.6043 45.1068 45.7701 45.1053 45.9611C45.0993 46.4692 45.2872 46.8908 45.5218 47.2853C45.6437 47.4907 45.7038 47.6998 45.7309 47.9466C45.785 48.4511 45.8812 48.9502 46.1128 49.3844C46.2151 49.5772 46.2542 49.77 46.2497 49.988C46.2452 50.2186 46.2587 50.4474 46.4196 50.6132C46.5264 50.7249 46.4632 50.8943 46.5249 51.024C46.7264 51.4528 46.8362 51.9339 47.0542 52.3573C47.176 52.5951 47.176 52.896 47.2031 53.1717C47.2196 53.3338 47.2422 53.4852 47.3144 53.6257C47.4678 53.9212 47.5174 54.2437 47.4618 54.6239L47.4738 54.6311ZM46.4873 83.2699C46.1579 83.4807 45.8437 83.5492 45.6181 83.7816C45.1805 84.2321 44.6541 84.3546 44.1143 84.4393C43.9007 84.4717 43.7203 84.6753 43.5067 84.6338C43.203 84.5744 42.9383 84.7113 42.6601 84.7978C42.5744 84.8248 42.4871 84.8663 42.4014 84.8681C41.8255 84.8789 41.248 84.8609 40.678 85.0086C40.5487 85.0428 40.4104 85.0266 40.284 84.9564C40.1216 84.8645 39.9592 84.8861 39.7968 84.9618C39.7351 84.9906 39.6705 85.0392 39.6088 85.0338C39.1652 84.9978 38.7126 85.0086 38.284 84.8915C37.7185 84.7365 37.1275 84.8104 36.5771 84.5636C36.511 84.5329 36.4237 84.5744 36.3456 84.5816C35.8012 84.623 35.2658 84.6032 34.732 84.4284C34.5019 84.3528 34.2522 84.3492 34.0146 84.4699C33.762 84.5978 33.4988 84.6284 33.2312 84.5185C33.0718 84.4537 32.9048 84.4501 32.7364 84.4428C31.9138 84.414 31.0912 84.3708 30.2686 84.342C29.9694 84.3311 29.6611 84.3005 29.3724 84.3708C29.1363 84.4285 28.9107 84.4068 28.6806 84.4194C28.446 84.432 28.2671 84.2573 28.04 84.2321C27.7061 84.1942 27.3633 84.2465 27.0445 84.1726C26.5211 84.0519 26.0038 84.1726 25.4865 84.1275C25.4429 84.1239 25.3978 84.1348 25.3557 84.151C25.0218 84.2735 24.6729 84.2771 24.3331 84.2663C23.8067 84.2519 23.2894 84.2645 22.7811 84.4428C22.7059 84.4699 22.6247 84.4861 22.5495 84.4519C22.1586 84.2699 21.7826 84.3762 21.4051 84.5167C21.2773 84.5636 21.151 84.5888 21.0111 84.5708C20.6472 84.5275 20.2803 84.5149 19.9194 84.614C19.7509 84.6591 19.5945 84.6446 19.4261 84.6086C19.1314 84.5438 18.8306 84.4771 18.5329 84.4807C18.0772 84.4879 17.6757 84.2555 17.2471 84.1402C17.1824 84.1221 17.1238 84.0771 17.0621 84.0465C16.8591 83.9474 16.7674 83.7672 16.7162 83.5077C16.5613 82.7114 16.7012 81.9186 16.7072 81.124C16.7102 80.5781 16.7794 80.0196 16.6997 79.4916C16.608 78.8754 16.6576 78.2376 16.4726 77.6394C16.4501 77.5692 16.4606 77.4809 16.4651 77.4016C16.4967 76.8503 16.3343 76.3494 16.1734 75.8557C16.0831 75.5764 16.0455 75.2954 16.0155 75.0035C15.9673 74.5314 16.1373 74.0233 15.8515 73.5873C15.8094 73.5224 15.7959 73.3999 15.8124 73.317C15.8997 72.8792 15.7598 72.4648 15.6831 72.063C15.5718 71.4847 15.5899 70.8973 15.5057 70.3189C15.4485 69.9315 15.4335 69.528 15.3884 69.1334C15.3042 68.3983 15.1342 67.6631 15.3673 66.9226C15.4034 66.8091 15.3598 66.6848 15.3508 66.5659C15.3162 66.1299 15.2846 65.701 15.3643 65.256C15.45 64.7659 15.4891 64.2596 15.4215 63.7461C15.3643 63.3155 15.4891 62.8759 15.632 62.5101C15.7643 62.1714 15.8155 61.8363 15.8711 61.4903C15.9237 61.1642 15.8967 60.8021 16.044 60.5192C16.1719 60.2724 16.229 60.0129 16.3042 59.7499C16.4456 59.2616 16.5027 58.7337 16.7809 58.3103C16.826 58.24 16.8411 58.1391 16.8621 58.0508C16.8877 57.9481 16.9117 57.8508 16.9704 57.7625C17.3057 57.249 17.4305 56.6148 17.6516 56.0365C17.6697 55.9896 17.6666 55.932 17.6712 55.8779C17.6892 55.6905 17.7373 55.5158 17.7885 55.3374C17.9464 54.8005 18.1479 54.2851 18.3088 53.7482C18.4291 53.3446 18.5945 52.9518 18.9765 52.7537C19.2171 52.6275 19.4336 52.5663 19.6758 52.6924C19.7374 52.723 19.7991 52.7789 19.8607 52.7771C20.1254 52.7681 20.3615 52.887 20.6066 52.9807C20.8818 53.087 21.172 53.2419 21.4548 53.1284C21.8217 52.9825 22.2443 53.1519 22.5751 52.8311C22.9706 52.8636 23.3601 52.8077 23.7496 52.723C23.8579 52.6996 23.9737 52.732 24.0819 52.7068C24.3707 52.6383 24.6609 52.6546 24.9481 52.6906C25.1376 52.714 25.3226 52.705 25.5121 52.6906C25.8309 52.669 26.1527 52.6492 26.4685 52.8005C26.7061 52.914 26.9617 52.9573 27.2099 52.7717C27.3437 52.6708 27.5031 52.6546 27.6625 52.7122C27.84 52.7771 28.0144 52.7501 28.1874 52.6744C28.2595 52.642 28.3392 52.6131 28.4144 52.6167C28.8445 52.6347 29.2385 52.424 29.6536 52.3411C29.825 52.3068 30.0235 52.3104 30.1709 52.2095C30.6055 51.9105 31.1108 51.9393 31.5679 51.7447C31.777 51.6564 32.007 51.5501 32.2446 51.5555C32.5394 51.5609 32.8116 51.4456 33.0928 51.3609C33.5229 51.2294 33.9274 50.9753 34.3756 50.9519C34.7199 50.9339 35.0207 50.7663 35.3214 50.6132C35.7154 50.415 36.0989 50.2186 36.5411 50.2835C36.6147 50.2943 36.6959 50.2654 36.7696 50.2402C37.0388 50.1465 37.314 50.1141 37.5922 50.0835C37.8449 50.0564 38.0945 50.0168 38.3381 49.9141C38.5772 49.8132 38.8238 49.7213 39.09 49.7772C39.1968 49.7988 39.3126 49.7844 39.4224 49.7664C39.8179 49.7033 40.2164 49.6691 40.6119 49.624C41.2826 49.5465 41.9488 49.4709 42.615 49.3267C43.1293 49.215 43.6451 49.0709 44.2421 49.0817C44.0075 48.7592 43.9128 48.4186 43.9714 48.0763C44.0451 47.6457 43.8782 47.3592 43.6661 47.0763C43.5819 46.9646 43.5188 46.8475 43.4902 46.698C43.403 46.2295 43.2902 45.7683 43.1443 45.3214C43.0736 45.107 43.021 44.8944 43.0315 44.662C43.042 44.4404 42.9894 44.2476 42.8661 44.0728C42.7097 43.853 42.5984 43.5845 42.6481 43.2981C42.7067 42.9593 42.6029 42.6873 42.4631 42.4368C42.3473 42.2296 42.3172 41.9432 42.1067 41.8224C41.9337 41.7233 41.8691 41.5468 41.8405 41.345C41.8074 41.1162 41.7518 40.8963 41.6315 40.718C41.4781 40.4909 41.4044 40.2333 41.3563 39.9558C41.3157 39.7198 41.2675 39.4874 41.2224 39.2531C41.1322 38.7703 40.9728 38.3396 40.6014 38.0676C40.5547 38.0333 40.5186 37.9775 40.4735 37.9379C40.1171 37.6226 39.7728 37.282 39.3983 36.9992C39.0043 36.7019 38.5907 36.4424 38.2449 36.0623C38.1291 35.9361 37.9892 35.8442 37.8734 35.7271C37.6313 35.4821 37.3576 35.2641 37.1832 34.9326C37.0794 34.7362 36.9486 34.574 36.7982 34.4371C36.708 34.3542 36.6238 34.2677 36.5681 34.1524C36.3907 33.7866 36.123 33.5074 35.944 33.1308C35.72 32.6623 35.3741 32.284 35.0854 31.8624C34.7635 31.3939 34.4387 30.9237 34.1034 30.4678C33.9364 30.2426 33.8447 29.9417 33.5845 29.8102C33.5063 29.7705 33.4537 29.63 33.4116 29.5237C33.3124 29.2769 33.1214 29.1651 32.9364 29.0516C32.7995 28.967 32.6462 28.9219 32.4973 28.866C32.3469 28.812 32.2642 28.7003 32.198 28.5237C32.0206 28.0517 31.9258 27.5418 31.7243 27.0805C31.6371 26.8787 31.5935 26.6553 31.5875 26.4247C31.5845 26.331 31.5965 26.2265 31.5409 26.1544C31.2717 25.8103 31.3033 25.3652 31.2521 24.949C31.2341 24.8031 31.2296 24.6554 31.183 24.5184C31.1108 24.3094 31.0401 24.2788 30.8792 24.3995C30.813 24.4481 30.7514 24.5076 30.6747 24.5292C30.213 24.6572 29.7498 24.713 29.2896 24.5256C29.1799 24.4806 29.0731 24.45 28.9633 24.4986C28.6069 24.6554 28.2295 24.6968 27.864 24.8103C27.6129 24.8878 27.3588 24.8896 27.1001 24.8698C26.7783 24.8463 26.4595 24.7743 26.1331 24.7905C25.7211 24.8103 25.309 24.8193 24.9075 24.6608C24.7496 24.5977 24.5556 24.668 24.4203 24.5436C24.1872 24.3274 23.8639 24.3563 23.6473 24.095C23.5571 23.9869 23.4563 24.0554 23.4443 24.2175C23.4037 24.7617 23.3375 25.3004 23.4488 25.8499C23.5255 26.2247 23.5962 26.6139 23.5902 26.9958C23.5796 27.6373 23.6879 28.2661 23.6654 28.9093C23.6428 29.5597 23.6203 30.2119 23.6022 30.8624C23.5767 31.7488 23.2067 32.4641 22.8939 33.2029C22.7014 33.6569 22.3495 33.9974 22.0924 34.4082C21.8006 34.8731 21.4442 35.2496 21.0668 35.592C20.8111 35.8226 20.6126 36.1001 20.4171 36.3866C20.2938 36.5685 20.1946 36.7721 20.0547 36.9487C19.9374 37.0946 19.8006 37.2045 19.6833 37.3469C19.4321 37.6496 19.2291 37.9973 19.0592 38.3703C18.984 38.536 18.9118 38.7216 18.7765 38.8081C18.602 38.9198 18.5539 39.0838 18.5283 39.2892C18.5058 39.4766 18.4697 39.6801 18.2922 39.7342C18.0667 39.8027 17.9584 39.9757 17.9043 40.2279C17.8847 40.3216 17.8351 40.3955 17.7689 40.4513C17.6892 40.5198 17.6636 40.6153 17.6531 40.727C17.6185 41.1071 17.3689 41.3089 17.1584 41.5288C17.0742 41.617 16.9884 41.6837 16.9418 41.8116C16.9012 41.9215 16.8456 42.0188 16.7614 42.0945C16.5283 42.3071 16.3538 42.5756 16.2095 42.8819C16.1192 43.0747 16.0425 43.2945 15.8681 43.4134C15.3372 43.7755 15.0951 44.507 14.5643 44.871C14.5477 44.8836 14.5387 44.9142 14.5282 44.9377C14.432 45.1773 14.2876 45.3827 14.1673 45.6025C13.871 46.1448 13.677 46.7592 13.4304 47.3376C13.286 47.6781 13.1763 48.0439 13.0229 48.3844C12.9176 48.6168 12.8138 48.8583 12.7552 49.1105C12.6349 49.6258 12.5191 50.1357 12.2394 50.5699C12.1732 50.6708 12.1431 50.8096 12.1116 50.9375C11.9747 51.4726 11.7642 51.9699 11.5567 52.469C11.4439 52.7392 11.3326 53.0113 11.2484 53.296C11.122 53.7266 10.9326 54.1338 10.916 54.6041C10.9115 54.7122 10.8544 54.8023 10.7957 54.8851C10.7295 54.9824 10.698 55.1031 10.7085 55.2221C10.7311 55.4887 10.6438 55.7175 10.5686 55.9554C10.4468 56.3409 10.3025 56.7229 10.2288 57.1229C10.1551 57.5175 10.0468 57.9067 9.90696 58.2508C9.67537 58.8201 9.5671 59.431 9.42574 60.0201C9.28739 60.5985 9.20919 61.2129 9.1355 61.8183C9.10993 62.0327 9.07384 62.2435 9.00467 62.4363C8.88887 62.7588 8.87384 63.0795 8.93249 63.4146C8.96106 63.5768 8.97912 63.7515 8.88738 63.8777C8.6949 64.1425 8.6979 64.465 8.6573 64.7785C8.62421 65.029 8.59262 65.2812 8.53397 65.5245C8.47081 65.7839 8.44826 66.0434 8.44375 66.3136C8.43623 66.7731 8.36405 67.2145 8.08734 67.5677C8.00463 67.674 7.99562 67.7965 8.01968 67.9406C8.06931 68.2307 8.08434 68.528 8.01366 68.8127C7.96554 69.0054 7.91741 69.1928 7.89937 69.3946C7.88734 69.5406 7.84524 69.6811 7.75802 69.7928C7.67681 69.8991 7.65124 70.0252 7.67831 70.1658C7.752 70.5676 7.66176 70.9027 7.40611 71.1784C7.30235 71.2919 7.2452 71.4288 7.27678 71.6072C7.32491 71.8846 7.24672 72.1297 7.13845 72.3729C7.06025 72.5477 6.95497 72.7116 6.9249 72.9134C6.84219 73.4666 6.6121 73.9603 6.50683 74.5116C6.38352 75.153 6.03915 75.7152 5.96847 76.3872C5.96246 76.4377 5.9369 76.4863 5.91584 76.5332C5.76847 76.8683 5.69177 77.2304 5.63162 77.598C5.61057 77.7313 5.5835 77.8611 5.52034 77.9728C5.40454 78.1818 5.36393 78.4088 5.35942 78.6556C5.35641 78.9007 5.32484 79.1349 5.16243 79.3151C5.09626 79.3889 5.05715 79.4898 5.05715 79.6015C5.05264 80.1114 4.91279 80.5997 4.90827 81.1096C4.90376 81.5078 4.89775 81.9078 4.70526 82.2609C4.68722 82.2916 4.6842 82.3366 4.67969 82.3762C4.606 82.9942 4.52631 83.6123 4.35036 84.205C4.34585 84.2176 4.34735 84.232 4.34284 84.2447C4.22253 84.6338 4.23155 85.0771 4.07817 85.4338C3.90823 85.8284 3.88419 86.25 3.79396 86.6554C3.63907 87.3617 3.52928 88.0842 3.52026 88.8211C3.51875 88.94 3.49318 89.0589 3.43904 89.1652C3.23001 89.576 3.23002 90.0373 3.2616 90.4841C3.28416 90.7904 3.25258 91.0769 3.16235 91.34C3.02851 91.7291 3.01498 92.1165 3.05859 92.5183C3.07062 92.6246 3.07063 92.7273 3.0616 92.8354C3.01047 93.4282 2.8285 93.9903 2.84504 94.6011C2.8691 95.4515 2.75331 96.2966 2.59541 97.12C2.45405 97.8569 2.52925 98.6082 2.40444 99.3397C2.39842 99.3776 2.40142 99.4226 2.41345 99.4586C2.50669 99.7199 2.4721 99.983 2.43601 100.248C2.39541 100.549 2.44503 100.817 2.58338 101.084C2.71572 101.34 2.8706 101.597 2.91421 101.902C2.94279 102.104 3.00747 102.253 3.13679 102.372C3.31424 102.536 3.46763 102.727 3.60147 102.945C3.67515 103.066 3.76538 103.159 3.87816 103.23C4.42405 103.576 5.01355 103.668 5.61658 103.619C5.95945 103.592 6.2978 103.5 6.63917 103.639C6.69782 103.662 6.77452 103.655 6.83768 103.635C7.30687 103.489 7.77755 103.489 8.25276 103.585C8.35051 103.604 8.45277 103.599 8.55352 103.59C8.79564 103.572 9.03926 103.493 9.26784 103.668C9.29942 103.691 9.35507 103.682 9.39718 103.671C9.86036 103.556 10.3265 103.603 10.7867 103.671C11.298 103.749 11.8078 103.723 12.3176 103.722C12.5838 103.722 12.8469 103.633 13.0981 103.81C13.1402 103.841 13.2093 103.832 13.262 103.819C13.4966 103.768 13.7267 103.815 13.9567 103.869C14.1447 103.914 14.3387 103.931 14.5131 103.819C14.6846 103.709 14.85 103.722 15.029 103.779C15.5162 103.934 16.014 103.956 16.5147 103.9C16.5809 103.893 16.6591 103.896 16.7087 103.855C16.8997 103.702 17.1057 103.709 17.3178 103.732C17.417 103.743 17.5238 103.75 17.617 103.718C17.9524 103.603 18.2998 103.599 18.6396 103.523C18.8968 103.468 19.166 103.385 19.4141 103.595C19.4923 103.662 19.5885 103.601 19.6758 103.601C19.9961 103.606 20.3209 103.496 20.6382 103.632C20.9781 103.776 21.3239 103.851 21.6849 103.767C21.7706 103.747 21.8653 103.747 21.9495 103.77C22.3706 103.891 22.8067 103.916 23.2233 104.062C23.4293 104.134 23.6383 104.158 23.8519 104.113C23.9316 104.096 24.0082 104.102 24.0819 104.143C24.2624 104.244 24.4534 104.228 24.6414 104.212C25.0474 104.177 25.4534 104.136 25.8594 104.093C25.9361 104.086 26.0098 104.048 26.085 104.024C26.6956 103.824 27.2685 103.489 27.8866 103.32C27.9287 103.309 27.9723 103.286 28.0069 103.255C28.3603 102.934 28.7859 102.808 29.1964 102.644C29.8175 102.394 30.4401 102.149 31.0626 101.902C31.5063 101.727 31.9574 101.574 32.374 101.307C32.4206 101.277 32.4807 101.268 32.5349 101.262C32.8296 101.239 33.0913 101.068 33.353 100.94C33.7379 100.752 34.1394 100.662 34.535 100.56C34.9365 100.457 35.341 100.37 35.7425 100.262C36.1095 100.165 36.4568 99.9307 36.8433 99.9649C37.0734 99.9847 37.2854 99.9325 37.502 99.8676C37.8027 99.7811 38.105 99.6983 38.4088 99.6208C38.5411 99.5866 38.6644 99.5397 38.7847 99.4605C39.1532 99.2154 39.5772 99.1596 39.9652 98.9812C39.9953 98.9686 40.0329 98.9704 40.0645 98.9776C40.1923 99.0046 40.3036 98.9559 40.4209 98.9055C40.7442 98.7722 41.0525 98.5902 41.3954 98.5145C41.5472 98.4821 41.6991 98.5326 41.8525 98.4461C42.5503 98.0533 43.1232 97.5163 43.4466 96.6479C43.5187 96.4551 43.6195 96.2749 43.7007 96.0876C43.8752 95.6822 44.0721 95.3056 44.3428 94.9831C44.3804 94.938 44.3985 94.8678 44.4195 94.8065C44.5549 94.43 44.7053 94.0642 44.8241 93.675C44.9564 93.2408 45.0812 92.8372 45.0105 92.3724C44.997 92.2841 45.0105 92.1832 45.0316 92.0967C45.1053 91.8012 45.1534 91.5021 45.1895 91.1958C45.2316 90.8391 45.2827 90.4841 45.3564 90.1346C45.397 89.9364 45.4316 89.7544 45.3895 89.549C45.3429 89.313 45.3639 89.0842 45.4301 88.8427C45.5639 88.3617 45.6542 87.8644 45.6376 87.3491C45.6316 87.1473 45.6572 86.9509 45.7158 86.7581C45.8827 86.205 45.9339 85.6194 46.0376 85.0482C46.0873 84.778 46.0812 84.4537 46.2076 84.2501C46.3925 83.9546 46.3595 83.6231 46.4828 83.2609L46.4873 83.2699ZM17.429 82.715C17.4245 83.2537 17.4441 83.2789 17.8366 83.3942C17.99 83.4393 18.1419 83.4609 18.2998 83.4501C18.7118 83.4249 19.1223 83.405 19.5344 83.3852C19.8216 83.3726 20.1134 83.4339 20.3901 83.2663C20.4502 83.2285 20.5434 83.2573 20.6201 83.2663C20.8668 83.3024 21.1074 83.3132 21.3269 83.1294C21.4412 83.0339 21.5826 83.0519 21.7164 83.0501C21.9164 83.0465 22.1149 83.0501 22.3014 82.924C22.4082 82.8519 22.5526 82.8231 22.6593 82.8717C22.8759 82.9744 23.0804 82.9042 23.2804 82.8537C23.4909 82.7997 23.694 82.7618 23.909 82.7907C23.9842 82.8015 24.0654 82.7907 24.1406 82.7708C24.694 82.6141 25.2639 82.6537 25.8234 82.5582C26.1061 82.5096 26.4053 82.5276 26.679 82.4573C26.9617 82.3853 27.2129 82.4105 27.4896 82.4447C27.8415 82.488 28.2129 82.6681 28.5618 82.3871C28.6189 82.3402 28.7197 82.3312 28.7889 82.3528C29.2099 82.4916 29.6385 82.5096 30.0731 82.5114C30.2581 82.5114 30.4416 82.6087 30.6265 82.6573C30.7243 82.6825 30.825 82.7258 30.9213 82.7168C31.4205 82.6681 31.9228 82.6357 32.4161 82.5366C32.7078 82.4789 32.9935 82.4609 33.2793 82.5078C33.6943 82.5744 34.1154 82.4537 34.5274 82.5654C34.5485 82.5708 34.5725 82.569 34.5936 82.5618C34.9184 82.4501 35.2417 82.3961 35.5681 82.5528C36.1741 82.4411 36.738 82.8195 37.3426 82.7762C37.517 82.7636 37.6945 82.8087 37.8659 82.7222C37.9712 82.6699 38.0855 82.6807 38.1953 82.6609C38.6163 82.5888 39.0374 82.7708 39.4584 82.6573C39.4885 82.6501 39.5246 82.6663 39.5562 82.6753C40.263 82.8951 40.9788 82.8699 41.6961 82.769C41.8239 82.751 41.9322 82.7726 42.051 82.8267C42.242 82.915 42.451 82.9366 42.6345 82.8141C43.0225 82.551 43.4541 82.6249 43.8661 82.5708C44.0752 82.5438 44.2857 82.5654 44.4872 82.4699C44.809 82.3204 45.1549 82.315 45.4752 82.4069C45.8451 82.515 46.1534 82.4105 46.4647 82.2141C46.5444 82.1636 46.6121 82.1024 46.6602 82.0033C46.8196 81.67 46.9083 81.2808 46.8843 80.9312C46.8482 80.4249 46.976 79.9565 47.0151 79.4736C47.0723 78.7511 47.2873 78.0503 47.346 77.3223C47.3971 76.6989 47.4377 76.0737 47.4467 75.4467C47.4527 74.9566 47.3595 74.4684 47.3715 73.9729C47.3941 73.0594 47.2061 72.1729 47.0963 71.2793C47.0663 71.0396 47.0873 70.8 47.0497 70.5622C46.9565 69.9784 46.7489 69.4217 46.776 68.8073C46.785 68.5983 46.7505 68.3784 46.7008 68.1749C46.5429 67.537 46.5835 66.8794 46.5444 66.2308C46.5174 65.7641 46.6091 65.2794 46.5053 64.8326C46.37 64.256 46.3895 63.6705 46.3324 63.0903C46.3113 62.8795 46.2737 62.6651 46.2843 62.4543C46.3234 61.6777 46.2737 60.9102 46.1158 60.1571C46.0422 59.8021 46.0151 59.4544 46.0437 59.0886C46.0737 58.694 46.1204 58.2814 45.8542 57.9499C45.8331 57.9229 45.8196 57.8778 45.8166 57.84C45.7895 57.3373 45.6 56.8544 45.7083 56.3355C45.7489 56.1409 45.7203 55.941 45.6903 55.741C45.6241 55.2941 45.5293 54.8563 45.4918 54.4023C45.4451 53.8185 45.403 53.2329 45.1684 52.696C45.0542 52.4348 44.9639 52.1609 44.9714 51.8564C44.9744 51.7591 44.9323 51.678 44.8917 51.5969C44.8226 51.4564 44.785 51.3087 44.7654 51.1447C44.7308 50.8474 44.6902 50.8258 44.4662 50.9519C44.0105 51.2114 43.5142 51.3393 43.0315 51.4492C42.3578 51.6041 41.6661 51.669 40.9773 51.6924C40.7999 51.6978 40.6254 51.7339 40.454 51.8095C39.9622 52.0221 39.4614 52.1843 38.9291 52.1375C38.875 52.1321 38.8163 52.1447 38.7652 52.1663C38.4629 52.2906 38.1561 52.2816 37.8464 52.2312C37.7682 52.2186 37.6915 52.2095 37.6163 52.2456C37.0719 52.505 36.4854 52.5302 35.9245 52.6978C35.7275 52.7573 35.5305 52.7663 35.3275 52.7519C35.0478 52.7302 34.768 52.7519 34.5139 52.9194C34.3034 53.0582 34.0928 53.1573 33.8462 53.0365C33.7815 53.0059 33.6943 53.0419 33.6161 53.0509C33.4387 53.0708 33.2627 53.0924 33.0853 53.1122C32.6973 53.1554 32.3093 53.1987 31.9424 53.3663C31.7785 53.4401 31.6251 53.4654 31.4536 53.4149C31.1739 53.332 30.8792 53.2708 30.6025 53.2762C30.007 53.287 29.4009 53.2564 28.8129 53.4401C28.7378 53.4636 28.658 53.4707 28.5813 53.4725C28.3798 53.4798 28.1888 53.5392 27.9934 53.5915C27.7227 53.6635 27.4625 53.7753 27.1858 53.8293C26.6234 53.9392 26.0549 53.8527 25.494 53.9644C25.2955 54.0041 25.0955 54.0023 24.894 54.0095C24.5496 54.0203 24.1917 53.9897 23.8624 54.0888C23.2984 54.2581 22.7225 54.3158 22.1571 54.4563C22.0683 54.4779 21.9781 54.487 21.8954 54.4383C21.7736 54.3662 21.6638 54.4113 21.542 54.4491C21.2172 54.5482 20.8863 54.6293 20.5811 54.3572C20.5405 54.3212 20.4728 54.2942 20.4247 54.305C20.2066 54.3536 20.0051 54.2869 19.8051 54.1987C19.7088 54.1554 19.6562 54.2095 19.6457 54.3266C19.6397 54.3933 19.6397 54.4599 19.6306 54.5266C19.5494 55.2527 19.2938 55.9283 19.2066 56.6526C19.2021 56.6905 19.1795 56.7265 19.163 56.7607C18.9795 57.1247 18.996 57.5986 18.7238 57.9139C18.7178 58.222 18.5855 58.5048 18.6035 58.8184C18.6216 59.121 18.5599 59.3751 18.39 59.6273C18.2441 59.8435 18.0757 60.0814 18.0998 60.4093C18.1404 60.9534 17.9133 61.4435 17.8621 61.9714C17.8591 62.0075 17.8336 62.0453 17.814 62.0759C17.6411 62.339 17.5809 62.6507 17.5659 62.9732C17.5554 63.229 17.5042 63.4723 17.4666 63.7209C17.4095 64.0993 17.3298 64.4795 17.3448 64.8668C17.3539 65.0993 17.3388 65.3245 17.2621 65.5335C17.196 65.7137 17.1824 65.8992 17.199 66.0812C17.2486 66.6254 17.1869 67.1767 17.2772 67.7208C17.2982 67.8469 17.2757 67.9875 17.2591 68.119C17.2005 68.5874 17.2215 69.0469 17.3148 69.5099C17.3719 69.7946 17.4967 70.0667 17.4802 70.3622C17.4456 70.9838 17.6095 71.5783 17.6411 72.1891C17.6772 72.9152 17.8742 73.6324 17.7253 74.3711C17.7088 74.4558 17.7403 74.5548 17.7434 74.6485C17.7599 75.0611 17.802 75.4773 17.6967 75.8827C17.6456 76.0773 17.6245 76.2719 17.6245 76.4737C17.6245 76.6196 17.6215 76.7728 17.5885 76.9115C17.4456 77.4953 17.4486 78.0881 17.4501 78.6881C17.4501 79.3637 17.6155 80.0322 17.5148 80.7114C17.4682 81.0303 17.5569 81.3583 17.4997 81.6682C17.432 82.0393 17.5148 82.4159 17.4321 82.7114L17.429 82.715ZM26.6414 24.113C26.9632 24.0986 27.2866 24.1329 27.6099 24.1148C27.6655 24.1112 27.7227 24.104 27.7738 24.0806C28.3693 23.8266 28.9663 23.5743 29.5603 23.3077C29.7032 23.2446 29.8506 23.1707 29.9393 22.9996C30.0867 22.7113 30.3032 22.5888 30.5829 22.587C30.813 22.587 30.813 22.5545 30.7288 22.3203C30.4777 21.6212 30.2746 20.9041 30.2581 20.133C30.2536 19.9041 30.234 19.6879 30.1378 19.4789C30.0055 19.1889 29.9844 18.8663 30.0641 18.5474C30.1077 18.3708 30.0942 18.2033 30.0641 18.0339C30.019 17.7871 29.9754 17.5366 29.9122 17.2952C29.8491 17.052 29.8566 16.8105 29.9288 16.5871C30.0024 16.3565 29.9949 16.1493 29.9288 15.9277C29.8686 15.7223 29.8415 15.5133 29.9363 15.3061C29.9919 15.1836 29.9949 15.0502 29.9754 14.9151C29.9333 14.6214 30.0386 14.3169 29.9243 14.0232C29.8972 13.9548 29.9318 13.8358 29.9619 13.753C30.031 13.5728 30.0325 13.398 29.9979 13.207C29.9769 13.0935 29.9949 12.9692 29.9934 12.8485C29.9874 12.4251 30.0446 11.998 29.9318 11.5818C29.9002 11.4665 29.9137 11.344 29.9453 11.2269C29.9904 11.0593 29.9934 10.8846 29.9829 10.7116C29.9603 10.3513 29.9393 9.99271 29.9122 9.63416C29.8882 9.30625 29.807 8.99095 29.5829 8.78735C29.425 8.64321 29.3648 8.46843 29.3182 8.25582C29.2099 7.75493 29.1994 7.22522 29.0024 6.74776C28.8791 6.44867 28.7558 6.14778 28.6626 5.83608C28.6039 5.64149 28.5347 5.6577 28.4189 5.73517C28.2355 5.85949 28.0505 5.98021 27.8655 6.09913C27.5843 6.27931 27.267 6.29371 26.9663 6.3856C26.5241 6.52073 26.088 6.6793 25.6339 6.73876C25.5572 6.74777 25.482 6.78019 25.4098 6.81442C25.2293 6.9009 25.0444 6.91533 24.8519 6.91172C24.318 6.90091 23.7812 6.8937 23.2473 6.90992C23.0744 6.91532 22.918 6.8829 22.7616 6.80362C22.5255 6.6829 22.321 6.49011 22.0743 6.39462C22.0052 6.36759 21.9375 6.26849 21.8638 6.36398C21.8127 6.43065 21.8623 6.51353 21.8743 6.59101C21.9646 7.17297 22.1691 7.74053 22.0232 8.35312C22.0112 8.40537 22.0428 8.48285 22.0698 8.53871C22.3646 9.14049 22.2728 9.83237 22.3916 10.4756C22.4307 10.69 22.3826 10.9278 22.3856 11.1531C22.3856 11.2576 22.3901 11.3747 22.4262 11.4666C22.5826 11.8701 22.6308 12.3062 22.6984 12.7332C22.7826 13.2701 22.9315 13.7854 23.0082 14.3259C23.0398 14.5493 23.0653 14.807 23.1601 15.0106C23.3285 15.3709 23.342 15.7493 23.312 16.1367C23.2729 16.6286 23.2759 17.1132 23.309 17.6087C23.3781 18.6393 23.5195 19.6681 23.4548 20.7095C23.4323 21.0681 23.4714 21.4284 23.4443 21.7888C23.4112 22.2482 23.4819 22.3852 23.8488 22.5365C24.0383 22.6158 24.1797 22.7455 24.3165 22.9023C24.3887 22.9851 24.4549 23.0806 24.5511 23.1257C24.6835 23.1887 24.7707 23.3112 24.8353 23.4518C25.0549 23.9238 25.4113 24.095 25.8369 24.1058C26.1046 24.113 26.3707 24.1058 26.6384 24.1058L26.6414 24.113ZM23.2067 3.50641C23.4939 3.45055 23.6939 3.55506 23.8985 3.58029C24.3286 3.63614 24.7632 3.51722 25.1752 3.39831C25.4113 3.32984 25.6354 3.25597 25.8805 3.24516C26.2143 3.23255 26.5497 3.21814 26.8775 3.15688C27.1497 3.10643 27.4415 3.06318 27.6655 2.85237C27.858 2.674 28.0671 2.61455 28.2881 2.65418C28.5017 2.69382 28.6475 2.53707 28.8159 2.45239C28.9377 2.39113 28.9453 2.2614 28.8791 2.11546C28.7047 1.72628 28.4445 1.53711 28.0716 1.5353C27.5482 1.5335 27.0249 1.5353 26.5001 1.50647C26.2565 1.49386 26.0143 1.45421 25.7692 1.4506C25.1993 1.4416 24.6729 1.66862 24.1496 1.88303C23.709 2.0632 23.2759 2.27761 22.8157 2.37851C22.5856 2.42896 22.4022 2.56049 22.2322 2.73886C22.1826 2.79111 22.1315 2.84337 22.0728 2.8794C21.9886 2.93165 21.9089 2.98209 21.9285 3.11542C21.9465 3.23434 22.0277 3.29742 22.118 3.31543C22.5014 3.3875 22.8864 3.44875 23.2037 3.5028L23.2067 3.50641ZM24.8338 6.382C24.9135 6.37479 25.0068 6.3856 25.0895 6.35857C25.6354 6.1766 26.1918 6.0685 26.7512 5.96039C27.1256 5.88832 27.5076 5.83967 27.7467 5.41085C27.7678 5.37121 27.8264 5.36582 27.8625 5.33519C28.0716 5.16042 28.2971 5.01266 28.4881 4.80546C28.6174 4.66493 28.6039 4.48296 28.5618 4.32261C28.5167 4.14964 28.3783 4.2235 28.2731 4.23971C27.7858 4.31178 27.3407 4.59287 26.8535 4.66314C26.5572 4.70818 26.2835 4.95321 25.9812 4.87393C25.5527 4.76042 25.1722 5.00547 24.7767 5.08474C24.4744 5.146 24.2098 5.16043 23.9391 5.02529C23.53 4.81989 23.1029 4.66855 22.715 4.39288C22.542 4.27036 22.3089 4.27395 22.1631 4.06134C22.1405 4.02891 22.0804 4.03432 22.0367 4.02531C21.8262 3.98568 21.8036 4.00731 21.8051 4.26135C21.8067 4.48837 21.8473 4.71357 21.8051 4.9406C21.7826 5.06492 21.8217 5.12799 21.9224 5.18385C22.1225 5.29556 22.3465 5.39464 22.4969 5.57662C22.6774 5.79463 22.8789 5.87931 23.112 5.92975C23.2112 5.94957 23.321 5.96399 23.3992 6.02706C23.8353 6.37479 24.3421 6.29191 24.8308 6.3856L24.8338 6.382Z" fill="#FF4D00"/>
<path d="M27.2653 77.7204C27.4548 77.6087 27.5856 77.4141 27.7074 77.2141C27.8728 76.9439 28.0307 76.67 28.1946 76.3997C28.2382 76.3259 28.2834 76.2196 28.3781 76.2826C28.4653 76.3421 28.4382 76.4466 28.3946 76.5277C28.151 76.9745 27.9194 77.4322 27.6548 77.8592C27.4563 78.1763 27.1465 78.1871 26.8577 78.0916C26.6788 78.0321 26.5149 78.0249 26.3359 78.043C25.6772 78.106 25.5539 78.0123 25.3238 77.2646C25.2577 77.052 25.19 76.8484 25.0908 76.6502C24.9208 76.3079 24.9554 75.9259 25.0396 75.5601C25.0757 75.4052 25.1058 75.2538 25.1223 75.0935C25.1494 74.8412 25.1915 74.598 25.3163 74.3782C25.6968 73.7025 25.5434 72.7584 24.9464 72.371C24.6697 72.1909 24.5569 71.8251 24.2982 71.6341C24.2667 71.6107 24.2426 71.5386 24.2456 71.4918C24.2757 71.117 24.196 70.7206 24.4306 70.3855C24.6171 70.1225 24.7569 69.8071 24.9569 69.5603C25.1539 69.3207 25.202 69.0612 25.1554 68.7567C25.1314 68.5928 25.1329 68.4414 25.193 68.2883C25.2156 68.2306 25.2321 68.1531 25.2186 68.0937C25.1374 67.7081 25.2847 67.3658 25.3569 67.0108C25.378 66.9063 25.4051 66.8054 25.387 66.6955C25.3539 66.4847 25.3975 66.3081 25.5148 66.1388C25.6427 65.9532 25.6426 65.7172 25.6411 65.4884C25.6381 65.0343 25.7028 64.5947 25.7945 64.1514C25.8607 63.8235 25.8366 63.4614 25.8171 63.1172C25.8006 62.8452 25.8186 62.6002 25.8908 62.3371C26.0276 61.8326 26.1103 61.3065 26.2457 60.7984C26.3374 60.4543 26.4758 60.1966 26.7901 60.1191C26.8758 60.0975 26.957 60.0417 27.0412 60.011C27.3164 59.9101 27.5751 59.9426 27.7871 60.193C27.963 60.4002 28.157 60.5065 28.4082 60.5245C28.6954 60.5461 28.9962 60.6146 29.2533 60.7335C29.5992 60.8957 29.933 61.0903 30.2955 61.2218C30.4849 61.2903 30.6278 61.5227 30.8188 61.6416C30.9526 61.7263 31.0398 61.7047 31.1331 61.5623C31.3301 61.2632 31.5887 61.0579 31.885 60.9245C31.9617 60.8903 32.0248 60.8434 32.07 60.7642C32.2038 60.5335 32.3918 60.4885 32.6023 60.5534C32.7587 60.6002 32.9106 60.584 33.064 60.5335C33.3933 60.4236 33.7196 60.4128 34.049 60.5606C34.2339 60.6435 34.4174 60.6182 34.5828 60.4561C35.046 60.0002 35.5002 59.5408 35.9032 59.0002C36.2145 58.5822 36.4641 58.1102 36.7844 57.7012C37.1273 57.2634 37.5258 57.0868 38.013 57.1498C38.195 57.1733 38.3213 57.3066 38.4176 57.4706C38.5018 57.6111 38.58 57.7661 38.6221 57.9282C38.7454 58.4129 38.8567 58.9029 39.0131 59.375C39.0567 59.5047 39.0582 59.6453 38.9319 59.7228C38.8206 59.7912 38.7138 59.7516 38.6191 59.6651C38.5544 59.6056 38.5183 59.5228 38.4882 59.4363C38.3815 59.1282 38.2567 58.8255 38.1815 58.5048C38.1198 58.2489 37.9995 58.0525 37.8687 57.8561C37.7845 57.7282 37.7093 57.703 37.5905 57.8129C37.413 57.9787 37.2476 58.1624 37.1273 58.3822C36.8852 58.8291 36.6175 59.2723 36.4385 59.748C36.2776 60.1768 35.9408 60.429 35.8084 60.8579C35.8054 60.8705 35.7964 60.8795 35.7859 60.8867C35.3032 61.2741 34.861 61.7659 34.2219 61.7533C34.0324 61.7497 33.8385 61.7876 33.6595 61.7011C33.282 61.5209 32.9437 61.6524 32.6158 61.8668C32.3226 62.0596 32.0294 62.2542 31.7511 62.4722C31.3556 62.7839 30.9255 62.8578 30.4714 62.7893C30.1706 62.7443 29.9466 62.4939 29.7315 62.2776C29.5451 62.0885 29.3465 61.9533 29.124 61.8812C28.751 61.7587 28.3676 61.6722 27.9901 61.5695C27.8247 61.5245 27.8051 61.6669 27.7901 61.8038C27.7375 62.2812 27.7179 62.7623 27.7736 63.2398C27.7946 63.4145 27.8172 63.5965 27.7721 63.7569C27.6863 64.0578 27.6894 64.3551 27.7209 64.6632C27.7405 64.8451 27.7239 65.0361 27.7074 65.2217C27.6833 65.4902 27.5931 65.6884 27.348 65.7838C27.163 65.8559 26.9765 65.9622 26.8051 66.0721C26.5434 66.2415 26.369 66.5676 26.3389 66.9099C26.2938 67.4162 26.1524 67.8955 26.0953 68.3982C26.0682 68.6342 26.0532 68.8756 26.0366 69.1081C26.0156 69.3963 25.9314 69.6108 25.7945 69.827C25.6457 70.0612 25.4998 70.2936 25.3253 70.5026C25.0351 70.8504 25.0637 71.2414 25.384 71.5567C25.6998 71.8684 26.0141 72.1819 26.3269 72.4972C26.4051 72.5746 26.4788 72.6719 26.4893 72.7927C26.5134 73.0737 26.6292 73.3404 26.6382 73.6052C26.6532 74.0809 26.9194 74.4845 26.8637 74.9674C27.0216 75.2628 27.0141 75.589 27.0171 75.9259C27.0186 76.1241 27.1194 76.3331 27.2111 76.5133C27.372 76.8322 27.348 77.1475 27.2562 77.4754C27.2367 77.5475 27.1841 77.6177 27.2653 77.7168V77.7204Z" fill="#FF4D00"/>
<path d="M44.0763 69.9115C43.8898 70.4574 43.6838 70.87 43.4612 71.2628C43.2898 71.5619 43.0778 71.861 42.7018 71.7961C42.5439 71.7691 42.3966 71.8592 42.2477 71.915C41.8477 72.0664 41.4627 72.0844 41.1138 71.7385C41.0371 71.6628 40.9454 71.6087 40.8612 71.5457C40.6206 71.3637 40.4055 71.4141 40.1423 71.5403C39.6536 71.7727 39.1663 72.0664 38.6099 72.0141C38.5212 72.0069 38.428 72.0015 38.3438 72.0268C38.1332 72.088 37.9362 71.9961 37.8265 71.8285C37.5813 71.4556 37.2761 71.47 36.9588 71.5565C36.4053 71.7042 35.8775 71.6124 35.3587 71.3691C35.3076 71.3457 35.2534 71.3205 35.2128 71.2772C35.0504 71.1061 35.0173 70.5601 35.1452 70.2106C35.2399 69.9475 35.4579 69.807 35.7196 69.8448C35.7737 69.852 35.8354 69.861 35.8775 69.8971C36.1948 70.1655 36.4971 70.0106 36.7392 69.7836C37.1152 69.4304 37.5347 69.407 37.9693 69.4232C38.246 69.434 38.44 69.6719 38.619 69.8773C38.7934 70.0755 38.9543 70.0899 39.1558 70.0124C39.4716 69.8899 39.7664 69.7043 40.0687 69.5475C40.3769 69.3872 40.6611 69.3349 40.9664 69.4737C41.195 69.5764 41.4296 69.6755 41.6281 69.8502C41.974 70.1547 42.3981 70.2538 42.7725 70.4899C43.0131 70.6412 43.2748 70.4754 43.5034 70.3367C43.6793 70.2304 43.8417 70.0881 44.0748 69.9115H44.0763Z" fill="#FF4D00"/>
<path d="M39.0111 60.0563C39.3735 60.0833 39.6728 60.1518 39.8262 60.5932C39.9104 60.8364 40.0758 61.0454 40.2548 61.1986C40.5134 61.4184 40.6623 61.7265 40.7976 62.0454C40.9646 62.4382 41.2368 62.6688 41.5526 62.849C41.715 62.9409 41.8729 62.9301 42.0353 62.8382C42.5255 62.5589 43.0338 62.6472 43.5391 62.7589C43.7421 62.804 43.8053 63.0184 43.8459 63.2364C43.9391 63.7355 43.7361 64.0868 43.3225 64.1841C42.7661 64.3174 42.1962 64.3535 41.6443 64.5192C41.1871 64.3589 40.6503 64.5373 40.2668 64.0526C40.2066 63.9787 40.1224 63.9301 40.0427 63.8796C39.9525 63.8219 39.8668 63.7589 39.8277 63.64C39.7359 63.3553 39.548 63.1643 39.3735 62.9589C39.3179 62.894 39.2231 62.8364 39.2141 62.7625C39.154 62.2959 38.8637 62.031 38.6126 61.7283C38.5133 61.6094 38.4818 61.4509 38.4787 61.2851C38.4742 60.9878 38.5374 60.7013 38.6051 60.4221C38.6622 60.1878 38.8201 60.0545 39.0096 60.0563H39.0111Z" fill="#FF4D00"/>
<path d="M30.7829 72.6971C30.5167 72.6898 30.3949 72.5457 30.2776 72.2142C29.9783 71.3728 30.2806 70.6971 30.6641 70.0377C31.04 69.3908 31.4881 68.8197 31.9378 68.2485C32.3137 67.7729 32.792 67.5494 33.3123 67.4377C33.6506 67.3657 33.8867 67.5963 33.8867 67.9602C33.8867 68.0738 33.8837 68.1729 33.7409 68.1458C33.5619 68.1116 33.4446 68.2413 33.3048 68.3692C33.0972 68.562 32.9018 68.735 32.8371 69.0611C32.816 69.171 32.7168 69.2143 32.6386 69.2647C32.4867 69.362 32.3664 69.4971 32.2822 69.6755C32.1889 69.8719 32.1168 70.0809 31.9348 70.1998C31.8852 70.2323 31.8641 70.3314 31.8355 70.4034C31.7979 70.4989 31.7799 70.6124 31.7273 70.6935C31.4656 71.0935 31.3769 71.5728 31.2686 72.0466C31.2355 72.1872 31.1904 72.3259 31.1378 72.4574C31.0671 72.6286 30.9408 72.7025 30.7814 72.6971H30.7829Z" fill="#FF4D00"/>
<path d="M45.0092 68.6218C45.0438 68.6236 45.0889 68.62 45.1325 68.629C45.2423 68.6561 45.3566 68.6867 45.4062 68.8254C45.4603 68.9768 45.3746 69.0741 45.2934 69.1696C45.1506 69.3335 45.0423 69.5335 44.8393 69.6236C44.6062 69.7281 44.4047 69.6758 44.2047 69.5335C44.0904 69.4524 44.0813 69.3533 44.1701 69.2416C44.2919 69.0885 44.4197 68.9443 44.5325 68.7768C44.6453 68.6092 44.8363 68.6416 45.0107 68.6218H45.0092Z" fill="#FF4D00"/>
<path d="M27.8383 19.6735C27.8292 19.4843 27.8563 19.3023 27.8879 19.1186C27.942 18.8069 27.9345 18.497 27.918 18.1744C27.8954 17.76 27.8022 17.3997 27.6623 17.0357C27.5826 16.8267 27.4864 16.6394 27.3661 16.4592C27.2142 16.2322 27.0713 15.9925 26.951 15.7403C26.7826 15.3889 26.8142 15.034 27.0533 14.7475C27.2458 14.5187 27.2668 14.2953 27.127 14.034C27.0397 13.8701 27.0036 13.6827 27.0202 13.4971C27.0458 13.1872 26.9315 12.9602 26.7706 12.7458C26.4472 12.3097 26.4773 11.8413 26.8457 11.4665C26.9811 11.3296 27.1179 11.1927 27.2488 11.0467C27.4097 10.8683 27.4217 10.6918 27.2638 10.499C27.1661 10.3783 27.1074 10.2431 27.0668 10.0882C27.0022 9.84315 26.8728 9.67559 26.6638 9.59631C26.4893 9.53145 26.3465 9.40172 26.2307 9.23416C25.9765 8.8612 26.0803 8.44138 26.4698 8.34949C26.8833 8.2522 27.2879 8.32067 27.6518 8.60535C27.745 8.67742 27.8383 8.75128 27.933 8.82155C28.1646 8.99272 28.2834 9.23235 28.3375 9.56207C28.3977 9.92782 28.3902 10.299 28.4563 10.6629C28.4759 10.771 28.4744 10.8846 28.4082 10.9674C28.2097 11.2143 28.0563 11.5188 27.7601 11.6395C27.6368 11.6899 27.521 11.7854 27.4142 11.8773C27.2443 12.0233 27.1991 12.1872 27.3149 12.3944C27.527 12.7746 27.6202 13.1764 27.6157 13.6376C27.6112 14.0538 27.8608 14.3007 28.2157 14.2971C28.4338 14.2935 28.5962 14.4448 28.6759 14.6358C28.8173 14.9727 28.8879 15.3601 28.6909 15.706C28.4232 16.1745 28.4413 16.6646 28.5827 17.1583C28.6624 17.4357 28.6969 17.733 28.6338 17.9816C28.5075 18.4807 28.5962 18.9618 28.6157 19.4501C28.6263 19.7293 28.6654 20.0068 28.7421 20.2753C28.7736 20.387 28.8037 20.5041 28.7857 20.6284C28.7481 20.8825 28.6323 20.96 28.4263 20.8825C28.0503 20.7383 27.8804 20.405 27.8368 19.96C27.8277 19.8681 27.8368 19.7726 27.8368 19.6807L27.8383 19.6735Z" fill="#FF4D00"/>
<path d="M44.3369 89.349C44.4557 89.9598 44.1068 90.4012 43.9053 90.8949C43.812 91.1237 43.6978 91.3309 43.7068 91.603C43.7113 91.7381 43.6391 91.8516 43.5684 91.9597C43.3759 92.2552 43.197 92.5615 43.0646 92.902C42.994 93.084 42.8301 93.1525 42.7594 93.3182C42.5564 93.7903 42.23 94.1326 41.9202 94.4948C41.839 94.5885 41.7533 94.6678 41.6556 94.7362C41.2134 95.0425 40.7668 95.3344 40.3051 95.6029C39.8089 95.8911 39.2946 96.0479 38.7698 96.201C38.5111 96.2767 38.2585 96.3884 38.0073 96.5019C37.7381 96.6245 37.4479 96.7182 37.2028 96.8713C36.5667 97.2713 35.8373 97.3181 35.2012 97.7343C34.8313 97.9758 34.4493 98.2208 34.0553 98.41C33.8162 98.5253 33.5816 98.628 33.3846 98.8298C33.3771 98.8388 33.365 98.8442 33.3545 98.846C32.8537 98.9109 32.4492 99.3019 31.9906 99.4568C31.3469 99.6748 30.7499 100.048 30.0957 100.21C29.9438 100.248 29.7799 100.217 29.6326 100.264C29.1919 100.401 28.7483 100.531 28.3047 100.653C27.9919 100.74 27.6851 100.864 27.3768 100.968C27.225 101.021 27.0731 101.041 26.9137 101.006C26.828 100.988 26.7287 100.972 26.649 101.001C25.9437 101.26 25.2159 101.203 24.494 101.235C24.4489 101.237 24.4038 101.23 24.3602 101.242C23.7677 101.403 23.1722 101.394 22.5722 101.307C22.4624 101.291 22.3315 101.269 22.2428 101.325C22.0157 101.468 21.7962 101.441 21.5616 101.392C21.342 101.347 21.1165 101.386 20.8939 101.39C20.5059 101.397 20.1179 101.363 19.7314 101.367C19.2983 101.37 18.8668 101.372 18.4367 101.32C18.2382 101.296 18.0396 101.259 17.8411 101.239C16.9659 101.149 16.0892 101.14 15.2125 101.12C14.8591 101.113 14.4997 101.037 14.1463 101.066C13.5372 101.116 12.9282 101.035 12.3236 101.096C11.6996 101.159 11.0785 101.118 10.4589 101.107C9.92355 101.098 9.39421 101.168 8.86487 101.177C8.17913 101.188 7.48135 101.215 6.80764 101.023C6.43319 100.914 6.03769 100.787 5.71888 100.541C5.30683 100.223 5.00006 99.7072 4.91284 99.1289C4.78351 98.2676 4.65269 97.4082 4.47223 96.5614C4.46621 96.5362 4.45117 96.511 4.45117 96.4857C4.45869 96.0137 4.28425 95.5542 4.39102 95.0768C4.42861 94.9074 4.42861 94.7326 4.40605 94.5596C4.36244 94.2137 4.36996 93.8822 4.50079 93.5507C4.60004 93.3002 4.58199 93.0083 4.64666 92.7363C4.79554 92.1075 5.01659 91.5057 5.13088 90.8697C5.23164 90.3111 5.46174 89.8246 5.63618 89.3075C5.75047 88.9652 5.76701 88.5923 5.91288 88.2535C6.21214 87.5653 6.30087 86.7869 6.48283 86.0482C6.63923 85.4158 6.75802 84.7689 6.92344 84.1419C7.03171 83.7329 7.07382 83.3131 7.1836 82.9095C7.28736 82.533 7.3791 82.151 7.47384 81.7708C7.50241 81.6555 7.54903 81.5402 7.54903 81.4231C7.54903 81.1384 7.62722 80.8772 7.6949 80.6123C7.7746 80.3042 7.8107 79.9925 7.83476 79.6736C7.85732 79.3853 7.89942 79.0952 8.00469 78.8214C8.10094 78.5709 8.15055 78.3007 8.18514 78.0178C8.24981 77.4791 8.37614 76.9511 8.53253 76.4358C8.57314 76.2989 8.60621 76.1548 8.61975 76.0088C8.63779 75.8196 8.67238 75.6449 8.75359 75.4773C8.79118 75.3998 8.81824 75.2989 8.81523 75.2106C8.80621 74.7944 8.96262 74.3999 8.92051 73.9801C8.90246 73.8017 9.03479 73.6666 9.0408 73.4864C9.0769 72.4414 9.3521 71.4432 9.45586 70.409C9.52804 69.6865 9.60925 68.964 9.70249 68.2433C9.75362 67.8487 9.76866 67.4397 9.80325 67.0361C9.83182 66.6974 9.78521 66.355 9.8995 66.0217C9.9807 65.7821 9.87845 65.5226 9.9401 65.2686C10.1085 64.5803 10.2664 63.8885 10.4093 63.1912C10.504 62.7263 10.6364 62.2723 10.6649 61.7858C10.68 61.5408 10.7822 61.3011 10.8604 61.0651C11.0319 60.5462 11.2379 60.0417 11.3853 59.512C11.5417 58.9516 11.8469 58.4778 11.9973 57.9193C12.1372 57.3985 12.3327 56.9067 12.5252 56.413C12.6094 56.195 12.5943 55.9517 12.6605 55.7193C12.7868 55.2725 12.9838 54.8473 13.0004 54.3536C13.0064 54.1932 13.1387 54.0473 13.1673 53.8815C13.3041 53.0906 13.6094 52.3771 13.838 51.6275C13.9237 51.3465 14.0726 51.0834 14.0816 50.7681C14.0816 50.7177 14.1042 50.66 14.1312 50.6204C14.3628 50.2888 14.4124 49.869 14.5042 49.4744C14.6756 48.7375 14.9628 48.0583 15.2125 47.361C15.3794 46.8925 15.7133 46.5772 16.0486 46.2944C16.3388 46.0511 16.6426 45.8277 16.9434 45.6007C17.5013 45.1809 18.1088 44.9412 18.7299 44.7286C19.1043 44.6007 19.4848 44.5413 19.8743 44.498C20.3029 44.4512 20.7345 44.3575 21.1616 44.2674C21.7556 44.1449 22.327 43.9125 22.9105 43.7629C23.3541 43.6494 23.7797 43.4548 24.2384 43.3953C24.5632 43.3521 24.885 43.2079 25.2098 43.1125C25.6444 42.9863 26.0836 42.9233 26.5302 42.8764C27.2941 42.7954 28.0656 42.8296 28.825 42.6548C29.1604 42.5773 29.5138 42.6314 29.8566 42.5629C30.4807 42.4368 31.1078 42.3323 31.7334 42.2098C32.1499 42.1287 32.562 42.0044 32.9816 41.9485C33.6823 41.8548 34.3545 41.6224 35.0237 41.3756C35.0974 41.3486 35.1771 41.345 35.2538 41.3287C35.5516 41.2675 35.8268 41.1504 36.0854 40.9432C36.3621 40.7215 36.696 40.6296 37.0208 40.5486C37.5441 40.417 38.0585 40.4639 38.5713 40.6567C38.7652 40.7288 38.9246 40.8765 39.1006 40.9792C39.4239 41.1666 39.7773 41.3269 40.0044 41.7053C40.054 41.7864 40.1442 41.8332 40.2149 41.8981C40.2766 41.9539 40.3533 42.0008 40.3939 42.0747C40.5864 42.4278 40.7894 42.7773 40.9488 43.1521C41.1247 43.5665 41.242 44.0169 41.4856 44.3899C41.5638 44.5088 41.5999 44.6512 41.6345 44.7917C41.7864 45.4187 41.9699 46.0313 42.1774 46.6349C42.2721 46.9124 42.0481 47.516 41.809 47.6132C41.648 47.6781 41.5037 47.7754 41.3548 47.8655C41.1593 47.9844 40.9623 48.0511 40.7443 48.0294C40.4691 48.0042 40.2119 48.1141 39.9623 48.2186C39.4194 48.4475 38.854 48.5393 38.29 48.561C37.5456 48.588 36.8028 48.6619 36.0599 48.6853C35.3004 48.7087 34.5816 48.9411 33.8688 49.1844C33.3801 49.3519 32.8853 49.4816 32.3966 49.6492C31.8011 49.851 31.192 50.0096 30.586 50.1663C29.9694 50.3267 29.3333 50.3951 28.7002 50.4438C28.4776 50.4618 28.2551 50.4762 28.037 50.5375C28.0265 50.5411 28.0145 50.5483 28.0039 50.5447C27.6175 50.4402 27.24 50.6186 26.8505 50.5879C26.464 50.5573 26.073 50.615 25.685 50.6474C25.1843 50.6888 24.685 50.687 24.1873 50.6168C24.0444 50.5969 23.8985 50.5897 23.7542 50.5915C22.7646 50.6041 21.7781 50.5735 20.7946 50.3987C20.2127 50.296 19.6156 50.3573 19.0337 50.5231C18.9209 50.5555 18.7946 50.5933 18.751 50.7159C18.4908 51.4275 17.9374 51.8726 17.6216 52.5302C17.3268 53.141 16.9779 53.7248 16.7509 54.368C16.5042 55.0671 16.1509 55.7049 15.9554 56.4256C15.8065 56.9715 15.5944 57.4832 15.432 58.0202C15.3659 58.2382 15.235 58.4039 15.1523 58.6093C15.0004 58.9859 14.9343 59.3895 14.841 59.7841C14.7298 60.2561 14.6185 60.7318 14.5342 61.2111C14.4681 61.5876 14.426 61.9732 14.4455 62.3606C14.453 62.5209 14.4681 62.6831 14.4365 62.838C14.3342 63.3515 14.3463 63.8668 14.3989 64.3857C14.4335 64.7227 14.3177 65.0398 14.3147 65.3767C14.3117 65.7352 14.2651 66.0938 14.2891 66.4541C14.2936 66.5334 14.3057 66.6235 14.2816 66.692C14.1824 66.9767 14.1839 67.2884 14.235 67.5604C14.3748 68.2991 14.2215 69.0487 14.3267 69.7838C14.3478 69.9279 14.3357 70.0775 14.3042 70.2216C14.2756 70.3549 14.2726 70.4865 14.3042 70.618C14.3553 70.8324 14.3493 71.0378 14.2726 71.2432C14.1523 71.5657 14.2711 71.8774 14.3267 72.1819C14.3643 72.3819 14.3839 72.5711 14.3598 72.7729C14.3237 73.0792 14.3147 73.3837 14.4365 73.6756C14.4816 73.7837 14.4982 73.9134 14.4726 74.0287C14.4094 74.3134 14.45 74.5836 14.5207 74.8557C14.5538 74.9854 14.5628 75.1188 14.5418 75.2521C14.5117 75.4395 14.5117 75.6269 14.5628 75.807C14.6335 76.0557 14.5282 76.2773 14.5057 76.5115C14.4831 76.7638 14.7643 76.8755 14.7493 77.1457C14.7237 77.6286 14.7989 78.0989 14.9042 78.5583C14.9869 78.9205 15.0365 79.2862 15.0801 79.6538C15.0846 79.6934 15.0846 79.7385 15.0997 79.7709C15.3177 80.2538 15.2651 80.8015 15.3598 81.3114C15.432 81.6969 15.3764 82.1168 15.5719 82.4699C15.5779 82.4807 15.5824 82.4951 15.5824 82.5077C15.602 83.1077 15.9148 83.5978 16.0185 84.1672C16.0576 84.387 16.1674 84.5491 16.3238 84.6716C16.3885 84.7221 16.4712 84.769 16.5057 84.8428C16.7764 85.4374 17.3163 85.6536 17.7028 86.0842C17.7765 86.1653 17.8652 86.2284 17.969 86.2392C18.3043 86.277 18.6231 86.4067 18.9434 86.5166C19.1645 86.5923 19.3826 86.6121 19.6021 86.5364C19.7901 86.4734 19.9705 86.4716 20.16 86.5455C20.3841 86.6338 20.6082 86.6464 20.8473 86.5689C21.2247 86.4464 21.6127 86.3977 22.0022 86.5257C22.1977 86.5905 22.4007 86.5869 22.5992 86.5383C22.9075 86.4644 23.2278 86.5617 23.5286 86.4392C23.703 86.3689 23.873 86.3365 24.0519 86.3887C24.1767 86.4248 24.3015 86.4211 24.4023 86.3184C24.5632 86.1545 24.7527 86.1599 24.9422 86.1725C25.1317 86.1869 25.3181 86.1851 25.5046 86.1203C25.6189 86.0806 25.7602 86.0482 25.867 86.0914C26.1422 86.2085 26.4204 86.1275 26.6956 86.1671C26.7603 86.1761 26.84 86.1797 26.8926 86.1419C27.2896 85.859 27.7167 86.014 28.1318 86.0122C28.2761 86.0122 28.4205 86.032 28.5634 85.9761C28.6716 85.9329 28.7829 85.9293 28.8942 85.9383C29.404 85.9815 29.9108 85.9275 30.4176 85.8554C30.5724 85.8338 30.7288 85.8248 30.8837 85.8662C30.9379 85.8806 30.9995 85.9076 31.0477 85.8896C31.4913 85.7203 31.9319 85.8806 32.3725 85.9004C32.4928 85.9059 32.6161 85.8644 32.7379 85.8644C33.2718 85.859 33.8042 85.8518 34.338 85.8608C34.714 85.868 35.0899 85.9058 35.4659 85.9275C35.532 85.9311 35.6057 85.9527 35.6644 85.9275C36.0884 85.7563 36.5351 85.7996 36.9547 85.8572C37.299 85.9041 37.6434 85.9022 37.9742 85.8824C38.5336 85.8482 39.0826 85.9527 39.6375 85.9563C40.1337 85.9617 40.639 85.9076 41.1277 86.0914C41.3924 86.1905 41.6571 86.2932 41.9413 86.2932C42.003 86.2932 42.0766 86.3275 42.1263 86.3743C42.2721 86.5148 42.4361 86.5815 42.621 86.5815C42.7654 86.5815 42.8857 86.6518 42.9639 86.7923C43.0571 86.9617 43.1985 87.0067 43.3414 87.0878C43.5955 87.2355 43.8481 87.4067 43.9745 87.7562C44.0887 88.0715 44.2542 88.3526 44.3188 88.704C44.3579 88.9202 44.3715 89.122 44.3399 89.3436L44.3369 89.349Z" fill="#FF4D00"/>
</svg>
