<svg width="47" height="93" viewBox="0 0 47 93" fill="none" xmlns="http://www.w3.org/2000/svg">
<path d="M25.3384 0.602723C25.6271 0.561282 25.8677 0.618938 26.1114 0.647766C26.5324 0.696414 26.955 0.642351 27.37 0.546858C27.4918 0.51803 27.6091 0.485614 27.7324 0.518046C27.9956 0.586512 28.2588 0.602718 28.5294 0.575692C28.8137 0.548666 29.0814 0.808128 29.1325 1.14866C29.1791 1.45676 29.3055 1.72522 29.4047 2.00088C29.4754 2.19727 29.5431 2.39546 29.5837 2.59905C29.6228 2.79545 29.6543 2.98463 29.7701 3.14319C29.8182 3.20805 29.8498 3.31436 29.8498 3.40085C29.8543 4.10894 29.9927 4.8008 30.0047 5.50708C30.0122 6.00076 29.9085 6.4548 29.6994 6.87461C29.6017 7.071 29.6769 7.262 29.6949 7.45298C29.7024 7.53046 29.7746 7.52864 29.8318 7.52504C30.2528 7.50161 30.6724 7.53946 31.0935 7.45118C31.3807 7.38992 31.695 7.36468 31.9506 7.64035C32.0168 7.71242 32.1101 7.72685 32.1988 7.74847C32.5342 7.83135 32.7221 8.08359 32.7447 8.48538C32.7612 8.75204 32.7673 9.01869 32.7748 9.28535C32.7763 9.35021 32.7777 9.4277 32.7522 9.48176C32.5371 9.94841 32.6199 10.4673 32.5537 10.9592C32.4965 11.379 32.5131 11.7898 32.498 12.2042C32.4755 12.833 32.4815 13.442 32.6364 14.0582C32.7928 14.6798 32.6018 14.9302 32.2364 15.1663C31.883 15.3933 31.5205 15.6221 31.1822 15.8996C30.8709 16.1554 30.5325 16.4077 30.1701 16.5806C29.8303 16.7446 29.6002 17.0815 29.3265 17.35C29.2588 17.4149 29.2739 17.5284 29.3115 17.6113C29.4513 17.9139 29.3777 18.2743 29.501 18.5788C29.4002 19.3878 29.6092 20.1859 29.5505 20.9985C29.5235 21.3661 29.4844 21.7553 29.5837 22.1391C29.6408 22.3589 29.6183 22.6165 29.5957 22.8525C29.5626 23.2201 29.6197 23.5678 29.6964 23.9156C29.728 24.0597 29.7491 24.202 29.719 24.3498C29.6393 24.739 29.743 25.1173 29.8107 25.4813C29.8859 25.8921 29.9115 26.2975 29.91 26.7083C29.91 26.856 29.9009 26.9948 29.9476 27.1353C29.9927 27.2722 30.0047 27.42 30.0002 27.5695C29.9942 27.7695 29.9897 27.9713 30.0724 28.1569C30.11 28.2434 30.107 28.3371 30.0889 28.4308C30.0588 28.5785 30.0739 28.7244 30.1205 28.8632C30.2167 29.1569 30.2107 29.465 30.2077 29.7731C30.2047 30.1713 30.2513 30.5586 30.3055 30.955C30.3716 31.4433 30.507 31.9388 30.4228 32.4541C30.3566 32.8559 30.504 33.2342 30.5476 33.6252C30.5612 33.7441 30.6108 33.8612 30.5641 33.9747C30.4935 34.1441 30.507 34.3153 30.5536 34.4792C30.6664 34.8882 30.6453 35.3153 30.6754 35.7333C30.6904 35.9423 30.7521 36.081 30.919 36.0954C31.2514 36.1224 31.5657 36.308 31.9085 36.254C32.0995 36.2233 32.2815 36.3278 32.4634 36.3801C33.1672 36.5837 33.8906 36.6557 34.5868 36.8954C34.5974 36.899 34.6094 36.9062 34.6199 36.9062C35.0635 36.9062 35.4681 37.0611 35.8591 37.3044C36.235 37.5386 36.6426 37.6845 37.014 37.9332C37.1509 38.0251 37.2772 38.1224 37.387 38.2629C37.5343 38.4503 37.7539 38.5043 37.9449 38.607C38.1193 38.7007 38.2682 38.8161 38.4125 38.9764C38.7705 39.3746 39.1028 39.8106 39.5133 40.1403C39.7855 40.3583 39.972 40.6809 40.172 40.9818C40.3179 41.2016 40.4532 41.4232 40.6487 41.5908C40.8157 41.7331 40.8818 41.9781 40.9901 42.1781C41.1119 42.4033 41.2292 42.6286 41.3826 42.8249C41.4127 42.8646 41.4487 42.9006 41.4683 42.9475C41.8172 43.8465 42.3811 44.6213 42.545 45.6285C42.548 45.6411 42.5465 45.6573 42.5525 45.6663C42.9585 46.3348 43.0879 47.1546 43.3902 47.8771C43.5962 48.3689 43.7391 48.8806 43.8233 49.4212C43.8533 49.6157 43.8909 49.8265 43.9811 49.9869C44.1511 50.2914 44.1917 50.6283 44.2354 50.9706C44.2504 51.0914 44.2609 51.2085 44.2428 51.3292C44.2143 51.5238 44.2519 51.7112 44.3391 51.8643C44.5075 52.158 44.5376 52.4805 44.5376 52.8192C44.5376 53.0715 44.518 53.3237 44.6639 53.5472C44.706 53.6102 44.697 53.7255 44.703 53.8192C44.7211 54.0589 44.7436 54.2967 44.8188 54.5219C44.8489 54.6102 44.8745 54.7021 44.8534 54.794C44.7722 55.1489 44.8774 55.475 44.9421 55.8138C45.0774 56.5146 45.2384 57.2083 45.27 57.9326C45.276 58.0533 45.2925 58.1705 45.3301 58.284C45.3963 58.4858 45.4158 58.6984 45.4098 58.9128C45.3992 59.32 45.4549 59.7037 45.6248 60.0695C45.7451 60.3307 45.7737 60.6298 45.7196 60.9271C45.688 61.1037 45.6985 61.2695 45.7436 61.4388C45.8459 61.8226 45.8158 62.2334 45.9091 62.6226C45.9753 62.9037 45.9918 63.2027 46.094 63.473C46.1031 63.4964 46.1136 63.5253 46.1121 63.5505C46.0459 64.1144 46.3331 64.6261 46.2745 65.1919C46.2534 65.4009 46.2941 65.6171 46.3196 65.8279C46.3738 66.2729 46.473 66.7053 46.4264 67.172C46.3948 67.5035 46.4549 67.8639 46.5467 68.1936C46.6038 68.4026 46.6249 68.6062 46.6188 68.8224C46.6083 69.1684 46.5858 69.5143 46.6926 69.8512C46.7437 70.0152 46.7256 70.1935 46.6775 70.3629C46.6324 70.5269 46.5963 70.6962 46.5572 70.8638C46.5046 71.0998 46.4941 71.2998 46.6264 71.5394C46.7798 71.8133 46.6865 72.1593 46.6399 72.4746C46.6279 72.552 46.5647 72.6223 46.5963 72.7016C46.7813 73.1592 46.5482 73.5898 46.5271 74.0331C46.5031 74.5556 46.4354 75.0655 46.6069 75.5682C46.6234 75.6168 46.6445 75.6745 46.6384 75.7231C46.5708 76.2276 46.7061 76.7321 46.6384 77.2366C46.6069 77.4744 46.6475 77.7123 46.6384 77.9501C46.6279 78.2384 46.6129 78.5357 46.6384 78.8221C46.6685 79.1591 46.658 79.4834 46.6053 79.8149C46.5347 80.2635 46.6008 80.714 46.6324 81.1608C46.643 81.3085 46.6505 81.4491 46.6144 81.5932C46.4745 82.1572 46.4023 82.7265 46.3888 83.3247C46.3798 83.7697 46.4309 84.267 46.1828 84.6796C46.1467 84.7391 46.1392 84.8346 46.1437 84.912C46.1903 85.5499 46.0233 86.1481 45.9106 86.7552C45.8624 87.0147 45.861 87.2832 45.7392 87.521C45.5948 87.8021 45.491 88.121 45.1857 88.2255C45.0745 88.2633 45.0113 88.3894 44.9737 88.5191C44.906 88.7516 44.7617 88.8146 44.5707 88.8669C44.0338 89.0182 43.4925 88.9984 42.9511 89.002C42.8954 89.002 42.8337 88.984 42.7841 89.0056C42.3179 89.2092 41.8488 89.0434 41.3811 89.0344C41.2413 89.0326 41.1179 89.0056 40.9961 88.9299C40.8848 88.8615 40.7645 88.8308 40.6397 88.8381C40.4592 88.8489 40.2833 88.8272 40.1148 88.7426C40.0757 88.7227 40.0261 88.7065 39.9855 88.7155C39.369 88.8453 38.7479 88.6146 38.1313 88.7588C38.0456 88.7786 37.9509 88.7786 37.8651 88.7588C37.4095 88.6669 36.9598 88.6903 36.5117 88.8164C36.3538 88.8615 36.1974 88.7948 36.0501 88.7534C35.6801 88.6489 35.3086 88.6849 34.9583 88.7876C34.5958 88.8939 34.2259 88.8525 33.871 88.9642C33.7943 88.9876 33.7131 88.9732 33.6424 88.9299C33.286 88.7137 32.9056 88.7516 32.5266 88.766C32.4379 88.7696 32.3461 88.7966 32.2604 88.7804C31.9476 88.721 31.6424 88.7011 31.3506 88.8867C31.3311 88.8993 31.3055 88.9083 31.2859 88.9029C30.7596 88.7263 30.2393 89.0867 29.713 88.9209C29.3415 89.0489 28.9686 88.9299 28.5971 88.9245C28.4302 88.9227 28.2723 88.9353 28.1054 88.8759C27.9716 88.829 27.8166 88.8381 27.6738 88.8579C27.2753 88.9155 26.8707 88.8813 26.4798 89.0182C26.4286 89.0362 26.3639 89.0453 26.3143 89.0254C25.9474 88.8867 25.585 89.0398 25.221 89.0543C25.0571 89.0615 24.8887 89.0849 24.7443 89.2092C24.6496 89.2921 24.5353 89.2849 24.421 89.2633C24.0346 89.1912 23.6481 89.1552 23.2556 89.1678C23.033 89.175 22.809 89.1588 22.5969 89.2651C22.5669 89.2795 22.5308 89.2921 22.4992 89.2885C21.9774 89.2362 21.4631 89.4218 20.9427 89.3515C20.7863 89.3299 20.6285 89.3155 20.4811 89.3966C20.2074 89.5461 19.9201 89.5353 19.6299 89.5173C19.5743 89.5137 19.5126 89.4921 19.4645 89.5155C19.0614 89.7155 18.657 89.5624 18.2539 89.5371C18.1998 89.5335 18.1336 89.5245 18.0915 89.5551C17.8524 89.7263 17.5772 89.7137 17.3215 89.8002C17.2223 89.8326 17.126 89.8524 17.0268 89.8074C16.9516 89.7732 16.8674 89.7515 16.8012 89.8092C16.6027 89.9786 16.3816 89.9371 16.1606 89.9371C15.8643 89.9371 15.5726 89.9047 15.2703 90.0056C15.0643 90.0741 14.8132 89.9497 14.5771 89.9822C14.2447 90.0272 13.9229 90.0993 13.5981 90.2146C13.1936 90.3587 12.7619 90.3623 12.3409 90.3894C11.7905 90.4236 11.2672 90.5948 10.7514 90.8056C10.6235 90.8578 10.5062 90.9317 10.3664 90.8993C10.3348 90.8921 10.2942 90.8831 10.2671 90.8993C9.8686 91.1335 9.40995 91.0704 9.00392 91.2614C8.88211 91.3191 8.76484 91.3227 8.64904 91.2524C8.47309 91.1443 8.31371 91.1677 8.14378 91.2902C7.80091 91.5371 7.40985 91.5785 7.02488 91.6182C6.61584 91.6614 6.20833 91.665 5.80831 91.8308C5.52409 91.9461 5.22035 92.0019 4.89853 91.8542C4.61582 91.7245 4.3 91.8254 4.01578 91.9569C3.83231 92.0416 3.67443 92.0272 3.50449 91.9245C3.03681 91.6434 2.58864 91.3227 2.15855 90.9641C2.03824 90.8632 1.98111 90.7191 1.94502 90.5695C1.83825 90.1317 1.62022 89.7497 1.51796 89.3083C1.48788 89.1768 1.41867 89.0651 1.32844 88.984C1.18257 88.8543 1.12091 88.6723 1.09384 88.4705C1.0006 87.8002 0.908864 87.1282 0.827658 86.4561C0.80059 86.2309 0.776561 86.0075 0.710393 85.7931C0.690843 85.73 0.669787 85.6652 0.669787 85.6003C0.669787 84.7607 0.456248 83.9499 0.447225 83.1121C0.445721 82.9535 0.469788 82.7932 0.490842 82.6346C0.535956 82.2905 0.564496 81.95 0.495321 81.6004C0.438176 81.3121 0.466775 81.013 0.484821 80.7212C0.502866 80.4239 0.471316 80.1356 0.439735 79.8437C0.384094 79.3266 0.328412 78.8131 0.510374 78.3086C0.57203 78.1375 0.543499 77.9411 0.514926 77.7537C0.442743 77.2924 0.387075 76.8312 0.487831 76.3645C0.493846 76.3393 0.498367 76.3105 0.496863 76.2852C0.426183 75.4078 0.611153 74.5322 0.496863 73.6529C0.432199 73.1502 0.474285 72.6403 0.55098 72.1394C0.579552 71.9557 0.587051 71.7737 0.529906 71.5881C0.487799 71.4512 0.496863 71.2962 0.534458 71.1539C0.627695 70.8133 0.62017 70.4692 0.566032 70.1251C0.532948 69.9107 0.526936 69.6999 0.606638 69.4963C0.686341 69.2927 0.699878 69.0873 0.647244 68.8729C0.615664 68.7431 0.591577 68.5936 0.657745 68.4837C0.877302 68.1215 0.820142 67.7179 0.793073 67.3233C0.773524 67.0261 0.793094 66.7468 0.851743 66.4549C0.958514 65.9162 1.09388 65.3811 1.02922 64.8045C0.996136 64.5072 1.02919 64.1955 1.1901 63.9252C1.28183 63.7721 1.31494 63.5901 1.29239 63.3919C1.2593 63.0784 1.31645 62.7829 1.43976 62.5037C1.47585 62.4226 1.51491 62.3307 1.51642 62.2406C1.53146 61.5307 1.80667 60.9037 1.94201 60.2317C1.99464 59.9722 2.06533 59.7182 2.06082 59.4479C2.05781 59.338 2.08039 59.2371 2.1225 59.1398C2.15257 59.0695 2.19167 58.9921 2.19167 58.9164C2.19467 58.1416 2.53756 57.4714 2.65485 56.7363C2.73907 56.2155 3.02176 55.7957 3.08492 55.275C3.09545 55.1904 3.15862 55.1129 3.20373 55.039C3.26238 54.9417 3.33157 54.8444 3.33157 54.7183C3.33007 54.3976 3.45785 54.1309 3.55259 53.8463C3.68342 53.4553 3.82025 53.0697 3.91048 52.6571C4.05485 52.0013 4.25939 51.3724 4.53308 50.7707C4.83535 50.104 5.085 49.4031 5.37824 48.7311C5.70908 47.9743 5.90003 47.1491 6.20681 46.3798C6.31208 46.1167 6.3437 45.8195 6.43392 45.5456C6.61137 45.0105 6.82643 44.5024 7.0505 43.9961C7.17532 43.715 7.26099 43.3997 7.41588 43.1475C7.70462 42.6772 8.00687 42.2196 8.34072 41.7889C8.53922 41.5349 8.74831 41.3043 8.96486 41.0737C9.21148 40.8124 9.49265 40.6358 9.78138 40.4665C9.82199 40.443 9.87312 40.4376 9.9032 40.4034C10.2641 39.9926 10.7604 39.8557 11.1499 39.5043C11.2747 39.3908 11.413 39.3187 11.5755 39.2899C11.7965 39.2503 12.0011 39.1332 12.1635 38.9422C12.362 38.708 12.598 38.5656 12.8672 38.517C13.1153 38.4719 13.3365 38.362 13.5545 38.2215C13.6613 38.153 13.7815 38.1116 13.8973 38.0647C13.95 38.0431 14.0206 38.0593 14.0582 38.0215C14.4778 37.5999 15.0868 37.6719 15.4989 37.2323C15.538 37.1909 15.5997 37.1801 15.6538 37.1603C16.0493 37.0251 16.4222 36.8089 16.7862 36.6017C17.0358 36.4594 17.2765 36.2432 17.508 36.036C17.7487 35.8198 17.9772 35.5873 18.2644 35.454C18.3622 35.4089 18.4298 35.2792 18.5186 35.1999C18.8208 34.9315 18.9352 34.4864 19.1998 34.1783C19.2931 34.0702 19.3307 33.8721 19.3382 33.6937C19.3487 33.4252 19.4013 33.1658 19.4554 32.9063C19.5231 32.5802 19.5607 32.2505 19.5427 31.9136C19.5291 31.6649 19.5682 31.4343 19.6945 31.2307C19.7787 31.0974 19.8209 30.9442 19.8209 30.782C19.8209 30.4469 19.9216 30.1262 19.9036 29.7893C19.9006 29.737 19.9006 29.674 19.9216 29.6325C20.1292 29.2037 20.1246 28.7154 20.1953 28.2488C20.2103 28.1569 20.2164 28.056 20.254 27.9785C20.5367 27.3821 20.5307 26.7047 20.6224 26.0579C20.6826 25.6363 20.7487 25.22 20.8465 24.811C20.8735 24.6957 20.9141 24.575 20.9066 24.4597C20.8871 24.1967 20.9547 23.9678 21.0254 23.7246C21.0976 23.4777 21.1067 23.2039 21.1307 22.939C21.1623 22.5787 21.227 22.2291 21.3368 21.8922C21.3563 21.831 21.3743 21.7643 21.3774 21.6976C21.4225 20.9175 21.5728 20.1625 21.7172 19.4022C21.7879 19.031 21.8781 18.6563 21.8961 18.2689C21.9006 18.1626 21.9142 18.0563 21.9353 17.9536C21.9729 17.7734 22.0706 17.6815 22.23 17.7049C22.3894 17.7265 22.5172 17.8527 22.5217 18.0274C22.5323 18.4364 22.5307 18.8455 22.5292 19.2544C22.5277 19.8634 22.418 20.4598 22.3985 21.0688C22.3864 21.4418 22.3984 21.8291 22.3112 22.2093C22.2511 22.467 22.2751 22.7607 22.2616 23.0363C22.2195 23.8633 22.1428 24.6885 22.0044 25.4939C21.8992 26.1065 21.9022 26.7389 21.7503 27.3407C21.7262 27.4344 21.7157 27.5299 21.7563 27.6128C21.8511 27.8092 21.7984 27.9911 21.7608 28.1911C21.6976 28.5263 21.5818 28.8524 21.6179 29.2109C21.6299 29.3316 21.5938 29.4523 21.5367 29.5532C21.4059 29.7875 21.3848 30.0469 21.3758 30.3172C21.3578 30.8667 21.2525 31.4 21.1292 31.9262C21.0931 32.0811 21.0405 32.2306 21.045 32.3946C21.054 32.6523 21.0224 32.8991 20.9532 33.1423C20.9051 33.3117 20.9202 33.4829 20.9518 33.6558C20.9909 33.8738 20.9592 34.0774 20.86 34.2702C20.7246 34.5297 20.5968 34.7945 20.4675 35.0594C20.3457 35.308 20.1698 35.4828 19.9683 35.636C19.469 36.0107 18.9983 36.4323 18.5471 36.8864C18.3231 37.1116 18.1111 37.3801 17.7938 37.4323C17.6539 37.4557 17.5501 37.5548 17.4629 37.6827C17.3441 37.8557 17.1952 37.9584 17.0027 37.9674C16.8192 37.9764 16.6704 38.1152 16.5035 38.189C16.132 38.3548 15.7711 38.5692 15.3907 38.6899C14.9726 38.8215 14.5997 39.117 14.156 39.1422C14.1229 39.144 14.0868 39.153 14.0598 39.171C13.6026 39.4827 13.0778 39.5746 12.5996 39.8304C12.0883 40.1043 11.6236 40.5259 11.0446 40.6124C10.971 40.6232 10.8927 40.6682 10.8326 40.7241C10.5649 40.9709 10.2295 41.0754 9.95732 41.2971C9.53023 41.6448 9.07311 41.9583 8.7528 42.4718C8.60693 42.706 8.40993 42.8844 8.27008 43.133C7.77231 44.0195 7.30159 44.9312 7.03692 45.951C6.78729 46.9185 6.46549 47.85 6.15871 48.7869C5.94968 49.4229 5.75271 50.0716 5.50608 50.6968C5.30607 51.2013 5.05941 51.7058 5.01881 52.2932C5.00678 52.4607 4.94065 52.6283 4.87298 52.7796C4.8023 52.94 4.78723 53.1075 4.75865 53.2769C4.66542 53.8499 4.53908 54.4156 4.44284 54.985C4.33757 55.6102 4.06092 56.1849 4.08649 56.8444C4.0895 56.9435 4.05039 57.0552 4.00829 57.1471C3.91806 57.3434 3.89548 57.5416 3.91503 57.7651C3.95112 58.1849 3.78723 58.5506 3.63233 58.9002C3.51504 59.165 3.48194 59.4245 3.51052 59.7091C3.54059 60.0046 3.4819 60.2857 3.43378 60.5758C3.324 61.2262 3.14204 61.8677 3.17061 62.5451C3.17362 62.6244 3.17816 62.7091 3.16313 62.7847C3.00522 63.5523 3.04432 64.3559 2.89394 65.1162C2.70295 66.0801 2.83381 67.0603 2.69546 68.0188C2.6323 68.453 2.66538 68.9017 2.54508 69.3233C2.53756 69.3485 2.52999 69.3773 2.5345 69.4026C2.63977 69.9809 2.5255 70.5431 2.43677 71.1052C2.40519 71.307 2.42174 71.5034 2.48039 71.6944C2.56911 71.9845 2.55708 72.2746 2.4458 72.552C2.37061 72.7358 2.37512 72.9124 2.43978 73.0926C2.51798 73.3124 2.52699 73.5394 2.46834 73.7592C2.41571 73.9574 2.41571 74.1502 2.42774 74.352C2.4503 74.7123 2.43977 75.0673 2.39315 75.4294C2.34052 75.824 2.36759 76.2294 2.39917 76.6276C2.43527 77.0798 2.48643 77.5303 2.39169 77.9807C2.37364 78.069 2.37209 78.1699 2.38713 78.2582C2.4939 78.9104 2.46085 79.5554 2.33904 80.1987C2.29091 80.4509 2.27887 80.6977 2.39616 80.9374C2.45331 81.0545 2.43226 81.1986 2.43376 81.332C2.43526 81.559 2.44729 81.7842 2.49992 82.0058C2.55255 82.2274 2.55105 82.4563 2.49691 82.6797C2.39164 83.1157 2.42021 83.5481 2.49691 83.986C2.57962 84.4562 2.52998 84.9409 2.56006 85.4183C2.5766 85.6868 2.57662 85.9445 2.69693 86.1895C2.7631 86.3246 2.8157 86.4922 2.81419 86.6435C2.80517 87.2039 3.07437 87.6471 3.20821 88.1444C3.32551 88.5858 3.60073 88.9047 3.72405 89.3389C3.80976 89.6398 4.05038 89.8092 4.36618 89.802C4.76319 89.7948 5.16322 89.8326 5.5497 89.9696C5.64143 90.002 5.71959 89.9912 5.80831 89.9534C6.17374 89.7966 6.55872 89.7353 6.93617 89.638C7.13167 89.5876 7.32119 89.548 7.49864 89.4128C7.72271 89.2435 7.98884 89.2579 8.24298 89.2813C8.39336 89.2957 8.5287 89.3029 8.6475 89.166C8.72419 89.0777 8.82948 89.0813 8.92873 89.0615C9.4671 88.9498 10.007 88.8597 10.5514 88.8182C10.8025 88.7984 11.0115 88.6182 11.2566 88.5732C11.3784 88.5516 11.4867 88.5354 11.6145 88.5714C11.8281 88.6327 12.0808 88.6345 12.2612 88.5119C12.6056 88.2777 12.9665 88.3083 13.3289 88.2921C13.8613 88.2705 14.3996 88.2939 14.9275 88.2255C15.144 88.1966 15.3681 88.0777 15.5907 88.0075C15.9441 87.8957 16.3019 87.8093 16.6764 87.8975C16.8614 87.9408 17.0538 87.8633 17.2313 87.7966C17.5606 87.6705 17.8825 87.6489 18.2073 87.7966C18.2975 87.8363 18.3772 87.8201 18.4675 87.8002C18.684 87.7516 18.9035 87.6867 19.1201 87.8111C19.1712 87.8399 19.2284 87.8291 19.2825 87.8038C19.5908 87.6687 19.9081 87.6543 20.2314 87.6795C20.4525 87.6976 20.6676 87.6885 20.8916 87.6183C21.1668 87.53 21.463 87.5444 21.7488 87.512C21.9939 87.4831 22.2315 87.4219 22.4661 87.3606C22.6586 87.312 22.8405 87.3084 23.027 87.3264C23.5022 87.3732 23.9699 87.3894 24.4391 87.2309C24.7158 87.1372 25.0076 87.103 25.2873 87.0111C25.379 86.9804 25.4858 87.0057 25.585 87.0165C25.8632 87.0471 26.1384 87.0651 26.4166 86.9985C26.6482 86.9426 26.8783 87.0489 27.1129 87.0417C27.2467 87.0381 27.3775 87.0525 27.5039 86.9805C27.6588 86.8922 27.8287 86.8705 27.9956 86.903C28.4859 86.9985 28.9656 86.948 29.4423 86.7985C29.5837 86.7534 29.725 86.73 29.8709 86.7804C29.9115 86.7949 29.9611 86.7931 30.0032 86.7804C30.5476 86.6165 31.0724 86.9264 31.6138 86.8688C32.0289 86.8237 32.4469 86.7949 32.865 86.8633C32.9717 86.8814 33.086 86.8435 33.1958 86.8237C33.3838 86.7859 33.5703 86.7643 33.7567 86.8417C33.865 86.8868 33.9748 86.8814 34.0816 86.8219C34.3357 86.6832 34.5974 86.6832 34.8605 86.7787C34.9372 86.8075 35.0139 86.8147 35.0921 86.7931C35.5282 86.6706 35.9598 86.667 36.3884 86.8417C36.4967 86.8868 36.6004 86.876 36.7147 86.8399C36.9072 86.7805 37.0997 86.7066 37.3027 86.7066C37.4366 86.7066 37.5584 86.6976 37.6817 86.8057C37.8396 86.9444 38.0396 86.8994 38.184 86.7841C38.3855 86.6237 38.593 86.6471 38.796 86.6868C39.2667 86.7823 39.7329 86.9066 40.2006 87.0237C40.2788 87.0435 40.3615 87.0669 40.4322 87.0309C40.7585 86.8687 41.0668 86.9787 41.3705 87.1138C41.5886 87.2093 41.7992 87.2507 42.0202 87.1372C42.0593 87.1174 42.1119 87.0904 42.148 87.103C42.554 87.2543 42.9631 87.0886 43.3691 87.1264C43.5406 87.1444 43.6985 87.0868 43.8594 87.0255C44.2188 86.8868 44.4188 86.5985 44.4338 86.1462C44.4413 85.9012 44.4669 85.6706 44.5872 85.4616C44.6669 85.3228 44.6594 85.1571 44.6504 84.9949C44.6398 84.7931 44.6308 84.5913 44.7015 84.4021C44.8549 83.9949 44.8309 83.5463 44.9181 83.1211C44.9858 82.7842 45.0323 82.44 44.9391 82.0941C45.0744 81.5536 44.9106 80.9716 45.1031 80.4365C45.1557 80.2906 45.1496 80.132 45.1361 79.9662C45.0925 79.4347 45.07 78.9014 45.0444 78.3699C45.0399 78.278 45.0579 78.1843 45.0714 78.0924C45.0804 78.0275 45.121 77.9573 45.109 77.8996C45.0022 77.3861 45.1872 76.8997 45.1962 76.3988C45.2007 76.1051 45.1918 75.8114 45.1 75.5303C45.076 75.4565 45.0474 75.3628 45.0669 75.2961C45.1797 74.9069 45.0594 74.5015 45.1361 74.1124C45.1722 73.9268 45.1737 73.752 45.1045 73.5664C45.0263 73.3574 45.0158 73.134 45.0594 72.9016C45.0895 72.7484 45.0789 72.5845 45.0835 72.4241C45.085 72.3448 45.0564 72.2511 45.0835 72.1863C45.2714 71.716 45.1331 71.2403 45.1075 70.7683C45.103 70.7016 45.0805 70.6278 45.0985 70.5701C45.2113 70.1953 45.0804 69.835 45.0744 69.4692C45.0654 68.9918 45.0158 68.5107 45.0865 68.0314C45.1226 67.7936 45.1376 67.5594 44.9887 67.3486C44.915 67.2441 44.9166 67.0981 44.9226 66.963C44.9376 66.6387 44.8669 66.327 44.8278 66.0117C44.7647 65.4982 44.715 64.9811 44.6729 64.464C44.6564 64.2622 44.6143 64.0802 44.5421 63.8928C44.4143 63.5631 44.3631 63.2136 44.4353 62.8424C44.4985 62.5109 44.3767 62.192 44.3315 61.8695C44.321 61.792 44.2609 61.7163 44.2684 61.6442C44.3165 61.1253 44.1166 60.6587 44.0504 60.1632C43.9827 59.6533 43.9541 59.1308 43.8278 58.6335C43.8113 58.5704 43.7947 58.5038 43.7947 58.4371C43.7827 57.5416 43.5856 56.6732 43.53 55.7849C43.515 55.5597 43.5075 55.3309 43.5195 55.1057C43.5406 54.7255 43.4759 54.3796 43.3737 54.0138C43.2413 53.5381 43.2067 53.0247 43.13 52.5274C43.0518 52.0175 42.9405 51.5058 42.9059 50.9959C42.8744 50.531 42.7601 50.1202 42.6262 49.7004C42.5917 49.5923 42.5871 49.4644 42.5886 49.3455C42.5886 49.1653 42.5631 49.0049 42.4729 48.8554C42.4232 48.7707 42.3721 48.6626 42.3721 48.5653C42.3631 47.8446 41.9992 47.2717 41.8262 46.6194C41.6744 46.0447 41.3675 45.5546 41.1735 45.0015C41.1254 44.8627 41.0442 44.7528 40.9765 44.6321C40.8201 44.3528 40.6698 44.0718 40.6307 43.7294C40.5991 43.4592 40.4276 43.2826 40.3058 43.0862C40.0712 42.7042 39.7901 42.3601 39.5149 42.016C39.4367 41.9187 39.3524 41.825 39.3193 41.7007C39.2501 41.4466 39.0743 41.3061 38.9404 41.1169C38.6201 40.6646 38.1809 40.3908 37.8306 39.9836C37.6125 39.7295 37.3764 39.4539 37.1118 39.2845C36.7854 39.0755 36.4651 38.8521 36.1343 38.6521C35.6486 38.3584 35.1252 38.2071 34.6154 38.0017C34.0635 37.7782 33.4755 37.7728 32.9266 37.544C32.7913 37.4882 32.6394 37.4467 32.4996 37.4611C31.7582 37.5404 31.0439 37.2395 30.307 37.2467C30.0198 37.2503 29.7205 36.9116 29.6423 36.5711C29.5656 36.2378 29.54 35.8954 29.5055 35.5531C29.4543 35.0522 29.513 34.5369 29.3761 34.0486C29.3686 34.0234 29.358 33.9964 29.3596 33.9711C29.4002 33.4396 29.3009 32.9153 29.3084 32.3874C29.3145 31.9856 29.2664 31.5928 29.2002 31.2018C29.1716 31.0325 29.131 30.8649 29.1325 30.6902C29.137 29.901 29.0423 29.1244 28.958 28.3425C28.8738 27.5569 28.7716 26.7695 28.7385 25.9768C28.7265 25.7083 28.6648 25.4507 28.6303 25.1894C28.5475 24.5552 28.6062 23.9156 28.537 23.2886C28.4573 22.5751 28.5039 21.8598 28.4648 21.1481C28.4498 20.8796 28.4122 20.6184 28.3806 20.3553C28.3595 20.1679 28.3219 19.9878 28.4062 19.8094C28.4347 19.7481 28.4362 19.6779 28.4031 19.6184C28.2753 19.3878 28.3219 19.1337 28.3159 18.8815C28.3069 18.4274 28.2498 17.9806 28.14 17.5428C28.0137 17.0329 28.1866 16.6942 28.6227 16.5644C28.6979 16.5428 28.7927 16.5338 28.8408 16.4761C29.1626 16.087 29.6227 16.0437 29.9957 15.7843C30.4303 15.4816 30.895 15.26 31.3611 15.0383C31.5491 14.9501 31.6785 14.7465 31.883 14.6852C31.9928 14.6528 32.0018 14.5339 31.9552 14.4239C31.7988 14.0636 31.7973 13.6474 31.6514 13.2834C31.6123 13.1843 31.6198 13.0762 31.6289 12.9681C31.6845 12.3015 31.5912 11.6384 31.5762 10.9736C31.5702 10.6943 31.5732 10.4187 31.4935 10.1484C31.4063 9.85471 31.3175 9.77905 31.0664 9.75202C30.4694 9.68535 29.8979 9.82768 29.322 9.98804C29.0693 10.0583 28.8047 10.1196 28.531 10.0583C28.3385 10.0151 28.1324 10.0007 27.9339 10.0655C27.8347 10.098 27.7324 10.0961 27.6362 10.0619C27.5084 10.0169 27.3851 10.0385 27.2783 10.107C26.9655 10.3124 26.6452 10.2097 26.3309 10.1448C25.8151 10.0385 25.3038 9.90516 24.791 9.78444C24.6902 9.76101 24.5819 9.74659 24.4932 9.80065C24.2255 9.96461 23.9669 9.88353 23.7202 9.7556C23.5082 9.6457 23.2962 9.60247 23.0706 9.60967C22.9247 9.61508 22.7834 9.61327 22.651 9.51418C22.5518 9.4403 22.4345 9.47814 22.3247 9.47274C21.9819 9.45832 21.636 9.50156 21.3006 9.35562C21.0946 9.26733 21.0104 9.33761 20.9954 9.60967C20.9803 9.88894 20.9818 10.17 21.0254 10.4475C21.0495 10.5988 21.0435 10.7448 20.9713 10.8709C20.872 11.0475 20.8675 11.2438 20.8495 11.4438C20.7923 12.0763 20.8314 12.7267 20.6299 13.3357C20.5953 13.4402 20.6013 13.5447 20.6209 13.651C20.6404 13.7591 20.6375 13.8726 20.5879 13.9627C20.3683 14.3609 20.4961 14.8257 20.4074 15.2509C20.3698 15.4311 20.5096 15.5104 20.6344 15.532C20.9081 15.5825 21.1848 15.6347 21.4615 15.6509C21.7728 15.669 22.0736 15.66 22.3563 15.8906C22.4992 16.0059 22.7187 15.9879 22.9037 16.0257C22.9699 16.0383 23.0451 16.0347 23.0736 16.1212C23.1142 16.2491 23.015 16.2762 22.9564 16.3266C22.6255 16.6149 22.3157 16.9518 21.8615 16.9194C21.7442 16.9104 21.6555 17.0149 21.5548 17.0671C21.2871 17.2077 21.0194 17.2725 20.7698 17.0221C20.6615 16.914 20.5337 16.9446 20.4164 16.9518C20.245 16.9626 20.084 16.923 19.9216 16.8743C19.8344 16.8473 19.7502 16.8059 19.7051 16.7032C19.657 16.5897 19.5848 16.5212 19.4825 16.4797C19.2946 16.4023 19.1968 16.2149 19.1682 15.9987C19.1381 15.7644 19.093 15.5266 19.1382 15.2834C19.2209 14.842 19.1968 14.3789 19.3201 13.9429C19.3397 13.8708 19.3291 13.7843 19.3261 13.705C19.3216 13.5681 19.3216 13.415 19.3848 13.3159C19.6044 12.9717 19.6118 12.5772 19.6149 12.179C19.6179 11.7177 19.7878 11.2997 19.8464 10.8529C19.9096 10.3808 20.0194 9.91778 20.0344 9.43311C20.0419 9.18266 20.0976 8.93582 20.1352 8.68718C20.1412 8.64934 20.1622 8.61331 20.1818 8.58268C20.3126 8.38089 20.9066 8.14305 21.1066 8.25656C21.4104 8.42952 21.7307 8.40069 22.0254 8.33763C22.3698 8.26556 22.7082 8.24035 23.0511 8.26557C23.3112 8.28359 23.5564 8.23134 23.803 8.13044C23.9789 8.05837 24.1639 8.02054 24.3594 8.04216C24.5353 8.06198 24.6075 7.97008 24.5579 7.7827C24.4572 7.40433 24.5338 7.00974 24.4526 6.63137C24.4225 6.49084 24.415 6.3431 24.3609 6.20797C24.3008 6.05842 24.2872 5.89446 24.3233 5.73771C24.3865 5.46745 24.3549 5.2098 24.2917 4.95035C24.2421 4.74315 24.2451 4.52873 24.2391 4.31432C24.2256 3.74317 24.2045 3.17382 24.2391 2.60266C24.2571 2.29817 24.1519 2.00088 24.1699 1.68738C24.188 1.36307 24.3038 1.0982 24.4572 0.849562C24.5955 0.627946 24.8061 0.572083 25.0241 0.570281C25.1459 0.570281 25.2692 0.582889 25.3489 0.588295L25.3384 0.602723ZM25.5294 6.59715C25.4858 6.99714 25.5925 7.33046 25.6106 7.6764C25.6211 7.8872 25.803 8.01333 25.991 7.92684C26.1955 7.83315 26.385 7.87279 26.5805 7.90342C26.7805 7.93405 26.982 7.93945 27.176 7.87819C27.3399 7.82774 27.4858 7.80071 27.6603 7.86918C27.9024 7.96467 28.0166 7.83855 28.0467 7.51243C28.0618 7.35208 28.0723 7.18272 28.1475 7.0512C28.3626 6.68004 28.3671 6.25121 28.4092 5.83141C28.4453 5.46205 28.4347 5.08368 28.5325 4.72874C28.6317 4.36298 28.6738 4.00622 28.5791 3.63145C28.5325 3.45128 28.513 3.26391 28.546 3.07833C28.5896 2.82968 28.543 2.59906 28.4453 2.38285C28.3475 2.16664 28.2933 1.94862 28.3039 1.69638C28.3129 1.43873 28.2437 1.36485 28.0272 1.35404C27.8377 1.34503 27.6422 1.32703 27.4602 1.37207C26.8226 1.52883 26.179 1.44594 25.5384 1.48378C25.4497 1.48919 25.3564 1.5054 25.373 1.61711C25.4331 2.02971 25.3218 2.4387 25.3639 2.8513C25.4121 3.32336 25.3068 3.80263 25.4076 4.2765C25.4271 4.36838 25.3685 4.48189 25.3534 4.58639C25.3354 4.71792 25.2993 4.86567 25.3685 4.97738C25.5414 5.25125 25.5233 5.54851 25.4827 5.85842C25.4707 5.9467 25.4707 6.05121 25.4978 6.13409C25.5564 6.30526 25.5504 6.47283 25.5294 6.59715Z" fill="#FF4D00"/>
<path d="M7.48686 78.9013C7.47031 78.5896 7.54101 78.2347 7.57409 77.878C7.6177 77.4059 7.68387 76.9302 7.73049 76.46C7.79215 75.8312 7.88538 75.1951 7.87184 74.5627C7.86132 74.042 7.97257 73.5375 7.95151 73.0258C7.92444 72.3718 8.03873 71.7304 8.06129 71.0817C8.07633 70.6601 8.05229 70.2385 8.12899 69.8115C8.20117 69.4187 8.16355 68.9971 8.17407 68.5899C8.17558 68.5233 8.16657 68.4494 8.18913 68.3935C8.42071 67.7701 8.35305 67.0783 8.50193 66.4404C8.59968 66.0188 8.55604 65.5612 8.73499 65.1612C8.76507 65.0963 8.76657 65.0044 8.76356 64.927C8.75754 64.7306 8.8087 64.5648 8.90645 64.4081C9.03578 64.2027 9.11245 63.9702 9.11396 63.7036C9.11396 63.4099 9.27184 63.1811 9.35906 62.9216C9.43876 62.6856 9.48545 62.4315 9.57267 62.2099C9.79523 61.6496 9.89447 61.0118 10.2689 60.5469C10.3441 60.4514 10.3892 60.3415 10.3937 60.228C10.4058 59.8911 10.5697 59.6587 10.7411 59.4316C10.8464 59.2893 10.9396 59.1434 10.9877 58.9614C11.0824 58.592 11.293 58.2839 11.3682 57.9056C11.3878 57.8101 11.4418 57.7434 11.502 57.6803C11.5622 57.6173 11.6133 57.5452 11.6238 57.4479C11.6689 57.0245 11.887 56.7254 12.1306 56.4461C12.2599 56.2966 12.3216 56.12 12.3276 55.911C12.3382 55.5939 12.4419 55.3453 12.6795 55.1867C12.7803 55.1182 12.8449 55.0137 12.8916 54.8876C13.054 54.448 13.272 54.0354 13.4946 53.6516C13.7006 53.2967 13.9021 52.9327 14.1187 52.5832C14.1969 52.4571 14.2976 52.3399 14.4059 52.2517C14.6314 52.0679 14.633 51.7093 14.8345 51.5075C15.2661 51.0697 15.5728 50.4823 16.0285 50.0715C16.1247 49.985 16.2165 49.8787 16.2902 49.7634C16.5714 49.3238 16.9488 49.0139 17.3007 48.6698C17.3609 48.6103 17.4421 48.5689 17.4827 48.495C17.7654 47.9815 18.2617 47.8013 18.6286 47.4212C18.794 47.25 19.0045 47.1923 19.1835 47.059C19.4587 46.8536 19.7023 46.5978 19.958 46.3617C20.0692 46.259 20.1791 46.1942 20.3189 46.1797C20.5385 46.1581 20.7204 46.0608 20.8588 45.8356C20.9731 45.65 21.137 45.56 21.34 45.5167C21.7385 45.4284 22.1295 45.3113 22.5144 45.1329C22.8363 44.9834 23.1957 44.9365 23.5145 44.7492C24.0995 44.8447 24.6845 44.5996 25.2755 44.7636C25.5748 44.8465 25.8921 44.814 26.1838 44.9798C26.3462 45.0717 26.4951 45.187 26.6545 45.2807C27.2124 45.6086 27.7658 45.9581 28.3447 46.2266C28.6395 46.3635 28.9238 46.5365 29.2351 46.6356C29.4516 46.7041 29.638 46.9095 29.8696 46.9707C30.5103 47.1401 31.011 47.6716 31.6171 47.931C31.7524 47.9887 31.8727 48.095 32.0261 48.095C32.1073 48.095 32.1795 48.1364 32.2381 48.2013C32.4878 48.477 32.7961 48.6193 33.0953 48.7923C33.3194 48.922 33.4999 49.1598 33.7435 49.2698C33.8262 49.3076 33.9029 49.3688 33.9856 49.3995C34.2879 49.5112 34.5616 49.6643 34.7781 49.9598C34.924 50.158 35.136 50.2769 35.321 50.4175C35.7646 50.7544 36.1586 51.1724 36.5451 51.5832C36.9 51.9598 37.2278 52.385 37.5737 52.7814C37.6534 52.8733 37.7181 52.985 37.7511 53.1165C37.7572 53.1417 37.7587 53.1796 37.7737 53.1904C38.0564 53.4336 38.1496 53.8588 38.3948 54.1273C38.5767 54.3255 38.7091 54.5381 38.7767 54.8137C38.8248 55.0083 38.9211 55.1615 39.0218 55.3254C39.2053 55.6245 39.3286 55.9723 39.3692 56.347C39.4143 56.7578 39.5452 57.1488 39.5963 57.5506C39.6745 58.1668 39.8234 58.7938 39.7828 59.4046C39.7422 60.0298 39.7993 60.6514 39.7452 61.2712C39.9076 61.6496 39.7798 62.0586 39.8249 62.4496C39.858 62.7414 39.8279 63.0279 39.7693 63.3198C39.652 63.9036 39.5903 64.5054 39.6084 65.1035C39.6189 65.4116 39.5843 65.6909 39.4685 65.9522C39.3422 66.2332 39.2941 66.5323 39.3046 66.8404C39.3166 67.1972 39.258 67.5287 39.1482 67.8548C39.0234 68.2278 38.9662 68.6224 38.8805 69.0043C38.7466 69.6007 38.7061 70.2007 38.6595 70.8079C38.6249 71.2511 38.3903 71.6241 38.306 72.0547C38.2865 72.1574 38.2369 72.2529 38.2399 72.3628C38.2504 72.9177 38.1301 73.4438 38.0083 73.9718C37.9887 74.06 37.9918 74.1573 37.9888 74.2492C37.9632 74.9699 37.9196 75.6852 37.7918 76.3933C37.7376 76.6942 37.7421 77.0059 37.8008 77.3086C37.8594 77.6059 37.8413 77.8888 37.7406 78.1698C37.6203 78.5068 37.5978 78.8563 37.6218 79.2257C37.6624 79.8563 37.4323 80.359 37.0158 80.7355C36.9541 80.7914 36.8744 80.8202 36.8428 80.9139C36.706 81.3229 36.4022 81.4202 36.0879 81.4742C35.9195 81.5049 35.7601 81.5391 35.6097 81.6346C35.551 81.6706 35.4819 81.7121 35.4217 81.7067C34.7104 81.631 33.9991 81.8112 33.2893 81.7211C32.8036 81.6598 32.3119 81.6634 31.8352 81.4941C31.6457 81.4274 31.4381 81.4274 31.2396 81.4058C31.1057 81.3914 30.9719 81.395 30.8531 81.3031C30.7629 81.2346 30.6606 81.2274 30.5614 81.2382C29.9719 81.3049 29.4155 81.0779 28.8501 80.9481C28.6425 80.9013 28.4576 80.8779 28.2681 80.9914C28.0365 81.1301 27.8184 81.1319 27.5643 81.022C27.1838 80.8598 26.7688 80.8833 26.3718 80.8995C25.8725 80.9175 25.3747 80.8743 24.8755 80.8725C24.68 80.8725 24.5055 80.9608 24.3176 80.9824C23.9882 81.0184 23.68 80.9067 23.3732 80.795C23.11 80.6977 22.8438 80.7319 22.5791 80.7103C22.149 80.6761 21.7175 80.8166 21.2874 80.6941C21.2242 80.6761 21.1505 80.6725 21.0888 80.6941C20.6693 80.8472 20.2587 80.7427 19.8452 80.6527C19.77 80.6364 19.6873 80.5968 19.6167 80.6166C19.2813 80.7067 18.9519 80.6382 18.6196 80.5878C18.1519 80.5175 17.6917 80.6364 17.2285 80.6941C17.1158 80.7085 17.003 80.7463 16.9038 80.6671C16.7519 80.5445 16.597 80.5698 16.4255 80.5914C16.0105 80.6436 15.5969 80.7572 15.1728 80.6923C15.051 80.6743 14.9337 80.6671 14.8134 80.6238C14.4435 80.4923 14.0705 80.4364 13.7006 80.6238C13.6269 80.6617 13.5502 80.6779 13.4705 80.6635C12.9698 80.5806 12.481 80.6508 11.9833 80.7463C11.5697 80.8256 11.1426 80.804 10.7245 80.7175C10.5035 80.6707 10.2839 80.6761 10.0599 80.7049C9.57263 80.768 9.0869 80.849 8.59665 80.8328C8.40417 80.8274 8.22669 80.7409 8.04623 80.6761C7.99661 80.658 7.93197 80.613 7.91693 80.5608C7.78459 80.1157 7.5034 79.7374 7.49288 79.2365C7.49137 79.1428 7.48685 79.0491 7.48083 78.9049L7.48686 78.9013ZM8.3365 78.0689C8.38612 78.0743 8.40866 78.0834 8.42821 78.0779C8.6613 78.0077 8.66736 78.0077 8.65833 78.2509C8.65382 78.386 8.65083 78.5176 8.67038 78.6491C8.69444 78.8167 8.76059 78.8996 8.91849 78.8941C9.18767 78.8833 9.4493 78.8617 9.70344 78.7338C9.89593 78.6365 10.111 78.5374 10.317 78.6383C10.5035 78.7284 10.6869 78.7266 10.8749 78.7176C11.0524 78.7104 11.2314 78.7176 11.4058 78.705C11.5848 78.6941 11.7547 78.7968 11.9321 78.7338C12.3833 78.5734 12.8569 78.6815 13.3126 78.5698C13.3231 78.568 13.3352 78.5752 13.3457 78.5752C13.7202 78.5878 14.0931 78.6455 14.4615 78.4671C14.6059 78.3969 14.812 78.3806 14.9518 78.4473C15.2947 78.6113 15.6315 78.5176 15.9728 78.5122C16.2601 78.5086 16.5594 78.4924 16.8316 78.5806C17.0917 78.6635 17.3699 78.5554 17.6135 78.732C17.6466 78.7554 17.7158 78.7014 17.7699 78.6887C18.1549 78.5933 18.5279 78.6077 18.9189 78.723C19.1941 78.804 19.5083 78.8905 19.7971 78.7176C19.9038 78.6527 20.0046 78.6563 20.1189 78.6815C20.5776 78.7878 21.0362 78.8977 21.5084 78.777C21.5701 78.7608 21.6392 78.7914 21.7054 78.7986C21.925 78.8221 22.1581 78.9374 22.3566 78.8995C22.8182 78.8094 23.283 78.8815 23.7431 78.7968C23.9506 78.759 24.1928 78.8059 24.3853 78.9049C24.5462 78.9878 24.6754 78.9986 24.8288 78.9446C24.9146 78.9139 25.0018 78.8779 25.089 78.8779C25.7131 78.8725 26.3327 78.9464 26.9492 79.0455C27.2169 79.0887 27.4846 79.1338 27.7462 79.0977C28.0816 79.0509 28.4095 79.1266 28.7403 79.0995C28.8892 79.0869 29.032 79.123 29.1613 79.2022C29.3989 79.3464 29.6516 79.3662 29.9102 79.3572C30.5463 79.3374 31.175 79.4058 31.802 79.55C32.0231 79.6004 32.2517 79.6725 32.4863 79.6635C32.7374 79.6527 32.9975 79.5662 33.2321 79.7626C33.2607 79.7878 33.3179 79.7698 33.36 79.7644C33.6998 79.7211 34.0382 79.6635 34.3811 79.7464C34.4653 79.7662 34.5601 79.7482 34.6458 79.7284C34.8533 79.6815 35.0593 79.6239 35.2699 79.5932C35.5496 79.5536 35.715 79.3698 35.718 79.1031C35.7285 78.1969 35.8683 77.296 35.7886 76.3861C35.7661 76.1357 35.7932 75.8762 35.9285 75.6582C35.9857 75.5663 36.0052 75.469 35.9856 75.3573C35.9044 74.9105 36.0353 74.4853 36.0699 74.0492C36.0804 73.9267 36.1225 73.8132 36.1902 73.7231C36.3105 73.5646 36.3045 73.397 36.2578 73.2024C36.1105 72.5844 36.2473 71.9916 36.4128 71.4115C36.4955 71.1214 36.5872 70.8241 36.6022 70.5268C36.6173 70.2295 36.5902 69.9466 36.7721 69.6998C36.8157 69.6404 36.8037 69.5214 36.8157 69.4295C36.8954 68.7575 36.9797 68.0872 37.2594 67.4782C37.297 67.399 37.3136 67.3017 37.3241 67.2098C37.3918 66.5377 37.5255 65.8765 37.5646 65.1972C37.5767 64.9756 37.6112 64.7432 37.7812 64.59C37.8534 64.527 37.8473 64.4279 37.8534 64.3342C37.8684 64.1216 37.8745 63.909 37.8474 63.6946C37.8279 63.5486 37.8248 63.4009 37.891 63.2658C38.1827 62.6604 38.1571 61.9901 38.1601 61.3289C38.1632 60.7433 38.0805 60.1649 38.1346 59.5722C38.1827 59.0353 38.2098 58.4821 38.0324 57.9506C37.9767 57.783 37.9662 57.5866 37.9858 57.3956C38.0294 56.9776 37.9872 56.5632 37.8399 56.1885C37.7135 55.8678 37.7571 55.4714 37.521 55.2065C37.5466 54.8354 37.3075 54.6102 37.1827 54.3219C36.9751 53.8372 36.6098 53.4786 36.4353 52.9669C36.4263 52.9435 36.4067 52.9255 36.3932 52.9057C36.0142 52.367 35.5165 51.9652 35.1661 51.3922C35.1405 51.3526 35.0909 51.3364 35.0578 51.3003C34.8307 51.0463 34.548 50.8895 34.3134 50.6427C34.1631 50.4841 33.9825 50.3076 33.7991 50.2301C33.4968 50.1022 33.2457 49.895 32.9961 49.6751C32.8938 49.5851 32.7825 49.5256 32.6637 49.495C32.2878 49.3995 31.9509 49.1743 31.6351 48.9436C31.1945 48.6211 30.7404 48.3563 30.2562 48.1581C30.1719 48.1238 30.0877 48.0878 30.008 48.041C29.6095 47.8103 29.2125 47.5905 28.7899 47.4157C28.4335 47.268 28.1057 47.0158 27.7267 46.8968C27.5763 46.85 27.4304 46.7257 27.2665 46.6842C27.1432 46.6536 27.0259 46.596 26.9342 46.5059C26.5627 46.1365 26.0906 46.0825 25.6575 45.978C24.9928 45.8158 24.3145 45.8626 23.6814 46.2338C23.6529 46.25 23.6168 46.259 23.5852 46.2608C23.0949 46.2897 22.6634 46.5077 22.2363 46.7887C22.0333 46.9239 21.8483 47.095 21.6287 47.2032C21.343 47.3437 21.0468 47.4788 20.8453 47.7923C20.8077 47.85 20.7325 47.8734 20.6768 47.9148C20.3821 48.1346 19.9926 48.1761 19.8031 48.5905C19.7896 48.6193 19.7474 48.6373 19.7159 48.6464C19.588 48.6824 19.4933 48.7617 19.4406 48.9112C19.4031 49.0211 19.3219 49.068 19.2331 49.0932C18.8843 49.1887 18.6422 49.5058 18.3459 49.7094C18.1835 49.8211 18.0136 49.9832 17.9474 50.2319C17.9264 50.3112 17.8556 50.3436 17.8045 50.394C17.5323 50.6571 17.1819 50.8247 17.0647 51.2787C17.0496 51.3328 16.994 51.3904 16.9458 51.412C16.6947 51.5292 16.5819 51.7886 16.4736 52.0535C16.43 52.1616 16.394 52.2967 16.2902 52.3237C16.0752 52.3814 15.9804 52.567 15.9067 52.7832C15.8571 52.9273 15.7579 53.0048 15.6571 53.0931C15.4105 53.3129 15.212 53.5777 15.1684 53.9651C15.1593 54.0426 15.1503 54.1471 15.1081 54.1885C14.8811 54.412 14.7653 54.7489 14.5548 54.9795C14.3458 55.2083 14.1803 55.4912 14.0615 55.7687C13.8916 56.1668 13.7458 56.5903 13.5638 56.9813C13.3773 57.3848 13.2494 57.8335 12.9833 58.1812C12.8991 58.2911 12.8584 58.4371 12.7863 58.5434C12.5817 58.8461 12.5126 59.228 12.3232 59.5415C12.1051 59.9037 11.8614 60.2532 11.7171 60.6748C11.6494 60.8712 11.5862 61.0712 11.511 61.264C11.2163 62.0117 10.8178 62.6928 10.5681 63.4711C10.4794 63.745 10.4328 64.0351 10.3351 64.3054C10.1621 64.7792 9.93509 65.2315 9.91404 65.7702C9.91103 65.8332 9.88845 65.9089 9.85236 65.9522C9.65987 66.181 9.64634 66.4945 9.63883 66.772C9.6298 67.0711 9.58766 67.3539 9.5245 67.6332C9.46284 67.9035 9.4704 68.1971 9.38168 68.4494C9.26438 68.7773 9.24031 69.116 9.18166 69.4548C9.09293 69.9683 9.08088 70.4872 9.04479 71.0061C8.99065 71.779 8.77712 72.5394 8.90645 73.3285C8.91246 73.3664 8.91099 73.415 8.89595 73.4457C8.79068 73.6583 8.81323 73.8799 8.84631 74.1069C8.86285 74.2168 8.83122 74.3195 8.79513 74.4168C8.744 74.5537 8.73652 74.6979 8.72449 74.8456C8.66885 75.5213 8.61167 76.1969 8.53799 76.869C8.49437 77.26 8.41617 77.6455 8.347 78.0617L8.3365 78.0689Z" fill="#FF4D00"/>
<path d="M33.2018 60.7002C32.5897 60.7092 32.092 60.2876 31.8544 59.5399C31.725 59.1291 31.4288 58.8966 31.2243 58.5687C31.1897 58.5129 31.11 58.4876 31.0468 58.4714C30.8618 58.4246 30.716 58.3255 30.6242 58.1183C30.5611 57.9741 30.4378 57.9309 30.316 57.9039C30.1235 57.8588 29.9626 57.7507 29.8242 57.5832C29.7626 57.5075 29.6919 57.4246 29.6122 57.3922C29.0452 57.1633 28.4888 56.8625 27.8647 56.9489C27.5639 56.9904 27.2798 56.976 26.9895 56.8048C26.6993 56.6336 26.3594 56.6066 26.0391 56.6805C25.6361 56.7742 25.224 56.7832 24.8225 56.8733C24.2901 56.994 23.7608 57.1453 23.2585 57.4048C23.1879 57.4408 23.1126 57.4678 23.0405 57.5021C22.8149 57.6102 22.5954 57.7165 22.3878 57.884C22.1051 58.1129 21.7743 58.2588 21.463 58.439C21.3231 58.5201 21.1818 58.6011 21.0389 58.6768C20.9638 58.7165 20.8991 58.7705 20.8765 58.866C20.7803 59.2588 20.499 59.3867 20.2208 59.4696C20.0148 59.5309 19.8825 59.648 19.7832 59.8534C19.7667 59.8876 19.7457 59.92 19.7291 59.9543C19.5171 60.4029 19.1937 60.6137 18.7666 60.6083C18.6659 60.6083 18.5666 60.6137 18.4659 60.6227C18.326 60.6353 18.2072 60.6425 18.2238 60.8948C18.2358 61.084 18.0719 61.1218 17.9516 61.0894C17.4643 60.9596 16.9621 60.8948 16.5124 60.6083C16.4132 60.5452 16.3184 60.4786 16.2071 60.4515C16.0928 60.4227 15.9996 60.356 15.9409 60.2299C15.8958 60.1344 15.8372 60.0534 15.7575 60.0011C15.3109 59.7056 15.3951 59.1561 15.568 58.702C15.6131 58.5831 15.6899 58.4768 15.7696 58.3831C16.0297 58.0768 16.2327 57.7399 16.2823 57.2895C16.3004 57.1219 16.4117 56.994 16.532 56.9309C16.7816 56.8012 16.9109 56.5616 16.9936 56.2805C17.0568 56.0661 17.1636 55.9075 17.3245 55.7994C17.4944 55.6859 17.6147 55.531 17.7019 55.313C17.8117 55.0355 17.9756 54.7977 18.2177 54.6517C18.3155 54.5941 18.4133 54.5076 18.4794 54.4067C18.7577 53.9797 19.1366 53.695 19.4809 53.3635C19.5426 53.304 19.5983 53.2355 19.6795 53.2211C19.887 53.1833 20.0524 53.0572 20.1968 52.8824C20.2434 52.8265 20.302 52.7761 20.3637 52.7509C20.8419 52.5599 21.278 52.2716 21.693 51.9329C21.7291 51.904 21.7743 51.8698 21.8149 51.8716C22.1262 51.8896 22.3563 51.677 22.6059 51.5023C23.0149 51.2158 23.4931 51.214 23.9383 51.0734C23.9804 51.0608 24.0345 51.0878 24.0706 51.0662C24.609 50.7401 25.2075 50.8735 25.773 50.7437C25.8391 50.7293 25.9143 50.7473 25.9714 50.7131C26.397 50.459 26.8647 50.5149 27.3144 50.4392C27.555 50.3978 27.7971 50.4843 28.0422 50.4843C28.182 50.4843 28.3264 50.5113 28.4692 50.4915C28.9475 50.4266 29.4272 50.4753 29.8739 50.6626C30.1867 50.7924 30.4754 50.9617 30.8198 50.9221C30.9476 50.9077 31.0303 51.0572 31.119 51.1581C31.2002 51.25 31.2739 51.3617 31.3972 51.3581C31.6108 51.3527 31.7536 51.4968 31.8784 51.6716C32.0288 51.8842 32.2243 52.05 32.3176 52.3203C32.3371 52.3761 32.3882 52.4265 32.4348 52.4572C32.7566 52.668 33.0018 52.9941 33.2138 53.3256C33.5116 53.7905 33.8289 54.2571 33.9627 54.8481C34.0229 55.1166 34.1221 55.3688 34.1837 55.6427C34.271 56.0246 34.2619 56.3904 34.2499 56.7814C34.2349 57.3273 34.0875 57.8138 33.9537 58.3111C33.868 58.63 33.904 58.9471 33.9055 59.2624C33.907 59.693 33.7897 60.075 33.6484 60.4515C33.5551 60.6966 33.3446 60.6876 33.1972 60.6984L33.2018 60.7002ZM33.3176 57.7309C33.3913 57.6174 33.3446 57.5039 33.3747 57.4048C33.504 56.9724 33.4289 56.5508 33.3326 56.1219C33.2469 55.7454 33.1492 55.3922 32.9537 55.0697C32.8514 54.9003 32.7507 54.731 32.6529 54.5616C32.474 54.2517 32.1957 54.1076 31.9807 53.8607C31.7521 53.5977 31.507 53.3346 31.2348 53.1328C31.0498 52.9959 30.8213 52.9437 30.6949 52.695C30.6528 52.6139 30.5581 52.6103 30.4784 52.6356C30.3491 52.6734 30.2137 52.6518 30.1295 52.5509C29.9159 52.295 29.6362 52.2788 29.3715 52.1941C29.179 52.1329 28.9775 52.1112 28.7956 51.9941C28.7339 51.9545 28.6407 51.9653 28.5655 51.9833C28.1053 52.086 27.6407 52.1509 27.173 52.1509C26.7038 52.1509 26.2496 52.3058 25.7774 52.3094C25.4962 52.3112 25.2015 52.3833 24.9428 52.5653C24.8361 52.641 24.7158 52.6698 24.5924 52.6932C24.1323 52.7743 23.6766 52.8464 23.2435 53.095C22.7352 53.3869 22.2043 53.6301 21.6615 53.8247C21.3427 53.9382 21.0735 54.1382 20.872 54.4607C20.8464 54.5022 20.8118 54.5526 20.7742 54.567C20.4765 54.6769 20.2705 54.9526 20.0253 55.1562C19.5637 55.54 19.0854 55.8949 18.8072 56.5147C18.7666 56.6066 18.702 56.6931 18.6313 56.7526C18.508 56.8535 18.4328 56.9994 18.3366 57.1237C18.1516 57.3615 18.0764 57.6967 17.8749 57.9003C17.711 58.066 17.6072 58.266 17.544 58.4876C17.4613 58.7741 17.3801 59.0174 17.1215 59.1579C16.9395 59.257 16.8538 59.5831 16.9425 59.702C17.1079 59.92 17.2598 60.1885 17.544 60.1903C17.5877 60.1236 17.5756 60.0714 17.5591 60.0227C17.4719 59.7381 17.526 59.493 17.6493 59.2282C17.7847 58.9381 18.0087 58.7579 18.1711 58.5075C18.4689 58.0552 18.878 57.7381 19.1877 57.2985C19.29 57.1543 19.4404 57.0949 19.5802 57.0102C19.8539 56.8426 20.1231 56.6517 20.3667 56.4264C20.7502 56.0733 21.1712 55.8156 21.6329 55.6697C21.9126 55.5814 22.1969 55.5382 22.433 55.3112C22.4826 55.2643 22.5548 55.2427 22.618 55.2229C22.8149 55.1616 22.9879 55.0481 23.1578 54.9166C23.3713 54.7508 23.5909 54.5779 23.8721 54.7076C23.9563 54.7454 24.048 54.6895 24.1337 54.6643C24.242 54.6337 24.3518 54.5778 24.4586 54.585C24.8977 54.6157 25.3158 54.4409 25.7489 54.4157C26.1925 54.3904 26.6301 54.3022 27.0782 54.4175C27.3083 54.4769 27.5489 54.5886 27.7986 54.4643C27.8482 54.4409 27.9294 54.4841 27.9895 54.5148C28.0948 54.5688 28.2016 54.5995 28.3144 54.5869C28.4302 54.5742 28.5354 54.6085 28.6347 54.6769C28.7745 54.7706 28.9264 54.7887 29.0828 54.8157C29.5294 54.8932 29.9881 54.9148 30.3611 55.3003C30.4829 55.4265 30.6468 55.5129 30.8137 55.5454C31.0814 55.5994 31.2693 55.7904 31.4618 56.003C31.6724 56.2373 31.8799 56.4985 32.1431 56.6336C32.3837 56.7562 32.5927 56.9183 32.7943 57.1075C32.9852 57.2877 33.1476 57.5021 33.3116 57.7291L33.3176 57.7309Z" fill="#FF4D00"/>
<path d="M24.7909 75.5428C24.5909 75.5752 24.4135 75.5824 24.2721 75.4671C23.8571 75.132 23.4811 75.332 23.1171 75.5806C22.7051 75.8617 22.257 76.0256 21.7983 76.0833C21.3216 76.1428 20.8343 76.141 20.3576 75.9968C20.3366 75.9896 20.308 75.9932 20.2945 75.977C19.9877 75.6293 19.5155 75.6527 19.2177 75.2869C19.0944 75.1356 18.9441 75.105 18.7862 75.1626C18.6178 75.2257 18.4628 75.1824 18.2959 75.1464C17.5996 74.9933 16.9034 74.9698 16.2131 75.2059C15.759 75.3626 15.2928 75.4059 14.8236 75.3734C14.5785 75.3572 14.3394 75.2527 14.1244 75.123C13.8161 74.9338 13.4927 74.9969 13.1739 74.977C13.1047 74.9734 13.0371 75.0023 12.998 75.0725C12.8401 75.3572 12.5905 75.5212 12.392 75.7536C12.2491 75.9212 12.1634 76.0959 12.1859 76.3518C12.21 76.6382 12.1333 76.7139 11.9017 76.7031C11.8686 76.7013 11.8355 76.6869 11.8024 76.6869C11.1858 76.6779 11.0205 75.9518 11.3498 75.4563C11.5633 75.1338 11.804 74.8329 12.019 74.514C12.2852 74.1176 12.6551 74.0617 13.0055 73.9248C13.1468 73.8708 13.2927 73.905 13.4296 73.9789C13.7349 74.141 14.0477 74.2852 14.3439 74.4653C14.6597 74.6581 14.9935 74.8185 15.3168 74.9734C15.7875 75.1987 16.2868 75.0905 16.6944 74.6707C16.8387 74.523 16.9696 74.3536 17.1455 74.2617C17.4824 74.0852 17.6117 73.6654 17.8703 73.3987C18.0884 73.1753 18.2899 72.9266 18.5846 72.8474C18.6267 72.8348 18.6749 72.8185 18.7064 72.7861C19.1095 72.3861 19.5772 72.5429 20.0223 72.5897C20.2418 72.6131 20.4148 72.8167 20.4794 73.0672C20.5607 73.3825 20.8494 73.5338 20.881 73.8798C20.8885 73.959 20.9847 73.9915 21.0509 73.9536C21.4208 73.7428 21.8344 73.7897 22.2193 73.6563C22.4855 73.5627 22.7638 73.5212 23.0194 73.3789C23.0495 73.3627 23.084 73.3483 23.1156 73.3501C23.4916 73.3771 23.8675 73.2816 24.2465 73.3807C24.46 73.4365 24.642 73.5356 24.824 73.6708C25.5203 74.1933 26.2616 74.2654 27.0285 73.941C27.2135 73.8618 27.406 73.7807 27.5519 73.5987C27.5955 73.5447 27.6662 73.5122 27.7293 73.4924C28.2436 73.3374 28.758 73.1789 29.2918 73.3825C29.3851 73.4185 29.4903 73.4131 29.5896 73.4131C29.8798 73.4131 30.17 73.3951 30.4467 73.5338C30.4963 73.5591 30.5595 73.5789 30.6091 73.5663C31.0137 73.4672 31.4303 73.5897 31.8348 73.4744C32.1581 73.3807 32.4784 73.4401 32.7957 73.5266C32.9055 73.5573 33.0017 73.6203 33.089 73.7104C33.1852 73.8113 33.2077 73.932 33.0965 74.0059C32.8273 74.1825 32.698 74.5951 32.3521 74.6383C31.8829 75.1662 31.3099 74.9176 30.7911 74.8743C30.2166 74.8275 29.6407 74.7248 29.0647 74.6617C28.8497 74.6383 28.6752 74.4761 28.4572 74.4599C28.3218 74.4491 28.2241 74.4563 28.1384 74.5951C28.0286 74.7734 27.8722 74.8725 27.6903 74.9194C27.3444 75.0095 27.0135 75.1842 26.6541 75.2077C26.5278 75.2167 26.4165 75.2671 26.3172 75.3644C26.2014 75.4779 26.0616 75.5536 25.9143 75.5086C25.7082 75.4455 25.5172 75.4815 25.3232 75.5554C25.1353 75.6257 24.9473 75.4833 24.7894 75.5446L24.7909 75.5428Z" fill="#FF4D00"/>
<path d="M33.6301 69.4204C33.6301 69.4204 33.5925 69.4078 33.564 69.4222C33.1249 69.6294 32.6857 69.4781 32.2451 69.4366C32.2 69.433 32.1458 69.451 32.1127 69.4258C31.8315 69.2276 31.5624 69.3573 31.2811 69.433C31.0225 69.5033 30.7548 69.5411 30.4841 69.5285C30.3142 69.5213 30.1548 69.5735 30.018 69.7105C29.7653 69.9609 29.3141 70.0276 29.0615 69.8096C28.69 69.4907 28.26 69.3573 27.8419 69.1772C27.69 69.1123 27.5411 69.1051 27.3908 69.2078C27.2223 69.3231 27.0043 69.3195 26.8779 69.5447C26.8298 69.6294 26.717 69.6204 26.6268 69.6312C26.3411 69.6672 26.0539 69.6871 25.7832 69.8348C25.5531 69.9609 25.302 69.8636 25.0598 69.8744C24.9275 69.8816 24.7936 69.8528 24.6598 69.8438C24.159 69.8132 23.7395 69.597 23.4297 69.1033C23.2673 68.8456 23.0267 68.6835 22.8146 68.4979C22.6808 68.3808 22.4703 68.4727 22.3064 68.5718C22.1364 68.6745 21.968 68.7736 21.7951 68.8691C21.7349 68.9033 21.6703 68.9285 21.6071 68.9501C21.5003 68.9862 21.4071 68.9555 21.3394 68.8456C21.2688 68.7321 21.2838 68.6078 21.353 68.5123C21.5169 68.2817 21.6507 68.0186 21.9004 67.8799C22.159 67.7358 22.3575 67.4619 22.6568 67.388C22.8116 67.3502 22.9605 67.3033 23.1184 67.3268C23.3169 67.3556 23.517 67.3808 23.714 67.4295C23.9411 67.4853 24.132 67.6295 24.2448 67.8763C24.3486 68.1033 24.4764 68.179 24.702 68.152C25.0403 68.1105 25.3411 67.9826 25.6554 67.8349C26.0253 67.6583 26.3893 67.3736 26.8254 67.4709C26.866 67.4799 26.9186 67.4709 26.9547 67.4475C27.2765 67.2241 27.6419 67.2529 27.9878 67.1754C28.3713 67.0907 28.7111 67.2024 29.0284 67.4565C29.1126 67.5231 29.1969 67.6168 29.2976 67.5988C29.5082 67.561 29.6705 67.6619 29.8074 67.8276C30.1217 68.2096 30.5247 68.2402 30.9247 68.2006C31.3323 68.161 31.7473 68.1231 32.1383 67.9448C32.1999 67.9159 32.2692 67.8925 32.3338 67.8979C32.8015 67.9285 33.2647 67.9304 33.7188 67.7646C33.8256 67.725 33.9158 67.7772 34.0001 67.8475C34.185 67.9988 34.3775 68.1267 34.5805 68.2403C34.7986 68.3628 34.8256 68.5898 34.6467 68.7826C34.4482 68.9952 34.2316 69.1844 34.0166 69.3735C33.9113 69.4672 33.7835 69.451 33.6286 69.4186L33.6301 69.4204Z" fill="#FF4D00"/>
<path d="M19.9907 68.6189C19.7531 68.6279 19.5545 68.736 19.356 68.8531C19.2583 68.9108 19.1335 68.9649 19.0343 68.9415C18.6192 68.8478 18.2553 69.109 17.8643 69.1595C17.5109 69.2045 17.1951 69.4585 16.8252 69.4279C16.7816 69.4243 16.7319 69.4928 16.6853 69.5288C16.5048 69.6693 16.3229 69.7306 16.0928 69.7144C15.789 69.6946 15.4792 69.7829 15.1725 69.8243C14.9845 69.8495 14.7965 69.8802 14.6085 69.9054C14.4612 69.9252 14.3198 69.8946 14.192 69.7991C14.0085 69.6621 13.813 69.5883 13.592 69.5955C13.386 69.6027 13.1949 69.5342 13.0611 69.3198C12.9919 69.2081 12.8896 69.1522 12.7829 69.1108C12.5513 69.0207 12.446 68.7973 12.428 68.5343C12.4115 68.2982 12.428 68.055 12.4611 67.8189C12.4987 67.5415 12.6611 67.4136 12.9243 67.4064C13.1845 67.3992 13.2882 67.4856 13.3649 67.7847C13.3844 67.8604 13.3935 67.9415 13.41 68.0189C13.4281 68.109 13.4807 68.1595 13.5559 68.1487C13.8596 68.1108 14.1544 68.2099 14.4537 68.2225C14.7559 68.2351 15.0551 68.2208 15.3484 68.1271C15.5228 68.0712 15.6973 68.0478 15.8763 68.0514C16.0342 68.0532 16.1875 68.0352 16.3124 67.8946C16.362 67.8388 16.4222 67.7937 16.4928 67.8045C16.8838 67.8586 17.2312 67.6532 17.5951 67.5451C17.6838 67.5181 17.7695 67.5199 17.8583 67.5181C18.0688 67.5145 18.2703 67.4874 18.4658 67.3487C18.7921 67.1163 19.4177 67.3271 19.6192 67.7108C19.7651 67.9883 19.9501 68.2442 19.9922 68.6153L19.9907 68.6189Z" fill="#FF4D00"/>
<path d="M8.64157 68.0296C8.66563 68.2782 8.66416 68.5215 8.6025 68.7521C8.44611 69.3394 8.45961 69.9629 8.34081 70.5574C8.31073 70.7088 8.33329 70.8763 8.34081 71.0367C8.35735 71.4583 8.204 71.8727 8.30475 72.3015C8.3228 72.3808 8.28369 72.4835 8.26114 72.5736C8.13331 73.1015 8.06111 73.642 8.05509 74.1897C8.04758 74.815 8.02952 75.4456 8.08667 76.0636C8.11524 76.3645 8.12731 76.6672 8.1634 76.9663C8.204 77.3032 8.18744 77.6329 8.17992 77.9662C8.17692 78.159 8.20852 78.3212 8.28221 78.4995C8.398 78.7842 8.52584 79.0076 8.82059 78.9986C8.85066 78.9986 8.89275 79.0167 8.9123 79.0437C9.08825 79.2977 9.3499 79.3283 9.583 79.4437C9.82361 79.5626 10.0642 79.5644 10.3033 79.5337C10.565 79.5013 10.8086 79.5608 11.0613 79.6094C11.3786 79.6707 11.6823 79.813 12.0056 79.8148C12.1124 79.8148 12.1966 79.8797 12.2943 79.9049C12.6733 80.0058 13.0493 80.1518 13.4328 80.1932C13.6674 80.2202 13.917 80.2491 14.1576 80.1986C14.4975 80.1265 14.8373 80.0581 15.1787 80.1896C15.2178 80.204 15.2659 80.1896 15.3095 80.1842C15.6103 80.1499 15.9095 80.1446 16.2103 80.1572C16.4765 80.1698 16.7442 80.1626 17.0013 80.0382C17.1607 79.9626 17.3397 79.968 17.4976 80.0256C17.9788 80.204 18.4585 80.1572 18.9442 80.0761C19.1006 80.049 19.23 79.8779 19.3894 79.9301C19.7292 80.0401 20.0571 79.9806 20.3849 79.8797C20.4872 79.8491 20.5819 79.8905 20.6797 79.9229C21.018 80.0346 21.3578 80.0797 21.6872 79.8725C21.821 79.7878 21.9594 79.7752 22.1083 79.8256C22.3654 79.9121 22.6436 79.8256 22.8962 79.9608C22.9744 80.0022 23.0467 79.9373 23.1173 79.8977C23.3474 79.768 23.588 79.741 23.8361 79.7914C23.9249 79.8094 24.0136 79.8292 24.1008 79.7914C24.5069 79.6202 24.9325 79.6581 25.3505 79.613C25.5821 79.5878 25.8182 79.6184 26.0423 79.5049C26.0994 79.4761 26.1746 79.4851 26.2392 79.4959C26.4588 79.5356 26.6618 79.541 26.8889 79.4455C27.0724 79.368 27.3114 79.4239 27.5145 79.4797C28.0513 79.6311 28.6002 79.6311 29.1431 79.6581C29.4995 79.6761 29.8409 79.7986 30.1943 79.7932C30.2484 79.7932 30.3101 79.8382 30.3582 79.8202C30.88 79.631 31.3973 79.8905 31.9161 79.8419C32.0033 79.8329 32.1011 79.8274 32.1808 79.8617C32.5327 80.0184 32.8876 80.0887 33.2591 79.9788C33.4049 79.9355 33.5208 80.0508 33.6245 80.1409C33.7854 80.2797 33.9433 80.2959 34.1268 80.2274C34.3508 80.1427 34.5839 80.1247 34.8185 80.1121C35.0411 80.0995 35.2636 80.0725 35.4531 79.9049C35.5554 79.8148 35.6727 79.7752 35.799 79.7752C35.9208 79.7752 36.0186 79.7175 36.0727 79.5842C36.2757 79.0833 36.5284 78.6094 36.6637 78.0707C36.7088 77.8924 36.7599 77.714 36.7239 77.5212C36.7163 77.4834 36.7148 77.4365 36.7253 77.4023C36.8231 77.1032 36.79 76.7735 36.8517 76.4834C36.9946 75.8059 37.0156 75.1123 37.1239 74.4348C37.1419 74.3249 37.1284 74.224 37.1058 74.1195C37.0758 73.9862 37.0878 73.8564 37.1254 73.7249C37.2246 73.3826 37.2638 73.0258 37.2773 72.6691C37.2878 72.397 37.3164 72.1394 37.4321 71.8997C37.5314 71.6979 37.5224 71.4691 37.5495 71.2457C37.6126 70.7448 37.5796 70.2169 37.8006 69.7538C37.8337 69.6854 37.8637 69.6043 37.8652 69.5286C37.8743 68.9755 38.0728 68.462 38.0878 67.9107C38.0893 67.8458 38.0984 67.7737 38.1239 67.7161C38.3991 67.0909 38.4202 66.3828 38.5871 65.7233C38.6939 65.3017 38.8127 64.8855 39.0909 64.572C39.2007 64.4477 39.2187 64.2621 39.3209 64.1342C39.6458 63.7252 40.0187 63.3991 40.4609 63.1937C40.5015 63.1739 40.5511 63.1613 40.5917 63.1721C40.9571 63.2567 41.3375 63.2459 41.6879 63.4243C41.739 63.4495 41.7917 63.4802 41.8459 63.4874C42.4083 63.5666 42.5737 64.3234 42.6098 64.8531C42.6519 65.4585 42.4714 66.0422 42.5105 66.6476C42.5196 66.7882 42.4805 66.9413 42.4384 67.0764C42.1677 67.9395 42.1015 68.835 42.1211 69.7466C42.1256 69.9466 42.1406 70.1466 42.0819 70.3412C42.0549 70.4295 42.0564 70.5304 42.088 70.6169C42.1902 70.8962 42.1271 71.1953 42.1601 71.4835C42.1707 71.5736 42.1511 71.6673 42.1872 71.7556C42.3707 72.2078 42.4038 72.7213 42.6083 73.1718C42.712 73.4006 42.7196 73.6943 42.718 73.9826C42.7165 74.5735 42.5752 75.1429 42.5647 75.723C42.5571 76.0744 42.5586 76.4347 42.6053 76.7915C42.7105 77.5807 42.6339 78.3896 42.7451 79.1734C42.8384 79.8256 42.7586 80.4599 42.7406 81.1013C42.7331 81.3878 42.6248 81.6598 42.5962 81.9535C42.5737 82.1733 42.5301 82.3949 42.5196 82.622C42.5045 82.9373 42.4309 83.2309 42.2429 83.4598C42.1587 83.5625 42.1376 83.6904 42.094 83.8129C41.9601 84.1895 41.8128 84.5516 41.3917 84.5426C41.33 84.5426 41.2669 84.5931 41.2052 84.6237C40.8729 84.7913 40.5315 84.9048 40.1661 84.8633C40.0639 84.8507 39.9616 84.8579 39.8714 84.9102C39.6488 85.0381 39.4157 85.0273 39.1826 84.9913C38.6578 84.9102 38.139 84.9804 37.6247 85.0921C37.4517 85.1282 37.2968 85.0453 37.1284 85.0507C36.7524 85.0633 36.375 85.1192 35.9975 85.0417C35.7223 84.9859 35.4471 84.9732 35.1734 85.0777C34.9899 85.148 34.802 85.1408 34.6125 85.085C34.3734 85.0129 34.1358 84.9967 33.8877 85.0687C33.7072 85.121 33.5102 85.0705 33.3252 85.0111C33.1523 84.9552 32.9764 84.912 32.7974 84.9138C31.7808 84.921 30.7793 84.7733 29.7777 84.5715C29.3792 84.4904 29.0093 84.3066 28.6093 84.2471C28.0799 84.1679 27.5716 83.9715 27.0528 83.8345C26.9145 83.7967 26.7641 83.8111 26.6197 83.8111C26.4077 83.8111 26.1972 83.8363 25.9896 83.7517C25.9295 83.7282 25.8542 83.7318 25.7911 83.748C25.3971 83.8525 24.9851 83.7733 24.5956 83.8832C23.9324 84.0724 23.2452 84.0291 22.5865 84.2327C22.3234 84.3138 22.0541 84.2868 21.7895 84.3318C21.3594 84.4057 20.9533 84.6111 20.5202 84.6561C19.8465 84.7264 19.1969 84.966 18.5202 85.0327C18.1352 85.0705 17.7457 85.1102 17.3608 85.1967C16.9713 85.2849 16.5607 85.2705 16.1787 85.4129C15.7155 85.5858 15.2253 85.5012 14.7651 85.6741C14.6298 85.7246 14.4779 85.7228 14.3351 85.739C14.1576 85.7588 13.9817 85.7804 13.8117 85.8579C13.7095 85.9047 13.5952 85.9444 13.4869 85.9444C12.9395 85.9498 12.4388 86.166 11.941 86.4038C11.8703 86.4363 11.7906 86.4435 11.7139 86.4597C11.6477 86.4723 11.5515 86.4525 11.5214 86.4975C11.3274 86.7804 11.0477 86.7516 10.7921 86.8146C10.75 86.8254 10.7078 86.8507 10.6703 86.8795C9.96496 87.429 9.16645 87.575 8.35138 87.6488C7.93031 87.4903 7.51829 87.7155 7.09421 87.6867C6.55885 87.6506 6.07004 87.4903 5.59634 87.2182C5.52717 87.1786 5.44897 87.1552 5.37378 87.1335C5.21438 87.0885 5.09862 86.9822 4.99937 86.8236C4.84598 86.5768 4.67155 86.3498 4.40988 86.2615C4.25649 86.2092 4.16325 86.0561 4.1031 85.9101C3.98881 85.6345 3.83839 85.3894 3.72259 85.1192C3.49552 84.5877 3.39179 84.0147 3.42337 83.4237C3.44142 83.0886 3.39479 82.7571 3.41133 82.4274C3.44893 81.6941 3.48953 80.9625 3.5587 80.2328C3.59479 79.8382 3.68954 79.4509 3.75872 79.0599C3.77225 78.9824 3.80083 78.9013 3.79632 78.8257C3.76925 78.3536 3.92114 77.9374 4.06851 77.5212C4.09558 77.4455 4.12567 77.3753 4.11815 77.2924C4.08206 76.9212 4.24445 76.5681 4.17227 76.1879C4.13167 75.9645 4.24592 75.7339 4.32111 75.5429C4.42788 75.2762 4.46102 75.0005 4.45651 74.7339C4.4505 74.3321 4.48356 73.9357 4.51364 73.5429C4.54221 73.1754 4.5873 72.806 4.63692 72.4403C4.73016 71.7592 4.65646 71.0817 4.66248 70.4025C4.66248 70.298 4.63246 70.1917 4.60689 70.089C4.36628 69.1485 4.53469 68.3071 5.00539 67.5197C5.19186 67.2062 5.40086 66.9107 5.5738 66.5864C5.83697 66.0927 6.25806 65.9449 6.69116 65.8008C7.36186 65.5774 7.84762 66.0026 8.25967 66.5143C8.5078 66.8224 8.60848 67.28 8.64157 67.7269C8.64909 67.8332 8.64157 67.9413 8.64157 68.0386V68.0296Z" fill="#FF4D00"/>
</svg>
