<svg width="73" height="138" viewBox="0 0 73 138" fill="none" xmlns="http://www.w3.org/2000/svg">
<path d="M51.7253 11.1729C51.7887 11.8792 51.6294 12.4882 51.591 13.1058C51.5565 13.6911 51.4855 14.272 51.4509 14.8552C51.4106 15.5182 51.5795 16.1164 51.6889 16.7384C51.7464 17.0731 51.7733 17.4035 51.6965 17.7383C51.6543 17.9262 51.6313 18.1292 51.6965 18.3063C51.8481 18.7144 51.8232 19.1528 51.8769 19.574C51.946 20.1117 51.9614 20.656 52.1494 21.1656C52.1648 21.2088 52.1801 21.2607 52.1744 21.306C52.065 22.1893 52.3068 23.0445 52.3394 23.9149C52.3644 24.552 52.4334 25.1847 52.2377 25.8132C52.1398 26.1263 52.1264 26.4611 52.2838 26.7915C52.3874 27.0075 52.3298 27.2623 52.2722 27.4977C52.1072 28.1823 52.0842 28.8864 52.0746 29.5861C52.0688 29.91 52.0343 30.2189 51.969 30.532C51.8155 31.2598 51.6217 31.979 51.5526 32.7284C51.5392 32.8709 51.5238 33.0329 51.4567 33.143C51.0652 33.7801 51.211 34.5641 50.9903 35.2487C50.9424 35.3955 50.9788 35.564 51.0134 35.7216C51.0709 35.9851 51.1362 36.2486 51.0825 36.5272C51.0594 36.6417 51.0825 36.7518 51.1419 36.8468C51.2763 37.0649 51.3204 37.322 51.3646 37.5682C51.4087 37.8165 51.5123 38.0109 51.6428 38.2052C52.0803 38.8553 52.5582 39.46 53.1512 39.9438C53.2951 40.0604 53.4524 40.1165 53.6098 40.1856C53.9974 40.3541 54.3755 40.5355 54.5962 40.9717C54.623 41.0257 54.6653 41.0862 54.7132 41.1078C55.1469 41.3022 55.4348 41.7233 55.8128 42.004C56.0009 42.1423 56.1659 42.315 56.2868 42.544C56.4308 42.8182 56.5862 43.086 56.8587 43.2372C57.0007 43.3171 57.0679 43.4942 57.1619 43.6346C57.4171 44.019 57.6839 44.3969 58.012 44.7036C58.1636 44.844 58.2481 45.006 58.3018 45.2154C58.4208 45.6862 58.463 46.1851 58.7374 46.5976C58.7931 46.6797 58.8219 46.8157 58.8084 46.9194C58.7566 47.2952 58.8679 47.6407 58.9293 47.9949C59.0003 48.4052 59.0598 48.8156 58.8411 49.2065C58.7796 49.3144 58.7969 49.4527 58.8103 49.5823C58.8238 49.7075 58.843 49.8479 58.8103 49.9623C58.6434 50.5368 58.6914 51.1199 58.6895 51.7095C58.6895 52.3142 58.5993 52.9211 58.4342 53.5042C58.3901 53.6597 58.3709 53.7979 58.3901 53.9663C58.4304 54.314 58.3575 54.6682 58.2653 54.9922C58.108 55.545 58.0331 56.1044 58.0274 56.6789C58.0274 56.843 57.9948 56.9941 57.9602 57.1496C57.8835 57.506 57.824 57.8602 57.8144 58.2338C57.8029 58.6744 57.7069 59.1149 57.6129 59.5447C57.5687 59.7477 57.5016 59.9356 57.5323 60.1516C57.5534 60.2962 57.5227 60.4366 57.492 60.577C57.421 60.888 57.3692 61.2011 57.3653 61.5251C57.3653 61.6201 57.3615 61.7216 57.3346 61.8102C57.0449 62.7712 57.0333 63.7927 56.8453 64.7775C56.78 65.1166 56.7589 65.4708 56.6841 65.812C56.6572 65.9351 56.6323 66.0711 56.6515 66.1899C56.6975 66.4577 56.663 66.7061 56.5421 66.9307C56.3175 67.341 56.377 67.7967 56.3655 68.2351C56.3482 68.8657 56.1736 69.4618 56.0988 70.0773C56.0585 70.412 55.9894 70.736 56.0623 71.075C56.1103 71.2996 56.0777 71.5264 56.0105 71.7381C55.8186 72.3384 55.8819 72.969 55.832 73.5867C55.8052 73.9279 55.7917 74.2584 55.5499 74.511C55.454 74.6104 55.4597 74.7335 55.4981 74.8652C55.6862 75.5218 55.4636 76.0876 55.1815 76.6361C55.1316 76.7333 55.0337 76.8219 55.028 76.919C54.98 77.811 54.506 78.6036 54.552 79.5171C54.5559 79.5949 54.5482 79.6834 54.5175 79.7525C54.2143 80.4522 54.1932 81.2383 53.9879 81.9683C53.867 82.3938 53.6635 82.7868 53.5906 83.2338C53.5618 83.4066 53.5158 83.5751 53.5388 83.7543C53.5484 83.8321 53.5638 83.9228 53.5388 83.9919C53.2682 84.7348 53.322 85.5706 53.013 86.3027C52.9938 86.3459 52.965 86.3956 52.9689 86.4366C53.0149 86.8491 52.8288 87.2011 52.7597 87.5812C52.6848 88.0023 52.5543 88.4062 52.4949 88.8338C52.3049 90.1879 52.0266 91.5269 51.804 92.8767C51.6217 93.9738 51.5469 95.0838 51.4029 96.1831C51.401 96.1982 51.3972 96.2155 51.3991 96.2306C51.5085 96.8137 51.3377 97.4033 51.4471 97.9885C51.4797 98.157 51.495 98.3514 51.4567 98.5133C51.2935 99.1936 51.4049 99.8782 51.3972 100.563C51.3895 101.414 51.2628 102.247 51.1151 103.077C51.0575 103.401 51.1304 103.712 51.0978 104.031C51.0383 104.606 50.8138 105.133 50.7697 105.714C50.7159 106.426 50.5701 107.128 50.5068 107.845C50.4645 108.333 50.3321 108.811 50.2458 109.294C50.1709 109.715 50.1517 110.147 50.0539 110.566C49.9867 110.86 49.9406 111.154 49.8197 111.432C49.7276 111.646 49.6816 111.886 49.6259 112.117C49.4762 112.743 49.3208 113.37 49.102 113.97C49.0272 114.173 48.914 114.367 48.9869 114.605C48.7278 115.02 48.843 115.555 48.6818 115.965C48.4726 116.501 48.5282 117.06 48.3805 117.589C48.296 117.89 48.3172 118.222 48.1291 118.494C48.037 118.624 48.0504 118.812 48.0888 118.961C48.25 119.587 48.0216 120.153 47.9199 120.747C47.776 121.583 47.4574 122.401 47.6225 123.289C47.6417 123.395 47.634 123.513 47.6186 123.624C47.4805 124.729 47.1427 125.762 46.6495 126.725C46.4979 127.021 46.2235 127.222 45.9817 127.44C45.9261 127.489 45.8301 127.511 45.809 127.571C45.644 128.064 45.1987 128.271 44.9378 128.664C44.8955 128.727 44.8495 128.805 44.7881 128.83C44.1913 129.087 43.6731 129.522 43.0955 129.815C42.7885 129.973 42.4411 130.031 42.0976 130.051C41.9095 130.061 41.7272 130.083 41.5526 130.154C41.1343 130.327 40.7063 130.429 40.2611 130.439C40.1613 130.442 40.0673 130.472 39.9752 130.524C39.766 130.64 39.5434 130.664 39.3093 130.636C38.9466 130.593 38.5954 130.666 38.273 130.848C38.0734 130.96 37.8719 130.981 37.657 131.001C37.0774 131.051 36.4998 131.124 35.9222 131.189C35.8378 131.197 35.7514 131.215 35.667 131.213C34.9493 131.187 34.2258 131.163 33.5253 130.992C32.8575 130.83 32.1974 130.938 31.5334 130.943C31.4221 130.943 31.307 131.005 31.1957 130.958C30.6199 130.72 30.0385 130.904 29.4628 130.94C28.6683 130.992 27.8777 131.083 27.0909 130.863C26.8855 130.804 26.6668 130.867 26.4557 130.8C26.3041 130.753 26.1467 130.727 26.0239 130.608C25.8032 130.394 25.5269 130.338 25.2678 130.37C24.5482 130.461 23.8592 130.195 23.1511 130.178C23.084 130.178 23.0072 130.143 22.9535 130.098C22.8057 129.975 22.6387 129.934 22.468 129.956C21.7925 130.044 21.1477 129.802 20.4856 129.753C20.3513 129.742 20.2323 129.705 20.1498 129.578C20.0058 129.347 19.8159 129.189 19.576 129.105C19.4493 129.062 19.3591 128.956 19.2824 128.837C19.2152 128.733 19.1461 128.63 19.0348 128.578C18.6606 128.405 18.4265 128.072 18.2365 127.692C18.1866 127.591 18.1252 127.511 18.0504 127.435C17.7664 127.146 17.4766 126.863 17.2674 126.494C17.1983 126.373 17.1158 126.252 16.9853 126.211C16.6169 126.092 16.448 125.759 16.3002 125.41C16.1237 124.993 15.8934 124.602 15.7111 124.198C15.5192 123.773 15.2678 123.293 15.3964 122.749C15.4578 122.485 15.3868 122.226 15.3004 122.002C15.0778 121.416 15.1526 120.805 15.1258 120.205C15.1085 119.855 15.1469 119.501 15.1603 119.151C15.1642 119.056 15.1929 118.946 15.1373 118.87C14.9358 118.598 14.9991 118.313 15.0586 118.006C15.1469 117.551 15.0912 117.08 15.0874 116.622C15.0836 116.179 15.2141 115.775 15.2467 115.35C15.2793 114.922 15.3426 114.499 15.264 114.067C15.2045 113.735 15.1949 113.383 15.3023 113.069C15.5019 112.482 15.4827 111.875 15.4923 111.27C15.4962 111.093 15.4942 110.918 15.546 110.748C15.6075 110.545 15.6075 110.337 15.5768 110.13C15.523 109.763 15.5403 109.396 15.5806 109.029C15.6209 108.664 15.6554 108.301 15.6324 107.929C15.6171 107.694 15.6612 107.456 15.7936 107.247C15.9279 107.033 15.9682 106.776 15.9932 106.521C16.0296 106.137 16.093 105.765 16.2465 105.413C16.3597 105.152 16.4134 104.848 16.3693 104.573C16.2906 104.085 16.4154 103.638 16.5497 103.211C16.6821 102.796 16.732 102.394 16.7147 101.964C16.709 101.839 16.7646 101.707 16.7512 101.584C16.7186 101.276 17.0064 101.034 16.9373 100.772C16.8587 100.479 16.8606 100.23 16.9239 99.9409C17.0928 99.1677 17.2521 98.3924 17.2828 97.5933C17.2847 97.5307 17.2847 97.4594 17.3096 97.4054C17.6685 96.6323 17.6474 95.7317 17.9717 94.9456C18.0734 94.6972 18.0484 94.4122 18.0484 94.1401C18.0484 94.0126 18.0081 93.8615 18.0542 93.76C18.2653 93.2956 18.2116 92.7773 18.3248 92.2957C18.3478 92.2007 18.3536 92.11 18.3497 92.0128C18.3382 91.6889 18.3939 91.3779 18.4821 91.0712C18.5666 90.7818 18.6529 90.4924 18.5781 90.1793C18.5608 90.108 18.5627 89.9914 18.6011 89.9482C18.8755 89.648 18.77 89.2593 18.8045 88.9072C18.8237 88.6978 18.8583 88.5034 18.9293 88.3047C19.0387 87.998 19.1768 87.6892 19.0866 87.335C19.0732 87.2789 19.0847 87.2033 19.1039 87.1471C19.2824 86.6396 19.3668 86.1062 19.3822 85.5663C19.3956 85.0674 19.5606 84.6031 19.6029 84.1064C19.6297 83.7889 19.6604 83.4757 19.6604 83.1539C19.6604 82.7566 19.6508 82.3635 19.8044 81.9769C19.8869 81.7696 19.8408 81.5018 19.883 81.2686C19.956 80.8647 20.096 80.4889 20.0903 80.0549C20.0864 79.7741 20.2841 79.5042 20.3762 79.2191C20.5508 78.6727 20.6199 78.1069 20.712 77.5432C20.7408 77.3704 20.7485 77.1825 20.8157 77.0314C21.0383 76.5303 21.069 75.9861 21.117 75.4462C21.1553 75.0272 21.2436 74.632 21.3895 74.2454C21.5142 73.9107 21.5948 73.5651 21.6121 73.185C21.6332 72.7293 21.7541 72.2736 21.8711 71.8309C21.9978 71.3579 22.0016 70.844 22.253 70.4164C22.1839 69.8959 22.491 69.5266 22.6675 69.1054C22.7059 69.0169 22.7366 68.9197 22.704 68.8269C22.5869 68.5072 22.7289 68.2697 22.8921 68.0386C23.0034 67.8809 23.0667 67.719 23.0245 67.5073C22.9592 67.1855 23.0648 66.8724 23.224 66.6478C23.5061 66.2525 23.5445 65.771 23.7076 65.3369C23.8285 65.0108 23.865 64.6501 23.9936 64.3348C24.1317 64.0022 24.2795 63.6761 24.4062 63.3349C24.4676 63.1686 24.4906 63.0045 24.5213 62.8317C24.5846 62.4753 24.6806 62.1233 24.788 61.7799C25.0279 61.0133 25.2486 60.2422 25.3542 59.4367C25.406 59.0415 25.4079 58.642 25.4731 58.2468C25.6286 57.3073 25.8282 56.3722 25.8627 55.4176C25.8992 54.422 26.1083 53.4653 26.3655 52.528C26.5056 52.0205 26.6514 51.4892 26.9278 51.0357C26.9968 50.9234 27.0199 50.8003 27.0084 50.6707C26.9892 50.4245 27.0813 50.2021 27.1101 49.9688C27.1715 49.4764 27.4785 49.1158 27.5994 48.6558C27.6838 48.334 27.774 48.0122 27.8354 47.6882C27.8873 47.414 27.941 47.1483 28.1156 46.954C28.3171 46.7294 28.2845 46.4205 28.3881 46.1592C28.7316 45.3061 29.2363 44.5956 29.741 43.8592C30.1939 43.1962 30.7312 42.6843 31.3166 42.2049C31.3972 42.138 31.472 42.0473 31.5622 42.017C32.0151 41.8615 32.3375 41.4858 32.6752 41.1596C33.0091 40.8379 33.414 40.6392 33.7288 40.2785C33.8957 40.0884 34.2008 40.0453 34.435 39.8876C34.7804 39.6544 35.0394 39.3347 35.2333 38.9741C35.4578 38.5616 35.784 38.2528 36.0277 37.8619C36.3674 37.3155 36.7359 36.7907 36.9969 36.1881C37.1216 35.8966 37.3519 35.6892 37.4651 35.3934C37.515 35.2616 37.6071 35.1407 37.6263 35.0047C37.6839 34.5857 37.8412 34.2077 38.0043 33.8363C38.1483 33.5102 38.2615 33.1711 38.4265 32.8515C38.5858 32.5448 38.6299 32.169 38.7815 31.8364C39.0656 31.2145 39.3169 30.573 39.5165 29.9057C39.5703 29.7243 39.6202 29.5451 39.6528 29.355C39.7103 28.9944 39.7698 28.6294 39.9214 28.2968C40.027 28.0657 40.0826 27.8238 40.0865 27.5603C40.0884 27.3876 40.1172 27.2062 40.1709 27.0442C40.2803 26.7094 40.3091 26.3725 40.3283 26.0183C40.3475 25.7138 40.4434 25.405 40.4952 25.094C40.5989 24.4807 40.6852 23.8652 40.7812 23.2519C40.8618 22.7292 40.9097 22.1915 40.8905 21.6451C40.8656 20.9777 40.8099 20.3104 40.8215 19.6388C40.8311 19.0708 40.7063 18.4985 40.6276 17.9326C40.6008 17.7383 40.6065 17.5634 40.6487 17.369C40.7485 16.9155 40.6718 16.449 40.6737 15.9868C40.6756 15.2828 40.76 14.5874 40.8253 13.8941C40.8541 13.5918 40.9769 13.2916 41.0421 12.9827C41.1784 12.3392 41.1323 11.674 41.282 11.0412C41.3607 10.7065 41.3108 10.4797 41.0421 10.2637C40.6564 9.9506 40.501 9.50138 40.6123 8.95499C40.6622 8.71095 40.7293 8.50364 40.952 8.38486C41.0633 8.32655 41.1496 8.20561 41.2436 8.10842C41.3377 8.00908 41.4317 7.89678 41.5564 7.86438C42.0746 7.72617 42.5255 7.43462 42.9823 7.13874C43.1953 7.00053 43.4697 6.94221 43.7192 7.07394C43.9034 7.17113 44.0627 7.1517 44.2507 7.08043C44.5559 6.96381 44.8687 6.98972 45.1373 7.20784C45.2601 7.30503 45.3868 7.35471 45.5269 7.38711C45.9971 7.49725 46.4653 7.62249 46.9412 7.71319C47.4114 7.8039 47.8758 7.6916 48.3287 7.55554C48.4995 7.50371 48.6568 7.467 48.8257 7.52963C48.8794 7.55122 48.9408 7.5858 48.9907 7.575C49.3304 7.49077 49.6259 7.69592 49.9406 7.74343C50.3782 7.81038 50.7159 8.05874 51.0153 8.36973C51.2648 8.63105 51.4682 8.97445 51.5104 9.35454C51.5795 9.98732 51.8136 10.5985 51.7119 11.1751L51.7253 11.1729ZM41.3262 25.364C41.3396 25.8391 41.2417 26.2062 41.236 26.5928C41.2264 27.2299 41.2782 27.8821 41.0844 28.4955C40.9673 28.8648 40.952 29.247 40.8867 29.6228C40.7255 30.5623 40.7869 31.5708 40.2112 32.3807C40.2035 32.3936 40.1939 32.4087 40.192 32.4239C40.1287 32.9227 39.9445 33.3741 39.7564 33.8211C39.4474 34.5597 39.2882 35.3955 38.7144 35.9743C38.6453 36.0434 38.6223 36.1709 38.5724 36.2659C38.367 36.6633 38.154 37.065 37.8566 37.3803C37.6819 37.566 37.4996 37.7323 37.3557 37.959C37.0467 38.4493 36.7301 38.9352 36.3002 39.311C36.1103 39.4773 35.9356 39.6673 35.7629 39.8574C35.406 40.2483 35.0625 40.6543 34.5463 40.7838C34.4503 40.8076 34.3563 40.8681 34.3083 40.9739C34.2239 41.1596 34.0703 41.2417 33.9168 41.3281C33.8132 41.3842 33.7288 41.4663 33.6443 41.5549C33.1012 42.1164 32.5639 42.6865 31.9306 43.1249C31.6869 43.2934 31.4643 43.5158 31.3127 43.7793C31.1707 44.0298 30.9136 44.2155 30.8982 44.5438C30.879 44.9304 30.7351 45.2543 30.547 45.5588C30.2208 46.0858 29.9732 46.6559 29.7737 47.2585C29.6048 47.7638 29.4455 48.2778 29.1634 48.727C29.1174 48.8005 29.0982 48.9041 29.0886 48.9991C29.0156 49.7615 28.6568 50.4504 28.6203 51.2236C28.6165 51.2841 28.5896 51.3467 28.5628 51.4028C28.3229 51.906 28.2308 52.4956 27.8527 52.9211C27.7414 53.0463 27.705 53.2277 27.6838 53.407C27.6704 53.5344 27.6589 53.6618 27.5975 53.7741C27.2367 54.4285 27.158 55.2124 26.8395 55.8863C26.7953 55.9791 26.8011 56.1044 26.7819 56.2124C26.7378 56.4629 26.7167 56.722 26.6437 56.9639C26.4288 57.6788 26.329 58.4109 26.2849 59.1603C26.2542 59.6678 26.1889 60.1753 26.116 60.6785C25.951 61.8274 25.7687 62.9742 25.5979 64.121C25.5787 64.2506 25.5288 64.3629 25.4827 64.4795C25.2371 65.0928 25.0394 65.7299 24.9243 66.3886C24.8648 66.7298 24.8994 67.0797 24.6595 67.3713C24.5328 67.5246 24.5885 67.6606 24.7842 67.7146C25.0107 67.7751 25.2141 67.8874 25.4079 68.0192C26.0085 68.423 26.661 68.6951 27.3039 68.9888C27.4229 69.0428 27.5476 69.0817 27.6435 69.1853C27.8393 69.397 28.0868 69.4683 28.3459 69.4963C28.5781 69.5201 28.7911 69.5871 28.983 69.7425C29.0617 69.8073 29.1557 69.857 29.2498 69.8894C29.8696 70.0989 30.5144 70.1831 31.1496 70.3084C31.7522 70.4293 32.3164 70.6798 32.894 70.8785C33.4409 71.0664 33.9399 71.4098 34.529 71.5113C34.8437 71.5653 35.1795 71.6236 35.4789 71.764C36.0604 72.0404 36.6821 72.1311 37.2828 72.3104C38.321 72.6192 39.3918 72.6494 40.4588 72.6084C41.1515 72.5803 41.852 72.6451 42.539 72.4745C42.942 72.3752 43.3526 72.3168 43.7672 72.3276C44.9685 72.3557 46.1275 72.0253 47.3001 71.818C47.3692 71.805 47.4306 71.7553 47.4996 71.7337C47.8124 71.6366 48.1233 71.4724 48.4361 71.4638C48.7969 71.453 49.1462 71.4098 49.482 71.2824C49.7948 71.1658 50.1018 71.0534 50.4377 71.0837C50.5547 71.0945 50.6622 71.0426 50.7581 70.9692C51.2321 70.5956 51.8577 70.6517 52.3279 70.2673C52.349 70.2501 52.3836 70.2501 52.4104 70.2501C52.6964 70.2436 52.9765 70.1917 53.2452 70.0751C53.439 69.9909 53.677 70.1723 53.8247 70.0514C53.984 69.9239 54.032 69.6281 54.1836 69.4791C54.4081 69.2609 54.4561 69.0083 54.4388 68.7102C54.3985 68.071 54.5578 67.4598 54.7766 66.8983C54.9378 66.4858 54.9838 66.0776 55.003 65.6543C55.0145 65.4081 55.0318 65.1792 55.1431 64.9654C55.2179 64.8272 55.2563 64.6717 55.2832 64.514C55.3964 63.8748 55.4521 63.2226 55.6747 62.6071C55.8838 62.0261 55.9625 61.4041 56.0546 60.7908C56.0892 60.5662 56.2408 60.3934 56.2254 60.1537C56.1832 59.4302 56.3655 58.7305 56.4538 58.0243C56.5728 57.0503 56.7416 56.0785 56.9278 55.1153C57.0122 54.6769 56.9911 54.2125 57.0794 53.7979C57.1965 53.2536 57.16 52.6878 57.325 52.1544C57.4114 51.8758 57.4383 51.5583 57.3154 51.2603C57.2732 51.1566 57.2694 51.0335 57.3193 50.932C57.396 50.7765 57.3845 50.6297 57.3327 50.472C57.302 50.3792 57.3039 50.2798 57.3385 50.1891C57.4171 49.9861 57.3979 49.7874 57.3519 49.5801C57.206 48.9344 57.3231 48.2217 56.9547 47.6299C56.924 47.5824 56.9259 47.5068 56.9163 47.4442C56.876 47.1527 56.7263 46.9496 56.5075 46.8071C56.4077 46.7423 56.2984 46.6926 56.2523 46.5674C56.0566 46.0512 55.6689 45.7122 55.3484 45.3083C55.0107 44.8829 54.5943 44.5287 54.3851 43.9823C54.3352 43.8506 54.2181 43.8182 54.1011 43.7987C53.8516 43.7577 53.7038 43.5936 53.5945 43.343C53.4966 43.1141 53.3968 42.8614 53.2106 42.7167C52.919 42.49 52.8134 42.0494 52.4507 41.909C52.4104 41.8939 52.397 41.7989 52.3605 41.7514C52.1149 41.4404 51.969 41.0452 51.7311 40.7385C51.5622 40.5225 51.3914 40.3109 51.2475 40.0733C51.1016 39.8358 50.9481 39.6068 50.7466 39.4233C50.2016 38.9244 50.0116 38.175 49.7756 37.4925C49.6144 37.0261 49.5472 36.484 49.5472 35.9484C49.5472 35.2185 49.4148 34.4885 49.6605 33.7715C49.8025 33.3568 49.7526 32.8774 49.9905 32.4908C50.0443 32.4044 50.0155 32.3051 49.9867 32.2144C49.8044 31.6356 49.8677 31.0503 49.9579 30.4672C49.979 30.3225 50.0078 30.18 49.9752 30.0396C49.8735 29.6034 49.9349 29.1779 50.0385 28.759C50.1249 28.4091 50.075 28.0592 50.0692 27.7094C50.0654 27.4826 49.9406 27.4049 49.7468 27.4632C49.6086 27.5042 49.4609 27.5171 49.3342 27.5863C49.0579 27.7396 48.7624 27.7547 48.4707 27.813C48.1233 27.8821 47.7875 27.7288 47.4517 27.8087C47.1868 27.8735 46.945 27.8238 46.7033 27.7159C46.5843 27.6619 46.4595 27.5949 46.3367 27.5971C45.9165 27.6014 45.525 27.4588 45.1258 27.3487C44.1279 27.0744 43.1857 26.6684 42.3221 26.0205C42.0343 25.8045 41.7196 25.6102 41.3223 25.3662L41.3262 25.364ZM29.8447 105.981C30.2227 105.886 30.5816 106.094 30.9596 106.156C31.662 106.271 32.3835 106.187 33.0725 106.381C33.5369 106.513 33.984 106.61 34.4733 106.588C35.051 106.564 35.6094 106.832 36.1909 106.871C36.2599 106.875 36.3309 106.904 36.3962 106.936C36.6898 107.078 37.0007 107.094 37.3116 107.137C37.7932 107.204 38.2788 107.178 38.7547 107.251C39.2172 107.325 39.67 107.258 40.0999 107.148C40.5317 107.04 40.9654 106.975 41.401 106.938C42.1091 106.88 42.7961 106.677 43.5004 106.582C44.316 106.472 45.1239 106.295 45.9491 106.264C46.1199 106.258 46.2945 106.269 46.448 106.171C46.9911 105.826 47.5476 105.515 48.1214 105.241C48.1867 105.208 48.2538 105.176 48.3076 105.126C48.6395 104.813 49.0214 104.686 49.4513 104.69C49.5933 104.69 49.7449 104.649 49.791 104.461C49.8447 104.247 49.9061 104.029 49.9176 103.809C49.9522 103.172 50.1325 102.563 50.1441 101.917C50.1517 101.446 50.2323 100.967 50.24 100.494C50.2554 99.632 50.2131 98.7725 50.2285 97.9108C50.2438 96.9886 50.3033 96.0665 50.3379 95.1443C50.3475 94.8851 50.3686 94.6368 50.476 94.4014C50.5202 94.3063 50.5471 94.1832 50.5394 94.0774C50.4837 93.2524 50.7159 92.4685 50.8119 91.6651C50.8426 91.4124 50.8675 91.1576 50.9155 90.9092C51.0153 90.3996 51.2072 89.9072 51.1343 89.3672C51.1266 89.3068 51.1285 89.229 51.1554 89.1794C51.3953 88.7453 51.2552 88.2118 51.4547 87.7605C51.6198 87.3847 51.5814 86.9549 51.6198 86.5532C51.6639 86.0954 51.6697 85.6354 51.7867 85.1883C51.8059 85.1149 51.7944 85.0285 51.7829 84.9508C51.7388 84.6786 51.7234 84.413 51.8213 84.1474C51.8462 84.0783 51.8616 83.9811 51.8366 83.9163C51.7426 83.6571 51.8002 83.4174 51.8616 83.1669C51.9019 83.0006 51.9556 82.8214 51.9192 82.6464C51.8481 82.316 51.9172 82.0072 52.0189 81.707C52.1091 81.4435 52.1379 81.1843 52.0746 80.9101C52.0496 80.8042 52.0496 80.6876 52.0477 80.5775C52.0266 79.6531 52.2415 78.7677 52.4296 77.8822C52.4987 77.5605 52.514 77.2171 52.6445 76.9126C52.8556 76.4137 52.9477 75.8824 52.9957 75.3382C53.0092 75.1956 53.0015 75.0358 53.0897 74.9257C53.2605 74.7119 53.2548 74.4614 53.2567 74.2022C53.2567 74.0424 53.2586 73.8761 53.3028 73.7271C53.5215 72.9712 53.4832 72.1484 53.7883 71.4141C53.819 71.3385 53.8267 71.2111 53.7345 71.1571C53.6635 71.1161 53.6002 71.1787 53.5446 71.2327C53.4275 71.3472 53.3315 71.4832 53.178 71.5523C52.5409 71.8374 51.9614 72.306 51.236 72.306C50.7735 72.6559 50.2381 72.5738 49.7257 72.6581C48.8007 72.8071 47.9065 73.1353 46.9623 73.2066C46.2811 73.2584 45.596 73.2584 44.9186 73.2671C44.1529 73.2757 43.3833 73.2736 42.6177 73.2584C42.4776 73.2563 42.3356 73.2844 42.1955 73.3081C41.307 73.4485 40.4146 73.5176 39.5184 73.4204C39.3074 73.3967 39.0924 73.3427 38.8832 73.3535C38.1176 73.3923 37.4056 73.0598 36.6572 72.969C36.2523 72.9215 35.8531 72.7747 35.4405 72.7445C35.2141 72.7272 34.9742 72.7272 34.7727 72.6084C34.3831 72.3795 33.9648 72.3125 33.5388 72.265C33.2989 72.2391 33.0609 72.1894 32.8307 72.0987C32.2684 71.8763 31.6869 71.7402 31.092 71.7078C30.762 71.6905 30.4415 71.6603 30.1575 71.4422C30.0749 71.3796 29.979 71.3342 29.8754 71.3472C29.079 71.453 28.4495 70.8785 27.7299 70.6669C27.5169 70.6042 27.3077 70.5006 27.0851 70.4466C26.8395 70.3861 26.5382 70.3408 26.377 70.1593C26.0488 69.7879 25.596 69.6432 25.2697 69.2869C25.1258 69.1314 24.9473 69.0234 24.7689 68.924C24.3831 68.7102 24.2949 68.7621 24.2718 69.2329C24.2584 69.5072 24.197 69.7641 24.1241 70.0276C23.9264 70.7381 23.6098 71.4098 23.6117 72.1851C23.6117 72.4183 23.5407 72.6581 23.414 72.8611C23.3123 73.0252 23.2912 73.2153 23.297 73.4118C23.3181 74.0834 23.3449 74.7572 23.082 75.3922C23.0533 75.4613 23.0321 75.5585 23.0513 75.6254C23.1818 76.0725 23.0705 76.4741 22.9055 76.8758C22.8652 76.973 22.8767 77.094 22.8633 77.2063C22.8402 77.3812 22.846 77.5669 22.7884 77.7246C22.537 78.4092 22.5524 79.1348 22.5274 79.8475C22.514 80.2363 22.468 80.6056 22.3643 80.977C22.1302 81.8344 21.9325 82.7004 21.9268 83.6053C21.9268 83.8666 21.9018 84.1409 21.7195 84.3158C21.4547 84.5664 21.3818 84.9076 21.3357 85.2488C21.2993 85.5252 21.2168 85.7693 21.117 86.0198C20.9558 86.4258 20.7274 86.8124 20.7447 87.2832C20.7581 87.646 20.689 87.9916 20.5643 88.3133C20.405 88.7194 20.4703 89.1945 20.24 89.5746C20.2112 89.6221 20.2189 89.6998 20.215 89.7625C20.2016 90.0367 20.1498 90.2981 20.0769 90.5615C19.9713 90.9416 19.8562 91.3239 19.8005 91.7169C19.6835 92.5506 19.6105 93.395 19.5031 94.2308C19.3764 95.2069 19.0214 96.1226 18.9139 97.1096C18.8372 97.8028 18.6587 98.4788 18.4687 99.1461C18.4438 99.2368 18.4399 99.334 18.4303 99.4312C18.3939 99.8286 18.4534 100.232 18.3555 100.625C18.3325 100.723 18.3632 100.818 18.4361 100.882C18.9024 101.314 19.2517 101.885 19.7468 102.282C19.8255 102.345 19.885 102.442 19.9425 102.535C20.0404 102.694 20.1594 102.824 20.3014 102.938C20.6717 103.236 21.0709 103.47 21.4758 103.703C22.1129 104.072 22.6906 104.569 23.3622 104.878C23.769 105.064 24.1433 105.333 24.6057 105.338C24.7573 105.338 24.9128 105.411 25.0567 105.472C25.4348 105.632 25.8243 105.69 26.2273 105.688C26.6245 105.683 27.0295 105.614 27.419 105.722C28.2116 105.943 29.0195 105.938 29.8408 105.992L29.8447 105.981ZM49.5146 105.968C48.8909 106.245 48.2884 106.424 47.7568 106.819C47.2636 107.186 46.6937 107.415 46.1141 107.431C45.383 107.45 44.6806 107.655 43.9571 107.711C43.5983 107.739 43.2548 107.819 42.9285 107.996C42.8 108.065 42.6618 108.106 42.514 108.074C42.3049 108.027 42.1264 108.106 41.9575 108.245C41.756 108.409 41.5277 108.474 41.2763 108.476C40.8771 108.48 40.4818 108.528 40.1172 108.737C39.9752 108.819 39.8274 108.836 39.6662 108.839C39.2421 108.847 38.8122 108.862 38.392 108.927C37.7011 109.033 37.016 109.132 36.3425 108.832C36.283 108.806 36.2024 108.823 36.1333 108.832C35.5883 108.908 35.0586 108.906 34.5731 108.551C34.4637 108.471 34.3313 108.452 34.2028 108.456C33.9821 108.465 33.8113 108.381 33.723 108.141C33.6501 107.947 33.5081 107.832 33.3488 107.77C32.7923 107.556 32.255 107.253 31.6447 107.275C31.4893 107.281 31.3319 107.251 31.1841 107.186C30.9539 107.087 30.7159 107.05 30.4722 107.072C29.9445 107.117 29.4206 107.024 28.8986 106.977C28.5052 106.94 28.1003 106.938 27.7222 106.774C27.5169 106.685 27.3096 106.662 27.0947 106.679C26.212 106.757 25.335 106.668 24.4752 106.459C24.0934 106.366 23.7038 106.275 23.3315 106.096C22.9784 105.927 22.6714 105.644 22.2876 105.56C22.1053 105.519 21.946 105.413 21.7771 105.346C21.4087 105.2 21.0248 105.105 20.7332 104.783C20.7255 104.774 20.7063 104.774 20.6929 104.772C20.2822 104.69 19.9214 104.455 19.5395 104.288C19.4436 104.245 19.3726 104.178 19.315 104.079C19.1999 103.878 19.0866 103.673 18.9485 103.489C18.7259 103.195 18.4841 102.917 18.2346 102.612C18.1578 102.815 18.1693 102.962 18.2154 103.096C18.3689 103.519 18.1214 103.973 18.296 104.394C18.3056 104.416 18.2902 104.459 18.2768 104.485C18.1885 104.653 18.2269 104.815 18.273 104.99C18.3133 105.141 18.3517 105.321 18.3152 105.461C18.2231 105.824 18.2499 106.182 18.2404 106.547C18.2212 107.307 18.177 108.07 18.0945 108.823C18.0484 109.234 17.9736 109.636 17.9813 110.052C17.9832 110.158 17.9563 110.29 17.9007 110.37C17.7184 110.627 17.703 110.929 17.6992 111.229C17.6953 111.739 17.538 112.193 17.3749 112.657C17.2367 113.05 17.039 113.443 17.0966 113.89C17.1273 114.121 17.1062 114.331 17.0314 114.544C16.8683 115.015 16.8548 115.512 16.8567 116.006C16.8567 116.436 16.8778 116.866 16.7378 117.279C16.6975 117.397 16.6418 117.54 16.6687 117.65C16.7742 118.084 16.6226 118.471 16.5228 118.866C16.4883 119.008 16.4595 119.149 16.5228 119.287C16.6514 119.572 16.6437 119.877 16.6303 120.181C16.5996 120.857 16.6821 121.527 16.7857 122.185C16.8433 122.552 16.8855 122.935 17.0007 123.291C17.0678 123.503 17.1503 123.706 17.1657 123.935C17.1772 124.081 17.2329 124.209 17.3096 124.328C17.6339 124.831 18.012 125.28 18.39 125.734C18.6702 126.068 19.006 126.345 19.2382 126.731C19.3515 126.919 19.5223 127.047 19.693 127.161C19.9982 127.366 20.2937 127.606 20.6219 127.742C21.0498 127.917 21.4605 128.122 21.9728 128.029C22.5217 127.93 23.1031 127.926 23.6673 128.092C23.9552 128.176 24.245 128.342 24.529 128.338C24.9761 128.334 25.4041 128.386 25.8282 128.522C26.3194 128.677 26.826 128.74 27.3173 128.912C27.8412 129.096 28.4016 129.096 28.9542 129.033C29.1461 129.012 29.3438 128.908 29.5357 129.053C29.9022 129.331 30.3321 129.28 30.7313 129.278C31.0345 129.278 31.3204 129.213 31.5871 129.424C31.6716 129.491 31.7771 129.45 31.875 129.452C32.2972 129.463 32.7232 129.472 33.1377 129.519C33.6674 129.582 34.1874 129.779 34.7286 129.83C35.4904 129.904 36.2465 129.943 37.0122 129.841C37.4363 129.785 37.8451 129.658 38.2672 129.606C38.6184 129.563 38.9619 129.485 39.3074 129.398C39.6835 129.303 40.0826 129.314 40.4549 129.154C40.5144 129.128 40.595 129.172 40.666 129.17C40.7658 129.167 40.8656 129.165 40.9615 129.137C41.4567 129.001 41.9518 128.856 42.4469 128.714C42.965 128.563 43.4486 128.327 43.7863 127.841C44.1203 127.36 44.5175 126.952 44.8898 126.515C45.0625 126.312 45.1469 126.064 45.2582 125.822C45.5691 125.148 45.5173 124.366 45.7802 123.682C45.7917 123.654 45.786 123.617 45.7821 123.587C45.7226 123.174 45.8167 122.758 45.7437 122.345C45.6017 121.531 46.0143 120.79 45.9951 119.993C45.9951 119.952 46.0316 119.907 46.0546 119.868C46.1986 119.62 46.2734 119.352 46.2484 119.049C46.2331 118.872 46.2811 118.704 46.3329 118.533C46.3924 118.337 46.4711 118.132 46.4653 117.933C46.4538 117.531 46.4922 117.173 46.7743 116.89C46.8126 116.853 46.8242 116.773 46.8318 116.713C46.9124 116.056 47.2924 115.512 47.3768 114.855C47.3826 114.81 47.4056 114.762 47.4325 114.726C47.6129 114.46 47.6532 114.145 47.6992 113.827C47.7606 113.387 47.824 112.948 48.0811 112.57C48.2154 112.372 48.3421 112.123 48.369 111.882C48.4457 111.195 48.7777 110.588 48.8199 109.895C48.8276 109.772 48.866 109.638 48.9274 109.534C49.0272 109.368 49.0675 109.182 49.0982 108.996C49.1807 108.513 49.2018 108.02 49.2709 107.534C49.3419 107.037 49.4167 106.539 49.5146 105.962V105.968ZM42.0842 12.7776C42.04 13.4859 42.0036 14.1554 41.9479 14.8184C41.8865 15.5592 41.9287 16.3129 41.9921 17.0623C42.0151 17.3301 42.0151 17.613 41.9709 17.8743C41.8539 18.5525 41.8712 19.2414 41.8443 19.9238C41.7886 21.3708 41.7886 22.8221 41.5181 24.2474C41.4854 24.4245 41.5488 24.4829 41.6658 24.5304C41.8385 24.6016 42.0304 24.634 42.184 24.7355C42.8806 25.2042 43.6501 25.5044 44.3601 25.9406C44.458 26.0011 44.5693 26.0443 44.6768 26.0745C45.2064 26.2127 45.7725 26.189 46.2504 26.554C46.3041 26.595 46.3885 26.5863 46.4576 26.5993C46.7224 26.649 46.9892 26.7008 47.2559 26.744C47.4824 26.7807 47.7107 26.7872 47.9314 26.6965C48.2116 26.5799 48.4879 26.4589 48.7662 26.3358C49.1462 26.1674 49.4705 25.8521 49.8965 25.8002C50.0443 25.7829 50.1153 25.6598 50.1383 25.5065C50.1863 25.1804 50.265 24.8651 50.194 24.5174C50.098 24.0315 50.1153 23.5369 50.2726 23.0532C50.3571 22.7962 50.3686 22.5133 50.3053 22.2476C50.1421 21.5587 50.263 20.8503 50.1844 20.1571C50.3839 19.6561 50.2438 19.1226 50.2611 18.6129C50.2957 17.6497 50.1863 16.6801 50.0404 15.7233C50.0212 15.5959 49.9809 15.4685 50.027 15.3454C50.2304 14.8163 50.0116 14.3282 49.9598 13.7451C49.6394 14.0215 49.269 13.9503 49.0022 14.1684C48.6626 14.447 48.273 14.4902 47.9065 14.4081C47.3404 14.2828 46.7743 14.3217 46.212 14.3131C45.5231 14.3044 44.8687 14.1079 44.1951 14.015C44.0742 13.9978 43.9495 13.9265 43.8439 13.8488C43.2912 13.4471 42.6599 13.2138 42.0784 12.7754L42.0842 12.7776ZM49.7852 11.011C49.7545 10.497 49.7526 10.5143 49.2325 10.4322C48.8833 10.3761 48.534 10.3177 48.1867 10.24C47.6378 10.1169 47.0736 9.9873 46.5018 10.145C46.2676 10.2097 46.0258 10.2292 45.7879 10.2789C45.1354 10.4192 44.4964 10.4171 43.8669 10.1277C43.6463 10.0262 43.4275 10.0456 43.272 10.3177C43.1607 10.5121 42.9861 10.6179 42.7693 10.6309C42.5582 10.6438 42.3221 10.5747 42.1437 10.7173C41.923 10.8922 42.0631 11.1945 42.0151 11.4386C41.9556 11.7409 42.0074 11.8489 42.2492 11.9569C42.4066 12.0282 42.5774 12.0563 42.7405 12.1124C43.0782 12.2269 43.4256 12.324 43.7249 12.5465C44.0301 12.7754 44.364 12.8812 44.7247 12.9028C45.0356 12.9201 45.3503 12.9201 45.6574 12.9698C45.9376 13.0151 46.2062 13.1296 46.4864 12.9698C46.544 12.9374 46.6399 12.9266 46.6956 12.959C47.0295 13.1447 47.3557 12.9827 47.6858 12.9547C48.0715 12.9223 48.3997 12.7387 48.7105 12.5249C48.9485 12.3608 49.1692 12.2096 49.459 12.2722C49.5319 12.2895 49.6278 12.2852 49.6278 12.188C49.6317 11.8014 49.8485 11.458 49.7852 11.0131V11.011ZM41.9172 9.14504C42.1955 9.31781 42.4296 9.35238 42.6714 9.37397C43.4486 9.43876 44.2316 9.48411 44.9857 9.74759C45.168 9.81238 45.3465 9.77351 45.5307 9.73248C45.9337 9.64178 46.3406 9.49707 46.7436 9.50787C47.208 9.52083 47.6781 9.52731 48.1444 9.61801C48.5647 9.69792 48.9965 9.69361 49.4187 9.62234C49.6624 9.5813 49.8217 9.36101 49.8063 9.12993C49.7871 8.83406 49.5741 8.85781 49.3937 8.82974C49.1558 8.79302 48.8871 8.81895 48.6818 8.70449C48.0312 8.34383 47.3423 8.52308 46.6745 8.46477C46.5209 8.45181 46.3693 8.53172 46.2254 8.60083C45.7687 8.81679 45.3062 9.02194 44.8226 9.14936C44.2124 9.30917 43.5944 9.33079 42.9765 9.19473C42.6464 9.1213 42.3164 9.00251 41.9172 9.14936V9.14504Z" fill="#FF4D00"/>
<path d="M28.6663 93.7664C28.8543 93.5288 28.9752 93.261 29.0923 92.9652C29.3859 92.2158 29.5145 91.4167 29.7409 90.6479C29.8388 90.3131 30.0633 90.0518 30.3857 90.028C31.1226 89.9784 31.7559 89.6566 32.3546 89.2052C32.7557 88.9029 33.2144 88.715 33.6174 88.4105C33.7805 88.2852 33.9705 88.1902 34.1086 88.0347C34.5116 87.5833 35.024 87.3393 35.5057 87.0326C35.759 86.8706 36.0065 86.8318 36.2714 87.0153C36.3903 87.0974 36.5362 87.1276 36.6667 87.1903C37.037 87.3695 37.2673 87.6654 37.2731 88.1427C37.2731 88.255 37.2692 88.3673 37.2865 88.4774C37.3863 89.1124 37.2098 89.6825 36.9277 90.2116C36.8068 90.4405 36.7012 90.6522 36.7492 90.9243C36.7569 90.9697 36.7645 91.0301 36.7454 91.0647C36.5247 91.4621 36.7818 91.6737 37.0159 91.8443C37.2942 92.0473 37.417 92.3173 37.4554 92.6693C37.4938 93.0278 37.6204 93.3604 37.584 93.7448C37.5533 94.0774 37.6531 94.3905 38.0445 94.4834C38.2844 94.5417 38.4974 94.7382 38.72 94.8786C39.3667 95.289 40.0672 95.52 40.7868 95.7122C41.4067 95.8785 41.992 96.1787 42.5446 96.5351C42.8478 96.7294 43.0896 97.0102 42.9956 97.4745C42.9668 97.6214 43.0321 97.7531 43.0877 97.8848C43.27 98.3103 43.3928 98.7098 43.1626 99.2001C43.0186 99.5046 42.9745 99.9063 43.1031 100.276C43.1184 100.319 43.1223 100.368 43.1357 100.414C43.3065 100.984 43.1338 101.409 42.7078 101.731C42.5427 101.856 42.3758 101.977 42.205 102.092C41.9114 102.286 41.303 102.23 41.0478 101.964C40.7811 101.684 40.4644 101.63 40.119 101.563C39.6392 101.468 39.3072 101.625 39.0655 102.066C38.9484 102.28 38.7718 102.366 38.5742 102.407C37.9946 102.524 37.4151 102.69 36.8471 102.332C36.6878 102.23 36.5093 102.154 36.3309 102.111C35.7455 101.973 35.3752 101.535 35.0681 101.003C34.9453 100.79 34.7611 100.723 34.5577 100.718C34.314 100.712 34.0741 100.684 33.84 100.615C33.6519 100.558 33.5041 100.608 33.3813 100.77C32.8593 101.448 32.1301 101.809 31.4968 102.319C31.019 102.703 30.4874 102.699 29.9444 102.517C29.7544 102.455 29.549 102.424 29.3763 102.323C29.0923 102.157 28.8006 102.165 28.5032 102.189C27.9447 102.237 27.4055 102.062 26.8566 102.012C26.682 101.997 26.5419 101.889 26.398 101.779C26.0161 101.487 25.6304 101.198 25.2044 100.984C25.1526 100.958 25.0931 100.932 25.0604 100.887C24.811 100.543 24.4713 100.47 24.1067 100.459C24.0376 100.457 23.9397 100.459 23.9033 100.412C23.6538 100.094 23.3122 100.066 22.9783 99.9905C22.7384 99.9365 22.6406 99.7162 22.5926 99.4679C22.4794 98.8869 22.4276 98.2973 22.4525 97.7056C22.4659 97.3838 22.3949 97.0361 22.6079 96.7402C22.6559 96.6754 22.6079 96.5243 22.6041 96.412C22.5753 95.7576 22.6905 95.1356 22.986 94.5719C23.08 94.3905 23.0896 94.2113 23.0839 94.0191C23.0647 93.2934 23.2278 92.6585 23.7881 92.2179C23.8342 92.1834 23.8726 92.1315 23.9052 92.0797C24.1374 91.6996 24.4656 91.5009 24.8647 91.4405C24.9069 91.434 24.9511 91.4253 24.9875 91.4016C25.5479 91.0452 26.1006 91.2526 26.6206 91.4923C26.9507 91.6456 27.2827 91.8637 27.4554 92.2676C27.5667 92.5311 27.7336 92.7384 27.9658 92.8917C28.2748 93.0969 28.4322 93.4727 28.672 93.7707L28.6663 93.7664ZM35.5364 87.957C35.5038 87.931 35.4711 87.903 35.4385 87.877C35.1775 88.0585 34.8993 88.2204 34.6555 88.4278C34.076 88.9223 33.4581 89.337 32.8018 89.6847C32.4928 89.8488 32.1934 90.0324 31.9133 90.2548C31.8192 90.3304 31.7079 90.4038 31.7252 90.5507C31.754 90.7926 31.6657 91.0258 31.7175 91.2677C31.7885 91.5938 31.7252 91.9048 31.612 92.205C31.4796 92.5592 31.2857 92.896 31.2147 93.2632C31.1054 93.8333 30.8578 94.2825 30.5201 94.7037C30.1439 95.1745 29.4281 95.3926 28.9042 94.9693C28.7315 94.8289 28.5569 94.7663 28.3516 94.7642C28.0963 94.7598 27.843 94.7123 27.5897 94.6691C27.3364 94.6281 27.1234 94.5417 26.9775 94.2912C26.9219 94.1962 26.8547 94.1033 26.7453 94.1011C26.4114 94.0947 26.2464 93.8722 26.1197 93.5526C26.0238 93.315 25.7993 93.2416 25.5786 93.2394C25.356 93.2373 25.3502 93.4921 25.2562 93.639C25.1929 93.7383 25.212 93.8485 25.2274 93.9629C25.2811 94.3668 25.2428 94.7555 25.118 95.1443C25.0259 95.4293 24.9491 95.7446 25.0067 96.0405C25.1238 96.6431 24.9741 97.2434 25.0739 97.8503C25.1871 98.5457 25.3118 99.1893 25.9394 99.5283C26.1946 99.6665 26.3136 99.9603 26.5112 100.157C26.9104 100.554 27.4324 100.71 27.9255 100.848C28.7565 101.081 29.5605 101.371 30.3128 101.831C30.6218 102.021 30.9058 101.98 31.1706 101.727C31.754 101.172 32.205 100.468 32.796 99.9192C32.9668 99.3772 33.4255 99.1871 33.7901 98.8783C33.9455 98.7444 34.0933 98.6774 34.2852 98.6494C34.6364 98.5975 34.953 98.8156 35.2965 98.7811C35.5517 98.7552 35.7283 98.8956 35.8952 99.0834C36.0545 99.2649 36.2023 99.5218 36.3961 99.5888C36.8586 99.7465 37.1618 100.077 37.4496 100.483C37.6243 100.729 37.7989 100.66 37.8565 100.338C37.9236 99.9624 38.1002 99.7421 38.4264 99.6536C38.5358 99.6255 38.6356 99.5542 38.7392 99.5046C39.3974 99.1914 40.0537 98.8826 40.7676 99.3145C40.8022 99.3361 40.8521 99.3404 40.8924 99.3361C41.1207 99.308 41.3011 99.4268 41.4853 99.5542C41.7828 99.7616 41.9728 99.7529 42.1301 99.4311C42.3048 99.0791 42.5581 98.8502 42.8267 98.6126C43.0724 98.3945 43.0513 98.09 42.7788 97.9107C42.2146 97.5414 41.6082 97.265 40.9826 97.0706C40.5086 96.9238 40.0365 96.7273 39.526 96.7769C39.4723 96.7813 39.4147 96.7575 39.361 96.7359C38.8083 96.5005 38.2575 96.2586 37.7049 96.0254C37.3345 95.8699 36.9373 95.7641 36.7281 95.3235C36.7108 95.2868 36.6648 95.2544 36.6264 95.2414C36.304 95.1334 36.2387 94.8613 36.2503 94.5288C36.2541 94.3862 36.2445 94.2372 36.2119 94.1011C36.137 93.7945 36.2042 93.5548 36.3827 93.3064C36.7012 92.8593 36.6072 92.5311 36.1294 92.3C35.9336 92.205 35.7244 92.1423 35.5383 92.0257C35.1775 91.8033 34.8877 91.5268 34.9319 90.9826C34.9511 90.7494 34.9069 90.4988 34.8417 90.2742C34.7208 89.851 34.8014 89.4989 35.0278 89.1491C35.26 88.7884 35.3406 88.3457 35.5345 87.9634L35.5364 87.957Z" fill="#FF4D00"/>
<path d="M45.1951 83.2357C44.8286 83.2487 44.4927 83.1601 44.1569 83.1083C43.9305 83.0716 43.7347 82.9614 43.5563 82.7757C43.2339 82.4409 42.852 82.1861 42.6255 81.7347C42.5315 81.5468 42.3492 81.5252 42.14 81.549C41.5125 81.616 40.8792 81.8254 40.2517 81.5058C40.0809 81.4173 39.9312 81.3007 39.7758 81.1927C39.6856 81.1301 39.6319 81.0393 39.6108 80.9227C39.4937 80.2813 39.2576 79.6744 39.1502 79.0287C39.0773 78.586 38.9045 78.4953 38.5054 78.6054C38.2022 78.6896 37.9892 78.8667 37.9028 79.2101C37.8203 79.5384 37.6073 79.7867 37.4634 80.074C37.2216 80.5556 37.0009 81.0609 36.7169 81.5015C36.4137 81.9723 35.9435 82.2768 35.3927 82.3589C34.6981 82.4625 34.0744 82.2552 33.4776 81.8816C33.4277 81.8514 33.3682 81.8168 33.3451 81.765C33.184 81.3935 32.8942 81.4302 32.6063 81.4626C31.8982 81.5425 31.1824 81.5749 30.4858 81.4626C30.0636 81.3957 29.6184 81.0588 29.4112 80.6592C29.1828 80.2165 29.0005 79.7025 28.9755 79.128C28.9429 78.3981 28.7817 77.6746 28.6589 76.9511C28.6109 76.6747 28.4133 76.6034 28.2137 76.787C27.945 77.0354 27.6898 77.2772 27.5593 77.6854C27.377 78.2534 27.07 78.7717 27.0911 79.4088C27.0911 79.439 27.0834 79.4736 27.068 79.5017C26.6938 80.2359 26.7053 81.102 26.429 81.8708C26.2908 82.2552 26.2006 82.6634 26.0318 83.0348C25.8974 83.3307 25.7669 83.3955 25.5175 83.3394C25.245 83.2767 25.1509 83.1126 25.1701 82.7908C25.2181 82.0068 25.4042 81.2488 25.5827 80.4994C25.79 79.6334 25.9953 78.7739 26.0701 77.8798C26.0893 77.653 26.1527 77.4479 26.2525 77.247C26.5 76.7546 26.6554 76.2276 26.713 75.6618C26.7744 75.0722 27.3118 74.4675 27.8452 74.3401C28.1696 74.2624 28.4248 74.0119 28.7414 73.9039C29.0907 73.7829 29.3977 73.7916 29.699 74.0421C29.9754 74.271 30.2958 74.4718 30.434 74.826C30.6374 75.3465 30.9061 75.8627 30.8735 76.4587C30.8351 77.1714 31.0155 77.8538 31.0884 78.5514C31.1248 78.8991 31.3033 79.2296 31.3686 79.5924C31.4185 79.8688 31.7811 80.0502 32.0767 79.9876C32.4029 79.9163 32.7291 79.9617 33.0554 79.9401C33.6004 79.9055 33.9765 80.2446 34.2759 80.6808C34.6961 81.292 35.4407 81.2812 35.79 80.6096C36.1968 79.8278 36.6171 79.0546 37.0546 78.2923C37.1947 78.0482 37.4384 77.9705 37.6207 77.7934C38.302 77.126 39.0274 77.2513 39.7585 77.6811C40.1039 77.8841 40.3285 78.18 40.5338 78.5817C40.8159 79.1324 41.0212 79.6896 41.1536 80.2943C41.1939 80.4778 41.311 80.5167 41.4492 80.4584C41.9846 80.2338 42.4989 80.4065 42.9805 80.6312C43.2972 80.778 43.5255 81.1192 43.7482 81.4259C44.0744 81.8751 44.4524 82.2423 44.9994 82.2142C45.2949 82.1991 45.5962 82.2055 45.8879 82.1516C46.2199 82.0889 46.5403 82.171 46.8666 82.1775C47.0489 82.1818 47.093 82.3027 46.9817 82.4582C46.7917 82.7217 46.5806 82.9701 46.2582 83.0111C45.8917 83.0564 45.5597 83.3091 45.197 83.2357H45.1951Z" fill="#FF4D00"/>
<path d="M26.256 125.423C26.0852 125.386 25.9163 125.405 25.7455 125.423C25.1583 125.485 24.5845 125.338 24.0088 125.258C23.6307 125.204 23.2508 125.142 22.8766 125.043C22.5945 124.969 22.2989 125.001 22.0053 124.889C21.4066 124.662 20.8501 124.338 20.3262 123.967C19.9673 123.712 19.6123 123.36 19.4626 122.883C19.3321 122.464 19.2746 122.01 19.3072 121.561C19.3321 121.207 19.3321 120.857 19.3072 120.507C19.2573 119.833 19.382 119.175 19.4185 118.507C19.453 117.838 19.4703 117.168 19.5202 116.501C19.5797 115.693 19.6603 114.886 19.737 114.08C19.8445 112.957 20.069 111.851 20.1688 110.724C20.2072 110.279 20.3339 109.836 20.5162 109.443C20.7464 108.951 21.1744 108.692 21.6522 108.605C22.0514 108.532 22.3987 108.413 22.7365 108.122C23.1548 107.761 23.6845 107.83 24.1738 107.971C24.3446 108.02 24.5 108.029 24.6728 108.016C25.1084 107.983 25.5536 107.884 25.947 108.223C26.0218 108.288 26.1331 108.312 26.2291 108.323C26.7511 108.374 27.2558 108.564 27.7873 108.554C28.2901 108.543 28.7564 108.726 29.217 108.929C29.6027 109.1 29.9865 109.232 30.4183 109.152C30.8405 109.074 31.2684 109.087 31.6599 109.34C31.7252 109.383 31.7962 109.402 31.8614 109.363C32.1147 109.214 32.3623 109.327 32.6098 109.372C32.7499 109.398 32.89 109.428 33.0301 109.446C33.3736 109.491 33.7113 109.469 34.0529 109.664C34.3734 109.845 34.7783 109.761 35.1429 109.746C35.6707 109.724 36.1869 109.852 36.7127 109.839C36.9487 109.832 37.1867 109.882 37.4304 109.839C37.6108 109.806 37.8008 109.785 37.9754 109.888C38.1404 109.985 38.3132 109.919 38.4801 109.906C39.0481 109.86 39.6123 109.895 40.1784 109.977C40.4874 110.022 40.8002 110.059 41.1111 109.962C41.2934 109.906 41.4815 109.908 41.6618 109.953C42.1358 110.07 42.6156 110.087 43.0992 110.117C43.6058 110.15 44.1124 110.23 44.5653 110.534C44.786 110.683 45.0643 110.666 45.2773 110.843C45.3444 110.899 45.4557 110.914 45.496 110.983C45.757 111.415 46.1332 111.752 46.3193 112.244C46.492 112.704 46.5611 113.173 46.5553 113.685C46.5477 114.501 46.398 115.285 46.3116 116.084C46.2329 116.812 45.9758 117.466 45.8165 118.158C45.6745 118.782 45.3425 119.35 45.1199 119.954C44.9261 120.484 44.6248 120.959 44.5173 121.531C44.4732 121.762 44.3638 121.98 44.2352 122.172C43.9359 122.619 43.7286 123.14 43.3774 123.542C43.0934 123.866 42.8862 124.276 42.512 124.505C42.3796 124.587 42.2683 124.723 42.1646 124.855C42.038 125.014 41.9113 125.146 41.7079 125.174C41.5793 125.192 41.491 125.308 41.3932 125.405C41.0823 125.714 40.7445 125.978 40.3185 126.04C40.2897 126.045 40.259 126.047 40.236 126.064C39.6488 126.455 38.9771 126.425 38.3381 126.552C38.2402 126.572 38.1385 126.589 38.0407 126.58C36.9814 126.477 35.9067 126.466 34.8992 126.006C34.7649 125.945 34.6267 125.917 34.4847 125.902C34.2563 125.878 34.0453 125.794 33.8399 125.669C32.842 125.053 31.7712 124.926 30.6601 125.073C30.5622 125.086 30.4528 125.14 30.3665 125.109C29.9884 124.976 29.6334 125.142 29.2707 125.189C28.269 125.323 27.2673 125.436 26.2579 125.42L26.256 125.423Z" fill="#FF4D00"/>
<path d="M33.7461 54.9057C33.8497 54.923 34.0512 54.8517 34.2412 54.9662C34.2987 55.0008 34.387 55.0094 34.4484 54.9878C34.8092 54.8561 35.1508 54.9964 35.4962 55.0763C35.8128 55.1476 36.1122 55.3247 36.45 55.2534C36.4634 55.2513 36.4787 55.2578 36.4903 55.2642C36.9988 55.5277 37.5611 55.6163 38.0389 56.005C38.392 56.2944 38.7125 56.6594 39.173 56.8105C39.4667 56.9077 39.7123 57.2058 39.9675 57.4325C40.4242 57.8364 40.8867 58.2273 41.4087 58.5231C41.5085 58.5793 41.5891 58.6765 41.6774 58.7564C41.9019 58.9616 42.1533 59.1192 42.4411 59.1538C42.9669 59.2185 43.4678 59.3373 43.9265 59.6678C44.1241 59.8103 44.387 59.8146 44.6192 59.8816C45.2621 60.0673 45.9203 60.199 46.5709 60.3502C46.8702 60.4193 47.1811 60.3502 47.4536 60.2703C47.7703 60.1753 48.0792 60.0997 48.4054 60.0889C48.7893 60.0759 49.1596 59.9528 49.5281 59.8535C49.9637 59.7369 50.407 59.7865 50.833 59.7109C51.3972 59.6116 51.9268 59.7541 52.4699 59.8146C52.5678 59.8254 52.6695 59.8362 52.7674 59.8211C53.3738 59.7282 53.8401 60.0565 54.2719 60.4625C54.4791 60.659 54.506 60.9722 54.5463 61.2529C54.5981 61.6179 54.5809 61.998 54.4446 62.3392C54.293 62.7215 54.1951 63.1189 54.0992 63.5206C53.9188 64.2721 53.5772 64.9243 53.1128 65.4966C52.9957 65.6413 52.8921 65.786 52.825 65.9653C52.6446 66.4491 52.3356 66.8119 51.971 67.125C51.8942 67.192 51.8213 67.2762 51.7676 67.3691C51.3588 68.0688 50.7466 68.5158 50.1613 68.9845C49.8658 69.222 49.4974 69.343 49.1615 69.5114C49.1097 69.5373 49.0502 69.5676 48.9984 69.5589C48.5724 69.4898 48.1541 69.6216 47.7319 69.6043C47.2483 69.5827 46.7685 69.5697 46.2849 69.6453C45.8359 69.7144 45.3792 69.7101 44.9243 69.641C44.5712 69.587 44.2143 69.5978 43.8631 69.6367C43.4793 69.6799 43.1013 69.6734 42.7156 69.6431C42.2646 69.6108 41.8079 69.628 41.3569 69.6583C40.7025 69.6993 40.0539 69.695 39.4072 69.5589C39.1423 69.5028 38.8698 69.4877 38.605 69.4315C37.8796 69.2782 37.1657 69.0687 36.4288 68.9931C35.8359 68.9326 35.239 68.8959 34.648 68.8203C34.0569 68.7447 33.4697 68.6173 32.8787 68.5396C32.1283 68.4402 31.3991 68.2243 30.6718 68.0213C29.9598 67.8226 29.2172 67.7038 28.5589 67.3129C28.1214 67.0538 27.6589 66.8075 27.2924 66.4469C26.922 66.0819 26.686 65.5852 26.734 64.9589C26.7992 64.1101 26.9873 63.3024 27.2444 62.5099C27.4056 62.0153 27.5399 61.5078 27.7606 61.0391C27.8681 60.8124 27.8873 60.5489 27.8604 60.2876C27.8374 60.0673 27.8815 59.8773 28.0427 59.7304C28.1061 59.6721 28.1675 59.5943 28.2001 59.5101C28.3459 59.1278 28.4995 58.7478 28.6108 58.3547C28.6894 58.0761 28.8161 57.8666 29.0349 57.7262C29.1385 57.6614 29.2018 57.5621 29.2671 57.4541C29.4993 57.0654 29.7775 56.7393 30.1421 56.4909C30.6027 56.1756 31.0364 55.8128 31.4778 55.4651C31.5948 55.3722 31.71 55.2707 31.8539 55.247C32.4565 55.1498 33.0341 54.8885 33.7441 54.9144L33.7461 54.9057Z" fill="#FF4D00"/>
</svg>
