<svg width="73" height="138" viewBox="0 0 73 138" fill="none" xmlns="http://www.w3.org/2000/svg">
<path d="M21.0181 11.1729C20.9483 11.8792 21.124 12.4882 21.1663 13.1058C21.2044 13.6911 21.2827 14.272 21.3208 14.8552C21.3653 15.5182 21.179 16.1164 21.0583 16.7384C20.9948 17.0731 20.9652 17.4035 21.0499 17.7383C21.0964 17.9262 21.1218 18.1292 21.0499 18.3063C20.8826 18.7144 20.9101 19.1528 20.8509 19.574C20.7747 20.1117 20.7577 20.656 20.5503 21.1656C20.5334 21.2088 20.5164 21.2607 20.5228 21.306C20.6434 22.1893 20.3767 23.0445 20.3407 23.9149C20.3132 24.552 20.237 25.1847 20.4529 25.8132C20.5609 26.1263 20.5757 26.4611 20.4021 26.7915C20.2878 27.0075 20.3513 27.2623 20.4148 27.4977C20.5969 28.1823 20.6223 28.8864 20.6328 29.5861C20.6392 29.91 20.6773 30.2189 20.7493 30.532C20.9186 31.2598 21.1324 31.979 21.2086 32.7284C21.2234 32.8709 21.2404 33.0329 21.3145 33.143C21.7463 33.7801 21.5854 34.5641 21.8289 35.2487C21.8818 35.3955 21.8416 35.564 21.8035 35.7216C21.74 35.9851 21.668 36.2486 21.7272 36.5272C21.7527 36.6417 21.7273 36.7518 21.6616 36.8468C21.5135 37.0649 21.4648 37.322 21.4161 37.5682C21.3674 37.8165 21.2531 38.0109 21.1091 38.2052C20.6265 38.8553 20.0994 39.46 19.4453 39.9438C19.2865 40.0604 19.1129 40.1165 18.9394 40.1856C18.5118 40.3541 18.0947 40.5355 17.8513 40.9717C17.8217 41.0257 17.7751 41.0862 17.7222 41.1078C17.2438 41.3022 16.9263 41.7233 16.5092 42.004C16.3018 42.1423 16.1197 42.315 15.9864 42.544C15.8276 42.8182 15.6561 43.086 15.3556 43.2372C15.1989 43.3171 15.1248 43.4942 15.0211 43.6346C14.7396 44.019 14.4453 44.3969 14.0833 44.7036C13.9161 44.844 13.823 45.006 13.7637 45.2154C13.6324 45.6862 13.5859 46.1851 13.2832 46.5976C13.2218 46.6797 13.19 46.8157 13.2048 46.9194C13.262 47.2952 13.1392 47.6407 13.0715 47.9949C12.9932 48.4052 12.9275 48.8156 13.1689 49.2065C13.2366 49.3144 13.2175 49.4527 13.2027 49.5823C13.1879 49.7075 13.1667 49.8479 13.2027 49.9623C13.3869 50.5368 13.334 51.1199 13.3361 51.7095C13.3361 52.3142 13.4356 52.9211 13.6176 53.5042C13.6663 53.6597 13.6875 53.7979 13.6663 53.9663C13.6219 54.314 13.7023 54.6682 13.8039 54.9922C13.9775 55.545 14.06 56.1044 14.0664 56.6789C14.0664 56.843 14.1024 56.9941 14.1405 57.1496C14.2252 57.506 14.2908 57.8602 14.3014 58.2338C14.3141 58.6744 14.4199 59.1149 14.5236 59.5447C14.5723 59.7477 14.6464 59.9356 14.6125 60.1516C14.5893 60.2962 14.6231 60.4366 14.657 60.577C14.7353 60.888 14.7925 61.2011 14.7967 61.5251C14.7967 61.6201 14.8009 61.7216 14.8306 61.8102C15.1502 62.7712 15.1629 63.7927 15.3704 64.7775C15.4423 65.1166 15.4656 65.4708 15.5482 65.812C15.5778 65.9351 15.6053 66.0711 15.5842 66.1899C15.5334 66.4577 15.5715 66.7061 15.7048 66.9307C15.9525 67.341 15.8869 67.7967 15.8996 68.2351C15.9186 68.8657 16.1113 69.4618 16.1938 70.0773C16.2383 70.412 16.3145 70.736 16.234 71.075C16.1811 71.2996 16.2171 71.5264 16.2912 71.7381C16.5029 72.3384 16.433 72.969 16.4881 73.5867C16.5177 73.9279 16.5325 74.2584 16.7992 74.511C16.9051 74.6104 16.8987 74.7335 16.8564 74.8652C16.6489 75.5218 16.8945 76.0876 17.2057 76.6361C17.2607 76.7333 17.3687 76.8219 17.375 76.919C17.4279 77.811 17.9508 78.6036 17.9 79.5171C17.8958 79.5949 17.9042 79.6834 17.9381 79.7525C18.2726 80.4522 18.2958 81.2383 18.5224 81.9683C18.6557 82.3938 18.8801 82.7868 18.9605 83.2338C18.9923 83.4066 19.0431 83.5751 19.0177 83.7543C19.0071 83.8321 18.9902 83.9228 19.0177 83.9919C19.3162 84.7348 19.2569 85.5706 19.5977 86.3027C19.6189 86.3459 19.6506 86.3956 19.6464 86.4366C19.5956 86.8491 19.8009 87.2011 19.8771 87.5812C19.9597 88.0023 20.1036 88.4062 20.1693 88.8338C20.3788 90.1879 20.6858 91.5269 20.9313 92.8767C21.1324 93.9738 21.215 95.0838 21.3737 96.1831C21.3759 96.1982 21.3801 96.2155 21.378 96.2306C21.2573 96.8137 21.4457 97.4033 21.3251 97.9885C21.2891 98.157 21.2721 98.3514 21.3145 98.5133C21.4944 99.1936 21.3716 99.8782 21.3801 100.563C21.3886 101.414 21.5283 102.247 21.6913 103.077C21.7548 103.401 21.6743 103.712 21.7103 104.031C21.7759 104.606 22.0236 105.133 22.0723 105.714C22.1316 106.426 22.2924 107.128 22.3623 107.845C22.4089 108.333 22.5549 108.811 22.6502 109.294C22.7327 109.715 22.7539 110.147 22.8619 110.566C22.936 110.86 22.9868 111.154 23.1201 111.432C23.2217 111.646 23.2725 111.886 23.3339 112.117C23.4991 112.743 23.6705 113.37 23.9118 113.97C23.9944 114.173 24.1193 114.367 24.0388 114.605C24.3246 115.02 24.1976 115.555 24.3754 115.965C24.6062 116.501 24.5448 117.06 24.7078 117.589C24.8009 117.89 24.7776 118.222 24.9851 118.494C25.0867 118.624 25.0719 118.812 25.0295 118.961C24.8517 119.587 25.1036 120.153 25.2158 120.747C25.3746 121.583 25.726 122.401 25.5439 123.289C25.5228 123.395 25.5312 123.513 25.5482 123.624C25.7006 124.729 26.0731 125.762 26.6172 126.725C26.7844 127.021 27.0871 127.222 27.3538 127.44C27.4152 127.489 27.5211 127.511 27.5443 127.571C27.7264 128.064 28.2175 128.271 28.5054 128.664C28.552 128.727 28.6028 128.805 28.6705 128.83C29.3288 129.087 29.9004 129.522 30.5376 129.815C30.8762 129.973 31.2594 130.031 31.6383 130.051C31.8458 130.061 32.0469 130.083 32.2395 130.154C32.701 130.327 33.173 130.429 33.6641 130.439C33.7742 130.442 33.8779 130.472 33.9795 130.524C34.2103 130.64 34.4558 130.664 34.7141 130.636C35.1142 130.593 35.5015 130.666 35.8572 130.848C36.0773 130.96 36.2996 130.981 36.5367 131.001C37.176 131.051 37.8131 131.124 38.4503 131.189C38.5435 131.197 38.6387 131.215 38.7318 131.213C39.5235 131.187 40.3216 131.163 41.0942 130.992C41.8309 130.83 42.5591 130.938 43.2915 130.943C43.4143 130.943 43.5413 131.005 43.6641 130.958C44.2991 130.72 44.9405 130.904 45.5756 130.94C46.452 130.992 47.3241 131.083 48.192 130.863C48.4185 130.804 48.6598 130.867 48.8927 130.8C49.0599 130.753 49.2335 130.727 49.369 130.608C49.6124 130.394 49.9172 130.338 50.203 130.37C50.9968 130.461 51.7568 130.195 52.5379 130.178C52.612 130.178 52.6967 130.143 52.7559 130.098C52.9189 129.975 53.1031 129.934 53.2915 129.956C54.0366 130.044 54.7479 129.802 55.4782 129.753C55.6264 129.742 55.7576 129.705 55.8486 129.578C56.0074 129.347 56.217 129.189 56.4816 129.105C56.6213 129.062 56.7208 128.956 56.8055 128.837C56.8795 128.733 56.9557 128.63 57.0785 128.578C57.4913 128.405 57.7496 128.072 57.9591 127.692C58.0142 127.591 58.0819 127.511 58.1645 127.435C58.4778 127.146 58.7974 126.863 59.0281 126.494C59.1043 126.373 59.1954 126.252 59.3393 126.211C59.7457 126.092 59.932 125.759 60.095 125.41C60.2898 124.993 60.5438 124.602 60.7449 124.198C60.9566 123.773 61.2339 123.293 61.0921 122.749C61.0243 122.485 61.1026 122.226 61.1979 122.002C61.4435 121.416 61.3609 120.805 61.3905 120.205C61.4096 119.855 61.3672 119.501 61.3524 119.151C61.3482 119.056 61.3164 118.946 61.3778 118.87C61.6001 118.598 61.5302 118.313 61.4646 118.006C61.3672 117.551 61.4286 117.08 61.4329 116.622C61.4371 116.179 61.2932 115.775 61.2572 115.35C61.2212 114.922 61.1513 114.499 61.2381 114.067C61.3037 113.735 61.3143 113.383 61.1958 113.069C60.9756 112.482 60.9968 111.875 60.9862 111.27C60.982 111.093 60.9841 110.918 60.9269 110.748C60.8592 110.545 60.8592 110.337 60.8931 110.13C60.9523 109.763 60.9333 109.396 60.8888 109.029C60.8444 108.664 60.8063 108.301 60.8317 107.929C60.8486 107.694 60.7999 107.456 60.6539 107.247C60.5057 107.033 60.4612 106.776 60.4337 106.521C60.3935 106.137 60.3236 105.765 60.1543 105.413C60.0294 105.152 59.9701 104.848 60.0188 104.573C60.1056 104.085 59.968 103.638 59.8198 103.211C59.6738 102.796 59.6187 102.394 59.6378 101.964C59.6441 101.839 59.5828 101.707 59.5976 101.584C59.6336 101.276 59.316 101.034 59.3922 100.772C59.479 100.479 59.4769 100.23 59.4071 99.9409C59.2208 99.1677 59.0451 98.3924 59.0112 97.5933C59.0091 97.5307 59.0091 97.4594 58.9816 97.4054C58.5857 96.6323 58.609 95.7317 58.2513 94.9456C58.1391 94.6972 58.1666 94.4122 58.1666 94.1401C58.1666 94.0126 58.211 93.8615 58.1602 93.76C57.9274 93.2956 57.9867 92.7773 57.8618 92.2957C57.8364 92.2007 57.83 92.11 57.8342 92.0128C57.8469 91.6889 57.7856 91.3779 57.6882 91.0712C57.595 90.7818 57.4998 90.4924 57.5823 90.1793C57.6014 90.108 57.5993 89.9914 57.5569 89.9482C57.2542 89.648 57.3706 89.2593 57.3325 88.9072C57.3114 88.6978 57.2733 88.5034 57.195 88.3047C57.0743 87.998 56.9219 87.6892 57.0214 87.335C57.0362 87.2789 57.0235 87.2033 57.0023 87.1471C56.8055 86.6396 56.7123 86.1062 56.6954 85.5663C56.6806 85.0674 56.4985 84.6031 56.4519 84.1064C56.4223 83.7889 56.3884 83.4757 56.3884 83.1539C56.3884 82.7566 56.399 82.3635 56.2297 81.9769C56.1386 81.7696 56.1895 81.5018 56.1429 81.2686C56.0624 80.8647 55.9079 80.4889 55.9143 80.0549C55.9185 79.7741 55.7005 79.5042 55.5989 79.2191C55.4062 78.6727 55.33 78.1069 55.2284 77.5432C55.1967 77.3704 55.1882 77.1825 55.1141 77.0314C54.8685 76.5303 54.8347 75.9861 54.7818 75.4462C54.7394 75.0272 54.642 74.632 54.4812 74.2454C54.3436 73.9107 54.2547 73.5651 54.2356 73.185C54.2123 72.7293 54.079 72.2736 53.9498 71.8309C53.8101 71.3579 53.8059 70.844 53.5286 70.4164C53.6048 69.8959 53.2661 69.5266 53.0713 69.1054C53.029 69.0169 52.9951 68.9197 53.0311 68.8269C53.1602 68.5072 53.0036 68.2697 52.8237 68.0386C52.7009 67.8809 52.631 67.719 52.6776 67.5073C52.7496 67.1855 52.6332 66.8724 52.4575 66.6478C52.1463 66.2525 52.1039 65.771 51.924 65.3369C51.7907 65.0108 51.7504 64.6501 51.6086 64.3348C51.4562 64.0022 51.2932 63.6761 51.1535 63.3349C51.0857 63.1686 51.0603 63.0045 51.0265 62.8317C50.9566 62.4753 50.8508 62.1233 50.7322 61.7799C50.4676 61.0133 50.2242 60.2422 50.1078 59.4367C50.0506 59.0415 50.0485 58.642 49.9765 58.2468C49.8051 57.3073 49.5849 56.3722 49.5468 55.4176C49.5066 54.422 49.2758 53.4653 48.9922 52.528C48.8377 52.0205 48.6768 51.4892 48.372 51.0357C48.2957 50.9234 48.2703 50.8003 48.283 50.6707C48.3042 50.4245 48.2026 50.2021 48.1709 49.9688C48.1031 49.4764 47.7644 49.1158 47.6311 48.6558C47.5379 48.334 47.4384 48.0122 47.3707 47.6882C47.3135 47.414 47.2543 47.1483 47.0616 46.954C46.8394 46.7294 46.8753 46.4205 46.761 46.1592C46.3821 45.3061 45.8254 44.5956 45.2687 43.8592C44.7691 43.1962 44.1764 42.6843 43.5307 42.2049C43.4418 42.138 43.3593 42.0473 43.2598 42.017C42.7602 41.8615 42.4046 41.4858 42.032 41.1596C41.6637 40.8379 41.217 40.6392 40.8699 40.2785C40.6857 40.0884 40.3491 40.0453 40.0909 39.8876C39.7098 39.6544 39.4241 39.3347 39.2103 38.9741C38.9626 38.5616 38.6027 38.2528 38.3339 37.8619C37.9592 37.3155 37.5528 36.7907 37.2649 36.1881C37.1273 35.8966 36.8733 35.6892 36.7484 35.3934C36.6933 35.2616 36.5917 35.1407 36.5706 35.0047C36.507 34.5857 36.3335 34.2077 36.1535 33.8363C35.9948 33.5102 35.8699 33.1711 35.6878 32.8515C35.5121 32.5448 35.4634 32.169 35.2962 31.8364C34.9829 31.2145 34.7056 30.573 34.4855 29.9057C34.4262 29.7243 34.3712 29.5451 34.3352 29.355C34.2717 28.9944 34.206 28.6294 34.0388 28.2968C33.9224 28.0657 33.861 27.8238 33.8568 27.5603C33.8546 27.3876 33.8229 27.2062 33.7636 27.0442C33.643 26.7094 33.6112 26.3725 33.59 26.0183C33.5689 25.7138 33.463 25.405 33.4059 25.094C33.2916 24.4807 33.1963 23.8652 33.0905 23.2519C33.0016 22.7292 32.9486 22.1915 32.9698 21.6451C32.9973 20.9777 33.0587 20.3104 33.046 19.6388C33.0354 19.0708 33.173 18.4985 33.2598 17.9326C33.2894 17.7383 33.2831 17.5634 33.2365 17.369C33.1265 16.9155 33.2111 16.449 33.209 15.9868C33.2069 15.2828 33.1137 14.5874 33.0418 13.8941C33.01 13.5918 32.8745 13.2916 32.8026 12.9827C32.6523 12.3392 32.7031 11.674 32.538 11.0412C32.4512 10.7065 32.5062 10.4797 32.8026 10.2637C33.2281 9.9506 33.3995 9.50138 33.2767 8.95499C33.2217 8.71095 33.1476 8.50364 32.9021 8.38486C32.7793 8.32655 32.684 8.20561 32.5803 8.10842C32.4766 8.00908 32.3729 7.89678 32.2353 7.86438C31.6637 7.72617 31.1663 7.43462 30.6624 7.13874C30.4275 7.00053 30.1248 6.94221 29.8496 7.07394C29.6464 7.17113 29.4707 7.1517 29.2632 7.08043C28.9266 6.96381 28.5816 6.98972 28.2852 7.20784C28.1498 7.30503 28.01 7.35471 27.8555 7.38711C27.3369 7.49725 26.8204 7.62249 26.2954 7.71319C25.7768 7.8039 25.2645 7.6916 24.7649 7.55554C24.5765 7.50371 24.4029 7.467 24.2167 7.52963C24.1574 7.55122 24.0896 7.5858 24.0346 7.575C23.6599 7.49077 23.3339 7.69592 22.9868 7.74343C22.5041 7.81038 22.1316 8.05874 21.8013 8.36973C21.5262 8.63105 21.3018 8.97445 21.2552 9.35454C21.179 9.98732 20.9207 10.5985 21.0329 11.1751L21.0181 11.1729ZM32.4893 25.364C32.4745 25.8391 32.5824 26.2062 32.5888 26.5928C32.5994 27.2299 32.5422 27.8821 32.756 28.4955C32.8851 28.8648 32.9021 29.247 32.974 29.6228C33.1519 30.5623 33.0841 31.5708 33.7192 32.3807C33.7276 32.3936 33.7382 32.4087 33.7403 32.4239C33.8102 32.9227 34.0134 33.3741 34.2209 33.8211C34.5617 34.5597 34.7374 35.3955 35.3703 35.9743C35.4465 36.0434 35.4719 36.1709 35.5269 36.2659C35.7535 36.6633 35.9884 37.065 36.3165 37.3803C36.5092 37.566 36.7103 37.7323 36.869 37.959C37.2098 38.4493 37.5591 38.9352 38.0333 39.311C38.2429 39.4773 38.4355 39.6673 38.626 39.8574C39.0197 40.2483 39.3987 40.6543 39.9681 40.7838C40.0739 40.8076 40.1777 40.8681 40.2306 40.9739C40.3237 41.1596 40.4931 41.2417 40.6624 41.3281C40.7767 41.3842 40.8699 41.4663 40.963 41.5549C41.5621 42.1164 42.1548 42.6865 42.8533 43.1249C43.1222 43.2934 43.3677 43.5158 43.535 43.7793C43.6916 44.0298 43.9753 44.2155 43.9922 44.5438C44.0134 44.9304 44.1721 45.2543 44.3796 45.5588C44.7394 46.0858 45.0125 46.6559 45.2327 47.2585C45.419 47.7638 45.5947 48.2778 45.9058 48.727C45.9566 48.8005 45.9778 48.9041 45.9884 48.9991C46.0688 49.7615 46.4647 50.4504 46.5049 51.2236C46.5091 51.2841 46.5388 51.3467 46.5684 51.4028C46.833 51.906 46.9346 52.4956 47.3516 52.9211C47.4744 53.0463 47.5146 53.2277 47.5379 53.407C47.5527 53.5344 47.5654 53.6618 47.6332 53.7741C48.0311 54.4285 48.1179 55.2124 48.4693 55.8863C48.518 55.9791 48.5117 56.1044 48.5328 56.2124C48.5815 56.4629 48.6048 56.722 48.6852 56.9639C48.9223 57.6788 49.0324 58.4109 49.0811 59.1603C49.115 59.6678 49.1869 60.1753 49.2674 60.6785C49.4494 61.8274 49.6505 62.9742 49.8389 64.121C49.8601 64.2506 49.9151 64.3629 49.9659 64.4795C50.2369 65.0928 50.4549 65.7299 50.5819 66.3886C50.6476 66.7298 50.6095 67.0797 50.8741 67.3713C51.0138 67.5246 50.9524 67.6606 50.7365 67.7146C50.4867 67.7751 50.2623 67.8874 50.0485 68.0192C49.3859 68.423 48.6662 68.6951 47.957 68.9888C47.8258 69.0428 47.6882 69.0817 47.5824 69.1853C47.3665 69.397 47.0934 69.4683 46.8076 69.4963C46.5515 69.5201 46.3165 69.5871 46.1048 69.7425C46.018 69.8073 45.9143 69.857 45.8106 69.8894C45.1268 70.0989 44.4156 70.1831 43.7149 70.3084C43.0502 70.4293 42.4279 70.6798 41.7907 70.8785C41.1874 71.0664 40.637 71.4098 39.9871 71.5113C39.64 71.5653 39.2695 71.6236 38.9393 71.764C38.2979 72.0404 37.612 72.1311 36.9495 72.3104C35.8043 72.6192 34.6231 72.6494 33.4461 72.6084C32.6819 72.5803 31.9093 72.6451 31.1514 72.4745C30.7069 72.3752 30.2539 72.3168 29.7967 72.3276C28.4715 72.3557 27.1929 72.0253 25.8995 71.818C25.8233 71.805 25.7556 71.7553 25.6794 71.7337C25.3344 71.6366 24.9914 71.4724 24.6464 71.4638C24.2484 71.453 23.8631 71.4098 23.4927 71.2824C23.1477 71.1658 22.809 71.0534 22.4385 71.0837C22.3094 71.0945 22.1908 71.0426 22.085 70.9692C21.5621 70.5956 20.872 70.6517 20.3534 70.2673C20.3301 70.2501 20.292 70.2501 20.2624 70.2501C19.947 70.2436 19.6379 70.1917 19.3416 70.0751C19.1278 69.9909 18.8653 70.1723 18.7023 70.0514C18.5266 69.9239 18.4737 69.6281 18.3064 69.4791C18.0588 69.2609 18.0058 69.0083 18.0249 68.7102C18.0693 68.071 17.8937 67.4598 17.6523 66.8983C17.4745 66.4858 17.4237 66.0776 17.4025 65.6543C17.3898 65.4081 17.3708 65.1792 17.248 64.9654C17.1655 64.8272 17.1231 64.6717 17.0935 64.514C16.9686 63.8748 16.9072 63.2226 16.6616 62.6071C16.4309 62.0261 16.3441 61.4041 16.2425 60.7908C16.2044 60.5662 16.0372 60.3934 16.0541 60.1537C16.1007 59.4302 15.8996 58.7305 15.8022 58.0243C15.671 57.0503 15.4847 56.0785 15.2794 55.1153C15.1862 54.6769 15.2095 54.2125 15.1121 53.7979C14.983 53.2536 15.0232 52.6878 14.8412 52.1544C14.7459 51.8758 14.7163 51.5583 14.8517 51.2603C14.8983 51.1566 14.9025 51.0335 14.8475 50.932C14.7628 50.7765 14.7755 50.6297 14.8327 50.472C14.8666 50.3792 14.8644 50.2798 14.8263 50.1891C14.7396 49.9861 14.7607 49.7874 14.8115 49.5801C14.9724 48.9344 14.8433 48.2217 15.2497 47.6299C15.2836 47.5824 15.2815 47.5068 15.292 47.4442C15.3365 47.1527 15.5016 46.9496 15.7429 46.8071C15.853 46.7423 15.9737 46.6926 16.0245 46.5674C16.2404 46.0512 16.668 45.7122 17.0215 45.3083C17.3941 44.8829 17.8534 44.5287 18.0842 43.9823C18.1392 43.8506 18.2683 43.8182 18.3975 43.7987C18.6726 43.7577 18.8356 43.5936 18.9563 43.343C19.0643 43.1141 19.1743 42.8614 19.3797 42.7167C19.7014 42.49 19.8179 42.0494 20.2179 41.909C20.2624 41.8939 20.2772 41.7989 20.3174 41.7514C20.5884 41.4404 20.7493 41.0452 21.0118 40.7385C21.198 40.5225 21.3864 40.3109 21.5452 40.0733C21.7061 39.8358 21.8754 39.6068 22.0977 39.4233C22.6989 38.9244 22.9084 38.175 23.1688 37.4925C23.3466 37.0261 23.4207 36.484 23.4207 35.9484C23.4207 35.2185 23.5668 34.4885 23.2958 33.7715C23.1392 33.3568 23.1942 32.8774 22.9317 32.4908C22.8725 32.4044 22.9042 32.3051 22.936 32.2144C23.1371 31.6356 23.0672 31.0503 22.9677 30.4672C22.9444 30.3225 22.9127 30.18 22.9487 30.0396C23.0609 29.6034 22.9931 29.1779 22.8788 28.759C22.7836 28.4091 22.8386 28.0592 22.8449 27.7094C22.8492 27.4826 22.9868 27.4049 23.2006 27.4632C23.353 27.5042 23.516 27.5171 23.6557 27.5863C23.9605 27.7396 24.2865 27.7547 24.6083 27.813C24.9914 27.8821 25.3619 27.7288 25.7323 27.8087C26.0244 27.8735 26.2912 27.8238 26.5579 27.7159C26.6891 27.6619 26.8267 27.5949 26.9622 27.5971C27.4258 27.6014 27.8576 27.4588 28.2979 27.3487C29.3987 27.0744 30.4381 26.6684 31.3906 26.0205C31.7082 25.8045 32.0553 25.6102 32.4935 25.3662L32.4893 25.364ZM45.1544 105.981C44.7373 105.886 44.3415 106.094 43.9245 106.156C43.1497 106.271 42.3538 106.187 41.5938 106.381C41.0815 106.513 40.5883 106.61 40.0485 106.588C39.4114 106.564 38.7954 106.832 38.154 106.871C38.0777 106.875 37.9994 106.904 37.9275 106.936C37.6036 107.078 37.2606 107.094 36.9177 107.137C36.3864 107.204 35.8508 107.178 35.3258 107.251C34.8157 107.325 34.3161 107.258 33.8419 107.148C33.3657 107.04 32.8872 106.975 32.4067 106.938C31.6256 106.88 30.8678 106.677 30.0909 106.582C29.1912 106.472 28.3 106.295 27.3898 106.264C27.2014 106.258 27.0088 106.269 26.8394 106.171C26.2404 105.826 25.6265 105.515 24.9935 105.241C24.9216 105.208 24.8475 105.176 24.7882 105.126C24.422 104.813 24.0007 104.686 23.5266 104.69C23.3699 104.69 23.2027 104.649 23.1519 104.461C23.0926 104.247 23.0249 104.029 23.0122 103.809C22.9741 103.172 22.7751 102.563 22.7624 101.917C22.7539 101.446 22.665 100.967 22.6565 100.494C22.6396 99.632 22.6862 98.7725 22.6692 97.9108C22.6523 96.9886 22.5867 96.0665 22.5486 95.1443C22.538 94.8851 22.5147 94.6368 22.3962 94.4014C22.3475 94.3063 22.3179 94.1832 22.3263 94.0774C22.3877 93.2524 22.1316 92.4685 22.0257 91.6651C21.9919 91.4124 21.9643 91.1576 21.9114 90.9092C21.8013 90.3996 21.5897 89.9072 21.6701 89.3672C21.6786 89.3068 21.6764 89.229 21.6468 89.1794C21.3822 88.7453 21.5367 88.2118 21.3166 87.7605C21.1345 87.3847 21.1769 86.9549 21.1345 86.5532C21.0858 86.0954 21.0795 85.6354 20.9504 85.1883C20.9292 85.1149 20.9419 85.0285 20.9546 84.9508C21.0033 84.6786 21.0202 84.413 20.9123 84.1474C20.8848 84.0783 20.8678 83.9811 20.8953 83.9163C20.9991 83.6571 20.9356 83.4174 20.8678 83.1669C20.8234 83.0006 20.7641 82.8214 20.8043 82.6464C20.8826 82.316 20.8064 82.0072 20.6942 81.707C20.5947 81.4435 20.563 81.1843 20.6328 80.9101C20.6604 80.8042 20.6604 80.6876 20.6625 80.5775C20.6858 79.6531 20.4487 78.7677 20.2412 77.8822C20.165 77.5605 20.1481 77.2171 20.0041 76.9126C19.7713 76.4137 19.6697 75.8824 19.6168 75.3382C19.6019 75.1956 19.6104 75.0358 19.513 74.9257C19.3246 74.7119 19.331 74.4614 19.3289 74.2022C19.3289 74.0424 19.3268 73.8761 19.2781 73.7271C19.0367 72.9712 19.0791 72.1484 18.7425 71.4141C18.7086 71.3385 18.7002 71.2111 18.8018 71.1571C18.8801 71.1161 18.95 71.1787 19.0113 71.2327C19.1405 71.3472 19.2463 71.4832 19.4157 71.5523C20.1185 71.8374 20.7577 72.306 21.5579 72.306C22.0681 72.6559 22.6587 72.5738 23.2239 72.6581C24.2442 72.8071 25.2306 73.1353 26.2721 73.2066C27.0236 73.2584 27.7793 73.2584 28.5266 73.2671C29.3712 73.2757 30.22 73.2736 31.0646 73.2584C31.2192 73.2563 31.3758 73.2844 31.5303 73.3081C32.5104 73.4485 33.4948 73.5176 34.4833 73.4204C34.7162 73.3967 34.9533 73.3427 35.184 73.3535C36.0286 73.3923 36.814 73.0598 37.6396 72.969C38.0862 72.9215 38.5265 72.7747 38.9816 72.7445C39.2314 72.7272 39.496 72.7272 39.7183 72.6084C40.148 72.3795 40.6095 72.3125 41.0794 72.265C41.344 72.2391 41.6065 72.1894 41.8605 72.0987C42.4808 71.8763 43.1222 71.7402 43.7784 71.7078C44.1425 71.6905 44.496 71.6603 44.8093 71.4422C44.9003 71.3796 45.0062 71.3342 45.1205 71.3472C45.999 71.453 46.6933 70.8785 47.4871 70.6669C47.7221 70.6042 47.9528 70.5006 48.1984 70.4466C48.4693 70.3861 48.8017 70.3408 48.9795 70.1593C49.3415 69.7879 49.841 69.6432 50.2009 69.2869C50.3597 69.1314 50.5565 69.0234 50.7534 68.924C51.1789 68.7102 51.2763 68.7621 51.3017 69.2329C51.3165 69.5072 51.3842 69.7641 51.4647 70.0276C51.6827 70.7381 52.032 71.4098 52.0299 72.1851C52.0299 72.4183 52.1082 72.6581 52.2479 72.8611C52.3601 73.0252 52.3834 73.2153 52.377 73.4118C52.3537 74.0834 52.3241 74.7572 52.6141 75.3922C52.6459 75.4613 52.6691 75.5585 52.648 75.6254C52.504 76.0725 52.6268 76.4741 52.8089 76.8758C52.8533 76.973 52.8406 77.094 52.8554 77.2063C52.8808 77.3812 52.8745 77.5669 52.938 77.7246C53.2153 78.4092 53.1984 79.1348 53.2259 79.8475C53.2407 80.2363 53.2915 80.6056 53.4058 80.977C53.6641 81.8344 53.8821 82.7004 53.8884 83.6053C53.8884 83.8666 53.916 84.1409 54.1171 84.3158C54.4092 84.5664 54.4896 84.9076 54.5404 85.2488C54.5807 85.5252 54.6717 85.7693 54.7818 86.0198C54.9596 86.4258 55.2115 86.8124 55.1924 87.2832C55.1776 87.646 55.2538 87.9916 55.3914 88.3133C55.5671 88.7194 55.4951 89.1945 55.7491 89.5746C55.7809 89.6221 55.7724 89.6998 55.7767 89.7625C55.7915 90.0367 55.8486 90.2981 55.9291 90.5615C56.0455 90.9416 56.1725 91.3239 56.2339 91.7169C56.363 92.5506 56.4435 93.395 56.562 94.2308C56.7017 95.2069 57.0933 96.1226 57.2119 97.1096C57.2966 97.8028 57.4934 98.4788 57.703 99.1461C57.7305 99.2368 57.7347 99.334 57.7453 99.4312C57.7856 99.8286 57.7199 100.232 57.8279 100.625C57.8533 100.723 57.8194 100.818 57.739 100.882C57.2246 101.314 56.8393 101.885 56.2932 102.282C56.2064 102.345 56.1408 102.442 56.0773 102.535C55.9693 102.694 55.8381 102.824 55.6814 102.938C55.2729 103.236 54.8326 103.47 54.3859 103.703C53.6831 104.072 53.0459 104.569 52.305 104.878C51.8563 105.064 51.4435 105.333 50.9333 105.338C50.7661 105.338 50.5946 105.411 50.4359 105.472C50.0189 105.632 49.5891 105.69 49.1446 105.688C48.7064 105.683 48.2598 105.614 47.83 105.722C46.9558 105.943 46.0646 105.938 45.1586 105.992L45.1544 105.981ZM23.4567 105.968C24.1447 106.245 24.8094 106.424 25.3957 106.819C25.9398 107.186 26.5685 107.415 27.2078 107.431C28.0143 107.45 28.789 107.655 29.5871 107.711C29.9829 107.739 30.3619 107.819 30.7217 107.996C30.8635 108.065 31.016 108.106 31.179 108.074C31.4097 108.027 31.6066 108.106 31.7928 108.245C32.0151 108.409 32.267 108.474 32.5443 108.476C32.9846 108.48 33.4207 108.528 33.8229 108.737C33.9795 108.819 34.1425 108.836 34.3203 108.839C34.7882 108.847 35.2623 108.862 35.7259 108.927C36.488 109.033 37.2437 109.132 37.9867 108.832C38.0523 108.806 38.1412 108.823 38.2175 108.832C38.8186 108.908 39.4029 108.906 39.9384 108.551C40.0591 108.471 40.2052 108.452 40.347 108.456C40.5904 108.465 40.7788 108.381 40.8762 108.141C40.9567 107.947 41.1133 107.832 41.289 107.77C41.9029 107.556 42.4956 107.253 43.1688 107.275C43.3402 107.281 43.5138 107.251 43.6768 107.186C43.9308 107.087 44.1933 107.05 44.4621 107.072C45.0443 107.117 45.6222 107.024 46.198 106.977C46.6319 106.94 47.0786 106.938 47.4956 106.774C47.7221 106.685 47.9507 106.662 48.1878 106.679C49.1615 106.757 50.1289 106.668 51.0773 106.459C51.4985 106.366 51.9282 106.275 52.3389 106.096C52.7284 105.927 53.0671 105.644 53.4905 105.56C53.6916 105.519 53.8673 105.413 54.0536 105.346C54.46 105.2 54.8834 105.105 55.2051 104.783C55.2136 104.774 55.2348 104.774 55.2496 104.772C55.7026 104.69 56.1005 104.455 56.5218 104.288C56.6276 104.245 56.706 104.178 56.7695 104.079C56.8965 103.878 57.0214 103.673 57.1738 103.489C57.4193 103.195 57.6861 102.917 57.9612 102.612C58.0459 102.815 58.0332 102.962 57.9824 103.096C57.8131 103.519 58.0861 103.973 57.8935 104.394C57.8829 104.416 57.8999 104.459 57.9147 104.485C58.0121 104.653 57.9697 104.815 57.9189 104.99C57.8745 105.141 57.8321 105.321 57.8723 105.461C57.9739 105.824 57.9443 106.182 57.9549 106.547C57.9761 107.307 58.0248 108.07 58.1158 108.823C58.1666 109.234 58.2491 109.636 58.2407 110.052C58.2386 110.158 58.2682 110.29 58.3296 110.37C58.5307 110.627 58.5476 110.929 58.5518 111.229C58.5561 111.739 58.7297 112.193 58.9096 112.657C59.062 113.05 59.28 113.443 59.2165 113.89C59.1827 114.121 59.206 114.331 59.2885 114.544C59.4684 115.015 59.4833 115.512 59.4811 116.006C59.4811 116.436 59.4579 116.866 59.6124 117.279C59.6568 117.397 59.7182 117.54 59.6886 117.65C59.5722 118.084 59.7394 118.471 59.8495 118.866C59.8876 119.008 59.9193 119.149 59.8495 119.287C59.7076 119.572 59.7161 119.877 59.7309 120.181C59.7648 120.857 59.6738 121.527 59.5595 122.185C59.496 122.552 59.4494 122.935 59.3224 123.291C59.2483 123.503 59.1573 123.706 59.1403 123.935C59.1276 124.081 59.0662 124.209 58.9816 124.328C58.6238 124.831 58.2068 125.28 57.7898 125.734C57.4807 126.068 57.1103 126.345 56.8541 126.731C56.7292 126.919 56.5408 127.047 56.3524 127.161C56.0159 127.366 55.6899 127.606 55.3279 127.742C54.8558 127.917 54.4028 128.122 53.8376 128.029C53.2322 127.93 52.5908 127.926 51.9685 128.092C51.6509 128.176 51.3313 128.342 51.018 128.338C50.5248 128.334 50.0527 128.386 49.5849 128.522C49.043 128.677 48.4841 128.74 47.9422 128.912C47.3643 129.096 46.7462 129.096 46.1366 129.033C45.9249 129.012 45.7068 128.908 45.4952 129.053C45.0908 129.331 44.6167 129.28 44.1764 129.278C43.8419 129.278 43.5265 129.213 43.2323 129.424C43.1391 129.491 43.0227 129.45 42.9147 129.452C42.449 129.463 41.9791 129.472 41.5218 129.519C40.9376 129.582 40.3639 129.779 39.767 129.83C38.9266 129.904 38.0926 129.943 37.2479 129.841C36.7801 129.785 36.3292 129.658 35.8635 129.606C35.4761 129.563 35.0972 129.485 34.7162 129.398C34.3013 129.303 33.861 129.314 33.4503 129.154C33.3847 129.128 33.2958 129.172 33.2175 129.17C33.1074 129.167 32.9973 129.165 32.8915 129.137C32.3453 129.001 31.7992 128.856 31.253 128.714C30.6815 128.563 30.1481 128.327 29.7755 127.841C29.4072 127.36 28.969 126.952 28.5583 126.515C28.3678 126.312 28.2746 126.064 28.1519 125.822C27.8089 125.148 27.8661 124.366 27.5761 123.682C27.5634 123.654 27.5697 123.617 27.574 123.587C27.6396 123.174 27.5359 122.758 27.6163 122.345C27.773 121.531 27.3178 120.79 27.339 119.993C27.339 119.952 27.2988 119.907 27.2734 119.868C27.1146 119.62 27.0321 119.352 27.0596 119.049C27.0765 118.872 27.0236 118.704 26.9664 118.533C26.9008 118.337 26.814 118.132 26.8204 117.933C26.8331 117.531 26.7907 117.173 26.4796 116.89C26.4372 116.853 26.4245 116.773 26.4161 116.713C26.3272 116.056 25.908 115.512 25.8149 114.855C25.8085 114.81 25.7831 114.762 25.7535 114.726C25.5545 114.46 25.51 114.145 25.4592 113.827C25.3915 113.387 25.3217 112.948 25.038 112.57C24.8898 112.372 24.7501 112.123 24.7205 111.882C24.6358 111.195 24.2696 110.588 24.223 109.895C24.2145 109.772 24.1722 109.638 24.1045 109.534C23.9944 109.368 23.9499 109.182 23.9161 108.996C23.825 108.513 23.8018 108.02 23.7256 107.534C23.6472 107.037 23.5647 106.539 23.4567 105.962V105.968ZM31.6531 12.7776C31.7018 13.4859 31.742 14.1554 31.8034 14.8184C31.8712 15.5592 31.8246 16.3129 31.7547 17.0623C31.7293 17.3301 31.7293 17.613 31.778 17.8743C31.9072 18.5525 31.8881 19.2414 31.9177 19.9238C31.9791 21.3708 31.9791 22.8221 32.2776 24.2474C32.3136 24.4245 32.2437 24.4829 32.1146 24.5304C31.9241 24.6016 31.7124 24.634 31.5431 24.7355C30.7746 25.2042 29.9258 25.5044 29.1426 25.9406C29.0346 26.0011 28.9118 26.0443 28.7933 26.0745C28.209 26.2127 27.5846 26.189 27.0575 26.554C26.9982 26.595 26.905 26.5863 26.8288 26.5993C26.5367 26.649 26.2425 26.7008 25.9482 26.744C25.6984 26.7807 25.4465 26.7872 25.2031 26.6965C24.894 26.5799 24.5892 26.4589 24.2823 26.3358C23.8631 26.1674 23.5054 25.8521 23.0355 25.8002C22.8725 25.7829 22.7941 25.6598 22.7687 25.5065C22.7158 25.1804 22.629 24.8651 22.7074 24.5174C22.8132 24.0315 22.7941 23.5369 22.6206 23.0532C22.5274 22.7962 22.5147 22.5133 22.5846 22.2476C22.7645 21.5587 22.6311 20.8503 22.7179 20.1571C22.4978 19.6561 22.6523 19.1226 22.6333 18.6129C22.5952 17.6497 22.7158 16.6801 22.8767 15.7233C22.8979 15.5959 22.9423 15.4685 22.8915 15.3454C22.6671 14.8163 22.9085 14.3282 22.9656 13.7451C23.3191 14.0215 23.7277 13.9503 24.0219 14.1684C24.3966 14.447 24.8263 14.4902 25.2306 14.4081C25.8551 14.2828 26.4796 14.3217 27.0998 14.3131C27.8597 14.3044 28.5816 14.1079 29.3246 14.015C29.458 13.9978 29.5956 13.9265 29.712 13.8488C30.3216 13.4471 31.0181 13.2138 31.6595 12.7754L31.6531 12.7776ZM23.1582 11.011C23.1921 10.497 23.1942 10.5143 23.7679 10.4322C24.1532 10.3761 24.5384 10.3177 24.9216 10.24C25.527 10.1169 26.1493 9.9873 26.7802 10.145C27.0384 10.2097 27.3051 10.2292 27.5676 10.2789C28.2873 10.4192 28.9923 10.4171 29.6866 10.1277C29.93 10.0262 30.1713 10.0456 30.3428 10.3177C30.4656 10.5121 30.6582 10.6179 30.8974 10.6309C31.1303 10.6438 31.3906 10.5747 31.5875 10.7173C31.8309 10.8922 31.6764 11.1945 31.7293 11.4386C31.795 11.7409 31.7378 11.8489 31.4711 11.9569C31.2975 12.0282 31.1091 12.0563 30.9292 12.1124C30.5566 12.2269 30.1735 12.324 29.8432 12.5465C29.5066 12.7754 29.1383 12.8812 28.7404 12.9028C28.3974 12.9201 28.0503 12.9201 27.7116 12.9698C27.4025 13.0151 27.1061 13.1296 26.7971 12.9698C26.7336 12.9374 26.6277 12.9266 26.5664 12.959C26.198 13.1447 25.8382 12.9827 25.4741 12.9547C25.0486 12.9223 24.6866 12.7387 24.3437 12.5249C24.0812 12.3608 23.8377 12.2096 23.5181 12.2722C23.4377 12.2895 23.3318 12.2852 23.3318 12.188C23.3276 11.8014 23.0884 11.458 23.1582 11.0131V11.011ZM31.8373 9.14504C31.5304 9.31781 31.2721 9.35238 31.0054 9.37397C30.1481 9.43876 29.2844 9.48411 28.4525 9.74759C28.2514 9.81238 28.0545 9.77351 27.8513 9.73248C27.4067 9.64178 26.958 9.49707 26.5134 9.50787C26.0012 9.52083 25.4825 9.52731 24.9681 9.61801C24.5045 9.69792 24.0283 9.69361 23.5626 9.62234C23.2937 9.5813 23.118 9.36101 23.135 9.12993C23.1561 8.83406 23.3911 8.85781 23.5901 8.82974C23.8526 8.79302 24.1489 8.81895 24.3754 8.70449C25.093 8.34383 25.853 8.52308 26.5896 8.46477C26.759 8.45181 26.9262 8.53172 27.085 8.60083C27.5888 8.81679 28.0989 9.02194 28.6324 9.14936C29.3055 9.30917 29.9872 9.33079 30.6688 9.19473C31.0329 9.1213 31.397 9.00251 31.8373 9.14936V9.14504Z" fill="#FF4D00"/>
<path d="M46.4542 93.7664C46.2468 93.5288 46.1134 93.261 45.9843 92.9652C45.6604 92.2158 45.5186 91.4167 45.2688 90.6479C45.1608 90.3131 44.9132 90.0518 44.5575 90.028C43.7447 89.9784 43.0461 89.6566 42.3856 89.2052C41.9432 88.9029 41.4373 88.715 40.9928 88.4105C40.8128 88.2852 40.6033 88.1902 40.4509 88.0347C40.0063 87.5833 39.4411 87.3393 38.9098 87.0326C38.6304 86.8706 38.3573 86.8318 38.0652 87.0153C37.9339 87.0974 37.773 87.1276 37.6291 87.1903C37.2206 87.3695 36.9665 87.6654 36.9602 88.1427C36.9602 88.255 36.9644 88.3673 36.9454 88.4774C36.8353 89.1124 37.03 89.6825 37.3412 90.2116C37.4746 90.4405 37.591 90.6522 37.5381 90.9243C37.5296 90.9697 37.5211 91.0301 37.5423 91.0647C37.7857 91.4621 37.5021 91.6737 37.2438 91.8443C36.9369 92.0473 36.8014 92.3173 36.7591 92.6693C36.7167 93.0278 36.577 93.3604 36.6173 93.7448C36.6511 94.0774 36.541 94.3905 36.1092 94.4834C35.8446 94.5417 35.6096 94.7382 35.3641 94.8786C34.6507 95.289 33.8781 95.52 33.0842 95.7122C32.4005 95.8785 31.7549 96.1787 31.1452 96.5351C30.8108 96.7294 30.544 97.0102 30.6478 97.4745C30.6795 97.6214 30.6075 97.7531 30.5461 97.8848C30.345 98.3103 30.2096 98.7098 30.4636 99.2001C30.6224 99.5046 30.671 99.9063 30.5292 100.276C30.5123 100.319 30.508 100.368 30.4932 100.414C30.3048 100.984 30.4953 101.409 30.9653 101.731C31.1473 101.856 31.3315 101.977 31.5199 102.092C31.8438 102.286 32.5148 102.23 32.7964 101.964C33.0906 101.684 33.4399 101.63 33.8209 101.563C34.3501 101.468 34.7163 101.625 34.9831 102.066C35.1122 102.28 35.3069 102.366 35.525 102.407C36.1642 102.524 36.8035 102.69 37.4301 102.332C37.6058 102.23 37.8027 102.154 37.9995 102.111C38.6452 101.973 39.0537 101.535 39.3924 101.003C39.5279 100.79 39.7311 100.723 39.9555 100.718C40.2244 100.712 40.489 100.684 40.7472 100.615C40.9547 100.558 41.1177 100.608 41.2531 100.77C41.8289 101.448 42.6333 101.809 43.3319 102.319C43.859 102.703 44.4453 102.699 45.0444 102.517C45.254 102.455 45.4805 102.424 45.671 102.323C45.9843 102.157 46.306 102.165 46.6342 102.189C47.2502 102.237 47.845 102.062 48.4504 102.012C48.643 101.997 48.7976 101.889 48.9563 101.779C49.3776 101.487 49.8031 101.198 50.273 100.984C50.3302 100.958 50.3958 100.932 50.4318 100.887C50.707 100.543 51.0816 100.47 51.4838 100.459C51.56 100.457 51.668 100.459 51.7082 100.412C51.9834 100.094 52.3602 100.066 52.7285 99.9905C52.9931 99.9365 53.1011 99.7162 53.154 99.4679C53.2789 98.8869 53.3361 98.2973 53.3086 97.7056C53.2937 97.3838 53.3721 97.0361 53.1371 96.7402C53.0842 96.6754 53.1371 96.5243 53.1413 96.412C53.1731 95.7576 53.0461 95.1356 52.7201 94.5719C52.6163 94.3905 52.6058 94.2113 52.6121 94.0191C52.6333 93.2934 52.4534 92.6585 51.8352 92.2179C51.7844 92.1834 51.7421 92.1315 51.7061 92.0797C51.45 91.6996 51.088 91.5009 50.6477 91.4405C50.6011 91.434 50.5524 91.4253 50.5122 91.4016C49.8941 91.0452 49.2844 91.2526 48.7108 91.4923C48.3467 91.6456 47.9805 91.8637 47.7899 92.2676C47.6672 92.5311 47.483 92.7384 47.2269 92.8917C46.8861 93.0969 46.7125 93.4727 46.4479 93.7707L46.4542 93.7664ZM38.8759 87.957C38.9119 87.931 38.9479 87.903 38.9839 87.877C39.2718 88.0585 39.5787 88.2204 39.8476 88.4278C40.4868 88.9223 41.1685 89.337 41.8924 89.6847C42.2332 89.8488 42.5635 90.0324 42.8725 90.2548C42.9762 90.3304 43.099 90.4038 43.08 90.5507C43.0482 90.7926 43.1456 91.0258 43.0884 91.2677C43.0101 91.5938 43.08 91.9048 43.2049 92.205C43.3509 92.5592 43.5647 92.896 43.6431 93.2632C43.7637 93.8333 44.0368 94.2825 44.4093 94.7037C44.8243 95.1745 45.6138 95.3926 46.1917 94.9693C46.3822 94.8289 46.5749 94.7663 46.8014 94.7642C47.0829 94.7598 47.3623 94.7123 47.6418 94.6691C47.9212 94.6281 48.1562 94.5417 48.317 94.2912C48.3784 94.1962 48.4525 94.1033 48.5732 94.1011C48.9415 94.0947 49.1236 93.8722 49.2633 93.5526C49.3691 93.315 49.6168 93.2416 49.8602 93.2394C50.1058 93.2373 50.1121 93.4921 50.2158 93.639C50.2857 93.7383 50.2645 93.8485 50.2476 93.9629C50.1883 94.3668 50.2307 94.7555 50.3683 95.1443C50.4699 95.4293 50.5545 95.7446 50.491 96.0405C50.3619 96.6431 50.527 97.2434 50.4169 97.8503C50.2921 98.5457 50.1545 99.1893 49.4623 99.5283C49.1807 99.6665 49.0495 99.9603 48.8314 100.157C48.3911 100.554 47.8153 100.71 47.2713 100.848C46.3547 101.081 45.4678 101.371 44.638 101.831C44.2972 102.021 43.9839 101.98 43.6917 101.727C43.0482 101.172 42.5508 100.468 41.8988 99.9192C41.7104 99.3772 41.2044 99.1871 40.8022 98.8783C40.6308 98.7444 40.4678 98.6774 40.2561 98.6494C39.8687 98.5975 39.5194 98.8156 39.1405 98.7811C38.859 98.7552 38.6642 98.8956 38.4801 99.0834C38.3044 99.2649 38.1414 99.5218 37.9276 99.5888C37.4174 99.7465 37.083 100.077 36.7654 100.483C36.5728 100.729 36.3802 100.66 36.3167 100.338C36.2426 99.9624 36.0478 99.7421 35.688 99.6536C35.5673 99.6255 35.4572 99.5542 35.3429 99.5046C34.6168 99.1914 33.8929 98.8826 33.1054 99.3145C33.0673 99.3361 33.0123 99.3404 32.9678 99.3361C32.7159 99.308 32.5169 99.4268 32.3137 99.5542C31.9856 99.7616 31.776 99.7529 31.6025 99.4311C31.4098 99.0791 31.1304 98.8502 30.834 98.6126C30.5631 98.3945 30.5864 98.09 30.887 97.9107C31.5093 97.5414 32.1782 97.265 32.8683 97.0706C33.3912 96.9238 33.9119 96.7273 34.475 96.7769C34.5343 96.7813 34.5978 96.7575 34.6571 96.7359C35.2667 96.5005 35.8742 96.2586 36.4839 96.0254C36.8924 95.8699 37.3306 95.7641 37.5614 95.3235C37.5804 95.2868 37.6312 95.2544 37.6736 95.2414C38.0292 95.1334 38.1012 94.8613 38.0885 94.5288C38.0842 94.3862 38.0948 94.2372 38.1308 94.1011C38.2134 93.7945 38.1393 93.5548 37.9424 93.3064C37.591 92.8593 37.6947 92.5311 38.2218 92.3C38.4377 92.205 38.6685 92.1423 38.8738 92.0257C39.2718 91.8033 39.5914 91.5268 39.5427 90.9826C39.5216 90.7494 39.5702 90.4988 39.6422 90.2742C39.7756 89.851 39.6867 89.4989 39.4369 89.1491C39.1807 88.7884 39.0918 88.3457 38.878 87.9634L38.8759 87.957Z" fill="#FF4D00"/>
<path d="M28.2216 83.2362C28.626 83.2491 28.9964 83.1606 29.3669 83.1088C29.6166 83.0721 29.8326 82.9619 30.0294 82.7762C30.3851 82.4414 30.8063 82.1866 31.0561 81.7352C31.1598 81.5473 31.3609 81.5257 31.5917 81.5495C32.2839 81.6164 32.9824 81.8259 33.6746 81.5063C33.863 81.4178 34.0281 81.3012 34.1996 81.1932C34.2991 81.1305 34.3584 81.0398 34.3817 80.9232C34.5108 80.2818 34.7712 79.6749 34.8897 79.0292C34.9701 78.5865 35.1607 78.4958 35.601 78.6059C35.9354 78.6901 36.1704 78.8672 36.2656 79.2106C36.3567 79.5389 36.5916 79.7872 36.7504 80.0745C37.0171 80.5561 37.2606 81.0614 37.5739 81.502C37.9083 81.9728 38.4269 82.2773 39.0345 82.3594C39.8008 82.463 40.4887 82.2557 41.1471 81.8821C41.2021 81.8518 41.2677 81.8173 41.2931 81.7655C41.471 81.394 41.7906 81.4307 42.1081 81.4631C42.8892 81.543 43.6788 81.5754 44.4472 81.4631C44.9129 81.3962 45.4041 81.0593 45.6327 80.6597C45.8846 80.217 46.0857 79.703 46.1132 79.1285C46.1492 78.3986 46.327 77.6751 46.4625 76.9516C46.5154 76.6752 46.7334 76.6039 46.9536 76.7875C47.2499 77.0358 47.5315 77.2777 47.6754 77.6859C47.8765 78.2539 48.2152 78.7722 48.1919 79.4093C48.1919 79.4395 48.2004 79.4741 48.2173 79.5022C48.6301 80.2364 48.6174 81.1024 48.9222 81.8713C49.0747 82.2557 49.1742 82.6639 49.3604 83.0353C49.5086 83.3312 49.6526 83.396 49.9277 83.3398C50.2283 83.2772 50.3321 83.1131 50.3109 82.7913C50.258 82.0073 50.0526 81.2493 49.8558 80.4999C49.6272 79.6339 49.4007 78.7743 49.3181 77.8803C49.2969 77.6535 49.2271 77.4483 49.117 77.2475C48.8439 76.7551 48.6725 76.2281 48.609 75.6623C48.5412 75.0727 47.9485 74.468 47.36 74.3406C47.0023 74.2628 46.7207 74.0123 46.3715 73.9044C45.9862 73.7834 45.6475 73.792 45.3151 74.0426C45.0103 74.2715 44.6568 74.4723 44.5044 74.8265C44.28 75.347 43.9837 75.8632 44.0196 76.4592C44.062 77.1719 43.863 77.8543 43.7826 78.5519C43.7423 78.8996 43.5455 79.23 43.4735 79.5929C43.4185 79.8693 43.0184 80.0507 42.6924 79.9881C42.3325 79.9168 41.9727 79.9622 41.6128 79.9406C41.0116 79.906 40.5967 80.2451 40.2665 80.6813C39.8029 81.2925 38.9816 81.2817 38.5963 80.61C38.1475 79.8283 37.6839 79.0551 37.2013 78.2928C37.0468 78.0487 36.7779 77.971 36.5768 77.7939C35.8253 77.1265 35.0252 77.2518 34.2187 77.6816C33.8376 77.8846 33.59 78.1804 33.3635 78.5821C33.0523 79.1328 32.8258 79.69 32.6797 80.2947C32.6353 80.4783 32.5061 80.5172 32.3537 80.4589C31.7631 80.2343 31.1958 80.407 30.6645 80.6316C30.3152 80.7785 30.0633 81.1197 29.8177 81.4264C29.4579 81.8756 29.0409 82.2428 28.4376 82.2147C28.1116 82.1996 27.7792 82.206 27.4575 82.152C27.0912 82.0894 26.7377 82.1715 26.3779 82.178C26.1768 82.1823 26.1281 82.3032 26.2509 82.4587C26.4604 82.7222 26.6933 82.9705 27.0489 83.0116C27.4532 83.0569 27.8194 83.3096 28.2195 83.2362H28.2216Z" fill="#FF4D00"/>
<path d="M49.1132 125.423C49.3016 125.386 49.4879 125.405 49.6763 125.423C50.324 125.485 50.957 125.338 51.592 125.258C52.009 125.204 52.4282 125.142 52.8409 125.043C53.1521 124.969 53.4781 125.001 53.802 124.889C54.4624 124.662 55.0763 124.338 55.6542 123.967C56.0501 123.712 56.4417 123.36 56.6068 122.883C56.7508 122.464 56.8143 122.01 56.7783 121.561C56.7508 121.207 56.7508 120.857 56.7783 120.507C56.8333 119.833 56.6957 119.175 56.6555 118.507C56.6174 117.838 56.5983 117.168 56.5433 116.501C56.4777 115.693 56.3888 114.886 56.3041 114.08C56.1856 112.957 55.9379 111.851 55.8278 110.724C55.7855 110.279 55.6458 109.836 55.4447 109.443C55.1906 108.951 54.7186 108.692 54.1915 108.605C53.7512 108.532 53.368 108.413 52.9955 108.122C52.534 107.761 51.9498 107.83 51.41 107.971C51.2216 108.02 51.0501 108.029 50.8596 108.016C50.3791 107.983 49.8879 107.884 49.454 108.223C49.3714 108.288 49.2487 108.312 49.1428 108.323C48.567 108.374 48.0103 108.564 47.4239 108.554C46.8693 108.543 46.3549 108.726 45.8469 108.929C45.4214 109.1 44.998 109.232 44.5218 109.152C44.056 109.074 43.584 109.087 43.1522 109.34C43.0802 109.383 43.0019 109.402 42.9299 109.363C42.6505 109.214 42.3774 109.327 42.1043 109.372C41.9498 109.398 41.7953 109.428 41.6407 109.446C41.2618 109.491 40.8892 109.469 40.5125 109.664C40.1589 109.845 39.7123 109.761 39.3101 109.746C38.728 109.724 38.1585 109.852 37.5785 109.839C37.3181 109.832 37.0556 109.882 36.7868 109.839C36.5878 109.806 36.3783 109.785 36.1856 109.888C36.0036 109.985 35.8131 109.919 35.6289 109.906C35.0023 109.86 34.38 109.895 33.7555 109.977C33.4147 110.022 33.0696 110.059 32.7267 109.962C32.5256 109.906 32.3182 109.908 32.1192 109.953C31.5963 110.07 31.0671 110.087 30.5337 110.117C29.9748 110.15 29.416 110.23 28.9164 110.534C28.6729 110.683 28.366 110.666 28.131 110.843C28.0569 110.899 27.9342 110.914 27.8897 110.983C27.6018 111.415 27.1869 111.752 26.9816 112.244C26.7911 112.704 26.7149 113.173 26.7212 113.685C26.7297 114.501 26.8948 115.285 26.9901 116.084C27.0768 116.812 27.3605 117.466 27.5362 118.158C27.6928 118.782 28.0591 119.35 28.3046 119.954C28.5184 120.484 28.8508 120.959 28.9693 121.531C29.018 121.762 29.1387 121.98 29.2805 122.172C29.6107 122.619 29.8393 123.14 30.2267 123.542C30.54 123.866 30.7686 124.276 31.1814 124.505C31.3275 124.587 31.4502 124.723 31.5646 124.855C31.7043 125.014 31.844 125.146 32.0684 125.174C32.2102 125.192 32.3076 125.308 32.4155 125.405C32.7585 125.714 33.131 125.978 33.601 126.04C33.6327 126.045 33.6666 126.047 33.692 126.064C34.3397 126.455 35.0806 126.425 35.7855 126.552C35.8935 126.572 36.0057 126.589 36.1137 126.58C37.2821 126.477 38.4676 126.466 39.5789 126.006C39.7271 125.945 39.8795 125.917 40.0362 125.902C40.2881 125.878 40.5209 125.794 40.7474 125.669C41.8482 125.053 43.0294 124.926 44.255 125.073C44.363 125.086 44.4836 125.14 44.5789 125.109C44.9959 124.976 45.3875 125.142 45.7876 125.189C46.8926 125.323 47.9976 125.436 49.1111 125.42L49.1132 125.423Z" fill="#FF4D00"/>
<path d="M40.851 54.9057C40.7367 54.923 40.5144 54.8517 40.3049 54.9662C40.2414 55.0008 40.144 55.0094 40.0763 54.9878C39.6783 54.8561 39.3015 54.9964 38.9205 55.0763C38.5712 55.1476 38.241 55.3247 37.8684 55.2534C37.8536 55.2513 37.8366 55.2578 37.8239 55.2642C37.263 55.5277 36.6427 55.6163 36.1156 56.005C35.7261 56.2944 35.3726 56.6594 34.8646 56.8105C34.5407 56.9077 34.2698 57.2058 33.9882 57.4325C33.4844 57.8364 32.9742 58.2273 32.3985 58.5231C32.2884 58.5793 32.1995 58.6765 32.1021 58.7564C31.8544 58.9616 31.5771 59.1192 31.2596 59.1538C30.6796 59.2185 30.1271 59.3373 29.6212 59.6678C29.4031 59.8103 29.1131 59.8146 28.857 59.8816C28.1478 60.0673 27.4218 60.199 26.7042 60.3502C26.3739 60.4193 26.031 60.3502 25.7304 60.2703C25.3811 60.1753 25.0403 60.0997 24.6805 60.0889C24.2571 60.0759 23.8485 59.9528 23.4421 59.8535C22.9616 59.7369 22.4726 59.7865 22.0027 59.7109C21.3803 59.6116 20.796 59.7541 20.197 59.8146C20.089 59.8254 19.9768 59.8362 19.8689 59.8211C19.1999 59.7282 18.6856 60.0565 18.2093 60.4625C17.9806 60.659 17.951 60.9722 17.9066 61.2529C17.8494 61.6179 17.8685 61.998 18.0188 62.3392C18.186 62.7215 18.2939 63.1189 18.3998 63.5206C18.5988 64.2721 18.9756 64.9243 19.4878 65.4966C19.617 65.6413 19.7313 65.786 19.8054 65.9653C20.0043 66.4491 20.3452 66.8119 20.7474 67.125C20.832 67.192 20.9125 67.2762 20.9717 67.3691C21.4226 68.0688 22.0979 68.5158 22.7435 68.9845C23.0695 69.222 23.476 69.343 23.8464 69.5114C23.9036 69.5373 23.9692 69.5676 24.0264 69.5589C24.4963 69.4898 24.9578 69.6216 25.4235 69.6043C25.9569 69.5827 26.4861 69.5697 27.0196 69.6453C27.5149 69.7144 28.0187 69.7101 28.5204 69.641C28.9099 69.587 29.3036 69.5978 29.691 69.6367C30.1144 69.6799 30.5314 69.6734 30.9569 69.6431C31.4544 69.6108 31.9582 69.628 32.4556 69.6583C33.1775 69.6993 33.893 69.695 34.6063 69.5589C34.8985 69.5028 35.199 69.4877 35.4912 69.4315C36.2913 69.2782 37.0788 69.0687 37.8917 68.9931C38.5458 68.9326 39.2041 68.8959 39.8561 68.8203C40.5081 68.7447 41.1558 68.6173 41.8078 68.5396C42.6355 68.4402 43.4399 68.2243 44.2422 68.0213C45.0275 67.8226 45.8468 67.7038 46.5728 67.3129C47.0555 67.0538 47.5656 66.8075 47.97 66.4469C48.3785 66.0819 48.6389 65.5852 48.586 64.9589C48.514 64.1101 48.3065 63.3024 48.0229 62.5099C47.8451 62.0153 47.6969 61.5078 47.4534 61.0391C47.3349 60.8124 47.3137 60.5489 47.3434 60.2876C47.3688 60.0673 47.3201 59.8773 47.1423 59.7304C47.0724 59.6721 47.0047 59.5943 46.9687 59.5101C46.8078 59.1278 46.6385 58.7478 46.5157 58.3547C46.4289 58.0761 46.2892 57.8666 46.0479 57.7262C45.9336 57.6614 45.8637 57.5621 45.7917 57.4541C45.5356 57.0654 45.2286 56.7393 44.8264 56.4909C44.3184 56.1756 43.84 55.8128 43.3531 55.4651C43.224 55.3722 43.097 55.2707 42.9382 55.247C42.2735 55.1498 41.6364 54.8885 40.8531 54.9144L40.851 54.9057Z" fill="#FF4D00"/>
</svg>
