<svg width="73" height="138" viewBox="0 0 73 138" fill="none" xmlns="http://www.w3.org/2000/svg">
<path d="M13.6661 22.712C13.9942 23.0424 14.355 23.2822 14.7177 23.5024C15.3625 23.8912 15.9593 24.4095 16.702 24.5542C17.4235 24.6924 18.0357 25.12 18.6939 25.4288C19.5364 25.8219 20.3174 26.3467 21.1234 26.8089C21.6243 27.0961 22.1443 27.3056 22.6586 27.5431C23.1748 27.7807 23.6719 28.0723 24.1881 28.312C25.0459 28.7094 25.8116 29.3054 26.6444 29.7481C27.4504 30.1779 28.266 30.5904 29.1123 30.923C31.1887 31.7393 33.3092 32.3073 35.5065 32.4995C36.6368 32.5989 37.7671 32.6723 38.8974 32.763C39.4366 32.8084 39.9931 32.8192 40.5324 33.0481C40.92 33.2122 41.3767 33.2057 41.8028 33.2489C42.4399 33.3116 43.0636 33.4606 43.6988 33.5362C44.2188 33.5988 44.7427 33.6938 45.2647 33.7672C45.5909 33.8126 45.9325 33.737 46.2645 33.6873C46.9899 33.5793 47.7172 33.4627 48.4407 33.331C48.6306 33.2964 48.8206 33.277 49.0106 33.2576C49.9989 33.1604 50.6456 33.7413 50.9757 34.7628C51.1772 35.387 51.2578 36.0478 51.348 36.7087C51.4612 37.5445 51.2674 38.35 51.2789 39.1685C51.2866 39.7797 51.2405 40.3801 51.1733 40.9826C51.1484 41.218 51.1177 41.4448 51.0198 41.6543C50.6782 42.3777 50.5439 43.179 50.3635 43.9586C50.0488 45.3149 49.8511 46.7057 49.4923 48.0447C49.1833 49.1958 48.9569 50.3792 48.5193 51.4828C48.4234 51.7225 48.4598 51.9795 48.408 52.2236C48.2065 53.1846 47.9763 54.1435 47.8285 55.1153C47.7191 55.8215 47.6577 56.5385 47.5118 57.2404C47.389 57.83 47.4639 58.4542 47.2528 59.0329C47.1837 59.223 47.2086 59.4584 47.2029 59.6743C47.1914 60.1084 47.1338 60.536 47.0071 60.9464C46.8786 61.361 46.963 61.8081 46.8517 62.2249C46.6656 62.916 46.5984 63.6287 46.3278 64.3111C46.0707 64.9612 45.6331 65.4644 45.3913 66.0907C45.1399 66.745 44.6794 67.2288 44.4069 67.8659C44.1478 68.4706 43.7256 68.9889 43.3725 69.5461C43.3073 69.6476 43.2171 69.7361 43.1729 69.8484C42.8947 70.5438 42.3823 71.0039 41.8949 71.4919C41.7375 71.6474 41.5974 71.8051 41.5072 72.0297C41.3863 72.3407 41.1273 72.5588 40.8759 72.656C40.4786 72.8072 40.1332 73.0685 39.7398 73.2175C38.7841 73.5782 37.7997 73.7358 36.7999 73.7812C36.5754 73.792 36.5178 73.8978 36.5235 74.1073C36.5255 74.1958 36.5274 74.2995 36.5658 74.3686C36.9668 75.0964 36.9995 75.9408 37.0513 76.7377C37.1357 78.04 37.3123 79.3314 37.4351 80.6272C37.6001 82.3722 37.7747 84.1194 38.0146 85.8557C38.1931 87.1515 38.3504 88.4516 38.5136 89.7496C38.5596 90.121 38.5999 90.4947 38.6287 90.8704C38.694 91.7127 38.811 92.5334 39.0854 93.3346C39.3311 94.0494 39.4366 94.8247 39.6496 95.5569C39.7648 95.9521 39.8454 96.3495 39.8761 96.7576C39.9029 97.1204 40.0852 97.425 40.1294 97.7899C40.2791 99.0101 40.398 100.235 40.4633 101.464C40.494 102.047 40.4403 102.64 40.3884 103.226C40.3597 103.558 40.4652 103.863 40.4556 104.189C40.4249 105.301 40.5074 106.411 40.4806 107.526C40.4633 108.281 40.9277 108.78 41.6089 108.776C41.7932 108.776 41.9428 108.852 42.1098 108.908C42.9139 109.169 43.6469 109.661 44.5297 109.672C45.2397 109.681 45.9536 109.791 46.6656 109.925C47.2605 110.037 47.888 110.098 48.5193 110.001C49.0663 109.916 49.6343 110.009 50.1927 110.044C50.3846 110.055 50.5708 110.078 50.7627 110.024C50.9507 109.972 51.1369 109.983 51.3288 110.044C51.5418 110.111 51.7682 110.154 51.9908 110.158C52.6356 110.169 53.2497 110.387 53.8772 110.508C54.5604 110.64 55.2225 110.903 55.825 111.232C56.4219 111.556 57.0551 111.925 57.4639 112.586C57.5272 112.687 57.6116 112.78 57.7038 112.847C58.1778 113.19 58.5078 113.7 58.8974 114.141C59.4098 114.717 59.7264 115.445 60.0373 116.173C60.0642 116.235 60.0872 116.311 60.0834 116.38C60.0507 117.052 60.1755 117.739 59.9298 118.389C59.9106 118.438 59.8914 118.49 59.8895 118.544C59.8377 119.918 59.0989 120.954 58.4637 122.006C58.0703 122.656 57.5291 123.231 56.8901 123.639C56.656 123.788 56.4622 124.015 56.2338 124.179C55.5583 124.656 54.8118 124.984 54.1152 125.407C53.5337 125.76 52.8832 125.742 52.3017 126.034C51.9678 126.2 51.6109 126.267 51.2367 126.293C50.7761 126.325 50.329 126.496 49.8876 126.654C49.7015 126.721 49.523 126.738 49.3253 126.727C48.8283 126.701 48.3313 126.77 47.8554 126.93C47.2202 127.142 46.585 127.282 45.921 127.161C45.7425 127.129 45.5679 127.176 45.4009 127.232C45.0613 127.347 44.6775 127.325 44.3762 127.474C43.8254 127.746 43.2459 127.688 42.6932 127.749C42.0119 127.822 41.3441 128.034 40.6533 128.006C40.6053 128.006 40.5535 127.988 40.5093 128.006C39.8665 128.252 39.1852 128.189 38.527 128.269C37.4408 128.401 36.3355 128.55 35.2378 128.308C35.1745 128.295 35.1092 128.282 35.0478 128.291C34.5354 128.371 34.0288 128.323 33.528 128.2C33.0866 128.092 32.6375 128.133 32.1962 128.144C31.5226 128.159 30.8605 128.064 30.1927 128.012C29.6362 127.969 29.0758 127.975 28.5155 127.969C28.3044 127.969 28.1029 127.96 27.9321 127.785C27.8764 127.729 27.7862 127.669 27.7191 127.677C27.2662 127.733 26.8651 127.353 26.4026 127.483C26.3335 127.502 26.2433 127.468 26.1704 127.435C25.518 127.144 24.8041 127.068 24.1689 126.753C23.6335 126.487 23.029 126.615 22.5243 126.276C22.4974 126.258 22.461 126.25 22.4322 126.252C21.5168 126.338 20.6475 125.967 19.7417 125.909C18.9204 125.857 18.0894 125.747 17.2777 125.578C16.5446 125.427 15.8077 125.213 15.1054 124.943C14.4836 124.703 13.9021 124.297 13.3283 123.904C12.53 123.36 12.271 122.527 12.1942 121.557C12.1577 121.093 12.1098 120.624 12.0273 120.168C11.9582 119.779 12.1347 119.417 12.0752 119.043C11.916 118.021 12.365 117.35 13.0808 116.851C13.5951 116.49 14.1343 116.181 14.6774 115.875C15.7022 115.296 16.8018 114.979 17.8803 114.598C18.7457 114.294 19.5786 113.873 20.4556 113.627C21.6319 113.296 22.7853 112.869 23.9693 112.558C24.8175 112.333 25.7118 112.27 26.5139 111.828C26.5427 111.813 26.5734 111.793 26.6041 111.793C27.2643 111.778 27.886 111.56 28.5212 111.391C28.7035 111.344 28.8993 111.322 29.0835 111.27C30.0622 110.992 31.0582 110.89 32.0657 110.828C32.8352 110.78 33.4953 110.461 33.7985 109.566C33.8465 109.428 33.9271 109.322 34.0058 109.21C34.2514 108.858 34.4932 108.506 34.6928 108.115C35.0037 107.506 35.4719 107.035 35.9056 106.537C36.0073 106.42 36.1014 106.305 36.1877 106.176C36.4276 105.811 36.5101 105.362 36.725 104.977C36.8613 104.733 36.7557 104.407 36.7116 104.131C36.6157 103.511 36.75 102.867 36.608 102.273C36.4353 101.554 36.5427 100.822 36.4026 100.094C36.2721 99.4183 36.0591 98.7208 36.1685 97.9822C36.2146 97.6647 36.1033 97.3083 36.0515 96.9801C35.9555 96.3775 35.9498 95.762 35.8365 95.1616C35.7694 94.8139 35.6907 94.4576 35.7828 94.0926C35.8001 94.0278 35.7962 93.9436 35.777 93.8788C35.5506 93.1489 35.4623 92.3714 35.3664 91.622C35.2224 90.5033 34.8866 89.43 34.8406 88.2875C34.8156 87.6698 34.5853 87.0716 34.5201 86.4432C34.4452 85.7348 34.3378 85.0286 34.2514 84.3224C34.1708 83.6529 34.142 82.9661 33.9674 82.3118C33.883 82.0008 33.8312 81.6876 33.8753 81.355C33.9137 81.0699 33.9213 80.7827 33.7755 80.5171C33.7371 80.4458 33.7314 80.3422 33.7314 80.2558C33.7314 79.5193 33.6277 78.7915 33.526 78.0702C33.3994 77.1696 33.1979 76.2756 33.0904 75.3793C33.006 74.6537 32.6337 74.0403 32.6241 73.3125C32.6222 73.1311 32.5147 73.0274 32.3554 72.9799C31.6934 72.7791 31.1081 72.3299 30.4115 72.2392C30.3021 72.224 30.1697 72.2003 30.0967 72.1225C29.7513 71.7511 29.2869 71.7187 28.8782 71.533C28.3504 71.2911 27.8189 71.0643 27.4063 70.5719C27.0992 70.2048 26.6751 69.991 26.276 69.7685C25.9958 69.613 25.7463 69.4165 25.5602 69.1574C25.351 68.8701 25.0728 68.7125 24.8233 68.4965C24.2073 67.9674 23.5414 67.5074 23.0463 66.8077C22.8121 66.4772 22.5377 66.1727 22.1961 65.9524C21.8776 65.7451 21.6531 65.4017 21.4132 65.0951C21.037 64.6091 20.7319 64.0498 20.3251 63.6027C19.7935 63.0175 19.4385 62.3091 19.0624 61.6116C18.928 61.3632 18.7323 61.171 18.5634 60.9615C18.0626 60.3395 17.7709 59.5448 17.2144 58.9703C17.0551 58.8062 16.9572 58.56 16.8459 58.344C16.702 58.0611 16.56 57.7825 16.3047 57.6033C16.2203 57.5449 16.1858 57.4391 16.1551 57.3354C16.1186 57.2167 16.0898 57.0893 16.0284 56.9899C15.5966 56.3075 15.374 55.5127 15.0996 54.7504C14.8616 54.0895 14.6045 53.4179 14.5009 52.7246C14.3953 52.0076 14.1324 51.3662 13.9578 50.6859C13.9271 50.5671 13.9117 50.4354 13.9213 50.3123C13.952 49.9257 13.9098 49.5586 13.7563 49.2087C13.716 49.1137 13.6661 48.9949 13.6834 48.902C13.7774 48.4183 13.5682 47.982 13.5394 47.5285C13.5011 46.9281 13.3379 46.3666 13.265 45.7835C13.2286 45.492 13.146 45.222 13.0597 44.9564C12.8678 44.3668 12.9925 43.7448 12.8812 43.1487C12.8755 43.1142 12.8851 43.0753 12.8755 43.0408C12.6068 41.9847 12.7181 40.879 12.5396 39.8099C12.5012 39.5767 12.5089 39.3521 12.532 39.1167C12.5684 38.7107 12.7584 38.296 12.5089 37.89C12.4705 37.8274 12.4878 37.7129 12.4993 37.6244C12.5703 37.0693 12.6202 36.5165 12.4955 35.9614C12.4801 35.8945 12.484 35.8146 12.5032 35.7476C12.6778 35.1278 12.5473 34.4972 12.5607 33.8709C12.578 33.087 12.5224 32.3073 12.6337 31.5147C12.7027 31.0223 12.6989 30.4803 12.6586 29.9641C12.5838 28.9642 12.6759 27.9621 12.6279 26.9644C12.5819 25.9925 12.6279 25.0272 12.7277 24.064C12.745 23.8998 12.697 23.7875 12.5857 23.6925C12.5089 23.6277 12.4341 23.5608 12.3612 23.4895C11.8373 22.9863 11.891 22.3146 12.4725 21.8957C12.7718 21.6819 13.0616 21.4637 13.4377 21.4789C13.4684 21.4789 13.503 21.4702 13.5318 21.4573C14.307 21.062 15.1725 21.034 15.9632 20.6841C16.4026 20.4897 16.8747 20.3731 17.3295 20.2025C17.6634 20.0772 18.0511 20.155 18.4003 19.9995C19.1008 19.6885 19.8415 19.7123 20.5707 19.7468C20.9296 19.7641 21.2693 19.6172 21.6204 19.6626C22.0964 19.7252 22.5665 19.7295 23.0482 19.6669C23.5567 19.6021 24.0653 19.7576 24.5738 19.8073C25.3664 19.8872 26.1551 20.0125 26.9438 20.1226C27.0532 20.1377 27.1664 20.1593 27.27 20.2004C27.886 20.453 28.5155 20.6409 29.1603 20.7748C29.2524 20.7943 29.3426 20.8374 29.4308 20.8806C30.1466 21.2478 30.897 21.4659 31.6723 21.6279C32.246 21.7488 32.839 21.7726 33.3955 22.0382C33.7717 22.2175 34.1939 22.2866 34.6007 22.3708C35.495 22.5522 36.3892 22.7595 37.2528 23.064C38.101 23.3642 38.9569 23.6623 39.7878 24.0316C40.0718 24.1568 40.3539 24.2713 40.6514 24.3426C41.0563 24.4397 41.4593 24.5499 41.8469 24.7313C42.1559 24.8738 42.484 24.9602 42.8275 24.9624C43.3034 24.9624 43.7122 25.2539 44.1555 25.3943C45.1706 25.7182 46.1148 26.2474 47.0455 26.8067C47.7632 27.2365 48.5097 27.6101 49.2639 27.9578C49.8281 28.217 50.3597 28.5495 50.8989 28.8584C51.3461 29.1154 51.7395 29.5084 52.1194 29.8885C52.626 30.396 52.7239 31.288 52.3977 31.9531C52.3823 31.9855 52.3555 32.0136 52.3497 32.046C52.2346 32.9228 51.609 32.9811 51.0217 33.0783C50.6897 33.1323 50.5919 33.0027 50.6168 32.614C50.6341 32.3419 50.6744 32.0784 50.8644 31.8732C50.9814 31.7458 51.039 31.5774 51.0812 31.3981C51.2654 30.6293 51.2693 30.3917 50.6226 29.9101C50.187 29.5883 49.7648 29.2341 49.3253 28.9102C49.095 28.7396 48.8532 28.6143 48.6057 28.4891C47.7652 28.0658 46.9093 27.6792 46.1014 27.1674C45.1515 26.5648 44.1286 26.1545 43.0655 25.8759C42.3343 25.6837 41.6051 25.485 40.872 25.2993C40.5458 25.2172 40.2157 25.1503 39.8837 25.1006C39.2927 25.012 38.7342 24.8155 38.1758 24.5844C37.744 24.4052 37.2969 24.2583 36.8459 24.1482C36.0016 23.943 35.1726 23.686 34.3416 23.4247C33.9233 23.293 33.5049 23.2174 33.0731 23.1655C32.5224 23.1008 31.9716 22.9863 31.4477 22.7725C31.2942 22.7099 31.1426 22.6731 30.9853 22.6451C30.2886 22.5133 29.6323 22.2434 28.9607 22.008C28.3543 21.7963 27.7575 21.5393 27.1414 21.3601C26.9246 21.2975 26.7097 21.2391 26.4986 21.1528C26.3335 21.0858 26.1608 21.0102 25.99 21.0059C25.0939 20.9821 24.213 20.7446 23.313 20.7727C22.8352 20.7878 22.3477 20.7014 21.8814 20.7251C20.5938 20.7921 19.2907 20.7489 18.028 21.1376C17.1395 21.4119 16.2702 21.7639 15.3836 22.0361C14.877 22.1915 14.3742 22.347 13.881 22.55C13.8062 22.5803 13.7275 22.5976 13.6603 22.7315L13.6661 22.712ZM13.5778 24.6989C13.6795 25.1438 13.6239 25.5887 13.6968 26.0271C13.7659 26.4482 13.7927 26.8888 13.7716 27.3164C13.7505 27.7202 13.8043 28.1155 13.8887 28.4891C13.9789 28.8929 14.0154 29.3011 14.048 29.7049C14.1113 30.5019 14.1785 31.2966 14.165 32.1086C14.1516 32.8084 14.3013 33.5146 14.165 34.2229C14.3589 34.7693 14.2456 35.3481 14.3013 35.9053C14.3685 36.5921 14.2879 37.2637 14.2898 37.944C14.2917 38.4062 14.1708 38.8705 14.3857 39.3154C14.4395 39.4277 14.4471 39.5724 14.3972 39.6847C14.2399 40.0324 14.3166 40.3455 14.3915 40.7105C14.5009 41.2547 14.4759 41.8335 14.4951 42.3972C14.499 42.5181 14.4433 42.6434 14.4855 42.7687C14.6985 43.4036 14.641 44.0817 14.71 44.7382C14.806 45.6388 14.7887 46.5545 14.9806 47.4443C15.0267 47.6538 14.9019 47.8654 15.0113 48.0792C15.1265 48.3017 15.1092 48.5651 15.138 48.8135C15.209 49.3966 15.1514 50.0035 15.4201 50.5477C15.4565 50.6233 15.4642 50.7205 15.4681 50.809C15.5084 51.4763 15.5909 52.1329 15.8365 52.7484C16.1551 53.5474 16.1954 54.4566 16.6003 55.2255C16.631 55.2838 16.6367 55.3637 16.6482 55.4328C16.7001 55.7373 16.7979 56.0289 16.9515 56.2772C17.6212 57.3679 18.1911 58.5427 19.0816 59.4454C19.1391 59.5037 19.1948 59.5793 19.2255 59.6592C19.5018 60.3784 20.1428 60.8038 20.4172 61.523C21.1234 62.1536 21.5034 63.1103 22.2 63.7604C22.6145 64.147 22.9465 64.6351 23.3783 65.0151C23.645 65.2505 23.9271 65.5205 24.1286 65.8229C24.4836 66.3541 25.0152 66.6263 25.4239 67.0776C25.6465 67.3238 25.9574 67.5139 26.2203 67.7471C26.606 68.0926 27.0052 68.4166 27.4389 68.6974C27.8131 68.9392 28.2238 69.1012 28.5769 69.3668C29.2812 69.9003 30.139 70.0644 30.8356 70.6086C30.9449 70.6929 31.1119 70.6993 31.2539 70.7123C31.6646 70.749 32.0254 70.9369 32.3708 71.1658C32.6126 71.3278 32.8621 71.4142 33.1441 71.3969C33.3552 71.384 33.5702 71.4077 33.7218 71.5978C34.025 71.9735 34.3531 71.9195 34.7216 71.7338C35.2551 71.466 35.5429 71.5416 35.9363 72.0621C36.111 72.2932 36.3125 72.4163 36.5658 72.3407C36.9803 72.2197 37.3967 72.2564 37.8074 72.3061C38.5865 72.399 39.2466 72.0707 39.8607 71.6107C40.6418 71.0255 41.1292 70.1011 41.8047 69.3906C41.8488 69.3431 41.8738 69.2697 41.9026 69.2049C42.1712 68.6196 42.7085 68.2244 42.8371 67.5355C42.8486 67.475 42.9158 67.4253 42.9638 67.3778C43.409 66.9545 43.5337 66.2569 43.9924 65.8401C44.0442 65.7926 44.0519 65.676 44.0672 65.5896C44.1344 65.2398 44.2802 64.9525 44.5623 64.7668C44.7542 64.6415 44.8732 64.4428 44.9077 64.2053C45.0018 63.5617 45.2167 62.9635 45.3952 62.3502C45.5026 61.9809 45.66 61.6159 45.5295 61.1991C45.4815 61.0479 45.5314 60.8751 45.5928 60.7261C45.708 60.4432 45.7559 60.1365 45.7751 59.8363C45.8058 59.3504 45.8404 58.8645 46.0093 58.4153C46.2127 57.871 46.2779 57.2836 46.4794 56.7351C46.7308 56.0591 46.9265 55.3507 47.0935 54.6424C47.3602 53.5129 47.5061 52.351 47.8419 51.2431C48.0357 50.5995 48.266 49.9624 48.4483 49.3188C48.8552 47.8848 49.1987 46.4228 49.4309 44.9348C49.4788 44.6346 49.4673 44.3279 49.5575 44.0299C49.8185 43.179 49.9663 42.2935 50.1102 41.4102C50.258 40.5032 49.9413 39.6004 50.0641 38.6912C50.0699 38.6416 50.0373 38.5854 50.0392 38.5336C50.0411 38.1729 49.8991 37.8338 49.8914 37.4797C49.8684 36.4949 49.7015 35.5274 49.6381 34.5469C49.6209 34.2726 49.5019 34.0026 49.2121 33.9746C48.8974 33.9443 48.5807 33.9141 48.2699 34.0739C47.6519 34.3914 46.9784 34.4756 46.3182 34.5965C45.7521 34.7002 45.1687 34.6484 44.6026 34.7996C44.4971 34.8276 44.3742 34.8319 44.2687 34.7996C43.739 34.6441 43.1902 34.7089 42.6529 34.5879C42.2557 34.4994 41.8315 34.575 41.4631 34.305C41.417 34.2704 41.3364 34.2834 41.2731 34.2899C40.9622 34.318 40.6667 34.2316 40.3808 34.1236C40.0852 34.0113 39.7859 33.9918 39.4846 33.9746C38.8763 33.94 38.291 33.7521 37.6941 33.6355C37.1933 33.5383 36.7174 33.3072 36.2031 33.2792C35.9632 33.2662 35.731 33.1863 35.5065 33.0891C35.2359 32.9725 34.948 32.8991 34.664 32.8969C34.0825 32.8926 33.5222 32.7306 32.958 32.6291C30.8356 32.249 28.7956 31.5471 26.8363 30.5407C25.5583 29.8842 24.2572 29.2838 22.9657 28.664C22.7315 28.5517 22.4917 28.4308 22.2441 28.3746C21.2481 28.1522 20.3424 27.6598 19.4174 27.2235C18.9722 27.0119 18.4675 26.9838 18.0702 26.6102C17.9244 26.4741 17.6673 26.4979 17.4811 26.4007C16.8421 26.0638 16.1762 25.8327 15.4796 25.7161C15.4182 25.7053 15.3472 25.6859 15.303 25.6405C14.9518 25.2842 14.4798 25.1697 14.0998 24.8717C13.9578 24.7594 13.8043 24.6622 13.5893 24.6924L13.5778 24.6989ZM38.2641 104.189C38.2641 104.405 38.2852 104.623 38.2603 104.837C38.1739 105.543 38.1489 106.282 37.5521 106.755C37.4773 106.815 37.4428 106.938 37.3698 107.003C36.9592 107.366 36.8287 107.962 36.3873 108.342C35.9689 108.7 35.7291 109.34 35.4412 109.865C35.1534 110.389 34.8079 110.845 34.4759 111.32C34.3896 111.443 34.2687 111.553 34.142 111.618C33.2305 112.1 32.2499 112.253 31.2635 112.318C30.7128 112.352 30.1716 112.555 29.6112 112.445C29.5402 112.432 29.4539 112.48 29.3829 112.517C29.1891 112.62 28.9895 112.655 28.7765 112.635C28.5692 112.618 28.3639 112.65 28.1624 112.73C27.9091 112.834 27.6519 112.985 27.3909 113C26.7135 113.039 26.0687 113.247 25.4086 113.378C24.8156 113.495 24.2303 113.655 23.6431 113.799C22.9426 113.972 22.2422 114.149 21.5417 114.32C21.2769 114.385 21.0275 114.508 20.7684 114.598C20.3232 114.754 19.8473 114.763 19.4232 114.966C18.8167 115.255 18.1758 115.408 17.5521 115.62C16.3316 116.035 15.115 116.447 13.9386 117.006C13.1403 117.387 12.7027 118.121 12.6951 119.106C12.6893 119.937 12.8352 120.743 12.9445 121.561C13.0635 122.444 13.4627 122.982 14.1363 123.362C14.6256 123.639 15.1533 123.796 15.6638 123.993C16.8977 124.464 18.1969 124.509 19.4788 124.66C20.0929 124.732 20.7242 124.591 21.3249 124.87C21.4516 124.928 21.6089 124.896 21.7528 124.906C21.8968 124.917 22.0465 124.904 22.1827 124.947C22.9503 125.2 23.7467 125.269 24.5277 125.438C25.1361 125.569 25.7578 125.623 26.3297 125.928C26.4756 126.006 26.6406 126.014 26.8018 126.01C27.0455 126.006 27.2796 126.055 27.5099 126.137C27.7095 126.209 27.9283 126.194 28.1182 126.25C28.7534 126.44 29.4251 126.325 30.0488 126.587C30.2579 126.675 30.4901 126.667 30.7128 126.602C30.9008 126.548 31.0927 126.518 31.2789 126.595C31.9889 126.889 32.7373 126.77 33.4608 126.792C33.9943 126.807 34.5374 126.818 35.0747 126.816C35.7444 126.816 36.418 126.887 37.082 126.876C37.7805 126.863 38.4848 126.831 39.1852 126.768C40.0142 126.692 40.8337 126.55 41.6588 126.457C42.3535 126.379 43.0463 126.235 43.7256 126.053C44.1344 125.943 44.5527 126.008 44.9576 125.876C45.4182 125.725 45.9421 125.887 46.3643 125.52C46.3969 125.492 46.4583 125.492 46.5044 125.498C46.8997 125.55 47.2988 125.373 47.6942 125.531C47.7767 125.563 47.8841 125.535 47.9782 125.515C48.9607 125.31 49.9394 125.094 50.945 125.062C51.1791 125.055 51.4247 125.021 51.6435 124.891C52.0062 124.675 52.4053 124.634 52.8026 124.593C52.9292 124.58 53.0597 124.589 53.1787 124.524C53.9694 124.097 54.7581 123.671 55.5468 123.239C55.6466 123.185 55.7464 123.12 55.8327 123.041C56.4852 122.434 57.0878 121.766 57.6539 121.06C57.7172 120.982 57.7824 120.892 57.8112 120.794C58.0895 119.864 58.6307 119.054 58.8149 118.08C58.9108 117.572 59.0241 117.03 58.8513 116.546C58.5808 115.782 58.1394 115.121 57.6577 114.493C57.3142 114.043 56.8939 113.681 56.5504 113.242C56.2069 112.806 55.7406 112.555 55.399 112.128C55.3299 112.041 55.2033 112.007 55.1016 111.959C54.7753 111.813 54.4491 111.668 54.121 111.525C53.8964 111.428 53.6661 111.329 53.4263 111.331C53.0214 111.335 52.6337 111.225 52.2403 111.15C51.4535 110.998 50.661 110.91 49.8588 110.888C49.1891 110.869 48.5251 111 47.8534 110.942C47.5656 110.916 47.2835 110.832 46.9976 110.843C46.0707 110.875 45.1476 110.834 44.2342 110.651C43.4992 110.502 42.7335 110.515 42.0426 110.132C41.8143 110.005 41.5591 109.757 41.3499 109.798C40.7934 109.903 40.4172 109.575 40.0085 109.281C39.9951 109.273 39.9778 109.271 39.9643 109.262C39.5306 109.031 39.2601 108.614 39.3119 108.109C39.3944 107.277 39.2831 106.459 39.2889 105.634C39.2946 104.472 39.3311 103.308 39.2965 102.148C39.2812 101.649 39.3618 101.157 39.31 100.66C39.2409 100.004 39.333 99.3276 39.1027 98.6905C39.0854 98.643 39.0989 98.5847 39.095 98.5307C39.0279 97.4919 38.9223 96.4596 38.6383 95.4618C38.5942 95.3085 38.5251 95.1595 38.5001 95.004C38.2718 93.6326 37.888 92.3001 37.792 90.8899C37.7018 89.566 37.414 88.2659 37.2835 86.942C37.2278 86.374 37.1012 85.8147 37.0417 85.251C36.9668 84.5211 36.8978 83.7933 36.7442 83.0806C36.5965 82.4003 36.4161 81.7243 36.2875 81.044C36.1704 80.4199 36.1014 79.772 36.015 79.1349C35.9229 78.4503 35.8807 77.7527 35.6158 77.0984C35.3203 76.3662 35.2263 75.5477 34.8598 74.8415C34.7983 74.7206 34.7907 74.5673 34.7542 74.4291C34.7216 74.3081 34.6947 74.185 34.6467 74.0727C34.5258 73.7768 34.3378 73.6473 34.1747 73.7574C33.9751 73.8913 34.0327 74.1202 34.1037 74.2865C34.2821 74.7033 34.3205 75.1547 34.3723 75.5974C34.4203 76.0099 34.5297 76.4094 34.5661 76.8155C34.6314 77.5778 35.0094 78.2905 34.8406 79.0874C34.831 79.1349 34.8482 79.1954 34.8655 79.2451C35.0305 79.7007 35.0344 80.1975 35.0728 80.6683C35.1553 81.6876 35.2551 82.7048 35.3817 83.7177C35.4546 84.3008 35.4451 84.9012 35.5468 85.4713C35.6715 86.1754 35.7156 86.888 35.8442 87.5921C36.0822 88.8879 36.2069 90.2074 36.4449 91.5075C36.7154 92.9804 36.8939 94.4749 37.0897 95.965C37.2182 96.939 37.2969 97.9195 37.485 98.8827C37.5502 99.2153 37.5809 99.5587 37.6692 99.8848C38.0472 101.289 38.2065 102.729 38.2679 104.187L38.2641 104.189Z" fill="#FF4D00"/>
<path d="M35.6849 67.3301C35.4489 67.3301 35.257 67.3366 35.0651 67.3279C34.8041 67.315 34.5565 67.261 34.3666 67.0299C34.2437 66.8787 34.0768 66.7967 33.9002 66.7729C33.0789 66.6584 32.413 66.1444 31.7797 65.6283C31.4151 65.3324 31.1004 64.9286 30.753 64.5852C30.4844 64.3195 30.1889 64.1079 29.8396 64.0172C29.1679 63.8444 28.5155 63.5853 27.8841 63.2916C27.2988 63.0194 26.7231 62.6976 26.2434 62.2096C25.7003 61.6589 25.138 61.1427 24.6525 60.5099C24.0576 59.7346 23.5107 58.9269 23.0021 58.0803C22.8908 57.8946 22.6797 57.8212 22.5838 57.6441C22.3324 57.1819 21.9467 56.9573 21.5552 56.6701C20.7895 56.1086 20.0238 55.5319 19.3598 54.8041C18.9031 54.301 18.6268 53.6854 18.36 53.0592C18.2871 52.8864 18.2449 52.692 18.147 52.5257C18.1048 52.4545 18.0549 52.3422 18.0779 52.2795C18.218 51.8649 17.9935 51.5517 17.8707 51.2083C17.698 50.7246 17.4849 50.2581 17.5943 49.7031C17.6231 49.5584 17.5617 49.3856 17.5252 49.2301C17.3545 48.5174 17.3333 47.7788 17.3544 47.0553C17.3717 46.4334 17.4312 45.8071 17.4331 45.1851C17.437 44.4875 17.3832 43.8008 17.1357 43.1291C16.9534 42.6389 16.8114 42.0752 16.8402 41.5569C16.8766 40.9133 16.8613 40.1704 17.4619 39.7428C17.6039 39.6413 17.6692 39.4728 17.7651 39.3303C17.9225 39.0992 18.099 38.9286 18.3754 38.853C18.7074 38.7645 18.9799 38.4772 19.3483 38.4578C19.4769 38.4513 19.5882 38.4492 19.7168 38.488C20.3904 38.6954 21.0543 38.9437 21.7624 38.9761C22.1789 38.9955 22.4936 39.259 22.6625 39.678C22.8006 40.0214 22.9945 40.2892 23.2593 40.5008C23.526 40.7125 23.7275 40.9997 23.906 41.2912C24.2668 41.8808 24.7811 42.3279 25.0785 42.9823C25.2205 43.2954 25.2493 43.6301 25.3587 43.9476C25.5429 44.4767 25.731 45.008 25.8864 45.5544C26.0572 46.1548 26.0841 46.8243 26.4525 47.3555C26.5888 47.5521 26.5984 47.8285 26.6636 48.0682C26.8325 48.6837 26.9169 49.3446 27.3334 49.8391C27.7632 50.3488 28.2507 50.7851 28.7822 51.15C28.9377 51.2559 29.1526 51.299 29.3368 51.2904C29.7724 51.271 30.185 51.407 30.611 51.4567C30.6878 51.4653 30.7627 51.5042 30.8337 51.5388C30.9066 51.5733 30.9776 51.6554 31.0467 51.6554C31.5034 51.6446 31.9774 51.731 32.4111 51.6554C33.1307 51.5301 33.8657 51.407 34.5565 51.1112C34.8118 51.0032 35.0747 50.9643 35.3434 50.9146C36.0687 50.7807 36.7577 50.4935 37.4255 50.1501C37.5924 50.0637 37.7517 50.0227 37.9302 50.0184C38.6805 50.0032 39.4251 49.919 40.1659 49.7657C40.4729 49.7009 40.803 49.7463 41.1196 49.7851C41.5955 49.8434 42.0849 49.8737 42.5339 50.0356C43.0118 50.2063 43.4934 50.4481 43.8523 50.8628C44.7465 51.8929 45.0862 53.1715 44.9653 54.5752C44.9058 55.2793 44.7389 55.9898 44.3244 56.5729C44.238 56.6938 44.2284 56.8321 44.1824 56.9638C43.9674 57.5987 43.8427 58.238 43.7986 58.9269C43.7621 59.4798 43.6105 60.0607 43.244 60.5078C43.1768 60.592 43.1614 60.7021 43.1518 60.8101C43.1269 61.0542 43.0501 61.2615 42.8525 61.3954C42.7354 61.4731 42.6817 61.6049 42.6395 61.7431C42.5934 61.8986 42.5205 62.0368 42.4265 62.1621C42.0561 62.6566 41.749 63.1987 41.4478 63.7494C41.2827 64.0539 41.0371 64.2979 40.7396 64.4534C40.517 64.5701 40.327 64.7191 40.2311 64.9934C40.1716 65.164 40.0584 65.2957 39.8972 65.3627C39.853 65.3821 39.7878 65.3972 39.7705 65.4361C39.5479 65.9522 39.0279 66.0905 38.717 66.5029C38.4061 66.9133 37.9858 67.14 37.4926 67.1379C37.3314 67.1379 37.176 67.1703 37.0187 67.2048C36.5638 67.3107 36.1071 67.41 35.683 67.3301H35.6849Z" fill="#FF4D00"/>
</svg>
