<svg width="73" height="138" viewBox="0 0 73 138" fill="none" xmlns="http://www.w3.org/2000/svg">
<path d="M13.4862 70.4168C13.5457 69.6955 13.4958 68.9634 13.4977 68.2313C13.5016 67.4343 13.6608 66.659 13.8144 65.8837C13.9257 65.3222 14.0753 64.7737 14.1483 64.2014C14.2231 63.6161 14.4169 63.0675 14.676 62.5471C14.8046 62.2857 14.9543 62.0266 14.912 61.6962C14.8986 61.5947 14.937 61.4629 14.9907 61.3787C15.2133 61.0396 15.2978 60.6272 15.4724 60.2643C15.4858 60.2363 15.4878 60.1974 15.5089 60.1779C15.9483 59.7676 16.0443 59.137 16.311 58.6187C16.5662 58.1241 16.8944 57.6814 17.284 57.3013C17.756 56.837 18.2933 56.4763 18.8019 56.0681C19.2298 55.7247 19.6367 55.3533 20.126 55.1157C20.2834 55.0401 20.4311 54.9516 20.6077 54.9408C20.6768 54.9365 20.7497 54.917 20.8149 54.8911C22.1736 54.3447 23.5707 54.1633 25.0061 54.3404C25.2556 54.3728 25.5012 54.2951 25.7622 54.3275C26.6085 54.429 27.4413 54.6514 28.2972 54.6881C28.7482 54.7076 29.1953 54.8242 29.6463 54.8976C30.8975 55.1028 32.1429 55.3317 33.4076 55.4246C34.369 55.4958 35.3323 55.5671 36.2842 55.7248C36.998 55.8435 37.7234 55.8111 38.4335 55.9882C39.0552 56.1437 39.6866 56.2647 40.3199 56.3683C41.264 56.5217 42.212 56.567 43.1581 56.6642C44.0389 56.7549 44.9236 56.7074 45.7948 56.8305C46.5279 56.932 47.2648 56.9363 47.9959 57.0162C49.0706 57.135 50.1529 57.122 51.2218 57.3229C51.6152 57.3963 52.0163 57.3466 52.4135 57.3834C53.1216 57.446 53.8298 57.5194 54.5264 57.6576C55.2402 57.8002 55.9599 57.8866 56.6795 57.9924C57.5814 58.1241 58.4699 58.2991 59.3393 58.6187C59.8862 58.8195 60.3967 59.0722 60.8438 59.4825C61.0318 59.6575 61.1834 59.854 61.3082 60.0959C61.4847 60.4371 61.6114 60.8042 61.8397 61.1239C62.0854 61.4673 62.1103 61.9532 62.237 62.3721C62.3176 62.6399 62.1852 62.9142 62.0278 63.1259C61.8129 63.4131 61.7534 63.6766 61.9204 64.0372C62.0297 64.2705 62.07 64.5469 62.1948 64.7845C62.2965 64.981 62.2811 65.2164 62.285 65.441C62.2907 65.8233 62.2926 66.2034 62.4941 66.5467C62.6131 66.7497 62.6208 66.9938 62.5747 67.2443C62.4961 67.6827 62.4174 68.1233 62.5594 68.5682C62.5824 68.6394 62.5882 68.7301 62.5728 68.8057C62.4404 69.4385 62.3982 70.0885 62.2869 70.7278C62.1775 71.3541 61.9568 71.9091 61.7457 72.4793C61.7073 72.5808 61.7073 72.6974 61.6824 72.8054C61.6536 72.9285 61.6479 73.0775 61.5807 73.1682C61.3043 73.5397 61.0971 73.9478 60.9647 74.4078C60.9225 74.5569 60.79 74.6195 60.6634 74.6476C60.4043 74.7037 60.2681 74.8722 60.2297 75.1616C60.2182 75.2501 60.174 75.384 60.1184 75.4078C59.8056 75.533 59.6751 75.8267 59.5388 76.1248C59.4851 76.2414 59.3776 76.3126 59.274 76.358C59.0514 76.453 58.8787 76.5999 58.7597 76.8353C58.7022 76.9519 58.5947 77.0059 58.4738 77.0189C58.2205 77.0448 58.0036 77.1765 57.8405 77.3774C57.4951 77.805 57.0192 77.9389 56.5663 78.0987C56.1345 78.252 55.6835 78.3319 55.2383 78.4248C55.0272 78.468 54.8257 78.5306 54.6204 78.5997C54.2558 78.7228 53.8835 78.8416 53.492 78.7595C53.3615 78.7336 53.2387 78.7746 53.1178 78.8265C52.9969 78.8783 52.8722 78.9064 52.7417 78.9042C51.4924 78.8913 50.2508 79.0748 49.0053 79.1483C48.4008 79.185 47.7944 79.3232 47.2034 79.4981C46.9808 79.5629 46.762 79.5759 46.5298 79.537C46.1921 79.4809 45.8677 79.5413 45.53 79.6644C45.1308 79.8091 44.6972 79.8631 44.2711 79.8696C44.0274 79.8739 43.7894 79.8977 43.5572 79.9841C43.5169 79.9992 43.4747 80.0251 43.4344 80.0208C42.7474 79.9754 42.1218 80.3901 41.4348 80.3641C41.2947 80.3577 41.1527 80.3836 41.0184 80.4484C40.7536 80.5779 40.4849 80.6449 40.1894 80.5974C39.9476 80.5585 39.7115 80.6665 39.4774 80.7291C38.9957 80.8544 38.4949 80.9213 38.0497 81.1827C37.9 81.2712 37.7465 81.2669 37.5929 81.2669C37.1036 81.269 36.6334 81.3641 36.1901 81.6081C36.0347 81.6945 35.8697 81.7442 35.6969 81.7485C35.5511 81.7528 35.4187 81.8025 35.2843 81.8608C34.7777 82.0811 34.2519 82.1696 33.7069 82.1998C33.0717 82.2344 32.448 82.3489 31.8512 82.6383C31.5 82.8089 31.1047 82.8132 30.7228 82.8218C30.6518 82.824 30.5636 82.7808 30.5137 82.8153C30.1299 83.0896 29.7077 82.906 29.3124 82.973C28.4776 83.1134 27.6351 83.0011 26.8042 83.135C26.524 83.1803 26.24 83.1479 25.9541 83.1177C25.0521 83.0162 24.1713 82.7894 23.2828 82.6167C23.183 82.5972 23.089 82.5648 23.0045 82.5044C22.7378 82.3165 22.4423 82.2085 22.1544 82.0724C21.8589 81.9342 21.5653 81.7744 21.2793 81.6103C21.0548 81.4828 20.8034 81.5131 20.5981 81.3576C19.9552 80.8695 19.2433 80.5067 18.6177 79.9797C18.255 79.6731 17.8865 79.3815 17.5584 79.0295C17.4893 78.9539 17.3953 78.8934 17.3031 78.8589C17.1132 78.7876 16.998 78.6386 16.8944 78.4593C16.7946 78.2866 16.6967 78.1052 16.5087 78.0274C16.4261 77.9929 16.3513 77.9259 16.3302 77.8309C16.2649 77.5242 16.05 77.3536 15.8543 77.1765C15.5357 76.8893 15.3764 76.5049 15.3074 76.0708C15.2824 75.9045 15.2421 75.7663 15.127 75.654C15.0387 75.5676 14.9792 75.4466 14.9696 75.3214C14.9504 75.0644 14.8372 74.8657 14.6971 74.6843C14.3997 74.3042 14.2826 73.8312 14.0984 73.3885C13.7472 72.5462 13.7625 71.6176 13.5092 70.758C13.4785 70.6565 13.4958 70.5356 13.49 70.4125L13.4862 70.4168Z" fill="#FF4D00"/>
<path d="M55.7524 121.976C56.33 121.935 56.8904 122.093 57.4623 121.967C57.7732 121.9 58.0994 121.961 58.4218 122.093C58.7192 122.214 59.0627 122.216 59.387 122.222C59.8054 122.229 60.2084 122.315 60.6075 122.425C61.1775 122.583 61.3675 123.304 61.0086 123.827C60.7707 124.174 60.4348 124.336 60.1124 124.537C60.0376 124.583 59.9282 124.6 59.8898 124.669C59.6634 125.09 59.2393 125.224 58.9265 125.522C58.6501 125.786 58.3565 126.025 57.9881 126.161C57.5486 126.326 57.1207 126.591 56.7465 126.881C56.4011 127.148 56.1017 127.371 55.6718 127.442C55.4012 127.487 55.171 127.777 54.8716 127.852C54.4014 127.969 53.9601 128.198 53.4745 128.271C53.1406 128.321 52.8355 128.541 52.4882 128.563C51.9029 128.6 51.3502 128.848 50.7745 128.928C49.8035 129.062 48.8324 129.228 47.848 129.228C47.5505 129.228 47.2531 129.254 46.9595 129.198C46.6889 129.146 46.4241 129.159 46.1592 129.254C45.7946 129.386 45.4262 129.239 45.0596 129.25C44.8601 129.254 44.6682 129.265 44.4743 129.332C44.2441 129.412 44.0042 129.453 43.7605 129.364C43.5954 129.304 43.4131 129.297 43.2558 129.351C42.9756 129.446 42.7165 129.392 42.4632 129.286C42.2387 129.194 42.0257 129.2 41.7935 129.241C41.2581 129.334 40.7188 129.362 40.1815 129.254C39.838 129.185 39.5021 129.278 39.1702 129.343C38.8401 129.405 38.5215 129.446 38.2068 129.297C38.0475 129.222 37.9017 129.26 37.7501 129.304C37.4411 129.392 37.1494 129.394 36.8309 129.276C36.5737 129.181 36.2763 129.2 35.998 129.289C35.7466 129.371 35.4914 129.384 35.2439 129.265C35.0539 129.172 34.8543 129.198 34.6547 129.198C34.1155 129.2 33.5762 129.278 33.0389 129.137C32.7645 129.066 32.4862 129.245 32.1964 129.131C31.8242 128.984 31.4384 128.876 31.0316 128.988C30.928 129.016 30.8071 128.971 30.6958 128.947C30.2621 128.852 29.836 128.822 29.387 128.887C28.9898 128.945 28.5695 128.852 28.1665 128.777C27.9247 128.731 27.6906 128.688 27.4507 128.749C27.1801 128.816 26.923 128.762 26.6505 128.721C26.0671 128.634 25.5068 128.353 24.8888 128.485C24.6202 128.543 24.3361 128.466 24.054 128.375C23.3459 128.146 22.6225 127.98 21.9028 127.794C21.78 127.762 21.6495 127.747 21.5229 127.751C20.9855 127.764 20.4866 127.63 20.0241 127.319C19.6748 127.084 19.2565 127.103 18.8842 126.945C18.6712 126.855 18.4486 126.792 18.2413 126.693C17.9592 126.557 17.7002 126.492 17.3797 126.6C17.0554 126.71 16.7196 126.528 16.4643 126.313C16.1726 126.066 15.8502 126.015 15.5202 125.945C15.4089 125.922 15.2956 125.904 15.1882 125.868C14.9329 125.781 14.6931 125.669 14.4052 125.701C14.2037 125.725 13.9945 125.608 13.8007 125.496C13.4611 125.297 13.1195 125.11 12.728 125.047C12.4075 124.995 12.1523 124.766 11.9316 124.516C11.6169 124.155 11.709 123.725 12.1216 123.52C12.751 123.205 13.4438 123.155 14.0943 122.931C14.9061 122.652 15.7485 122.479 16.5104 122.028C16.685 121.924 16.8731 121.844 17.0784 121.838C17.1609 121.836 17.253 121.812 17.324 121.764C17.8806 121.389 18.5369 121.233 19.0512 120.76C19.1356 120.682 19.2584 120.661 19.362 120.609C19.4906 120.544 19.6595 120.507 19.7382 120.395C20.0394 119.965 20.4847 119.834 20.8934 119.615C21.212 119.447 21.4576 119.138 21.803 119.011C22.2406 118.851 22.5399 118.417 22.9698 118.233C23.0523 118.199 23.106 118.078 23.1694 117.991C23.2979 117.814 23.4496 117.655 23.6376 117.588C23.9523 117.475 24.173 117.233 24.3975 116.991C24.6048 116.769 24.8313 116.598 25.1018 116.469C25.3839 116.335 25.6583 116.151 25.8886 115.925C26.1285 115.687 26.4221 115.56 26.6658 115.354C27.1667 114.933 27.7386 114.735 28.322 114.549C28.416 114.519 28.5138 114.48 28.5944 114.417C29.1087 114.011 29.6825 113.81 30.3024 113.761C30.4617 113.748 30.5442 113.664 30.5 113.478C30.4079 113.091 30.3427 112.7 30.2755 112.307C30.1508 111.579 29.9109 110.884 29.861 110.128C29.8169 109.448 29.6 108.785 29.5463 108.105C29.4887 107.383 29.2776 106.707 29.1798 106.003C29.0819 105.291 28.9188 104.595 28.8228 103.885C28.7403 103.271 28.533 102.688 28.4678 102.068C28.4371 101.768 28.3392 101.477 28.3949 101.168C28.4025 101.122 28.4121 101.066 28.3968 101.025C28.0609 100.081 28.3124 99.0578 28.0821 98.1054C27.9516 97.5677 27.9324 97.0126 27.7693 96.4749C27.5639 95.8011 27.3912 95.097 27.4066 94.3649C27.4123 94.069 27.3221 93.7991 27.2473 93.5248C27.2223 93.4341 27.1571 93.3434 27.1629 93.2549C27.1974 92.594 27.0573 91.9655 26.9134 91.3328C26.875 91.1665 26.8865 90.9915 26.7944 90.8339C26.733 90.7302 26.6889 90.6028 26.6697 90.4797C26.5584 89.7929 26.3185 89.1407 26.2206 88.4496C26.1803 88.1624 26.0748 88.089 25.833 88.2013C25.359 88.4237 24.8888 88.3762 24.4167 88.225C24.3054 88.1905 24.1884 88.143 24.0828 88.1797C23.5589 88.3633 23.0427 88.2337 22.5303 88.1365C22.1696 88.0674 21.8107 87.9637 21.4615 87.8384C21.093 87.7067 20.7188 87.6268 20.3369 87.5771C20.0663 87.5404 19.8015 87.4821 19.5693 87.3093C19.4848 87.2467 19.3947 87.21 19.293 87.1884C19.2104 87.1711 19.0819 87.1625 19.055 87.1042C18.8266 86.5816 18.3258 86.7241 17.965 86.5297C17.7827 86.4325 17.6177 86.3483 17.4757 86.1734C17.2626 85.912 16.9671 85.7695 16.6697 85.6659C16.5027 85.6075 16.353 85.5363 16.2225 85.4024C16.1611 85.3376 16.0882 85.2598 16.0134 85.2447C15.6238 85.1713 15.3916 84.735 14.9924 84.694C14.7583 84.3312 14.2882 84.2794 14.1174 83.828C14.0598 83.6725 13.9082 83.6034 13.77 83.5732C13.5167 83.517 13.3651 83.3637 13.2001 83.1326C12.9851 82.8302 12.6704 82.6164 12.3941 82.3724C12.183 82.1845 11.9469 82.0247 11.8548 81.7115C11.8049 81.5452 11.6898 81.4567 11.544 81.4157C11.3348 81.3574 11.1928 81.2105 11.0988 81.001C11.0393 80.865 10.9452 80.7764 10.8301 80.7051C10.7572 80.6598 10.6842 80.5928 10.6439 80.5151C10.3983 80.0508 10.0529 79.6534 9.90703 79.12C9.85905 78.9472 9.78038 78.796 9.62878 78.714C9.44647 78.6146 9.36395 78.4397 9.31021 78.2302C9.21234 77.8458 9.06074 77.4851 9.0262 77.0769C9.00317 76.807 8.87651 76.5586 8.70956 76.3556C8.57715 76.1958 8.48312 76.0165 8.47352 75.8049C8.4409 75.1613 8.28354 74.548 8.14154 73.9282C8.03599 73.4595 8.0264 72.9779 8.00145 72.4985C7.99569 72.3905 8.00528 72.2437 8.06285 72.1767C8.26435 71.9435 8.18184 71.721 8.09932 71.477C7.98802 71.1358 8.03598 70.7967 8.2298 70.5203C8.42171 70.2438 8.47927 69.9501 8.43705 69.6218C8.38907 69.2461 8.44089 68.8984 8.58674 68.5507C8.71915 68.2332 8.81702 67.9006 8.8957 67.5572C8.98205 67.1728 9.19124 66.8424 9.31598 66.4666C9.49253 65.9332 9.69211 65.4019 9.84947 64.8641C10.0011 64.3437 10.2851 63.8988 10.4079 63.3718C10.4827 63.0587 10.7073 62.8298 10.8205 62.536C11.0412 61.9529 11.3156 61.3958 11.5401 60.8126C11.8491 60.0049 12.3 59.275 12.6589 58.4954C12.9391 57.8863 13.3344 57.3464 13.5129 56.6791C13.5205 56.6488 13.534 56.6143 13.5532 56.5949C13.9638 56.204 14.0252 55.5928 14.2958 55.1177C14.4628 54.824 14.6835 54.5691 14.8792 54.297C15.0231 54.0962 15.1421 53.8845 15.2246 53.6405C15.3724 53.2042 15.5816 52.7982 15.8656 52.4591C16.1534 52.1158 16.3396 51.7054 16.5468 51.3059C16.804 50.8113 17.0592 50.3125 17.4488 49.9259C17.5889 49.7877 17.6983 49.6192 17.7865 49.4335C18.0571 48.8698 18.4371 48.386 18.7173 47.8375C18.9437 47.3969 19.1548 46.9628 19.4887 46.6065C19.6806 46.4013 19.7861 46.1011 19.8821 45.8161C20.0375 45.3604 20.2256 44.9436 20.6535 44.7276C20.7495 44.6801 20.8224 44.557 20.8877 44.4533C21.1429 44.0516 21.3617 43.6175 21.6169 43.2223C21.8971 42.7882 22.0487 42.2613 22.4382 41.8985C22.7952 41.5659 23.0945 41.1167 23.3114 40.674C23.6645 39.9591 24.0982 39.3134 24.4685 38.618C24.4897 38.5769 24.5223 38.5316 24.5223 38.4884C24.5223 37.9247 24.8792 37.6159 25.1863 37.2617C25.6238 36.7585 26.0268 36.2208 26.259 35.5534C26.3761 35.2187 26.6409 35.0459 26.8712 34.8386C27.0074 34.7176 27.0592 34.5838 26.9172 34.4412C26.6869 34.2101 26.7272 33.9207 26.6946 33.6162C26.6255 33.0007 26.8289 32.4846 27.0151 31.9511C27.1782 31.4825 27.4795 31.1607 27.8537 30.8994C28.0533 30.759 28.2682 30.8281 28.4716 30.759C28.8785 30.6208 29.2738 30.4567 29.6595 30.2623C29.861 30.1608 30.0625 30.1111 30.2813 30.1738C30.3369 30.1889 30.3945 30.2062 30.4501 30.1997C31.4711 30.0723 32.4958 30.2213 33.5187 30.1543C33.6453 30.1457 33.772 30.1154 33.8986 30.0917C34.1519 30.0463 34.4033 29.988 34.6509 30.1306C34.6989 30.1586 34.7622 30.1673 34.8178 30.163C35.5701 30.0939 36.3185 30.3206 37.0727 30.1781C37.1993 30.1543 37.3241 30.1478 37.443 30.0852C37.6445 29.9794 37.8652 29.9729 38.0667 30.0615C38.3431 30.1846 38.606 30.204 38.8977 30.1327C39.1625 30.0679 39.4369 30.1392 39.7017 30.1932C40.0951 30.2753 40.4866 30.3293 40.8858 30.299C40.928 30.2969 40.9836 30.2731 41.0124 30.2947C41.3617 30.5603 41.7724 30.4696 42.1504 30.5625C42.2483 30.5862 42.3461 30.6338 42.4421 30.6078C42.895 30.4891 43.3479 30.6532 43.7988 30.6035C43.8411 30.5992 43.8929 30.5863 43.9255 30.6078C44.3554 30.8692 44.814 30.6575 45.2515 30.7158C45.9098 30.8044 46.5776 30.6813 47.2262 30.8778C47.2665 30.8908 47.3126 30.9124 47.3509 30.9037C47.9881 30.7828 48.5331 31.1283 49.1049 31.3335C49.1721 31.3572 49.2431 31.3875 49.3103 31.3832C49.9205 31.3529 50.4732 31.6445 51.0547 31.7719C51.805 31.936 52.4939 32.3507 53.273 32.409C53.5762 32.4327 53.8737 32.4997 54.1884 32.4997C54.5242 32.4997 54.8332 32.7459 55.075 33.0094C55.2285 33.1757 55.3724 33.2966 55.5816 33.3139C56.0479 33.3528 56.3799 33.7069 56.7561 33.9596C56.8117 33.9963 56.8559 34.0784 56.8789 34.1497C57.0036 34.5492 57.2704 34.8407 57.4834 35.1733C57.5333 35.2489 57.5966 35.3288 57.6119 35.4174C57.6983 35.8839 57.9746 36.1992 58.2625 36.5123C58.4467 36.7132 58.5734 36.9334 58.5926 37.2552C58.6118 37.6073 58.771 37.929 59.0244 38.1644C59.2604 38.3826 59.3755 38.6568 59.3544 39.0024C59.3467 39.132 59.3391 39.2615 59.4216 39.3674C59.6308 39.6373 59.6864 40.0325 59.8725 40.2787C60.3024 40.8446 60.3945 41.5745 60.7284 42.1857C60.9453 42.5831 61.0758 43.0884 61.189 43.5657C61.2466 43.8011 61.3349 44.0063 61.4404 44.2179C61.7263 44.7859 61.9969 45.3647 61.97 46.0579C61.9585 46.3927 62.0506 46.7123 62.1792 47.0255C62.3442 47.425 62.398 47.8807 62.6532 48.2413C62.7069 48.3169 62.6782 48.4271 62.6762 48.5221C62.6724 48.8245 62.7127 49.0944 62.8566 49.3816C63.0006 49.6732 63.0063 50.0555 63.0524 50.4032C63.0946 50.7228 63.1502 51.0295 63.3114 51.308C63.4189 51.4959 63.4803 51.7119 63.4842 51.9451C63.4861 52.1719 63.5206 52.3879 63.6761 52.5606C63.749 52.6427 63.7778 52.7658 63.7682 52.8738C63.7355 53.2021 63.8334 53.5023 63.8871 53.8132C63.9313 54.0789 63.9332 54.3488 64.1193 54.5648C64.1961 54.6533 64.2019 54.8024 64.1903 54.9319C64.1443 55.5021 64.2729 56.0355 64.4321 56.5689C64.5051 56.8108 64.553 57.0657 64.5722 57.3205C64.5972 57.6596 64.6317 57.9878 64.7833 58.2902C64.8044 58.3312 64.8255 58.3852 64.8179 58.4262C64.7066 59.0245 64.9944 59.586 64.9407 60.182C64.8965 60.6636 65.1192 61.1236 65.0654 61.6096C65.0002 62.2164 65.2304 62.8017 65.169 63.4085C65.1594 63.5014 65.1902 63.6029 65.171 63.6936C65.0251 64.4063 65.1422 65.1276 65.0961 65.8403C65.0597 66.3932 65.0232 66.9244 65.0923 67.4838C65.1307 67.7969 65.1019 68.1468 65.1115 68.4794C65.1211 68.8638 65.1096 69.2417 64.9983 69.6175C64.8774 70.03 64.9407 70.4727 64.9023 70.9025C64.8332 71.7037 64.6912 72.4834 64.5185 73.2587C64.459 73.5265 64.4302 73.79 64.4379 74.0642C64.4494 74.4832 64.3746 74.8806 64.1884 75.2585C63.9716 75.6926 63.914 76.198 63.7471 76.658C63.6549 76.9085 63.5839 77.1568 63.3767 77.3426C63.204 77.4981 63.1042 77.7464 62.9698 77.9451C62.5784 78.5217 62.2713 79.1956 61.6726 79.5627C61.5824 79.6167 61.5056 79.6836 61.4577 79.7873C61.4174 79.8737 61.3713 79.9536 61.2945 80.0033C60.5692 80.487 59.9052 81.1025 59.032 81.2667C58.6789 81.3336 58.3892 81.5971 58.0648 81.7569C57.7405 81.9145 57.4028 82.0441 57.0957 82.2558C56.9537 82.3529 56.7791 82.3983 56.6064 82.4091C56.3166 82.4264 56.0422 82.5149 55.7927 82.6726C55.242 83.016 54.6336 83.0894 54.0272 83.1628C53.8276 83.1866 53.63 83.1931 53.4554 83.3205C53.2212 83.4954 52.9449 83.5645 52.6801 83.5451C52.1005 83.5019 51.5555 83.7222 50.9894 83.7697C50.3926 83.8215 49.8207 84.0224 49.2469 84.2038C49.0819 84.2556 48.938 84.2599 48.7998 84.1627C48.5407 83.9792 48.2797 84.0353 48.0188 84.1368C47.871 84.1951 47.7213 84.2297 47.5678 84.2642C46.8981 84.4241 46.2245 84.3744 45.549 84.3679C45.3245 84.3657 45.0999 84.4435 44.8773 84.4932C44.2594 84.6314 43.6338 84.5536 43.012 84.5968C42.7146 84.6184 42.4191 84.6249 42.1274 84.5212C42.0218 84.4845 41.899 84.4716 41.7896 84.4953C40.8915 84.6854 39.9781 84.6119 39.0742 84.6811C38.8458 84.6983 38.6271 84.7307 38.4045 84.8063C37.9708 84.9532 37.5102 84.9596 37.0688 85.1C36.7695 85.195 36.449 85.2058 36.2014 85.4607C36.1535 85.5082 36.0729 85.5298 36.0038 85.5384C35.1997 85.6248 34.482 86.0459 33.7182 86.2813C33.298 86.4109 32.9199 86.6722 32.4805 86.7457C32.2674 86.7824 32.2252 86.9033 32.3557 87.1171C32.5092 87.3698 32.5611 87.6311 32.5419 87.9335C32.515 88.3546 32.7069 88.7325 32.753 89.145C32.8201 89.7454 32.9583 90.3328 33.0024 90.9397C33.06 91.7193 33.1598 92.4925 33.2404 93.27C33.2596 93.46 33.2615 93.6544 33.2807 93.8444C33.3191 94.2073 33.3651 94.555 33.5071 94.9027C33.6914 95.3497 33.6837 95.868 33.7201 96.3626C33.7528 96.8226 33.7432 97.2912 33.8679 97.7383C33.8794 97.7836 33.8775 97.8419 33.9005 97.8765C34.2997 98.4488 34.2018 99.1463 34.2824 99.7986C34.3189 100.079 34.4244 100.321 34.5856 100.526C34.7295 100.708 34.814 100.919 34.7775 101.14C34.695 101.628 34.8927 102.051 35.0001 102.487C35.1134 102.947 35.1632 103.392 35.0884 103.857C35.0596 104.036 35.0769 104.202 35.1153 104.377C35.2362 104.921 35.3436 105.468 35.2362 106.038C35.2055 106.195 35.2151 106.366 35.3091 106.498C35.4396 106.681 35.4434 106.915 35.5202 107.107C35.7409 107.66 35.6776 108.236 35.7236 108.804C35.739 108.994 35.7102 109.197 35.8445 109.349C36.0786 109.612 36.0997 109.945 36.0863 110.286C36.0633 110.867 36.1362 111.43 36.3127 111.979C36.3415 112.07 36.3857 112.163 36.3837 112.255C36.3722 112.938 36.8462 113.232 37.2243 113.599C37.3433 113.715 37.4968 113.756 37.656 113.782C37.9938 113.838 38.3277 113.914 38.6616 113.987C38.7153 114 38.7844 114.016 38.8171 114.059C39.1049 114.428 39.5175 114.385 39.886 114.443C40.5288 114.545 41.1468 114.687 41.6706 115.149C41.7359 115.208 41.8203 115.253 41.9009 115.27C42.6743 115.417 43.2999 115.948 44.0003 116.283C44.1308 116.346 44.2575 116.417 44.3937 116.462C44.4475 116.48 44.5262 116.478 44.5549 116.516C44.837 116.922 45.2938 117.013 45.6449 117.287C45.9884 117.555 46.3435 117.782 46.7791 117.773C46.8693 117.773 46.9614 117.773 47.017 117.847C47.2761 118.199 47.635 118.337 48.0034 118.451C48.4621 118.594 48.8133 118.965 49.2374 119.184C49.4043 119.27 49.5617 119.376 49.7478 119.421C50.0779 119.499 50.3062 119.793 50.5557 120.004C51.2869 120.622 52.0909 121.006 52.9794 121.194C53.1061 121.22 53.2289 121.244 53.346 121.309C54.1097 121.717 54.91 121.961 55.7467 121.985L55.7524 121.976ZM10.5499 72.4531C10.5211 73.019 10.5595 73.3969 10.7245 73.7489C10.7495 73.8051 10.7783 73.8699 10.7763 73.9303C10.7648 74.4206 10.9894 74.8525 11.0719 75.3211C11.1295 75.6516 11.2887 75.9647 11.3348 76.3167C11.3521 76.4506 11.4307 76.5889 11.5113 76.6968C11.7781 77.051 11.8299 77.5542 12.158 77.8674C12.1964 77.9041 12.2214 77.9797 12.2271 78.0401C12.2732 78.5131 12.5706 78.7528 12.895 78.971C13.1559 79.1459 13.3766 79.3489 13.4802 79.6966C13.5436 79.9082 13.7067 80.0573 13.8794 80.1825C14.1059 80.3488 14.3016 80.5518 14.4762 80.7915C14.7679 81.1889 15.1344 81.5215 15.5259 81.7612C15.8733 81.975 16.2168 82.1845 16.5315 82.4566C16.5871 82.5041 16.6524 82.5452 16.7195 82.5711C17.2761 82.7849 17.7443 83.165 18.201 83.5645C18.3142 83.6639 18.4351 83.7394 18.5618 83.815C18.9015 84.0224 19.2718 84.1303 19.6288 84.2794C20.1834 84.5083 20.6075 85.046 21.2177 85.1583C21.2446 85.1626 21.2715 85.1842 21.2907 85.2058C21.5977 85.5384 21.9968 85.6659 22.3749 85.8429C22.9257 86.1021 23.509 86.2381 24.0867 86.3785C24.5146 86.4822 24.9464 86.6139 25.3935 86.5232C25.4319 86.5146 25.4799 86.534 25.5163 86.5556C25.808 86.7284 26.1266 86.7111 26.4355 86.6874C26.9594 86.6442 27.4833 86.6204 28.0072 86.6701C28.1761 86.6874 28.3488 86.6895 28.5177 86.6701C29.0358 86.6031 29.5444 86.4563 30.0721 86.439C30.2813 86.4325 30.4866 86.3656 30.69 86.2727C31.3425 85.9725 32.0448 85.8105 32.6474 85.3721C32.6589 85.3635 32.6743 85.357 32.6877 85.3592C33.0274 85.3786 33.3095 85.1259 33.6146 85.0784C34.3822 84.9575 35.027 84.4025 35.8023 84.3485C35.8292 84.3485 35.8579 84.329 35.881 84.3139C36.4144 83.9684 37.0151 83.9079 37.6043 83.8064C37.7885 83.774 37.9804 83.761 38.1416 83.6639C38.652 83.3529 39.1932 83.2125 39.7708 83.2276C39.9282 83.2319 40.0798 83.1887 40.2352 83.1628C40.5135 83.1153 40.7879 82.9944 41.0758 83.0484C41.4365 83.1153 41.8126 83.0872 42.1197 82.9166C42.5188 82.6942 42.9295 82.6769 43.3421 82.5819C43.6856 82.502 44.0157 82.6553 44.3515 82.5538C44.5415 82.4955 44.7449 82.4696 44.9426 82.4653C45.1767 82.4609 45.3744 82.3745 45.5855 82.2601C46.0038 82.0333 46.4509 81.867 46.9249 82.0528C47.3759 82.2298 47.8249 82.1456 48.1915 81.8843C48.5849 81.6036 48.9687 81.5366 49.4043 81.5863C49.5597 81.6036 49.7171 81.582 49.8725 81.5928C50.4885 81.6273 51.0835 81.4459 51.686 81.3509C52.0065 81.299 52.3673 81.3854 52.6455 81.1911C53.06 80.9017 53.4899 81.001 53.9197 81.0291C54.0713 81.0377 54.198 81.0269 54.3266 80.9427C54.5952 80.7678 54.8908 80.7159 55.1901 80.7764C55.4012 80.8174 55.5816 80.7699 55.7697 80.6879C55.927 80.6188 56.0921 80.5648 56.2552 80.5108C56.6985 80.3661 57.1667 80.4093 57.6139 80.2106C58.061 80.0119 58.4966 79.7765 58.9534 79.6037C59.2239 79.5001 59.483 79.3273 59.7613 79.2085C59.9627 79.1243 60.2084 79.0379 60.335 78.8154C60.5269 78.4785 60.8205 78.282 61.093 78.0531C61.1717 77.9862 61.2523 77.9278 61.3137 77.8328C61.7647 77.1374 62.0871 76.3513 62.5208 75.6451C62.5688 75.5673 62.6014 75.4723 62.6168 75.3795C62.6801 74.9713 62.7281 74.561 62.7914 74.1528C62.9372 73.2047 62.7261 72.1918 63.1982 71.3042C63.2232 70.6693 63.2826 70.0322 63.2596 69.3972C63.25 69.1165 63.2059 68.8336 63.1982 68.5463C63.1848 67.9676 63.3134 67.4017 63.2942 66.8251C63.2692 66.0476 63.5551 65.2831 63.3748 64.4992C63.3652 64.456 63.3748 64.3998 63.3901 64.3566C63.4573 64.1687 63.4189 63.9808 63.3997 63.7886C63.3441 63.2811 63.2654 62.7758 63.3786 62.2639C63.4131 62.1063 63.3959 61.94 63.3402 61.791C63.2404 61.5253 63.2596 61.2619 63.2903 60.9876C63.3306 60.6248 63.3421 60.2706 63.3038 59.897C63.2615 59.4909 63.0946 59.1324 63.062 58.7394C63.0236 58.288 62.7223 57.9252 62.7396 57.4609C62.7396 57.4328 62.7204 57.3939 62.6993 57.3788C62.3884 57.1758 62.3903 56.8022 62.2809 56.4782C62.0391 55.7612 61.7993 55.0464 61.6323 54.3013C61.5805 54.0681 61.5229 53.837 61.5133 53.5951C61.5056 53.3792 61.45 53.1977 61.3118 53.0336C60.999 52.6643 60.8129 52.2216 60.7534 51.7097C60.738 51.5845 60.7169 51.4549 60.6747 51.3361C60.312 50.3448 60.218 49.2693 59.9071 48.2586C59.7037 47.5999 59.6845 46.8721 59.3199 46.2718C59.2738 46.1962 59.2508 46.0903 59.245 45.9975C59.2201 45.5526 59.0685 45.1639 58.8689 44.7881C58.8037 44.6671 58.7691 44.5224 58.7327 44.3842C58.6713 44.151 58.5887 43.9285 58.4563 43.7385C58.2913 43.5031 58.2126 43.2353 58.1646 42.9481C58.0667 42.3736 57.9075 41.8337 57.4987 41.4342C57.422 41.3586 57.3682 41.2527 57.3606 41.1426C57.3299 40.7474 57.1859 40.4083 56.9844 40.0887C56.9192 39.9872 56.8674 39.8555 56.8578 39.7345C56.8194 39.1881 56.6313 38.6914 56.4586 38.1904C56.3147 37.7736 56.2168 37.3395 56.048 36.9313C55.8772 36.521 55.6104 36.1344 55.6833 35.6312C55.6968 35.5362 55.6354 35.4411 55.5644 35.3871C55.3686 35.2381 55.2381 35.0351 55.1383 34.7997C55.0539 34.5989 54.9138 34.5233 54.7181 34.5773C54.6221 34.6032 54.5127 34.5945 54.4244 34.6377C53.8775 34.9034 53.2673 34.979 52.7549 35.3504C52.6743 35.4087 52.5707 35.4411 52.4747 35.4584C52.089 35.5318 51.7532 35.7392 51.4231 35.9573C51.3502 36.0048 51.283 36.0804 51.2043 36.0977C50.7092 36.2013 50.2717 36.4864 49.7977 36.6505C49.4331 36.778 49.0608 36.9032 48.6847 36.9529C48.4889 36.9788 48.2951 36.9939 48.1032 37.0544C47.6119 37.2099 47.1091 37.3524 46.6025 37.3675C46.0153 37.3848 45.4243 37.4474 44.837 37.3092C44.5895 37.2509 44.3246 37.2855 44.0848 37.4172C43.8756 37.5317 43.6588 37.5252 43.4688 37.3999C43.0715 37.1343 42.6494 37.1969 42.2272 37.238C42.0007 37.2596 41.7724 37.2833 41.5478 37.3135C40.9952 37.387 40.4348 37.4302 39.8975 37.2855C39.5118 37.1818 39.1471 37.1559 38.7633 37.2056C38.4563 37.2466 38.1473 37.3287 37.8422 37.1689C37.7866 37.1408 37.7021 37.1926 37.633 37.1861C37.1398 37.1408 36.639 37.2963 36.1496 37.1084C35.9213 37.0198 35.6852 36.9939 35.4396 36.9831C34.9426 36.9594 34.4494 36.8859 33.9543 36.819C33.7566 36.7931 33.5609 36.6743 33.3709 36.6894C32.8528 36.7326 32.3519 36.616 31.8529 36.5166C31.5037 36.4475 31.1659 36.3223 30.809 36.454C30.7591 36.4734 30.6958 36.454 30.6401 36.454C30.0932 36.4389 29.6058 36.1581 29.0934 35.9962C28.888 35.9314 28.6846 35.8839 28.4774 35.832C28.3008 35.7888 28.1991 35.8731 28.1588 36.0523C28.107 36.2877 28.0667 36.5641 27.9209 36.7132C27.5697 37.0717 27.4354 37.5641 27.1993 37.9938C27.1705 38.0478 27.1379 38.1018 27.0976 38.1472C26.7272 38.5489 26.4471 39.0153 26.2053 39.5293C25.9692 40.0325 25.785 40.5768 25.4396 41.013C25.3782 41.0908 25.3436 41.2139 25.3321 41.3218C25.2899 41.7063 25.098 41.9654 24.8063 42.1447C24.6355 42.2505 24.4916 42.3952 24.4743 42.6155C24.4225 43.2331 23.8948 43.5506 23.7528 44.1078C23.3459 44.3324 23.1022 44.7492 22.8124 45.1099C22.776 45.1552 22.7203 45.1833 22.6743 45.22C22.3442 45.477 22.2406 45.9608 21.8913 46.2026C21.8453 46.235 21.8414 46.3473 21.828 46.4251C21.7838 46.6713 21.6898 46.8786 21.4826 46.9995C21.3885 47.0557 21.3444 47.1529 21.2945 47.2522C21.2139 47.4207 21.1026 47.574 21.0393 47.749C20.928 48.0621 20.594 48.0189 20.4405 48.2565C20.2908 48.4875 20.31 48.8288 20.0644 48.9929C19.9013 49.1009 19.7746 49.2521 19.6557 49.4097C19.3448 49.8265 19.032 50.239 18.6635 50.5954C18.5791 50.6774 18.4851 50.7833 18.4601 50.8977C18.4064 51.1526 18.2605 51.3124 18.1051 51.4808C18.0053 51.591 17.9151 51.7227 17.846 51.8609C17.4545 52.6405 16.9019 53.2841 16.4355 54.0011C16.2724 54.2516 16.1419 54.5518 15.927 54.7527C15.7063 54.96 15.5854 55.2192 15.4971 55.5086C15.4549 55.6468 15.3839 55.7612 15.3168 55.8822C15.144 56.1996 14.8331 56.3962 14.7046 56.7396C14.553 57.1521 14.3611 57.5343 14.1749 57.923C13.8295 58.6444 13.344 59.2512 12.9947 59.9617C12.8661 60.2252 12.6608 60.4779 12.6301 60.7543C12.561 61.3806 12.2693 61.8946 12.041 62.4324C11.6975 63.2401 11.2945 64.0132 11.2791 64.944C11.2791 65.052 11.2503 65.1687 11.2081 65.268C11.068 65.6006 11.0776 65.9396 11.1026 66.3003C11.1371 66.8078 11.1026 67.3326 10.928 67.8034C10.7975 68.1598 10.7322 68.4945 10.7955 68.8681C10.8454 69.1597 10.8358 69.4512 10.6842 69.7017C10.5557 69.9134 10.5403 70.1423 10.5288 70.3842C10.4923 71.1336 10.7073 71.8787 10.5537 72.4531H10.5499ZM58.6213 124.326C58.535 124.2 58.4467 124.267 58.37 124.274C58.0629 124.295 57.7539 124.427 57.4469 124.25C57.4143 124.231 57.3586 124.237 57.3222 124.25C56.8482 124.447 56.3665 124.308 55.8887 124.285C55.5125 124.267 55.123 124.406 54.7603 124.17C54.6758 124.116 54.5626 124.172 54.4705 124.213C54.2421 124.315 54.0119 124.289 53.8104 124.159C53.463 123.935 53.0888 123.896 52.705 123.868C52.4421 123.851 52.2003 123.758 52.0314 123.511C51.9393 123.378 51.8242 123.291 51.6841 123.246C51.0451 123.034 50.4387 122.708 49.7804 122.566C49.5367 122.514 49.3199 122.41 49.1664 122.173C48.9879 121.898 48.7461 121.708 48.4851 121.535C48.2049 121.35 47.9305 121.147 47.6542 120.957C47.2723 120.693 46.9038 120.356 46.4452 120.285C46.142 120.237 45.9098 120.093 45.6987 119.868C45.6257 119.79 45.5624 119.695 45.4626 119.667C44.9368 119.516 44.6221 118.968 44.1174 118.773C44.0483 118.747 43.9946 118.644 43.9466 118.566C43.8718 118.443 43.7796 118.352 43.6511 118.305C43.511 118.255 43.415 118.136 43.3037 118.039C42.9506 117.728 42.6417 117.337 42.2061 117.16C41.6937 116.948 41.2561 116.605 40.809 116.262C40.3907 115.942 39.9512 115.709 39.4273 115.579C38.6866 115.398 37.9094 115.348 37.2012 114.996C37.1398 114.966 37.0612 114.964 36.9902 114.968C36.6467 114.987 36.3108 114.897 35.9731 114.862C35.6756 114.83 35.3974 114.694 35.121 114.568C34.8562 114.447 34.8217 114.119 34.6624 113.903C34.1519 113.208 34.0042 112.357 33.8219 111.521C33.7777 111.32 33.7585 111.106 33.6779 110.921C33.511 110.534 33.4668 110.128 33.486 109.705C33.4956 109.51 33.4668 109.323 33.3862 109.146C33.2596 108.871 33.1963 108.573 33.179 108.269C33.1253 107.293 32.7395 106.377 32.7722 105.388C32.7722 105.373 32.7664 105.355 32.7645 105.34C32.6014 104.332 32.4421 103.323 32.4478 102.293C32.4478 102.081 32.4056 101.88 32.3423 101.684C32.1005 100.917 31.7819 100.174 31.7512 99.3386C31.7474 99.2306 31.7052 99.1204 31.6687 99.0168C31.3732 98.1486 31.4711 97.1703 31.0777 96.3302C31.0719 96.3172 31.0738 96.2978 31.0738 96.2827C31.0546 95.7924 30.9529 95.3151 30.9376 94.8163C30.9164 94.1597 30.8858 93.4686 30.6344 92.8402C30.5749 92.6912 30.5423 92.5227 30.5691 92.3694C30.6766 91.7561 30.5365 91.1708 30.4386 90.579C30.4137 90.4236 30.4156 90.2594 30.4156 90.0996C30.4137 89.7476 30.431 89.402 30.289 89.0651C30.1968 88.847 30.2352 88.5922 30.2602 88.3524C30.2851 88.117 30.3196 87.8838 30.3503 87.6462C30.2256 87.5663 30.1162 87.6074 30.0068 87.6311C29.3812 87.765 28.7365 87.7521 28.1147 87.9464C27.846 88.0307 27.7558 88.0825 27.8787 88.3417C28.0801 88.7649 28.0859 89.2357 28.2183 89.672C28.4275 90.3609 28.606 91.0606 28.6578 91.7906C28.6885 92.2247 28.7364 92.6566 28.8554 93.0648C29.0089 93.5982 29.0205 94.1338 28.9821 94.6802C28.9744 94.7925 28.9245 94.9221 28.9879 95.0085C29.2623 95.3864 29.1663 95.8658 29.2719 96.2891C29.3409 96.5634 29.4273 96.8355 29.4196 97.1336C29.3985 97.9801 29.5463 98.8181 29.5578 99.6647C29.5655 100.2 29.7113 100.742 29.671 101.269C29.6211 101.932 29.7305 102.533 29.9397 103.133C29.9781 103.239 29.9934 103.351 29.9665 103.464C29.8879 103.805 29.9531 104.135 30.0299 104.459C30.1201 104.846 30.193 105.234 30.2563 105.627C30.3715 106.349 30.4904 107.068 30.6401 107.781C30.8781 108.912 30.8627 110.091 31.1813 111.214C31.3425 111.785 31.4557 112.381 31.5555 112.975C31.6303 113.422 31.7282 113.882 32.0007 114.255C32.1888 114.514 32.1907 114.817 32.1389 115.123C32.1158 115.264 32.0525 115.398 32.0314 115.538C31.9604 115.985 31.686 116.179 31.329 116.27C31.1218 116.322 30.9107 116.367 30.6977 116.389C30.4079 116.419 30.1393 116.506 29.8936 116.683C29.6038 116.89 29.2853 117.039 28.9667 117.162C28.5561 117.32 28.1895 117.607 27.7194 117.607C27.4469 117.607 27.1629 117.775 26.9402 117.974C26.472 118.389 26.023 118.825 25.4127 118.961C25.3494 118.976 25.2841 119.037 25.2381 119.095C25.0347 119.358 24.7698 119.421 24.4762 119.458C24.1692 119.497 23.866 119.561 23.6338 119.853C23.4803 120.045 23.2557 120.149 23.0216 120.158C22.7702 120.168 22.563 120.274 22.3404 120.397C21.8817 120.65 21.4307 120.909 20.9913 121.209C20.4674 121.57 19.8763 121.803 19.4081 122.278C19.3505 122.337 19.2527 122.354 19.1701 122.369C19.0416 122.391 18.9303 122.445 18.8151 122.516C18.5445 122.684 18.2471 122.786 17.9669 122.933C17.2991 123.28 16.543 123.334 15.8733 123.689C15.8368 123.708 15.7908 123.714 15.7485 123.714C15.2342 123.73 14.7487 123.892 14.2575 124.056C14.6451 124.306 15.7025 124.447 16.2302 124.319C16.2436 124.315 16.2571 124.308 16.2705 124.306C16.6658 124.224 17.0573 124.196 17.443 124.365C18.0111 124.611 18.5944 124.788 19.2047 124.829C19.4638 124.846 19.7075 124.922 19.9281 125.086C20.049 125.177 20.1853 125.209 20.3312 125.222C20.8435 125.267 21.3444 125.375 21.8241 125.589C21.9162 125.63 22.018 125.697 22.1062 125.684C22.6724 125.602 23.1943 125.831 23.7278 125.965C24.3093 126.112 24.8984 126.246 25.4895 126.215C25.9347 126.194 26.3626 126.271 26.7944 126.336C27.1744 126.392 27.5428 126.494 27.9343 126.464C28.1761 126.446 28.4716 126.485 28.6635 126.63C28.9456 126.846 29.2373 126.868 29.5463 126.913C29.884 126.963 30.2371 126.991 30.5461 127.131C31.1679 127.416 31.8318 127.364 32.467 127.518C32.5188 127.531 32.5803 127.511 32.634 127.494C33.1886 127.341 33.7374 127.509 34.2767 127.6C34.6892 127.669 35.0788 127.759 35.4876 127.615C35.6507 127.556 35.8157 127.55 35.9923 127.585C36.4375 127.671 36.8904 127.619 37.3414 127.667C37.7424 127.708 38.1742 127.695 38.6021 127.626C39.3813 127.498 40.1815 127.535 40.9721 127.511C41.0527 127.509 41.1352 127.567 41.2178 127.582C41.3291 127.604 41.4538 127.656 41.5536 127.619C42.0698 127.433 42.5745 127.598 43.0754 127.682C43.4285 127.74 43.7528 127.729 44.0713 127.556C44.2748 127.446 44.4858 127.412 44.6893 127.522C44.8831 127.628 45.0712 127.61 45.2707 127.582C45.524 127.546 45.785 127.485 46.0326 127.587C46.4835 127.77 46.9326 127.608 47.3759 127.572C47.6158 127.552 47.8461 127.511 48.0859 127.567C48.1685 127.587 48.2606 127.626 48.3354 127.606C48.771 127.485 49.2143 127.561 49.6538 127.533C50.099 127.505 50.5212 127.366 50.9376 127.228C51.4135 127.071 51.8664 126.835 52.3788 126.865C52.5246 126.874 52.6609 126.811 52.7818 126.723C52.9449 126.604 53.1195 126.582 53.3095 126.58C53.607 126.578 53.9428 126.636 54.1923 126.503C54.5281 126.321 54.8697 126.179 55.2208 126.077C55.5816 125.973 55.8695 125.669 56.2494 125.63C56.5219 125.602 56.7791 125.518 56.9921 125.306C57.0785 125.22 57.2013 125.213 57.3068 125.172C57.7904 124.987 58.226 124.706 58.6156 124.33L58.6213 124.326ZM53.1694 33.627C52.7722 33.4435 52.3903 33.4262 52.0142 33.3808C51.6323 33.3333 51.2504 33.3052 50.905 33.0763C50.8244 33.0223 50.7169 32.9986 50.619 32.9921C50.1642 32.9683 49.7152 32.856 49.2585 32.8798C48.9572 32.8949 48.6636 32.8409 48.37 32.7653C47.7098 32.599 47.0324 32.5386 46.3646 32.4673C45.9309 32.4219 45.478 32.4997 45.0251 32.4759C44.2191 32.4349 43.4208 32.342 42.6225 32.2449C42.4248 32.2211 42.2272 32.1822 42.0276 32.2081C41.4327 32.2794 40.8435 32.0937 40.2486 32.1822C40.1585 32.1952 40.0395 32.1563 39.9646 32.0937C39.742 31.9101 39.483 31.9187 39.2316 31.8799C38.7672 31.8086 38.2932 31.8799 37.8326 31.7546C37.7098 31.7222 37.5774 31.746 37.4526 31.7892C37.184 31.8842 36.9192 31.8604 36.6562 31.7697C36.4356 31.6942 36.2168 31.6682 35.9846 31.7049C35.2285 31.8259 34.4705 31.9274 33.701 31.8086C33.3363 31.7525 32.9679 31.6574 32.5994 31.7481C32.3692 31.8043 32.1465 31.7935 31.9259 31.7309C31.5344 31.6186 31.1333 31.6618 30.738 31.6445C30.6382 31.6402 30.5327 31.6315 30.4482 31.6985C30.2698 31.841 30.0778 31.9274 29.8629 31.9641C29.7593 31.9814 29.6806 32.0721 29.696 32.2038C29.7209 32.4111 29.6365 32.5645 29.552 32.7373C29.3582 33.139 29.4887 33.4283 29.8821 33.5666C30.1987 33.6789 30.5211 33.7156 30.8512 33.6875C30.9356 33.681 31.0259 33.6486 31.1045 33.6702C31.6265 33.8171 32.1677 33.7825 32.6954 33.8948C33.1368 33.9898 33.5993 33.9467 34.0042 34.2339C34.127 34.3203 34.2786 34.3095 34.4225 34.2965C35.0596 34.2447 35.6929 34.3678 36.3262 34.4088C36.8155 34.4391 37.2934 34.5578 37.7981 34.5254C38.061 34.5082 38.3335 34.6118 38.6002 34.4693C38.6559 34.4412 38.7384 34.4823 38.8094 34.4844C39.7823 34.4931 40.738 34.7522 41.7244 34.668C42.5611 34.5967 43.4093 34.5686 44.2517 34.6766C44.4494 34.7025 44.647 34.7069 44.839 34.7803C44.9483 34.8235 45.0596 34.8472 45.1748 34.8148C45.5413 34.7133 45.9098 34.7716 46.2763 34.8127C46.3895 34.8256 46.5008 34.8537 46.6121 34.8019C47.161 34.5514 47.6964 34.6097 48.2203 34.8883C48.4851 35.0308 48.7557 35.033 49.0032 34.8883C49.2565 34.7393 49.5271 34.7133 49.79 34.7133C50.0222 34.7133 50.2391 34.6788 50.4598 34.6183C51.024 34.465 51.5977 34.357 52.1485 34.1583C52.4862 34.0374 52.8489 33.9315 53.1675 33.6184L53.1694 33.627Z" fill="#FF4D00"/>
</svg>
