<svg width="73" height="138" viewBox="0 0 73 138" fill="none" xmlns="http://www.w3.org/2000/svg">
<path d="M41.8357 84.976C42.0218 85.3907 41.9988 85.8118 41.9086 86.2243C41.8491 86.4964 41.8088 86.7577 41.8798 87.0299C41.9105 87.1486 41.9105 87.2717 41.8837 87.3948C41.7225 88.0946 41.7321 88.8008 41.8012 89.5113C41.8107 89.6063 41.8261 89.71 41.8012 89.7964C41.6016 90.4961 41.6879 91.2368 41.5497 91.9495C41.4941 92.2389 41.5267 92.5499 41.5248 92.8501C41.5248 93.0445 41.5094 93.2324 41.4058 93.3987C41.379 93.4418 41.3387 93.498 41.3425 93.5433C41.3982 93.9861 41.2139 94.3986 41.2235 94.8435C41.237 95.4006 41.1909 95.9622 41.1314 96.515C41.1026 96.7915 41.1218 97.0614 41.1218 97.3314C41.1218 97.6769 41.0834 98.0073 40.9913 98.3378C40.9376 98.5321 40.8992 98.7351 40.8723 98.9381C40.7457 99.9381 40.3964 100.843 40.0068 101.744C39.79 102.245 39.5079 102.713 39.3793 103.262C39.2892 103.642 39.0378 103.918 38.8478 104.231C38.6578 104.547 38.4717 104.864 38.3469 105.218C38.2299 105.551 38.0437 105.827 37.8729 106.121C37.6369 106.529 37.3663 106.907 37.1091 107.292C36.8693 107.652 36.6486 108.024 36.4221 108.393C36.3454 108.518 36.2609 108.637 36.2245 108.784C36.1036 109.27 35.9155 109.723 35.7044 110.168C35.6142 110.358 35.6833 110.46 35.8867 110.402C36.1573 110.326 36.4221 110.235 36.7061 110.246C36.7656 110.248 36.8366 110.22 36.8865 110.246C37.4622 110.533 38.1281 110.3 38.6904 110.646C39.149 110.613 39.5789 110.764 40.0049 110.918C40.2717 111.013 40.5384 111.086 40.8167 111.119C40.9338 111.131 41.0719 111.17 41.1563 111.255C41.4979 111.598 41.9432 111.652 42.3461 111.823C42.5899 111.926 42.7606 112.11 42.8624 112.365C42.9334 112.546 43.0312 112.695 43.1579 112.825C43.3671 113.038 43.5321 113.285 43.6511 113.578C43.7182 113.743 43.7643 113.9 43.7912 114.079C43.8315 114.347 43.8353 114.624 43.9313 114.881C43.9831 115.023 43.962 115.181 43.9274 115.326C43.866 115.576 43.8046 115.827 43.7777 116.086C43.7681 116.179 43.747 116.297 43.6914 116.349C43.4457 116.574 43.3997 116.913 43.2961 117.213C43.2346 117.39 43.1579 117.52 43.0255 117.63C42.6283 117.96 42.2598 118.345 41.7839 118.537C41.7608 118.546 41.7359 118.559 41.7205 118.578C41.2465 119.234 40.4981 119.338 39.8764 119.682C39.4715 119.906 39.0339 120.096 38.5945 120.256C38.4908 120.295 38.3872 120.349 38.2797 120.362C37.9516 120.399 37.6292 120.44 37.374 120.716C37.3337 120.759 37.2627 120.781 37.2051 120.783C36.5987 120.807 36.0518 121.103 35.4741 121.247C35.3686 121.273 35.2592 121.284 35.1517 121.303C35.0308 121.325 34.8965 121.34 34.8217 121.457C34.6643 121.705 34.4033 121.718 34.1903 121.839C34.1385 121.867 34.0694 121.88 34.0118 121.871C33.4995 121.785 33.0351 122.005 32.5553 122.148C32.0295 122.303 31.5133 122.524 30.9548 122.5C30.9433 122.5 30.9299 122.5 30.9184 122.502C30.406 122.735 29.8476 122.712 29.316 122.854C28.6904 123.02 28.0514 123.092 27.4027 122.99C26.7944 122.893 26.2072 122.66 25.5893 122.619C25.5182 122.614 25.4281 122.61 25.3801 122.565C25.0654 122.269 24.6739 122.107 24.3515 121.824C24.3131 121.789 24.2843 121.729 24.2421 121.718C23.841 121.623 23.5551 121.316 23.2941 121.005C23.0715 120.74 22.822 120.552 22.5438 120.381C22.1868 120.163 21.8261 120.001 21.4116 119.993C20.8397 119.98 20.2774 119.841 19.7267 119.688C19.3793 119.591 19.0684 119.349 18.7153 119.241C18.226 119.09 17.8287 118.753 17.4449 118.403C17.1321 118.118 16.9671 117.772 17.0055 117.263C17.0477 116.71 17.1897 116.258 17.5447 115.883C17.6388 115.781 17.7002 115.639 17.7808 115.52C18.1511 114.982 18.5138 114.438 18.9015 113.915C19.1049 113.643 19.3908 113.468 19.6614 113.289C19.8073 113.192 19.9608 113.11 20.1009 113.002C20.5058 112.697 20.9433 112.466 21.402 112.283C21.7992 112.121 22.1465 111.825 22.5898 111.782C22.7299 111.769 22.8643 111.615 22.989 111.509C23.179 111.347 23.3901 111.309 23.6108 111.36C23.7489 111.393 23.8717 111.382 24.0003 111.324C24.3534 111.164 24.718 111.06 25.1018 111.116C25.4645 111.17 25.7812 110.941 26.1323 110.907C26.4106 110.879 26.685 110.821 26.9633 110.894C27.0439 110.916 27.1418 110.928 27.2166 110.898C27.7597 110.667 28.3469 110.751 28.8996 110.596C28.9782 110.572 29.0684 110.592 29.1529 110.596C29.3486 110.609 29.529 110.548 29.719 110.503C30.1584 110.395 30.6037 110.222 31.0623 110.503C31.4077 110.715 31.4672 110.646 31.638 110.255C31.8126 109.855 31.8625 109.382 32.183 109.063C32.2156 109.03 32.2252 108.965 32.2406 108.914C32.3903 108.343 32.7606 107.946 33.1003 107.523C33.3344 107.231 33.6184 106.981 33.7106 106.568C33.7297 106.482 33.8046 106.411 33.8583 106.339C33.9869 106.171 34.0809 105.981 34.1519 105.776C34.3381 105.24 34.5799 104.743 34.8984 104.288C35.0116 104.123 35.0865 103.892 35.1038 103.685C35.1326 103.35 35.2822 103.091 35.4377 102.832C35.524 102.687 35.5797 102.547 35.5663 102.376C35.5451 102.121 35.6392 101.923 35.8119 101.769C35.9462 101.651 35.9865 101.497 36.0249 101.316C36.1132 100.906 36.1842 100.493 36.3281 100.096C36.4336 99.802 36.4509 99.4565 36.4509 99.126C36.4509 98.9317 36.5046 98.7589 36.5641 98.5753C36.6754 98.219 36.781 97.8454 36.8059 97.4739C36.8366 97.0074 36.9326 96.5561 36.9748 96.0939C36.9921 95.9017 37.0228 95.7181 36.9882 95.5259C36.9748 95.4482 36.971 95.3575 36.994 95.284C37.161 94.7355 37.1897 94.1675 37.2205 93.5952C37.2358 93.3015 37.3394 93.0142 37.3375 92.7097C37.3337 92.3966 37.3663 92.0791 37.2972 91.7703C37.2627 91.6169 37.303 91.4701 37.3106 91.3211C37.3356 90.7768 37.2818 90.2348 37.2703 89.6905C37.2646 89.4465 37.23 89.1981 37.3241 88.9606C37.3874 88.8008 37.326 88.6366 37.3241 88.4725C37.3202 87.7101 37.2262 86.9543 37.1456 86.1984C37.1322 86.0731 37.1206 85.9544 37.1552 85.8334C37.2012 85.6714 37.1897 85.5073 37.1763 85.3453C37.1533 85.0624 37.0727 84.9544 36.829 84.9998C36.1611 85.1229 35.5259 84.9955 34.9003 84.7449C34.6873 84.6586 34.4666 84.7514 34.2479 84.7385C34.0848 84.7277 33.9332 84.7169 33.8238 84.5571C33.7106 84.3886 33.5417 84.408 33.3862 84.4145C33.0581 84.4275 32.7587 84.3649 32.5073 84.1035C32.3903 83.9826 32.2348 83.9869 32.0909 83.9912C31.8664 83.9956 31.6534 83.9847 31.4768 83.799C31.4519 83.7731 31.4135 83.7558 31.3789 83.7472C30.5518 83.5615 29.8629 82.987 29.0569 82.7278C28.6731 82.6047 28.3047 82.3564 27.9439 82.1361C27.7174 81.9979 27.4526 81.9849 27.2415 81.8057C27.1187 81.6999 26.9537 81.6545 26.8712 81.4882C26.8597 81.4666 26.8366 81.4364 26.8193 81.4342C26.3741 81.4061 26.1976 80.9181 25.8464 80.7129C25.4991 80.5099 25.2189 80.1579 24.9099 79.8706C24.8159 79.7842 24.718 79.6979 24.6643 79.5704C24.6029 79.4257 24.5127 79.3264 24.3803 79.2702C24.3246 79.2465 24.2651 79.2119 24.2287 79.1601C23.9331 78.7455 23.5321 78.4345 23.2577 78.0069C22.87 77.4043 22.4402 76.8277 22.2291 76.0999C22.1657 75.8818 22.066 75.6723 21.8913 75.5233C21.8126 75.4563 21.7455 75.3699 21.7282 75.2576C21.638 74.6983 21.3559 74.2275 21.1736 73.7135C20.9913 73.1973 20.7188 72.72 20.6478 72.1499C20.6132 71.8735 20.4194 71.6402 20.4156 71.3379C20.4117 71.0917 20.383 70.8455 20.3791 70.6014C20.3715 70.2041 20.2563 69.8283 20.2045 69.4395C20.1911 69.3445 20.1565 69.2517 20.1738 69.1566C20.2563 68.729 20.2103 68.3014 20.2045 67.8716C20.2007 67.5477 20.2755 67.2022 20.191 66.8976C20.0836 66.5132 20.2333 66.1569 20.1968 65.7789C20.1603 65.4075 20.2563 65.0231 20.3695 64.6559C20.4348 64.4486 20.4079 64.2154 20.3753 64.0037C20.3331 63.7316 20.3599 63.4573 20.3273 63.1874C20.312 63.0492 20.3273 62.9088 20.4041 62.7943C20.5231 62.6172 20.5365 62.4185 20.5307 62.2091C20.523 61.9218 20.5326 61.6367 20.5864 61.3517C20.6267 61.14 20.6267 60.9133 20.5614 60.7016C20.4981 60.4986 20.5365 60.3064 20.5557 60.0991C20.6228 59.4101 20.8781 58.7558 20.8339 58.0431C20.8128 57.7191 20.8723 57.3887 20.9011 57.0626C20.9318 56.7236 20.8915 56.3953 20.8608 56.0584C20.8128 55.5228 20.7207 54.9742 20.8051 54.4278C20.8301 54.2724 20.8205 54.1298 20.7361 53.9959C20.5538 53.7108 20.5653 53.3999 20.6746 53.0953C20.7361 52.9269 20.7284 52.7865 20.6785 52.6224C20.4655 51.9313 20.3331 51.2316 20.4252 50.4865C20.4616 50.1928 20.3925 49.884 20.2928 49.6032C20.2141 49.3808 20.1834 49.1734 20.2256 48.9294C20.2659 48.7005 20.3081 48.4456 20.1393 48.2275C20.0663 48.1325 20.099 47.9921 20.0913 47.869C20.0682 47.4608 20.0299 47.057 19.9301 46.6574C19.8418 46.3054 19.838 45.9296 19.7516 45.5711C19.625 45.0463 19.5674 44.5064 19.4484 43.9752C19.339 43.4892 19.3141 42.9752 19.2776 42.4721C19.2392 41.971 19.1548 41.4786 19.1817 40.9625C19.2047 40.537 19.0895 40.1008 19.055 39.6688C19.0147 39.157 19.0032 38.6452 19.0185 38.1268C19.03 37.7424 19.055 37.345 19.0473 36.952C19.0339 36.3343 18.9686 35.7145 19.1164 35.0861C19.2776 34.4058 19.3237 33.6931 19.4119 32.9912C19.4311 32.8443 19.4235 32.691 19.4119 32.542C19.3563 31.6868 19.5444 30.8359 19.4446 29.9807C19.4331 29.8748 19.4618 29.7647 19.4714 29.6546C19.5021 29.3436 19.5789 29.0347 19.5194 28.7173C19.5098 28.6654 19.5098 28.605 19.5252 28.5553C19.694 27.97 19.6691 27.3373 19.8571 26.7563C19.8859 26.6678 19.932 26.5598 19.9109 26.4799C19.8168 26.0976 19.9205 25.765 20.051 25.4173C20.1296 25.21 20.1488 24.966 20.1565 24.737C20.1815 23.9682 20.4923 23.2901 20.6727 22.5709C20.7706 22.1822 20.997 21.8345 20.9683 21.4025C20.9644 21.3421 21.0028 21.2708 21.0373 21.2168C21.187 20.9749 21.2542 20.7028 21.2945 20.4156C21.3367 20.1089 21.3809 19.8066 21.5094 19.515C21.5996 19.3077 21.5881 19.0356 21.5919 18.7915C21.5958 18.6339 21.4845 18.5281 21.3732 18.433C20.974 18.0875 20.9126 17.4914 21.2369 17.0703C21.3789 16.8867 21.5516 16.7356 21.6188 16.4872C21.638 16.4159 21.7052 16.3533 21.7647 16.3079C22.5035 15.7572 23.3152 15.4203 24.1922 15.2821C24.3381 15.2584 24.4801 15.2346 24.6182 15.1763C24.743 15.1245 24.8754 15.051 25.002 15.0575C25.4357 15.0813 25.833 14.8696 26.2571 14.8415C26.4624 14.8286 26.6658 14.7444 26.8539 14.6688C27.2339 14.5154 27.6388 14.5349 28.013 14.3794C28.2241 14.2908 28.4467 14.3686 28.6635 14.3275C28.9974 14.2649 29.339 14.2304 29.6787 14.2174C29.9723 14.2066 30.2621 14.1461 30.5423 14.0921C31.3425 13.9388 32.1446 14.0144 32.9391 14.0533C33.7835 14.0943 34.6182 14.2714 35.4338 14.591C36.2744 14.9193 36.9307 15.4657 37.4584 16.2453C37.4661 16.2561 37.4718 16.2712 37.4814 16.2777C38.0072 16.5865 38.0245 17.2755 38.3354 17.7484C38.439 17.9082 38.4448 18.1588 38.5119 18.3639C38.6079 18.6576 38.6731 18.9665 38.8804 19.1997C38.9207 19.2451 38.9629 19.3206 38.9591 19.379C38.938 19.7331 39.103 19.9966 39.27 20.2644C39.4542 20.5603 39.5271 20.9101 39.6307 21.2449C39.7459 21.6164 39.8783 21.9857 40.0126 22.3398C40.1719 22.7566 40.3504 23.1843 40.5883 23.5665C40.7207 23.7803 40.8301 24.0092 40.8493 24.2792C40.8531 24.3332 40.857 24.4023 40.8877 24.4347C41.1679 24.7327 41.1794 25.1776 41.3617 25.5296C41.4826 25.7629 41.592 26.0112 41.6073 26.2963C41.6112 26.3611 41.6303 26.4388 41.6668 26.4885C41.8971 26.7952 41.9931 27.1839 42.16 27.5295C42.3308 27.8858 42.4325 28.2875 42.5438 28.6762C42.5803 28.8058 42.6148 28.9203 42.6858 29.0391C42.9065 29.4105 43.0792 29.8057 43.2308 30.2269C43.3997 30.6977 43.6376 31.1382 43.7394 31.6457C43.7605 31.7559 43.8564 31.8509 43.9313 31.9416C44.0656 32.1079 44.1731 32.3088 44.198 32.5161C44.246 32.9178 44.4359 33.2504 44.5664 33.6089C44.7449 34.0991 44.9407 34.585 45.2957 34.9608C45.336 35.004 45.3533 35.0796 45.3724 35.1422C45.4607 35.4165 45.5989 35.654 45.7754 35.8657C45.9366 36.0557 46.069 36.2695 46.1132 36.5352C46.1381 36.6928 46.2207 36.8051 46.3128 36.9174C46.5123 37.1593 46.6735 37.425 46.7503 37.7554C46.7925 37.939 46.8712 38.1117 46.946 38.2845C46.9998 38.4098 47.065 38.5329 47.0516 38.6711C47.0094 39.103 47.2243 39.3946 47.4623 39.6753C47.5486 39.7768 47.6119 39.8848 47.6561 40.0165C47.8077 40.4895 48.0207 40.9322 48.2011 41.3879C48.3661 41.8026 48.4832 42.2431 48.6885 42.6448C48.7614 42.7895 48.7288 42.999 48.7825 43.1631C48.8823 43.4612 48.9226 43.7981 49.1951 44.0032C49.293 44.0767 49.3141 44.2386 49.3486 44.3682C49.4427 44.7202 49.5386 45.0744 49.6135 45.4329C49.6595 45.651 49.7305 45.8562 49.8476 46.0268C50.0011 46.2493 50.0951 46.5041 50.17 46.7589C50.264 47.0851 50.4252 47.3744 50.5308 47.6919C50.548 47.7437 50.5902 47.7869 50.596 47.8366C50.6612 48.545 51.047 49.1302 51.1851 49.8105C51.2043 49.9034 51.2408 49.9941 51.2811 50.0762C51.7685 51.0415 52.089 52.0868 52.4363 53.1213C52.7376 54.0132 53.0197 54.9116 53.3556 55.7906C53.4918 56.1469 53.6415 56.5054 53.7528 56.8812C53.8584 57.2375 54.0445 57.5637 54.1577 57.9265C54.2268 58.1446 54.2882 58.367 54.3515 58.5873C54.4686 58.9869 54.6624 59.3518 54.7584 59.7643C54.8198 60.0278 54.8044 60.3107 54.9215 60.5591C55.1671 61.0796 55.2324 61.6735 55.453 62.2047C55.6142 62.5956 55.643 63.0384 55.8138 63.4379C55.9367 63.7273 55.952 64.0728 55.9194 64.4054C55.8944 64.6667 55.9136 64.9324 55.9961 65.1764C56.1266 65.5651 56.2015 65.9625 56.213 66.3772C56.2149 66.4592 56.2226 66.5456 56.2495 66.619C56.3838 66.9732 56.4106 67.295 56.2648 67.6794C56.1842 67.8911 56.2226 68.2107 56.284 68.4785C56.3608 68.8111 56.2456 69.824 56.0979 70.1198C55.9539 70.4049 55.8733 70.6921 55.9578 71.0204C55.9885 71.1413 55.9827 71.2644 55.929 71.3811C55.6181 72.0505 55.5413 72.8194 55.2439 73.491C55.0098 74.0158 54.8486 74.573 54.6048 75.0935C54.4168 75.4952 54.2038 75.8688 53.9658 76.2316C53.8603 76.3936 53.8142 76.6009 53.7816 76.8061C53.7144 77.2013 53.6127 77.5663 53.2807 77.806C53.1426 77.9075 53.0562 78.0954 53.0581 78.3027C53.06 78.4949 52.9813 78.6332 52.8604 78.7671C52.611 79.0435 52.4018 79.3696 52.0621 79.5294C52.0123 79.5532 51.9681 79.6201 51.9451 79.6784C51.7877 80.0542 51.498 80.2702 51.2063 80.4948C50.9683 80.6783 50.7419 80.8878 50.5269 81.1059C50.4195 81.2139 50.3101 81.2852 50.1719 81.2809C49.98 81.2744 49.8207 81.3543 49.6614 81.4666C49.2239 81.7711 48.8209 82.1296 48.4198 82.4903C48.3239 82.5767 48.2279 82.6523 48.1128 82.7019C47.8326 82.8229 47.5467 82.9179 47.2876 83.1123C47.0458 83.2937 46.7234 83.2656 46.4682 83.4362C46.3857 83.4924 46.2801 83.5139 46.2091 83.5831C45.9232 83.8638 45.5701 83.8962 45.2208 83.9308C45.027 83.9502 44.885 84.0387 44.7411 84.1834C44.4321 84.4923 44.1021 84.7082 43.6453 84.732C43.2941 84.7493 42.9199 84.7061 42.5745 84.8572C42.492 84.8918 42.4076 84.8724 42.3212 84.8637C42.1504 84.8465 41.9892 84.8853 41.8261 84.9847L41.8357 84.976ZM37.0592 17.7679C36.7522 17.837 36.5008 18.0378 36.2916 18.2819C36.1362 18.4611 35.9961 18.5842 35.7658 18.5669C35.6545 18.5583 35.5739 18.6684 35.4837 18.7397C35.2189 18.9492 34.9733 19.1846 34.6086 19.1997C34.4436 19.2062 34.2344 19.2343 34.0867 19.3379C33.8276 19.5215 33.5321 19.5323 33.2538 19.6144C33.0562 19.6727 32.8624 19.7893 32.6589 19.7807C32.2463 19.7612 31.8645 19.8735 31.496 20.0636C31.3943 20.1176 31.2849 20.1564 31.1794 20.1197C30.9721 20.0506 30.7937 20.1284 30.6248 20.2407C30.4713 20.3422 30.3139 20.3854 30.1354 20.3486C30.0663 20.3335 29.9915 20.353 29.9186 20.3594C29.2412 20.4199 28.5638 20.5106 27.8863 20.5322C27.3202 20.5495 26.7522 20.4177 26.1822 20.4761C25.9328 20.502 25.7025 20.3378 25.4665 20.3724C25.0961 20.4264 24.766 20.3681 24.4609 20.1262C24.4225 20.096 24.3707 20.083 24.3246 20.0722C23.8238 19.9469 23.2941 19.9146 22.8662 19.5388C22.847 19.5237 22.8201 19.5215 22.7971 19.5107C22.6858 19.4632 22.6052 19.4934 22.5764 19.6316C22.5438 19.7915 22.4708 19.9642 22.4996 20.1089C22.5745 20.4977 22.4498 20.8432 22.3672 21.1995C22.3327 21.3464 22.302 21.4911 22.3097 21.6423C22.3173 21.8086 22.3077 21.9705 22.2674 22.1303C22.1696 22.532 22.2195 22.9748 21.9892 23.3397C21.9508 23.4002 21.9489 23.4996 21.9508 23.5795C21.9738 24.1626 21.7858 24.709 21.6975 25.2705C21.5478 26.2034 21.2791 27.1148 21.3118 28.0802C21.3156 28.173 21.2791 28.2659 21.2542 28.3566C21.2235 28.4603 21.1755 28.5553 21.1717 28.6698C21.1525 29.1017 21.0239 29.5012 20.8781 29.8921C20.8205 30.0476 20.7744 30.1966 20.7975 30.3672C20.8186 30.5335 20.7668 30.689 20.7322 30.8488C20.6823 31.0886 20.5576 31.3045 20.5576 31.5572C20.5576 32.1489 20.4578 32.7364 20.3043 33.2871C20.0894 34.0516 20.0817 34.8442 19.9589 35.6173C19.8917 36.0471 19.9051 36.5114 19.8917 36.9628C19.861 38.1096 19.8974 39.2499 19.955 40.3945C19.9684 40.6709 20.0529 40.9257 20.0894 41.1914C20.1796 41.8544 20.0797 42.526 20.2179 43.1891C20.3676 43.8996 20.3734 44.6382 20.5979 45.3401C20.8992 46.2773 21.1391 47.2384 21.4806 48.1606C21.6111 48.5147 21.7224 48.8776 21.7301 49.2685C21.7339 49.4391 21.7819 49.5902 21.8472 49.7393C22.1312 50.3958 22.3576 51.0696 22.3193 51.819C22.3077 52.0285 22.3538 52.2315 22.4248 52.4194C22.8067 53.4323 22.7952 54.5142 22.7952 55.5703C22.7952 56.432 22.8412 57.3196 22.5898 58.1662C22.5745 58.2159 22.5898 58.2742 22.5822 58.3282C22.5054 58.8918 22.7165 59.4814 22.4632 60.0278C22.4574 60.0386 22.4593 60.0559 22.4632 60.0688C22.5611 60.5807 22.4517 61.0688 22.3212 61.5525C22.2809 61.6994 22.2559 61.8462 22.2847 61.9974C22.325 62.2134 22.2847 62.4099 22.1619 62.5762C22.0698 62.7036 22.0372 62.8375 22.0717 62.9952C22.0966 63.1053 22.0755 63.2154 22.0352 63.3169C21.9508 63.5329 21.947 63.7705 21.899 63.9951C21.7973 64.4745 21.9681 65.0079 21.6706 65.4507C21.6572 65.4701 21.6591 65.5047 21.6591 65.5306C21.6649 66.0986 21.4902 66.632 21.4077 67.1827C21.3578 67.5153 21.3041 67.8479 21.3578 68.1999C21.402 68.4915 21.3885 68.8024 21.3521 69.0962C21.2907 69.5799 21.3693 70.0486 21.4423 70.5129C21.5133 70.9686 21.6994 71.4005 21.7608 71.8562C21.8337 72.3961 22.0448 72.8755 22.2195 73.3658C22.3135 73.6314 22.4037 73.9165 22.5342 74.18C22.7664 74.6421 22.9545 75.1345 23.1348 75.6248C23.2135 75.8407 23.3114 76.0329 23.415 76.2316C23.582 76.5513 23.8065 76.8169 23.9888 77.1214C24.1884 77.4561 24.4359 77.7671 24.7046 78.0349C24.9579 78.2876 25.0942 78.6677 25.4185 78.8383C25.4453 78.8513 25.4645 78.9031 25.4741 78.942C25.524 79.1277 25.6411 79.2357 25.7927 79.3113C25.9155 79.3739 26.023 79.4646 26.117 79.5748C26.3703 79.8685 26.6831 80.0823 26.946 80.3717C27.1705 80.62 27.5083 80.7366 27.7827 80.9332C28.0322 81.1103 28.3411 81.1319 28.5695 81.3478C28.6846 81.458 28.8132 81.5271 28.9533 81.5724C29.2527 81.6718 29.5482 81.81 29.8418 81.9072C30.6363 82.1642 31.4135 82.5875 32.2828 82.4298C32.35 82.4168 32.4267 82.4471 32.4958 82.473C32.7434 82.5637 32.9986 82.581 33.2519 82.5464C33.4381 82.5227 33.6012 82.5594 33.7816 82.6307C34.0752 82.7473 34.3803 82.8358 34.7046 82.8207C35.0212 82.8077 35.3532 82.6825 35.6545 82.933C35.7332 82.9978 35.8445 82.9157 35.9347 82.8876C36.1515 82.8207 36.3876 82.771 36.5814 82.8596C36.8961 83.0021 37.1763 82.8963 37.4699 82.8272C37.5774 82.8013 37.6753 82.7559 37.7885 82.8099C38.0917 82.9503 38.4102 82.9308 38.7211 82.8747C38.8823 82.8466 39.0397 82.838 39.1874 82.8941C39.3678 82.9611 39.5386 82.9395 39.7228 82.9179C39.9224 82.8941 40.1335 82.7559 40.3273 82.892C40.525 83.0302 40.7015 83.0518 40.903 82.9201C40.9625 82.8812 41.047 82.8553 41.1141 82.8661C41.4653 82.9201 41.8184 82.8466 42.1638 82.8661C42.5687 82.8877 42.895 82.6998 43.225 82.5292C43.417 82.4298 43.5916 82.3434 43.8027 82.3348C43.9581 82.3283 44.1308 82.3585 44.2613 82.2376C44.6279 81.905 45.0769 81.8532 45.5106 81.7387C45.6987 81.6891 45.8791 81.6243 46.0537 81.5163C46.2936 81.3673 46.52 81.1902 46.8059 81.1211C46.9729 81.0822 47.1897 81.0584 47.3068 80.9051C47.5774 80.5552 48.0418 80.5423 48.2836 80.1579C48.6559 80.1104 48.9169 79.8166 49.2297 79.6331C49.3467 79.564 49.4715 79.51 49.5674 79.4063C49.6998 79.2638 49.8284 79.1191 49.9551 78.9701C50.1393 78.7498 50.3254 78.5424 50.619 78.5101C50.738 78.4971 50.8397 78.4064 50.9357 78.3178C51.1276 78.1429 51.2408 77.9032 51.3866 77.6872C51.7263 77.1862 52.137 76.7456 52.373 76.1539C52.4862 75.871 52.6801 75.6269 52.7856 75.3397C53.0869 74.532 53.6492 73.8927 53.9063 73.0548C53.9696 72.8518 54.0541 72.6639 54.0656 72.4414C54.0752 72.2665 54.0944 72.0937 54.1596 71.9253C54.3745 71.3724 54.624 70.826 54.578 70.1911C54.5684 70.0529 54.6202 69.9276 54.6567 69.7959C54.7334 69.5259 54.8428 69.2581 54.8236 68.9687C54.7986 68.5865 54.8236 68.2021 54.7545 67.8241C54.7238 67.66 54.7641 67.498 54.8217 67.3447C54.8927 67.1546 54.9522 66.9581 54.9311 66.7486C54.9004 66.4376 54.9196 66.1223 54.9061 65.8135C54.8639 64.9324 54.8524 64.0491 54.7622 63.1701C54.672 62.2976 54.4801 61.4553 54.2153 60.6347C54.104 60.2891 54.0272 59.9306 53.9351 59.5808C53.772 58.9653 53.5686 58.367 53.3748 57.7667C53.1714 57.1382 52.8796 56.5508 52.6666 55.9245C52.4728 55.35 52.2867 54.7626 52.0334 54.2227C51.7474 53.618 51.567 52.9636 51.2772 52.3675C51.1122 52.0306 51.0259 51.6527 50.8589 51.3266C50.6517 50.9249 50.5365 50.4822 50.3619 50.0654C50.193 49.6615 50.0549 49.2361 49.8687 48.8365C49.6519 48.3657 49.4887 47.869 49.2815 47.3939C49.1625 47.1218 49.0647 46.8453 48.8651 46.6358C48.771 46.5387 48.7249 46.422 48.6789 46.2925C48.5465 45.9318 48.4314 45.5582 48.18 45.271C48.0667 45.1414 47.99 44.9924 47.9305 44.8239C47.8288 44.5324 47.7424 44.2322 47.5371 43.9989C47.4891 43.9449 47.4565 43.8564 47.4431 43.7808C47.3644 43.3208 47.1379 42.9623 46.8558 42.634C46.7983 42.5671 46.7426 42.485 46.7138 42.3986C46.6006 42.0552 46.3435 41.7853 46.3166 41.3965C46.3127 41.3512 46.2725 41.2886 46.2341 41.2691C46.0287 41.159 45.927 40.9711 45.8771 40.7314C45.8599 40.6471 45.8138 40.5845 45.7466 40.5435C45.5816 40.4441 45.526 40.2627 45.4626 40.0835C45.4185 39.9561 45.3916 39.8114 45.3187 39.7099C45.1633 39.4939 45.0232 39.2779 44.981 38.995C44.9675 38.9022 44.9234 38.805 44.839 38.7661C44.5511 38.6344 44.4801 38.3363 44.3995 38.0513C44.3304 37.8094 44.2287 37.6064 44.0368 37.4552C43.8756 37.3278 43.7394 37.1464 43.6914 36.939C43.6089 36.5741 43.369 36.2955 43.2961 35.9283C43.2749 35.8203 43.2097 35.734 43.1349 35.6605C42.8317 35.3582 42.634 34.9975 42.6187 34.5289C42.6187 34.4749 42.6148 34.4101 42.5879 34.3712C42.302 33.9587 42.1965 33.4512 42.0084 32.989C41.8933 32.7061 41.7321 32.447 41.6534 32.1403C41.5824 31.8639 41.4922 31.5939 41.3981 31.3283C41.3348 31.1512 41.2715 30.9676 41.118 30.8575C40.976 30.7538 40.9011 30.6048 40.8627 30.4255C40.7265 29.7863 40.2007 29.3652 40.0932 28.7086C40.0875 28.6741 40.0452 28.6482 40.0222 28.6158C39.8514 28.389 39.7516 28.1298 39.7593 27.8275C39.7631 27.6439 39.7133 27.4906 39.6346 27.3265C39.4753 26.9917 39.3141 26.6462 39.2239 26.2833C39.055 25.6031 38.7595 24.9919 38.4716 24.3785C38.2298 23.8645 38.1531 23.2966 37.9631 22.7674C37.9324 22.6832 37.942 22.5752 37.9535 22.4824C37.9804 22.275 37.9247 22.0915 37.8057 21.9511C37.633 21.7459 37.5908 21.4997 37.5678 21.2384C37.5256 20.7762 37.4968 20.3119 37.3682 19.8649C37.3183 19.6943 37.3394 19.5107 37.3183 19.3379C37.2531 18.8261 37.4661 18.2624 37.0669 17.783L37.0592 17.7679ZM38.3795 85.1358C38.5023 85.7168 38.3047 86.2589 38.51 86.7707C38.5235 86.8031 38.5004 86.8506 38.5004 86.8916C38.5062 87.3948 38.4659 87.898 38.4621 88.4012C38.4563 89.0426 38.4851 89.6841 38.4486 90.3233C38.4313 90.6365 38.4908 90.9561 38.4467 91.252C38.32 92.0726 38.4256 92.8911 38.4026 93.7096C38.3949 93.999 38.2951 94.2798 38.3373 94.5605C38.391 94.9082 38.3181 95.2408 38.2932 95.5799C38.2874 95.6749 38.2529 95.7656 38.2778 95.8628C38.3546 96.1522 38.297 96.433 38.2279 96.7115C38.1934 96.8454 38.1838 96.9772 38.178 97.1154C38.1493 97.787 37.9727 98.4328 37.9075 99.098C37.8787 99.3787 37.7923 99.6508 37.8307 99.9424C37.8518 100.109 37.8038 100.264 37.7616 100.424C37.6733 100.765 37.5121 101.074 37.4392 101.424C37.2838 102.182 37.0151 102.892 36.7157 103.59C36.6793 103.676 36.6428 103.765 36.6217 103.856C36.5603 104.121 36.5162 104.387 36.2782 104.549C36.188 104.612 36.1688 104.754 36.1515 104.879C36.1055 105.201 35.975 105.467 35.7543 105.685C35.524 105.914 35.3628 106.214 35.2477 106.525C35.0155 107.151 34.8485 107.814 34.3208 108.233C34.3016 108.248 34.292 108.279 34.2843 108.302C34.1481 108.721 33.8065 108.972 33.5993 109.337C33.415 109.663 33.1022 109.896 32.9948 110.294C32.9833 110.33 32.9641 110.371 32.9372 110.397C32.6743 110.643 32.5803 111.049 32.279 111.261C32.2252 111.298 32.1964 111.395 32.1715 111.471C32.112 111.656 32.018 111.805 31.874 111.924C31.7896 111.993 31.7129 112.101 31.6706 112.209C31.4787 112.712 31.1909 113.164 31.0258 113.68C30.6708 114.799 30.2506 115.887 29.8514 116.984C29.8207 117.068 29.8054 117.187 29.6883 117.161C29.5885 117.14 29.5597 117.036 29.552 116.941C29.5271 116.693 29.5866 116.455 29.6518 116.217C29.8284 115.563 29.9972 114.907 30.1776 114.254C30.3331 113.693 30.3523 113.092 30.5691 112.55C30.5845 112.514 30.5922 112.473 30.5979 112.432C30.6209 112.233 30.5557 112.162 30.3964 112.237C30.2851 112.289 30.1815 112.365 30.0836 112.445C30.0049 112.509 29.9282 112.574 29.8322 112.607C29.4753 112.732 29.0819 112.678 28.7441 112.894C28.3143 112.812 27.9036 112.987 27.4833 113.023C27.0861 113.058 26.6908 113.164 26.2935 113.006C26.2206 112.976 26.1228 113.002 26.0422 113.021C25.8138 113.075 25.5835 113.084 25.3532 113.086C25.0865 113.09 24.814 113.049 24.553 113.095C24.2306 113.151 23.9159 113.127 23.6165 113.021C22.7165 112.708 21.8913 113.028 21.0604 113.345C21.0143 113.362 20.974 113.397 20.9356 113.429C20.7226 113.617 20.4751 113.723 20.2218 113.825C19.8687 113.967 19.5482 114.157 19.3045 114.518C19.0109 114.952 18.7268 115.397 18.4064 115.809C18.1703 116.112 17.9938 116.483 17.8249 116.844C17.6407 117.239 17.7654 117.783 18.0801 118.053C18.5426 118.448 19.0588 118.712 19.6365 118.803C20.1642 118.885 20.6747 119.075 21.2177 119.07C21.3732 119.07 21.5286 119.088 21.6841 119.053C21.9949 118.982 22.279 119.155 22.5802 119.189C22.9487 119.23 23.3287 119.334 23.6683 119.5C24.6067 119.956 25.572 120.295 26.5833 120.465C26.6313 120.474 26.6831 120.481 26.7215 120.509C26.9633 120.675 27.2377 120.733 27.5006 120.824C27.6656 120.882 27.8364 120.889 28.0053 120.841C28.2644 120.77 28.5234 120.714 28.794 120.72C29.0013 120.727 29.2085 120.697 29.3812 120.543C29.4388 120.491 29.5098 120.463 29.5866 120.474C30.0855 120.535 30.5346 120.299 30.999 120.163C31.1467 120.12 31.2907 120.049 31.4461 120.014C31.7301 119.956 32.0026 119.811 32.302 119.915C32.3231 119.921 32.35 119.906 32.3711 119.897C32.9276 119.677 33.5014 119.602 34.0886 119.621C34.1481 119.623 34.2114 119.617 34.269 119.602C34.6566 119.511 35.0577 119.502 35.4396 119.375C35.5778 119.33 35.7255 119.258 35.8618 119.273C36.424 119.334 36.9383 119.122 37.4526 118.936C37.6407 118.87 37.823 118.818 38.0168 118.803C38.4333 118.77 38.8305 118.638 39.2086 118.451C39.4446 118.334 39.6787 118.25 39.9358 118.215C40.8224 118.101 41.5747 117.651 42.2118 116.967C42.4574 116.703 42.5745 116.328 42.7395 115.997C42.7798 115.917 42.8202 115.803 42.7626 115.723C42.6129 115.509 42.5611 115.213 42.35 115.056C42.0161 114.807 41.8107 114.382 41.4269 114.205C41.3962 114.19 41.3694 114.153 41.3502 114.118C41.0853 113.643 40.5576 113.617 40.218 113.274C39.8111 113.274 39.4465 113.047 39.0454 112.993C38.5753 112.93 38.0994 112.879 37.6465 112.738C37.2013 112.602 36.7522 112.535 36.3127 112.611C35.9021 112.682 35.5125 112.617 35.1172 112.576C34.8293 112.546 34.7814 112.548 34.6854 112.851C34.5281 113.347 34.3515 113.838 34.2939 114.371C34.2556 114.734 34.1711 115.092 34.0963 115.451C34.0598 115.624 34.0118 115.796 33.8506 115.887C33.7067 115.967 33.6491 116.122 33.6012 116.278C33.5302 116.509 33.4707 116.747 33.4093 116.982C33.3766 117.109 33.3594 117.245 33.2423 117.323C33.2174 117.284 33.1905 117.263 33.1905 117.243C33.1905 117.161 33.1886 117.077 33.2097 117.001C33.3498 116.509 33.3229 116.038 33.108 115.574C32.9871 115.31 32.9698 115.01 33.0773 114.736C33.2174 114.38 33.2385 113.997 33.3056 113.624C33.3248 113.518 33.3344 113.406 33.3709 113.306C33.676 112.494 33.8199 111.598 34.3381 110.894C34.3688 110.853 34.3803 110.797 34.3995 110.745C34.5818 110.27 34.7468 109.786 34.9483 109.322C35.1805 108.782 35.4108 108.242 35.6085 107.685C35.6315 107.622 35.6545 107.551 35.6948 107.505C35.9827 107.203 36.1439 106.793 36.3876 106.462C36.7925 105.916 37.1015 105.298 37.468 104.726C37.5851 104.542 37.5486 104.294 37.7002 104.132C37.8825 103.94 37.9689 103.681 38.0725 103.435C38.1819 103.178 38.2836 102.899 38.4294 102.685C38.7096 102.273 38.7691 101.759 39.0147 101.34C39.1951 101.033 39.2392 100.644 39.4369 100.348C39.5943 100.115 39.6595 99.8365 39.79 99.5903C39.8783 99.4219 39.9512 99.1865 39.9224 99.0029C39.8514 98.5364 39.9838 98.1024 40.051 97.6683C40.1661 96.934 40.1124 96.2256 39.9838 95.5129C39.9282 95.202 39.8495 94.9018 39.9455 94.5843C39.9608 94.5346 39.9512 94.4763 39.9474 94.4223C39.9205 93.8608 39.8265 93.3079 39.7037 92.7724C39.5693 92.1871 39.5578 91.5867 39.4753 90.9993C39.3985 90.4659 39.4887 89.8849 39.5885 89.345C39.6595 88.9606 39.6921 88.5934 39.6384 88.2133C39.6154 88.047 39.6346 87.8872 39.6423 87.7231C39.6557 87.3948 39.7881 87.0752 39.7267 86.7491C39.6403 86.2913 39.6691 85.8593 39.8246 85.4231C39.9301 85.1272 39.8668 85.0775 39.5828 85.097C39.1989 85.125 38.8209 85.2827 38.3757 85.1294L38.3795 85.1358ZM35.0481 17.2884C35.4473 17.3316 35.81 17.1394 36.1861 17.0509C36.5737 16.958 36.5949 16.5973 36.3339 16.2691C36.0441 15.9041 35.6641 15.727 35.2957 15.5369C35.0059 15.3879 34.7238 15.1698 34.3822 15.1655C34.0272 15.1612 33.6875 15.0338 33.3383 15.0014C32.9909 14.969 32.6455 14.8631 32.2905 14.956C32.1542 14.9906 31.9988 14.9625 31.8568 14.9366C31.6994 14.9107 31.544 14.8934 31.3885 14.9409C31.2446 14.9841 31.0988 14.969 30.9548 14.943C30.8723 14.9279 30.7744 14.8912 30.7054 14.9214C30.2314 15.1396 29.7209 15.0381 29.2335 15.1482C28.7806 15.2497 28.3104 15.2454 27.871 15.4031C27.4296 15.5607 26.971 15.6169 26.52 15.7011C26.069 15.7853 25.6257 15.9322 25.1613 15.9386C25.0577 15.9386 24.9521 16.0056 24.8504 16.0466C24.5434 16.1676 24.246 16.3058 23.9044 16.3058C23.5858 16.3058 23.319 16.5477 23.0216 16.6556C22.9487 16.6816 22.8643 16.7593 22.8873 16.8738C22.9103 16.9904 23.0082 17.0077 23.0926 16.9969C23.3229 16.9688 23.486 17.0962 23.6395 17.2625C23.818 17.4547 24.0233 17.5973 24.2613 17.6728C24.5396 17.7614 24.8217 17.9082 25.098 17.8953C25.3052 17.8866 25.4664 17.9147 25.6449 18.0076C25.7639 18.0702 25.8925 18.1048 26.0287 18.1242C26.3607 18.176 26.6908 18.2343 27.0285 18.2559C27.468 18.2819 27.8978 18.2192 28.3277 18.1868C28.7096 18.1588 29.0895 18.0681 29.4772 18.0659C29.7593 18.0659 30.0606 18.1782 30.3062 17.9147C30.7764 17.8672 31.235 17.7311 31.7148 17.7506C31.9297 17.7592 32.1523 17.8694 32.3576 17.7571C32.5745 17.6361 32.7933 17.6102 33.0274 17.621C33.5743 17.6448 34.1136 17.5929 34.6259 17.364C34.766 17.3014 34.9003 17.2539 35.0481 17.2884Z" fill="#FF4D00"/>
<path d="M26.6408 43.379C27.0668 43.4589 27.5754 43.3595 28.0858 43.366C28.3756 43.3682 28.6634 43.42 28.9551 43.4179C29.1662 43.4157 29.3888 43.5496 29.6038 43.6209C30.1372 43.8044 30.6842 43.9189 31.21 44.137C31.6763 44.3314 32.1253 44.5538 32.5725 44.7957C32.8738 44.9577 33.2173 45.1175 33.5819 45.1002C33.651 45.0959 33.7335 45.1175 33.7892 45.1585C34.2574 45.5041 34.8158 45.5667 35.332 45.7524C35.712 45.8885 36.1016 46.003 36.4834 46.1369C37.1935 46.3895 37.8901 46.6897 38.6078 46.9122C39.1068 47.0677 39.6287 47.1389 40.1449 47.2296C40.3138 47.2599 40.4827 47.262 40.6324 47.3722C40.6803 47.4089 40.7456 47.4478 40.7993 47.4391C41.3808 47.3592 41.9219 47.614 42.4823 47.694C43.0714 47.7782 43.6356 47.9898 44.2229 48.0892C44.6374 48.1583 45.0557 48.3159 45.428 48.6118C45.7389 48.858 46.069 49.1042 46.447 49.2295C46.541 49.2619 46.6351 49.3072 46.6984 49.3893C46.8577 49.6009 47.088 49.7262 47.2396 49.9357C47.5447 50.3525 47.8536 50.7758 48.1031 51.2358C48.3814 51.7476 48.7095 52.2206 48.9513 52.7583C49.0415 52.9592 49.2085 53.1103 49.2315 53.3587C49.2449 53.4926 49.3543 53.5488 49.4675 53.5811C49.74 53.6611 49.9435 53.8468 50.0893 54.1167C50.1142 54.1643 50.1392 54.2226 50.1776 54.2442C50.5479 54.4515 50.713 54.8186 50.8147 55.2419C50.8742 55.4903 51.0354 55.6846 51.2023 55.8272C51.5247 56.1036 51.6955 56.4902 51.8836 56.866C51.968 57.0344 52.0947 57.1683 52.1849 57.3238C52.3863 57.6694 52.5514 58.0451 52.8815 58.2676C53.129 58.8269 53.4687 59.3301 53.6721 59.9176C53.722 60.0601 53.77 60.1961 53.7757 60.3495C53.7796 60.4747 53.8007 60.6 53.8851 60.6885C54.0502 60.8635 54.0847 61.0881 54.0886 61.3256C54.0962 61.6604 54.2229 61.9627 54.2824 62.2824C54.2977 62.3623 54.3514 62.4443 54.3399 62.5178C54.2344 63.1894 54.6355 63.7984 54.5184 64.4722C54.4762 64.712 54.4915 64.9625 54.4608 65.2044C54.3879 65.7723 54.4282 66.349 54.3399 66.9148C54.2747 67.3316 54.2325 67.7549 53.9657 68.0896C53.935 68.1307 53.9005 68.1804 53.8947 68.2322C53.8314 68.7635 53.5627 69.2278 53.5148 69.7634C53.5071 69.8433 53.5032 69.9405 53.461 69.9988C53.2269 70.3206 53.0465 70.6704 52.9486 71.0721C52.9429 71.0959 52.9218 71.124 52.9026 71.1348C52.4996 71.3529 52.4305 71.841 52.2252 72.2146C52.0909 72.4586 51.9738 72.707 51.778 72.9035C51.5977 73.0849 51.448 73.3009 51.329 73.5449C51.1448 73.9185 50.8377 74.1755 50.5921 74.4887C50.335 74.8191 49.9665 75.0005 49.7535 75.3741C49.6479 75.562 49.4829 75.6916 49.3025 75.778C49.078 75.886 48.9244 76.0587 48.8208 76.3071C48.7383 76.5058 48.5944 76.6591 48.4466 76.806C48.2854 76.9679 48.0839 77.0867 47.9918 77.3286C47.9746 77.3718 47.9246 77.4172 47.8824 77.4301C47.4679 77.5446 47.2376 77.9527 46.9133 78.2054C46.8135 78.2832 46.7234 78.376 46.6005 78.4041C46.4662 78.4365 46.3472 78.4948 46.2589 78.6222C46.2359 78.6546 46.209 78.6978 46.1803 78.7043C45.6583 78.8166 45.3954 79.4321 44.8792 79.5509C44.6124 79.8554 44.2094 79.9115 43.9312 80.2117C43.7776 80.378 43.555 80.4623 43.3209 80.4277C43.248 80.4169 43.1732 80.3932 43.1079 80.4428C42.6531 80.7862 42.0908 80.797 41.6111 81.0583C41.5209 81.1058 41.4249 81.1145 41.3251 81.1123C40.8838 81.1015 40.4616 81.2354 40.0336 81.3326C39.5347 81.4449 39.0319 81.5313 38.5368 81.6695C38.3967 81.7084 38.2432 81.6695 38.107 81.6069C37.8959 81.5118 37.6828 81.5356 37.4621 81.5313C36.9901 81.5226 36.518 81.4795 36.0478 81.4255C35.2879 81.3369 34.5299 81.2916 33.7661 81.2786C33.225 81.27 32.6684 81.2743 32.1426 81.0929C31.4057 80.838 30.6535 80.6437 29.9665 80.2182C29.6594 80.0282 29.3524 79.8489 29.0664 79.6135C28.8285 79.4191 28.5023 79.376 28.2432 79.1924C27.9208 78.9656 27.5312 78.8404 27.3316 78.4257C27.3144 78.3912 27.2837 78.3588 27.253 78.3436C26.8385 78.1298 26.6312 77.6612 26.2877 77.361C26.2263 77.307 26.1917 77.2034 26.1649 77.1148C26.0881 76.8578 25.9327 76.6699 25.7619 76.4907C25.7081 76.4345 25.6199 76.3935 25.6026 76.3265C25.4529 75.7326 24.9521 75.3871 24.7659 74.8385C24.6105 74.3829 24.4493 73.9185 24.4128 73.4218C24.3975 73.2102 24.3591 73.0331 24.2017 72.8841C24.0501 72.7415 23.9676 72.5256 23.9734 72.2988C23.9791 72.044 23.8966 71.815 23.8429 71.5796C23.745 71.1477 23.6164 70.7115 23.6951 70.2666C23.768 69.8541 23.6356 69.4567 23.6932 69.0442C23.7354 68.7375 23.745 68.4222 23.793 68.1134C23.8333 67.8434 23.8947 67.5692 23.8832 67.3014C23.864 66.8781 23.9695 66.4764 24.0847 66.1049C24.2113 65.7054 24.1537 65.2929 24.2746 64.9042C24.3936 64.5176 24.4704 64.1159 24.4608 63.6991C24.4589 63.5933 24.4838 63.4788 24.5241 63.3816C24.6162 63.1484 24.6086 62.9065 24.6258 62.6603C24.67 62.0621 24.787 61.4747 24.9194 60.8937C24.9943 60.559 25.0518 60.2285 25.0614 59.883C25.0691 59.5828 25.0845 59.2826 25.1229 58.9824C25.1919 58.4512 25.0519 57.9177 25.1017 57.3908C25.1612 56.7558 24.929 56.1576 24.9885 55.5248C25.0173 55.2117 24.8331 54.9309 24.7755 54.6243C24.6297 53.8533 24.3649 53.119 24.171 52.3653C24.0636 51.9506 23.8985 51.5662 23.7949 51.1645C23.6433 50.5728 23.3113 50.0955 23.1156 49.5405C23.0983 49.4908 23.0657 49.4411 23.0273 49.4109C22.5686 49.0351 22.3863 48.4714 22.2271 47.897C22.1676 47.681 22.0601 47.4996 22.0409 47.2469C21.9565 46.1757 22.3902 45.3529 22.964 44.5841C23.01 44.5214 23.0676 44.4588 23.1309 44.4286C23.58 44.2212 23.9638 43.8757 24.4205 43.6835C24.6661 43.5798 24.9252 43.5971 25.1766 43.5712C25.6372 43.5258 26.0824 43.3531 26.6331 43.3747L26.6408 43.379ZM48.5925 55.2095C48.5809 54.8791 48.5483 54.5141 48.4677 54.188C48.3315 53.6438 48.1549 53.1039 47.846 52.6287C47.5831 52.2271 47.3643 51.7865 47.1283 51.3632C46.9172 50.9809 46.7061 50.603 46.4029 50.2942C46.2321 50.1192 46.0095 50.089 45.8291 49.9486C45.3589 49.5858 44.8331 49.3288 44.3284 49.0329C44.2229 48.9703 44.0924 48.9206 43.9791 48.9314C43.5762 48.9746 43.2211 48.763 42.845 48.6788C42.4075 48.5816 41.9718 48.4347 41.5305 48.3591C40.4865 48.182 39.4503 47.9639 38.4198 47.7048C38.2067 47.6508 37.9784 47.6486 37.7826 47.5493C37.3508 47.329 36.9037 47.1713 36.4432 47.0569C36.2129 46.9986 36.0191 46.856 35.7984 46.7826C35.2246 46.5882 34.6047 46.5537 34.0827 46.1714C34.054 46.1498 34.0137 46.1412 33.9791 46.1412C33.4936 46.152 33.0561 45.9468 32.607 45.7784C32.3057 45.6661 32.0505 45.4501 31.7416 45.3702C31.5765 45.327 31.3904 45.3162 31.256 45.2168C31.0776 45.0829 30.8895 45.0333 30.6938 44.9598C30.3464 44.8281 29.9857 44.7763 29.6383 44.6597C29.0377 44.4566 28.4523 44.191 27.798 44.299C27.5619 44.3379 27.3105 44.2644 27.0707 44.3228C26.7195 44.4091 26.3721 44.4027 26.0209 44.3335C25.8521 44.3012 25.6813 44.3076 25.5143 44.3551C25.0768 44.4782 24.6719 44.6899 24.2746 44.9253C23.8697 45.1629 23.4476 45.3637 23.2768 45.9274C23.1348 46.3939 22.9256 46.8323 23.1597 47.3311C23.1655 47.3441 23.1693 47.3571 23.1712 47.37C23.2077 47.9315 23.5665 48.303 23.8352 48.7068C24.0828 49.0783 24.4167 49.3871 24.7237 49.7046C25.2284 50.2272 25.6659 50.8362 26.2666 51.2444C26.4067 51.3394 26.5237 51.4323 26.6869 51.4258C26.8807 51.4193 27.0764 51.4129 27.2702 51.3999C27.5638 51.3783 27.8536 51.374 28.105 51.5921C28.1875 51.6655 28.2873 51.6763 28.3833 51.6699C28.6634 51.6504 28.8976 51.7994 29.1509 51.8902C29.4349 51.9917 29.6959 52.2055 30.0125 52.1644C30.166 52.145 30.2946 52.1882 30.4309 52.2594C30.6957 52.3977 30.9682 52.4646 31.2714 52.4711C31.9335 52.484 32.6013 52.3933 33.2537 52.5942C33.2883 52.605 33.3324 52.6201 33.3612 52.6072C33.6625 52.4603 33.9849 52.5575 34.2958 52.5056C34.716 52.4365 35.1651 52.4581 35.5412 52.6719C35.8828 52.8663 36.234 53.0175 36.5967 53.1039C37.2069 53.2507 37.7769 53.4926 38.3142 53.836C38.437 53.9137 38.5579 53.9289 38.6961 53.9267C38.9456 53.9245 39.2066 53.8943 39.4042 54.1427C39.4791 54.2377 39.6057 54.229 39.7132 54.242C39.9511 54.2679 40.1872 54.2852 40.4251 54.3565C40.8166 54.4709 41.2503 54.432 41.5688 54.7927C41.5919 54.8186 41.6341 54.8424 41.6686 54.8402C41.9565 54.8229 42.1733 55.0173 42.4075 55.1555C42.6166 55.2786 42.8354 55.3499 43.0676 55.3672C43.2039 55.3758 43.3228 55.4406 43.4495 55.4881C43.8141 55.6242 44.1922 55.7214 44.5069 55.9913C44.5414 56.0194 44.6028 56.0043 44.6489 56.0172C45.0826 56.1252 45.5297 56.1403 45.9404 56.3909C46.14 56.5139 46.399 56.5399 46.6178 56.6586C46.6773 56.691 46.7694 56.6954 46.8308 56.6673C47.0899 56.5507 47.3585 56.5787 47.6234 56.5852C47.9573 56.596 48.1856 56.3606 48.4408 56.1792C48.4946 56.1425 48.5234 56.0712 48.5196 56.0021C48.508 55.7386 48.5925 55.4881 48.5982 55.2052L48.5925 55.2095Z" fill="#FF4D00"/>
</svg>
