<svg width="54" height="27" viewBox="0 0 54 27" fill="none" xmlns="http://www.w3.org/2000/svg">
<rect x="0.520752" y="0.625" width="52.0417" height="25.125" rx="2.5" stroke="#FF4D00"/>
<g clip-path="url(#clip0_537_2932)">
<path d="M12.497 8.23688C12.3356 7.41162 11.7129 7.15111 10.9893 7.15111H5.60161L5.56238 7.41162C9.2603 8.35652 12.2963 10.3673 13.6639 14.1662L12.4977 8.23624L12.497 8.23688ZM14.0048 15.9556L13.6632 14.1668C12.9582 12.2969 11.2498 10.5686 9.32012 9.78449L12.0339 20.0369H15.5517L20.7985 7.15176H17.2601L14.0041 15.9563L14.0048 15.9556ZM23.3927 20.0549L25.4819 7.15111H22.1455L20.0543 20.0549H23.3927ZM32.4976 6.92984C29.2011 6.92984 26.8906 8.67943 26.87 11.1906C26.8494 13.0412 28.5186 14.0652 29.7845 14.6891C31.0915 15.3118 31.5135 15.7337 31.5135 16.2965C31.5135 17.161 30.4689 17.5438 29.524 17.5438C28.1777 17.5438 27.4534 17.3823 26.3882 16.88L25.9457 16.6587L25.4832 19.5526C26.2673 19.9147 27.694 20.237 29.2017 20.237C32.6989 20.2576 34.9715 18.508 35.0113 15.8354C35.0113 14.3675 34.1076 13.2624 32.1966 12.3368C31.0317 11.7553 30.3286 11.3315 30.3286 10.7294C30.3286 10.1872 30.9307 9.62304 32.2377 9.62304C33.3235 9.60439 34.1263 9.82502 34.7303 10.1068L35.0319 10.2663L35.4931 7.47208C34.8293 7.21093 33.7847 6.9292 32.4982 6.9292L32.4976 6.92984ZM41.4629 7.15111C40.6583 7.15111 40.0549 7.39297 39.7133 8.23688L34.7682 20.0556H38.2654C38.8296 18.4687 38.9704 18.1259 38.9704 18.1259C39.3512 18.1259 42.7494 18.1259 43.2312 18.1259C43.2312 18.1259 43.3322 18.5684 43.6325 20.0556H46.7284L44.0352 7.15176H41.4623L41.4629 7.15111ZM39.914 15.4732C39.914 15.4732 40.1951 14.729 41.2417 11.875C41.2211 11.8956 41.5228 11.1308 41.6842 10.6484L41.9248 11.7547C42.5474 14.83 42.6896 15.4732 42.6896 15.4732C42.1666 15.4732 40.5778 15.4732 39.914 15.4732Z" fill="#FF4D00"/>
</g>
<defs>
<clipPath id="clip0_537_2932">
<rect width="41.1667" height="20.5833" fill="white" transform="translate(5.56238 3.29175)"/>
</clipPath>
</defs>
</svg>
