<svg width="109" height="75" viewBox="0 0 109 75" fill="none" xmlns="http://www.w3.org/2000/svg">
<path d="M20.982 26.5643L21.1281 26.2717C21.1625 26.1943 21.2484 26.1426 21.3343 26.1426C21.4117 26.1426 21.4804 26.1082 21.5234 26.0393L21.9616 25.3767L22.8124 25.6951C23.0701 25.7898 23.1819 26.091 23.0616 26.332C23.0358 26.375 23.01 26.418 22.9756 26.4524L21.6265 27.8036C20.6469 28.7847 19.8391 29.9293 19.2462 31.1859L18.7306 32.2616C17.7596 34.3013 17.1495 36.4959 16.9433 38.7507L16.9003 39.2068C16.6167 42.2104 16.969 45.2484 17.9143 48.1142L18.1893 48.9577C18.4385 49.7064 18.7478 50.4379 19.1173 51.135C20.3032 53.3726 22.0476 55.266 24.1958 56.6086L25.502 57.4262C28.0026 58.9925 30.8555 59.9133 33.8029 60.1113C36.0285 60.2576 38.2628 59.9908 40.3852 59.3109C42.0781 58.7687 43.685 57.9769 45.1458 56.9614L46.5809 55.9545C48.162 54.8529 49.5541 53.4931 50.697 51.9354C51.9773 50.1883 52.9312 48.2089 53.4983 46.1176L54.2115 43.5013C54.7271 41.608 54.7271 39.6113 54.2115 37.7094L53.885 36.7282C52.8882 33.7247 51.3414 30.9277 49.3307 28.4835L47.6464 26.4352C46.6152 25.1873 45.3521 24.1546 43.9256 23.3972C42.4132 22.5969 40.7462 22.1149 39.0361 21.9944L37.9534 21.917L35.8567 21.6502C34.6451 21.4781 33.4076 21.5039 32.196 21.7276L31.7492 21.8137C30.4688 22.0547 29.2314 22.4678 28.0713 23.053L27.7276 23.2251L24.6685 25.0668C24.1185 25.3939 23.4482 25.4541 22.8553 25.2131L22.546 25.0841C22.546 25.0841 22.4686 25.0582 22.4343 25.0582H22.3913C22.1077 25.0582 21.996 24.6882 22.228 24.5333L25.3731 22.6915C26.0691 22.3387 26.8081 22.0891 27.5729 21.9342L31.6632 21.1166L33.7943 20.7637C35.513 20.4797 37.2659 20.4539 38.9846 20.7035C40.9094 20.9789 42.7655 21.5813 44.4842 22.4936L44.5443 22.528C46.0825 23.3456 47.4917 24.387 48.7291 25.6176L51.9688 28.8708C53.103 30.0068 53.9967 31.358 54.6068 32.8468L55.1912 34.2841C55.406 34.8091 55.5177 35.3599 55.5177 35.9279V36.6508C55.5177 37.1586 55.6896 37.6577 56.0075 38.0536C56.3684 38.5011 56.5403 39.0691 56.4887 39.6457L56.3083 41.8145C56.3083 41.8834 56.2911 41.9436 56.2739 42.0125L54.7271 47.4516C54.5896 47.9249 55.2599 48.1917 55.4919 47.7528C55.5091 47.7184 55.5263 47.6839 55.5263 47.6495L55.6466 47.0299C55.7239 46.6254 56.3255 46.7028 56.2997 47.1159C56.2997 47.159 56.2825 47.202 56.2653 47.245L55.0795 49.6289C54.4951 50.7994 53.7389 51.8838 52.8367 52.8304L51.1524 54.6033C49.6916 56.1438 48.0503 57.4864 46.2543 58.6138L44.4326 59.7584C43.2639 60.49 41.9836 61.0235 40.643 61.3334C39.7236 61.5485 38.7869 61.6518 37.8503 61.6518H36.3293C34.6279 61.6518 32.9264 61.4625 31.2594 61.0838C29.0939 60.5932 27.0144 59.7843 25.0809 58.6827L24.8919 58.5794C22.9498 57.4778 21.1625 56.0664 19.6329 54.4398C18.4041 53.1317 17.3214 51.6514 16.4535 50.0765L15.9293 48.7597L15.3106 46.8922C15.1989 46.5651 15.1473 46.2123 15.1473 45.868C15.1473 46.0402 15.1817 46.2123 15.2504 46.3758L16.7112 49.8011C16.7112 49.8011 16.7198 49.8269 16.7284 49.8355C16.8745 50.0592 17.2182 49.8871 17.1237 49.6375L15.7402 45.8078C15.6973 45.6787 15.6113 45.5668 15.4996 45.4807L14.9583 45.0763C14.7434 44.9127 14.6231 44.6632 14.6231 44.3964C14.6231 44.3275 14.6231 44.2587 14.5973 44.1898L14.4083 43.4325C14.3739 43.3034 14.3653 43.2173 14.3481 43.0624L14.3653 42.9075C14.394 42.7813 14.3968 42.655 14.3739 42.5288C14.351 42.4026 14.3481 42.3309 14.3653 42.3137V39.7232C14.3653 38.5614 14.5372 37.4081 14.8637 36.2979L14.984 35.902C15.0957 35.532 15.1731 35.1533 15.2246 34.766C15.3535 33.7591 15.6887 32.7952 16.23 31.9346L16.7284 31.1342L19.3064 26.9946C19.3321 26.9516 19.3751 26.9172 19.4267 26.9C19.6415 26.8311 19.822 27.0807 19.6845 27.2614L19.3407 27.7176C17.7768 29.9896 16.4964 32.451 15.5512 35.0414L15.1473 36.1344L14.9411 36.9606C14.7262 37.8126 14.6231 38.6819 14.6231 39.5511V40.842C14.6231 40.842 14.6231 40.8764 14.6231 40.8936C14.6833 41.126 15.0098 41.1088 15.0528 40.8764L15.1301 40.3859C15.1301 40.3859 15.1473 40.3256 15.1559 40.2912L15.2075 40.1793C15.3278 39.9384 15.3621 39.663 15.2934 39.3962L15.2676 39.2757C15.1817 38.94 15.2246 38.5786 15.3793 38.2601L15.4567 38.1052C15.5941 37.8384 15.6629 37.5372 15.6629 37.236V37.0983C15.6629 36.7971 15.7144 36.5045 15.8176 36.2205L16.823 33.4751C17.2698 32.253 17.8455 31.0912 18.5244 29.9896L19.8735 27.8294C20.0368 27.5712 20.2258 27.3303 20.4407 27.1151L20.8188 26.7364C20.8789 26.6762 20.9219 26.616 20.9562 26.5385L20.982 26.5643Z" fill="#FF4D00"/>
<path d="M12.3375 16.7447C12.2688 16.8479 12.1484 16.9082 12.0281 16.9082C11.8907 16.9082 11.7618 16.9856 11.693 17.1147L11.4524 17.5881C11.3923 17.7086 11.3149 17.8118 11.2204 17.9065L10.6017 18.5261C10.2494 18.879 9.94002 19.2749 9.67363 19.6966L7.46521 23.2337C6.33951 25.0324 5.40286 26.943 4.67245 28.9396L3.02257 33.4235C2.85071 33.8796 2.76478 34.3702 2.76478 34.8607V35.0931C2.76478 35.5836 2.65307 36.0742 2.42965 36.5131L2.30075 36.7713C2.04296 37.2877 1.98281 37.8729 2.1203 38.4237L2.17185 38.6216C2.27497 39.0519 2.23201 39.4995 2.03437 39.8953L1.94844 40.0761C1.92266 40.1191 1.90547 40.1707 1.89688 40.2224L1.76798 41.0228C1.70783 41.41 1.15787 41.4272 1.06335 41.0486C1.06335 41.0227 1.05475 40.9883 1.05475 40.9625V38.854C1.05475 37.4254 1.22661 36.0053 1.57893 34.6111L1.91406 33.26L2.57573 31.4699C4.13108 27.227 6.2278 23.2079 8.78854 19.49L9.3471 18.7499C9.57052 18.4487 9.27835 18.0356 8.91744 18.1561C8.83151 18.1819 8.76276 18.2421 8.71121 18.3196L4.4834 25.0841L3.66706 26.3922C2.79056 27.795 2.23201 29.3786 2.02577 31.0223C1.94844 31.6506 1.81954 32.2789 1.63049 32.8813L1.43285 33.5268C0.891483 35.3427 0.60791 37.2274 0.60791 39.1294V43.3636C0.60791 43.5099 0.668062 43.639 0.762586 43.7423C0.925855 43.9058 0.968821 44.1554 0.865704 44.362L0.753993 44.5857C0.659469 44.7751 0.63369 44.9902 0.685248 45.1968L0.9946 46.4361C1.02038 46.5479 1.03757 46.6598 1.03757 46.7717C1.03757 47.2106 1.2438 47.6151 1.58752 47.8733L2.47261 48.5446C2.65307 48.6823 2.79056 48.863 2.8679 49.0782L5.13648 55.3349C5.28256 55.748 4.72401 56.032 4.4834 55.6619C4.47481 55.6447 4.45762 55.6275 4.44903 55.6017L1.88828 49.6117V50.042L3.17725 53.9148L4.03656 56.0664C5.46301 58.6396 7.23319 61.058 9.24398 63.2009C11.7446 65.8602 14.6748 68.1753 17.8543 69.974L18.1636 70.1461C21.3345 71.9362 24.7459 73.2616 28.2949 74.0705C31.0189 74.6902 33.8031 75 36.5958 75H39.0964C40.6346 75 42.1727 74.8279 43.6765 74.475C45.8764 73.9673 47.9817 73.098 49.8979 71.8932L52.8798 70.0256C55.8272 68.1839 58.5254 65.9807 60.9143 63.4591L63.6727 60.5502C65.1507 59.0011 66.3881 57.2368 67.3419 55.3176L69.284 51.4276C69.3184 51.3588 69.3355 51.2899 69.3441 51.2125C69.3699 45.3689 68.3989 50.4121 68.27 51.0748L68.0638 52.0903C68.0552 52.1506 68.0294 52.2108 68.0036 52.2624C67.6169 52.9768 66.5342 52.5464 66.7576 51.7633L69.2926 42.8731C69.3184 42.7698 69.3441 42.6579 69.3527 42.5547L69.6449 39.0175C69.7222 38.0794 69.4387 37.15 68.8543 36.4098C68.3302 35.7558 68.0466 34.9468 68.0466 34.112V32.9243C68.0466 32.0035 67.8661 31.0912 67.5138 30.2392L66.5514 27.8897C65.5546 25.4627 64.0852 23.2596 62.229 21.4006L56.9099 16.0734C54.8905 14.0509 52.579 12.3469 50.0526 11.0129L49.9581 10.9613C47.1396 9.47243 44.089 8.48271 40.9353 8.03519C38.1082 7.6307 35.2467 7.66512 32.4282 8.13846L28.9394 8.72369L22.2282 10.0663C20.9736 10.3158 19.7619 10.7289 18.6276 11.3055L13.4718 14.3177C13.0851 14.5759 13.2656 15.1783 13.7296 15.1783H13.8069C13.8671 15.1783 13.9272 15.1869 13.9874 15.2128L14.503 15.4193C15.474 15.8066 16.5825 15.7205 17.4762 15.1783L22.4945 12.1662L23.0617 11.8822C24.9694 10.9269 26.9973 10.247 29.0855 9.8511L29.8159 9.7134C31.7923 9.34333 33.8203 9.3003 35.8053 9.58431L39.2425 10.0146L41.0127 10.1437C43.814 10.3417 46.538 11.1248 49.0129 12.4416C51.3502 13.6809 53.4297 15.3763 55.114 17.4159L57.8723 20.7552C61.1721 24.7484 63.7071 29.3269 65.3484 34.2497L65.8811 35.8418C66.7232 38.94 66.7232 42.2104 65.8811 45.3086L64.721 49.5859C63.7844 53.0198 62.229 56.2471 60.1237 59.113C58.2504 61.6604 55.9733 63.8808 53.3867 65.6795L51.0322 67.3233C48.6348 68.9929 46.0053 70.2924 43.2297 71.1789C39.7495 72.2891 36.0888 72.728 32.4454 72.487C27.6246 72.1686 22.9328 70.6539 18.8339 68.0892L16.6856 66.7467C13.1796 64.5521 10.3095 61.4625 8.36748 57.7962C7.76597 56.6516 7.25038 55.4553 6.83791 54.2247L6.38248 52.8563C4.81853 48.1659 4.25139 43.2087 4.71541 38.286L4.78416 37.5458C5.12788 33.8624 6.12468 30.265 7.71441 26.9344L8.54794 25.1873C9.52755 23.1391 10.8509 21.2629 12.4578 19.6536L14.6662 17.4418C14.7264 17.3815 14.7693 17.3213 14.8037 17.2438C15.0014 16.8393 14.8123 16.3574 14.3912 16.1939L12.9992 15.6689L12.2773 16.7533L12.3375 16.7447Z" fill="#FF4D00"/>
<path d="M75.0157 37.7179C74.3111 37.8642 73.9158 38.613 74.1822 39.2756C74.3884 39.7834 74.9126 40.076 75.454 39.9814L80.1716 39.1466C81.2629 38.9572 82.2941 38.5097 83.1792 37.8384L97.2976 27.2356L98.5179 26.3922C101.405 24.3869 104.636 22.9239 108.039 22.0719C105.504 21.7878 102.943 22.1665 100.597 23.1734L100.108 23.3886C98.8186 23.9394 97.5984 24.6623 96.4813 25.5143L92.5714 28.5265L85.3876 34.6369C84.4596 35.4287 83.351 35.9709 82.1566 36.2204L75.0071 37.7093L75.0157 37.7179Z" fill="#FF4D00"/>
<path d="M73.8296 34.2154C73.0304 34.3617 72.7297 35.3428 73.2968 35.9108C73.5288 36.1432 73.8554 36.2465 74.1733 36.1948L77.2324 35.687C78.2808 35.5149 79.269 35.1018 80.1369 34.4908L89.1339 28.105L92.2016 25.4543C96.4037 21.8225 101.379 19.189 106.75 17.7775L105.564 17.6571C103.51 17.4505 101.431 17.6398 99.4456 18.2079L98.5262 18.621C96.5927 19.4816 94.8999 20.8069 93.5937 22.4851C92.9149 23.363 92.1243 24.1461 91.2392 24.826L86.5732 28.389C84.5624 29.9209 82.3797 31.2118 80.0682 32.2188L76.9317 33.5957C76.7598 33.6732 76.588 33.7248 76.4075 33.7593L73.8382 34.224L73.8296 34.2154Z" fill="#FF4D00"/>
<path d="M69.5419 26.7365C69.1982 26.7796 68.9404 27.0722 68.9404 27.4164C68.9404 27.7951 69.2498 28.1049 69.6279 28.1049H72.5323C73.005 28.1049 73.469 28.0103 73.8986 27.8381L76.7602 26.6591C79.2607 25.6263 81.5121 24.0858 83.3768 22.1236L86.1696 19.1717C87.8538 17.3902 89.7873 15.8583 91.9012 14.6276C93.2073 13.8617 94.5823 13.2162 96.0001 12.6912L102.024 10.4708C98.9046 10.7548 95.8798 11.6671 93.1214 13.156L91.7122 13.9133L88.7389 15.8067C87.5703 16.5468 86.4875 17.416 85.5165 18.3971C84.2104 19.7053 82.7238 20.8155 81.0997 21.6847L72.9104 26.0997C72.5581 26.289 72.1714 26.4095 71.7761 26.4611L69.5419 26.7451V26.7365Z" fill="#FF4D00"/>
<path d="M72.2313 29.7057C71.8188 29.7745 71.5181 30.1274 71.5181 30.5491C71.5181 31.074 71.9821 31.4699 72.4977 31.3925L76.5966 30.7642C76.9317 30.7126 77.2497 30.6265 77.5676 30.4974L79.4065 29.7573C82.1391 28.6643 84.614 27.0291 86.6935 24.9464L87.4067 24.2321L89.555 22.5969C94.1265 19.1028 99.0246 16.0562 104.163 13.4744L96.3607 16.3144C95.2608 16.7103 94.2039 17.2008 93.1899 17.7861C92.2017 18.3541 91.2564 18.9995 90.3799 19.7225L86.9771 22.5109L83.8664 25.8931C82.543 27.3303 80.7814 28.2856 78.8566 28.6041L72.2313 29.7143V29.7057Z" fill="#FF4D00"/>
<path d="M69.6105 21.5125C69.2066 21.59 68.8973 21.917 68.8285 22.3215L68.6481 23.3887C68.5879 23.7415 68.9574 24.0083 69.2754 23.8534C69.3355 23.819 69.4043 23.8104 69.473 23.8104H70.762C71.544 23.8104 72.3173 23.6555 73.0392 23.3543L74.9382 22.5625C76.3733 21.9601 77.7138 21.1597 78.9254 20.1786L83.9782 16.0648L87.8365 12.7944C88.988 11.8219 90.2426 10.9871 91.5917 10.3159L94.8141 8.70651C95.3211 8.45693 95.8796 8.31923 96.4382 8.31923H97.2459C97.2459 8.31923 97.3147 8.31923 97.3405 8.29341C97.5467 8.19013 97.4694 7.88892 97.2459 7.88892H96.1031C96.0429 7.88892 95.9828 7.89752 95.9226 7.92334L92.7002 9.21427C90.6292 10.0491 88.7216 11.2453 87.0717 12.76L84.4078 15.2042L79.1918 18.8016C78.1005 19.5503 76.8631 20.0753 75.5655 20.3335L69.6105 21.5297V21.5125Z" fill="#FF4D00"/>
<path d="M40.4455 47.5893C40.1448 47.4602 39.8182 47.7012 39.8526 48.0282L39.8956 48.4069C39.9213 48.6565 40.0932 48.8716 40.3338 48.9491L41.554 49.3708C41.6743 49.4138 41.786 49.474 41.872 49.5601L43.075 50.6703C43.2726 50.8596 43.5992 50.6961 43.5648 50.4207C43.5648 50.3777 43.5476 50.3347 43.5219 50.2916L43.3414 50.0162C43.1438 49.7064 42.8516 49.474 42.5079 49.345L41.9063 49.1212C41.4681 48.9577 41.1158 48.6479 40.8924 48.2348L40.6518 47.7786C40.6088 47.6926 40.5315 47.6237 40.4369 47.5893H40.4455Z" fill="#FF4D00"/>
<path d="M39.8013 45.0161C39.6982 45.2915 39.9045 45.5755 40.1966 45.5669L42.448 45.4894C42.5511 45.4894 42.6628 45.4894 42.766 45.5066L45.7907 45.9025C45.9798 45.9283 46.1602 45.8165 46.229 45.6357C46.3321 45.3603 46.1259 45.0677 45.8337 45.0763L44.0979 45.1108C43.9432 45.1108 43.7885 45.0935 43.6425 45.0505L41.941 44.5772C41.7606 44.5255 41.5629 44.5858 41.4426 44.7407C41.3309 44.8784 41.1505 44.9472 40.97 44.9042L40.274 44.7493C40.0763 44.7063 39.8787 44.8181 39.8099 45.0075L39.8013 45.0161Z" fill="#FF4D00"/>
<path d="M39.93 41.7715C39.6979 41.8748 39.612 42.1674 39.7495 42.3826C39.887 42.5977 40.1792 42.6408 40.3682 42.4773L42.104 41.0486C42.3446 40.8507 42.6196 40.7044 42.9118 40.6097L44.4843 40.1105C44.5359 40.0933 44.5788 40.0761 44.6218 40.0503L45.1116 39.7835C45.3866 39.6372 45.4295 39.2499 45.1889 39.0434C44.9999 38.8799 44.7077 38.9057 44.5531 39.1036L44.2953 39.4221C44.1578 39.5942 43.9515 39.7061 43.7281 39.7319L43.3071 39.7749C42.9719 39.8093 42.654 39.9384 42.3876 40.1364L40.8065 41.3154C40.7463 41.3584 40.6776 41.4015 40.6088 41.4273L39.9214 41.7457L39.93 41.7715Z" fill="#FF4D00"/>
<path d="M28.6811 46.7976C28.621 46.7717 28.5437 46.7717 28.4835 46.7976L27.7359 47.0471C27.4437 47.1418 27.143 47.1848 26.8422 47.1676L26.3438 47.1418C25.9399 47.1246 25.5361 47.2537 25.2181 47.5033L24.7283 47.8905C24.6424 47.9594 24.5908 48.0627 24.5908 48.1659C24.5908 48.4155 24.8314 48.5877 25.0634 48.5016L26.5157 47.9938L28.6468 47.3398C28.9046 47.2623 28.9217 46.8922 28.6725 46.789L28.6811 46.7976Z" fill="#FF4D00"/>
<path d="M23.3623 42.219C23.6802 42.503 24.0755 42.6924 24.4966 42.7784L25.459 42.9678C25.8285 43.0452 26.1808 43.1485 26.5332 43.2862L30.1423 44.7321C30.2454 44.7751 30.3571 44.7493 30.4344 44.6718C30.5719 44.5341 30.5204 44.2931 30.3399 44.2157L27.719 43.2346C27.444 43.1313 27.1862 42.9678 26.98 42.7612L26.9113 42.6924C26.3441 42.1244 25.5364 41.8576 24.7372 41.9953L23.3623 42.219Z" fill="#FF4D00"/>
<path d="M25.7002 36.625C25.8892 37.4512 26.4048 38.1655 27.1352 38.5958L27.393 38.7507C27.8914 39.0519 28.3039 39.4737 28.5875 39.9728C28.8625 40.4548 29.2577 40.8679 29.7304 41.1605L30.7272 41.7887L29.6616 39.6458C29.5155 39.3532 29.3437 39.0692 29.146 38.811C28.5015 37.9417 27.6079 37.2963 26.5853 36.9348L25.7002 36.625Z" fill="#FF4D00"/>
<path d="M30.4947 26.4009C30.5807 26.4956 30.6838 26.5731 30.7869 26.6505C30.9674 26.7796 31.1306 26.9345 31.3454 27.0034C31.5603 27.0722 31.7235 27.2013 31.9126 27.3132C32.1532 27.4509 32.368 27.6144 32.5914 27.7693C32.7289 27.864 32.8836 27.9414 33.0297 28.0189C33.1758 28.105 33.3906 28.0447 33.5367 28.1222C33.7773 28.2599 33.9406 28.3115 34.1726 28.4664C34.396 28.6127 34.7913 28.7074 35.0405 28.8279C35.6334 29.1205 36.0631 29.6799 36.7161 29.8176C37.0513 29.8864 37.3864 29.7487 37.7301 29.8176C37.8934 29.852 38.0567 29.8778 38.2113 29.9553C38.4434 30.0758 38.3918 30.0155 38.5894 30.0586C38.7785 30.1016 38.9589 30.1618 39.148 30.2049C39.3027 30.2393 39.4573 30.2909 39.612 30.3254C39.7065 30.3512 39.8097 30.3426 39.9128 30.3426C40.1362 30.3426 40.3596 30.3426 40.583 30.3426C40.6432 30.3426 40.7033 30.3426 40.7549 30.3426C41.0557 30.3598 41.2275 30.7385 41.2963 31.0139C41.3392 31.186 41.3392 31.3581 41.3392 31.5388C41.3392 31.7626 41.2619 31.9605 41.2361 32.1757C41.2189 32.3306 41.1845 32.4855 41.1416 32.6404C41.1244 32.7007 41.1072 32.7609 41.0728 32.8126C40.9439 32.9847 40.8752 33.1912 40.7979 33.3892C40.6604 33.7248 40.5487 34.0863 40.394 34.4133C40.2651 34.6973 40.2823 35.0157 40.119 35.2825C40.0846 35.3428 40.0846 35.4202 40.0589 35.4805C39.9643 35.7214 39.887 35.9882 39.8097 36.2292C39.7495 36.4099 39.6894 36.5562 39.6206 36.737C39.5605 36.8833 39.5519 37.0296 39.4659 37.1673C39.4402 37.2103 39.4402 37.2792 39.4316 37.3308C39.4144 37.4427 39.38 37.5546 39.3284 37.6578C39.2769 37.7611 39.2855 37.8816 39.2339 37.9849C39.1566 38.157 38.9933 38.3463 38.8816 38.5185C38.7785 38.6734 38.6324 38.7939 38.5379 38.9402C38.4434 39.1037 38.2887 39.207 38.177 39.3619C38.0824 39.5082 38.0996 39.5684 37.9793 39.7061C37.9535 39.7319 37.8418 39.8868 37.8246 39.9127C37.7129 40.0848 37.6872 40.1192 37.5239 40.2225C37.4723 40.2569 37.438 40.3086 37.4036 40.3688C37.3606 40.4463 37.2661 40.4635 37.1888 40.4807C37.0599 40.5065 36.9482 40.5581 36.8278 40.584C36.5271 40.6356 36.2263 40.6442 35.9256 40.6098C35.8568 40.6098 35.8396 40.627 35.831 40.6872C35.831 40.713 35.831 40.7389 35.831 40.7561C35.9256 40.9626 35.9084 41.1864 35.8912 41.3929C35.874 41.7372 35.8826 42.0814 35.874 42.4171C35.8654 42.8732 35.8568 43.3379 35.874 43.8027C35.8826 44.1469 35.8826 44.4912 35.8912 44.8354C35.8912 44.9301 35.8912 45.0334 35.8912 45.128C35.8826 45.3518 35.8912 45.5669 35.9428 45.7907C35.9943 45.9886 35.9943 46.1952 36.0373 46.3931C36.0545 46.4964 36.0717 46.6083 36.0631 46.7116C36.0631 46.8062 36.106 46.8923 36.106 46.987C36.106 47.314 36.106 47.6324 36.0802 47.9595C36.0717 48.1144 36.0287 48.2607 35.9943 48.4156C35.9771 48.5017 35.9943 48.5877 35.9771 48.6652C35.9256 48.9492 35.917 49.2418 35.8654 49.5344C35.831 49.7323 35.9428 49.8528 36.1404 49.9647C36.2091 49.9647 36.2263 49.9991 36.2779 50.025C36.5185 50.2143 36.5185 50.0852 36.7849 50.1282C36.9997 50.1627 37.2059 50.2143 37.4208 50.2831C37.5926 50.3348 37.7817 50.3778 37.9793 50.3778C38.1426 50.3778 38.3145 50.4208 38.4777 50.4553C38.5379 50.4639 38.5894 50.4811 38.6496 50.4725C38.7097 50.4725 38.7613 50.4725 38.8214 50.4983C38.8816 50.5241 39.0019 50.5844 39.0706 50.593C39.2683 50.6188 39.5003 50.6876 39.6808 50.7479C39.8784 50.8081 40.1104 50.9544 40.2823 51.0663C40.4541 51.1782 40.5487 51.2384 40.6432 51.4278C40.6604 51.4536 40.8322 51.6687 40.858 51.6946C40.9869 51.8064 40.9697 51.8839 41.0728 52.013C41.2103 52.1851 41.1502 52.3744 41.2189 52.5724C41.2189 52.5896 41.2275 52.6068 41.2189 52.624C41.1846 52.7961 41.2017 52.9769 41.1072 53.1404C41.1072 53.149 41.09 53.1662 41.09 53.1834C41.0299 53.5363 40.7721 53.7773 40.5401 54.0268C40.4026 54.1817 40.2135 54.3108 40.0073 54.3883C39.93 54.4141 39.8698 54.4657 39.7925 54.5002C39.569 54.5948 39.337 54.6551 39.1136 54.7325C38.9246 54.8014 38.7355 54.767 38.5465 54.8186C38.4434 54.8444 38.3316 54.853 38.2199 54.8444C38.0824 54.8358 37.9364 54.8616 37.7989 54.8875C37.7387 54.8961 37.6872 54.8875 37.627 54.8875C37.4809 54.8616 37.3262 54.8616 37.1802 54.8875C36.9825 54.9133 36.7849 54.9305 36.5872 54.8702C36.5357 54.853 36.4841 54.8616 36.4326 54.8702C36.3294 54.8875 36.2091 54.8702 36.1146 54.8961C35.9428 54.9477 35.7709 54.9047 35.599 54.8961C35.3928 54.8961 35.1866 54.9133 34.9803 54.8788C34.9631 54.8788 34.9546 54.8788 34.9374 54.8788C34.7397 54.9133 34.5335 54.8788 34.3358 54.8702C34.0007 54.8616 33.6656 54.853 33.3476 54.7498C33.3305 54.7498 33.3133 54.7411 33.2875 54.7411C33.1328 54.7411 32.9781 54.7067 32.8321 54.6551C32.7032 54.6121 32.5657 54.6034 32.4368 54.5862C32.2305 54.5604 32.0415 54.5088 31.8353 54.4744C31.672 54.4399 31.5001 54.4227 31.3283 54.3969C31.2681 54.3969 31.208 54.3797 31.1564 54.3281C31.1392 54.3108 31.1134 54.2936 31.0962 54.2936C30.9588 54.2936 30.847 54.1731 30.7096 54.1904C30.6924 54.1904 30.658 54.1817 30.6408 54.1645C30.4518 54.0613 30.2455 54.0182 30.0651 53.9063C29.9104 53.8117 29.7299 53.8289 29.5839 53.717C29.5839 53.717 29.5667 53.7084 29.5581 53.7084C29.2831 53.6912 29.0339 53.5621 28.7589 53.5105C28.5097 53.4674 28.2691 53.3986 28.0285 53.3297C27.8137 53.2609 27.5989 53.1748 27.4012 53.0802C27.2208 52.9941 27.0575 52.865 26.9028 52.7359C27.0317 52.8306 26.645 52.1249 26.645 52.0818C26.645 51.9613 26.645 51.8323 26.645 51.7118C26.645 51.6085 26.7052 51.5224 26.6966 51.4192C26.688 51.1438 26.8427 50.9888 27.0747 50.8856C27.2379 50.8081 27.4184 50.7565 27.5903 50.6962C27.9168 50.5844 28.2605 50.5499 28.5957 50.4897C28.8706 50.4467 29.1284 50.3692 29.4034 50.3434C29.7643 50.3004 30.1338 50.2401 30.4947 50.2057C30.7611 50.1799 31.0275 50.2057 31.2853 50.1196C31.2939 50.1196 31.3025 50.1196 31.3111 50.1196C31.5087 50.1454 31.7064 50.111 31.904 50.0938C31.9642 50.0938 32.0243 50.0938 32.0759 50.0852C32.3766 50.0508 32.686 50.068 32.9867 50.0852C33.2187 50.1024 33.4336 50.0508 33.5539 49.827C33.5711 49.7926 33.5968 49.7668 33.6312 49.7409C33.7171 49.6635 33.8031 49.5774 33.8718 49.4828C33.9835 49.3365 34.1468 49.2332 34.2929 49.1213C34.3273 49.0955 34.3616 49.0697 34.3874 49.0352C34.4733 48.9492 34.5163 48.8373 34.5936 48.7426C34.6452 48.6824 34.6194 48.5963 34.6194 48.5189C34.6194 48.3553 34.671 48.1918 34.6538 48.0283C34.628 47.8304 34.6882 47.6496 34.671 47.4517C34.6538 47.271 34.6108 47.0816 34.671 46.8923C34.6968 46.8148 34.671 46.7116 34.671 46.6255C34.671 46.462 34.6796 46.3071 34.671 46.1436C34.671 46.0489 34.6538 45.9542 34.6882 45.8596C34.6882 45.8423 34.6968 45.8251 34.6882 45.8079C34.6452 45.61 34.6452 45.4034 34.6452 45.2055C34.6452 44.9129 34.5765 44.6203 34.6022 44.319C34.6194 44.1555 34.5679 43.992 34.5679 43.8285C34.5679 43.6391 34.5679 43.4498 34.5679 43.2691C34.5679 43.0884 34.585 42.9162 34.5507 42.7355C34.5335 42.6494 34.5335 42.572 34.5507 42.4859C34.5679 42.4171 34.585 42.3396 34.5507 42.2622C34.5421 42.2449 34.5507 42.2191 34.5507 42.1933C34.5765 42.004 34.5679 41.806 34.5679 41.6167C34.5679 41.3757 34.5335 41.1347 34.5335 40.9024C34.5335 40.713 34.439 40.5323 34.4647 40.343C34.4647 40.2999 34.439 40.2655 34.396 40.2483C34.207 40.1709 34.0437 40.0332 33.8374 39.9815C33.8031 39.9815 33.7687 39.9643 33.7429 39.9385C33.6484 39.8266 33.5109 39.8008 33.3992 39.7405C33.2531 39.6545 33.0984 39.577 32.9867 39.4307C32.9094 39.3188 32.7891 39.25 32.6774 39.1725C32.6 39.1209 32.5313 39.0607 32.4797 38.9832C32.4282 38.8971 32.3508 38.8455 32.2821 38.7853C32.1188 38.6217 31.9298 38.4754 31.8095 38.2775C31.7493 38.1828 31.6806 38.0882 31.5861 38.0193C31.5001 37.9505 31.44 37.8558 31.3798 37.7611C31.2853 37.6234 31.208 37.4599 31.1048 37.3308C30.9674 37.1587 30.8814 36.9607 30.7955 36.7628C30.7611 36.6939 30.7096 36.6337 30.6666 36.5735C30.5377 36.3927 30.4775 36.1776 30.3315 36.0055C30.2885 35.9538 30.2713 35.885 30.2455 35.8247C30.2112 35.7473 30.1768 35.6698 30.108 35.6096C30.0823 35.5924 30.0737 35.5579 30.0737 35.5321C30.0737 35.4977 30.0651 35.4633 30.0479 35.4374C30.1682 35.6526 29.9963 35.3858 29.8417 34.8178C29.7901 34.6371 29.7385 34.4477 29.7299 34.267C29.7299 34.0777 29.6698 33.8969 29.6354 33.7162C29.6354 33.6818 29.6354 33.6474 29.6354 33.6215C29.6612 33.5183 29.6612 33.4236 29.6268 33.3289C29.6182 33.3031 29.6096 33.2687 29.6182 33.2429C29.6612 33.1224 29.6182 33.0019 29.6182 32.8814C29.6268 32.7265 29.601 32.5716 29.5925 32.4167C29.5925 32.3392 29.5753 32.2618 29.5581 32.1929C29.5237 32.0294 29.5839 31.8745 29.5667 31.7196C29.5667 31.711 29.5667 31.7024 29.5667 31.6937C29.5237 31.4097 29.5925 31.1257 29.5753 30.8417C29.5753 30.7815 29.5753 30.7212 29.601 30.661C29.6268 30.5577 29.6956 30.4545 29.6354 30.3426C29.6268 30.3254 29.6354 30.2995 29.6354 30.2737C29.6784 30.136 29.7128 29.9897 29.6956 29.8434C29.6956 29.8262 29.6956 29.809 29.7042 29.7918C29.7815 29.6369 29.7643 29.4647 29.7901 29.3098C29.8245 29.1033 29.8331 28.9053 29.8932 28.6988C29.9276 28.5697 29.9448 28.432 29.9534 28.2943C29.962 28.0275 30.0307 27.7779 30.0479 27.5111C30.0651 27.2529 30.1166 27.0034 30.1768 26.7624C30.1854 26.7194 30.1768 26.6935 30.151 26.6591C30.1338 26.6419 30.108 26.6161 30.0909 26.5989C29.9534 26.444 29.9877 26.2718 30.1768 26.1858C30.2713 26.1427 30.3658 26.0997 30.4775 26.1169C30.4861 26.1169 30.4947 26.1169 30.5033 26.1169C30.7525 26.0481 31.0103 26.0739 31.2595 26.0137C31.397 25.9792 31.5431 25.9706 31.6892 25.9448C31.7923 25.9276 31.904 25.962 32.0157 25.9362C32.2391 25.8846 32.454 25.8329 32.6688 25.8673C32.7719 25.8846 32.9008 25.876 33.0039 25.9018C33.1414 25.9362 33.3133 25.9362 33.4594 25.9448C33.614 25.9448 33.8718 25.9964 34.0179 26.0309C34.2499 26.0825 34.3616 26.1255 34.5936 26.1858C34.628 26.1858 34.8772 26.2977 34.9116 26.3149C35.092 26.4009 35.0405 26.3923 35.2295 26.4526C35.2553 26.4612 35.4186 26.5386 35.4444 26.5472C35.6506 26.6677 35.7193 26.814 35.9514 26.8829C36.1232 26.9345 36.2951 26.9689 36.4583 27.055C36.5615 27.1152 36.6904 27.1497 36.8107 27.1927C37.077 27.2788 37.3348 27.3648 37.584 27.4767C37.8246 27.5886 38.0738 27.7005 38.3145 27.8296C38.3918 27.8726 38.4777 27.9156 38.5637 27.9414C38.684 27.9845 38.7957 28.0275 38.9074 28.0877C38.9933 28.1394 39.0878 28.1738 39.191 28.191C39.337 28.2082 39.4487 28.3029 39.5776 28.3545C39.8698 28.4836 40.1362 28.6558 40.394 28.8365C40.5916 28.9742 40.8065 29.1033 41.0213 29.2238C41.1846 29.3098 41.3306 29.4217 41.4853 29.525C41.6142 29.611 41.7173 29.7315 41.8204 29.8434C41.9579 29.9983 41.9579 30.2307 41.829 30.3942C41.829 30.3942 41.8118 30.4114 41.8118 30.42C41.7431 30.6438 41.5541 30.6352 41.3736 30.6352C41.2705 30.6352 41.2447 30.6008 41.2705 30.4975C41.2877 30.4286 41.3049 30.3598 41.3736 30.3168C41.4166 30.2909 41.4338 30.2479 41.4509 30.2049C41.5369 30.0155 41.5455 29.9467 41.365 29.8004C41.2447 29.6971 41.133 29.5938 41.0127 29.4906C40.9525 29.4389 40.8838 29.3959 40.8065 29.3529C40.5658 29.2066 40.3252 29.0775 40.1018 28.9053C39.8354 28.7074 39.5433 28.5611 39.2339 28.4492C39.0191 28.3718 38.8043 28.2857 38.598 28.2082C38.5035 28.1738 38.409 28.1394 38.3059 28.1136C38.134 28.0705 37.9707 27.9931 37.8075 27.907C37.6872 27.8468 37.5583 27.7865 37.4208 27.7435C37.1716 27.6574 36.931 27.5542 36.6904 27.4509C36.5701 27.3993 36.4498 27.3648 36.3209 27.3304C36.1576 27.2874 35.9943 27.2357 35.8482 27.1669C35.8053 27.1411 35.7623 27.1325 35.7107 27.1152C35.5045 27.055 35.3155 26.9603 35.1264 26.8657C34.9546 26.7882 34.7827 26.6935 34.6022 26.6247C34.5421 26.5989 34.4733 26.5731 34.4132 26.5472C34.3616 26.5214 34.3187 26.4956 34.2671 26.487C34.0007 26.444 33.7429 26.3493 33.4679 26.3235C33.3219 26.3063 33.1844 26.2632 33.0383 26.2546C32.6516 26.2202 32.2563 26.16 31.861 26.2116C31.5861 26.246 31.3111 26.3063 31.0361 26.3407C30.8814 26.3579 30.7182 26.3837 30.5635 26.4181C30.5377 26.4181 30.5205 26.4181 30.4947 26.4526V26.4009ZM30.4002 26.9087C30.4174 27.0292 30.383 27.1411 30.3916 27.2529C30.3916 27.3648 30.3916 27.4767 30.3658 27.5886C30.3486 27.6919 30.3486 27.7951 30.3658 27.8984C30.383 28.0103 30.3744 28.1136 30.3658 28.2168C30.3658 28.4234 30.615 28.6472 30.5893 28.8623C30.5807 28.9484 30.6408 29.0861 30.6408 29.1635C30.6322 29.3615 30.6236 29.7229 30.5978 29.9209C30.5978 29.9639 30.5893 30.0155 30.5807 30.0586C30.5807 30.2393 30.5291 30.4114 30.5033 30.5922C30.4861 30.7126 30.4346 30.8245 30.4861 30.9536C30.4947 30.988 30.4947 31.0225 30.4775 31.0483C30.4174 31.1343 30.4346 31.2204 30.4432 31.3151C30.4604 31.4614 30.426 31.6077 30.4174 31.754C30.4174 31.7884 30.3916 31.8142 30.4002 31.8487C30.4432 32.0208 30.4002 32.1929 30.4002 32.3736C30.4002 32.6146 30.3572 32.847 30.3916 33.0879C30.3916 33.1482 30.3572 33.1912 30.383 33.2515C30.4088 33.3117 30.3916 33.3806 30.3916 33.4494C30.3916 33.6043 30.3572 33.7592 30.4174 33.9141C30.4174 33.9314 30.4174 33.9572 30.4174 33.983C30.4088 34.1551 30.4088 34.3359 30.4604 34.4994C30.5291 34.7231 30.426 34.7231 30.5205 34.9383C30.5205 34.9555 30.5205 34.9727 30.5205 34.9899C30.5205 35.0674 30.5463 35.1534 30.5807 35.2223C30.7439 35.5321 30.6064 35.8764 30.847 36.1432C30.8642 36.1604 30.8728 36.1862 30.8814 36.2034C30.9158 36.3239 30.9931 36.4185 31.0619 36.5132C31.1564 36.6509 31.2423 36.7886 31.3283 36.9263C31.4314 37.0812 31.5087 37.2447 31.6376 37.3824C31.7493 37.5029 31.8353 37.6406 31.947 37.7525C32.0157 37.8214 32.093 37.9074 32.1446 37.9935C32.2305 38.1484 32.3852 38.2345 32.4883 38.3722C32.5485 38.441 32.6344 38.5099 32.7032 38.5787C32.8063 38.682 32.918 38.7853 33.0383 38.8713C33.1414 38.9488 33.2617 39.009 33.3562 39.0951C33.5539 39.2586 33.8031 39.3361 33.9921 39.5082C34.0179 39.534 34.0695 39.5426 34.1124 39.5512C34.2327 39.577 34.3358 39.6373 34.4304 39.7147C34.4991 39.7664 34.5679 39.8008 34.6538 39.8094C34.7139 39.8094 34.7827 39.8266 34.8171 39.8868C34.8944 39.9987 34.9975 39.9987 35.1092 39.9643C35.5475 40.102 35.2983 40.0934 35.4615 40.102C35.5389 40.102 35.5647 40.2053 35.642 40.1967C35.7709 40.1795 35.8912 40.2053 36.0201 40.2397C36.2521 40.2913 36.4583 40.2397 36.6646 40.145C36.9224 40.0245 37.0942 39.8008 37.3262 39.6459C37.3434 39.6373 37.352 39.6201 37.3606 39.6028C37.4637 39.4651 37.6356 39.3791 37.6958 39.207C37.6958 39.1897 37.7215 39.1811 37.7387 39.1725C37.8848 39.0779 37.945 38.9057 38.0996 38.8111C38.1168 38.8025 38.1254 38.768 38.134 38.7508C38.1684 38.6648 38.2199 38.5959 38.3145 38.5529C38.3746 38.5271 38.4176 38.484 38.4348 38.4238C38.4863 38.2603 38.5722 38.114 38.6496 37.9591C38.6926 37.8644 38.7527 37.7783 38.7269 37.6664C38.7183 37.6234 38.7355 37.5804 38.7613 37.546C38.8043 37.4771 38.83 37.3997 38.8472 37.3222C38.873 37.1931 38.8988 37.0726 38.9675 36.9607C39.0449 36.8316 39.0878 36.6767 39.1652 36.539C39.2683 36.3755 39.3456 36.1948 39.423 36.0227C39.5433 35.7387 39.6292 35.446 39.7667 35.1707C39.844 35.0071 39.9386 34.8522 40.0159 34.6973C40.1878 34.3445 40.3424 33.9744 40.4627 33.5957C40.4885 33.5183 40.4971 33.4408 40.5315 33.3633C40.6432 33.1568 40.7119 32.9244 40.7893 32.7007C40.8666 32.4683 40.7979 32.2273 40.8666 31.995C40.8666 31.9864 40.8666 31.9691 40.8666 31.9519C40.8838 31.8573 40.8494 31.7626 40.8666 31.6679C40.8924 31.4097 40.8752 31.1516 40.8924 30.8934C40.8924 30.8245 40.8666 30.7471 40.7807 30.7299C40.6862 30.7126 40.5916 30.6868 40.4971 30.7212C40.2995 30.7815 40.0932 30.7729 39.8956 30.7815C39.7237 30.7815 39.5519 30.7471 39.3714 30.7643C39.337 30.7643 39.3027 30.7643 39.2683 30.7471C39.1136 30.6868 38.9503 30.6782 38.7871 30.6266C38.6668 30.5835 38.5379 30.5749 38.4348 30.4889C38.4262 30.4803 38.4004 30.4803 38.3746 30.4803C38.2801 30.4803 38.1942 30.4372 38.1082 30.4028C38.0223 30.3598 37.9364 30.3426 37.8418 30.3254C37.6614 30.2909 37.4809 30.1963 37.3091 30.1446C37.1114 30.0844 37.1372 30.0758 36.888 30.0327C36.8193 30.0155 36.7505 29.9897 36.6818 29.9553C36.6044 29.9123 36.5185 29.8864 36.4326 29.8692C36.2607 29.8434 36.0974 29.7832 35.9256 29.7315C35.2983 29.5508 34.7139 29.284 34.1554 28.9398C33.7945 28.716 33.425 28.5095 33.0555 28.2943C32.9867 28.2599 32.918 28.2168 32.8492 28.191C32.5571 28.0964 32.2993 27.9328 32.0415 27.7779C31.9126 27.7091 31.7665 27.6747 31.6548 27.5628C31.6118 27.5197 31.5345 27.5197 31.4829 27.4853C31.3025 27.3734 31.1134 27.2874 30.9072 27.2271C30.89 27.2271 30.8642 27.2099 30.8556 27.2013C30.7611 27.098 30.6236 27.0464 30.5205 26.9517C30.4775 26.9173 30.4432 26.8829 30.3744 26.8829L30.4002 26.9087ZM35.0749 48.5619C35.0749 48.6221 35.0749 48.6738 35.0491 48.7254C34.9975 48.9061 34.9631 49.0955 34.7741 49.1988C34.7483 49.2074 34.7311 49.2418 34.7139 49.259C34.5765 49.3365 34.5163 49.4828 34.3702 49.5688C34.2327 49.6463 34.1382 49.8012 34.0351 49.9303C33.932 50.0594 33.8117 50.1627 33.6914 50.2659C33.657 50.2917 33.6226 50.3176 33.5797 50.3262C33.2875 50.4122 32.9867 50.4122 32.686 50.395C32.5227 50.3778 32.3508 50.4122 32.1876 50.3606C32.1704 50.3606 32.136 50.3606 32.1188 50.3692C32.0587 50.3864 31.9985 50.3864 31.9298 50.3692C31.8696 50.3606 31.8009 50.3606 31.7407 50.3692C31.6634 50.3864 31.5775 50.4122 31.5001 50.4122C31.2939 50.395 31.0962 50.4208 30.89 50.4294C30.7096 50.4294 30.5291 50.4553 30.3486 50.4725C30.1338 50.4897 29.919 50.5069 29.6956 50.5241C29.6096 50.5241 29.5323 50.5499 29.455 50.5671C29.3175 50.593 29.1714 50.5671 29.0339 50.6102C28.8449 50.6618 28.6472 50.679 28.4496 50.7048C28.0715 50.7651 27.7192 50.9028 27.3497 51.0061C27.1005 51.0749 27.0403 51.1868 26.9973 51.445C26.963 51.6601 26.9802 51.8753 26.9887 52.0904C26.9887 52.3228 27.0919 52.4777 27.2809 52.6068C27.4184 52.7015 27.5473 52.624 27.6934 52.6929C28.0457 52.865 28.3293 53.0457 28.7074 53.1318C28.8878 53.1748 29.0855 53.1662 29.2573 53.2609C29.2917 53.2781 29.3433 53.2781 29.3862 53.2867C29.4292 53.2867 29.4722 53.2953 29.5151 53.3125C29.7385 53.4072 29.9706 53.4588 30.2026 53.5363C30.383 53.5965 30.5635 53.6309 30.7267 53.7342C30.7697 53.76 30.8213 53.7686 30.8642 53.7773C30.9416 53.7859 31.0103 53.8117 31.0705 53.8375C31.1306 53.8633 31.1908 53.8719 31.2509 53.8891C31.4314 53.9666 31.6376 53.958 31.8181 54.0527C31.8782 54.0871 31.947 54.0871 32.0157 54.0871C32.0759 54.0871 32.136 54.0871 32.1876 54.1043C32.3938 54.2076 32.6172 54.2076 32.8406 54.242C33.0039 54.2678 33.1672 54.2936 33.3219 54.3108C33.5195 54.3367 33.7257 54.3797 33.9234 54.4055C34.1296 54.4313 34.3444 54.4485 34.5593 54.4657C34.8085 54.483 35.0663 54.4744 35.3155 54.483C35.5303 54.483 35.7365 54.483 35.9514 54.4571C36.0802 54.4485 36.2006 54.4744 36.3294 54.4571C36.4755 54.4399 36.6216 54.5002 36.7677 54.4227C36.7763 54.4227 36.7935 54.4227 36.8107 54.4227C36.931 54.4485 37.0513 54.4227 37.1716 54.483C37.1974 54.4916 37.2317 54.4916 37.2575 54.483C37.5583 54.4657 37.859 54.4485 38.1684 54.483C38.2371 54.483 38.3145 54.483 38.3832 54.4657C38.5035 54.4227 38.6238 54.4313 38.7441 54.4313C38.7785 54.4313 38.8214 54.4399 38.8558 54.4313C39.105 54.3539 39.3628 54.2764 39.612 54.1904C39.6464 54.1817 39.6722 54.1645 39.7065 54.1473C39.9214 54.0182 40.1276 53.8633 40.3252 53.7084C40.351 53.6912 40.3682 53.674 40.3854 53.6482C40.4971 53.4158 40.6947 53.2265 40.7807 52.9855C40.8236 52.8564 40.8838 52.7187 40.8408 52.5896C40.7893 52.383 40.6776 52.1937 40.5487 52.0044C40.4627 51.8753 40.351 51.7634 40.2565 51.6343C40.1706 51.5052 40.0331 51.4192 39.9471 51.2987C39.93 51.2729 39.8956 51.2556 39.8612 51.247C39.7667 51.1954 39.6722 51.1438 39.5776 51.0921C39.5175 51.0577 39.4487 51.0233 39.3714 51.0147C39.2511 50.9975 39.1394 50.9544 39.0191 50.92C38.7871 50.8511 38.5551 50.7909 38.3145 50.7565C38.1168 50.7221 37.9106 50.7307 37.7129 50.6876C37.627 50.6704 37.5411 50.636 37.4551 50.6274C37.1716 50.6016 36.9224 50.5155 36.6474 50.4294C36.4326 50.3606 36.1834 50.3692 35.9857 50.2487C35.9256 50.2057 35.8654 50.1799 35.7709 50.0938C35.7709 50.0938 35.7279 50.0852 35.642 49.9561H35.6334C35.4444 49.7926 35.4444 49.7582 35.4787 49.6291C35.5303 49.4139 35.5303 49.1988 35.5561 48.9836C35.599 48.6824 35.6506 48.3812 35.6764 48.08C35.685 47.9509 35.7279 47.8218 35.7279 47.6927C35.7279 47.5205 35.7795 47.3484 35.7279 47.1763C35.7279 47.1591 35.7279 47.1505 35.7279 47.1333C35.7451 46.8579 35.7451 46.5911 35.6936 46.3157C35.6936 46.2726 35.6678 46.2296 35.6678 46.1952C35.6506 45.8337 35.5733 45.4637 35.599 45.0936C35.6162 44.7493 35.5733 44.3965 35.5818 44.0436C35.5818 43.8973 35.5647 43.7424 35.5647 43.5961C35.5647 43.4068 35.5647 43.2088 35.5475 43.0195C35.5303 42.8388 35.4959 42.658 35.4787 42.4687C35.4615 42.3052 35.4701 42.1331 35.4615 41.9609C35.4615 41.7802 35.4615 41.5995 35.41 41.4188C35.3498 41.2208 35.1092 40.9884 35.0233 40.7905C35.0061 40.7561 35.0147 40.713 35.0061 40.6786C35.0061 40.6442 34.9975 40.6098 34.9889 40.584C34.9631 40.4979 34.9116 40.4635 34.86 40.4807C34.7913 40.5065 34.8085 40.5667 34.8171 40.6184C34.86 40.7303 34.8514 40.8507 34.8514 40.9712C34.8514 41.0831 34.8686 41.1864 34.8686 41.2983C34.8686 41.4962 34.9545 41.7028 34.8686 41.9007C34.8686 41.9093 34.8686 41.9265 34.8686 41.9437C34.903 42.0728 34.8858 42.2019 34.8858 42.3224C34.8772 42.5892 34.8686 42.856 34.8772 43.1314C34.8772 43.2863 34.8514 43.4412 34.8686 43.5961C34.8858 43.7855 34.8686 43.9748 34.8858 44.1555C34.9116 44.4998 34.903 44.8526 34.9288 45.1969C34.9631 45.5928 34.9631 45.9886 34.9717 46.3845C34.9717 46.6427 34.9717 46.9009 34.9889 47.1591C34.9889 47.2451 34.9889 47.3398 35.0061 47.4259C35.0749 47.8046 35.0663 48.1832 35.0405 48.5705L35.0749 48.5619Z" fill="#FF4D00" stroke="#FF4D00"/>
<path d="M20.097 20.0838L20.2087 22.2096C20.2259 22.5366 20.2517 22.8464 20.3376 22.9411C20.4321 23.0444 20.5782 23.0272 20.7329 22.8895L20.9907 22.6657C20.9907 22.6657 21.068 22.6227 21.1024 22.6915L21.1969 22.855C21.1969 22.855 21.2227 22.9325 21.1712 22.9755C21.1024 23.0358 20.7759 23.2854 20.2259 23.7759C19.7619 24.189 19.5299 24.43 19.4525 24.4988C19.4182 24.5333 19.3666 24.5505 19.3494 24.4988L19.2463 24.3095C19.2119 24.2579 19.2205 24.232 19.2463 24.2062L19.3494 24.1116C19.6588 23.8448 19.7619 23.3628 19.7533 22.8378L19.5728 16.0131C19.5728 15.9357 19.5728 15.8926 19.7103 15.7635C19.8049 15.6689 19.9509 15.5054 20.0025 15.4193C20.0626 15.3332 20.1314 15.2041 20.1829 15.1525C20.2431 15.1009 20.2861 15.1009 20.3204 15.1525L22.7523 20.015C22.8296 20.1613 22.9413 20.3765 23.0445 20.4883C23.1476 20.6002 23.3366 20.583 23.4827 20.4539L23.6718 20.2818C23.6718 20.2818 23.7577 20.2474 23.7921 20.299L23.8866 20.4453C23.9209 20.4969 23.921 20.5314 23.8608 20.583C23.7749 20.6605 23.4741 20.8842 22.9929 21.3145C22.4945 21.7535 22.2969 21.9686 22.1851 22.0719C22.125 22.1321 22.082 22.1149 22.0562 22.0633L21.9617 21.8998C21.9617 21.8998 21.9359 21.8223 21.9617 21.7965L22.0992 21.676C22.3656 21.435 22.5117 21.2285 22.1851 20.5658L21.3774 18.9392L20.1142 20.058L20.097 20.0838ZM21.2227 18.6552L20.1142 16.2971C20.0541 16.1766 19.9166 16.2713 19.9166 16.3832L20.0712 19.6708L21.2227 18.6466V18.6552Z" fill="#FF4D00" stroke="#FF4D00" stroke-width="0.5"/>
<path d="M27.6859 12.8955C28.1156 12.732 28.3648 12.5943 28.5022 12.491C28.6397 12.3963 28.6827 12.3275 28.6999 12.3275C28.7343 12.3103 28.7686 12.3275 28.7858 12.3963C28.8116 12.5254 29.2069 13.8336 29.3616 14.1864C29.3787 14.2381 29.3616 14.2553 29.3186 14.2811L29.2069 14.3327C29.1295 14.3672 29.1038 14.35 29.0522 14.2639C28.8975 13.9885 28.5108 13.4291 28.2874 13.2139C28.0038 13.2139 27.1531 13.4291 26.861 13.541L26.6719 13.6098L26.9297 18.7477C26.9641 19.3846 27.1016 19.5567 27.6 19.3674L27.9437 19.2383C28.0038 19.2125 28.0296 19.2555 28.0382 19.3071L28.064 19.4879C28.064 19.5395 28.064 19.5653 27.9781 19.5997C27.8578 19.6428 27.4883 19.7546 26.6375 20.0731C26.0017 20.314 25.5376 20.512 25.4431 20.555C25.3744 20.5808 25.3572 20.555 25.34 20.4948L25.3056 20.314C25.3056 20.2624 25.3056 20.2366 25.3744 20.2108L25.615 20.1247C26.1477 19.9268 26.2165 19.6256 26.1735 18.8682L25.9243 13.8938L25.6923 13.9799C24.833 14.2983 24.3947 14.5823 24.1627 14.7544C23.9221 15.1848 23.7073 15.856 23.6471 16.14C23.6386 16.1917 23.6042 16.2089 23.544 16.2089H23.4065C23.4065 16.2089 23.355 16.1573 23.355 16.1142C23.3894 15.8733 23.4753 14.4532 23.4753 14.393C23.4753 14.3327 23.4753 14.2983 23.5097 14.2811C23.6042 14.2467 23.8706 14.3327 25.0134 13.911L27.6601 12.9213L27.6859 12.8955Z" fill="#FF4D00" stroke="#FF4D00" stroke-width="0.5"/>
<path d="M35.6683 16.1912C35.1565 17.9552 34.3296 18.9973 32.8429 19.0183C31.5798 19.0409 30.6341 18.4938 30.6144 17.3234C30.6019 16.9277 30.7381 16.3379 30.7919 16.1382L31.5587 13.462C31.6914 13.0359 31.5832 12.8757 31.2824 12.8766L30.9388 12.8874C30.8959 12.8888 30.8607 12.8641 30.8674 12.8036L30.9127 12.6041C30.9194 12.5436 30.9446 12.5256 31.0391 12.5226C31.1507 12.5191 31.4868 12.543 32.1656 12.5302C32.9302 12.5147 33.2561 12.4872 33.3505 12.4842C33.4278 12.4818 33.4461 12.5156 33.4394 12.5761L33.4022 12.7581C33.3952 12.81 33.3703 12.8366 33.3101 12.8385L33.0095 12.848C32.7859 12.8464 32.5551 12.8881 32.4163 13.3919L31.6795 15.9294C31.6259 16.1377 31.4159 16.8418 31.4295 17.2719C31.45 18.4681 32.6144 18.5864 32.941 18.5847C33.3533 18.5717 33.8629 18.3748 34.1634 18.0898C34.5895 17.6975 34.8911 17.1714 35.1929 16.1114L35.9836 13.3742C36.1152 12.9137 35.9139 12.7995 35.6216 12.8001L35.2609 12.8115C35.175 12.8142 35.1653 12.78 35.1723 12.7282L35.2009 12.5464C35.216 12.4771 35.2409 12.4505 35.3268 12.4478C35.4384 12.4442 35.8003 12.4673 36.4791 12.4545C37.029 12.4458 37.2429 12.4132 37.3374 12.4102C37.4233 12.4075 37.4327 12.433 37.4263 12.5021L37.3976 12.6838C37.3904 12.7271 37.3657 12.7623 37.297 12.7645L37.0994 12.7707C36.7988 12.7802 36.6582 12.9569 36.5544 13.2098L35.6761 16.1651L35.6683 16.1912Z" fill="#FF4D00" stroke="#FF4D00" stroke-width="0.5"/>
<path d="M39.7665 13.2936C39.9212 13.0096 39.9126 12.8375 39.5774 12.7858L39.2165 12.7256C39.1392 12.717 39.1392 12.6825 39.1564 12.6395L39.2337 12.4502C39.2509 12.3985 39.2767 12.3813 39.3712 12.3985C40.3508 12.5621 41.3132 12.6998 41.4679 12.7256C42.1382 12.8375 43.5646 13.1473 43.3498 14.4124C43.1951 15.3505 42.0608 15.9271 40.9437 15.8668V15.8841C41.15 15.9959 41.2445 16.3058 41.3132 16.5209C41.3476 16.6242 41.7601 18.0528 41.889 18.3626C42.0608 18.7843 42.2155 18.9737 42.6194 19.0425L42.8514 19.0856C42.9201 19.0942 42.9201 19.1372 42.903 19.1888L42.8428 19.361C42.8256 19.404 42.7998 19.4298 42.7397 19.4212C42.6452 19.404 42.4991 19.3524 42.0522 19.2749C41.6398 19.206 41.4593 19.206 41.3562 19.1888C41.2789 19.1802 41.2445 19.0942 41.15 18.8446C41.0554 18.595 40.5399 16.6156 40.4625 16.3746C40.2821 15.8066 39.7493 15.7636 39.397 15.7033L38.3916 17.6397C38.1338 18.1475 38.2283 18.3024 38.6236 18.3712L39.0017 18.4401C39.0618 18.4487 39.0704 18.4831 39.0533 18.5262L38.9931 18.7327C38.9759 18.7757 38.9415 18.7843 38.8728 18.7671C38.7697 18.7499 38.3572 18.6553 37.5752 18.5176C37.0253 18.4229 36.6558 18.3885 36.5441 18.3712C36.4839 18.3626 36.4839 18.3368 36.5011 18.2852L36.5698 18.0958C36.587 18.0442 36.6128 18.027 36.673 18.0356L36.8534 18.07C37.1885 18.1303 37.3776 17.9495 37.5065 17.7L39.7751 13.2936H39.7665ZM39.5345 15.4193C40.0071 15.4968 40.5656 15.6431 41.2875 15.4796C41.8718 15.3505 42.3874 14.9202 42.4991 14.2661C42.5678 13.8702 42.3272 13.1731 41.1929 12.9752C41.0211 12.9493 40.9265 12.9321 40.8062 12.9235L39.5345 15.4279V15.4193Z" fill="#FF4D00" stroke="#FF4D00" stroke-width="0.5"/>
<path d="M45.6104 18.7587C45.4643 18.948 45.5674 18.9996 45.7908 18.8964L50.1389 16.8223C50.517 16.6502 50.6373 16.392 50.4053 16.2715L50.1475 16.1338C50.0702 16.0908 50.0616 16.0563 50.1132 15.9875L50.2163 15.8584C50.2507 15.8154 50.285 15.8067 50.3624 15.8498C50.4741 15.91 50.7405 16.0821 51.2561 16.3489C51.7373 16.5985 51.9607 16.6846 52.0724 16.7448C52.1583 16.7879 52.1497 16.8395 52.124 16.8739L52.0122 17.003C51.9693 17.0546 51.9349 17.0719 51.8919 17.046L51.6427 16.9169C51.342 16.762 50.8951 16.9169 50.4225 17.1235L44.3386 19.9205C44.2527 19.9635 44.1238 19.9894 44.0207 19.9377C43.9089 19.8775 43.9261 19.7484 44.0464 19.5763L47.2087 15.1871C47.3892 14.9461 47.4149 14.7052 47.0798 14.533L46.822 14.3953C46.7533 14.3609 46.7189 14.3265 46.7533 14.2834L46.8908 14.1457C46.9423 14.0941 46.9509 14.0683 47.0282 14.1113C47.14 14.1716 47.4837 14.3781 48.0852 14.6965C48.6953 15.015 49.0562 15.1699 49.1507 15.2215C49.2367 15.2646 49.2367 15.299 49.2109 15.3334L49.082 15.4883C49.0476 15.5313 49.0218 15.54 48.9531 15.5055L48.6867 15.3678C48.386 15.2129 48.1883 15.2387 48.0079 15.4797L45.6018 18.7501L45.6104 18.7587Z" fill="#FF4D00" stroke="#FF4D00" stroke-width="0.5"/>
<path d="M53.0515 19.2061C53.4812 18.991 53.5155 18.7844 53.2921 18.5349L53.0086 18.2078C52.957 18.1476 52.957 18.1218 53.0086 18.0959L53.1976 17.9841C53.1976 17.9841 53.2664 17.9755 53.3179 18.0357C53.3952 18.1218 53.7046 18.5177 54.1428 19.0168C54.6584 19.602 54.942 19.886 55.0365 19.9807C55.0967 20.0496 55.0881 20.1012 55.0365 20.1184L54.8733 20.2045C54.8733 20.2045 54.7959 20.2303 54.7444 20.1786L54.6241 20.0409C54.246 19.6106 54.0741 19.5676 53.5413 19.8258L49.4768 21.8396C49.0557 22.0462 49.0042 22.27 49.3307 22.64L49.5455 22.8896C49.5455 22.8896 49.5627 22.9671 49.5112 22.9929L49.3565 23.0875C49.3049 23.122 49.2877 23.122 49.2276 23.0531C49.1588 22.9757 48.8839 22.6228 48.3425 22.0032C47.8355 21.4265 47.466 21.0479 47.3973 20.9704C47.3543 20.9188 47.3629 20.8844 47.3973 20.8671L47.5605 20.7725C47.6293 20.7381 47.6551 20.7294 47.6894 20.7725L47.9558 21.0823C48.3253 21.504 48.5144 21.4352 48.9956 21.2028L53.0515 19.1975V19.2061Z" fill="#FF4D00" stroke="#FF4D00" stroke-width="0.5"/>
<path d="M56.351 22.6311C56.6432 22.5278 56.8322 22.3385 56.4541 21.8566L56.2307 21.5726C56.1963 21.5295 56.2049 21.4779 56.2737 21.4435L56.4112 21.3832C56.4713 21.3574 56.5057 21.3488 56.5487 21.409C56.626 21.5037 56.8322 21.8221 57.5197 22.7172C57.6056 22.8291 57.5025 22.9237 57.4509 23.027L55.1136 27.4248C55.0363 27.5883 55.0535 27.6055 55.4316 27.4764L59.1094 26.1855C59.4703 26.065 59.5391 25.8498 59.3586 25.6089L59.1524 25.3507C59.1008 25.2818 59.1094 25.2474 59.1696 25.2044L59.3242 25.1183C59.3672 25.1011 59.4016 25.0925 59.4445 25.1441C59.5133 25.2302 59.668 25.4798 60.0804 26.0134C60.3812 26.4006 60.5187 26.5383 60.6046 26.6416C60.6476 26.7019 60.6304 26.7535 60.5616 26.7879L60.4241 26.8568C60.364 26.8912 60.3468 26.8826 60.3124 26.8395L60.1663 26.6502C60.0203 26.4609 59.8914 26.4092 59.4359 26.5555L54.1684 28.3284C53.859 28.4403 53.7645 28.294 53.8848 28.053L56.4713 23.1905C56.5315 23.07 56.4885 23.0098 56.3596 23.0614L52.4583 24.5589C51.9084 24.7741 51.7021 25.015 51.9599 25.3507L52.1834 25.6433C52.2263 25.6949 52.2091 25.7466 52.1576 25.7724L52.0029 25.8584C51.9427 25.8757 51.9256 25.8843 51.874 25.8154C51.8139 25.738 51.5904 25.4023 51.1694 24.8601C50.7655 24.3438 50.5593 24.1114 50.4991 24.0425C50.4647 23.9995 50.4733 23.9565 50.5335 23.922L50.6882 23.836C50.6882 23.836 50.7655 23.8102 50.7999 23.8532L50.9545 24.0511C51.2381 24.4212 51.5733 24.4126 52.2693 24.1544L56.3596 22.6311H56.351Z" fill="#FF4D00" stroke="#FF4D00" stroke-width="0.5"/>
<path d="M57.606 29.3698C57.6575 29.3698 57.6661 29.3957 57.6833 29.4473V29.542C57.6919 29.5936 57.6919 29.6366 57.6232 29.6452C56.1967 29.8862 55.9303 30.9104 56.1623 31.4525C56.4029 32.012 57.0388 32.2701 57.6232 32.0206C58.2075 31.771 58.3622 31.203 58.62 30.635C58.9809 29.8432 59.2387 29.2235 60.055 28.8793C60.6823 28.6125 61.7994 28.7244 62.2205 29.7055C62.4267 30.1874 62.3064 30.721 62.2634 30.9018C62.2634 30.9534 62.2462 30.9878 62.272 31.0395C62.2978 31.1083 62.4353 31.0911 62.6329 31.0481C62.6673 31.0481 62.6759 31.0567 62.6931 31.1255L62.7361 31.246C62.7532 31.3062 62.7361 31.3235 62.7017 31.3321L60.9143 31.7279C60.9143 31.7279 60.8542 31.7279 60.837 31.6849L60.794 31.5558C60.7768 31.5042 60.7854 31.4612 60.837 31.4439C61.2065 31.3493 62.2634 30.7641 61.8767 29.8604C61.6447 29.3182 61.0346 29.2063 60.562 29.4043C59.9089 29.6797 59.8144 30.1788 59.5738 30.7554C59.3418 31.3321 59.0926 32.0808 58.1817 32.4767C57.0302 32.9672 56.1623 32.382 55.8272 31.6161C55.5866 31.0567 55.7413 30.5489 55.9389 30.0497C55.9819 29.9465 55.9389 29.8776 55.8358 29.8604C55.7413 29.8346 55.5866 29.826 55.4319 29.8174C55.3889 29.8174 55.3632 29.8002 55.3718 29.7399V29.6108C55.3718 29.5592 55.3718 29.5506 55.4405 29.542L57.6146 29.3785L57.606 29.3698Z" fill="#FF4D00" stroke="#FF4D00" stroke-width="0.5"/>
<path d="M15.9809 61.7207C15.6286 61.9789 15.62 62.2371 15.8692 62.4178L16.0582 62.5555C16.0582 62.5555 16.1012 62.6243 16.0582 62.6674L15.9208 62.7879C15.9208 62.7879 15.8434 62.8223 15.7747 62.7793C15.6887 62.719 15.3708 62.4436 14.8552 62.0649C14.2881 61.6432 14.0389 61.4969 13.9873 61.4539C13.9443 61.4195 13.9443 61.3678 13.9873 61.3248L14.1162 61.2129C14.1162 61.2129 14.1849 61.1699 14.2451 61.2129L14.4599 61.3678C14.6576 61.5142 14.9583 61.5142 15.2849 61.2732L19.1432 58.5106C19.4955 58.2524 19.5384 58.0545 19.2549 57.8393L19.0658 57.7016C19.0057 57.6586 19.0057 57.6069 19.0572 57.5725L19.2291 57.452C19.2721 57.4262 19.2978 57.4348 19.358 57.4778C19.4267 57.5295 19.6845 57.7532 20.1915 58.1319C20.8016 58.5794 21.0422 58.7257 21.1368 58.7946C21.1797 58.829 21.1711 58.8634 21.1282 58.9065L20.9993 59.0356C20.9563 59.0872 20.9219 59.07 20.8618 59.0356L20.6813 58.8979C20.4235 58.7085 20.1915 58.7171 19.8908 58.9323L17.9917 60.3007C18.3182 60.5416 18.4299 60.5933 18.7823 60.5589C19.8994 60.4642 21.343 60.3523 21.9187 60.1974C22.125 60.1372 22.1851 59.9909 21.9789 59.8445L21.8844 59.7757C21.8328 59.7327 21.8414 59.6896 21.8844 59.6552L22.0133 59.5433C22.0648 59.5089 22.0992 59.5089 22.1422 59.5433C22.2195 59.595 22.5203 59.8618 22.9585 60.1888C23.4139 60.5244 23.646 60.6621 23.7147 60.7138C23.7834 60.7654 23.7834 60.8084 23.7491 60.8429L23.6202 60.9547C23.5686 60.9892 23.5428 61.015 23.4913 60.972L23.2593 60.7998C23.0358 60.6277 22.7523 60.6019 22.4773 60.6019C21.9875 60.6105 18.8768 60.9031 18.6791 60.9461C18.6534 61.0924 18.5674 63.5452 18.5846 63.8981C18.6018 64.1563 18.7135 64.5177 18.8768 64.6468L19.1002 64.8103C19.1518 64.8534 19.1432 64.905 19.1088 64.9394L18.9799 65.0427C18.9197 65.0943 18.894 65.0943 18.8252 65.0427C18.7307 64.9738 18.5416 64.8017 18.069 64.4403C17.6222 64.1046 17.1839 63.8206 17.098 63.7518C17.0464 63.7087 17.0379 63.6743 17.098 63.6141L17.2011 63.5022C17.2441 63.4591 17.2785 63.4419 17.33 63.4764L17.4417 63.5624C17.6136 63.6829 17.8198 63.6743 17.8284 63.5194C17.8284 63.3817 17.9745 61.1097 17.9659 60.7568C17.9659 60.6191 17.9315 60.5675 17.7769 60.4556L16.0067 61.7207H15.9809Z" fill="#FF4D00" stroke="#FF4D00" stroke-width="0.5"/>
<path d="M23.6805 64.2337L21.7385 65.0943C21.4463 65.232 21.1627 65.3611 21.1026 65.473C21.0338 65.6021 21.1026 65.7312 21.2916 65.8258L21.5924 65.9808C21.5924 65.9808 21.6611 66.041 21.6096 66.0926L21.4893 66.2389C21.4893 66.2389 21.4291 66.2906 21.3689 66.2648C21.283 66.2217 20.9393 66.0066 20.2862 65.6623C19.7363 65.3697 19.4269 65.2492 19.3324 65.1976C19.2894 65.1718 19.255 65.1373 19.2894 65.0943L19.4269 64.9308C19.4613 64.8878 19.4871 64.8792 19.5214 64.8964L19.6503 64.9652C20.0112 65.1546 20.4925 65.0857 20.9823 64.8792L27.281 62.2629C27.3498 62.2285 27.3927 62.2285 27.556 62.3059C27.6763 62.3575 27.8825 62.435 27.977 62.4522C28.0802 62.478 28.2177 62.4952 28.2864 62.5297C28.3551 62.5641 28.3723 62.6071 28.3294 62.6588L24.6687 66.6779C24.557 66.807 24.4023 66.9877 24.3336 67.1168C24.2648 67.2545 24.3508 67.4266 24.5226 67.5127L24.746 67.6331C24.7976 67.659 24.8062 67.6934 24.7718 67.7536L24.6687 67.8913C24.6343 67.9344 24.6085 67.9516 24.5312 67.9172C24.4281 67.8655 24.1102 67.6676 23.543 67.3664C22.9587 67.0565 22.6837 66.9533 22.5462 66.8758C22.4689 66.8328 22.4689 66.7897 22.5032 66.7467L22.6235 66.609C22.6235 66.609 22.6837 66.5574 22.7267 66.5746L22.8899 66.6606C23.2079 66.8242 23.4571 66.8844 23.9555 66.3422L25.1843 65.0083L23.6891 64.2251L23.6805 64.2337ZM25.4163 64.7673L27.2123 62.8911C27.3068 62.7879 27.1607 62.6932 27.0576 62.7362L24.0414 64.053L25.4077 64.7673H25.4163Z" fill="#FF4D00" stroke="#FF4D00" stroke-width="0.5"/>
<path d="M28.1234 66.8586C28.1234 66.8586 28.1836 66.8242 28.2352 66.85L28.3211 66.9017C28.3211 66.9017 28.3984 66.9619 28.3555 67.0222C27.6852 68.3045 28.3383 69.1393 28.914 69.277C29.4983 69.4233 30.0999 69.079 30.2459 68.4594C30.4006 67.8397 30.0397 67.375 29.7475 66.8328C29.3351 66.0669 28.9999 65.4817 29.2234 64.621C29.3866 63.9584 30.1514 63.1408 31.1912 63.399C31.6982 63.528 32.0505 63.9497 32.1708 64.0874C32.2138 64.1305 32.2309 64.1563 32.2911 64.1649C32.3598 64.1821 32.4372 64.0616 32.5145 63.8809C32.5317 63.8551 32.5489 63.8465 32.6176 63.8809L32.7294 63.9239C32.7809 63.9497 32.7981 63.967 32.7809 64.0014L32.0161 65.6624C32.0161 65.6624 31.9732 65.714 31.9302 65.6968L31.8013 65.6538C31.7497 65.628 31.7154 65.6021 31.7411 65.5505C31.8872 65.1976 32.0591 64.0014 31.1053 63.7604C30.5381 63.6141 30.0741 64.0358 29.9452 64.535C29.7733 65.2235 30.1085 65.6021 30.4178 66.1357C30.7358 66.6607 31.1826 67.3234 30.942 68.2873C30.6412 69.5007 29.6444 69.845 28.8367 69.6384C28.2523 69.4921 27.943 69.0618 27.6594 68.5971C27.6079 68.5024 27.5219 68.4938 27.4446 68.5627C27.3673 68.6229 27.2641 68.7434 27.161 68.8639C27.1352 68.8983 27.1095 68.9069 27.0665 68.8639L26.9548 68.7864C26.9548 68.7864 26.9032 68.7434 26.9376 68.6832L28.1149 66.85L28.1234 66.8586Z" fill="#FF4D00" stroke="#FF4D00" stroke-width="0.5"/>
<path d="M39.7233 64.7242C39.7835 64.1734 39.3882 64.1045 39.0788 64.1734L38.7781 64.2336C38.7265 64.2422 38.7008 64.225 38.7008 64.1475V63.9582C38.7179 63.898 38.7437 63.8807 38.8039 63.8721C38.8554 63.8635 38.9671 63.8463 39.1562 63.8033C39.3538 63.7689 39.646 63.7172 40.0842 63.6226L40.6772 63.4935C41.3818 63.3472 41.906 63.2267 42.2841 63.132C42.6622 63.0546 42.8942 62.9943 42.9973 62.9685C43.1348 62.9427 43.1606 62.9685 43.2293 63.1062L43.7965 64.3111C43.8136 64.3541 43.8051 64.3713 43.7621 64.4057L43.6676 64.466C43.6676 64.466 43.616 64.5004 43.573 64.466L42.4645 63.5279C42.413 63.4763 42.3614 63.4763 42.3013 63.4849L40.617 63.8463L40.342 66.454L41.2271 66.2647C41.7599 66.1528 42.0692 66.0667 42.1638 65.2491C42.1638 65.2061 42.181 65.1889 42.2153 65.1889H42.3614C42.3614 65.1889 42.4302 65.1975 42.4302 65.2491L42.3184 67.2027C42.3184 67.263 42.3099 67.2716 42.2669 67.2716L42.1122 67.2888C42.0607 67.2888 42.0607 67.2802 42.0607 67.22C41.9575 66.4368 41.588 66.497 40.8576 66.6519L40.3077 66.7724L40.0155 69.8104L42.413 69.3027C42.7481 69.2338 42.9371 69.0359 43.0746 68.7605L43.616 67.6675C43.616 67.6675 43.6676 67.5986 43.7191 67.6244L43.8222 67.6589C43.8222 67.6589 43.891 67.6933 43.8824 67.7794L43.6933 69.2252C43.6762 69.3715 43.6332 69.4059 43.5215 69.4231C43.4441 69.4404 43.0403 69.5178 42.4903 69.6211C41.9489 69.7416 41.2615 69.8707 40.617 70.0084L39.5429 70.2407C39.1132 70.3268 38.8468 70.3956 38.675 70.4387C38.5117 70.4817 38.4344 70.5075 38.4 70.5161C38.3312 70.5333 38.3055 70.5161 38.3141 70.4559L38.2969 70.2579C38.2969 70.1977 38.3055 70.1805 38.357 70.1719L38.7008 70.103C39.0788 70.0256 39.2249 69.7846 39.2593 69.4404L39.7319 64.7414L39.7233 64.7242Z" fill="#FF4D00" stroke="#FF4D00" stroke-width="0.5"/>
<path d="M12.5032 24.5608C12.3301 24.3035 12.106 24.1583 11.7216 24.6421L11.4996 24.9271C11.4654 24.9703 11.4139 24.9792 11.3621 24.9192L11.2755 24.7991C11.2323 24.7391 11.215 24.722 11.2749 24.6614C11.3518 24.5664 11.6082 24.2898 12.3086 23.4085C12.394 23.2962 12.5147 23.3817 12.6266 23.407L17.4447 24.6489C17.6168 24.6912 17.6339 24.6653 17.4174 24.3306L15.2963 21.0532C15.0971 20.7358 14.865 20.7111 14.6771 20.9443L14.4721 21.2035C14.4209 21.2726 14.3779 21.2728 14.3261 21.2214L14.2138 21.0929C14.2138 21.0929 14.1705 21.0242 14.2132 20.9724C14.2815 20.886 14.4867 20.6699 14.9052 20.1429C15.2127 19.7541 15.3065 19.5901 15.3919 19.4864C15.4346 19.426 15.4948 19.4343 15.538 19.4943L15.6417 19.6143C15.6849 19.6658 15.685 19.683 15.6423 19.7262L15.497 19.9076C15.3518 20.0891 15.3267 20.2269 15.5779 20.6388L18.5394 25.3494C18.7212 25.6239 18.6101 25.7536 18.3434 25.686L13.0176 24.3174C12.8886 24.2836 12.8373 24.3441 12.9152 24.4556L15.2863 27.8953C15.6238 28.3842 15.908 28.5292 16.1728 28.1923L16.4035 27.9071C16.4462 27.8553 16.4891 27.8551 16.5324 27.9065L16.6533 28.0436C16.6879 28.0951 16.6966 28.1123 16.6454 28.1814C16.5856 28.2591 16.312 28.5531 15.885 29.0973C15.475 29.607 15.3044 29.8661 15.2446 29.9438C15.2104 29.987 15.1589 29.9872 15.1157 29.9444L15.0034 29.8159C15.0034 29.8159 14.9601 29.7472 15.0028 29.704L15.1651 29.5053C15.4556 29.1424 15.3681 28.8244 14.9526 28.1981L12.5119 24.578L12.5032 24.5608Z" fill="#FF4D00" stroke="#FF4D00" stroke-width="0.5"/>
<path d="M33.3906 68.1408C33.4078 68.0978 33.4421 68.0978 33.4937 68.1064L33.5882 68.1408C33.6398 68.158 33.6741 68.1838 33.6484 68.2441C33.2789 69.6469 34.1038 70.3096 34.6881 70.3268C35.2896 70.344 35.7966 69.8707 35.8138 69.2338C35.831 68.5969 35.3756 68.2183 34.9717 67.7535C34.4046 67.0995 33.9491 66.6003 33.9749 65.7139C33.9921 65.034 34.5506 64.0615 35.6248 64.0873C36.1404 64.0959 36.5786 64.4315 36.7333 64.5434C36.7763 64.5692 36.8106 64.5951 36.8622 64.5951C36.9395 64.5951 36.9825 64.466 37.0169 64.268C37.0255 64.2422 37.0426 64.2336 37.1114 64.2422H37.2317C37.2918 64.268 37.309 64.2852 37.3004 64.3197L36.9137 66.1098C36.9137 66.1098 36.8794 66.1614 36.8364 66.1614H36.7075C36.656 66.1356 36.613 66.1184 36.6216 66.0581C36.6903 65.6794 36.5958 64.4746 35.6076 64.4488C35.0233 64.4315 34.6624 64.9479 34.6452 65.4557C34.628 66.17 35.0404 66.4626 35.4615 66.9187C35.8826 67.3663 36.4669 67.9084 36.4411 68.9068C36.4153 70.1547 35.5217 70.7141 34.6881 70.6969C34.0866 70.6796 33.6827 70.3354 33.3132 69.9481C33.2359 69.8707 33.15 69.8793 33.0984 69.9653C33.0383 70.0428 32.9609 70.1805 32.8922 70.3182C32.875 70.3526 32.8492 70.3784 32.7976 70.344L32.6773 70.2924C32.6344 70.2752 32.6172 70.2665 32.643 70.1977L33.3906 68.1494V68.1408Z" fill="#FF4D00" stroke="#FF4D00" stroke-width="0.5"/>
<path d="M5.43162 21.0418C5.38395 21.0867 5.32667 21.0801 5.31193 21.0397L4.65254 19.558C4.41536 19.0582 3.95653 18.1262 3.85873 18.0337C3.7999 17.9727 3.70225 17.9808 3.64139 18.0396C3.50647 18.1713 3.48532 18.7653 3.49959 18.98C3.51139 19.0123 3.47397 19.0351 3.44385 19.0278L3.31314 19.0205C3.31314 19.0205 3.26905 18.9999 3.26533 18.9646C3.21195 18.6177 3.19012 17.7554 3.65354 17.3207C3.78846 17.189 3.95891 17.2551 4.06851 17.38C4.19719 17.5071 4.44244 18.004 4.73116 18.5949L4.77959 18.5772C4.60327 18.0186 4.60885 15.8271 4.99822 15.4652C5.19695 15.2828 5.43633 15.2871 5.61283 15.4701C5.78933 15.653 5.77503 15.9147 5.63717 16.0383C5.57631 16.0972 5.5066 16.1317 5.39498 16.1267C5.28336 16.1216 5.22903 16.1231 5.14472 16.2179C4.96215 16.3945 4.87665 18.1662 5.0275 18.8807C5.06599 19.0865 5.13537 19.3269 5.32101 19.7355L5.74384 20.644C5.76743 20.7086 5.75423 20.7226 5.70145 20.7785L5.42867 21.0337L5.43162 21.0418Z" fill="#657241"/>
<path d="M7.19893 17.2403C6.70755 16.6163 6.50356 15.5122 6.62384 14.5514C6.67689 14.1265 6.86619 13.5483 7.22692 13.2712C7.51987 13.0394 7.81849 13.154 7.95586 13.3305C8.24345 13.698 8.27351 14.2965 8.03141 14.8445C7.79079 15.3654 7.45355 15.761 7.1983 16.0003C7.23009 16.1165 7.36383 16.4101 7.63858 16.7632C7.91334 17.1163 8.24943 17.0422 8.39477 16.9222C8.76152 16.6345 8.85081 15.5929 8.80893 15.2118C8.79985 15.1786 8.66474 15.0103 8.84302 14.685L8.96428 14.6072C9.28754 14.5188 9.41105 15.1007 9.39754 15.149C9.41909 15.5535 9.03628 16.9876 8.46469 17.4384C7.98121 17.8204 7.5854 17.7413 7.20347 17.2569L7.19893 17.2403ZM7.07966 15.7294C7.3591 15.5459 8.07923 14.4656 7.652 13.9133C7.53199 13.7677 7.3593 13.69 7.18909 13.8168C6.71163 14.1883 6.93082 15.4132 7.07966 15.7294Z" fill="#657241"/>
<path d="M9.39968 8.62331C9.34255 8.66945 9.30995 8.65305 9.29912 8.62038L9.20966 8.43243C9.20966 8.43243 9.1907 8.37525 9.26143 8.31554L10.1375 7.54457C10.2354 7.4577 10.3087 7.515 10.3358 7.59669C10.4496 7.93979 12.1321 12.3597 12.3815 12.8935C12.5089 13.1686 12.6012 13.2831 12.6991 13.1962C12.8188 13.0931 12.8739 12.4673 12.874 12.3857C12.8849 12.3368 12.9149 12.3178 12.9611 12.3206L13.0915 12.3317C13.0915 12.3317 13.154 12.3564 13.1512 12.4026C13.1592 12.5088 13.0465 13.616 12.6683 13.9499C12.5568 14.0504 12.4508 14.0855 12.334 13.9519C12.2065 13.8129 11.9436 13.1838 11.7377 12.6446L11.6643 12.6689C11.8073 13.5372 11.7134 14.7833 11.2291 15.2068C10.9924 15.4213 10.6282 15.4423 10.365 15.1397C9.87099 14.5781 9.52724 13.3774 9.6019 12.2918C9.63501 11.8728 9.73098 11.1519 10.2098 10.7393C10.3975 10.5683 10.615 10.5415 10.8623 10.5774L10.0412 8.53758C9.97344 8.36056 9.8105 8.25138 9.62006 8.41425L9.40242 8.60427L9.39968 8.62331ZM11.4523 12.6576C11.4121 12.2085 11.2797 11.5361 11.0408 11.2526C10.7477 10.9146 10.4759 10.914 10.2528 11.1149C9.58629 11.6986 10.1979 13.9257 10.776 14.5773C10.9063 14.7245 11.083 14.7112 11.1809 14.6244C11.4829 14.3611 11.5113 13.2999 11.4523 12.6576Z" fill="#657241"/>
<path d="M15.8349 7.28888C15.9063 7.24347 15.9343 7.25671 15.9517 7.31503L16.3536 9.37829C16.5027 10.1479 16.6292 10.5903 16.6538 10.6388C16.6991 10.7104 16.7076 10.7091 16.7756 10.699C16.8955 10.629 17.0897 9.94762 17.0963 9.81614C17.0912 9.78209 17.1214 9.75151 17.1677 9.77074L17.2943 9.80414C17.2943 9.80414 17.3419 9.83188 17.3397 9.87571C17.3375 9.91953 17.0614 11.1612 16.5031 11.4964C16.3917 11.5652 16.2953 11.5012 16.2377 11.4053C16.18 11.3095 15.9746 10.0436 15.9071 9.70562L15.8476 9.71445C15.8114 10.4072 15.6275 12.0354 14.8221 12.5204C14.6635 12.6223 14.4456 12.5589 14.3218 12.3685C14.1696 12.104 14.116 11.4507 13.9757 10.5058C13.8821 9.8758 13.8356 9.38678 13.7436 9.23514C13.6982 9.16357 13.6192 9.1579 13.5477 9.20331C13.4048 9.29414 13.2175 9.90489 13.1953 10.0474C13.1833 10.084 13.1603 10.1048 13.1238 10.0928L13.007 10.0667C13.007 10.0667 12.9594 10.0389 12.9688 9.98532C12.9792 9.87938 13.2219 8.76446 13.7403 8.45257C13.8989 8.35071 14.0734 8.47271 14.1531 8.60008C14.2782 8.79902 14.3752 9.39365 14.4777 10.3181C14.5505 10.925 14.6636 11.5695 14.7691 11.7539C14.8255 11.8412 14.9058 11.8554 14.9858 11.8088C15.4157 11.5448 15.6242 9.96514 15.6481 9.48305C15.6609 9.15924 15.6604 8.86349 15.5991 8.56806L15.4066 7.6222C15.3977 7.56261 15.4279 7.53202 15.4836 7.49765L15.8179 7.2914L15.8349 7.28888Z" fill="#657241"/>
<path d="M18.2792 10.4062C18.2336 10.4415 18.1949 10.4228 18.1799 10.3469L16.9087 4.50112C16.8553 4.23096 16.6818 4.15125 16.3967 4.34807L16.1891 4.49443C16.1435 4.52977 16.1116 4.50101 16.0999 4.44191L16.0681 4.28151C16.0581 4.23085 16.0514 4.19708 16.1138 4.15841L17.1566 3.45191C17.2342 3.40146 17.2947 3.48598 17.3064 3.54508L18.0219 7.02677L18.0725 7.01676C18.1003 6.53751 18.3057 5.62829 18.8321 5.27843C18.9941 5.1674 19.2942 5.09044 19.5515 5.46063C19.9718 6.07928 19.297 7.44988 19.0385 7.82566L19.0621 7.85609L20.1281 8.32937C20.379 8.44639 20.5964 8.48232 20.7347 8.38474C20.8815 8.2855 20.9358 8.07297 20.9597 7.92788C20.9597 7.884 20.9901 7.86044 21.0272 7.87065L21.1653 7.90471C21.1653 7.90471 21.2057 7.93181 21.2073 7.98413C21.2038 8.05501 21.1254 8.58815 20.8099 8.80853C20.4151 9.07093 20.2213 9.06543 19.7801 8.82815L18.79 8.29598C18.6637 8.23324 18.5456 8.30049 18.3431 8.47218L18.6978 10.0426C18.7095 10.1017 18.6892 10.132 18.62 10.1808L18.2792 10.4062ZM18.2794 8.23913C19.0807 7.81732 19.474 6.44102 19.1411 5.95421C19.0553 5.83081 18.8886 5.78487 18.7654 5.87067C18.3638 6.14317 18.2022 7.05249 18.18 7.2499C18.168 7.36633 18.1525 7.55363 18.1691 7.68193L18.2794 8.23913Z" fill="#657241"/>
<path d="M21.861 5.06168L21.2509 5.31986C21.1993 5.34568 21.1735 5.32847 21.1649 5.26822V5.04446C21.1563 4.99283 21.1649 4.96701 21.2251 4.94119L21.8524 4.6744L21.8782 3.46953C21.8782 3.36625 21.9039 3.33183 21.9641 3.28019C22.05 3.21134 22.2391 3.03061 22.2906 2.96176C22.3336 2.91012 22.3594 2.8671 22.4023 2.84988C22.4539 2.82406 22.4969 2.8757 22.4883 3.02201L22.4109 4.43342L23.296 4.05475C23.339 4.03754 23.3648 4.05475 23.3734 4.1322V4.34736C23.3734 4.34736 23.3476 4.4076 23.3132 4.42482L22.4281 4.80349L22.4109 7.12716C22.4109 7.41117 22.4109 7.67796 22.4453 7.77263C22.4797 7.86729 22.5398 7.91033 22.6172 7.8759C22.8664 7.77263 23.2273 7.03249 23.2531 6.94643C23.2616 6.9034 23.296 6.89479 23.3304 6.91201L23.4679 6.97225C23.4679 6.97225 23.5109 7.00667 23.5109 7.04971C23.4593 7.23904 22.9523 8.30621 22.282 8.59022C22.0672 8.68488 21.9641 8.62464 21.9125 8.49555C21.861 8.36645 21.8352 8.19433 21.8352 8.04803L21.861 5.04446V5.06168Z" fill="#657241"/>
<path d="M24.6578 7.25581C24.6202 7.04332 24.7114 6.5873 24.9251 5.47037L25.0735 4.70063C25.1291 4.43076 25.1668 4.23624 25.1489 4.12581C25.1335 4.04249 25.0706 4.00978 24.9958 4.0273C24.8397 4.05198 24.4808 4.6299 24.3596 4.80447C24.3309 4.85071 24.2935 4.85947 24.2557 4.83275L24.1674 4.75858C24.1276 4.74023 24.1045 4.72587 24.1249 4.67764C24.1492 4.61266 24.9136 3.33523 25.5152 3.25767C25.6255 3.23976 25.7533 3.29681 25.7778 3.45308C25.8087 3.61972 25.7278 4.06937 25.6326 4.54213L25.325 6.0525C25.2558 6.41644 25.2496 6.62732 25.2587 6.70027C25.2742 6.78359 25.306 6.83542 25.3852 6.83664C25.5783 6.76773 25.991 6.14955 26.0213 6.05947C26.0293 6.02599 26.0751 6.01922 26.1276 6.0583L26.2115 6.11374C26.2557 6.15082 26.2684 6.17156 26.2481 6.21979C26.201 6.30588 25.6132 7.32464 24.8308 7.45637C24.7412 7.46153 24.6593 7.39772 24.6328 7.24982L24.6578 7.25581ZM24.9169 1.61948C24.8706 1.36952 25.0368 1.11723 25.3219 1.07027C25.6528 1.01655 25.8508 1.2231 25.8884 1.43558C25.9086 1.57312 25.8517 1.92231 25.4751 1.9828C25.061 2.05205 24.9283 1.71954 24.9169 1.61948Z" fill="#657241"/>
<path d="M27.7963 3.81036C27.5079 3.89366 27.361 4.15199 27.4293 4.42149C27.4856 4.58522 27.6037 4.60957 27.7048 4.63165C27.7803 4.65034 27.9377 4.70593 27.9792 4.85034C28.0207 4.99475 27.9618 5.17792 27.7279 5.24241C27.557 5.2892 27.2696 5.23375 27.166 4.83803C27.0664 4.47757 27.186 4.0333 27.279 3.85464C27.4078 3.60259 27.5422 3.30787 28.1991 3.12583C29.1263 2.86676 29.2228 2.79274 29.3222 2.7625C29.4397 2.72599 29.5482 2.75774 29.4852 2.90566C29.3605 3.19297 28.8173 4.67495 29.0693 5.58519C29.2383 6.20662 29.6274 6.34501 29.951 6.25769C30.734 6.04027 31.1864 4.58966 30.9354 3.67088C30.8939 3.52647 30.8398 3.34568 30.7353 3.21896C30.6159 3.07292 30.5228 2.99111 30.4938 2.88309C30.4221 2.63918 30.5259 2.44459 30.7961 2.36756C31.0664 2.29053 31.2244 2.53719 31.2824 2.75324C31.4059 3.195 31.4519 4.15606 31.2411 4.96154C31.028 5.78408 30.464 6.63823 29.7174 6.84311C29.2592 6.96468 28.7338 6.80822 28.5523 6.15041C28.3179 5.30327 28.7629 3.97323 29.1248 3.20514L29.0567 3.1961C28.9069 3.41065 28.4533 3.62832 28.2738 3.67398L27.7975 3.80183L27.7963 3.81036Z" fill="#657241"/>
<path d="M33.7607 2.59579L32.2855 2.55252C31.9674 2.51085 32.0342 2.19902 32.0499 2.14088L32.1508 1.9988C32.3344 1.78109 33.0177 2.11793 33.1965 2.24665L33.8598 2.23031L34.1999 1.07418C34.227 0.9745 34.2608 0.948022 34.3324 0.913925C34.4334 0.869961 34.6631 0.744997 34.7309 0.692039C34.7859 0.653444 34.822 0.618659 34.868 0.613289C34.9245 0.601862 34.9525 0.662945 34.9059 0.801904L34.4619 2.1439L35.0995 2.05817C35.1454 2.0528 35.3412 1.85621 35.4696 2.10503L35.4426 2.2047C35.2973 2.37932 35.124 2.39474 35.0863 2.40236L34.3734 2.50332L33.7487 4.74153C33.6744 5.01563 33.6046 5.27313 33.613 5.37349C33.6214 5.47386 33.6682 5.53113 33.7518 5.51815C34.0194 5.48368 34.5614 4.86378 34.6088 4.78746C34.6283 4.74818 34.6638 4.74887 34.6924 4.77448L34.8094 4.8686C34.8094 4.8686 34.8418 4.91306 34.8306 4.9546C34.7313 5.12384 33.9627 6.02116 33.2415 6.11987C33.0093 6.15502 32.9256 6.06989 32.9096 5.93181C32.8936 5.79372 32.9138 5.62085 32.9521 5.47964L33.7629 2.58749L33.7607 2.59579Z" fill="#576832"/>
<path d="M45.2386 62.4229C45.1838 62.1207 45.033 61.9028 44.4949 62.1945L44.1825 62.3611C44.1305 62.3859 44.0791 62.3764 44.0633 62.2987L44.0316 62.1518C44.0156 62.0826 44.0161 62.0568 44.077 62.0149C44.1812 61.9565 44.5277 61.7991 45.5256 61.266C45.6471 61.1993 45.7223 61.3211 45.8156 61.3917L49.758 64.4229C49.9022 64.5288 49.9283 64.512 49.8579 64.1234L49.1959 60.2726C49.1338 59.9014 48.9382 59.786 48.6691 59.9362L48.374 60.0945C48.2959 60.1361 48.2617 60.1269 48.2287 60.0488L48.1715 59.8843C48.1551 59.8409 48.1643 59.8067 48.2165 59.7732C48.3119 59.7232 48.589 59.6077 49.179 59.2911C49.6129 59.0578 49.7611 58.9399 49.8825 58.8818C49.9518 58.8486 49.9943 58.8752 50.0187 58.9531L50.0677 59.1003C50.0924 59.161 50.0749 59.1779 50.0313 59.2116L49.8231 59.3198C49.6148 59.4366 49.5355 59.5471 49.6129 60.0218L50.4862 65.5204C50.5405 65.8485 50.3932 65.9147 50.1726 65.7558L45.8062 62.3986C45.6959 62.3192 45.6352 62.3525 45.6585 62.4906L46.4878 66.594C46.6064 67.1728 46.8169 67.4176 47.19 67.2176L47.5111 67.0426C47.5719 67.0093 47.6146 67.0272 47.6307 67.0878L47.6877 67.2609C47.6953 67.3213 47.6949 67.3385 47.6254 67.3803C47.5388 67.4218 47.1661 67.596 46.5673 67.921C45.9946 68.2293 45.7336 68.4054 45.6469 68.4469C45.5949 68.4718 45.5524 68.4452 45.5275 68.3931L45.4703 68.2285C45.4539 68.1852 45.4631 68.1509 45.5065 68.1259L45.7322 68.0008C46.14 67.7843 46.1889 67.4494 46.0558 66.724L45.2297 62.44L45.2386 62.4229Z" fill="#FF4D00" stroke="#FF4D00" stroke-width="0.5"/>
</svg>
