<svg width="545" height="825" viewBox="0 0 545 825" fill="none" xmlns="http://www.w3.org/2000/svg">
<path d="M298.446 664.803C294.619 666.264 286.91 669.052 282.808 669.654C284.764 669.367 287.121 666.638 288.276 665.175C289.583 663.519 291.668 662.213 293.505 661.229C295.45 660.188 297.673 658.075 299.847 657.756C302.05 657.432 305.557 658.594 307.786 658.615C311.731 658.653 316.037 658.497 319.936 658.031C324.04 657.541 328.938 655.9 332.782 657.475C333.818 657.9 338.63 659.01 337.333 659.915C335.637 661.1 333.974 660.103 331.919 660.405C323.939 661.578 315.648 660.446 307.516 661.11C305.752 661.254 302.101 663.359 302.425 665.568C302.562 666.501 302.259 668.441 302.396 669.374C302.745 671.754 302.409 672.65 302.746 674.942C301.499 677.462 302.043 678.235 299.31 677.871C297.751 677.664 299.071 674.072 298.674 672.731C298.34 671.6 300.23 664.122 298.446 664.803Z" fill="#FF4D00"/>
<path d="M281.924 797.015C279.865 783.009 277.464 768.986 275.341 754.949C275.814 754.083 274.161 748.469 273.814 747.56C273.105 745.702 271.891 743.921 271.385 741.994C270.733 739.509 268.56 737.359 267.433 735.019C266.089 732.228 264.408 729.477 262.638 726.942C261.55 725.385 259.842 723.533 259.118 721.832C258.586 720.581 256.898 716.337 258.272 715.149C261.123 712.685 262.999 717.333 263.818 718.918C265.163 721.521 265.868 724.319 267.323 726.866C268.386 728.727 269.663 730.376 270.945 732.052C271.788 733.155 273.673 733.695 274.043 735.068C274.212 735.695 276.034 735.314 276.488 735.027C278.572 733.708 280.767 731.868 283.049 730.885C290.898 727.506 300.243 726.158 307.276 721.356C311.513 718.464 315.567 715.422 320.03 712.879C324.738 710.195 327.03 707.462 331.842 704.993C343.467 699.028 355.982 694.792 367.708 689.033C372.945 686.461 378.509 681.583 383.916 679.503C386.245 678.607 389.424 678.131 391.425 676.561C392.249 675.915 390.812 673.331 390.66 672.589C389.588 667.381 384.304 661.966 381.438 658.015C377.952 653.211 374.548 649.566 368.609 651.937C361.974 654.584 355.952 657.11 349.84 661.026C344.9 664.191 340.486 668.3 335.413 671.248C331.802 673.347 328.331 675.597 324.782 677.803C315.567 683.529 306.667 689.311 297.068 694.425C292.381 696.922 287.468 698.981 282.819 701.534L282.584 701.663C279.342 703.444 276.125 705.211 272.558 706.287C270.432 706.929 268.401 708.451 266.196 708.856C264.449 709.177 262.668 709.375 260.91 709.633C258.839 709.938 260.367 708.743 260.813 707.583C261.234 706.484 261.909 705.169 262.826 704.45C264.545 703.102 267.073 702.134 269.061 701.174C272.425 699.548 275.497 697.389 278.766 695.572C280.374 694.679 281.838 693.25 283.462 692.476C284.148 692.15 285.024 691.385 285.781 691.273C286.848 691.116 287.969 690.174 288.928 689.676C290.122 689.055 291.361 688.782 292.56 688.144C296.723 685.929 300.99 684.263 304.98 681.712C313.282 676.404 322.09 671.941 330.497 666.82C333.782 664.818 337.224 662.881 340.572 660.959C343.582 659.231 346.885 658 349.805 656.153C352.245 654.609 354.362 653.01 357.267 652.583C359.449 652.262 360.931 651.688 362.821 650.541C365.5 648.915 368.181 647.619 370.6 645.722C372.318 644.373 374.888 644.908 376.551 646.072C378.547 647.47 380.185 649.951 382.018 651.622C384.729 654.093 386.527 658.289 388.931 661.135C390.709 663.24 392.87 664.832 394.723 666.886C396.768 669.153 397.728 671.646 399.435 674.09C400.327 675.367 400.946 676.465 401.254 677.975C401.454 678.957 401.838 681.055 402.33 681.902C403.401 683.744 403.869 686.472 404.44 688.535C405.231 691.389 406.713 693.992 407.506 696.889C408.475 700.425 408.693 704.134 409.306 707.743C409.523 709.025 410.361 710.051 410.628 711.338C410.987 713.064 411.191 714.852 411.424 716.599C412.075 721.463 412.006 726.795 411.393 731.67C411.034 734.527 410.459 735.769 407.953 737.44C399.724 742.93 389.968 746.267 381.377 751.15C377.143 753.556 373.084 756.264 369.052 758.997C365.928 761.114 362.398 762.618 359.271 764.701C351.844 769.647 345.04 775.758 337.491 780.473C331.479 784.229 325.531 787.959 319.893 792.273C316.841 794.607 313.734 796.884 310.621 799.127C307.996 801.018 305.805 803.482 303.16 805.329C301.311 806.62 296.345 810.18 297.209 805.909C297.466 804.636 297.745 803.095 298.396 801.945C298.994 800.888 300.059 800.127 300.62 799.168C301.378 797.871 302.866 796.552 303.821 795.316C305.211 793.515 306.649 791.814 308.404 790.376C313.011 786.603 317.954 783.487 322.738 779.987C329.078 775.349 335.818 771.281 342.256 766.884C344.578 765.298 347.372 764.335 349.821 762.936C350.933 762.301 351.899 761.483 352.866 760.65C354.898 758.902 358.252 758.648 360.746 758.062C371.485 755.541 379.022 748.839 388.017 742.912C393.045 739.6 398.369 736.697 403.531 733.598C405.189 732.602 405.791 731.067 405.513 729.176L403.609 716.227L403.573 715.979C402.692 709.988 401.82 704.055 400.453 698.152C399.618 694.545 397.803 691.406 396.678 687.906C396.309 686.758 394.537 681.582 393.158 682.637C392.448 683.18 391.975 683.382 391.047 683.56C388.862 683.98 387.314 685.203 385.802 686.782C382.476 690.255 378.997 694.201 374.127 695.033C372.27 695.35 370.695 696.354 368.825 696.629C367.591 696.811 365.563 696.703 364.497 697.447C362.927 698.544 362.477 698.993 360.557 699.66C359.218 700.125 357.247 697.921 356.057 698.688C353.748 700.176 351.843 701.842 349.81 703.736C349.084 704.412 347.984 704.526 346.998 704.671C343.16 705.235 339.335 704.912 335.803 706.317C330.945 708.249 327.566 713.358 322.496 714.581C319.082 715.404 316.613 720.823 313.526 722.412C310.077 724.187 306.714 726.309 303.646 728.675C298.962 732.287 293.381 733.903 288.354 736.868C286.418 738.009 284.843 739.684 283.097 741.089C282.455 741.607 281.366 742.887 280.534 743.1C279.159 743.452 280.091 745.645 280.263 746.816C280.73 749.992 281.004 753.275 281.696 756.408C284.015 766.917 286.016 777.615 287.584 788.286L287.641 788.676C288.153 792.163 288.707 795.939 289.702 799.298C290.193 800.956 290.426 802.582 290.773 804.268C291.051 805.617 291.894 806.706 292.125 808.063C292.315 809.18 293.712 811.249 292.048 810.934C291.276 810.788 289.902 810.338 289.224 809.942C284.135 806.968 277.25 806.038 271.549 804.235C264.222 801.919 256.734 800.536 249.44 798.318C246.378 797.386 242.835 797.079 239.648 796.694C237.035 796.378 234.352 795.621 231.796 794.989C228.268 794.117 224.856 793.39 221.468 792.037C218.113 790.696 214.969 788.864 211.595 787.543C207.508 785.943 203.185 784.706 199.216 782.827C198.134 782.315 195.389 781.595 194.592 780.852C193.554 779.886 193.248 780.046 192.977 778.208C192.511 775.037 191.984 771.906 191.898 768.7C191.66 759.945 190.578 751.212 190.172 742.45C189.933 737.298 189.401 732.294 188.745 727.185C188.317 723.857 189.21 720.501 189.733 717.237C190.128 714.773 190.91 714.885 192.829 713.287C194.517 711.881 195.595 709.514 196.698 707.658C197.585 706.168 199.112 705.121 200.469 704.131C201.448 703.417 201.974 702.218 202.839 701.423C207.364 697.265 212.336 693.488 216.899 689.327C223.701 683.125 230.232 676.808 236.748 670.298C241.435 665.617 245.873 660.005 250.951 655.776C251.995 654.906 253.315 654.777 254.475 654.123C256.088 653.214 257.199 654.479 258.9 653.643C263.453 651.404 269.321 651.203 274.25 650.479C280.406 649.574 287.265 645.523 293.493 645.71C297.827 645.84 305.885 645.506 310.189 645.933C312.032 646.116 308.177 650.123 307.585 650.514C306.634 651.143 300.148 653.826 299.283 654.571C297.264 656.308 296.56 655.704 294.591 657.507C292.496 659.426 290.665 661.313 288.168 662.74C285.283 664.387 282.962 665.197 280.653 667.498C278.135 670.005 274.979 672 272.286 674.332C269.076 677.112 266.837 680.811 263.516 683.518C260.697 685.816 257.367 688.111 254.865 690.735C252.31 693.414 250.114 696.514 247.313 698.947C245.488 700.533 243.676 701.982 241.465 703.006C240.885 703.276 239.01 704.127 239.909 702.917C240.895 701.592 242.163 700.975 243.067 699.39C243.887 697.951 245.224 696.474 246.358 695.23C248.968 692.367 252.031 690.064 254.775 687.344C259.393 682.767 264.403 678.473 269.352 674.287C273.349 670.906 276.894 667.171 281.172 664.086C284.474 661.705 286.899 658.434 289.745 655.564C290.584 654.719 296.368 650.098 292.874 650.612C289.162 651.157 285.493 652.02 281.85 652.641C277.833 653.325 272.125 653.449 268.218 654.651C263.673 656.05 260.866 658.713 256.18 659.704C253.326 660.308 249.87 663.453 247.872 665.395C244.413 668.76 241.895 672.869 238.34 676.191C232.71 681.452 227.365 687.731 220.952 692.044C217.713 694.223 215.286 697.416 211.841 699.374C208.885 701.054 205.999 702.899 203.087 704.654C202.837 704.805 199.386 706.921 200.734 707.02C202.284 707.132 204.179 706.536 205.713 706.31C212.276 705.346 218.775 704.799 225.34 703.834C227.621 703.498 231.447 702.876 233.349 704.29C234.409 705.079 233.022 705.916 232.066 706.521C230.1 707.765 228.335 709.147 226.095 710.054C223.127 711.255 220.863 712.252 217.661 712.723L209.665 713.898L199.114 715.449C197.596 715.672 200.481 719.601 200.793 719.719C208.331 722.566 216.864 722.826 224.385 725.849C227.672 727.17 229.107 727.687 232.416 729.039C234.692 729.968 238.105 733.198 240.445 733.997C245.353 735.673 251.797 733.708 256.725 735.084C258.736 735.646 259.69 734.759 261.145 736.238C262.401 737.516 265.178 738.973 265.473 740.98C265.53 741.372 263.658 741.091 263.466 740.912C262.405 739.924 257.639 739.993 256.137 739.834C252.716 739.47 249.238 738.322 245.858 737.986C239.359 737.34 234.166 733.608 227.91 731.703C220.099 729.324 212.334 727.007 204.438 724.851C202.036 724.196 198.169 725.633 195.778 725.016C194.359 724.65 194.75 726.414 194.358 727.086C193.9 727.868 194.338 729.112 194.471 730.019C194.703 731.595 194.661 733.47 194.787 735.101C195.698 746.887 197.827 758.406 199.542 770.072C199.865 772.27 199.764 780.308 201.747 781.627C203.61 782.866 208.299 786.145 209.879 785.491C211.694 786.176 214.516 786.156 216.422 786.199C220.4 786.289 222.329 787.361 226.191 788.26C235.734 790.482 245.135 793.092 254.482 795.947C259.199 797.387 262.465 797.077 267.169 798.564C269.347 799.253 271.884 801.182 276.496 801.936C276.496 801.936 283.651 804.388 285.81 804.675C286.538 804.772 282.03 797.741 281.924 797.015Z" fill="#FF4D00"/>
</svg>
