<svg width="35" height="53" viewBox="0 0 35 53" fill="none" xmlns="http://www.w3.org/2000/svg">
<path d="M0 45.296V52.7227H34.125V44.7254C34.125 43.457 33.9976 42.1917 33.7446 40.9487L33.6025 40.2502C32.9572 37.0792 31.397 34.1668 29.1148 31.8728C27.7622 30.5132 26.1837 29.3989 24.4497 28.5796L23.8141 28.2793C21.6449 27.2543 19.2754 26.7227 16.8762 26.7227C14.3032 26.7227 11.7669 27.3341 9.47648 28.5065L9.40455 28.5433C7.75628 29.387 6.26144 30.5016 4.98241 31.8406C3.00711 33.9084 1.60186 36.4532 0.903909 39.2264L0.60483 40.4147C0.203146 42.0107 0 43.6502 0 45.296Z" fill="white"/>
<path d="M0 45.296V52.7227H34.125V44.7254C34.125 43.457 33.9976 42.1917 33.7446 40.9487L33.6025 40.2502C32.9572 37.0792 31.397 34.1668 29.1148 31.8728C27.7622 30.5132 26.1837 29.3989 24.4497 28.5796L23.8141 28.2793C21.6449 27.2543 19.2754 26.7227 16.8762 26.7227C14.3032 26.7227 11.7669 27.3341 9.47648 28.5065L9.40455 28.5433C7.75628 29.387 6.26144 30.5016 4.98241 31.8406C3.00711 33.9084 1.60186 36.4532 0.903909 39.2264L0.60483 40.4147C0.203146 42.0107 0 43.6502 0 45.296Z" fill="#7F9849"/>
<path d="M30.875 13.5419C30.875 20.8213 24.6909 26.7224 17.0625 26.7224C9.43407 26.7224 3.25 20.8213 3.25 13.5419C3.25 6.26246 9.43407 0.361328 17.0625 0.361328C24.6909 0.361328 30.875 6.26246 30.875 13.5419Z" fill="white"/>
<path d="M30.875 13.5419C30.875 20.8213 24.6909 26.7224 17.0625 26.7224C9.43407 26.7224 3.25 20.8213 3.25 13.5419C3.25 6.26246 9.43407 0.361328 17.0625 0.361328C24.6909 0.361328 30.875 6.26246 30.875 13.5419Z" fill="#7F9849"/>
</svg>
