<svg width="35" height="53" viewBox="0 0 35 53" fill="none" xmlns="http://www.w3.org/2000/svg">
<path d="M0 44.9347V52.3613H34.125V44.3641C34.125 43.0956 33.9976 41.8303 33.7446 40.5873L33.6025 39.8888C32.9572 36.7179 31.397 33.8055 29.1148 31.5114C27.7622 30.1519 26.1837 29.0376 24.4497 28.2182L23.8141 27.9179C21.6449 26.8929 19.2754 26.3613 16.8762 26.3613C14.3032 26.3613 11.7669 26.9727 9.47648 28.1452L9.40455 28.182C7.75628 29.0257 6.26144 30.1403 4.98241 31.4792C3.00711 33.5471 1.60186 36.0918 0.903909 38.865L0.60483 40.0534C0.203146 41.6494 0 43.2889 0 44.9347Z" fill="white"/>
<path d="M0 44.9347V52.3613H34.125V44.3641C34.125 43.0956 33.9976 41.8303 33.7446 40.5873L33.6025 39.8888C32.9572 36.7179 31.397 33.8055 29.1148 31.5114C27.7622 30.1519 26.1837 29.0376 24.4497 28.2182L23.8141 27.9179C21.6449 26.8929 19.2754 26.3613 16.8762 26.3613C14.3032 26.3613 11.7669 26.9727 9.47648 28.1452L9.40455 28.182C7.75628 29.0257 6.26144 30.1403 4.98241 31.4792C3.00711 33.5471 1.60186 36.0918 0.903909 38.865L0.60483 40.0534C0.203146 41.6494 0 43.2889 0 44.9347Z" fill="#576832"/>
<path d="M30.875 13.1806C30.875 20.46 24.6909 26.3611 17.0625 26.3611C9.43407 26.3611 3.25 20.46 3.25 13.1806C3.25 5.90114 9.43407 0 17.0625 0C24.6909 0 30.875 5.90114 30.875 13.1806Z" fill="white"/>
<path d="M30.875 13.1806C30.875 20.46 24.6909 26.3611 17.0625 26.3611C9.43407 26.3611 3.25 20.46 3.25 13.1806C3.25 5.90114 9.43407 0 17.0625 0C24.6909 0 30.875 5.90114 30.875 13.1806Z" fill="#576832"/>
</svg>
