<svg width="55" height="55" viewBox="0 0 55 55" fill="none" xmlns="http://www.w3.org/2000/svg">
<g clip-path="url(#clip0_773_5707)">
<path fill-rule="evenodd" clip-rule="evenodd" d="M40.0779 49.1904C39.6623 48.5383 14.1167 9.46534 11.8266 5.88113H18.8214C20.726 8.85956 41.0605 40.0237 46.9216 49.1904H40.0817H40.0779ZM1 54.9958H8.282C11.9438 50.7259 20.3028 40.9955 24.641 35.9431C26.6325 39.1277 32.8375 48.105 37.1153 54.9874H57C54.0562 50.3851 39.5338 29.1869 35.6528 23.1207C41.5442 16.2594 49.0491 7.52601 55.5149 0C54.9367 0 48.248 0 48.2367 0C47.2844 1.1106 35.8191 14.4589 32.8715 17.8916C31.4544 15.6578 21.6027 0.35758 21.3873 0H1.94851C3.68304 2.7134 19.5168 27.4706 21.7048 30.8949C20.0836 32.8216 3.53566 51.9795 1 55V54.9958Z" fill="#FF4D00"/>
</g>
<defs>
<clipPath id="clip0_773_5707">
<rect width="55" height="55" fill="white"/>
</clipPath>
</defs>
</svg>
