<svg width="30" height="55" viewBox="0 0 30 55" fill="none" xmlns="http://www.w3.org/2000/svg">
<g clip-path="url(#clip0_774_5717)">
<path fill-rule="evenodd" clip-rule="evenodd" d="M0 20.8077V30.6678L8.90675 30.6819L8.92117 54.5042C9.43239 54.8241 13.4753 55.0068 14.3358 54.9998C15.567 54.9893 18.8647 54.9049 19.844 54.5464C20.006 52.6939 19.8728 50.4863 19.8692 48.5952V30.7065L28.0163 30.6783L29.5788 20.8253L19.8512 20.8113C19.8512 19.015 19.8512 17.2258 19.8512 15.4366C19.8512 13.5278 19.898 12.3784 20.8592 10.9934C22.6521 8.41326 26.4215 9.27448 30 9.046V0.65881C29.388 0.405718 25.0822 0.0893527 24.1462 0.0436555C21.14 -0.107497 18.3535 0.0963625 15.6678 1.25285C14.883 1.59031 14.2458 2.01566 13.6446 2.45506C12.5033 3.28815 11.3441 4.64852 10.6348 5.87531C8.34875 9.81933 8.98235 15.2678 8.92835 19.9957C8.91755 20.9976 9.35318 20.7761 6.51267 20.7832C5.08341 20.7832 1.11604 20.7234 0 20.8042V20.8077Z" fill="#FF9466"/>
</g>
<defs>
<clipPath id="clip0_774_5717">
<rect width="30" height="55" fill="white"/>
</clipPath>
</defs>
</svg>
