<svg width="55" height="55" viewBox="0 0 55 55" fill="none" xmlns="http://www.w3.org/2000/svg">
<path fill-rule="evenodd" clip-rule="evenodd" d="M34.2319 50.0178C28.6855 50.0178 23.2125 50.1182 17.6394 49.9174C14.6293 49.8104 11.4924 49.4389 9.42331 47.9599C5.63895 45.2527 5.22848 41.5551 5.0683 37.0978C4.8981 32.3528 4.99821 26.6741 4.98153 21.8655C4.96818 18.2816 4.89475 13.1183 6.6668 10.0565C7.3943 8.7949 8.16186 8.05202 9.23977 7.18868C9.81043 6.73359 10.6881 6.322 11.3956 6.04761C12.5069 5.62263 13.7249 5.37834 14.9997 5.24784C18.694 4.86636 26.0325 4.99017 30.3841 4.99352C34.0083 4.99352 40.3823 4.77937 43.6694 6.09446C44.2535 6.3287 44.7741 6.57297 45.2847 6.89756C45.5249 7.05148 45.8019 7.23218 45.9955 7.39615C46.2458 7.60697 46.3792 7.8044 46.5962 8.00183C47.4505 8.77817 48.0378 9.40727 48.6385 10.7424C50.2537 14.3263 49.97 20.0552 49.9834 24.0105C49.9967 28.5414 50.0868 36.0337 49.7598 39.6678C49.4695 42.9003 48.5551 45.3163 46.4927 47.1735C45.2379 48.3045 43.9698 48.9269 42.2178 49.382C40.052 49.9442 36.5846 50.0178 34.2286 50.0178H34.2319ZM20.2892 0.0644397C14.6093 0.18156 10.1141 0.248493 5.84252 3.56467C5.33861 3.95618 4.87807 4.33765 4.45091 4.80947C4.30742 4.9701 4.21063 5.09392 4.07047 5.25454C3.36299 6.08442 3.60661 5.81672 2.93583 6.70014C2.46529 7.32255 2.05148 8.12565 1.70441 8.9321C0.115915 12.6063 0.109239 16.7055 0.0658561 21.0356C0.0191356 25.6401 -0.164409 36.81 0.399574 41.2137C1.07702 46.5076 3.88359 51.1556 8.91939 53.3106C12.6337 54.9001 16.6316 54.9168 21 54.9704C23.2826 54.9971 25.5819 55.0005 27.8679 54.9871C30.1505 54.9737 32.4599 55.0272 34.7358 54.9804C40.5025 54.8599 45.3948 54.6993 49.623 51.0619C49.9367 50.7942 50.2771 50.4997 50.534 50.2153C54.7856 45.5606 54.8624 40.4742 54.9391 34.0159C54.9925 29.4984 55.1527 18.1143 54.5687 13.7742C54.235 11.2979 53.2605 8.17918 51.7721 6.29188C50.1102 4.18372 48.525 2.84521 46.0288 1.70078C42.6216 0.138063 37.9929 0.104603 33.9115 0.0510619C29.4197 -0.00917132 24.7877 -0.0292564 20.2992 0.0644397H20.2892ZM27.0336 18.372C29.6366 18.1846 31.8391 19.1952 33.698 20.8014C35.3532 22.2336 36.4645 24.6664 36.6213 27.0021C36.7448 28.8559 36.1875 30.9808 35.193 32.4498C33.5311 34.906 31.1584 36.4754 28.0247 36.6561C24.3105 36.8703 20.97 34.8759 19.3047 31.6367C16.5081 26.1989 19.8921 18.884 27.0336 18.3753V18.372ZM26.7199 13.4295C23.4361 13.6269 20.3059 14.9119 18.0199 17.0703C17.2657 17.7797 16.9553 18.0742 16.3213 18.8907C14.2822 21.5041 13.211 24.9073 13.4179 28.354C13.6015 31.4325 14.6093 33.7783 16.2679 36.0504C18.971 39.7514 23.7165 41.8797 28.3485 41.5919C31.115 41.4212 34.005 40.3437 36.044 38.7375L36.9817 37.9177C40.0486 35.1503 41.8173 31.0578 41.5603 26.6741C41.4135 24.1376 40.6259 21.9893 39.4312 20.015C38.8572 19.068 38.5769 18.7769 37.8761 18.0541C37.5791 17.7462 37.3422 17.4317 37.0485 17.1205L36.0774 16.3307C33.3108 14.3297 30.3975 13.2053 26.7233 13.4295H26.7199ZM41.7573 9.57459C40.7895 9.70175 39.9819 10.2137 39.6081 10.7458C39.1175 11.4452 38.7204 12.101 38.8706 13.2522C39.0875 14.942 40.5826 16.3642 42.5548 16.1132C44.2535 15.8957 45.6651 14.4234 45.4048 12.4357C45.1879 10.7726 43.6962 9.32027 41.7573 9.57124V9.57459Z" fill="#FF4D00"/>
</svg>
